<?xml version="1.0" standalone="no"?>
<!DOCTYPE svg PUBLIC "-//W3C//DTD SVG 20010904//EN"
 "http://www.w3.org/TR/2001/REC-SVG-20010904/DTD/svg10.dtd">
<svg version="1.0" xmlns="http://www.w3.org/2000/svg"
 width="360.000000pt" height="360.000000pt" viewBox="0 0 360.000000 360.000000"
 preserveAspectRatio="xMidYMid meet">

<g transform="translate(0.000000,360.000000) scale(0.100000,-0.100000)"
fill="#000000" stroke="none">
<path d="M1467 3103 c-79 -124 -99 -162 -93 -181 4 -10 54 -42 125 -77 101
-50 122 -57 135 -46 33 27 19 49 -54 86 -38 19 -70 37 -70 39 0 8 115 28 203
36 402 33 803 -157 1040 -491 226 -320 273 -764 119 -1124 -32 -74 -30 -105 7
-105 26 0 33 12 74 115 109 275 109 615 0 890 -65 165 -139 280 -262 408 -182
189 -390 305 -641 358 -132 28 -353 31 -474 6 -44 -9 -81 -16 -82 -14 -2 1 13
27 32 57 39 63 42 103 7 108 -18 3 -31 -10 -66 -65z"/>
<path d="M1225 2626 c-65 -29 -95 -84 -95 -175 0 -145 115 -243 214 -181 90
55 114 238 42 319 -42 47 -106 62 -161 37z m92 -71 c30 -21 46 -77 38 -131 -7
-49 -47 -104 -75 -104 -28 0 -68 55 -76 105 -8 57 0 90 31 121 28 28 52 30 82
9z"/>
<path d="M2265 2626 c-68 -31 -101 -102 -92 -197 17 -190 194 -244 273 -84 23
47 26 65 22 125 -4 73 -19 105 -69 143 -34 24 -96 31 -134 13z m100 -80 c31
-31 39 -64 31 -121 -8 -50 -48 -105 -76 -105 -10 0 -30 14 -44 30 -83 99 1
284 89 196z"/>
<path d="M692 2348 c-23 -30 -83 -201 -103 -298 -31 -148 -31 -354 0 -500 53
-251 169 -459 358 -641 173 -167 368 -270 603 -320 132 -28 353 -31 474 -6 44
9 81 16 82 14 1 -1 -15 -31 -36 -66 -30 -50 -37 -68 -29 -83 25 -47 70 -1 167
172 25 45 26 49 10 67 -9 10 -66 42 -127 72 -93 46 -112 53 -125 42 -33 -27
-19 -49 54 -86 39 -19 70 -37 70 -39 0 -8 -115 -28 -203 -36 -343 -28 -686
104 -929 358 -93 98 -147 176 -209 306 -142 297 -149 651 -21 951 22 51 28 74
21 87 -11 21 -42 24 -57 6z"/>
<path d="M1122 2225 c-81 -18 -128 -47 -152 -96 -22 -43 -26 -109 -8 -127 17
-17 619 -17 636 0 35 35 -4 152 -64 189 -74 45 -280 62 -412 34z m322 -76 c30
-7 55 -22 73 -43 l26 -31 -132 -3 c-72 -1 -190 -1 -262 0 l-132 3 27 32 c20
24 40 34 79 42 29 6 61 13 72 15 32 8 200 -2 249 -15z"/>
<path d="M2162 2225 c-80 -18 -122 -44 -150 -93 -24 -43 -29 -111 -10 -130 17
-17 619 -17 636 0 18 18 14 84 -8 127 -11 22 -35 49 -54 60 -76 47 -280 65
-414 36z m323 -76 c29 -7 55 -22 72 -43 l26 -31 -132 -3 c-72 -1 -190 -1 -262
0 l-132 3 27 32 c26 31 47 39 156 57 40 7 196 -3 245 -15z"/>
<path d="M1777 2032 c-10 -10 -17 -27 -17 -38 0 -13 -13 -24 -40 -36 -59 -24
-82 -68 -77 -147 3 -58 6 -66 38 -96 19 -17 68 -44 107 -59 83 -32 112 -62
112 -116 0 -56 -38 -90 -101 -90 -42 0 -55 5 -89 36 -43 39 -73 41 -78 5 -5
-29 48 -86 93 -101 22 -7 34 -19 40 -43 8 -25 15 -32 35 -32 19 0 27 7 34 30
6 21 22 36 50 51 59 29 86 74 86 141 0 94 -41 142 -160 188 -76 29 -100 53
-100 100 0 35 6 45 40 68 36 25 91 21 135 -9 44 -29 69 -28 73 4 5 31 -21 58
-74 78 -29 11 -44 23 -44 35 0 18 -25 49 -39 49 -4 0 -15 -8 -24 -18z"/>
<path d="M1204 1741 c-87 -53 -100 -228 -23 -316 106 -121 263 -9 246 176 -3
34 -14 73 -26 93 -39 63 -134 85 -197 47z m124 -74 c33 -35 39 -104 14 -160
-11 -25 -30 -51 -42 -57 -50 -27 -106 60 -97 148 9 81 78 119 125 69z"/>
<path d="M2250 1741 c-123 -66 -98 -317 37 -362 125 -41 231 155 162 299 -38
77 -123 104 -199 63z m119 -75 c46 -49 34 -168 -20 -209 -36 -26 -64 -10 -91
50 -51 115 37 238 111 159z"/>
<path d="M1106 1344 c-104 -25 -160 -90 -154 -177 l3 -42 325 0 325 0 3 42 c4
51 -25 112 -67 142 -67 48 -303 67 -435 35z m304 -64 c73 -17 100 -31 116 -61
l15 -29 -261 0 -261 0 15 29 c24 46 101 69 241 70 50 0 110 -4 135 -9z"/>
<path d="M2147 1344 c-33 -8 -72 -23 -88 -35 -42 -29 -71 -91 -67 -142 l3 -42
325 0 325 0 3 29 c7 54 -8 96 -48 136 -31 31 -51 41 -108 54 -87 20 -264 20
-345 0z m303 -64 c73 -17 100 -31 116 -61 l15 -29 -261 0 -261 0 15 29 c24 46
101 69 241 70 50 0 110 -4 135 -9z"/>
</g>
</svg>
