<svg width="363" height="137" viewBox="0 0 363 137" fill="none" xmlns="http://www.w3.org/2000/svg">
<path d="M204.188 0H68.0625V22.6875H204.188V0Z" fill="#F1B701"/>
<path d="M363 0H226.875V22.6875H363V0Z" fill="#F1B701"/>
<path d="M90.75 22.6875H68.0625V45.375H90.75V22.6875Z" fill="#F1B701"/>
<path d="M136.125 22.6875H90.75V45.375H136.125V22.6875Z" fill="white"/>
<path d="M181.5 22.6875H136.125V45.375H181.5V22.6875Z" fill="black"/>
<path d="M204.188 22.6875H181.5V45.375H204.188V22.6875Z" fill="#F1B701"/>
<path d="M249.562 22.6875H226.875V45.375H249.562V22.6875Z" fill="#F1B701"/>
<path d="M294.938 22.6875H249.562V45.375H294.938V22.6875Z" fill="white"/>
<path d="M340.312 22.6875H294.938V45.375H340.312V22.6875Z" fill="black"/>
<path d="M363 22.6875H340.312V45.375H363V22.6875Z" fill="#F1B701"/>
<path d="M90.75 45.375H0V68.0625H90.75V45.375Z" fill="#F1B701"/>
<path d="M136.125 45.375H90.75V68.0625H136.125V45.375Z" fill="white"/>
<path d="M181.5 45.375H136.125V68.0625H181.5V45.375Z" fill="black"/>
<path d="M249.562 45.375H181.5V68.0625H249.562V45.375Z" fill="#F1B701"/>
<path d="M294.938 45.375H249.562V68.0625H294.938V45.375Z" fill="white"/>
<path d="M340.312 45.375H294.938V68.0625H340.312V45.375Z" fill="black"/>
<path d="M363 45.375H340.312V68.0625H363V45.375Z" fill="#F1B701"/>
<path d="M22.6875 68.0625H0V90.75H22.6875V68.0625Z" fill="#F1B701"/>
<path d="M90.75 68.0625H68.0625V90.75H90.75V68.0625Z" fill="#742E07"/>
<path d="M136.125 68.0625H90.75V90.75H136.125V68.0625Z" fill="white"/>
<path d="M181.5 68.0625H136.125V90.75H181.5V68.0625Z" fill="black"/>
<path d="M204.188 68.0625H181.5V90.75H204.188V68.0625Z" fill="#742E07"/>
<path d="M249.562 68.0625H226.875V90.75H249.562V68.0625Z" fill="#742E07"/>
<path d="M294.938 68.0625H249.562V90.75H294.938V68.0625Z" fill="white"/>
<path d="M340.312 68.0625H294.938V90.75H340.312V68.0625Z" fill="black"/>
<path d="M363 68.0625H340.312V90.75H363V68.0625Z" fill="#742E07"/>
<path d="M22.6875 90.75H0V113.438H22.6875V90.75Z" fill="#F1B701"/>
<path d="M90.75 90.75H68.0625V113.438H90.75V90.75Z" fill="#742E07"/>
<path d="M136.125 90.75H90.75V113.438H136.125V90.75Z" fill="white"/>
<path d="M181.5 90.75H136.125V113.438H181.5V90.75Z" fill="black"/>
<path d="M204.188 90.75H181.5V113.438H204.188V90.75Z" fill="#742E07"/>
<path d="M249.562 90.75H226.875V113.438H249.562V90.75Z" fill="#742E07"/>
<path d="M294.938 90.75H249.562V113.438H294.938V90.75Z" fill="white"/>
<path d="M340.312 90.75H294.938V113.438H340.312V90.75Z" fill="black"/>
<path d="M363 90.75H340.312V113.438H363V90.75Z" fill="#742E07"/>
<path d="M204.188 113.438H68.0625V136.125H204.188V113.438Z" fill="#742E07"/>
<path d="M363 113.438H226.875V136.125H363V113.438Z" fill="#742E07"/>
</svg>
