<svg width="160" height="80" viewBox="0 0 160 80" fill="none" xmlns="http://www.w3.org/2000/svg">
<rect y="20" width="10" height="10" fill="#71B628"/>
<rect y="30" width="10" height="10" fill="#71B628"/>
<rect y="40" width="10" height="10" fill="#71B628"/>
<rect y="50" width="10" height="10" fill="#71B628"/>
<rect x="10" y="10" width="10" height="10" fill="#71B628"/>
<rect x="10" y="60" width="10" height="10" fill="#71B628"/>
<rect x="20" width="10" height="10" fill="#71B628"/>
<rect x="30" width="10" height="10" fill="#71B628"/>
<rect x="30" y="20" width="10" height="10" fill="#71B628"/>
<rect x="30" y="30" width="10" height="10" fill="#71B628"/>
<rect x="30" y="40" width="10" height="10" fill="#71B628"/>
<rect x="30" y="50" width="10" height="10" fill="#71B628"/>
<rect x="30" y="70" width="10" height="10" fill="#71B628"/>
<rect x="20" y="70" width="10" height="10" fill="#71B628"/>
<rect x="40" width="10" height="10" fill="#71B628"/>
<rect x="40" y="20" width="10" height="10" fill="#71B628"/>
<rect x="40" y="30" width="10" height="10" fill="#71B628"/>
<rect x="40" y="40" width="10" height="10" fill="#71B628"/>
<rect x="40" y="70" width="10" height="10" fill="#71B628"/>
<rect x="50" width="10" height="10" fill="#71B628"/>
<rect x="100" width="10" height="10" fill="#71B628"/>
<rect x="100" y="60" width="10" height="10" fill="#71B628"/>
<rect x="90" y="30" width="10" height="10" fill="#71B628"/>
<rect x="100" y="10" width="10" height="10" fill="#71B628"/>
<rect x="100" y="70" width="10" height="10" fill="#71B628"/>
<rect x="90" y="40" width="10" height="10" fill="#71B628"/>
<rect x="120" y="10" width="10" height="10" fill="#71B628"/>
<rect x="120" y="70" width="10" height="10" fill="#71B628"/>
<rect x="130" y="10" width="10" height="10" fill="#71B628"/>
<rect x="130" y="70" width="10" height="10" fill="#71B628"/>
<rect x="130" width="10" height="10" fill="#71B628"/>
<rect x="130" y="60" width="10" height="10" fill="#71B628"/>
<rect x="110" width="10" height="10" fill="#71B628"/>
<rect x="110" y="60" width="10" height="10" fill="#71B628"/>
<rect x="100" y="30" width="10" height="10" fill="#71B628"/>
<rect x="120" y="30" width="10" height="10" fill="#71B628"/>
<rect x="120" y="40" width="10" height="10" fill="#71B628"/>
<rect x="130" y="40" width="10" height="10" fill="#71B628"/>
<rect x="140" y="40" width="10" height="10" fill="#71B628"/>
<rect x="140" y="30" width="10" height="10" fill="#71B628"/>
<rect x="100" y="40" width="10" height="10" fill="#71B628"/>
<rect x="50" y="70" width="10" height="10" fill="#71B628"/>
<rect x="60" y="10" width="10" height="10" fill="#71B628"/>
<rect x="60" y="60" width="10" height="10" fill="#71B628"/>
<rect x="70" y="20" width="10" height="10" fill="#71B628"/>
<rect x="70" y="30" width="10" height="10" fill="#71B628"/>
<rect x="70" y="40" width="10" height="10" fill="#71B628"/>
<rect x="70" y="50" width="10" height="10" fill="#71B628"/>
</svg>
