<?xml version="1.0" encoding="utf-8"?>
<!-- Generator: Adobe Illustrator 25.4.1, SVG Export Plug-In . SVG Version: 6.00 Build 0)  -->
<svg version="1.1" id="Layer_1" xmlns="http://www.w3.org/2000/svg" xmlns:xlink="http://www.w3.org/1999/xlink" x="0px" y="0px"
	 width="550.1px" height="552px" viewBox="0 0 550.1 552" style="enable-background:new 0 0 550.1 552;" xml:space="preserve">
<style type="text/css">
	.st0{fill:#333745;}
</style>
<g id="squares_1_">
	<path class="st0" d="M451.9,16.5H213.2v320.3h320.3v-237C533.7,54.9,496.9,16.5,451.9,16.5z M139.9,16.5h-40
		c-45,0-83.5,36.6-83.5,83.5v40h123.5V16.5z M16.4,215h123.5v123.5H16.4V215z M410.2,535.3h40c45,0,83.5-36.6,83.5-83.5v-39.9H410.2
		L410.2,535.3L410.2,535.3z M213.2,411.9h123.5v123.5H213.2V411.9z M16.4,411.9v40c0,45,36.6,83.5,83.5,83.5h40V411.9H16.4z"/>
</g>
</svg>
