<svg xmlns="http://www.w3.org/2000/svg" width="36" height="36" fill="none">
    <rect width="36" height="36" fill="#F4F4F8" rx="18"/>
    <g clip-path="url(#a)">
        <path fill="#8C8D92" d="M18 7a8.93 8.93 0 0 0-6.364 2.677A9.2 9.2 0 0 0 9 16.14v11.493a.69.69 0 0 0 .416.633.66.66 0 0 0 .734-.15l1.375-1.396a.67.67 0 0 1 .95 0l2.05 2.082a.67.67 0 0 0 .95 0l2.05-2.082a.67.67 0 0 1 .95 0l2.05 2.082a.67.67 0 0 0 .95 0l2.05-2.082a.67.67 0 0 1 .95 0l1.375 1.396a.67.67 0 0 0 .734.15.69.69 0 0 0 .416-.633V16.14a9.2 9.2 0 0 0-2.636-6.463A8.93 8.93 0 0 0 18 7m-2.041 9.057.887.901a.32.32 0 0 1 0 .446l-.496.504a.3.3 0 0 1-.22.092.3.3 0 0 1-.219-.092l-.888-.902a.31.31 0 0 0-.439 0l-.887.902a.31.31 0 0 1-.44 0l-.495-.504a.32.32 0 0 1 0-.446l.888-.901a.3.3 0 0 0 .091-.223.32.32 0 0 0-.091-.223l-.889-.902a.32.32 0 0 1 0-.446l.497-.503a.31.31 0 0 1 .439 0l.887.902a.31.31 0 0 0 .439 0l.888-.902a.31.31 0 0 1 .439 0l.496.503a.32.32 0 0 1 0 .446l-.887.902a.317.317 0 0 0 0 .446m6.392 0 .887.901a.32.32 0 0 1 0 .446l-.495.504a.3.3 0 0 1-.22.092.3.3 0 0 1-.22-.092l-.887-.902a.31.31 0 0 0-.339-.068.3.3 0 0 0-.1.068l-.888.902a.31.31 0 0 1-.439 0l-.496-.504a.32.32 0 0 1 0-.446l.887-.901a.3.3 0 0 0 .092-.223.32.32 0 0 0-.091-.223l-.888-.902a.32.32 0 0 1 0-.446l.496-.503a.31.31 0 0 1 .439 0l.888.902a.31.31 0 0 0 .439 0l.887-.902a.31.31 0 0 1 .44 0l.495.503a.32.32 0 0 1 0 .446l-.888.902a.32.32 0 0 0 0 .446"/>
    </g>
    <defs>
        <clipPath id="a">
            <path fill="#fff" d="M9 7h18v22H9z"/>
        </clipPath>
    </defs>
</svg>
