<svg xmlns="http://www.w3.org/2000/svg" width="20" height="20" fill="none">
    <path fill="currentColor" fill-rule="evenodd" d="M6.111 3.182A3.2 3.2 0 0 0 7.93 2.43a3.194 3.194 0 0 1 4.142 0 3.2 3.2 0 0 0 1.818.753 3.194 3.194 0 0 1 2.929 2.93 3.18 3.18 0 0 0 .753 1.817 3.194 3.194 0 0 1 0 4.142 3.2 3.2 0 0 0-.753 1.818 3.194 3.194 0 0 1-2.93 2.929 3.2 3.2 0 0 0-1.817.753 3.194 3.194 0 0 1-4.142 0 3.2 3.2 0 0 0-1.818-.753 3.19 3.19 0 0 1-2.929-2.93 3.2 3.2 0 0 0-.753-1.817 3.194 3.194 0 0 1 0-4.142 3.2 3.2 0 0 0 .753-1.818 3.194 3.194 0 0 1 2.93-2.929m7.75 5.471A1.041 1.041 0 0 0 12.39 7.18l-3.43 3.43-1.35-1.346a1.042 1.042 0 0 0-1.473 1.473l2.084 2.083a1.04 1.04 0 0 0 1.473 0z" clip-rule="evenodd"/>
</svg>
