<svg width="24" height="24" viewBox="0 0 24 24" fill="none" xmlns="http://www.w3.org/2000/svg">
<path fill-rule="evenodd" clip-rule="evenodd" d="M7.5 4.125C7.5 3.82663 7.61853 3.54048 7.8295 3.3295C8.04048 3.11853 8.32663 3 8.625 3H8.63625C8.93462 3 9.22077 3.11853 9.43175 3.3295C9.64272 3.54048 9.76125 3.82663 9.76125 4.125C9.76125 4.42337 9.64272 4.70952 9.43175 4.9205C9.22077 5.13147 8.93462 5.25 8.63625 5.25H8.625C8.32663 5.25 8.04048 5.13147 7.8295 4.9205C7.61853 4.70952 7.5 4.42337 7.5 4.125ZM9.75 7.5C9.75 7.20163 9.63147 6.91548 9.4205 6.7045C9.20952 6.49353 8.92337 6.375 8.625 6.375C8.32663 6.375 8.04048 6.49353 7.8295 6.7045C7.61853 6.91548 7.5 7.20163 7.5 7.5V8.625C6.90326 8.625 6.33097 8.86205 5.90901 9.28401C5.48705 9.70597 5.25 10.2783 5.25 10.875V12C4.65326 12 4.08097 12.2371 3.65901 12.659C3.23705 13.081 3 13.6533 3 14.25V15.0184C3.42188 15.1367 3.82243 15.3208 4.18688 15.564C4.50173 15.7738 4.87163 15.8858 5.25 15.8858C5.62837 15.8858 5.99827 15.7738 6.31313 15.564C6.99772 15.1075 7.80215 14.8639 8.625 14.8639C9.44785 14.8639 10.2523 15.1075 10.9369 15.564C11.2517 15.7738 11.6216 15.8858 12 15.8858C12.3784 15.8858 12.7483 15.7738 13.0631 15.564C13.7477 15.1075 14.5521 14.8639 15.375 14.8639C16.1979 14.8639 17.0023 15.1075 17.6869 15.564C18.0017 15.7738 18.3716 15.8858 18.75 15.8858C19.1284 15.8858 19.4983 15.7738 19.8131 15.564C20.1776 15.3208 20.5781 15.1367 21 15.0184V14.25C21 13.6533 20.7629 13.081 20.341 12.659C19.919 12.2371 19.3467 12 18.75 12V10.875C18.75 10.2783 18.5129 9.70597 18.091 9.28401C17.669 8.86205 17.0967 8.625 16.5 8.625V7.5C16.5 7.20163 16.3815 6.91548 16.1705 6.7045C15.9595 6.49353 15.6734 6.375 15.375 6.375C15.0766 6.375 14.7905 6.49353 14.5795 6.7045C14.3685 6.91548 14.25 7.20163 14.25 7.5V8.625H13.125V7.5C13.125 7.20163 13.0065 6.91548 12.7955 6.7045C12.5845 6.49353 12.2984 6.375 12 6.375C11.7016 6.375 11.4155 6.49353 11.2045 6.7045C10.9935 6.91548 10.875 7.20163 10.875 7.5V8.625H9.75V7.5ZM21 17.4765C20.318 17.914 19.5233 18.1432 18.713 18.136C17.9028 18.1288 17.1122 17.8855 16.4381 17.436C16.1233 17.2262 15.7534 17.1142 15.375 17.1142C14.9966 17.1142 14.6267 17.2262 14.3119 17.436C13.6273 17.8925 12.8229 18.1361 12 18.1361C11.1771 18.1361 10.3727 17.8925 9.68813 17.436C9.37327 17.2262 9.00337 17.1142 8.625 17.1142C8.24663 17.1142 7.87673 17.2262 7.56187 17.436C6.88776 17.8855 6.0972 18.1288 5.28697 18.136C4.47674 18.1432 3.68199 17.914 3 17.4765V19.875C3 20.1734 3.11853 20.4595 3.3295 20.6705C3.54048 20.8815 3.82663 21 4.125 21H19.875C20.1734 21 20.4595 20.8815 20.6705 20.6705C20.8815 20.4595 21 20.1734 21 19.875V17.4765ZM10.875 4.125C10.875 3.82663 10.9935 3.54048 11.2045 3.3295C11.4155 3.11853 11.7016 3 12 3H12.0113C12.3096 3 12.5958 3.11853 12.8067 3.3295C13.0177 3.54048 13.1363 3.82663 13.1363 4.125C13.1363 4.42337 13.0177 4.70952 12.8067 4.9205C12.5958 5.13147 12.3096 5.25 12.0113 5.25H12C11.7016 5.25 11.4155 5.13147 11.2045 4.9205C10.9935 4.70952 10.875 4.42337 10.875 4.125ZM14.25 4.125C14.25 3.82663 14.3685 3.54048 14.5795 3.3295C14.7905 3.11853 15.0766 3 15.375 3H15.3863C15.6846 3 15.9708 3.11853 16.1817 3.3295C16.3927 3.54048 16.5113 3.82663 16.5113 4.125C16.5113 4.42337 16.3927 4.70952 16.1817 4.9205C15.9708 5.13147 15.6846 5.25 15.3863 5.25H15.375C15.0766 5.25 14.7905 5.13147 14.5795 4.9205C14.3685 4.70952 14.25 4.42337 14.25 4.125Z" fill="currentColor"/>
</svg>
