<svg xmlns="http://www.w3.org/2000/svg" width="24" height="24" fill="none">
    <path fill="currentColor" fill-rule="evenodd" d="M7.5 4.125A1.125 1.125 0 0 1 8.625 3h.011a1.125 1.125 0 0 1 0 2.25h-.011A1.125 1.125 0 0 1 7.5 4.125M9.75 7.5a1.125 1.125 0 0 0-2.25 0v1.125a2.25 2.25 0 0 0-2.25 2.25V12A2.25 2.25 0 0 0 3 14.25v.768c.422.119.822.303 1.187.546a1.92 1.92 0 0 0 2.126 0 4.17 4.17 0 0 1 4.624 0 1.92 1.92 0 0 0 2.126 0 4.17 4.17 0 0 1 4.624 0 1.92 1.92 0 0 0 2.126 0A4.2 4.2 0 0 1 21 15.018v-.768A2.25 2.25 0 0 0 18.75 12v-1.125a2.25 2.25 0 0 0-2.25-2.25V7.5a1.125 1.125 0 1 0-2.25 0v1.125h-1.125V7.5a1.125 1.125 0 1 0-2.25 0v1.125H9.75zM21 17.477a4.17 4.17 0 0 1-4.562-.041 1.92 1.92 0 0 0-2.126 0 4.17 4.17 0 0 1-4.624 0 1.92 1.92 0 0 0-2.126 0 4.17 4.17 0 0 1-4.562.04v2.399A1.125 1.125 0 0 0 4.125 21h15.75A1.125 1.125 0 0 0 21 19.875zM10.875 4.125A1.125 1.125 0 0 1 12 3h.011a1.125 1.125 0 0 1 0 2.25H12a1.125 1.125 0 0 1-1.125-1.125m3.375 0A1.125 1.125 0 0 1 15.375 3h.011a1.125 1.125 0 0 1 0 2.25h-.011a1.125 1.125 0 0 1-1.125-1.125" clip-rule="evenodd"/>
</svg>
