<svg xmlns="http://www.w3.org/2000/svg" width="16" height="16" viewBox="147.458 99.581 16 16">
    <path d="M155.458 99.581a8.001 8.001 0 1 0 .002 16.002 8.001 8.001 0 0 0-.002-16.002m0 3.548a1.355 1.355 0 1 1 0 2.71 1.355 1.355 0 0 1 0-2.71m1.807 8.193a.39.39 0 0 1-.388.388h-2.838a.39.39 0 0 1-.388-.388v-.773c0-.215.174-.387.388-.387h.386v-2.065h-.386a.39.39 0 0 1-.388-.387v-.774c0-.214.174-.388.388-.388h2.064c.214 0 .387.174.387.388v3.226h.387c.214 0 .388.172.388.387z" style="fill:#acb5bd"/>
</svg>
