<svg width="38" height="39" viewBox="0 0 38 39" fill="none" xmlns="http://www.w3.org/2000/svg">
<rect width="37.5997" height="38.9837" rx="18.7999" fill="#E9EBF3"/>
<path fill-rule="evenodd" clip-rule="evenodd" d="M18.4188 25.6031C18.175 25.8468 17.8444 25.9837 17.4997 25.9837C17.155 25.9837 16.8244 25.8468 16.5806 25.6031L11.3806 20.4031C11.1369 20.1593 11 19.8287 11 19.484C11 19.1393 11.1369 18.8087 11.3806 18.5649L16.5806 13.3649C16.8258 13.1281 17.1542 12.9971 17.495 13C17.8359 13.003 18.162 13.1397 18.403 13.3808C18.644 13.6218 18.7807 13.9478 18.7837 14.2887C18.7867 14.6296 18.6556 14.9579 18.4188 15.2031L15.4379 18.184H25.2997C25.6445 18.184 25.9752 18.321 26.219 18.5648C26.4628 18.8086 26.5997 19.1392 26.5997 19.484C26.5997 19.8288 26.4628 20.1595 26.219 20.4033C25.9752 20.6471 25.6445 20.784 25.2997 20.784H15.4379L18.4188 23.7649C18.6625 24.0087 18.7994 24.3393 18.7994 24.684C18.7994 25.0287 18.6625 25.3593 18.4188 25.6031Z" fill="#79809C"/>
</svg>
