<svg xmlns="http://www.w3.org/2000/svg" width="36" height="36" fill="none">
    <rect width="36" height="36" fill="#D63C5E" fill-opacity=".1" rx="18"/>
    <path fill="#D63C5E" fill-rule="evenodd" stroke="#D63C5E" d="M11.151 11.166a1.2 1.2 0 0 1 1.695 0l5.147 5.152 5.146-5.152a1.2 1.2 0 1 1 1.695 1.697l-5.146 5.152 5.146 5.151a1.2 1.2 0 0 1-.852 2.034 1.2 1.2 0 0 1-.843-.337l-5.146-5.151-5.147 5.151a1.198 1.198 0 0 1-2.031-.853 1.2 1.2 0 0 1 .336-.844l5.146-5.151-5.146-5.152a1.2 1.2 0 0 1 0-1.697Z" clip-rule="evenodd"/>
</svg>
