<svg width="38" height="39" viewBox="0 0 38 39" fill="none" xmlns="http://www.w3.org/2000/svg">
<rect width="37.5997" height="38.9837" rx="18.7999" fill="#E9EBF3"/>
<path fill-rule="evenodd" clip-rule="evenodd" d="M19.1808 25.6031C19.4246 25.8468 19.7552 25.9837 20.0999 25.9837C20.4446 25.9837 20.7752 25.8468 21.019 25.6031L26.219 20.4031C26.4627 20.1593 26.5996 19.8287 26.5996 19.484C26.5996 19.1393 26.4627 18.8087 26.219 18.5649L21.019 13.3649C20.7738 13.1281 20.4454 12.9971 20.1046 13C19.7637 13.003 19.4377 13.1397 19.1966 13.3808C18.9556 13.6218 18.8189 13.9478 18.8159 14.2887C18.8129 14.6296 18.944 14.9579 19.1808 15.2031L22.1617 18.184H12.2999C11.9551 18.184 11.6244 18.321 11.3806 18.5648C11.1369 18.8086 10.9999 19.1392 10.9999 19.484C10.9999 19.8288 11.1369 20.1595 11.3806 20.4033C11.6244 20.6471 11.9551 20.784 12.2999 20.784H22.1617L19.1808 23.7649C18.9371 24.0087 18.8002 24.3393 18.8002 24.684C18.8002 25.0287 18.9371 25.3593 19.1808 25.6031Z" fill="#79809C"/>
</svg>
