<svg xmlns="http://www.w3.org/2000/svg" width="53" height="28" fill="none">
    <rect width="53" height="28" fill="#D63C5E" fill-opacity=".1" rx="8"/>
    <path fill="#D63C5E" d="M8.98 19h1.68v-4.13h3.78v-1.54h-3.78v-2.59h4.62V9.2h-6.3zm9.49.14q.714 0 1.26-.238.546-.252.98-.742h.028l.14.84h1.26v-7h-1.624v.7h-.028a2.3 2.3 0 0 0-.882-.616 2.9 2.9 0 0 0-1.134-.224q-.644 0-1.19.224-.531.21-.924.658-.378.434-.588 1.092-.21.644-.21 1.512v.308q0 .882.21 1.54.21.645.588 1.078.378.435.91.658.547.21 1.204.21m.42-1.484q-.741 0-1.19-.49-.434-.49-.434-1.512v-.308q0-1.05.434-1.526t1.19-.476q.742 0 1.176.49.448.49.448 1.498v.308q0 1.05-.434 1.54-.434.476-1.19.476M24.033 19h1.624v-7h-1.624zm.812-7.84q.448 0 .742-.294.308-.308.308-.756a.98.98 0 0 0-.308-.742.98.98 0 0 0-.742-.308 1.03 1.03 0 0 0-1.05 1.05q0 .448.294.756.307.294.756.294m2.77 7.84h1.624V9.2h-1.624zm6.452.14q1.274 0 2.086-.574.825-.574 1.064-1.666h-1.68q-.14.435-.532.658-.378.21-1.008.21-.798 0-1.19-.42-.393-.42-.462-1.344h4.942v-.588q0-.868-.238-1.526a2.9 2.9 0 0 0-.658-1.106 2.56 2.56 0 0 0-1.036-.686 3.7 3.7 0 0 0-1.358-.238q-.756 0-1.372.238-.602.224-1.036.672-.42.448-.658 1.106-.224.645-.224 1.47v.308q0 .84.224 1.484.238.644.672 1.092t1.05.686q.63.224 1.414.224m-.07-5.908q.755 0 1.148.378.391.365.49 1.19h-3.276q.112-.825.504-1.19.392-.378 1.134-.378m7.14 5.908q.7 0 1.246-.238t.966-.728h.028l.14.826h1.246V9.34h-1.61v3.444h-.028a2.24 2.24 0 0 0-.854-.602 2.9 2.9 0 0 0-1.134-.224q-.63 0-1.162.224-.532.21-.91.644t-.588 1.078-.21 1.498v.308q0 .855.196 1.498.21.645.588 1.078.379.434.91.644.532.21 1.176.21m.42-1.47q-.727 0-1.162-.476t-.434-1.484v-.308q0-1.036.42-1.498.42-.476 1.176-.476.729 0 1.162.476.434.476.434 1.484v.308q0 1.036-.42 1.512-.42.462-1.176.462"/>
</svg>
