<svg xmlns="http://www.w3.org/2000/svg" width="61" height="28" fill="none">
    <rect width="61" height="28" fill="#43B369" fill-opacity=".1" rx="8"/>
    <path fill="#43B369" d="M8.98 19h1.68v-3.304h1.75q1.876 0 2.786-.868.924-.869.924-2.394 0-1.554-.896-2.394T12.41 9.2H8.98zm3.36-8.26q1.036 0 1.526.448t.49 1.246q0 .855-.476 1.288-.462.434-1.54.434h-1.68V10.74zm7.32 8.4q.714 0 1.26-.238.546-.252.98-.742h.028l.14.84h1.26v-7h-1.624v.7h-.028a2.3 2.3 0 0 0-.882-.616 2.9 2.9 0 0 0-1.134-.224q-.644 0-1.19.224-.532.21-.924.658-.378.434-.588 1.092-.21.644-.21 1.512v.308q0 .882.21 1.54.21.645.588 1.078.378.435.91.658.546.21 1.204.21m.42-1.484q-.742 0-1.19-.49-.434-.49-.434-1.512v-.308q0-1.05.434-1.526t1.19-.476q.742 0 1.176.49.448.49.448 1.498v.308q0 1.05-.434 1.54-.434.476-1.19.476m7.732 1.47a4.4 4.4 0 0 0 1.232-.154q.532-.168.868-.448.35-.28.518-.658a2 2 0 0 0 .182-.84q0-.714-.308-1.12-.294-.42-.742-.658a3.7 3.7 0 0 0-.966-.35l-.966-.238a3.7 3.7 0 0 1-.756-.266.55.55 0 0 1-.294-.504q0-.308.224-.49.225-.182.798-.182.602 0 .854.224.266.21.378.658h1.708q-.098-1.022-.798-1.624-.685-.602-2.142-.602-1.386 0-2.058.588a1.82 1.82 0 0 0-.672 1.442q0 .672.294 1.064.308.392.756.63.448.224.966.35.518.112.966.238t.742.322a.58.58 0 0 1 .308.532.68.68 0 0 1-.252.546q-.252.196-.91.196-.63 0-.91-.238-.28-.253-.392-.784h-1.708q.112 1.106.826 1.736t2.254.63m6.863 0q.715 0 1.233-.154.531-.168.867-.448.351-.28.519-.658a2 2 0 0 0 .181-.84q0-.714-.308-1.12-.294-.42-.742-.658a3.7 3.7 0 0 0-.965-.35l-.967-.238a3.7 3.7 0 0 1-.756-.266.55.55 0 0 1-.294-.504q0-.308.224-.49.225-.182.798-.182.602 0 .854.224.267.21.378.658h1.709q-.099-1.022-.798-1.624-.687-.602-2.142-.602-1.386 0-2.059.588a1.82 1.82 0 0 0-.671 1.442q0 .672.293 1.064.309.392.756.63.449.224.967.35.518.112.965.238.45.126.742.322a.58.58 0 0 1 .308.532.68.68 0 0 1-.252.546q-.251.196-.91.196-.63 0-.91-.238-.28-.253-.392-.784h-1.707q.111 1.106.826 1.736.714.63 2.254.63m7.144.014q1.274 0 2.086-.574.825-.574 1.064-1.666h-1.68q-.14.435-.532.658-.378.21-1.008.21-.798 0-1.19-.42-.393-.42-.462-1.344h4.942v-.588q0-.868-.238-1.526a2.9 2.9 0 0 0-.658-1.106 2.56 2.56 0 0 0-1.036-.686 3.7 3.7 0 0 0-1.358-.238q-.757 0-1.372.238-.603.224-1.036.672-.42.448-.658 1.106-.224.645-.224 1.47v.308q0 .84.224 1.484.237.644.672 1.092t1.05.686q.63.224 1.414.224m-.07-5.908q.755 0 1.148.378.391.365.49 1.19H40.11q.111-.825.504-1.19.392-.378 1.134-.378m7.14 5.908q.7 0 1.246-.238t.966-.728h.028l.14.826h1.246V9.34h-1.61v3.444h-.028a2.24 2.24 0 0 0-.854-.602 2.9 2.9 0 0 0-1.134-.224q-.63 0-1.162.224a2.3 2.3 0 0 0-.91.644q-.378.435-.588 1.078-.21.645-.21 1.498v.308q0 .855.196 1.498.21.645.588 1.078.379.434.91.644.532.21 1.176.21m.42-1.47q-.727 0-1.162-.476t-.434-1.484v-.308q0-1.036.42-1.498.42-.476 1.176-.476.729 0 1.162.476.434.476.434 1.484v.308q0 1.036-.42 1.512-.42.462-1.176.462"/>
</svg>
