<svg xmlns="http://www.w3.org/2000/svg" width="36" height="36" fill="none">
    <rect width="36" height="36" fill="#43B369" fill-opacity=".1" rx="18"/>
    <path fill="#43B369" fill-rule="evenodd" stroke="#43B369" d="M25.602 11.41c.255.262.398.618.398.99 0 .371-.143.727-.398.99l-8.867 12.2c-.254.263-.6.41-.96.41s-.706-.147-.96-.41l-5.434-5.6A1.42 1.42 0 0 1 9 19.005c.003-.367.146-.718.398-.978s.592-.407.949-.41c.356-.003.699.138.955.393l4.473 4.61 7.907-11.21c.254-.263.6-.41.96-.41s.706.147.96.41Z" clip-rule="evenodd"/>
</svg>
