<svg width="24" height="24" viewBox="0 0 24 24" fill="none" xmlns="http://www.w3.org/2000/svg">
<path fill-rule="evenodd" clip-rule="evenodd" d="M12 21C14.3869 21 16.6761 20.0518 18.364 18.364C20.0518 16.6761 21 14.3869 21 12C21 9.61305 20.0518 7.32387 18.364 5.63604C16.6761 3.94821 14.3869 3 12 3C9.61305 3 7.32387 3.94821 5.63604 5.63604C3.94821 7.32387 3 9.61305 3 12C3 14.3869 3.94821 16.6761 5.63604 18.364C7.32387 20.0518 9.61305 21 12 21ZM13.125 7.5C13.125 7.20163 13.0065 6.91548 12.7955 6.7045C12.5845 6.49353 12.2984 6.375 12 6.375C11.7016 6.375 11.4155 6.49353 11.2045 6.7045C10.9935 6.91548 10.875 7.20163 10.875 7.5V12C10.8751 12.2983 10.9936 12.5844 11.2046 12.7954L14.3861 15.978C14.4906 16.0825 14.6147 16.1654 14.7513 16.222C14.8879 16.2786 15.0342 16.3077 15.1821 16.3077C15.3299 16.3077 15.4763 16.2786 15.6128 16.222C15.7494 16.1654 15.8735 16.0825 15.978 15.978C16.0825 15.8735 16.1654 15.7494 16.222 15.6128C16.2786 15.4763 16.3077 15.3299 16.3077 15.1821C16.3077 15.0342 16.2786 14.8879 16.222 14.7513C16.1654 14.6147 16.0825 14.4906 15.978 14.3861L13.125 11.5343V7.5Z" fill="#151C3B"/>
</svg>
