<svg xmlns:xlink="http://www.w3.org/1999/xlink" width="320" height="320" viewBox="0 0 320 320" xmlns="http://www.w3.org/2000/svg" shape-rendering="crispEdges"><rect width="100%" height="100%" fill="#e1d7d5" /><rect width="140" height="10" x="90" y="210" fill="#5a423f" /><rect width="140" height="10" x="90" y="220" fill="#5a423f" /><rect width="140" height="10" x="90" y="230" fill="#5a423f" /><rect width="140" height="10" x="90" y="240" fill="#5a423f" /><rect width="20" height="10" x="90" y="250" fill="#5a423f" /><rect width="110" height="10" x="120" y="250" fill="#5a423f" /><rect width="20" height="10" x="90" y="260" fill="#5a423f" /><rect width="110" height="10" x="120" y="260" fill="#5a423f" /><rect width="20" height="10" x="90" y="270" fill="#5a423f" /><rect width="110" height="10" x="120" y="270" fill="#5a423f" /><rect width="20" height="10" x="90" y="280" fill="#5a423f" /><rect width="110" height="10" x="120" y="280" fill="#5a423f" /><rect width="20" height="10" x="90" y="290" fill="#5a423f" /><rect width="110" height="10" x="120" y="290" fill="#5a423f" /><rect width="20" height="10" x="90" y="300" fill="#5a423f" /><rect width="110" height="10" x="120" y="300" fill="#5a423f" /><rect width="20" height="10" x="90" y="310" fill="#5a423f" /><rect width="110" height="10" x="120" y="310" fill="#5a423f" /><rect width="20" height="10" x="140" y="240" fill="#d8dadf" /><rect width="20" height="10" x="170" y="240" fill="#d8dadf" /><rect width="70" height="10" x="130" y="250" fill="#d8dadf" /><rect width="70" height="10" x="130" y="260" fill="#d8dadf" /><rect width="50" height="10" x="140" y="270" fill="#d8dadf" /><rect width="30" height="10" x="150" y="280" fill="#d8dadf" /><rect width="10" height="10" x="160" y="290" fill="#d8dadf" /><rect width="30" height="10" x="70" y="50" fill="#757576" /><rect width="10" height="10" x="60" y="60" fill="#757576" /><rect width="10" height="10" x="100" y="60" fill="#757576" /><rect width="10" height="10" x="60" y="70" fill="#757576" /><rect width="10" height="10" x="100" y="70" fill="#757576" /><rect width="80" height="10" x="40" y="80" fill="#757576" /><rect width="10" height="10" x="140" y="80" fill="#343235" /><rect width="10" height="10" x="170" y="80" fill="#343235" /><rect width="10" height="10" x="200" y="80" fill="#343235" /><rect width="10" height="10" x="230" y="80" fill="#343235" /><rect width="80" height="10" x="40" y="90" fill="#757576" /><rect width="10" height="10" x="120" y="90" fill="#343235" /><rect width="20" height="10" x="140" y="90" fill="#343235" /><rect width="20" height="10" x="170" y="90" fill="#343235" /><rect width="20" height="10" x="200" y="90" fill="#343235" /><rect width="20" height="10" x="230" y="90" fill="#343235" /><rect width="80" height="10" x="40" y="100" fill="#757576" /><rect width="20" height="10" x="120" y="100" fill="#343235" /><rect width="20" height="10" x="140" y="100" fill="#757576" /><rect width="10" height="10" x="160" y="100" fill="#343235" /><rect width="20" height="10" x="170" y="100" fill="#757576" /><rect width="10" height="10" x="190" y="100" fill="#343235" /><rect width="20" height="10" x="200" y="100" fill="#757576" /><rect width="10" height="10" x="220" y="100" fill="#343235" /><rect width="20" height="10" x="230" y="100" fill="#757576" /><rect width="20" height="10" x="250" y="100" fill="#343235" /><rect width="10" height="10" x="50" y="110" fill="#343235" /><rect width="60" height="10" x="60" y="110" fill="#757576" /><rect width="140" height="10" x="120" y="110" fill="#343235" /><rect width="10" height="10" x="260" y="110" fill="#757576" /><rect width="20" height="10" x="270" y="110" fill="#343235" /><rect width="80" height="10" x="40" y="120" fill="#757576" /><rect width="140" height="10" x="120" y="120" fill="#343235" /><rect width="10" height="10" x="260" y="120" fill="#757576" /><rect width="10" height="10" x="270" y="120" fill="#343235" /><rect width="10" height="10" x="50" y="130" fill="#343235" /><rect width="60" height="10" x="60" y="130" fill="#757576" /><rect width="150" height="10" x="120" y="130" fill="#343235" /><rect width="80" height="10" x="40" y="140" fill="#757576" /><rect width="140" height="10" x="120" y="140" fill="#343235" /><rect width="10" height="10" x="260" y="140" fill="#757576" /><rect width="20" height="10" x="270" y="140" fill="#343235" /><rect width="10" height="10" x="50" y="150" fill="#343235" /><rect width="60" height="10" x="60" y="150" fill="#757576" /><rect width="140" height="10" x="120" y="150" fill="#343235" /><rect width="10" height="10" x="260" y="150" fill="#757576" /><rect width="10" height="10" x="270" y="150" fill="#343235" /><rect width="80" height="10" x="40" y="160" fill="#757576" /><rect width="150" height="10" x="120" y="160" fill="#343235" /><rect width="80" height="10" x="40" y="170" fill="#757576" /><rect width="140" height="10" x="120" y="170" fill="#343235" /><rect width="10" height="10" x="260" y="170" fill="#757576" /><rect width="20" height="10" x="270" y="170" fill="#343235" /><rect width="30" height="10" x="40" y="180" fill="#757576" /><rect width="10" height="10" x="70" y="180" fill="#ffffff" /><rect width="10" height="10" x="80" y="180" fill="#343235" /><rect width="10" height="10" x="90" y="180" fill="#ffffff" /><rect width="10" height="10" x="100" y="180" fill="#343235" /><rect width="10" height="10" x="110" y="180" fill="#757576" /><rect width="140" height="10" x="120" y="180" fill="#343235" /><rect width="10" height="10" x="260" y="180" fill="#757576" /><rect width="10" height="10" x="270" y="180" fill="#343235" /><rect width="20" height="10" x="50" y="190" fill="#757576" /><rect width="10" height="10" x="70" y="190" fill="#343235" /><rect width="10" height="10" x="80" y="190" fill="#ffffff" /><rect width="10" height="10" x="90" y="190" fill="#343235" /><rect width="10" height="10" x="100" y="190" fill="#ffffff" /><rect width="10" height="10" x="110" y="190" fill="#757576" /><rect width="150" height="10" x="120" y="190" fill="#343235" /><rect width="80" height="10" x="60" y="200" fill="#757576" /><rect width="10" height="10" x="140" y="200" fill="#343235" /><rect width="20" height="10" x="150" y="200" fill="#757576" /><rect width="10" height="10" x="170" y="200" fill="#343235" /><rect width="20" height="10" x="180" y="200" fill="#757576" /><rect width="10" height="10" x="200" y="200" fill="#343235" /><rect width="20" height="10" x="210" y="200" fill="#757576" /><rect width="10" height="10" x="230" y="200" fill="#343235" /><rect width="20" height="10" x="240" y="200" fill="#757576" /><rect width="10" height="10" x="260" y="200" fill="#343235" /><rect width="50" height="10" x="70" y="210" fill="#757576" /><rect width="20" height="10" x="120" y="210" fill="#343235" /><rect width="20" height="10" x="150" y="210" fill="#343235" /><rect width="20" height="10" x="180" y="210" fill="#343235" /><rect width="20" height="10" x="210" y="210" fill="#343235" /><rect width="20" height="10" x="240" y="210" fill="#343235" /><rect width="40" height="10" x="80" y="220" fill="#757576" /><rect width="10" height="10" x="130" y="220" fill="#343235" /><rect width="10" height="10" x="160" y="220" fill="#343235" /><rect width="10" height="10" x="190" y="220" fill="#343235" /><rect width="10" height="10" x="220" y="220" fill="#343235" /><rect width="10" height="10" x="250" y="220" fill="#343235" /><rect width="60" height="10" x="100" y="110" fill="#ffc110" /><rect width="60" height="10" x="170" y="110" fill="#f98f30" /><rect width="10" height="10" x="100" y="120" fill="#ffc110" /><rect width="20" height="10" x="110" y="120" fill="#ffffff" /><rect width="20" height="10" x="130" y="120" fill="#000000" /><rect width="10" height="10" x="150" y="120" fill="#ffc110" /><rect width="10" height="10" x="170" y="120" fill="#f98f30" /><rect width="20" height="10" x="180" y="120" fill="#ffffff" /><rect width="20" height="10" x="200" y="120" fill="#000000" /><rect width="10" height="10" x="220" y="120" fill="#f98f30" /><rect width="30" height="10" x="70" y="130" fill="#f98f30" /><rect width="10" height="10" x="100" y="130" fill="#ffc110" /><rect width="20" height="10" x="110" y="130" fill="#ffffff" /><rect width="20" height="10" x="130" y="130" fill="#000000" /><rect width="10" height="10" x="150" y="130" fill="#ffc110" /><rect width="20" height="10" x="160" y="130" fill="#f98f30" /><rect width="20" height="10" x="180" y="130" fill="#ffffff" /><rect width="20" height="10" x="200" y="130" fill="#000000" /><rect width="10" height="10" x="220" y="130" fill="#f98f30" /><rect width="10" height="10" x="70" y="140" fill="#f98f30" /><rect width="10" height="10" x="100" y="140" fill="#ffc110" /><rect width="20" height="10" x="110" y="140" fill="#ffffff" /><rect width="20" height="10" x="130" y="140" fill="#000000" /><rect width="10" height="10" x="150" y="140" fill="#ffc110" /><rect width="10" height="10" x="170" y="140" fill="#f98f30" /><rect width="20" height="10" x="180" y="140" fill="#ffffff" /><rect width="20" height="10" x="200" y="140" fill="#000000" /><rect width="10" height="10" x="220" y="140" fill="#f98f30" /><rect width="10" height="10" x="70" y="150" fill="#f98f30" /><rect width="10" height="10" x="100" y="150" fill="#ffc110" /><rect width="20" height="10" x="110" y="150" fill="#ffffff" /><rect width="20" height="10" x="130" y="150" fill="#000000" /><rect width="10" height="10" x="150" y="150" fill="#ffc110" /><rect width="10" height="10" x="170" y="150" fill="#f98f30" /><rect width="20" height="10" x="180" y="150" fill="#ffffff" /><rect width="20" height="10" x="200" y="150" fill="#000000" /><rect width="10" height="10" x="220" y="150" fill="#f98f30" /><rect width="60" height="10" x="100" y="160" fill="#ffc110" /><rect width="60" height="10" x="170" y="160" fill="#f98f30" /></svg>