<svg xmlns:xlink="http://www.w3.org/1999/xlink" width="320" height="320" viewBox="0 0 320 320" xmlns="http://www.w3.org/2000/svg" shape-rendering="crispEdges"><rect width="100%" height="100%" fill="#d5d7e1" /><rect width="140" height="10" x="90" y="210" fill="#5a65fa" /><rect width="140" height="10" x="90" y="220" fill="#5a65fa" /><rect width="140" height="10" x="90" y="230" fill="#5a65fa" /><rect width="140" height="10" x="90" y="240" fill="#5a65fa" /><rect width="20" height="10" x="90" y="250" fill="#5a65fa" /><rect width="110" height="10" x="120" y="250" fill="#5a65fa" /><rect width="20" height="10" x="90" y="260" fill="#5a65fa" /><rect width="110" height="10" x="120" y="260" fill="#5a65fa" /><rect width="20" height="10" x="90" y="270" fill="#5a65fa" /><rect width="110" height="10" x="120" y="270" fill="#5a65fa" /><rect width="20" height="10" x="90" y="280" fill="#5a65fa" /><rect width="110" height="10" x="120" y="280" fill="#5a65fa" /><rect width="20" height="10" x="90" y="290" fill="#5a65fa" /><rect width="110" height="10" x="120" y="290" fill="#5a65fa" /><rect width="20" height="10" x="90" y="300" fill="#5a65fa" /><rect width="110" height="10" x="120" y="300" fill="#5a65fa" /><rect width="20" height="10" x="90" y="310" fill="#5a65fa" /><rect width="110" height="10" x="120" y="310" fill="#5a65fa" /><rect width="90" height="10" x="120" y="210" fill="#000000" /><rect width="50" height="10" x="120" y="220" fill="#000000" /><rect width="30" height="10" x="180" y="220" fill="#000000" /><rect width="20" height="10" x="120" y="230" fill="#000000" /><rect width="20" height="10" x="150" y="230" fill="#000000" /><rect width="20" height="10" x="190" y="230" fill="#000000" /><rect width="10" height="10" x="120" y="240" fill="#000000" /><rect width="10" height="10" x="150" y="240" fill="#000000" /><rect width="10" height="10" x="160" y="240" fill="#f7913d" /><rect width="10" height="10" x="200" y="240" fill="#000000" /><rect width="20" height="10" x="150" y="250" fill="#000000" /><rect width="20" height="10" x="150" y="260" fill="#000000" /><rect width="20" height="10" x="150" y="270" fill="#000000" /><rect width="20" height="10" x="150" y="280" fill="#000000" /><rect width="10" height="10" x="150" y="290" fill="#000000" /><rect width="10" height="10" x="160" y="290" fill="#f7913d" /><rect width="20" height="10" x="150" y="300" fill="#000000" /><rect width="20" height="10" x="150" y="310" fill="#000000" /><rect width="10" height="10" x="170" y="10" fill="#ffffff" /><rect width="20" height="10" x="160" y="20" fill="#ffffff" /><rect width="10" height="10" x="190" y="20" fill="#ffffff" /><rect width="30" height="10" x="150" y="30" fill="#ffffff" /><rect width="10" height="10" x="190" y="30" fill="#ffffff" /><rect width="40" height="10" x="140" y="40" fill="#ffffff" /><rect width="20" height="10" x="190" y="40" fill="#ffffff" /><rect width="20" height="10" x="130" y="50" fill="#ffffff" /><rect width="20" height="10" x="150" y="50" fill="#9eb5e1" /><rect width="10" height="10" x="170" y="50" fill="#ffffff" /><rect width="20" height="10" x="190" y="50" fill="#ffffff" /><rect width="30" height="10" x="120" y="60" fill="#ffffff" /><rect width="20" height="10" x="150" y="60" fill="#9eb5e1" /><rect width="10" height="10" x="170" y="60" fill="#ffffff" /><rect width="30" height="10" x="190" y="60" fill="#ffffff" /><rect width="70" height="10" x="110" y="70" fill="#ffffff" /><rect width="30" height="10" x="190" y="70" fill="#ffffff" /><rect width="80" height="10" x="100" y="80" fill="#ffffff" /><rect width="40" height="10" x="190" y="80" fill="#ffffff" /><rect width="90" height="10" x="90" y="90" fill="#ffffff" /><rect width="40" height="10" x="190" y="90" fill="#ffffff" /><rect width="100" height="10" x="80" y="100" fill="#ffffff" /><rect width="50" height="10" x="190" y="100" fill="#ffffff" /><rect width="110" height="10" x="70" y="110" fill="#ffffff" /><rect width="50" height="10" x="190" y="110" fill="#ffffff" /><rect width="120" height="10" x="60" y="120" fill="#ffffff" /><rect width="60" height="10" x="190" y="120" fill="#ffffff" /><rect width="130" height="10" x="50" y="130" fill="#ffffff" /><rect width="60" height="10" x="190" y="130" fill="#ffffff" /><rect width="140" height="10" x="40" y="140" fill="#ffffff" /><rect width="70" height="10" x="190" y="140" fill="#ffffff" /><rect width="240" height="10" x="40" y="160" fill="#cd916d" /><rect width="10" height="10" x="50" y="170" fill="#cd916d" /><rect width="200" height="10" x="60" y="170" fill="#a86f60" /><rect width="10" height="10" x="260" y="170" fill="#cd916d" /><rect width="10" height="10" x="60" y="180" fill="#cd916d" /><rect width="10" height="10" x="70" y="180" fill="#a86f60" /><rect width="160" height="10" x="80" y="180" fill="#cd916d" /><rect width="10" height="10" x="240" y="180" fill="#a86f60" /><rect width="10" height="10" x="250" y="180" fill="#cd916d" /><rect width="10" height="10" x="70" y="190" fill="#cd916d" /><rect width="160" height="10" x="80" y="190" fill="#a86f60" /><rect width="10" height="10" x="240" y="190" fill="#cd916d" /><rect width="160" height="10" x="80" y="200" fill="#cd916d" /><rect width="60" height="10" x="100" y="110" fill="#ff638d" /><rect width="60" height="10" x="170" y="110" fill="#cc0595" /><rect width="10" height="10" x="100" y="120" fill="#ff638d" /><rect width="20" height="10" x="110" y="120" fill="#ffffff" /><rect width="20" height="10" x="130" y="120" fill="#000000" /><rect width="10" height="10" x="150" y="120" fill="#ff638d" /><rect width="10" height="10" x="170" y="120" fill="#cc0595" /><rect width="20" height="10" x="180" y="120" fill="#ffffff" /><rect width="20" height="10" x="200" y="120" fill="#000000" /><rect width="10" height="10" x="220" y="120" fill="#cc0595" /><rect width="30" height="10" x="70" y="130" fill="#cc0595" /><rect width="10" height="10" x="100" y="130" fill="#ff638d" /><rect width="20" height="10" x="110" y="130" fill="#ffffff" /><rect width="20" height="10" x="130" y="130" fill="#000000" /><rect width="10" height="10" x="150" y="130" fill="#ff638d" /><rect width="20" height="10" x="160" y="130" fill="#cc0595" /><rect width="20" height="10" x="180" y="130" fill="#ffffff" /><rect width="20" height="10" x="200" y="130" fill="#000000" /><rect width="10" height="10" x="220" y="130" fill="#cc0595" /><rect width="10" height="10" x="70" y="140" fill="#cc0595" /><rect width="10" height="10" x="100" y="140" fill="#ff638d" /><rect width="20" height="10" x="110" y="140" fill="#ffffff" /><rect width="20" height="10" x="130" y="140" fill="#000000" /><rect width="10" height="10" x="150" y="140" fill="#ff638d" /><rect width="10" height="10" x="170" y="140" fill="#cc0595" /><rect width="20" height="10" x="180" y="140" fill="#ffffff" /><rect width="20" height="10" x="200" y="140" fill="#000000" /><rect width="10" height="10" x="220" y="140" fill="#cc0595" /><rect width="10" height="10" x="70" y="150" fill="#cc0595" /><rect width="10" height="10" x="100" y="150" fill="#ff638d" /><rect width="20" height="10" x="110" y="150" fill="#ffffff" /><rect width="20" height="10" x="130" y="150" fill="#000000" /><rect width="10" height="10" x="150" y="150" fill="#ff638d" /><rect width="10" height="10" x="170" y="150" fill="#cc0595" /><rect width="20" height="10" x="180" y="150" fill="#ffffff" /><rect width="20" height="10" x="200" y="150" fill="#000000" /><rect width="10" height="10" x="220" y="150" fill="#cc0595" /><rect width="60" height="10" x="100" y="160" fill="#ff638d" /><rect width="60" height="10" x="170" y="160" fill="#cc0595" /></svg>