<svg xmlns:xlink="http://www.w3.org/1999/xlink" width="320" height="320" viewBox="0 0 320 320" xmlns="http://www.w3.org/2000/svg" shape-rendering="crispEdges"><rect width="100%" height="100%" fill="#e1d7d5" /><rect width="140" height="10" x="90" y="210" fill="#80a72d" /><rect width="140" height="10" x="90" y="220" fill="#80a72d" /><rect width="140" height="10" x="90" y="230" fill="#80a72d" /><rect width="140" height="10" x="90" y="240" fill="#80a72d" /><rect width="20" height="10" x="90" y="250" fill="#80a72d" /><rect width="110" height="10" x="120" y="250" fill="#80a72d" /><rect width="20" height="10" x="90" y="260" fill="#80a72d" /><rect width="110" height="10" x="120" y="260" fill="#80a72d" /><rect width="20" height="10" x="90" y="270" fill="#80a72d" /><rect width="110" height="10" x="120" y="270" fill="#80a72d" /><rect width="20" height="10" x="90" y="280" fill="#80a72d" /><rect width="110" height="10" x="120" y="280" fill="#80a72d" /><rect width="20" height="10" x="90" y="290" fill="#80a72d" /><rect width="110" height="10" x="120" y="290" fill="#80a72d" /><rect width="20" height="10" x="90" y="300" fill="#80a72d" /><rect width="110" height="10" x="120" y="300" fill="#80a72d" /><rect width="20" height="10" x="90" y="310" fill="#80a72d" /><rect width="110" height="10" x="120" y="310" fill="#80a72d" /><rect width="20" height="10" x="110" y="210" fill="#ff638d" /><rect width="20" height="10" x="150" y="210" fill="#ff638d" /><rect width="20" height="10" x="190" y="210" fill="#ff638d" /><rect width="20" height="10" x="110" y="220" fill="#ff638d" /><rect width="20" height="10" x="150" y="220" fill="#ff638d" /><rect width="20" height="10" x="190" y="220" fill="#ff638d" /><rect width="20" height="10" x="90" y="230" fill="#ff638d" /><rect width="20" height="10" x="130" y="230" fill="#ff638d" /><rect width="20" height="10" x="170" y="230" fill="#ff638d" /><rect width="20" height="10" x="210" y="230" fill="#ff638d" /><rect width="20" height="10" x="90" y="240" fill="#ff638d" /><rect width="20" height="10" x="130" y="240" fill="#ff638d" /><rect width="20" height="10" x="170" y="240" fill="#ff638d" /><rect width="20" height="10" x="210" y="240" fill="#ff638d" /><rect width="10" height="10" x="120" y="250" fill="#ff638d" /><rect width="20" height="10" x="150" y="250" fill="#ff638d" /><rect width="20" height="10" x="190" y="250" fill="#ff638d" /><rect width="10" height="10" x="120" y="260" fill="#ff638d" /><rect width="20" height="10" x="150" y="260" fill="#ff638d" /><rect width="20" height="10" x="190" y="260" fill="#ff638d" /><rect width="20" height="10" x="90" y="270" fill="#ff638d" /><rect width="20" height="10" x="130" y="270" fill="#ff638d" /><rect width="20" height="10" x="170" y="270" fill="#ff638d" /><rect width="20" height="10" x="210" y="270" fill="#ff638d" /><rect width="20" height="10" x="90" y="280" fill="#ff638d" /><rect width="20" height="10" x="130" y="280" fill="#ff638d" /><rect width="20" height="10" x="170" y="280" fill="#ff638d" /><rect width="20" height="10" x="210" y="280" fill="#ff638d" /><rect width="10" height="10" x="120" y="290" fill="#ff638d" /><rect width="20" height="10" x="150" y="290" fill="#ff638d" /><rect width="20" height="10" x="190" y="290" fill="#ff638d" /><rect width="10" height="10" x="120" y="300" fill="#ff638d" /><rect width="20" height="10" x="150" y="300" fill="#ff638d" /><rect width="20" height="10" x="190" y="300" fill="#ff638d" /><rect width="20" height="10" x="90" y="310" fill="#ff638d" /><rect width="20" height="10" x="130" y="310" fill="#ff638d" /><rect width="20" height="10" x="170" y="310" fill="#ff638d" /><rect width="20" height="10" x="210" y="310" fill="#ff638d" /><rect width="80" height="10" x="120" y="50" fill="#ff82ad" /><rect width="30" height="10" x="90" y="60" fill="#ff82ad" /><rect width="30" height="10" x="120" y="60" fill="#ff638d" /><rect width="10" height="10" x="150" y="60" fill="#ff82ad" /><rect width="40" height="10" x="160" y="60" fill="#ff638d" /><rect width="30" height="10" x="200" y="60" fill="#ff82ad" /><rect width="10" height="10" x="80" y="70" fill="#ff82ad" /><rect width="30" height="10" x="90" y="70" fill="#ff638d" /><rect width="30" height="10" x="120" y="70" fill="#ff82ad" /><rect width="10" height="10" x="150" y="70" fill="#ff638d" /><rect width="40" height="10" x="160" y="70" fill="#ff82ad" /><rect width="30" height="10" x="200" y="70" fill="#ff638d" /><rect width="10" height="10" x="230" y="70" fill="#ff82ad" /><rect width="10" height="10" x="70" y="80" fill="#ff82ad" /><rect width="10" height="10" x="80" y="80" fill="#ff638d" /><rect width="20" height="10" x="90" y="80" fill="#ff82ad" /><rect width="10" height="10" x="110" y="80" fill="#ff638d" /><rect width="10" height="10" x="120" y="80" fill="#ff82ad" /><rect width="10" height="10" x="130" y="80" fill="#ff638d" /><rect width="10" height="10" x="140" y="80" fill="#ff82ad" /><rect width="10" height="10" x="150" y="80" fill="#ff638d" /><rect width="10" height="10" x="160" y="80" fill="#ff82ad" /><rect width="10" height="10" x="170" y="80" fill="#ff638d" /><rect width="20" height="10" x="180" y="80" fill="#ff82ad" /><rect width="10" height="10" x="200" y="80" fill="#ff638d" /><rect width="20" height="10" x="210" y="80" fill="#ff82ad" /><rect width="10" height="10" x="230" y="80" fill="#ff638d" /><rect width="10" height="10" x="240" y="80" fill="#ff82ad" /><rect width="10" height="10" x="70" y="90" fill="#ff82ad" /><rect width="10" height="10" x="80" y="90" fill="#ff638d" /><rect width="10" height="10" x="90" y="90" fill="#ff82ad" /><rect width="10" height="10" x="100" y="90" fill="#ff638d" /><rect width="20" height="10" x="110" y="90" fill="#ff82ad" /><rect width="10" height="10" x="130" y="90" fill="#ff638d" /><rect width="20" height="10" x="140" y="90" fill="#ff82ad" /><rect width="10" height="10" x="160" y="90" fill="#ff638d" /><rect width="20" height="10" x="170" y="90" fill="#ff82ad" /><rect width="10" height="10" x="190" y="90" fill="#ff638d" /><rect width="50" height="10" x="200" y="90" fill="#ff82ad" /><rect width="60" height="10" x="60" y="100" fill="#ff82ad" /><rect width="10" height="10" x="120" y="100" fill="#ff638d" /><rect width="30" height="10" x="130" y="100" fill="#ff82ad" /><rect width="10" height="10" x="160" y="100" fill="#ff638d" /><rect width="20" height="10" x="170" y="100" fill="#ff82ad" /><rect width="10" height="10" x="190" y="100" fill="#ff638d" /><rect width="20" height="10" x="200" y="100" fill="#ff82ad" /><rect width="10" height="10" x="220" y="100" fill="#ff638d" /><rect width="10" height="10" x="230" y="100" fill="#ff82ad" /><rect width="10" height="10" x="240" y="100" fill="#ff638d" /><rect width="10" height="10" x="250" y="100" fill="#ff82ad" /><rect width="10" height="10" x="60" y="110" fill="#ff82ad" /><rect width="10" height="10" x="70" y="110" fill="#ff638d" /><rect width="40" height="10" x="80" y="110" fill="#ff82ad" /><rect width="10" height="10" x="120" y="110" fill="#ff638d" /><rect width="60" height="10" x="130" y="110" fill="#ff82ad" /><rect width="10" height="10" x="190" y="110" fill="#ff638d" /><rect width="40" height="10" x="200" y="110" fill="#ff82ad" /><rect width="10" height="10" x="240" y="110" fill="#ff638d" /><rect width="10" height="10" x="250" y="110" fill="#ff82ad" /><rect width="10" height="10" x="60" y="120" fill="#ff82ad" /><rect width="10" height="10" x="70" y="120" fill="#ff638d" /><rect width="20" height="10" x="80" y="120" fill="#ff82ad" /><rect width="10" height="10" x="100" y="120" fill="#ff638d" /><rect width="20" height="10" x="110" y="120" fill="#ff82ad" /><rect width="10" height="10" x="130" y="120" fill="#ff638d" /><rect width="30" height="10" x="140" y="120" fill="#ff82ad" /><rect width="10" height="10" x="170" y="120" fill="#ff638d" /><rect width="60" height="10" x="180" y="120" fill="#ff82ad" /><rect width="10" height="10" x="240" y="120" fill="#ff638d" /><rect width="10" height="10" x="250" y="120" fill="#ff82ad" /><rect width="40" height="10" x="60" y="130" fill="#ff82ad" /><rect width="10" height="10" x="100" y="130" fill="#ff638d" /><rect width="20" height="10" x="110" y="130" fill="#ff82ad" /><rect width="10" height="10" x="130" y="130" fill="#ff638d" /><rect width="40" height="10" x="140" y="130" fill="#ff82ad" /><rect width="10" height="10" x="180" y="130" fill="#ff638d" /><rect width="10" height="10" x="190" y="130" fill="#ff82ad" /><rect width="20" height="10" x="200" y="130" fill="#ff638d" /><rect width="20" height="10" x="220" y="130" fill="#ff82ad" /><rect width="10" height="10" x="240" y="130" fill="#ff638d" /><rect width="10" height="10" x="250" y="130" fill="#ff82ad" /><rect width="10" height="10" x="60" y="140" fill="#ff82ad" /><rect width="10" height="10" x="70" y="140" fill="#ff638d" /><rect width="20" height="10" x="80" y="140" fill="#ff82ad" /><rect width="10" height="10" x="100" y="140" fill="#ff638d" /><rect width="30" height="10" x="110" y="140" fill="#ff82ad" /><rect width="10" height="10" x="140" y="140" fill="#ff638d" /><rect width="90" height="10" x="150" y="140" fill="#ff82ad" /><rect width="10" height="10" x="240" y="140" fill="#ff638d" /><rect width="10" height="10" x="250" y="140" fill="#ff82ad" /><rect width="10" height="10" x="60" y="150" fill="#ff82ad" /><rect width="10" height="10" x="70" y="150" fill="#ff638d" /><rect width="30" height="10" x="80" y="150" fill="#ff82ad" /><rect width="10" height="10" x="110" y="150" fill="#ff638d" /><rect width="50" height="10" x="120" y="150" fill="#ff82ad" /><rect width="10" height="10" x="170" y="150" fill="#ff638d" /><rect width="60" height="10" x="180" y="150" fill="#ff82ad" /><rect width="10" height="10" x="240" y="150" fill="#ff638d" /><rect width="10" height="10" x="250" y="150" fill="#ff82ad" /><rect width="60" height="10" x="60" y="160" fill="#ff82ad" /><rect width="10" height="10" x="120" y="160" fill="#ff638d" /><rect width="50" height="10" x="130" y="160" fill="#ff82ad" /><rect width="20" height="10" x="180" y="160" fill="#ff638d" /><rect width="40" height="10" x="200" y="160" fill="#ff82ad" /><rect width="10" height="10" x="240" y="160" fill="#ff638d" /><rect width="10" height="10" x="250" y="160" fill="#ff82ad" /><rect width="180" height="10" x="70" y="170" fill="#ff82ad" /><rect width="10" height="10" x="70" y="180" fill="#ff82ad" /><rect width="10" height="10" x="80" y="180" fill="#ff638d" /><rect width="30" height="10" x="90" y="180" fill="#ff82ad" /><rect width="20" height="10" x="120" y="180" fill="#ff638d" /><rect width="20" height="10" x="140" y="180" fill="#ff82ad" /><rect width="10" height="10" x="160" y="180" fill="#ff638d" /><rect width="50" height="10" x="170" y="180" fill="#ff82ad" /><rect width="20" height="10" x="220" y="180" fill="#ff638d" /><rect width="10" height="10" x="240" y="180" fill="#ff82ad" /><rect width="10" height="10" x="80" y="190" fill="#ff82ad" /><rect width="10" height="10" x="90" y="190" fill="#ff638d" /><rect width="10" height="10" x="100" y="190" fill="#ff82ad" /><rect width="10" height="10" x="110" y="190" fill="#ff638d" /><rect width="20" height="10" x="120" y="190" fill="#ff82ad" /><rect width="20" height="10" x="140" y="190" fill="#ff638d" /><rect width="40" height="10" x="160" y="190" fill="#ff82ad" /><rect width="20" height="10" x="200" y="190" fill="#ff638d" /><rect width="20" height="10" x="220" y="190" fill="#ff82ad" /><rect width="140" height="10" x="90" y="200" fill="#ff82ad" /><rect width="60" height="10" x="100" y="110" fill="#ffef16" /><rect width="60" height="10" x="170" y="110" fill="#ffef16" /><rect width="10" height="10" x="100" y="120" fill="#ffef16" /><rect width="20" height="10" x="110" y="120" fill="#ffffff" /><rect width="20" height="10" x="130" y="120" fill="#000000" /><rect width="10" height="10" x="150" y="120" fill="#ffef16" /><rect width="10" height="10" x="170" y="120" fill="#ffef16" /><rect width="20" height="10" x="180" y="120" fill="#ffffff" /><rect width="20" height="10" x="200" y="120" fill="#000000" /><rect width="10" height="10" x="220" y="120" fill="#ffef16" /><rect width="40" height="10" x="70" y="130" fill="#ffef16" /><rect width="20" height="10" x="110" y="130" fill="#ffffff" /><rect width="20" height="10" x="130" y="130" fill="#000000" /><rect width="30" height="10" x="150" y="130" fill="#ffef16" /><rect width="20" height="10" x="180" y="130" fill="#ffffff" /><rect width="20" height="10" x="200" y="130" fill="#000000" /><rect width="10" height="10" x="220" y="130" fill="#ffef16" /><rect width="10" height="10" x="70" y="140" fill="#ffef16" /><rect width="10" height="10" x="100" y="140" fill="#ffef16" /><rect width="20" height="10" x="110" y="140" fill="#ffffff" /><rect width="20" height="10" x="130" y="140" fill="#000000" /><rect width="10" height="10" x="150" y="140" fill="#ffef16" /><rect width="10" height="10" x="170" y="140" fill="#ffef16" /><rect width="20" height="10" x="180" y="140" fill="#ffffff" /><rect width="20" height="10" x="200" y="140" fill="#000000" /><rect width="10" height="10" x="220" y="140" fill="#ffef16" /><rect width="10" height="10" x="70" y="150" fill="#ffef16" /><rect width="10" height="10" x="100" y="150" fill="#ffef16" /><rect width="20" height="10" x="110" y="150" fill="#ffffff" /><rect width="20" height="10" x="130" y="150" fill="#000000" /><rect width="10" height="10" x="150" y="150" fill="#ffef16" /><rect width="10" height="10" x="170" y="150" fill="#ffef16" /><rect width="20" height="10" x="180" y="150" fill="#ffffff" /><rect width="20" height="10" x="200" y="150" fill="#000000" /><rect width="10" height="10" x="220" y="150" fill="#ffef16" /><rect width="60" height="10" x="100" y="160" fill="#ffef16" /><rect width="60" height="10" x="170" y="160" fill="#ffef16" /></svg>