<svg xmlns:xlink="http://www.w3.org/1999/xlink" width="320" height="320" viewBox="0 0 320 320" xmlns="http://www.w3.org/2000/svg" shape-rendering="crispEdges"><rect width="100%" height="100%" fill="#d5d7e1" /><rect width="140" height="10" x="90" y="210" fill="#e9265c" /><rect width="140" height="10" x="90" y="220" fill="#e9265c" /><rect width="140" height="10" x="90" y="230" fill="#e9265c" /><rect width="140" height="10" x="90" y="240" fill="#e9265c" /><rect width="20" height="10" x="90" y="250" fill="#e9265c" /><rect width="110" height="10" x="120" y="250" fill="#e9265c" /><rect width="20" height="10" x="90" y="260" fill="#e9265c" /><rect width="110" height="10" x="120" y="260" fill="#e9265c" /><rect width="20" height="10" x="90" y="270" fill="#e9265c" /><rect width="110" height="10" x="120" y="270" fill="#e9265c" /><rect width="20" height="10" x="90" y="280" fill="#e9265c" /><rect width="110" height="10" x="120" y="280" fill="#e9265c" /><rect width="20" height="10" x="90" y="290" fill="#e9265c" /><rect width="110" height="10" x="120" y="290" fill="#e9265c" /><rect width="20" height="10" x="90" y="300" fill="#e9265c" /><rect width="110" height="10" x="120" y="300" fill="#e9265c" /><rect width="20" height="10" x="90" y="310" fill="#e9265c" /><rect width="110" height="10" x="120" y="310" fill="#e9265c" /><rect width="30" height="10" x="130" y="210" fill="#5648ed" /><rect width="30" height="10" x="170" y="210" fill="#5648ed" /><rect width="20" height="10" x="210" y="210" fill="#5648ed" /><rect width="30" height="10" x="90" y="220" fill="#5648ed" /><rect width="30" height="10" x="130" y="220" fill="#5648ed" /><rect width="30" height="10" x="170" y="220" fill="#5648ed" /><rect width="30" height="10" x="90" y="230" fill="#5648ed" /><rect width="30" height="10" x="130" y="230" fill="#5648ed" /><rect width="30" height="10" x="90" y="240" fill="#5648ed" /><rect width="30" height="10" x="190" y="240" fill="#5648ed" /><rect width="30" height="10" x="150" y="250" fill="#5648ed" /><rect width="30" height="10" x="190" y="250" fill="#5648ed" /><rect width="20" height="10" x="120" y="260" fill="#5648ed" /><rect width="30" height="10" x="150" y="260" fill="#5648ed" /><rect width="30" height="10" x="190" y="260" fill="#5648ed" /><rect width="10" height="10" x="90" y="270" fill="#5648ed" /><rect width="20" height="10" x="120" y="270" fill="#5648ed" /><rect width="30" height="10" x="150" y="270" fill="#5648ed" /><rect width="10" height="10" x="90" y="280" fill="#5648ed" /><rect width="20" height="10" x="120" y="280" fill="#5648ed" /><rect width="20" height="10" x="210" y="280" fill="#5648ed" /><rect width="10" height="10" x="90" y="290" fill="#5648ed" /><rect width="30" height="10" x="170" y="290" fill="#5648ed" /><rect width="20" height="10" x="210" y="290" fill="#5648ed" /><rect width="30" height="10" x="130" y="300" fill="#5648ed" /><rect width="30" height="10" x="170" y="300" fill="#5648ed" /><rect width="20" height="10" x="210" y="300" fill="#5648ed" /><rect width="20" height="10" x="90" y="310" fill="#5648ed" /><rect width="30" height="10" x="130" y="310" fill="#5648ed" /><rect width="30" height="10" x="170" y="310" fill="#5648ed" /><rect width="130" height="10" x="110" y="80" fill="#f3322c" /><rect width="180" height="10" x="80" y="90" fill="#f3322c" /><rect width="220" height="10" x="60" y="100" fill="#f3322c" /><rect width="230" height="10" x="50" y="110" fill="#f3322c" /><rect width="230" height="10" x="50" y="120" fill="#f3322c" /><rect width="230" height="10" x="50" y="130" fill="#f3322c" /><rect width="230" height="10" x="50" y="140" fill="#f3322c" /><rect width="50" height="10" x="40" y="150" fill="#d22209" /><rect width="180" height="10" x="90" y="150" fill="#abaaa8" /><rect width="60" height="10" x="40" y="160" fill="#d22209" /><rect width="170" height="10" x="100" y="160" fill="#abaaa8" /><rect width="40" height="10" x="40" y="170" fill="#d22209" /><rect width="10" height="10" x="80" y="170" fill="#f3322c" /><rect width="20" height="10" x="90" y="170" fill="#d22209" /><rect width="50" height="10" x="40" y="180" fill="#d22209" /><rect width="180" height="10" x="90" y="180" fill="#f3322c" /><rect width="240" height="10" x="40" y="190" fill="#d22209" /><rect width="240" height="10" x="40" y="200" fill="#d22209" /><rect width="60" height="10" x="100" y="110" fill="#fe500c" /><rect width="60" height="10" x="170" y="110" fill="#fe500c" /><rect width="10" height="10" x="100" y="120" fill="#fe500c" /><rect width="20" height="10" x="110" y="120" fill="#ffffff" /><rect width="20" height="10" x="130" y="120" fill="#000000" /><rect width="10" height="10" x="150" y="120" fill="#fe500c" /><rect width="10" height="10" x="170" y="120" fill="#fe500c" /><rect width="20" height="10" x="180" y="120" fill="#ffffff" /><rect width="20" height="10" x="200" y="120" fill="#000000" /><rect width="10" height="10" x="220" y="120" fill="#fe500c" /><rect width="40" height="10" x="70" y="130" fill="#fe500c" /><rect width="20" height="10" x="110" y="130" fill="#ffffff" /><rect width="20" height="10" x="130" y="130" fill="#000000" /><rect width="30" height="10" x="150" y="130" fill="#fe500c" /><rect width="20" height="10" x="180" y="130" fill="#ffffff" /><rect width="20" height="10" x="200" y="130" fill="#000000" /><rect width="10" height="10" x="220" y="130" fill="#fe500c" /><rect width="10" height="10" x="70" y="140" fill="#fe500c" /><rect width="10" height="10" x="100" y="140" fill="#fe500c" /><rect width="20" height="10" x="110" y="140" fill="#ffffff" /><rect width="20" height="10" x="130" y="140" fill="#000000" /><rect width="10" height="10" x="150" y="140" fill="#fe500c" /><rect width="10" height="10" x="170" y="140" fill="#fe500c" /><rect width="20" height="10" x="180" y="140" fill="#ffffff" /><rect width="20" height="10" x="200" y="140" fill="#000000" /><rect width="10" height="10" x="220" y="140" fill="#fe500c" /><rect width="10" height="10" x="70" y="150" fill="#fe500c" /><rect width="10" height="10" x="100" y="150" fill="#fe500c" /><rect width="20" height="10" x="110" y="150" fill="#ffffff" /><rect width="20" height="10" x="130" y="150" fill="#000000" /><rect width="10" height="10" x="150" y="150" fill="#fe500c" /><rect width="10" height="10" x="170" y="150" fill="#fe500c" /><rect width="20" height="10" x="180" y="150" fill="#ffffff" /><rect width="20" height="10" x="200" y="150" fill="#000000" /><rect width="10" height="10" x="220" y="150" fill="#fe500c" /><rect width="60" height="10" x="100" y="160" fill="#fe500c" /><rect width="60" height="10" x="170" y="160" fill="#fe500c" /></svg>