<svg xmlns:xlink="http://www.w3.org/1999/xlink" width="320" height="320" viewBox="0 0 320 320" xmlns="http://www.w3.org/2000/svg" shape-rendering="crispEdges"><rect width="100%" height="100%" fill="#d5d7e1" /><rect width="140" height="10" x="90" y="210" fill="#fffdf2" /><rect width="140" height="10" x="90" y="220" fill="#fffdf2" /><rect width="140" height="10" x="90" y="230" fill="#fffdf2" /><rect width="140" height="10" x="90" y="240" fill="#fffdf2" /><rect width="20" height="10" x="90" y="250" fill="#fffdf2" /><rect width="110" height="10" x="120" y="250" fill="#fffdf2" /><rect width="20" height="10" x="90" y="260" fill="#fffdf2" /><rect width="110" height="10" x="120" y="260" fill="#fffdf2" /><rect width="20" height="10" x="90" y="270" fill="#fffdf2" /><rect width="110" height="10" x="120" y="270" fill="#fffdf2" /><rect width="20" height="10" x="90" y="280" fill="#fffdf2" /><rect width="110" height="10" x="120" y="280" fill="#fffdf2" /><rect width="20" height="10" x="90" y="290" fill="#fffdf2" /><rect width="110" height="10" x="120" y="290" fill="#fffdf2" /><rect width="20" height="10" x="90" y="300" fill="#fffdf2" /><rect width="110" height="10" x="120" y="300" fill="#fffdf2" /><rect width="20" height="10" x="90" y="310" fill="#fffdf2" /><rect width="110" height="10" x="120" y="310" fill="#fffdf2" /><rect width="90" height="10" x="120" y="210" fill="#000000" /><rect width="50" height="10" x="120" y="220" fill="#000000" /><rect width="30" height="10" x="180" y="220" fill="#000000" /><rect width="20" height="10" x="120" y="230" fill="#000000" /><rect width="20" height="10" x="150" y="230" fill="#000000" /><rect width="20" height="10" x="190" y="230" fill="#000000" /><rect width="10" height="10" x="120" y="240" fill="#000000" /><rect width="10" height="10" x="150" y="240" fill="#000000" /><rect width="10" height="10" x="160" y="240" fill="#f7913d" /><rect width="10" height="10" x="200" y="240" fill="#000000" /><rect width="20" height="10" x="150" y="250" fill="#000000" /><rect width="20" height="10" x="150" y="260" fill="#000000" /><rect width="20" height="10" x="150" y="270" fill="#000000" /><rect width="20" height="10" x="150" y="280" fill="#000000" /><rect width="10" height="10" x="150" y="290" fill="#000000" /><rect width="10" height="10" x="160" y="290" fill="#f7913d" /><rect width="20" height="10" x="150" y="300" fill="#000000" /><rect width="20" height="10" x="150" y="310" fill="#000000" /><rect width="10" height="10" x="130" y="30" fill="#068940" /><rect width="20" height="10" x="150" y="30" fill="#3f9323" /><rect width="10" height="10" x="180" y="30" fill="#068940" /><rect width="10" height="10" x="110" y="40" fill="#3f9323" /><rect width="20" height="10" x="130" y="40" fill="#068940" /><rect width="20" height="10" x="150" y="40" fill="#3f9323" /><rect width="20" height="10" x="170" y="40" fill="#068940" /><rect width="10" height="10" x="200" y="40" fill="#3f9323" /><rect width="30" height="10" x="110" y="50" fill="#3f9323" /><rect width="10" height="10" x="140" y="50" fill="#068940" /><rect width="20" height="10" x="150" y="50" fill="#3f9323" /><rect width="10" height="10" x="170" y="50" fill="#068940" /><rect width="30" height="10" x="180" y="50" fill="#3f9323" /><rect width="60" height="10" x="130" y="60" fill="#3f9323" /><rect width="20" height="10" x="110" y="70" fill="#ffef16" /><rect width="20" height="10" x="130" y="70" fill="#ffc110" /><rect width="20" height="10" x="150" y="70" fill="#ffef16" /><rect width="20" height="10" x="170" y="70" fill="#ffc110" /><rect width="20" height="10" x="190" y="70" fill="#ffef16" /><rect width="20" height="10" x="90" y="80" fill="#ffef16" /><rect width="20" height="10" x="110" y="80" fill="#ffc110" /><rect width="20" height="10" x="130" y="80" fill="#ffef16" /><rect width="20" height="10" x="150" y="80" fill="#ffc110" /><rect width="20" height="10" x="170" y="80" fill="#ffef16" /><rect width="20" height="10" x="190" y="80" fill="#ffc110" /><rect width="20" height="10" x="210" y="80" fill="#ffef16" /><rect width="20" height="10" x="90" y="90" fill="#ffef16" /><rect width="20" height="10" x="110" y="90" fill="#ffc110" /><rect width="20" height="10" x="130" y="90" fill="#ffef16" /><rect width="20" height="10" x="150" y="90" fill="#ffc110" /><rect width="20" height="10" x="170" y="90" fill="#ffef16" /><rect width="20" height="10" x="190" y="90" fill="#ffc110" /><rect width="20" height="10" x="210" y="90" fill="#ffef16" /><rect width="10" height="10" x="80" y="100" fill="#ffef16" /><rect width="20" height="10" x="90" y="100" fill="#ffc110" /><rect width="20" height="10" x="110" y="100" fill="#ffef16" /><rect width="20" height="10" x="130" y="100" fill="#ffc110" /><rect width="20" height="10" x="150" y="100" fill="#ffef16" /><rect width="20" height="10" x="170" y="100" fill="#ffc110" /><rect width="20" height="10" x="190" y="100" fill="#ffef16" /><rect width="20" height="10" x="210" y="100" fill="#ffc110" /><rect width="10" height="10" x="230" y="100" fill="#ffef16" /><rect width="10" height="10" x="80" y="110" fill="#ffef16" /><rect width="20" height="10" x="90" y="110" fill="#ffc110" /><rect width="20" height="10" x="110" y="110" fill="#ffef16" /><rect width="20" height="10" x="130" y="110" fill="#ffc110" /><rect width="20" height="10" x="150" y="110" fill="#ffef16" /><rect width="20" height="10" x="170" y="110" fill="#ffc110" /><rect width="20" height="10" x="190" y="110" fill="#ffef16" /><rect width="20" height="10" x="210" y="110" fill="#ffc110" /><rect width="10" height="10" x="230" y="110" fill="#ffef16" /><rect width="10" height="10" x="80" y="120" fill="#ffc110" /><rect width="20" height="10" x="90" y="120" fill="#ffef16" /><rect width="20" height="10" x="110" y="120" fill="#ffc110" /><rect width="20" height="10" x="130" y="120" fill="#ffef16" /><rect width="20" height="10" x="150" y="120" fill="#ffc110" /><rect width="20" height="10" x="170" y="120" fill="#ffef16" /><rect width="20" height="10" x="190" y="120" fill="#ffc110" /><rect width="20" height="10" x="210" y="120" fill="#ffef16" /><rect width="10" height="10" x="230" y="120" fill="#ffc110" /><rect width="10" height="10" x="80" y="130" fill="#ffc110" /><rect width="20" height="10" x="90" y="130" fill="#ffef16" /><rect width="20" height="10" x="110" y="130" fill="#ffc110" /><rect width="20" height="10" x="130" y="130" fill="#ffef16" /><rect width="20" height="10" x="150" y="130" fill="#ffc110" /><rect width="20" height="10" x="170" y="130" fill="#ffef16" /><rect width="20" height="10" x="190" y="130" fill="#ffc110" /><rect width="20" height="10" x="210" y="130" fill="#ffef16" /><rect width="10" height="10" x="230" y="130" fill="#ffc110" /><rect width="170" height="10" x="80" y="140" fill="#ffc110" /><rect width="160" height="10" x="80" y="150" fill="#ffc110" /><rect width="160" height="10" x="80" y="160" fill="#ffc110" /><rect width="180" height="10" x="70" y="170" fill="#ffc110" /><rect width="20" height="10" x="80" y="180" fill="#ffc110" /><rect width="30" height="10" x="100" y="180" fill="#f78a18" /><rect width="10" height="10" x="130" y="180" fill="#ffc110" /><rect width="40" height="10" x="140" y="180" fill="#f78a18" /><rect width="10" height="10" x="180" y="180" fill="#ffc110" /><rect width="30" height="10" x="190" y="180" fill="#f78a18" /><rect width="20" height="10" x="220" y="180" fill="#ffc110" /><rect width="20" height="10" x="80" y="190" fill="#ffc110" /><rect width="30" height="10" x="100" y="190" fill="#f78a18" /><rect width="10" height="10" x="130" y="190" fill="#ffc110" /><rect width="40" height="10" x="140" y="190" fill="#f78a18" /><rect width="10" height="10" x="180" y="190" fill="#ffc110" /><rect width="30" height="10" x="190" y="190" fill="#f78a18" /><rect width="20" height="10" x="220" y="190" fill="#ffc110" /><rect width="140" height="10" x="90" y="200" fill="#ffc110" /><rect width="60" height="10" x="100" y="110" fill="#ff638d" /><rect width="60" height="10" x="170" y="110" fill="#cc0595" /><rect width="10" height="10" x="100" y="120" fill="#ff638d" /><rect width="20" height="10" x="110" y="120" fill="#ffffff" /><rect width="20" height="10" x="130" y="120" fill="#000000" /><rect width="10" height="10" x="150" y="120" fill="#ff638d" /><rect width="10" height="10" x="170" y="120" fill="#cc0595" /><rect width="20" height="10" x="180" y="120" fill="#ffffff" /><rect width="20" height="10" x="200" y="120" fill="#000000" /><rect width="10" height="10" x="220" y="120" fill="#cc0595" /><rect width="30" height="10" x="70" y="130" fill="#cc0595" /><rect width="10" height="10" x="100" y="130" fill="#ff638d" /><rect width="20" height="10" x="110" y="130" fill="#ffffff" /><rect width="20" height="10" x="130" y="130" fill="#000000" /><rect width="10" height="10" x="150" y="130" fill="#ff638d" /><rect width="20" height="10" x="160" y="130" fill="#cc0595" /><rect width="20" height="10" x="180" y="130" fill="#ffffff" /><rect width="20" height="10" x="200" y="130" fill="#000000" /><rect width="10" height="10" x="220" y="130" fill="#cc0595" /><rect width="10" height="10" x="70" y="140" fill="#cc0595" /><rect width="10" height="10" x="100" y="140" fill="#ff638d" /><rect width="20" height="10" x="110" y="140" fill="#ffffff" /><rect width="20" height="10" x="130" y="140" fill="#000000" /><rect width="10" height="10" x="150" y="140" fill="#ff638d" /><rect width="10" height="10" x="170" y="140" fill="#cc0595" /><rect width="20" height="10" x="180" y="140" fill="#ffffff" /><rect width="20" height="10" x="200" y="140" fill="#000000" /><rect width="10" height="10" x="220" y="140" fill="#cc0595" /><rect width="10" height="10" x="70" y="150" fill="#cc0595" /><rect width="10" height="10" x="100" y="150" fill="#ff638d" /><rect width="20" height="10" x="110" y="150" fill="#ffffff" /><rect width="20" height="10" x="130" y="150" fill="#000000" /><rect width="10" height="10" x="150" y="150" fill="#ff638d" /><rect width="10" height="10" x="170" y="150" fill="#cc0595" /><rect width="20" height="10" x="180" y="150" fill="#ffffff" /><rect width="20" height="10" x="200" y="150" fill="#000000" /><rect width="10" height="10" x="220" y="150" fill="#cc0595" /><rect width="60" height="10" x="100" y="160" fill="#ff638d" /><rect width="60" height="10" x="170" y="160" fill="#cc0595" /></svg>