<svg xmlns:xlink="http://www.w3.org/1999/xlink" width="320" height="320" viewBox="0 0 320 320" xmlns="http://www.w3.org/2000/svg" shape-rendering="crispEdges"><rect width="100%" height="100%" fill="#e1d7d5" /><rect width="140" height="10" x="90" y="210" fill="#d22209" /><rect width="140" height="10" x="90" y="220" fill="#d22209" /><rect width="140" height="10" x="90" y="230" fill="#d22209" /><rect width="140" height="10" x="90" y="240" fill="#d22209" /><rect width="20" height="10" x="90" y="250" fill="#d22209" /><rect width="110" height="10" x="120" y="250" fill="#d22209" /><rect width="20" height="10" x="90" y="260" fill="#d22209" /><rect width="110" height="10" x="120" y="260" fill="#d22209" /><rect width="20" height="10" x="90" y="270" fill="#d22209" /><rect width="110" height="10" x="120" y="270" fill="#d22209" /><rect width="20" height="10" x="90" y="280" fill="#d22209" /><rect width="110" height="10" x="120" y="280" fill="#d22209" /><rect width="20" height="10" x="90" y="290" fill="#d22209" /><rect width="110" height="10" x="120" y="290" fill="#d22209" /><rect width="20" height="10" x="90" y="300" fill="#d22209" /><rect width="110" height="10" x="120" y="300" fill="#d22209" /><rect width="20" height="10" x="90" y="310" fill="#d22209" /><rect width="110" height="10" x="120" y="310" fill="#d22209" /><rect width="20" height="10" x="130" y="230" fill="#ffef16" /><rect width="20" height="10" x="130" y="240" fill="#ffef16" /><rect width="10" height="10" x="130" y="250" fill="#ffef16" /><rect width="20" height="10" x="150" y="250" fill="#ffef16" /><rect width="20" height="10" x="150" y="260" fill="#ffef16" /><rect width="20" height="10" x="170" y="270" fill="#ffef16" /><rect width="20" height="10" x="170" y="280" fill="#ffef16" /><rect width="10" height="10" x="170" y="290" fill="#ffef16" /><rect width="100" height="10" x="110" y="50" fill="#2b83f6" /><rect width="160" height="10" x="80" y="60" fill="#2b83f6" /><rect width="160" height="10" x="80" y="70" fill="#2b83f6" /><rect width="180" height="10" x="70" y="80" fill="#2b83f6" /><rect width="180" height="10" x="70" y="90" fill="#2b83f6" /><rect width="160" height="10" x="80" y="100" fill="#f9e8dd" /><rect width="160" height="10" x="80" y="110" fill="#f9e8dd" /><rect width="160" height="10" x="80" y="120" fill="#f9e8dd" /><rect width="160" height="10" x="80" y="130" fill="#f9e8dd" /><rect width="160" height="10" x="80" y="140" fill="#f9e8dd" /><rect width="160" height="10" x="80" y="150" fill="#f9e8dd" /><rect width="160" height="10" x="80" y="160" fill="#f9e8dd" /><rect width="70" height="10" x="80" y="170" fill="#f9e8dd" /><rect width="10" height="10" x="150" y="170" fill="#9d8e6e" /><rect width="10" height="10" x="160" y="170" fill="#f9e8dd" /><rect width="10" height="10" x="170" y="170" fill="#9d8e6e" /><rect width="60" height="10" x="180" y="170" fill="#f9e8dd" /><rect width="120" height="10" x="100" y="180" fill="#f9e8dd" /><rect width="20" height="10" x="100" y="190" fill="#f9e8dd" /><rect width="10" height="10" x="120" y="190" fill="#9d8e6e" /><rect width="10" height="10" x="130" y="190" fill="#f9e8dd" /><rect width="10" height="10" x="140" y="190" fill="#ffe939" /><rect width="10" height="10" x="150" y="190" fill="#f9e8dd" /><rect width="10" height="10" x="160" y="190" fill="#9d8e6e" /><rect width="10" height="10" x="170" y="190" fill="#f9e8dd" /><rect width="10" height="10" x="180" y="190" fill="#9d8e6e" /><rect width="10" height="10" x="190" y="190" fill="#f9e8dd" /><rect width="10" height="10" x="200" y="190" fill="#9d8e6e" /><rect width="10" height="10" x="210" y="190" fill="#f9e8dd" /><rect width="30" height="10" x="100" y="200" fill="#f9e8dd" /><rect width="10" height="10" x="130" y="200" fill="#9d8e6e" /><rect width="10" height="10" x="140" y="200" fill="#f9e8dd" /><rect width="10" height="10" x="150" y="200" fill="#9d8e6e" /><rect width="10" height="10" x="160" y="200" fill="#f9e8dd" /><rect width="10" height="10" x="170" y="200" fill="#9d8e6e" /><rect width="10" height="10" x="180" y="200" fill="#f9e8dd" /><rect width="10" height="10" x="190" y="200" fill="#9d8e6e" /><rect width="10" height="10" x="200" y="200" fill="#f9e8dd" /><rect width="10" height="10" x="210" y="200" fill="#9d8e6e" /><rect width="110" height="10" x="110" y="210" fill="#f9e8dd" /><rect width="60" height="10" x="100" y="110" fill="#ec5b43" /><rect width="60" height="10" x="170" y="110" fill="#ec5b43" /><rect width="10" height="10" x="100" y="120" fill="#ec5b43" /><rect width="20" height="10" x="110" y="120" fill="#ffffff" /><rect width="20" height="10" x="130" y="120" fill="#000000" /><rect width="10" height="10" x="150" y="120" fill="#ec5b43" /><rect width="10" height="10" x="170" y="120" fill="#ec5b43" /><rect width="20" height="10" x="180" y="120" fill="#ffffff" /><rect width="20" height="10" x="200" y="120" fill="#000000" /><rect width="10" height="10" x="220" y="120" fill="#ec5b43" /><rect width="40" height="10" x="70" y="130" fill="#ec5b43" /><rect width="20" height="10" x="110" y="130" fill="#ffffff" /><rect width="20" height="10" x="130" y="130" fill="#000000" /><rect width="30" height="10" x="150" y="130" fill="#ec5b43" /><rect width="20" height="10" x="180" y="130" fill="#ffffff" /><rect width="20" height="10" x="200" y="130" fill="#000000" /><rect width="10" height="10" x="220" y="130" fill="#ec5b43" /><rect width="10" height="10" x="70" y="140" fill="#ec5b43" /><rect width="10" height="10" x="100" y="140" fill="#ec5b43" /><rect width="20" height="10" x="110" y="140" fill="#ffffff" /><rect width="20" height="10" x="130" y="140" fill="#000000" /><rect width="10" height="10" x="150" y="140" fill="#ec5b43" /><rect width="10" height="10" x="170" y="140" fill="#ec5b43" /><rect width="20" height="10" x="180" y="140" fill="#ffffff" /><rect width="20" height="10" x="200" y="140" fill="#000000" /><rect width="10" height="10" x="220" y="140" fill="#ec5b43" /><rect width="10" height="10" x="70" y="150" fill="#ec5b43" /><rect width="10" height="10" x="100" y="150" fill="#ec5b43" /><rect width="20" height="10" x="110" y="150" fill="#ffffff" /><rect width="20" height="10" x="130" y="150" fill="#000000" /><rect width="10" height="10" x="150" y="150" fill="#ec5b43" /><rect width="10" height="10" x="170" y="150" fill="#ec5b43" /><rect width="20" height="10" x="180" y="150" fill="#ffffff" /><rect width="20" height="10" x="200" y="150" fill="#000000" /><rect width="10" height="10" x="220" y="150" fill="#ec5b43" /><rect width="60" height="10" x="100" y="160" fill="#ec5b43" /><rect width="60" height="10" x="170" y="160" fill="#ec5b43" /></svg>