<svg xmlns:xlink="http://www.w3.org/1999/xlink" width="320" height="320" viewBox="0 0 320 320" xmlns="http://www.w3.org/2000/svg" shape-rendering="crispEdges"><rect width="100%" height="100%" fill="#e1d7d5" /><rect width="140" height="10" x="90" y="210" fill="#34ac80" /><rect width="140" height="10" x="90" y="220" fill="#34ac80" /><rect width="140" height="10" x="90" y="230" fill="#34ac80" /><rect width="140" height="10" x="90" y="240" fill="#34ac80" /><rect width="20" height="10" x="90" y="250" fill="#34ac80" /><rect width="110" height="10" x="120" y="250" fill="#34ac80" /><rect width="20" height="10" x="90" y="260" fill="#34ac80" /><rect width="110" height="10" x="120" y="260" fill="#34ac80" /><rect width="20" height="10" x="90" y="270" fill="#34ac80" /><rect width="110" height="10" x="120" y="270" fill="#34ac80" /><rect width="20" height="10" x="90" y="280" fill="#34ac80" /><rect width="110" height="10" x="120" y="280" fill="#34ac80" /><rect width="20" height="10" x="90" y="290" fill="#34ac80" /><rect width="110" height="10" x="120" y="290" fill="#34ac80" /><rect width="20" height="10" x="90" y="300" fill="#34ac80" /><rect width="110" height="10" x="120" y="300" fill="#34ac80" /><rect width="20" height="10" x="90" y="310" fill="#34ac80" /><rect width="110" height="10" x="120" y="310" fill="#34ac80" /><rect width="20" height="10" x="130" y="230" fill="#ffef16" /><rect width="20" height="10" x="130" y="240" fill="#ffef16" /><rect width="10" height="10" x="130" y="250" fill="#ffef16" /><rect width="20" height="10" x="150" y="250" fill="#ffef16" /><rect width="20" height="10" x="150" y="260" fill="#ffef16" /><rect width="20" height="10" x="170" y="270" fill="#ffef16" /><rect width="20" height="10" x="170" y="280" fill="#ffef16" /><rect width="10" height="10" x="170" y="290" fill="#ffef16" /><rect width="10" height="10" x="90" y="30" fill="#254efb" /><rect width="130" height="10" x="100" y="30" fill="#eff2fa" /><rect width="10" height="10" x="90" y="40" fill="#254efb" /><rect width="60" height="10" x="100" y="40" fill="#eff2fa" /><rect width="50" height="10" x="160" y="40" fill="#f3322c" /><rect width="20" height="10" x="210" y="40" fill="#eff2fa" /><rect width="30" height="10" x="80" y="50" fill="#254efb" /><rect width="50" height="10" x="110" y="50" fill="#eff2fa" /><rect width="90" height="10" x="160" y="50" fill="#f3322c" /><rect width="20" height="10" x="250" y="50" fill="#b92b3c" /><rect width="30" height="10" x="80" y="60" fill="#254efb" /><rect width="90" height="10" x="110" y="60" fill="#eff2fa" /><rect width="50" height="10" x="200" y="60" fill="#f3322c" /><rect width="20" height="10" x="250" y="60" fill="#b92b3c" /><rect width="30" height="10" x="80" y="70" fill="#254efb" /><rect width="130" height="10" x="110" y="70" fill="#2b83f6" /><rect width="30" height="10" x="80" y="80" fill="#254efb" /><rect width="10" height="10" x="110" y="80" fill="#2b83f6" /><rect width="10" height="10" x="120" y="80" fill="#eff2fa" /><rect width="10" height="10" x="130" y="80" fill="#2b83f6" /><rect width="20" height="10" x="140" y="80" fill="#eff2fa" /><rect width="10" height="10" x="160" y="80" fill="#2b83f6" /><rect width="40" height="10" x="170" y="80" fill="#eff2fa" /><rect width="10" height="10" x="210" y="80" fill="#2b83f6" /><rect width="10" height="10" x="220" y="80" fill="#eff2fa" /><rect width="10" height="10" x="230" y="80" fill="#2b83f6" /><rect width="30" height="10" x="80" y="90" fill="#254efb" /><rect width="130" height="10" x="110" y="90" fill="#2b83f6" /><rect width="30" height="10" x="80" y="100" fill="#254efb" /><rect width="130" height="10" x="110" y="100" fill="#2b83f6" /><rect width="30" height="10" x="80" y="110" fill="#254efb" /><rect width="130" height="10" x="110" y="110" fill="#2b83f6" /><rect width="30" height="10" x="80" y="120" fill="#254efb" /><rect width="130" height="10" x="110" y="120" fill="#2b83f6" /><rect width="30" height="10" x="80" y="130" fill="#254efb" /><rect width="130" height="10" x="110" y="130" fill="#2b83f6" /><rect width="30" height="10" x="80" y="140" fill="#254efb" /><rect width="130" height="10" x="110" y="140" fill="#2b83f6" /><rect width="30" height="10" x="80" y="150" fill="#254efb" /><rect width="130" height="10" x="110" y="150" fill="#2b83f6" /><rect width="30" height="10" x="80" y="160" fill="#254efb" /><rect width="130" height="10" x="110" y="160" fill="#2b83f6" /><rect width="30" height="10" x="80" y="170" fill="#254efb" /><rect width="130" height="10" x="110" y="170" fill="#2b83f6" /><rect width="30" height="10" x="80" y="180" fill="#9cb4b8" /><rect width="130" height="10" x="110" y="180" fill="#eff2fa" /><rect width="30" height="10" x="80" y="190" fill="#254efb" /><rect width="130" height="10" x="110" y="190" fill="#2b83f6" /><rect width="30" height="10" x="80" y="200" fill="#254efb" /><rect width="130" height="10" x="110" y="200" fill="#2b83f6" /><rect width="60" height="10" x="100" y="110" fill="#ffef16" /><rect width="60" height="10" x="170" y="110" fill="#ffef16" /><rect width="10" height="10" x="100" y="120" fill="#ffef16" /><rect width="20" height="10" x="110" y="120" fill="#ffffff" /><rect width="20" height="10" x="130" y="120" fill="#000000" /><rect width="10" height="10" x="150" y="120" fill="#ffef16" /><rect width="10" height="10" x="170" y="120" fill="#ffef16" /><rect width="20" height="10" x="180" y="120" fill="#ffffff" /><rect width="20" height="10" x="200" y="120" fill="#000000" /><rect width="10" height="10" x="220" y="120" fill="#ffef16" /><rect width="40" height="10" x="70" y="130" fill="#ffef16" /><rect width="20" height="10" x="110" y="130" fill="#ffffff" /><rect width="20" height="10" x="130" y="130" fill="#000000" /><rect width="30" height="10" x="150" y="130" fill="#ffef16" /><rect width="20" height="10" x="180" y="130" fill="#ffffff" /><rect width="20" height="10" x="200" y="130" fill="#000000" /><rect width="10" height="10" x="220" y="130" fill="#ffef16" /><rect width="10" height="10" x="70" y="140" fill="#ffef16" /><rect width="10" height="10" x="100" y="140" fill="#ffef16" /><rect width="20" height="10" x="110" y="140" fill="#ffffff" /><rect width="20" height="10" x="130" y="140" fill="#000000" /><rect width="10" height="10" x="150" y="140" fill="#ffef16" /><rect width="10" height="10" x="170" y="140" fill="#ffef16" /><rect width="20" height="10" x="180" y="140" fill="#ffffff" /><rect width="20" height="10" x="200" y="140" fill="#000000" /><rect width="10" height="10" x="220" y="140" fill="#ffef16" /><rect width="10" height="10" x="70" y="150" fill="#ffef16" /><rect width="10" height="10" x="100" y="150" fill="#ffef16" /><rect width="20" height="10" x="110" y="150" fill="#ffffff" /><rect width="20" height="10" x="130" y="150" fill="#000000" /><rect width="10" height="10" x="150" y="150" fill="#ffef16" /><rect width="10" height="10" x="170" y="150" fill="#ffef16" /><rect width="20" height="10" x="180" y="150" fill="#ffffff" /><rect width="20" height="10" x="200" y="150" fill="#000000" /><rect width="10" height="10" x="220" y="150" fill="#ffef16" /><rect width="60" height="10" x="100" y="160" fill="#ffef16" /><rect width="60" height="10" x="170" y="160" fill="#ffef16" /></svg>