<svg xmlns:xlink="http://www.w3.org/1999/xlink" width="320" height="320" viewBox="0 0 320 320" xmlns="http://www.w3.org/2000/svg" shape-rendering="crispEdges"><rect width="100%" height="100%" fill="#e1d7d5" /><rect width="140" height="10" x="90" y="210" fill="#34ac80" /><rect width="140" height="10" x="90" y="220" fill="#34ac80" /><rect width="140" height="10" x="90" y="230" fill="#34ac80" /><rect width="140" height="10" x="90" y="240" fill="#34ac80" /><rect width="20" height="10" x="90" y="250" fill="#34ac80" /><rect width="110" height="10" x="120" y="250" fill="#34ac80" /><rect width="20" height="10" x="90" y="260" fill="#34ac80" /><rect width="110" height="10" x="120" y="260" fill="#34ac80" /><rect width="20" height="10" x="90" y="270" fill="#34ac80" /><rect width="110" height="10" x="120" y="270" fill="#34ac80" /><rect width="20" height="10" x="90" y="280" fill="#34ac80" /><rect width="110" height="10" x="120" y="280" fill="#34ac80" /><rect width="20" height="10" x="90" y="290" fill="#34ac80" /><rect width="110" height="10" x="120" y="290" fill="#34ac80" /><rect width="20" height="10" x="90" y="300" fill="#34ac80" /><rect width="110" height="10" x="120" y="300" fill="#34ac80" /><rect width="20" height="10" x="90" y="310" fill="#34ac80" /><rect width="110" height="10" x="120" y="310" fill="#34ac80" /><rect width="20" height="10" x="90" y="210" fill="#254efb" /><rect width="20" height="10" x="130" y="210" fill="#254efb" /><rect width="20" height="10" x="170" y="210" fill="#254efb" /><rect width="20" height="10" x="210" y="210" fill="#254efb" /><rect width="20" height="10" x="90" y="220" fill="#254efb" /><rect width="20" height="10" x="130" y="220" fill="#254efb" /><rect width="20" height="10" x="170" y="220" fill="#254efb" /><rect width="20" height="10" x="210" y="220" fill="#254efb" /><rect width="20" height="10" x="110" y="230" fill="#254efb" /><rect width="20" height="10" x="150" y="230" fill="#254efb" /><rect width="20" height="10" x="190" y="230" fill="#254efb" /><rect width="20" height="10" x="110" y="240" fill="#254efb" /><rect width="20" height="10" x="150" y="240" fill="#254efb" /><rect width="20" height="10" x="190" y="240" fill="#254efb" /><rect width="20" height="10" x="90" y="250" fill="#254efb" /><rect width="20" height="10" x="130" y="250" fill="#254efb" /><rect width="20" height="10" x="170" y="250" fill="#254efb" /><rect width="20" height="10" x="210" y="250" fill="#254efb" /><rect width="20" height="10" x="90" y="260" fill="#254efb" /><rect width="20" height="10" x="130" y="260" fill="#254efb" /><rect width="20" height="10" x="170" y="260" fill="#254efb" /><rect width="20" height="10" x="210" y="260" fill="#254efb" /><rect width="10" height="10" x="120" y="270" fill="#254efb" /><rect width="20" height="10" x="150" y="270" fill="#254efb" /><rect width="20" height="10" x="190" y="270" fill="#254efb" /><rect width="10" height="10" x="120" y="280" fill="#254efb" /><rect width="20" height="10" x="150" y="280" fill="#254efb" /><rect width="20" height="10" x="190" y="280" fill="#254efb" /><rect width="20" height="10" x="90" y="290" fill="#254efb" /><rect width="20" height="10" x="130" y="290" fill="#254efb" /><rect width="20" height="10" x="170" y="290" fill="#254efb" /><rect width="20" height="10" x="210" y="290" fill="#254efb" /><rect width="20" height="10" x="90" y="300" fill="#254efb" /><rect width="20" height="10" x="130" y="300" fill="#254efb" /><rect width="20" height="10" x="170" y="300" fill="#254efb" /><rect width="20" height="10" x="210" y="300" fill="#254efb" /><rect width="10" height="10" x="120" y="310" fill="#254efb" /><rect width="20" height="10" x="150" y="310" fill="#254efb" /><rect width="20" height="10" x="190" y="310" fill="#254efb" /><rect width="60" height="10" x="110" y="70" fill="#34ac80" /><rect width="60" height="10" x="110" y="80" fill="#34ac80" /><rect width="210" height="10" x="80" y="90" fill="#34ac80" /><rect width="210" height="10" x="80" y="100" fill="#34ac80" /><rect width="210" height="10" x="80" y="110" fill="#34ac80" /><rect width="210" height="10" x="80" y="120" fill="#34ac80" /><rect width="210" height="10" x="80" y="130" fill="#34ac80" /><rect width="210" height="10" x="80" y="140" fill="#34ac80" /><rect width="210" height="10" x="80" y="150" fill="#34ac80" /><rect width="210" height="10" x="80" y="160" fill="#34ac80" /><rect width="210" height="10" x="80" y="170" fill="#34ac80" /><rect width="50" height="10" x="90" y="180" fill="#34ac80" /><rect width="30" height="10" x="140" y="180" fill="#ffffff" /><rect width="10" height="10" x="170" y="180" fill="#34ac80" /><rect width="30" height="10" x="180" y="180" fill="#ffffff" /><rect width="10" height="10" x="210" y="180" fill="#34ac80" /><rect width="30" height="10" x="220" y="180" fill="#ffffff" /><rect width="10" height="10" x="250" y="180" fill="#34ac80" /><rect width="30" height="10" x="260" y="180" fill="#ffffff" /><rect width="50" height="10" x="90" y="190" fill="#34ac80" /><rect width="30" height="10" x="140" y="190" fill="#ffffff" /><rect width="10" height="10" x="170" y="190" fill="#34ac80" /><rect width="30" height="10" x="180" y="190" fill="#ffffff" /><rect width="10" height="10" x="210" y="190" fill="#34ac80" /><rect width="30" height="10" x="220" y="190" fill="#ffffff" /><rect width="10" height="10" x="250" y="190" fill="#34ac80" /><rect width="30" height="10" x="260" y="190" fill="#ffffff" /><rect width="200" height="10" x="90" y="200" fill="#34ac80" /><rect width="200" height="10" x="90" y="210" fill="#34ac80" /><rect width="60" height="10" x="100" y="110" fill="#4bea69" /><rect width="60" height="10" x="170" y="110" fill="#4bea69" /><rect width="10" height="10" x="100" y="120" fill="#4bea69" /><rect width="20" height="10" x="110" y="120" fill="#ffffff" /><rect width="20" height="10" x="130" y="120" fill="#000000" /><rect width="10" height="10" x="150" y="120" fill="#4bea69" /><rect width="10" height="10" x="170" y="120" fill="#4bea69" /><rect width="20" height="10" x="180" y="120" fill="#ffffff" /><rect width="20" height="10" x="200" y="120" fill="#000000" /><rect width="10" height="10" x="220" y="120" fill="#4bea69" /><rect width="40" height="10" x="70" y="130" fill="#4bea69" /><rect width="20" height="10" x="110" y="130" fill="#ffffff" /><rect width="20" height="10" x="130" y="130" fill="#000000" /><rect width="30" height="10" x="150" y="130" fill="#4bea69" /><rect width="20" height="10" x="180" y="130" fill="#ffffff" /><rect width="20" height="10" x="200" y="130" fill="#000000" /><rect width="10" height="10" x="220" y="130" fill="#4bea69" /><rect width="10" height="10" x="70" y="140" fill="#4bea69" /><rect width="10" height="10" x="100" y="140" fill="#4bea69" /><rect width="20" height="10" x="110" y="140" fill="#ffffff" /><rect width="20" height="10" x="130" y="140" fill="#000000" /><rect width="10" height="10" x="150" y="140" fill="#4bea69" /><rect width="10" height="10" x="170" y="140" fill="#4bea69" /><rect width="20" height="10" x="180" y="140" fill="#ffffff" /><rect width="20" height="10" x="200" y="140" fill="#000000" /><rect width="10" height="10" x="220" y="140" fill="#4bea69" /><rect width="10" height="10" x="70" y="150" fill="#4bea69" /><rect width="10" height="10" x="100" y="150" fill="#4bea69" /><rect width="20" height="10" x="110" y="150" fill="#ffffff" /><rect width="20" height="10" x="130" y="150" fill="#000000" /><rect width="10" height="10" x="150" y="150" fill="#4bea69" /><rect width="10" height="10" x="170" y="150" fill="#4bea69" /><rect width="20" height="10" x="180" y="150" fill="#ffffff" /><rect width="20" height="10" x="200" y="150" fill="#000000" /><rect width="10" height="10" x="220" y="150" fill="#4bea69" /><rect width="60" height="10" x="100" y="160" fill="#4bea69" /><rect width="60" height="10" x="170" y="160" fill="#4bea69" /></svg>