<svg xmlns:xlink="http://www.w3.org/1999/xlink" width="320" height="320" viewBox="0 0 320 320" xmlns="http://www.w3.org/2000/svg" shape-rendering="crispEdges"><rect width="100%" height="100%" fill="#e1d7d5" /><rect width="140" height="10" x="90" y="210" fill="#c5b9a1" /><rect width="140" height="10" x="90" y="220" fill="#c5b9a1" /><rect width="140" height="10" x="90" y="230" fill="#c5b9a1" /><rect width="140" height="10" x="90" y="240" fill="#c5b9a1" /><rect width="20" height="10" x="90" y="250" fill="#c5b9a1" /><rect width="110" height="10" x="120" y="250" fill="#c5b9a1" /><rect width="20" height="10" x="90" y="260" fill="#c5b9a1" /><rect width="110" height="10" x="120" y="260" fill="#c5b9a1" /><rect width="20" height="10" x="90" y="270" fill="#c5b9a1" /><rect width="110" height="10" x="120" y="270" fill="#c5b9a1" /><rect width="20" height="10" x="90" y="280" fill="#c5b9a1" /><rect width="110" height="10" x="120" y="280" fill="#c5b9a1" /><rect width="20" height="10" x="90" y="290" fill="#c5b9a1" /><rect width="110" height="10" x="120" y="290" fill="#c5b9a1" /><rect width="20" height="10" x="90" y="300" fill="#c5b9a1" /><rect width="110" height="10" x="120" y="300" fill="#c5b9a1" /><rect width="20" height="10" x="90" y="310" fill="#c5b9a1" /><rect width="110" height="10" x="120" y="310" fill="#c5b9a1" /><rect width="30" height="10" x="130" y="230" fill="#f20422" /><rect width="30" height="10" x="170" y="230" fill="#f20422" /><rect width="10" height="10" x="130" y="240" fill="#f20422" /><rect width="10" height="10" x="170" y="240" fill="#f20422" /><rect width="10" height="10" x="130" y="250" fill="#f20422" /><rect width="10" height="10" x="170" y="250" fill="#f20422" /><rect width="10" height="10" x="130" y="260" fill="#f20422" /><rect width="10" height="10" x="170" y="260" fill="#f20422" /><rect width="10" height="10" x="130" y="270" fill="#f20422" /><rect width="10" height="10" x="170" y="270" fill="#f20422" /><rect width="30" height="10" x="130" y="280" fill="#f20422" /><rect width="30" height="10" x="170" y="280" fill="#f20422" /><rect width="180" height="10" x="80" y="50" fill="#c5b9a1" /><rect width="180" height="10" x="80" y="60" fill="#c5b9a1" /><rect width="40" height="10" x="60" y="70" fill="#c5b9a1" /><rect width="10" height="10" x="100" y="70" fill="#fdf8ff" /><rect width="20" height="10" x="110" y="70" fill="#1929f4" /><rect width="10" height="10" x="130" y="70" fill="#fdf8ff" /><rect width="100" height="10" x="140" y="70" fill="#1929f4" /><rect width="20" height="10" x="240" y="70" fill="#c5b9a1" /><rect width="60" height="10" x="40" y="80" fill="#c5b9a1" /><rect width="20" height="10" x="100" y="80" fill="#1929f4" /><rect width="10" height="10" x="120" y="80" fill="#fdf8ff" /><rect width="110" height="10" x="130" y="80" fill="#1929f4" /><rect width="20" height="10" x="240" y="80" fill="#c5b9a1" /><rect width="60" height="10" x="40" y="90" fill="#c5b9a1" /><rect width="10" height="10" x="100" y="90" fill="#fdf8ff" /><rect width="20" height="10" x="110" y="90" fill="#1929f4" /><rect width="10" height="10" x="130" y="90" fill="#fdf8ff" /><rect width="100" height="10" x="140" y="90" fill="#1929f4" /><rect width="20" height="10" x="240" y="90" fill="#c5b9a1" /><rect width="60" height="10" x="40" y="100" fill="#c5b9a1" /><rect width="140" height="10" x="100" y="100" fill="#1929f4" /><rect width="20" height="10" x="240" y="100" fill="#c5b9a1" /><rect width="60" height="10" x="40" y="110" fill="#c5b9a1" /><rect width="140" height="10" x="100" y="110" fill="#1929f4" /><rect width="20" height="10" x="240" y="110" fill="#c5b9a1" /><rect width="60" height="10" x="40" y="120" fill="#c5b9a1" /><rect width="140" height="10" x="100" y="120" fill="#1929f4" /><rect width="20" height="10" x="240" y="120" fill="#c5b9a1" /><rect width="60" height="10" x="40" y="130" fill="#c5b9a1" /><rect width="140" height="10" x="100" y="130" fill="#1929f4" /><rect width="20" height="10" x="240" y="130" fill="#c5b9a1" /><rect width="20" height="10" x="40" y="140" fill="#9d8e6e" /><rect width="40" height="10" x="60" y="140" fill="#c5b9a1" /><rect width="140" height="10" x="100" y="140" fill="#1929f4" /><rect width="20" height="10" x="240" y="140" fill="#c5b9a1" /><rect width="60" height="10" x="40" y="150" fill="#c5b9a1" /><rect width="140" height="10" x="100" y="150" fill="#1929f4" /><rect width="20" height="10" x="240" y="150" fill="#c5b9a1" /><rect width="20" height="10" x="40" y="160" fill="#9d8e6e" /><rect width="40" height="10" x="60" y="160" fill="#c5b9a1" /><rect width="140" height="10" x="100" y="160" fill="#1929f4" /><rect width="20" height="10" x="240" y="160" fill="#c5b9a1" /><rect width="60" height="10" x="40" y="170" fill="#c5b9a1" /><rect width="140" height="10" x="100" y="170" fill="#1929f4" /><rect width="20" height="10" x="240" y="170" fill="#c5b9a1" /><rect width="20" height="10" x="40" y="180" fill="#9d8e6e" /><rect width="40" height="10" x="60" y="180" fill="#c5b9a1" /><rect width="140" height="10" x="100" y="180" fill="#1929f4" /><rect width="20" height="10" x="240" y="180" fill="#c5b9a1" /><rect width="130" height="10" x="40" y="190" fill="#c5b9a1" /><rect width="10" height="10" x="170" y="190" fill="#000000" /><rect width="10" height="10" x="180" y="190" fill="#c5b9a1" /><rect width="10" height="10" x="190" y="190" fill="#000000" /><rect width="60" height="10" x="200" y="190" fill="#c5b9a1" /><rect width="100" height="10" x="60" y="200" fill="#c5b9a1" /><rect width="10" height="10" x="160" y="200" fill="#000000" /><rect width="10" height="10" x="170" y="200" fill="#c5b9a1" /><rect width="10" height="10" x="180" y="200" fill="#000000" /><rect width="10" height="10" x="190" y="200" fill="#c5b9a1" /><rect width="10" height="10" x="200" y="200" fill="#000000" /><rect width="50" height="10" x="210" y="200" fill="#c5b9a1" /><rect width="180" height="10" x="80" y="210" fill="#c5b9a1" /><rect width="60" height="10" x="100" y="110" fill="#ffef16" /><rect width="60" height="10" x="170" y="110" fill="#ffef16" /><rect width="10" height="10" x="100" y="120" fill="#ffef16" /><rect width="20" height="10" x="110" y="120" fill="#ffffff" /><rect width="20" height="10" x="130" y="120" fill="#000000" /><rect width="10" height="10" x="150" y="120" fill="#ffef16" /><rect width="10" height="10" x="170" y="120" fill="#ffef16" /><rect width="20" height="10" x="180" y="120" fill="#ffffff" /><rect width="20" height="10" x="200" y="120" fill="#000000" /><rect width="10" height="10" x="220" y="120" fill="#ffef16" /><rect width="40" height="10" x="70" y="130" fill="#ffef16" /><rect width="20" height="10" x="110" y="130" fill="#ffffff" /><rect width="20" height="10" x="130" y="130" fill="#000000" /><rect width="30" height="10" x="150" y="130" fill="#ffef16" /><rect width="20" height="10" x="180" y="130" fill="#ffffff" /><rect width="20" height="10" x="200" y="130" fill="#000000" /><rect width="10" height="10" x="220" y="130" fill="#ffef16" /><rect width="10" height="10" x="70" y="140" fill="#ffef16" /><rect width="10" height="10" x="100" y="140" fill="#ffef16" /><rect width="20" height="10" x="110" y="140" fill="#ffffff" /><rect width="20" height="10" x="130" y="140" fill="#000000" /><rect width="10" height="10" x="150" y="140" fill="#ffef16" /><rect width="10" height="10" x="170" y="140" fill="#ffef16" /><rect width="20" height="10" x="180" y="140" fill="#ffffff" /><rect width="20" height="10" x="200" y="140" fill="#000000" /><rect width="10" height="10" x="220" y="140" fill="#ffef16" /><rect width="10" height="10" x="70" y="150" fill="#ffef16" /><rect width="10" height="10" x="100" y="150" fill="#ffef16" /><rect width="20" height="10" x="110" y="150" fill="#ffffff" /><rect width="20" height="10" x="130" y="150" fill="#000000" /><rect width="10" height="10" x="150" y="150" fill="#ffef16" /><rect width="10" height="10" x="170" y="150" fill="#ffef16" /><rect width="20" height="10" x="180" y="150" fill="#ffffff" /><rect width="20" height="10" x="200" y="150" fill="#000000" /><rect width="10" height="10" x="220" y="150" fill="#ffef16" /><rect width="60" height="10" x="100" y="160" fill="#ffef16" /><rect width="60" height="10" x="170" y="160" fill="#ffef16" /></svg>