<svg xmlns:xlink="http://www.w3.org/1999/xlink" width="320" height="320" viewBox="0 0 320 320" xmlns="http://www.w3.org/2000/svg" shape-rendering="crispEdges"><rect width="100%" height="100%" fill="#d5d7e1" /><rect width="140" height="10" x="90" y="210" fill="#b87b11" /><rect width="140" height="10" x="90" y="220" fill="#b87b11" /><rect width="140" height="10" x="90" y="230" fill="#b87b11" /><rect width="140" height="10" x="90" y="240" fill="#b87b11" /><rect width="20" height="10" x="90" y="250" fill="#b87b11" /><rect width="110" height="10" x="120" y="250" fill="#b87b11" /><rect width="20" height="10" x="90" y="260" fill="#b87b11" /><rect width="110" height="10" x="120" y="260" fill="#b87b11" /><rect width="20" height="10" x="90" y="270" fill="#b87b11" /><rect width="110" height="10" x="120" y="270" fill="#b87b11" /><rect width="20" height="10" x="90" y="280" fill="#b87b11" /><rect width="110" height="10" x="120" y="280" fill="#b87b11" /><rect width="20" height="10" x="90" y="290" fill="#b87b11" /><rect width="110" height="10" x="120" y="290" fill="#b87b11" /><rect width="20" height="10" x="90" y="300" fill="#b87b11" /><rect width="110" height="10" x="120" y="300" fill="#b87b11" /><rect width="20" height="10" x="90" y="310" fill="#b87b11" /><rect width="110" height="10" x="120" y="310" fill="#b87b11" /><rect width="10" height="10" x="150" y="230" fill="#adc8cc" /><rect width="20" height="10" x="130" y="240" fill="#adc8cc" /><rect width="20" height="10" x="130" y="250" fill="#adc8cc" /><rect width="10" height="10" x="160" y="250" fill="#adc8cc" /><rect width="30" height="10" x="150" y="260" fill="#adc8cc" /><rect width="10" height="10" x="160" y="270" fill="#adc8cc" /><rect width="10" height="10" x="180" y="270" fill="#adc8cc" /><rect width="10" height="10" x="200" y="270" fill="#adc8cc" /><rect width="20" height="10" x="180" y="280" fill="#adc8cc" /><rect width="20" height="10" x="180" y="290" fill="#adc8cc" /><rect width="180" height="10" x="70" y="30" fill="#cfc2ab" /><rect width="10" height="10" x="70" y="40" fill="#cfc2ab" /><rect width="160" height="10" x="80" y="40" fill="#867c1d" /><rect width="10" height="10" x="240" y="40" fill="#cfc2ab" /><rect width="10" height="10" x="70" y="50" fill="#cfc2ab" /><rect width="10" height="10" x="80" y="50" fill="#867c1d" /><rect width="150" height="10" x="90" y="50" fill="#909b0e" /><rect width="10" height="10" x="240" y="50" fill="#cfc2ab" /><rect width="10" height="10" x="70" y="60" fill="#cfc2ab" /><rect width="10" height="10" x="80" y="60" fill="#867c1d" /><rect width="70" height="10" x="90" y="60" fill="#909b0e" /><rect width="10" height="10" x="160" y="60" fill="#6b7212" /><rect width="70" height="10" x="170" y="60" fill="#909b0e" /><rect width="10" height="10" x="240" y="60" fill="#cfc2ab" /><rect width="10" height="10" x="70" y="70" fill="#cfc2ab" /><rect width="10" height="10" x="80" y="70" fill="#867c1d" /><rect width="50" height="10" x="90" y="70" fill="#909b0e" /><rect width="50" height="10" x="140" y="70" fill="#867c1d" /><rect width="10" height="10" x="190" y="70" fill="#909b0e" /><rect width="10" height="10" x="200" y="70" fill="#6b7212" /><rect width="10" height="10" x="210" y="70" fill="#867c1d" /><rect width="10" height="10" x="220" y="70" fill="#6b7212" /><rect width="10" height="10" x="230" y="70" fill="#909b0e" /><rect width="10" height="10" x="240" y="70" fill="#cfc2ab" /><rect width="10" height="10" x="70" y="80" fill="#cfc2ab" /><rect width="10" height="10" x="80" y="80" fill="#867c1d" /><rect width="60" height="10" x="90" y="80" fill="#909b0e" /><rect width="30" height="10" x="150" y="80" fill="#6b7212" /><rect width="20" height="10" x="180" y="80" fill="#909b0e" /><rect width="10" height="10" x="200" y="80" fill="#867c1d" /><rect width="10" height="10" x="210" y="80" fill="#6b7212" /><rect width="10" height="10" x="220" y="80" fill="#867c1d" /><rect width="10" height="10" x="230" y="80" fill="#909b0e" /><rect width="10" height="10" x="240" y="80" fill="#cfc2ab" /><rect width="10" height="10" x="70" y="90" fill="#cfc2ab" /><rect width="10" height="10" x="80" y="90" fill="#867c1d" /><rect width="10" height="10" x="90" y="90" fill="#909b0e" /><rect width="20" height="10" x="100" y="90" fill="#867c1d" /><rect width="10" height="10" x="120" y="90" fill="#909b0e" /><rect width="10" height="10" x="130" y="90" fill="#867c1d" /><rect width="10" height="10" x="140" y="90" fill="#909b0e" /><rect width="10" height="10" x="150" y="90" fill="#6b7212" /><rect width="10" height="10" x="160" y="90" fill="#909b0e" /><rect width="10" height="10" x="170" y="90" fill="#6b7212" /><rect width="20" height="10" x="180" y="90" fill="#909b0e" /><rect width="10" height="10" x="200" y="90" fill="#6b7212" /><rect width="10" height="10" x="210" y="90" fill="#867c1d" /><rect width="10" height="10" x="220" y="90" fill="#6b7212" /><rect width="10" height="10" x="230" y="90" fill="#909b0e" /><rect width="10" height="10" x="240" y="90" fill="#cfc2ab" /><rect width="10" height="10" x="70" y="100" fill="#cfc2ab" /><rect width="10" height="10" x="80" y="100" fill="#867c1d" /><rect width="150" height="10" x="90" y="100" fill="#909b0e" /><rect width="10" height="10" x="240" y="100" fill="#cfc2ab" /><rect width="10" height="10" x="70" y="110" fill="#cfc2ab" /><rect width="10" height="10" x="80" y="110" fill="#867c1d" /><rect width="150" height="10" x="90" y="110" fill="#909b0e" /><rect width="10" height="10" x="240" y="110" fill="#cfc2ab" /><rect width="10" height="10" x="70" y="120" fill="#cfc2ab" /><rect width="10" height="10" x="80" y="120" fill="#867c1d" /><rect width="150" height="10" x="90" y="120" fill="#909b0e" /><rect width="10" height="10" x="240" y="120" fill="#cfc2ab" /><rect width="10" height="10" x="70" y="130" fill="#cfc2ab" /><rect width="10" height="10" x="80" y="130" fill="#867c1d" /><rect width="150" height="10" x="90" y="130" fill="#909b0e" /><rect width="10" height="10" x="240" y="130" fill="#cfc2ab" /><rect width="10" height="10" x="70" y="140" fill="#cfc2ab" /><rect width="10" height="10" x="80" y="140" fill="#867c1d" /><rect width="150" height="10" x="90" y="140" fill="#909b0e" /><rect width="10" height="10" x="240" y="140" fill="#cfc2ab" /><rect width="10" height="10" x="70" y="150" fill="#cfc2ab" /><rect width="10" height="10" x="80" y="150" fill="#867c1d" /><rect width="150" height="10" x="90" y="150" fill="#909b0e" /><rect width="10" height="10" x="240" y="150" fill="#cfc2ab" /><rect width="180" height="10" x="70" y="160" fill="#cfc2ab" /><rect width="20" height="10" x="70" y="170" fill="#cfc2ab" /><rect width="10" height="10" x="90" y="170" fill="#9d8e6e" /><rect width="150" height="10" x="100" y="170" fill="#cfc2ab" /><rect width="10" height="10" x="70" y="180" fill="#cfc2ab" /><rect width="30" height="10" x="80" y="180" fill="#9d8e6e" /><rect width="20" height="10" x="110" y="180" fill="#cfc2ab" /><rect width="10" height="10" x="130" y="180" fill="#9d8e6e" /><rect width="10" height="10" x="140" y="180" fill="#cfc2ab" /><rect width="10" height="10" x="150" y="180" fill="#9d8e6e" /><rect width="10" height="10" x="160" y="180" fill="#cfc2ab" /><rect width="30" height="10" x="170" y="180" fill="#4243f8" /><rect width="10" height="10" x="200" y="180" fill="#cfc2ab" /><rect width="30" height="10" x="210" y="180" fill="#f3322c" /><rect width="10" height="10" x="240" y="180" fill="#cfc2ab" /><rect width="20" height="10" x="70" y="190" fill="#cfc2ab" /><rect width="10" height="10" x="90" y="190" fill="#9d8e6e" /><rect width="20" height="10" x="100" y="190" fill="#cfc2ab" /><rect width="10" height="10" x="120" y="190" fill="#9d8e6e" /><rect width="10" height="10" x="130" y="190" fill="#cfc2ab" /><rect width="10" height="10" x="140" y="190" fill="#9d8e6e" /><rect width="20" height="10" x="150" y="190" fill="#cfc2ab" /><rect width="30" height="10" x="170" y="190" fill="#4243f8" /><rect width="10" height="10" x="200" y="190" fill="#cfc2ab" /><rect width="30" height="10" x="210" y="190" fill="#f3322c" /><rect width="10" height="10" x="240" y="190" fill="#cfc2ab" /><rect width="180" height="10" x="70" y="200" fill="#cfc2ab" /><rect width="60" height="10" x="100" y="110" fill="#ec5b43" /><rect width="60" height="10" x="170" y="110" fill="#ec5b43" /><rect width="10" height="10" x="100" y="120" fill="#ec5b43" /><rect width="20" height="10" x="110" y="120" fill="#ffffff" /><rect width="20" height="10" x="130" y="120" fill="#000000" /><rect width="10" height="10" x="150" y="120" fill="#ec5b43" /><rect width="10" height="10" x="170" y="120" fill="#ec5b43" /><rect width="20" height="10" x="180" y="120" fill="#ffffff" /><rect width="20" height="10" x="200" y="120" fill="#000000" /><rect width="10" height="10" x="220" y="120" fill="#ec5b43" /><rect width="40" height="10" x="70" y="130" fill="#ec5b43" /><rect width="20" height="10" x="110" y="130" fill="#ffffff" /><rect width="20" height="10" x="130" y="130" fill="#000000" /><rect width="30" height="10" x="150" y="130" fill="#ec5b43" /><rect width="20" height="10" x="180" y="130" fill="#ffffff" /><rect width="20" height="10" x="200" y="130" fill="#000000" /><rect width="10" height="10" x="220" y="130" fill="#ec5b43" /><rect width="10" height="10" x="70" y="140" fill="#ec5b43" /><rect width="10" height="10" x="100" y="140" fill="#ec5b43" /><rect width="20" height="10" x="110" y="140" fill="#ffffff" /><rect width="20" height="10" x="130" y="140" fill="#000000" /><rect width="10" height="10" x="150" y="140" fill="#ec5b43" /><rect width="10" height="10" x="170" y="140" fill="#ec5b43" /><rect width="20" height="10" x="180" y="140" fill="#ffffff" /><rect width="20" height="10" x="200" y="140" fill="#000000" /><rect width="10" height="10" x="220" y="140" fill="#ec5b43" /><rect width="10" height="10" x="70" y="150" fill="#ec5b43" /><rect width="10" height="10" x="100" y="150" fill="#ec5b43" /><rect width="20" height="10" x="110" y="150" fill="#ffffff" /><rect width="20" height="10" x="130" y="150" fill="#000000" /><rect width="10" height="10" x="150" y="150" fill="#ec5b43" /><rect width="10" height="10" x="170" y="150" fill="#ec5b43" /><rect width="20" height="10" x="180" y="150" fill="#ffffff" /><rect width="20" height="10" x="200" y="150" fill="#000000" /><rect width="10" height="10" x="220" y="150" fill="#ec5b43" /><rect width="60" height="10" x="100" y="160" fill="#ec5b43" /><rect width="60" height="10" x="170" y="160" fill="#ec5b43" /></svg>