<svg xmlns:xlink="http://www.w3.org/1999/xlink" width="320" height="320" viewBox="0 0 320 320" xmlns="http://www.w3.org/2000/svg" shape-rendering="crispEdges"><rect width="100%" height="100%" fill="#e1d7d5" /><rect width="140" height="10" x="90" y="210" fill="#b87b11" /><rect width="140" height="10" x="90" y="220" fill="#b87b11" /><rect width="140" height="10" x="90" y="230" fill="#b87b11" /><rect width="140" height="10" x="90" y="240" fill="#b87b11" /><rect width="20" height="10" x="90" y="250" fill="#b87b11" /><rect width="110" height="10" x="120" y="250" fill="#b87b11" /><rect width="20" height="10" x="90" y="260" fill="#b87b11" /><rect width="110" height="10" x="120" y="260" fill="#b87b11" /><rect width="20" height="10" x="90" y="270" fill="#b87b11" /><rect width="110" height="10" x="120" y="270" fill="#b87b11" /><rect width="20" height="10" x="90" y="280" fill="#b87b11" /><rect width="110" height="10" x="120" y="280" fill="#b87b11" /><rect width="20" height="10" x="90" y="290" fill="#b87b11" /><rect width="110" height="10" x="120" y="290" fill="#b87b11" /><rect width="20" height="10" x="90" y="300" fill="#b87b11" /><rect width="110" height="10" x="120" y="300" fill="#b87b11" /><rect width="20" height="10" x="90" y="310" fill="#b87b11" /><rect width="110" height="10" x="120" y="310" fill="#b87b11" /><rect width="10" height="10" x="140" y="230" fill="#c4da53" /><rect width="10" height="10" x="160" y="230" fill="#c4da53" /><rect width="20" height="10" x="130" y="250" fill="#c4da53" /><rect width="20" height="10" x="160" y="250" fill="#c4da53" /><rect width="20" height="10" x="130" y="270" fill="#c4da53" /><rect width="20" height="10" x="160" y="270" fill="#c4da53" /><rect width="20" height="10" x="130" y="290" fill="#c4da53" /><rect width="10" height="10" x="160" y="290" fill="#c4da53" /><rect width="10" height="10" x="140" y="300" fill="#c4da53" /><rect width="30" height="10" x="160" y="30" fill="#4b4949" /><rect width="10" height="10" x="150" y="40" fill="#4b4949" /><rect width="30" height="10" x="160" y="40" fill="#62616d" /><rect width="20" height="10" x="190" y="40" fill="#4b4949" /><rect width="10" height="10" x="140" y="50" fill="#4b4949" /><rect width="10" height="10" x="150" y="50" fill="#62616d" /><rect width="10" height="10" x="160" y="50" fill="#4b4949" /><rect width="40" height="10" x="170" y="50" fill="#62616d" /><rect width="20" height="10" x="210" y="50" fill="#4b4949" /><rect width="20" height="10" x="130" y="60" fill="#4b4949" /><rect width="20" height="10" x="150" y="60" fill="#62616d" /><rect width="10" height="10" x="170" y="60" fill="#4b4949" /><rect width="50" height="10" x="180" y="60" fill="#62616d" /><rect width="20" height="10" x="230" y="60" fill="#4b4949" /><rect width="50" height="10" x="80" y="70" fill="#4b4949" /><rect width="50" height="10" x="130" y="70" fill="#62616d" /><rect width="10" height="10" x="180" y="70" fill="#4b4949" /><rect width="60" height="10" x="190" y="70" fill="#62616d" /><rect width="10" height="10" x="250" y="70" fill="#4b4949" /><rect width="10" height="10" x="70" y="80" fill="#4b4949" /><rect width="180" height="10" x="80" y="80" fill="#62616d" /><rect width="10" height="10" x="260" y="80" fill="#4b4949" /><rect width="10" height="10" x="60" y="90" fill="#4b4949" /><rect width="50" height="10" x="70" y="90" fill="#62616d" /><rect width="40" height="10" x="120" y="90" fill="#4b4949" /><rect width="100" height="10" x="160" y="90" fill="#62616d" /><rect width="10" height="10" x="260" y="90" fill="#4b4949" /><rect width="10" height="10" x="60" y="100" fill="#4b4949" /><rect width="90" height="10" x="70" y="100" fill="#62616d" /><rect width="10" height="10" x="160" y="100" fill="#4b4949" /><rect width="90" height="10" x="170" y="100" fill="#62616d" /><rect width="10" height="10" x="260" y="100" fill="#4b4949" /><rect width="10" height="10" x="60" y="110" fill="#4b4949" /><rect width="20" height="10" x="70" y="110" fill="#62616d" /><rect width="10" height="10" x="90" y="110" fill="#4b4949" /><rect width="160" height="10" x="100" y="110" fill="#62616d" /><rect width="10" height="10" x="260" y="110" fill="#4b4949" /><rect width="10" height="10" x="60" y="120" fill="#4b4949" /><rect width="70" height="10" x="70" y="120" fill="#62616d" /><rect width="20" height="10" x="140" y="120" fill="#4b4949" /><rect width="10" height="10" x="160" y="120" fill="#62616d" /><rect width="70" height="10" x="170" y="120" fill="#4b4949" /><rect width="20" height="10" x="240" y="120" fill="#62616d" /><rect width="10" height="10" x="260" y="120" fill="#4b4949" /><rect width="10" height="10" x="60" y="130" fill="#4b4949" /><rect width="50" height="10" x="70" y="130" fill="#62616d" /><rect width="20" height="10" x="120" y="130" fill="#4b4949" /><rect width="120" height="10" x="140" y="130" fill="#62616d" /><rect width="10" height="10" x="260" y="130" fill="#4b4949" /><rect width="10" height="10" x="50" y="140" fill="#4b4949" /><rect width="200" height="10" x="60" y="140" fill="#62616d" /><rect width="10" height="10" x="260" y="140" fill="#4b4949" /><rect width="10" height="10" x="50" y="150" fill="#4b4949" /><rect width="40" height="10" x="60" y="150" fill="#62616d" /><rect width="10" height="10" x="100" y="150" fill="#4b4949" /><rect width="140" height="10" x="110" y="150" fill="#62616d" /><rect width="20" height="10" x="250" y="150" fill="#4b4949" /><rect width="10" height="10" x="50" y="160" fill="#4b4949" /><rect width="40" height="10" x="60" y="160" fill="#62616d" /><rect width="10" height="10" x="100" y="160" fill="#4b4949" /><rect width="80" height="10" x="110" y="160" fill="#62616d" /><rect width="20" height="10" x="190" y="160" fill="#4b4949" /><rect width="10" height="10" x="210" y="160" fill="#62616d" /><rect width="30" height="10" x="220" y="160" fill="#4b4949" /><rect width="10" height="10" x="60" y="170" fill="#4b4949" /><rect width="40" height="10" x="70" y="170" fill="#62616d" /><rect width="10" height="10" x="110" y="170" fill="#4b4949" /><rect width="40" height="10" x="120" y="170" fill="#62616d" /><rect width="30" height="10" x="160" y="170" fill="#4b4949" /><rect width="20" height="10" x="190" y="170" fill="#62616d" /><rect width="10" height="10" x="210" y="170" fill="#4b4949" /><rect width="20" height="10" x="220" y="170" fill="#62616d" /><rect width="10" height="10" x="240" y="170" fill="#4b4949" /><rect width="10" height="10" x="70" y="180" fill="#4b4949" /><rect width="50" height="10" x="80" y="180" fill="#62616d" /><rect width="30" height="10" x="130" y="180" fill="#4b4949" /><rect width="40" height="10" x="160" y="180" fill="#62616d" /><rect width="10" height="10" x="200" y="180" fill="#4b4949" /><rect width="20" height="10" x="210" y="180" fill="#62616d" /><rect width="10" height="10" x="230" y="180" fill="#4b4949" /><rect width="50" height="10" x="80" y="190" fill="#4b4949" /><rect width="40" height="10" x="130" y="190" fill="#62616d" /><rect width="30" height="10" x="170" y="190" fill="#4b4949" /><rect width="30" height="10" x="200" y="190" fill="#62616d" /><rect width="10" height="10" x="230" y="190" fill="#4b4949" /><rect width="10" height="10" x="90" y="200" fill="#4b4949" /><rect width="120" height="10" x="100" y="200" fill="#62616d" /><rect width="10" height="10" x="220" y="200" fill="#4b4949" /><rect width="60" height="10" x="100" y="110" fill="#b9185c" /><rect width="60" height="10" x="170" y="110" fill="#b9185c" /><rect width="10" height="10" x="100" y="120" fill="#b9185c" /><rect width="20" height="10" x="110" y="120" fill="#ffffff" /><rect width="20" height="10" x="130" y="120" fill="#000000" /><rect width="10" height="10" x="150" y="120" fill="#b9185c" /><rect width="10" height="10" x="170" y="120" fill="#b9185c" /><rect width="20" height="10" x="180" y="120" fill="#ffffff" /><rect width="20" height="10" x="200" y="120" fill="#000000" /><rect width="10" height="10" x="220" y="120" fill="#b9185c" /><rect width="40" height="10" x="70" y="130" fill="#b9185c" /><rect width="20" height="10" x="110" y="130" fill="#ffffff" /><rect width="20" height="10" x="130" y="130" fill="#000000" /><rect width="30" height="10" x="150" y="130" fill="#b9185c" /><rect width="20" height="10" x="180" y="130" fill="#ffffff" /><rect width="20" height="10" x="200" y="130" fill="#000000" /><rect width="10" height="10" x="220" y="130" fill="#b9185c" /><rect width="10" height="10" x="70" y="140" fill="#b9185c" /><rect width="10" height="10" x="100" y="140" fill="#b9185c" /><rect width="20" height="10" x="110" y="140" fill="#ffffff" /><rect width="20" height="10" x="130" y="140" fill="#000000" /><rect width="10" height="10" x="150" y="140" fill="#b9185c" /><rect width="10" height="10" x="170" y="140" fill="#b9185c" /><rect width="20" height="10" x="180" y="140" fill="#ffffff" /><rect width="20" height="10" x="200" y="140" fill="#000000" /><rect width="10" height="10" x="220" y="140" fill="#b9185c" /><rect width="10" height="10" x="70" y="150" fill="#b9185c" /><rect width="10" height="10" x="100" y="150" fill="#b9185c" /><rect width="20" height="10" x="110" y="150" fill="#ffffff" /><rect width="20" height="10" x="130" y="150" fill="#000000" /><rect width="10" height="10" x="150" y="150" fill="#b9185c" /><rect width="10" height="10" x="170" y="150" fill="#b9185c" /><rect width="20" height="10" x="180" y="150" fill="#ffffff" /><rect width="20" height="10" x="200" y="150" fill="#000000" /><rect width="10" height="10" x="220" y="150" fill="#b9185c" /><rect width="60" height="10" x="100" y="160" fill="#b9185c" /><rect width="60" height="10" x="170" y="160" fill="#b9185c" /></svg>