<svg xmlns:xlink="http://www.w3.org/1999/xlink" width="320" height="320" viewBox="0 0 320 320" xmlns="http://www.w3.org/2000/svg" shape-rendering="crispEdges"><rect width="100%" height="100%" fill="#e1d7d5" /><rect width="140" height="10" x="90" y="210" fill="#c5b9a1" /><rect width="140" height="10" x="90" y="220" fill="#c5b9a1" /><rect width="140" height="10" x="90" y="230" fill="#c5b9a1" /><rect width="140" height="10" x="90" y="240" fill="#c5b9a1" /><rect width="20" height="10" x="90" y="250" fill="#c5b9a1" /><rect width="110" height="10" x="120" y="250" fill="#c5b9a1" /><rect width="20" height="10" x="90" y="260" fill="#c5b9a1" /><rect width="110" height="10" x="120" y="260" fill="#c5b9a1" /><rect width="20" height="10" x="90" y="270" fill="#c5b9a1" /><rect width="110" height="10" x="120" y="270" fill="#c5b9a1" /><rect width="20" height="10" x="90" y="280" fill="#c5b9a1" /><rect width="110" height="10" x="120" y="280" fill="#c5b9a1" /><rect width="20" height="10" x="90" y="290" fill="#c5b9a1" /><rect width="110" height="10" x="120" y="290" fill="#c5b9a1" /><rect width="20" height="10" x="90" y="300" fill="#c5b9a1" /><rect width="110" height="10" x="120" y="300" fill="#c5b9a1" /><rect width="20" height="10" x="90" y="310" fill="#c5b9a1" /><rect width="110" height="10" x="120" y="310" fill="#c5b9a1" /><rect width="90" height="10" x="120" y="210" fill="#000000" /><rect width="50" height="10" x="120" y="220" fill="#000000" /><rect width="30" height="10" x="180" y="220" fill="#000000" /><rect width="20" height="10" x="120" y="230" fill="#000000" /><rect width="20" height="10" x="150" y="230" fill="#000000" /><rect width="20" height="10" x="190" y="230" fill="#000000" /><rect width="10" height="10" x="120" y="240" fill="#000000" /><rect width="10" height="10" x="150" y="240" fill="#000000" /><rect width="10" height="10" x="160" y="240" fill="#f7913d" /><rect width="10" height="10" x="200" y="240" fill="#000000" /><rect width="20" height="10" x="150" y="250" fill="#000000" /><rect width="20" height="10" x="150" y="260" fill="#000000" /><rect width="20" height="10" x="150" y="270" fill="#000000" /><rect width="20" height="10" x="150" y="280" fill="#000000" /><rect width="10" height="10" x="150" y="290" fill="#000000" /><rect width="10" height="10" x="160" y="290" fill="#f7913d" /><rect width="20" height="10" x="150" y="300" fill="#000000" /><rect width="20" height="10" x="150" y="310" fill="#000000" /><rect width="50" height="10" x="80" y="50" fill="#85634f" /><rect width="50" height="10" x="190" y="50" fill="#85634f" /><rect width="10" height="10" x="80" y="60" fill="#85634f" /><rect width="20" height="10" x="90" y="60" fill="#e8705b" /><rect width="20" height="10" x="110" y="60" fill="#85634f" /><rect width="20" height="10" x="190" y="60" fill="#85634f" /><rect width="20" height="10" x="210" y="60" fill="#e8705b" /><rect width="10" height="10" x="230" y="60" fill="#85634f" /><rect width="160" height="10" x="80" y="70" fill="#85634f" /><rect width="160" height="10" x="80" y="80" fill="#85634f" /><rect width="160" height="10" x="80" y="90" fill="#85634f" /><rect width="160" height="10" x="80" y="100" fill="#85634f" /><rect width="160" height="10" x="80" y="110" fill="#85634f" /><rect width="160" height="10" x="80" y="120" fill="#85634f" /><rect width="160" height="10" x="80" y="130" fill="#85634f" /><rect width="160" height="10" x="80" y="140" fill="#85634f" /><rect width="160" height="10" x="80" y="150" fill="#85634f" /><rect width="160" height="10" x="80" y="160" fill="#85634f" /><rect width="20" height="10" x="80" y="170" fill="#5a423f" /><rect width="20" height="10" x="100" y="170" fill="#85634f" /><rect width="20" height="10" x="120" y="170" fill="#5a423f" /><rect width="20" height="10" x="140" y="170" fill="#000000" /><rect width="10" height="10" x="160" y="170" fill="#f9f4e6" /><rect width="10" height="10" x="170" y="170" fill="#000000" /><rect width="10" height="10" x="180" y="170" fill="#f9f4e6" /><rect width="20" height="10" x="190" y="170" fill="#000000" /><rect width="10" height="10" x="210" y="170" fill="#5a423f" /><rect width="20" height="10" x="220" y="170" fill="#85634f" /><rect width="20" height="10" x="80" y="180" fill="#5a423f" /><rect width="20" height="10" x="100" y="180" fill="#85634f" /><rect width="20" height="10" x="120" y="180" fill="#5a423f" /><rect width="70" height="10" x="140" y="180" fill="#000000" /><rect width="10" height="10" x="210" y="180" fill="#5a423f" /><rect width="20" height="10" x="220" y="180" fill="#85634f" /><rect width="20" height="10" x="80" y="190" fill="#5a423f" /><rect width="20" height="10" x="100" y="190" fill="#85634f" /><rect width="20" height="10" x="120" y="190" fill="#5a423f" /><rect width="20" height="10" x="140" y="190" fill="#85634f" /><rect width="20" height="10" x="160" y="190" fill="#5a423f" /><rect width="20" height="10" x="180" y="190" fill="#85634f" /><rect width="20" height="10" x="200" y="190" fill="#5a423f" /><rect width="20" height="10" x="220" y="190" fill="#85634f" /><rect width="20" height="10" x="80" y="200" fill="#5a423f" /><rect width="20" height="10" x="100" y="200" fill="#85634f" /><rect width="20" height="10" x="120" y="200" fill="#5a423f" /><rect width="20" height="10" x="140" y="200" fill="#85634f" /><rect width="20" height="10" x="160" y="200" fill="#5a423f" /><rect width="20" height="10" x="180" y="200" fill="#85634f" /><rect width="20" height="10" x="200" y="200" fill="#5a423f" /><rect width="20" height="10" x="220" y="200" fill="#85634f" /><rect width="140" height="10" x="90" y="210" fill="#5a423f" /><rect width="60" height="10" x="100" y="110" fill="#f3322c" /><rect width="60" height="10" x="170" y="110" fill="#f3322c" /><rect width="10" height="10" x="100" y="120" fill="#f3322c" /><rect width="20" height="10" x="110" y="120" fill="#ffffff" /><rect width="20" height="10" x="130" y="120" fill="#000000" /><rect width="10" height="10" x="150" y="120" fill="#f3322c" /><rect width="10" height="10" x="170" y="120" fill="#f3322c" /><rect width="20" height="10" x="180" y="120" fill="#ffffff" /><rect width="20" height="10" x="200" y="120" fill="#000000" /><rect width="10" height="10" x="220" y="120" fill="#f3322c" /><rect width="40" height="10" x="70" y="130" fill="#f3322c" /><rect width="20" height="10" x="110" y="130" fill="#ffffff" /><rect width="20" height="10" x="130" y="130" fill="#000000" /><rect width="30" height="10" x="150" y="130" fill="#f3322c" /><rect width="20" height="10" x="180" y="130" fill="#ffffff" /><rect width="20" height="10" x="200" y="130" fill="#000000" /><rect width="10" height="10" x="220" y="130" fill="#f3322c" /><rect width="10" height="10" x="70" y="140" fill="#f3322c" /><rect width="10" height="10" x="100" y="140" fill="#f3322c" /><rect width="20" height="10" x="110" y="140" fill="#ffffff" /><rect width="20" height="10" x="130" y="140" fill="#000000" /><rect width="10" height="10" x="150" y="140" fill="#f3322c" /><rect width="10" height="10" x="170" y="140" fill="#f3322c" /><rect width="20" height="10" x="180" y="140" fill="#ffffff" /><rect width="20" height="10" x="200" y="140" fill="#000000" /><rect width="10" height="10" x="220" y="140" fill="#f3322c" /><rect width="10" height="10" x="70" y="150" fill="#f3322c" /><rect width="10" height="10" x="100" y="150" fill="#f3322c" /><rect width="20" height="10" x="110" y="150" fill="#ffffff" /><rect width="20" height="10" x="130" y="150" fill="#000000" /><rect width="10" height="10" x="150" y="150" fill="#f3322c" /><rect width="10" height="10" x="170" y="150" fill="#f3322c" /><rect width="20" height="10" x="180" y="150" fill="#ffffff" /><rect width="20" height="10" x="200" y="150" fill="#000000" /><rect width="10" height="10" x="220" y="150" fill="#f3322c" /><rect width="60" height="10" x="100" y="160" fill="#f3322c" /><rect width="60" height="10" x="170" y="160" fill="#f3322c" /></svg>