<svg xmlns:xlink="http://www.w3.org/1999/xlink" width="320" height="320" viewBox="0 0 320 320" xmlns="http://www.w3.org/2000/svg" shape-rendering="crispEdges"><rect width="100%" height="100%" fill="#e1d7d5" /><rect width="140" height="10" x="90" y="210" fill="#d26451" /><rect width="140" height="10" x="90" y="220" fill="#d26451" /><rect width="140" height="10" x="90" y="230" fill="#d26451" /><rect width="140" height="10" x="90" y="240" fill="#d26451" /><rect width="20" height="10" x="90" y="250" fill="#d26451" /><rect width="110" height="10" x="120" y="250" fill="#d26451" /><rect width="20" height="10" x="90" y="260" fill="#d26451" /><rect width="110" height="10" x="120" y="260" fill="#d26451" /><rect width="20" height="10" x="90" y="270" fill="#d26451" /><rect width="110" height="10" x="120" y="270" fill="#d26451" /><rect width="20" height="10" x="90" y="280" fill="#d26451" /><rect width="110" height="10" x="120" y="280" fill="#d26451" /><rect width="20" height="10" x="90" y="290" fill="#d26451" /><rect width="110" height="10" x="120" y="290" fill="#d26451" /><rect width="20" height="10" x="90" y="300" fill="#d26451" /><rect width="110" height="10" x="120" y="300" fill="#d26451" /><rect width="20" height="10" x="90" y="310" fill="#d26451" /><rect width="110" height="10" x="120" y="310" fill="#d26451" /><rect width="30" height="10" x="120" y="210" fill="#4bea69" /><rect width="30" height="10" x="180" y="210" fill="#4bea69" /><rect width="30" height="10" x="120" y="220" fill="#4bea69" /><rect width="30" height="10" x="180" y="220" fill="#4bea69" /><rect width="30" height="10" x="120" y="230" fill="#4bea69" /><rect width="30" height="10" x="180" y="230" fill="#4bea69" /><rect width="30" height="10" x="120" y="240" fill="#000000" /><rect width="30" height="10" x="180" y="240" fill="#000000" /><rect width="30" height="10" x="120" y="250" fill="#000000" /><rect width="30" height="10" x="180" y="250" fill="#000000" /><rect width="30" height="10" x="120" y="260" fill="#000000" /><rect width="30" height="10" x="180" y="260" fill="#000000" /><rect width="30" height="10" x="120" y="270" fill="#4bea69" /><rect width="30" height="10" x="180" y="270" fill="#4bea69" /><rect width="30" height="10" x="120" y="280" fill="#4bea69" /><rect width="30" height="10" x="180" y="280" fill="#4bea69" /><rect width="30" height="10" x="120" y="290" fill="#4bea69" /><rect width="30" height="10" x="180" y="290" fill="#4bea69" /><rect width="30" height="10" x="120" y="300" fill="#000000" /><rect width="30" height="10" x="180" y="300" fill="#000000" /><rect width="30" height="10" x="120" y="310" fill="#000000" /><rect width="30" height="10" x="180" y="310" fill="#000000" /><rect width="10" height="10" x="80" y="20" fill="#cc0595" /><rect width="10" height="10" x="80" y="30" fill="#cc0595" /><rect width="10" height="10" x="90" y="30" fill="#fb4694" /><rect width="20" height="10" x="80" y="40" fill="#cc0595" /><rect width="10" height="10" x="100" y="40" fill="#fb4694" /><rect width="10" height="10" x="80" y="50" fill="#cc0595" /><rect width="30" height="10" x="90" y="50" fill="#fb4694" /><rect width="10" height="10" x="80" y="60" fill="#cc0595" /><rect width="40" height="10" x="90" y="60" fill="#fb4694" /><rect width="20" height="10" x="80" y="70" fill="#cc0595" /><rect width="40" height="10" x="100" y="70" fill="#fb4694" /><rect width="10" height="10" x="80" y="80" fill="#cc0595" /><rect width="60" height="10" x="90" y="80" fill="#fb4694" /><rect width="10" height="10" x="80" y="90" fill="#cc0595" /><rect width="70" height="10" x="90" y="90" fill="#fb4694" /><rect width="20" height="10" x="80" y="100" fill="#cc0595" /><rect width="70" height="10" x="100" y="100" fill="#fb4694" /><rect width="10" height="10" x="80" y="110" fill="#cc0595" /><rect width="90" height="10" x="90" y="110" fill="#fb4694" /><rect width="10" height="10" x="80" y="120" fill="#cc0595" /><rect width="30" height="10" x="90" y="120" fill="#fb4694" /><rect width="60" height="10" x="130" y="120" fill="#fb4694" /><rect width="20" height="10" x="80" y="130" fill="#cc0595" /><rect width="20" height="10" x="100" y="130" fill="#fb4694" /><rect width="60" height="10" x="140" y="130" fill="#fb4694" /><rect width="10" height="10" x="80" y="140" fill="#cc0595" /><rect width="30" height="10" x="90" y="140" fill="#fb4694" /><rect width="60" height="10" x="150" y="140" fill="#fb4694" /><rect width="10" height="10" x="80" y="150" fill="#cc0595" /><rect width="30" height="10" x="90" y="150" fill="#fb4694" /><rect width="60" height="10" x="160" y="150" fill="#fb4694" /><rect width="20" height="10" x="80" y="160" fill="#cc0595" /><rect width="20" height="10" x="100" y="160" fill="#fb4694" /><rect width="60" height="10" x="170" y="160" fill="#fb4694" /><rect width="10" height="10" x="80" y="170" fill="#cc0595" /><rect width="30" height="10" x="90" y="170" fill="#fb4694" /><rect width="60" height="10" x="180" y="170" fill="#fb4694" /><rect width="10" height="10" x="80" y="180" fill="#cc0595" /><rect width="160" height="10" x="90" y="180" fill="#fb4694" /><rect width="20" height="10" x="80" y="190" fill="#cc0595" /><rect width="90" height="10" x="100" y="190" fill="#fb4694" /><rect width="40" height="10" x="190" y="190" fill="#cc0595" /><rect width="30" height="10" x="230" y="190" fill="#fb4694" /><rect width="10" height="10" x="80" y="200" fill="#cc0595" /><rect width="100" height="10" x="90" y="200" fill="#fb4694" /><rect width="40" height="10" x="190" y="200" fill="#cc0595" /><rect width="40" height="10" x="230" y="200" fill="#fb4694" /><rect width="10" height="10" x="80" y="210" fill="#cc0595" /><rect width="190" height="10" x="90" y="210" fill="#fb4694" /><rect width="60" height="10" x="100" y="110" fill="#fe500c" /><rect width="60" height="10" x="170" y="110" fill="#fe500c" /><rect width="10" height="10" x="100" y="120" fill="#fe500c" /><rect width="20" height="10" x="110" y="120" fill="#ffffff" /><rect width="20" height="10" x="130" y="120" fill="#000000" /><rect width="10" height="10" x="150" y="120" fill="#fe500c" /><rect width="10" height="10" x="170" y="120" fill="#fe500c" /><rect width="20" height="10" x="180" y="120" fill="#ffffff" /><rect width="20" height="10" x="200" y="120" fill="#000000" /><rect width="10" height="10" x="220" y="120" fill="#fe500c" /><rect width="40" height="10" x="70" y="130" fill="#fe500c" /><rect width="20" height="10" x="110" y="130" fill="#ffffff" /><rect width="20" height="10" x="130" y="130" fill="#000000" /><rect width="30" height="10" x="150" y="130" fill="#fe500c" /><rect width="20" height="10" x="180" y="130" fill="#ffffff" /><rect width="20" height="10" x="200" y="130" fill="#000000" /><rect width="10" height="10" x="220" y="130" fill="#fe500c" /><rect width="10" height="10" x="70" y="140" fill="#fe500c" /><rect width="10" height="10" x="100" y="140" fill="#fe500c" /><rect width="20" height="10" x="110" y="140" fill="#ffffff" /><rect width="20" height="10" x="130" y="140" fill="#000000" /><rect width="10" height="10" x="150" y="140" fill="#fe500c" /><rect width="10" height="10" x="170" y="140" fill="#fe500c" /><rect width="20" height="10" x="180" y="140" fill="#ffffff" /><rect width="20" height="10" x="200" y="140" fill="#000000" /><rect width="10" height="10" x="220" y="140" fill="#fe500c" /><rect width="10" height="10" x="70" y="150" fill="#fe500c" /><rect width="10" height="10" x="100" y="150" fill="#fe500c" /><rect width="20" height="10" x="110" y="150" fill="#ffffff" /><rect width="20" height="10" x="130" y="150" fill="#000000" /><rect width="10" height="10" x="150" y="150" fill="#fe500c" /><rect width="10" height="10" x="170" y="150" fill="#fe500c" /><rect width="20" height="10" x="180" y="150" fill="#ffffff" /><rect width="20" height="10" x="200" y="150" fill="#000000" /><rect width="10" height="10" x="220" y="150" fill="#fe500c" /><rect width="60" height="10" x="100" y="160" fill="#fe500c" /><rect width="60" height="10" x="170" y="160" fill="#fe500c" /></svg>