<svg xmlns:xlink="http://www.w3.org/1999/xlink" width="320" height="320" viewBox="0 0 320 320" xmlns="http://www.w3.org/2000/svg" shape-rendering="crispEdges"><rect width="100%" height="100%" fill="#e1d7d5" /><rect width="140" height="10" x="90" y="210" fill="#9f21a0" /><rect width="140" height="10" x="90" y="220" fill="#9f21a0" /><rect width="140" height="10" x="90" y="230" fill="#9f21a0" /><rect width="140" height="10" x="90" y="240" fill="#9f21a0" /><rect width="20" height="10" x="90" y="250" fill="#9f21a0" /><rect width="110" height="10" x="120" y="250" fill="#9f21a0" /><rect width="20" height="10" x="90" y="260" fill="#9f21a0" /><rect width="110" height="10" x="120" y="260" fill="#9f21a0" /><rect width="20" height="10" x="90" y="270" fill="#9f21a0" /><rect width="110" height="10" x="120" y="270" fill="#9f21a0" /><rect width="20" height="10" x="90" y="280" fill="#9f21a0" /><rect width="110" height="10" x="120" y="280" fill="#9f21a0" /><rect width="20" height="10" x="90" y="290" fill="#9f21a0" /><rect width="110" height="10" x="120" y="290" fill="#9f21a0" /><rect width="20" height="10" x="90" y="300" fill="#9f21a0" /><rect width="110" height="10" x="120" y="300" fill="#9f21a0" /><rect width="20" height="10" x="90" y="310" fill="#9f21a0" /><rect width="110" height="10" x="120" y="310" fill="#9f21a0" /><rect width="10" height="10" x="120" y="210" fill="#ffc110" /><rect width="10" height="10" x="190" y="210" fill="#ffc110" /><rect width="10" height="10" x="130" y="220" fill="#ffc110" /><rect width="10" height="10" x="180" y="220" fill="#ffc110" /><rect width="10" height="10" x="140" y="230" fill="#ffc110" /><rect width="10" height="10" x="170" y="230" fill="#ffc110" /><rect width="20" height="10" x="150" y="240" fill="#ffc110" /><rect width="60" height="10" x="130" y="250" fill="#fff671" /><rect width="40" height="10" x="130" y="260" fill="#ffc110" /><rect width="20" height="10" x="170" y="260" fill="#fff671" /><rect width="40" height="10" x="130" y="270" fill="#ffc110" /><rect width="20" height="10" x="170" y="270" fill="#fff671" /><rect width="40" height="10" x="140" y="70" fill="#9f21a0" /><rect width="90" height="10" x="50" y="80" fill="#da42cb" /><rect width="40" height="10" x="140" y="80" fill="#9f21a0" /><rect width="90" height="10" x="180" y="80" fill="#da42cb" /><rect width="80" height="10" x="50" y="90" fill="#da42cb" /><rect width="10" height="10" x="130" y="90" fill="#eab118" /><rect width="40" height="10" x="140" y="90" fill="#9f21a0" /><rect width="10" height="10" x="180" y="90" fill="#eab118" /><rect width="80" height="10" x="190" y="90" fill="#da42cb" /><rect width="80" height="10" x="50" y="100" fill="#da42cb" /><rect width="60" height="10" x="130" y="100" fill="#eab118" /><rect width="80" height="10" x="190" y="100" fill="#da42cb" /><rect width="80" height="10" x="50" y="110" fill="#9f21a0" /><rect width="10" height="10" x="130" y="110" fill="#eab118" /><rect width="40" height="10" x="140" y="110" fill="#d4a015" /><rect width="10" height="10" x="180" y="110" fill="#eab118" /><rect width="80" height="10" x="190" y="110" fill="#9f21a0" /><rect width="10" height="10" x="40" y="120" fill="#9f21a0" /><rect width="80" height="10" x="50" y="120" fill="#da42cb" /><rect width="10" height="10" x="130" y="120" fill="#eab118" /><rect width="40" height="10" x="140" y="120" fill="#9f21a0" /><rect width="10" height="10" x="180" y="120" fill="#eab118" /><rect width="80" height="10" x="190" y="120" fill="#da42cb" /><rect width="10" height="10" x="40" y="130" fill="#9f21a0" /><rect width="90" height="10" x="50" y="130" fill="#da42cb" /><rect width="40" height="10" x="140" y="130" fill="#9f21a0" /><rect width="90" height="10" x="180" y="130" fill="#da42cb" /><rect width="10" height="10" x="30" y="140" fill="#eab118" /><rect width="90" height="10" x="50" y="140" fill="#da42cb" /><rect width="40" height="10" x="140" y="140" fill="#9f21a0" /><rect width="90" height="10" x="180" y="140" fill="#da42cb" /><rect width="10" height="10" x="30" y="150" fill="#eab118" /><rect width="90" height="10" x="50" y="150" fill="#da42cb" /><rect width="40" height="10" x="140" y="150" fill="#9f21a0" /><rect width="90" height="10" x="180" y="150" fill="#da42cb" /><rect width="90" height="10" x="50" y="160" fill="#da42cb" /><rect width="40" height="10" x="140" y="160" fill="#9f21a0" /><rect width="90" height="10" x="180" y="160" fill="#da42cb" /><rect width="90" height="10" x="50" y="170" fill="#da42cb" /><rect width="40" height="10" x="140" y="170" fill="#9f21a0" /><rect width="90" height="10" x="180" y="170" fill="#da42cb" /><rect width="90" height="10" x="50" y="180" fill="#da42cb" /><rect width="10" height="10" x="140" y="180" fill="#ffffff" /><rect width="10" height="10" x="150" y="180" fill="#000000" /><rect width="10" height="10" x="160" y="180" fill="#ffffff" /><rect width="10" height="10" x="170" y="180" fill="#000000" /><rect width="10" height="10" x="180" y="180" fill="#ffffff" /><rect width="80" height="10" x="190" y="180" fill="#da42cb" /><rect width="90" height="10" x="50" y="190" fill="#da42cb" /><rect width="40" height="10" x="140" y="190" fill="#9f21a0" /><rect width="90" height="10" x="180" y="190" fill="#da42cb" /><rect width="90" height="10" x="50" y="200" fill="#da42cb" /><rect width="40" height="10" x="140" y="200" fill="#9f21a0" /><rect width="90" height="10" x="180" y="200" fill="#da42cb" /><rect width="60" height="10" x="100" y="110" fill="#068940" /><rect width="60" height="10" x="170" y="110" fill="#257ced" /><rect width="10" height="10" x="100" y="120" fill="#068940" /><rect width="20" height="10" x="110" y="120" fill="#ffffff" /><rect width="20" height="10" x="130" y="120" fill="#000000" /><rect width="10" height="10" x="150" y="120" fill="#068940" /><rect width="10" height="10" x="170" y="120" fill="#257ced" /><rect width="20" height="10" x="180" y="120" fill="#ffffff" /><rect width="20" height="10" x="200" y="120" fill="#000000" /><rect width="10" height="10" x="220" y="120" fill="#257ced" /><rect width="30" height="10" x="70" y="130" fill="#257ced" /><rect width="10" height="10" x="100" y="130" fill="#068940" /><rect width="20" height="10" x="110" y="130" fill="#ffffff" /><rect width="20" height="10" x="130" y="130" fill="#000000" /><rect width="10" height="10" x="150" y="130" fill="#068940" /><rect width="20" height="10" x="160" y="130" fill="#257ced" /><rect width="20" height="10" x="180" y="130" fill="#ffffff" /><rect width="20" height="10" x="200" y="130" fill="#000000" /><rect width="10" height="10" x="220" y="130" fill="#257ced" /><rect width="10" height="10" x="70" y="140" fill="#257ced" /><rect width="10" height="10" x="100" y="140" fill="#068940" /><rect width="20" height="10" x="110" y="140" fill="#ffffff" /><rect width="20" height="10" x="130" y="140" fill="#000000" /><rect width="10" height="10" x="150" y="140" fill="#068940" /><rect width="10" height="10" x="170" y="140" fill="#257ced" /><rect width="20" height="10" x="180" y="140" fill="#ffffff" /><rect width="20" height="10" x="200" y="140" fill="#000000" /><rect width="10" height="10" x="220" y="140" fill="#257ced" /><rect width="10" height="10" x="70" y="150" fill="#257ced" /><rect width="10" height="10" x="100" y="150" fill="#068940" /><rect width="20" height="10" x="110" y="150" fill="#ffffff" /><rect width="20" height="10" x="130" y="150" fill="#000000" /><rect width="10" height="10" x="150" y="150" fill="#068940" /><rect width="10" height="10" x="170" y="150" fill="#257ced" /><rect width="20" height="10" x="180" y="150" fill="#ffffff" /><rect width="20" height="10" x="200" y="150" fill="#000000" /><rect width="10" height="10" x="220" y="150" fill="#257ced" /><rect width="60" height="10" x="100" y="160" fill="#068940" /><rect width="60" height="10" x="170" y="160" fill="#257ced" /></svg>