<svg xmlns:xlink="http://www.w3.org/1999/xlink" width="320" height="320" viewBox="0 0 320 320" xmlns="http://www.w3.org/2000/svg" shape-rendering="crispEdges"><rect width="100%" height="100%" fill="#e1d7d5" /><rect width="140" height="10" x="90" y="210" fill="#e9265c" /><rect width="140" height="10" x="90" y="220" fill="#e9265c" /><rect width="140" height="10" x="90" y="230" fill="#e9265c" /><rect width="140" height="10" x="90" y="240" fill="#e9265c" /><rect width="20" height="10" x="90" y="250" fill="#e9265c" /><rect width="110" height="10" x="120" y="250" fill="#e9265c" /><rect width="20" height="10" x="90" y="260" fill="#e9265c" /><rect width="110" height="10" x="120" y="260" fill="#e9265c" /><rect width="20" height="10" x="90" y="270" fill="#e9265c" /><rect width="110" height="10" x="120" y="270" fill="#e9265c" /><rect width="20" height="10" x="90" y="280" fill="#e9265c" /><rect width="110" height="10" x="120" y="280" fill="#e9265c" /><rect width="20" height="10" x="90" y="290" fill="#e9265c" /><rect width="110" height="10" x="120" y="290" fill="#e9265c" /><rect width="20" height="10" x="90" y="300" fill="#e9265c" /><rect width="110" height="10" x="120" y="300" fill="#e9265c" /><rect width="20" height="10" x="90" y="310" fill="#e9265c" /><rect width="110" height="10" x="120" y="310" fill="#e9265c" /><rect width="20" height="10" x="120" y="240" fill="#000000" /><rect width="10" height="10" x="160" y="240" fill="#000000" /><rect width="10" height="10" x="190" y="240" fill="#000000" /><rect width="10" height="10" x="120" y="250" fill="#000000" /><rect width="20" height="10" x="140" y="250" fill="#000000" /><rect width="20" height="10" x="170" y="250" fill="#000000" /><rect width="10" height="10" x="200" y="250" fill="#000000" /><rect width="10" height="10" x="120" y="260" fill="#000000" /><rect width="50" height="10" x="140" y="260" fill="#000000" /><rect width="10" height="10" x="200" y="260" fill="#000000" /><rect width="20" height="10" x="120" y="270" fill="#000000" /><rect width="10" height="10" x="150" y="270" fill="#000000" /><rect width="10" height="10" x="170" y="270" fill="#000000" /><rect width="10" height="10" x="190" y="270" fill="#000000" /><rect width="60" height="10" x="110" y="30" fill="#eff2fa" /><rect width="10" height="10" x="190" y="30" fill="#eff2fa" /><rect width="30" height="10" x="90" y="40" fill="#eff2fa" /><rect width="10" height="10" x="160" y="40" fill="#eff2fa" /><rect width="20" height="10" x="200" y="40" fill="#eff2fa" /><rect width="10" height="10" x="230" y="40" fill="#eff2fa" /><rect width="10" height="10" x="80" y="50" fill="#eff2fa" /><rect width="30" height="10" x="110" y="50" fill="#eff2fa" /><rect width="30" height="10" x="170" y="50" fill="#eff2fa" /><rect width="20" height="10" x="90" y="60" fill="#eff2fa" /><rect width="10" height="10" x="120" y="60" fill="#eff2fa" /><rect width="220" height="10" x="50" y="80" fill="#ffffff" /><rect width="10" height="10" x="50" y="90" fill="#ffffff" /><rect width="10" height="10" x="60" y="90" fill="#adc8cc" /><rect width="10" height="10" x="70" y="90" fill="#e5e5de" /><rect width="170" height="10" x="80" y="90" fill="#ffffff" /><rect width="10" height="10" x="250" y="90" fill="#e5e5de" /><rect width="10" height="10" x="260" y="90" fill="#ffffff" /><rect width="10" height="10" x="30" y="100" fill="#ffffff" /><rect width="10" height="10" x="40" y="100" fill="#e5e5de" /><rect width="10" height="10" x="50" y="100" fill="#ffffff" /><rect width="10" height="10" x="60" y="100" fill="#adc8cc" /><rect width="10" height="10" x="70" y="100" fill="#e5e5de" /><rect width="170" height="10" x="80" y="100" fill="#ffffff" /><rect width="10" height="10" x="250" y="100" fill="#e5e5de" /><rect width="10" height="10" x="260" y="100" fill="#ffffff" /><rect width="20" height="10" x="20" y="110" fill="#ffffff" /><rect width="10" height="10" x="50" y="110" fill="#ffffff" /><rect width="10" height="10" x="60" y="110" fill="#adc8cc" /><rect width="20" height="10" x="70" y="110" fill="#e5e5de" /><rect width="160" height="10" x="90" y="110" fill="#ffffff" /><rect width="10" height="10" x="250" y="110" fill="#e5e5de" /><rect width="10" height="10" x="260" y="110" fill="#ffffff" /><rect width="10" height="10" x="20" y="120" fill="#ffffff" /><rect width="10" height="10" x="50" y="120" fill="#ffffff" /><rect width="10" height="10" x="60" y="120" fill="#adc8cc" /><rect width="20" height="10" x="70" y="120" fill="#e5e5de" /><rect width="160" height="10" x="90" y="120" fill="#ffffff" /><rect width="10" height="10" x="250" y="120" fill="#e5e5de" /><rect width="10" height="10" x="260" y="120" fill="#ffffff" /><rect width="10" height="10" x="20" y="130" fill="#ffffff" /><rect width="10" height="10" x="50" y="130" fill="#ffffff" /><rect width="10" height="10" x="60" y="130" fill="#adc8cc" /><rect width="20" height="10" x="70" y="130" fill="#e5e5de" /><rect width="160" height="10" x="90" y="130" fill="#ffffff" /><rect width="10" height="10" x="250" y="130" fill="#e5e5de" /><rect width="10" height="10" x="260" y="130" fill="#ffffff" /><rect width="20" height="10" x="20" y="140" fill="#ffffff" /><rect width="10" height="10" x="50" y="140" fill="#ffffff" /><rect width="10" height="10" x="60" y="140" fill="#adc8cc" /><rect width="20" height="10" x="70" y="140" fill="#e5e5de" /><rect width="160" height="10" x="90" y="140" fill="#ffffff" /><rect width="10" height="10" x="250" y="140" fill="#e5e5de" /><rect width="10" height="10" x="260" y="140" fill="#ffffff" /><rect width="10" height="10" x="30" y="150" fill="#ffffff" /><rect width="10" height="10" x="40" y="150" fill="#e5e5de" /><rect width="10" height="10" x="50" y="150" fill="#ffffff" /><rect width="10" height="10" x="60" y="150" fill="#adc8cc" /><rect width="20" height="10" x="70" y="150" fill="#e5e5de" /><rect width="180" height="10" x="90" y="150" fill="#ffffff" /><rect width="10" height="10" x="40" y="160" fill="#ffffff" /><rect width="10" height="10" x="50" y="160" fill="#e5e5de" /><rect width="10" height="10" x="60" y="160" fill="#ffffff" /><rect width="10" height="10" x="70" y="160" fill="#adc8cc" /><rect width="10" height="10" x="80" y="160" fill="#e5e5de" /><rect width="170" height="10" x="90" y="160" fill="#ffffff" /><rect width="10" height="10" x="60" y="170" fill="#ffffff" /><rect width="10" height="10" x="70" y="170" fill="#adc8cc" /><rect width="10" height="10" x="80" y="170" fill="#e5e5de" /><rect width="170" height="10" x="90" y="170" fill="#ffffff" /><rect width="10" height="10" x="70" y="180" fill="#ffffff" /><rect width="10" height="10" x="80" y="180" fill="#adc8cc" /><rect width="10" height="10" x="90" y="180" fill="#e5e5de" /><rect width="40" height="10" x="100" y="180" fill="#ffffff" /><rect width="40" height="10" x="140" y="180" fill="#e8705b" /><rect width="40" height="10" x="180" y="180" fill="#ffffff" /><rect width="10" height="10" x="220" y="180" fill="#e5e5de" /><rect width="20" height="10" x="230" y="180" fill="#ffffff" /><rect width="10" height="10" x="80" y="190" fill="#ffffff" /><rect width="10" height="10" x="90" y="190" fill="#adc8cc" /><rect width="10" height="10" x="100" y="190" fill="#e5e5de" /><rect width="40" height="10" x="110" y="190" fill="#ffffff" /><rect width="20" height="10" x="150" y="190" fill="#e8705b" /><rect width="40" height="10" x="170" y="190" fill="#ffffff" /><rect width="10" height="10" x="210" y="190" fill="#e5e5de" /><rect width="20" height="10" x="220" y="190" fill="#ffffff" /><rect width="10" height="10" x="90" y="200" fill="#ffffff" /><rect width="10" height="10" x="100" y="200" fill="#adc8cc" /><rect width="20" height="10" x="110" y="200" fill="#e5e5de" /><rect width="60" height="10" x="130" y="200" fill="#ffffff" /><rect width="20" height="10" x="190" y="200" fill="#e5e5de" /><rect width="20" height="10" x="210" y="200" fill="#ffffff" /><rect width="60" height="10" x="100" y="110" fill="#068940" /><rect width="60" height="10" x="170" y="110" fill="#257ced" /><rect width="10" height="10" x="100" y="120" fill="#068940" /><rect width="20" height="10" x="110" y="120" fill="#ffffff" /><rect width="20" height="10" x="130" y="120" fill="#000000" /><rect width="10" height="10" x="150" y="120" fill="#068940" /><rect width="10" height="10" x="170" y="120" fill="#257ced" /><rect width="20" height="10" x="180" y="120" fill="#ffffff" /><rect width="20" height="10" x="200" y="120" fill="#000000" /><rect width="10" height="10" x="220" y="120" fill="#257ced" /><rect width="30" height="10" x="70" y="130" fill="#257ced" /><rect width="10" height="10" x="100" y="130" fill="#068940" /><rect width="20" height="10" x="110" y="130" fill="#ffffff" /><rect width="20" height="10" x="130" y="130" fill="#000000" /><rect width="10" height="10" x="150" y="130" fill="#068940" /><rect width="20" height="10" x="160" y="130" fill="#257ced" /><rect width="20" height="10" x="180" y="130" fill="#ffffff" /><rect width="20" height="10" x="200" y="130" fill="#000000" /><rect width="10" height="10" x="220" y="130" fill="#257ced" /><rect width="10" height="10" x="70" y="140" fill="#257ced" /><rect width="10" height="10" x="100" y="140" fill="#068940" /><rect width="20" height="10" x="110" y="140" fill="#ffffff" /><rect width="20" height="10" x="130" y="140" fill="#000000" /><rect width="10" height="10" x="150" y="140" fill="#068940" /><rect width="10" height="10" x="170" y="140" fill="#257ced" /><rect width="20" height="10" x="180" y="140" fill="#ffffff" /><rect width="20" height="10" x="200" y="140" fill="#000000" /><rect width="10" height="10" x="220" y="140" fill="#257ced" /><rect width="10" height="10" x="70" y="150" fill="#257ced" /><rect width="10" height="10" x="100" y="150" fill="#068940" /><rect width="20" height="10" x="110" y="150" fill="#ffffff" /><rect width="20" height="10" x="130" y="150" fill="#000000" /><rect width="10" height="10" x="150" y="150" fill="#068940" /><rect width="10" height="10" x="170" y="150" fill="#257ced" /><rect width="20" height="10" x="180" y="150" fill="#ffffff" /><rect width="20" height="10" x="200" y="150" fill="#000000" /><rect width="10" height="10" x="220" y="150" fill="#257ced" /><rect width="60" height="10" x="100" y="160" fill="#068940" /><rect width="60" height="10" x="170" y="160" fill="#257ced" /></svg>