<svg xmlns:xlink="http://www.w3.org/1999/xlink" width="320" height="320" viewBox="0 0 320 320" xmlns="http://www.w3.org/2000/svg" shape-rendering="crispEdges"><rect width="100%" height="100%" fill="#d5d7e1" /><rect width="140" height="10" x="90" y="210" fill="#34ac80" /><rect width="140" height="10" x="90" y="220" fill="#34ac80" /><rect width="140" height="10" x="90" y="230" fill="#34ac80" /><rect width="140" height="10" x="90" y="240" fill="#34ac80" /><rect width="20" height="10" x="90" y="250" fill="#34ac80" /><rect width="110" height="10" x="120" y="250" fill="#34ac80" /><rect width="20" height="10" x="90" y="260" fill="#34ac80" /><rect width="110" height="10" x="120" y="260" fill="#34ac80" /><rect width="20" height="10" x="90" y="270" fill="#34ac80" /><rect width="110" height="10" x="120" y="270" fill="#34ac80" /><rect width="20" height="10" x="90" y="280" fill="#34ac80" /><rect width="110" height="10" x="120" y="280" fill="#34ac80" /><rect width="20" height="10" x="90" y="290" fill="#34ac80" /><rect width="110" height="10" x="120" y="290" fill="#34ac80" /><rect width="20" height="10" x="90" y="300" fill="#34ac80" /><rect width="110" height="10" x="120" y="300" fill="#34ac80" /><rect width="20" height="10" x="90" y="310" fill="#34ac80" /><rect width="110" height="10" x="120" y="310" fill="#34ac80" /><rect width="140" height="10" x="90" y="210" fill="#ff3a0e" /><rect width="140" height="10" x="90" y="220" fill="#ff3a0e" /><rect width="140" height="10" x="90" y="230" fill="#d32a09" /><rect width="140" height="10" x="90" y="240" fill="#d32a09" /><rect width="20" height="10" x="90" y="250" fill="#ae3208" /><rect width="110" height="10" x="120" y="250" fill="#ae3208" /><rect width="20" height="10" x="90" y="260" fill="#ae3208" /><rect width="110" height="10" x="120" y="260" fill="#ae3208" /><rect width="20" height="10" x="90" y="270" fill="#903707" /><rect width="110" height="10" x="120" y="270" fill="#903707" /><rect width="20" height="10" x="90" y="280" fill="#903707" /><rect width="110" height="10" x="120" y="280" fill="#903707" /><rect width="20" height="10" x="90" y="290" fill="#6e3206" /><rect width="110" height="10" x="120" y="290" fill="#6e3206" /><rect width="20" height="10" x="90" y="300" fill="#6e3206" /><rect width="110" height="10" x="120" y="300" fill="#6e3206" /><rect width="20" height="10" x="90" y="310" fill="#552e05" /><rect width="110" height="10" x="120" y="310" fill="#552e05" /><rect width="40" height="10" x="100" y="60" fill="#6b3f39" /><rect width="10" height="10" x="140" y="60" fill="#ffae1a" /><rect width="50" height="10" x="150" y="60" fill="#6b3f39" /><rect width="10" height="10" x="200" y="60" fill="#ffae1a" /><rect width="40" height="10" x="210" y="60" fill="#6b3f39" /><rect width="10" height="10" x="90" y="70" fill="#ffae1a" /><rect width="40" height="10" x="100" y="70" fill="#6b3f39" /><rect width="10" height="10" x="140" y="70" fill="#ffae1a" /><rect width="50" height="10" x="150" y="70" fill="#6b3f39" /><rect width="10" height="10" x="200" y="70" fill="#ffae1a" /><rect width="40" height="10" x="210" y="70" fill="#6b3f39" /><rect width="10" height="10" x="250" y="70" fill="#ffae1a" /><rect width="10" height="10" x="90" y="80" fill="#ffae1a" /><rect width="40" height="10" x="100" y="80" fill="#6b3f39" /><rect width="10" height="10" x="140" y="80" fill="#ffae1a" /><rect width="50" height="10" x="150" y="80" fill="#6b3f39" /><rect width="10" height="10" x="200" y="80" fill="#ffae1a" /><rect width="40" height="10" x="210" y="80" fill="#6b3f39" /><rect width="10" height="10" x="250" y="80" fill="#ffae1a" /><rect width="10" height="10" x="90" y="90" fill="#ffae1a" /><rect width="40" height="10" x="100" y="90" fill="#4d271b" /><rect width="10" height="10" x="140" y="90" fill="#ffae1a" /><rect width="30" height="10" x="150" y="90" fill="#4d271b" /><rect width="10" height="10" x="180" y="90" fill="#6b3f39" /><rect width="10" height="10" x="190" y="90" fill="#4d271b" /><rect width="10" height="10" x="200" y="90" fill="#ffae1a" /><rect width="10" height="10" x="210" y="90" fill="#6b3f39" /><rect width="10" height="10" x="220" y="90" fill="#4d271b" /><rect width="10" height="10" x="230" y="90" fill="#6b3f39" /><rect width="10" height="10" x="240" y="90" fill="#4d271b" /><rect width="10" height="10" x="250" y="90" fill="#ffae1a" /><rect width="10" height="10" x="90" y="100" fill="#ffae1a" /><rect width="40" height="10" x="100" y="100" fill="#6b3f39" /><rect width="10" height="10" x="140" y="100" fill="#ffae1a" /><rect width="50" height="10" x="150" y="100" fill="#6b3f39" /><rect width="10" height="10" x="200" y="100" fill="#ffae1a" /><rect width="40" height="10" x="210" y="100" fill="#6b3f39" /><rect width="10" height="10" x="250" y="100" fill="#ffae1a" /><rect width="10" height="10" x="90" y="110" fill="#ffae1a" /><rect width="40" height="10" x="100" y="110" fill="#6b3f39" /><rect width="10" height="10" x="140" y="110" fill="#ffae1a" /><rect width="50" height="10" x="150" y="110" fill="#6b3f39" /><rect width="10" height="10" x="200" y="110" fill="#ffae1a" /><rect width="40" height="10" x="210" y="110" fill="#6b3f39" /><rect width="10" height="10" x="250" y="110" fill="#ffae1a" /><rect width="10" height="10" x="90" y="120" fill="#ffae1a" /><rect width="40" height="10" x="100" y="120" fill="#6b3f39" /><rect width="10" height="10" x="140" y="120" fill="#ffae1a" /><rect width="50" height="10" x="150" y="120" fill="#6b3f39" /><rect width="10" height="10" x="200" y="120" fill="#ffae1a" /><rect width="40" height="10" x="210" y="120" fill="#6b3f39" /><rect width="10" height="10" x="250" y="120" fill="#ffae1a" /><rect width="170" height="10" x="90" y="130" fill="#ffae1a" /><rect width="170" height="10" x="90" y="140" fill="#000000" /><rect width="170" height="10" x="90" y="150" fill="#ffae1a" /><rect width="60" height="10" x="90" y="160" fill="#6b3f39" /><rect width="50" height="10" x="150" y="160" fill="#769ca9" /><rect width="60" height="10" x="200" y="160" fill="#6b3f39" /><rect width="20" height="10" x="90" y="170" fill="#6b3f39" /><rect width="10" height="10" x="110" y="170" fill="#ffae1a" /><rect width="30" height="10" x="120" y="170" fill="#6b3f39" /><rect width="10" height="10" x="150" y="170" fill="#769ca9" /><rect width="10" height="10" x="160" y="170" fill="#ffffff" /><rect width="10" height="10" x="170" y="170" fill="#000000" /><rect width="10" height="10" x="180" y="170" fill="#ffffff" /><rect width="10" height="10" x="190" y="170" fill="#769ca9" /><rect width="30" height="10" x="200" y="170" fill="#6b3f39" /><rect width="10" height="10" x="230" y="170" fill="#ffae1a" /><rect width="20" height="10" x="240" y="170" fill="#6b3f39" /><rect width="10" height="10" x="90" y="180" fill="#6b3f39" /><rect width="30" height="10" x="100" y="180" fill="#ffae1a" /><rect width="20" height="10" x="130" y="180" fill="#6b3f39" /><rect width="50" height="10" x="150" y="180" fill="#769ca9" /><rect width="20" height="10" x="200" y="180" fill="#6b3f39" /><rect width="30" height="10" x="220" y="180" fill="#ffae1a" /><rect width="10" height="10" x="250" y="180" fill="#6b3f39" /><rect width="20" height="10" x="90" y="190" fill="#6b3f39" /><rect width="10" height="10" x="110" y="190" fill="#ffae1a" /><rect width="110" height="10" x="120" y="190" fill="#6b3f39" /><rect width="10" height="10" x="230" y="190" fill="#ffae1a" /><rect width="20" height="10" x="240" y="190" fill="#6b3f39" /><rect width="170" height="10" x="90" y="200" fill="#6b3f39" /><rect width="170" height="10" x="90" y="210" fill="#6b3f39" /><rect width="60" height="10" x="100" y="110" fill="#ffc110" /><rect width="60" height="10" x="170" y="110" fill="#f98f30" /><rect width="10" height="10" x="100" y="120" fill="#ffc110" /><rect width="20" height="10" x="110" y="120" fill="#ffffff" /><rect width="20" height="10" x="130" y="120" fill="#000000" /><rect width="10" height="10" x="150" y="120" fill="#ffc110" /><rect width="10" height="10" x="170" y="120" fill="#f98f30" /><rect width="20" height="10" x="180" y="120" fill="#ffffff" /><rect width="20" height="10" x="200" y="120" fill="#000000" /><rect width="10" height="10" x="220" y="120" fill="#f98f30" /><rect width="30" height="10" x="70" y="130" fill="#f98f30" /><rect width="10" height="10" x="100" y="130" fill="#ffc110" /><rect width="20" height="10" x="110" y="130" fill="#ffffff" /><rect width="20" height="10" x="130" y="130" fill="#000000" /><rect width="10" height="10" x="150" y="130" fill="#ffc110" /><rect width="20" height="10" x="160" y="130" fill="#f98f30" /><rect width="20" height="10" x="180" y="130" fill="#ffffff" /><rect width="20" height="10" x="200" y="130" fill="#000000" /><rect width="10" height="10" x="220" y="130" fill="#f98f30" /><rect width="10" height="10" x="70" y="140" fill="#f98f30" /><rect width="10" height="10" x="100" y="140" fill="#ffc110" /><rect width="20" height="10" x="110" y="140" fill="#ffffff" /><rect width="20" height="10" x="130" y="140" fill="#000000" /><rect width="10" height="10" x="150" y="140" fill="#ffc110" /><rect width="10" height="10" x="170" y="140" fill="#f98f30" /><rect width="20" height="10" x="180" y="140" fill="#ffffff" /><rect width="20" height="10" x="200" y="140" fill="#000000" /><rect width="10" height="10" x="220" y="140" fill="#f98f30" /><rect width="10" height="10" x="70" y="150" fill="#f98f30" /><rect width="10" height="10" x="100" y="150" fill="#ffc110" /><rect width="20" height="10" x="110" y="150" fill="#ffffff" /><rect width="20" height="10" x="130" y="150" fill="#000000" /><rect width="10" height="10" x="150" y="150" fill="#ffc110" /><rect width="10" height="10" x="170" y="150" fill="#f98f30" /><rect width="20" height="10" x="180" y="150" fill="#ffffff" /><rect width="20" height="10" x="200" y="150" fill="#000000" /><rect width="10" height="10" x="220" y="150" fill="#f98f30" /><rect width="60" height="10" x="100" y="160" fill="#ffc110" /><rect width="60" height="10" x="170" y="160" fill="#f98f30" /></svg>