<svg xmlns:xlink="http://www.w3.org/1999/xlink" width="320" height="320" viewBox="0 0 320 320" xmlns="http://www.w3.org/2000/svg" shape-rendering="crispEdges"><rect width="100%" height="100%" fill="#e1d7d5" /><rect width="140" height="10" x="90" y="210" fill="#fd8b5b" /><rect width="140" height="10" x="90" y="220" fill="#fd8b5b" /><rect width="140" height="10" x="90" y="230" fill="#fd8b5b" /><rect width="140" height="10" x="90" y="240" fill="#fd8b5b" /><rect width="20" height="10" x="90" y="250" fill="#fd8b5b" /><rect width="110" height="10" x="120" y="250" fill="#fd8b5b" /><rect width="20" height="10" x="90" y="260" fill="#fd8b5b" /><rect width="110" height="10" x="120" y="260" fill="#fd8b5b" /><rect width="20" height="10" x="90" y="270" fill="#fd8b5b" /><rect width="110" height="10" x="120" y="270" fill="#fd8b5b" /><rect width="20" height="10" x="90" y="280" fill="#fd8b5b" /><rect width="110" height="10" x="120" y="280" fill="#fd8b5b" /><rect width="20" height="10" x="90" y="290" fill="#fd8b5b" /><rect width="110" height="10" x="120" y="290" fill="#fd8b5b" /><rect width="20" height="10" x="90" y="300" fill="#fd8b5b" /><rect width="110" height="10" x="120" y="300" fill="#fd8b5b" /><rect width="20" height="10" x="90" y="310" fill="#fd8b5b" /><rect width="110" height="10" x="120" y="310" fill="#fd8b5b" /><rect width="20" height="10" x="90" y="210" fill="#ffef16" /><rect width="10" height="10" x="130" y="210" fill="#ffef16" /><rect width="10" height="10" x="180" y="210" fill="#ffef16" /><rect width="10" height="10" x="220" y="210" fill="#ffef16" /><rect width="20" height="10" x="90" y="220" fill="#ffef16" /><rect width="40" height="10" x="140" y="220" fill="#ffef16" /><rect width="10" height="10" x="220" y="220" fill="#ffef16" /><rect width="30" height="10" x="90" y="230" fill="#ffef16" /><rect width="20" height="10" x="210" y="230" fill="#ffef16" /><rect width="30" height="10" x="90" y="240" fill="#ffef16" /><rect width="20" height="10" x="210" y="240" fill="#ffef16" /><rect width="20" height="10" x="90" y="250" fill="#ffef16" /><rect width="10" height="10" x="130" y="250" fill="#ffef16" /><rect width="10" height="10" x="150" y="250" fill="#ffef16" /><rect width="10" height="10" x="190" y="250" fill="#ffef16" /><rect width="20" height="10" x="210" y="250" fill="#ffef16" /><rect width="20" height="10" x="90" y="260" fill="#ffef16" /><rect width="10" height="10" x="140" y="260" fill="#ffef16" /><rect width="20" height="10" x="160" y="260" fill="#ffef16" /><rect width="10" height="10" x="190" y="260" fill="#ffef16" /><rect width="20" height="10" x="210" y="260" fill="#ffef16" /><rect width="20" height="10" x="90" y="270" fill="#ffef16" /><rect width="10" height="10" x="140" y="270" fill="#ffef16" /><rect width="20" height="10" x="160" y="270" fill="#ffef16" /><rect width="20" height="10" x="210" y="270" fill="#ffef16" /><rect width="20" height="10" x="90" y="280" fill="#ffef16" /><rect width="10" height="10" x="190" y="280" fill="#ffef16" /><rect width="20" height="10" x="210" y="280" fill="#ffef16" /><rect width="20" height="10" x="90" y="290" fill="#ffef16" /><rect width="20" height="10" x="210" y="290" fill="#ffef16" /><rect width="20" height="10" x="90" y="300" fill="#ffef16" /><rect width="20" height="10" x="210" y="300" fill="#ffef16" /><rect width="20" height="10" x="90" y="310" fill="#ffef16" /><rect width="20" height="10" x="210" y="310" fill="#ffef16" /><rect width="40" height="10" x="50" y="40" fill="#0b5027" /><rect width="40" height="10" x="100" y="40" fill="#d9391f" /><rect width="40" height="10" x="150" y="40" fill="#d9391f" /><rect width="10" height="10" x="200" y="40" fill="#eff2fa" /><rect width="10" height="10" x="220" y="40" fill="#fe500c" /><rect width="10" height="10" x="240" y="40" fill="#fe500c" /><rect width="40" height="10" x="50" y="50" fill="#0b5027" /><rect width="10" height="10" x="90" y="50" fill="#000000" /><rect width="40" height="10" x="100" y="50" fill="#d9391f" /><rect width="10" height="10" x="140" y="50" fill="#000000" /><rect width="40" height="10" x="150" y="50" fill="#d9391f" /><rect width="10" height="10" x="190" y="50" fill="#000000" /><rect width="10" height="10" x="200" y="50" fill="#eff2fa" /><rect width="10" height="10" x="210" y="50" fill="#000000" /><rect width="10" height="10" x="220" y="50" fill="#fe500c" /><rect width="10" height="10" x="230" y="50" fill="#000000" /><rect width="10" height="10" x="240" y="50" fill="#fe500c" /><rect width="10" height="10" x="250" y="50" fill="#000000" /><rect width="40" height="10" x="50" y="60" fill="#0b5027" /><rect width="10" height="10" x="90" y="60" fill="#000000" /><rect width="40" height="10" x="100" y="60" fill="#d9391f" /><rect width="10" height="10" x="140" y="60" fill="#000000" /><rect width="40" height="10" x="150" y="60" fill="#d9391f" /><rect width="10" height="10" x="190" y="60" fill="#000000" /><rect width="10" height="10" x="200" y="60" fill="#eff2fa" /><rect width="10" height="10" x="210" y="60" fill="#000000" /><rect width="10" height="10" x="220" y="60" fill="#fe500c" /><rect width="10" height="10" x="230" y="60" fill="#000000" /><rect width="10" height="10" x="240" y="60" fill="#fe500c" /><rect width="10" height="10" x="250" y="60" fill="#000000" /><rect width="40" height="10" x="50" y="70" fill="#0b5027" /><rect width="10" height="10" x="90" y="70" fill="#000000" /><rect width="40" height="10" x="100" y="70" fill="#d9391f" /><rect width="10" height="10" x="140" y="70" fill="#000000" /><rect width="40" height="10" x="150" y="70" fill="#d9391f" /><rect width="10" height="10" x="190" y="70" fill="#000000" /><rect width="10" height="10" x="200" y="70" fill="#eff2fa" /><rect width="10" height="10" x="210" y="70" fill="#000000" /><rect width="10" height="10" x="220" y="70" fill="#fe500c" /><rect width="10" height="10" x="230" y="70" fill="#000000" /><rect width="10" height="10" x="240" y="70" fill="#fe500c" /><rect width="10" height="10" x="250" y="70" fill="#000000" /><rect width="40" height="10" x="50" y="80" fill="#0b5027" /><rect width="10" height="10" x="90" y="80" fill="#000000" /><rect width="40" height="10" x="100" y="80" fill="#d9391f" /><rect width="10" height="10" x="140" y="80" fill="#000000" /><rect width="40" height="10" x="150" y="80" fill="#d9391f" /><rect width="10" height="10" x="190" y="80" fill="#000000" /><rect width="10" height="10" x="200" y="80" fill="#eff2fa" /><rect width="10" height="10" x="210" y="80" fill="#000000" /><rect width="10" height="10" x="220" y="80" fill="#fe500c" /><rect width="10" height="10" x="230" y="80" fill="#000000" /><rect width="10" height="10" x="240" y="80" fill="#fe500c" /><rect width="10" height="10" x="250" y="80" fill="#000000" /><rect width="200" height="10" x="60" y="90" fill="#000000" /><rect width="10" height="10" x="50" y="100" fill="#000000" /><rect width="10" height="10" x="60" y="100" fill="#d8dadf" /><rect width="10" height="10" x="70" y="100" fill="#000000" /><rect width="10" height="10" x="80" y="100" fill="#d8dadf" /><rect width="10" height="10" x="90" y="100" fill="#000000" /><rect width="10" height="10" x="100" y="100" fill="#eff2fa" /><rect width="10" height="10" x="110" y="100" fill="#000000" /><rect width="40" height="10" x="120" y="100" fill="#ffc925" /><rect width="10" height="10" x="160" y="100" fill="#000000" /><rect width="40" height="10" x="170" y="100" fill="#eff2fa" /><rect width="10" height="10" x="210" y="100" fill="#000000" /><rect width="40" height="10" x="220" y="100" fill="#ffc925" /><rect width="10" height="10" x="50" y="110" fill="#000000" /><rect width="10" height="10" x="60" y="110" fill="#d8dadf" /><rect width="10" height="10" x="70" y="110" fill="#000000" /><rect width="10" height="10" x="80" y="110" fill="#d8dadf" /><rect width="10" height="10" x="90" y="110" fill="#000000" /><rect width="10" height="10" x="100" y="110" fill="#eff2fa" /><rect width="10" height="10" x="110" y="110" fill="#000000" /><rect width="40" height="10" x="120" y="110" fill="#ffc925" /><rect width="10" height="10" x="160" y="110" fill="#000000" /><rect width="40" height="10" x="170" y="110" fill="#eff2fa" /><rect width="10" height="10" x="210" y="110" fill="#000000" /><rect width="40" height="10" x="220" y="110" fill="#ffc925" /><rect width="10" height="10" x="50" y="120" fill="#000000" /><rect width="10" height="10" x="60" y="120" fill="#d8dadf" /><rect width="10" height="10" x="70" y="120" fill="#000000" /><rect width="10" height="10" x="80" y="120" fill="#d8dadf" /><rect width="10" height="10" x="90" y="120" fill="#000000" /><rect width="10" height="10" x="100" y="120" fill="#eff2fa" /><rect width="10" height="10" x="110" y="120" fill="#000000" /><rect width="40" height="10" x="120" y="120" fill="#ffc925" /><rect width="10" height="10" x="160" y="120" fill="#000000" /><rect width="40" height="10" x="170" y="120" fill="#eff2fa" /><rect width="10" height="10" x="210" y="120" fill="#000000" /><rect width="40" height="10" x="220" y="120" fill="#ffc925" /><rect width="10" height="10" x="50" y="130" fill="#000000" /><rect width="10" height="10" x="60" y="130" fill="#d8dadf" /><rect width="10" height="10" x="70" y="130" fill="#000000" /><rect width="10" height="10" x="80" y="130" fill="#d8dadf" /><rect width="10" height="10" x="90" y="130" fill="#000000" /><rect width="10" height="10" x="100" y="130" fill="#eff2fa" /><rect width="10" height="10" x="110" y="130" fill="#000000" /><rect width="40" height="10" x="120" y="130" fill="#ffc925" /><rect width="10" height="10" x="160" y="130" fill="#000000" /><rect width="40" height="10" x="170" y="130" fill="#eff2fa" /><rect width="10" height="10" x="210" y="130" fill="#000000" /><rect width="40" height="10" x="220" y="130" fill="#ffc925" /><rect width="10" height="10" x="50" y="140" fill="#000000" /><rect width="10" height="10" x="60" y="140" fill="#d8dadf" /><rect width="10" height="10" x="70" y="140" fill="#000000" /><rect width="10" height="10" x="80" y="140" fill="#d8dadf" /><rect width="10" height="10" x="90" y="140" fill="#000000" /><rect width="10" height="10" x="100" y="140" fill="#eff2fa" /><rect width="10" height="10" x="110" y="140" fill="#000000" /><rect width="40" height="10" x="120" y="140" fill="#ffc925" /><rect width="10" height="10" x="160" y="140" fill="#000000" /><rect width="40" height="10" x="170" y="140" fill="#eff2fa" /><rect width="10" height="10" x="210" y="140" fill="#000000" /><rect width="40" height="10" x="220" y="140" fill="#ffc925" /><rect width="190" height="10" x="60" y="150" fill="#000000" /><rect width="10" height="10" x="50" y="160" fill="#000000" /><rect width="10" height="10" x="60" y="160" fill="#00499c" /><rect width="10" height="10" x="70" y="160" fill="#000000" /><rect width="10" height="10" x="80" y="160" fill="#00499c" /><rect width="10" height="10" x="90" y="160" fill="#000000" /><rect width="10" height="10" x="100" y="160" fill="#00499c" /><rect width="10" height="10" x="110" y="160" fill="#000000" /><rect width="40" height="10" x="120" y="160" fill="#5648ed" /><rect width="10" height="10" x="160" y="160" fill="#000000" /><rect width="40" height="10" x="170" y="160" fill="#e11833" /><rect width="10" height="10" x="210" y="160" fill="#000000" /><rect width="40" height="10" x="220" y="160" fill="#e11833" /><rect width="10" height="10" x="50" y="170" fill="#000000" /><rect width="10" height="10" x="60" y="170" fill="#00499c" /><rect width="10" height="10" x="70" y="170" fill="#000000" /><rect width="10" height="10" x="80" y="170" fill="#00499c" /><rect width="10" height="10" x="90" y="170" fill="#000000" /><rect width="10" height="10" x="100" y="170" fill="#00499c" /><rect width="10" height="10" x="110" y="170" fill="#000000" /><rect width="40" height="10" x="120" y="170" fill="#5648ed" /><rect width="10" height="10" x="160" y="170" fill="#000000" /><rect width="40" height="10" x="170" y="170" fill="#e11833" /><rect width="10" height="10" x="210" y="170" fill="#000000" /><rect width="40" height="10" x="220" y="170" fill="#e11833" /><rect width="10" height="10" x="50" y="180" fill="#000000" /><rect width="10" height="10" x="60" y="180" fill="#00499c" /><rect width="10" height="10" x="70" y="180" fill="#000000" /><rect width="10" height="10" x="80" y="180" fill="#00499c" /><rect width="10" height="10" x="90" y="180" fill="#000000" /><rect width="10" height="10" x="100" y="180" fill="#00499c" /><rect width="10" height="10" x="110" y="180" fill="#000000" /><rect width="10" height="10" x="120" y="180" fill="#5648ed" /><rect width="30" height="10" x="130" y="180" fill="#00499c" /><rect width="10" height="10" x="160" y="180" fill="#000000" /><rect width="40" height="10" x="170" y="180" fill="#e11833" /><rect width="10" height="10" x="210" y="180" fill="#000000" /><rect width="40" height="10" x="220" y="180" fill="#e11833" /><rect width="10" height="10" x="50" y="190" fill="#000000" /><rect width="10" height="10" x="60" y="190" fill="#00499c" /><rect width="10" height="10" x="70" y="190" fill="#000000" /><rect width="10" height="10" x="80" y="190" fill="#00499c" /><rect width="10" height="10" x="90" y="190" fill="#000000" /><rect width="10" height="10" x="100" y="190" fill="#00499c" /><rect width="10" height="10" x="110" y="190" fill="#000000" /><rect width="40" height="10" x="120" y="190" fill="#5648ed" /><rect width="10" height="10" x="160" y="190" fill="#000000" /><rect width="40" height="10" x="170" y="190" fill="#e11833" /><rect width="10" height="10" x="210" y="190" fill="#000000" /><rect width="40" height="10" x="220" y="190" fill="#e11833" /><rect width="10" height="10" x="50" y="200" fill="#000000" /><rect width="10" height="10" x="60" y="200" fill="#00499c" /><rect width="10" height="10" x="70" y="200" fill="#000000" /><rect width="10" height="10" x="80" y="200" fill="#00499c" /><rect width="10" height="10" x="90" y="200" fill="#000000" /><rect width="10" height="10" x="100" y="200" fill="#00499c" /><rect width="10" height="10" x="110" y="200" fill="#000000" /><rect width="40" height="10" x="120" y="200" fill="#5648ed" /><rect width="10" height="10" x="160" y="200" fill="#000000" /><rect width="40" height="10" x="170" y="200" fill="#e11833" /><rect width="10" height="10" x="210" y="200" fill="#000000" /><rect width="40" height="10" x="220" y="200" fill="#e11833" /><rect width="60" height="10" x="100" y="110" fill="#8dd122" /><rect width="60" height="10" x="170" y="110" fill="#8dd122" /><rect width="10" height="10" x="100" y="120" fill="#8dd122" /><rect width="20" height="10" x="110" y="120" fill="#ffffff" /><rect width="20" height="10" x="130" y="120" fill="#000000" /><rect width="10" height="10" x="150" y="120" fill="#8dd122" /><rect width="10" height="10" x="170" y="120" fill="#8dd122" /><rect width="20" height="10" x="180" y="120" fill="#ffffff" /><rect width="20" height="10" x="200" y="120" fill="#000000" /><rect width="10" height="10" x="220" y="120" fill="#8dd122" /><rect width="40" height="10" x="70" y="130" fill="#8dd122" /><rect width="20" height="10" x="110" y="130" fill="#ffffff" /><rect width="20" height="10" x="130" y="130" fill="#000000" /><rect width="30" height="10" x="150" y="130" fill="#8dd122" /><rect width="20" height="10" x="180" y="130" fill="#ffffff" /><rect width="20" height="10" x="200" y="130" fill="#000000" /><rect width="10" height="10" x="220" y="130" fill="#8dd122" /><rect width="10" height="10" x="70" y="140" fill="#8dd122" /><rect width="10" height="10" x="100" y="140" fill="#8dd122" /><rect width="20" height="10" x="110" y="140" fill="#ffffff" /><rect width="20" height="10" x="130" y="140" fill="#000000" /><rect width="10" height="10" x="150" y="140" fill="#8dd122" /><rect width="10" height="10" x="170" y="140" fill="#8dd122" /><rect width="20" height="10" x="180" y="140" fill="#ffffff" /><rect width="20" height="10" x="200" y="140" fill="#000000" /><rect width="10" height="10" x="220" y="140" fill="#8dd122" /><rect width="10" height="10" x="70" y="150" fill="#8dd122" /><rect width="10" height="10" x="100" y="150" fill="#8dd122" /><rect width="20" height="10" x="110" y="150" fill="#ffffff" /><rect width="20" height="10" x="130" y="150" fill="#000000" /><rect width="10" height="10" x="150" y="150" fill="#8dd122" /><rect width="10" height="10" x="170" y="150" fill="#8dd122" /><rect width="20" height="10" x="180" y="150" fill="#ffffff" /><rect width="20" height="10" x="200" y="150" fill="#000000" /><rect width="10" height="10" x="220" y="150" fill="#8dd122" /><rect width="60" height="10" x="100" y="160" fill="#8dd122" /><rect width="60" height="10" x="170" y="160" fill="#8dd122" /></svg>