<svg xmlns:xlink="http://www.w3.org/1999/xlink" width="320" height="320" viewBox="0 0 320 320" xmlns="http://www.w3.org/2000/svg" shape-rendering="crispEdges"><rect width="100%" height="100%" fill="#d5d7e1" /><rect width="140" height="10" x="90" y="210" fill="#c5b9a1" /><rect width="140" height="10" x="90" y="220" fill="#c5b9a1" /><rect width="140" height="10" x="90" y="230" fill="#c5b9a1" /><rect width="140" height="10" x="90" y="240" fill="#c5b9a1" /><rect width="20" height="10" x="90" y="250" fill="#c5b9a1" /><rect width="110" height="10" x="120" y="250" fill="#c5b9a1" /><rect width="20" height="10" x="90" y="260" fill="#c5b9a1" /><rect width="110" height="10" x="120" y="260" fill="#c5b9a1" /><rect width="20" height="10" x="90" y="270" fill="#c5b9a1" /><rect width="110" height="10" x="120" y="270" fill="#c5b9a1" /><rect width="20" height="10" x="90" y="280" fill="#c5b9a1" /><rect width="110" height="10" x="120" y="280" fill="#c5b9a1" /><rect width="20" height="10" x="90" y="290" fill="#c5b9a1" /><rect width="110" height="10" x="120" y="290" fill="#c5b9a1" /><rect width="20" height="10" x="90" y="300" fill="#c5b9a1" /><rect width="110" height="10" x="120" y="300" fill="#c5b9a1" /><rect width="20" height="10" x="90" y="310" fill="#c5b9a1" /><rect width="110" height="10" x="120" y="310" fill="#c5b9a1" /><rect width="40" height="10" x="160" y="240" fill="#0b5027" /><rect width="50" height="10" x="150" y="250" fill="#0b5027" /><rect width="50" height="10" x="150" y="260" fill="#0b5027" /><rect width="50" height="10" x="150" y="270" fill="#0b5027" /><rect width="40" height="10" x="150" y="280" fill="#0b5027" /><rect width="20" height="10" x="130" y="290" fill="#0b5027" /><rect width="120" height="10" x="140" y="40" fill="#d22209" /><rect width="130" height="10" x="130" y="50" fill="#d22209" /><rect width="30" height="10" x="120" y="60" fill="#d22209" /><rect width="110" height="10" x="150" y="60" fill="#fe500c" /><rect width="40" height="10" x="110" y="70" fill="#d22209" /><rect width="110" height="10" x="150" y="70" fill="#fe500c" /><rect width="20" height="10" x="100" y="80" fill="#d22209" /><rect width="30" height="10" x="120" y="80" fill="#fe500c" /><rect width="110" height="10" x="150" y="80" fill="#ffc925" /><rect width="30" height="10" x="90" y="90" fill="#d22209" /><rect width="30" height="10" x="120" y="90" fill="#fe500c" /><rect width="110" height="10" x="150" y="90" fill="#ffc925" /><rect width="10" height="10" x="80" y="100" fill="#d22209" /><rect width="30" height="10" x="90" y="100" fill="#fe500c" /><rect width="30" height="10" x="120" y="100" fill="#ffc925" /><rect width="110" height="10" x="150" y="100" fill="#068940" /><rect width="20" height="10" x="70" y="110" fill="#d22209" /><rect width="30" height="10" x="90" y="110" fill="#fe500c" /><rect width="30" height="10" x="120" y="110" fill="#ffc925" /><rect width="110" height="10" x="150" y="110" fill="#068940" /><rect width="30" height="10" x="60" y="120" fill="#d22209" /><rect width="30" height="10" x="90" y="120" fill="#fe500c" /><rect width="30" height="10" x="120" y="120" fill="#ffc925" /><rect width="30" height="10" x="150" y="120" fill="#068940" /><rect width="80" height="10" x="180" y="120" fill="#00499c" /><rect width="30" height="10" x="60" y="130" fill="#d22209" /><rect width="30" height="10" x="90" y="130" fill="#fe500c" /><rect width="30" height="10" x="120" y="130" fill="#ffc925" /><rect width="30" height="10" x="150" y="130" fill="#068940" /><rect width="80" height="10" x="180" y="130" fill="#00499c" /><rect width="30" height="10" x="60" y="140" fill="#d22209" /><rect width="30" height="10" x="90" y="140" fill="#fe500c" /><rect width="30" height="10" x="120" y="140" fill="#ffc925" /><rect width="30" height="10" x="150" y="140" fill="#068940" /><rect width="30" height="10" x="180" y="140" fill="#00499c" /><rect width="50" height="10" x="210" y="140" fill="#9f21a0" /><rect width="30" height="10" x="60" y="150" fill="#d22209" /><rect width="30" height="10" x="90" y="150" fill="#fe500c" /><rect width="30" height="10" x="120" y="150" fill="#ffc925" /><rect width="30" height="10" x="150" y="150" fill="#068940" /><rect width="30" height="10" x="180" y="150" fill="#00499c" /><rect width="50" height="10" x="210" y="150" fill="#9f21a0" /><rect width="30" height="10" x="60" y="160" fill="#d22209" /><rect width="30" height="10" x="90" y="160" fill="#fe500c" /><rect width="30" height="10" x="120" y="160" fill="#ffc925" /><rect width="30" height="10" x="150" y="160" fill="#068940" /><rect width="30" height="10" x="180" y="160" fill="#00499c" /><rect width="30" height="10" x="210" y="160" fill="#9f21a0" /><rect width="30" height="10" x="60" y="170" fill="#d22209" /><rect width="30" height="10" x="90" y="170" fill="#fe500c" /><rect width="30" height="10" x="120" y="170" fill="#ffc925" /><rect width="30" height="10" x="150" y="170" fill="#068940" /><rect width="30" height="10" x="180" y="170" fill="#00499c" /><rect width="30" height="10" x="210" y="170" fill="#9f21a0" /><rect width="30" height="10" x="60" y="180" fill="#d22209" /><rect width="30" height="10" x="90" y="180" fill="#fe500c" /><rect width="30" height="10" x="120" y="180" fill="#ffc925" /><rect width="30" height="10" x="150" y="180" fill="#068940" /><rect width="30" height="10" x="180" y="180" fill="#000000" /><rect width="30" height="10" x="210" y="180" fill="#9f21a0" /><rect width="30" height="10" x="60" y="190" fill="#d22209" /><rect width="30" height="10" x="90" y="190" fill="#fe500c" /><rect width="30" height="10" x="120" y="190" fill="#ffc925" /><rect width="30" height="10" x="150" y="190" fill="#068940" /><rect width="30" height="10" x="180" y="190" fill="#00499c" /><rect width="30" height="10" x="210" y="190" fill="#9f21a0" /><rect width="30" height="10" x="60" y="200" fill="#d22209" /><rect width="30" height="10" x="90" y="200" fill="#fe500c" /><rect width="30" height="10" x="120" y="200" fill="#ffc925" /><rect width="30" height="10" x="150" y="200" fill="#068940" /><rect width="30" height="10" x="180" y="200" fill="#00499c" /><rect width="30" height="10" x="210" y="200" fill="#9f21a0" /><rect width="60" height="10" x="100" y="110" fill="#4bea69" /><rect width="60" height="10" x="170" y="110" fill="#4bea69" /><rect width="10" height="10" x="100" y="120" fill="#4bea69" /><rect width="20" height="10" x="110" y="120" fill="#ffffff" /><rect width="20" height="10" x="130" y="120" fill="#000000" /><rect width="10" height="10" x="150" y="120" fill="#4bea69" /><rect width="10" height="10" x="170" y="120" fill="#4bea69" /><rect width="20" height="10" x="180" y="120" fill="#ffffff" /><rect width="20" height="10" x="200" y="120" fill="#000000" /><rect width="10" height="10" x="220" y="120" fill="#4bea69" /><rect width="40" height="10" x="70" y="130" fill="#4bea69" /><rect width="20" height="10" x="110" y="130" fill="#ffffff" /><rect width="20" height="10" x="130" y="130" fill="#000000" /><rect width="30" height="10" x="150" y="130" fill="#4bea69" /><rect width="20" height="10" x="180" y="130" fill="#ffffff" /><rect width="20" height="10" x="200" y="130" fill="#000000" /><rect width="10" height="10" x="220" y="130" fill="#4bea69" /><rect width="10" height="10" x="70" y="140" fill="#4bea69" /><rect width="10" height="10" x="100" y="140" fill="#4bea69" /><rect width="20" height="10" x="110" y="140" fill="#ffffff" /><rect width="20" height="10" x="130" y="140" fill="#000000" /><rect width="10" height="10" x="150" y="140" fill="#4bea69" /><rect width="10" height="10" x="170" y="140" fill="#4bea69" /><rect width="20" height="10" x="180" y="140" fill="#ffffff" /><rect width="20" height="10" x="200" y="140" fill="#000000" /><rect width="10" height="10" x="220" y="140" fill="#4bea69" /><rect width="10" height="10" x="70" y="150" fill="#4bea69" /><rect width="10" height="10" x="100" y="150" fill="#4bea69" /><rect width="20" height="10" x="110" y="150" fill="#ffffff" /><rect width="20" height="10" x="130" y="150" fill="#000000" /><rect width="10" height="10" x="150" y="150" fill="#4bea69" /><rect width="10" height="10" x="170" y="150" fill="#4bea69" /><rect width="20" height="10" x="180" y="150" fill="#ffffff" /><rect width="20" height="10" x="200" y="150" fill="#000000" /><rect width="10" height="10" x="220" y="150" fill="#4bea69" /><rect width="60" height="10" x="100" y="160" fill="#4bea69" /><rect width="60" height="10" x="170" y="160" fill="#4bea69" /></svg>