<svg xmlns:xlink="http://www.w3.org/1999/xlink" width="320" height="320" viewBox="0 0 320 320" xmlns="http://www.w3.org/2000/svg" shape-rendering="crispEdges"><rect width="100%" height="100%" fill="#e1d7d5" /><rect width="140" height="10" x="90" y="210" fill="#5a65fa" /><rect width="140" height="10" x="90" y="220" fill="#5a65fa" /><rect width="140" height="10" x="90" y="230" fill="#5a65fa" /><rect width="140" height="10" x="90" y="240" fill="#5a65fa" /><rect width="20" height="10" x="90" y="250" fill="#5a65fa" /><rect width="110" height="10" x="120" y="250" fill="#5a65fa" /><rect width="20" height="10" x="90" y="260" fill="#5a65fa" /><rect width="110" height="10" x="120" y="260" fill="#5a65fa" /><rect width="20" height="10" x="90" y="270" fill="#5a65fa" /><rect width="110" height="10" x="120" y="270" fill="#5a65fa" /><rect width="20" height="10" x="90" y="280" fill="#5a65fa" /><rect width="110" height="10" x="120" y="280" fill="#5a65fa" /><rect width="20" height="10" x="90" y="290" fill="#5a65fa" /><rect width="110" height="10" x="120" y="290" fill="#5a65fa" /><rect width="20" height="10" x="90" y="300" fill="#5a65fa" /><rect width="110" height="10" x="120" y="300" fill="#5a65fa" /><rect width="20" height="10" x="90" y="310" fill="#5a65fa" /><rect width="110" height="10" x="120" y="310" fill="#5a65fa" /><rect width="30" height="10" x="150" y="240" fill="#ffffff" /><rect width="50" height="10" x="140" y="250" fill="#ffffff" /><rect width="60" height="10" x="130" y="260" fill="#ffffff" /><rect width="180" height="10" x="70" y="50" fill="#8bc0c5" /><rect width="160" height="10" x="80" y="60" fill="#769ca9" /><rect width="200" height="10" x="60" y="70" fill="#8bc0c5" /><rect width="220" height="10" x="50" y="80" fill="#8bc0c5" /><rect width="190" height="10" x="50" y="90" fill="#8bc0c5" /><rect width="10" height="10" x="240" y="90" fill="#fff0ee" /><rect width="20" height="10" x="250" y="90" fill="#8bc0c5" /><rect width="10" height="10" x="50" y="100" fill="#8bc0c5" /><rect width="180" height="10" x="60" y="100" fill="#5648ed" /><rect width="10" height="10" x="240" y="100" fill="#fff0ee" /><rect width="10" height="10" x="250" y="100" fill="#5648ed" /><rect width="10" height="10" x="260" y="100" fill="#8bc0c5" /><rect width="10" height="10" x="50" y="110" fill="#8bc0c5" /><rect width="200" height="10" x="60" y="110" fill="#5648ed" /><rect width="10" height="10" x="260" y="110" fill="#8bc0c5" /><rect width="10" height="10" x="50" y="120" fill="#8bc0c5" /><rect width="180" height="10" x="60" y="120" fill="#5648ed" /><rect width="10" height="10" x="240" y="120" fill="#fff0ee" /><rect width="10" height="10" x="250" y="120" fill="#5648ed" /><rect width="10" height="10" x="260" y="120" fill="#8bc0c5" /><rect width="10" height="10" x="50" y="130" fill="#8bc0c5" /><rect width="200" height="10" x="60" y="130" fill="#5648ed" /><rect width="10" height="10" x="260" y="130" fill="#8bc0c5" /><rect width="10" height="10" x="50" y="140" fill="#8bc0c5" /><rect width="200" height="10" x="60" y="140" fill="#5648ed" /><rect width="10" height="10" x="260" y="140" fill="#8bc0c5" /><rect width="10" height="10" x="50" y="150" fill="#8bc0c5" /><rect width="200" height="10" x="60" y="150" fill="#5648ed" /><rect width="10" height="10" x="260" y="150" fill="#8bc0c5" /><rect width="20" height="10" x="50" y="160" fill="#8bc0c5" /><rect width="80" height="10" x="70" y="160" fill="#5648ed" /><rect width="30" height="10" x="150" y="160" fill="#ffae1a" /><rect width="70" height="10" x="180" y="160" fill="#5648ed" /><rect width="20" height="10" x="250" y="160" fill="#8bc0c5" /><rect width="10" height="10" x="60" y="170" fill="#8bc0c5" /><rect width="70" height="10" x="70" y="170" fill="#5648ed" /><rect width="10" height="10" x="140" y="170" fill="#fe500c" /><rect width="10" height="10" x="150" y="170" fill="#ffae1a" /><rect width="10" height="10" x="160" y="170" fill="#000000" /><rect width="20" height="10" x="170" y="170" fill="#ffae1a" /><rect width="60" height="10" x="190" y="170" fill="#5648ed" /><rect width="10" height="10" x="250" y="170" fill="#8bc0c5" /><rect width="20" height="10" x="60" y="180" fill="#8bc0c5" /><rect width="70" height="10" x="80" y="180" fill="#5648ed" /><rect width="30" height="10" x="150" y="180" fill="#ffae1a" /><rect width="60" height="10" x="180" y="180" fill="#5648ed" /><rect width="20" height="10" x="240" y="180" fill="#8bc0c5" /><rect width="30" height="10" x="70" y="190" fill="#8bc0c5" /><rect width="120" height="10" x="100" y="190" fill="#5648ed" /><rect width="30" height="10" x="220" y="190" fill="#8bc0c5" /><rect width="140" height="10" x="90" y="200" fill="#8bc0c5" /><rect width="60" height="10" x="100" y="110" fill="#f3322c" /><rect width="60" height="10" x="170" y="110" fill="#f3322c" /><rect width="10" height="10" x="100" y="120" fill="#f3322c" /><rect width="20" height="10" x="110" y="120" fill="#ffffff" /><rect width="20" height="10" x="130" y="120" fill="#000000" /><rect width="10" height="10" x="150" y="120" fill="#f3322c" /><rect width="10" height="10" x="170" y="120" fill="#f3322c" /><rect width="20" height="10" x="180" y="120" fill="#ffffff" /><rect width="20" height="10" x="200" y="120" fill="#000000" /><rect width="10" height="10" x="220" y="120" fill="#f3322c" /><rect width="40" height="10" x="70" y="130" fill="#f3322c" /><rect width="20" height="10" x="110" y="130" fill="#ffffff" /><rect width="20" height="10" x="130" y="130" fill="#000000" /><rect width="30" height="10" x="150" y="130" fill="#f3322c" /><rect width="20" height="10" x="180" y="130" fill="#ffffff" /><rect width="20" height="10" x="200" y="130" fill="#000000" /><rect width="10" height="10" x="220" y="130" fill="#f3322c" /><rect width="10" height="10" x="70" y="140" fill="#f3322c" /><rect width="10" height="10" x="100" y="140" fill="#f3322c" /><rect width="20" height="10" x="110" y="140" fill="#ffffff" /><rect width="20" height="10" x="130" y="140" fill="#000000" /><rect width="10" height="10" x="150" y="140" fill="#f3322c" /><rect width="10" height="10" x="170" y="140" fill="#f3322c" /><rect width="20" height="10" x="180" y="140" fill="#ffffff" /><rect width="20" height="10" x="200" y="140" fill="#000000" /><rect width="10" height="10" x="220" y="140" fill="#f3322c" /><rect width="10" height="10" x="70" y="150" fill="#f3322c" /><rect width="10" height="10" x="100" y="150" fill="#f3322c" /><rect width="20" height="10" x="110" y="150" fill="#ffffff" /><rect width="20" height="10" x="130" y="150" fill="#000000" /><rect width="10" height="10" x="150" y="150" fill="#f3322c" /><rect width="10" height="10" x="170" y="150" fill="#f3322c" /><rect width="20" height="10" x="180" y="150" fill="#ffffff" /><rect width="20" height="10" x="200" y="150" fill="#000000" /><rect width="10" height="10" x="220" y="150" fill="#f3322c" /><rect width="60" height="10" x="100" y="160" fill="#f3322c" /><rect width="60" height="10" x="170" y="160" fill="#f3322c" /></svg>