<svg xmlns:xlink="http://www.w3.org/1999/xlink" width="320" height="320" viewBox="0 0 320 320" xmlns="http://www.w3.org/2000/svg" shape-rendering="crispEdges"><rect width="100%" height="100%" fill="#e1d7d5" /><rect width="140" height="10" x="90" y="210" fill="#068940" /><rect width="140" height="10" x="90" y="220" fill="#068940" /><rect width="140" height="10" x="90" y="230" fill="#068940" /><rect width="140" height="10" x="90" y="240" fill="#068940" /><rect width="20" height="10" x="90" y="250" fill="#068940" /><rect width="110" height="10" x="120" y="250" fill="#068940" /><rect width="20" height="10" x="90" y="260" fill="#068940" /><rect width="110" height="10" x="120" y="260" fill="#068940" /><rect width="20" height="10" x="90" y="270" fill="#068940" /><rect width="110" height="10" x="120" y="270" fill="#068940" /><rect width="20" height="10" x="90" y="280" fill="#068940" /><rect width="110" height="10" x="120" y="280" fill="#068940" /><rect width="20" height="10" x="90" y="290" fill="#068940" /><rect width="110" height="10" x="120" y="290" fill="#068940" /><rect width="20" height="10" x="90" y="300" fill="#068940" /><rect width="110" height="10" x="120" y="300" fill="#068940" /><rect width="20" height="10" x="90" y="310" fill="#068940" /><rect width="110" height="10" x="120" y="310" fill="#068940" /><rect width="10" height="10" x="120" y="210" fill="#ffc110" /><rect width="10" height="10" x="190" y="210" fill="#ffc110" /><rect width="10" height="10" x="130" y="220" fill="#ffc110" /><rect width="10" height="10" x="180" y="220" fill="#ffc110" /><rect width="10" height="10" x="140" y="230" fill="#ffc110" /><rect width="10" height="10" x="170" y="230" fill="#ffc110" /><rect width="20" height="10" x="150" y="240" fill="#ffc110" /><rect width="60" height="10" x="130" y="250" fill="#fff671" /><rect width="40" height="10" x="130" y="260" fill="#ffc110" /><rect width="20" height="10" x="170" y="260" fill="#fff671" /><rect width="40" height="10" x="130" y="270" fill="#ffc110" /><rect width="20" height="10" x="170" y="270" fill="#fff671" /><rect width="130" height="10" x="90" y="40" fill="#e11833" /><rect width="100" height="10" x="70" y="50" fill="#e11833" /><rect width="40" height="10" x="170" y="50" fill="#f38b7c" /><rect width="20" height="10" x="210" y="50" fill="#e11833" /><rect width="180" height="10" x="60" y="60" fill="#e11833" /><rect width="190" height="10" x="50" y="70" fill="#e11833" /><rect width="190" height="10" x="50" y="80" fill="#e11833" /><rect width="190" height="10" x="50" y="90" fill="#e11833" /><rect width="20" height="10" x="50" y="100" fill="#e11833" /><rect width="10" height="10" x="70" y="100" fill="#b92b3c" /><rect width="10" height="10" x="80" y="100" fill="#e11833" /><rect width="60" height="10" x="90" y="100" fill="#5648ed" /><rect width="90" height="10" x="150" y="100" fill="#e11833" /><rect width="20" height="10" x="50" y="110" fill="#e11833" /><rect width="10" height="10" x="70" y="110" fill="#b92b3c" /><rect width="10" height="10" x="80" y="110" fill="#e11833" /><rect width="60" height="10" x="90" y="110" fill="#5648ed" /><rect width="90" height="10" x="150" y="110" fill="#e11833" /><rect width="20" height="10" x="50" y="120" fill="#e11833" /><rect width="10" height="10" x="70" y="120" fill="#b92b3c" /><rect width="10" height="10" x="80" y="120" fill="#e11833" /><rect width="60" height="10" x="90" y="120" fill="#5648ed" /><rect width="90" height="10" x="150" y="120" fill="#e11833" /><rect width="20" height="10" x="50" y="130" fill="#e11833" /><rect width="10" height="10" x="70" y="130" fill="#b92b3c" /><rect width="10" height="10" x="80" y="130" fill="#e11833" /><rect width="60" height="10" x="90" y="130" fill="#5648ed" /><rect width="90" height="10" x="150" y="130" fill="#e11833" /><rect width="20" height="10" x="50" y="140" fill="#e11833" /><rect width="10" height="10" x="70" y="140" fill="#b92b3c" /><rect width="10" height="10" x="80" y="140" fill="#e11833" /><rect width="60" height="10" x="90" y="140" fill="#5648ed" /><rect width="90" height="10" x="150" y="140" fill="#e11833" /><rect width="10" height="10" x="80" y="150" fill="#e11833" /><rect width="60" height="10" x="90" y="150" fill="#5648ed" /><rect width="90" height="10" x="150" y="150" fill="#e11833" /><rect width="150" height="10" x="80" y="160" fill="#e11833" /><rect width="30" height="10" x="90" y="170" fill="#e11833" /><rect width="110" height="10" x="120" y="170" fill="#ffc110" /><rect width="30" height="10" x="90" y="180" fill="#e11833" /><rect width="10" height="10" x="120" y="180" fill="#ffc110" /><rect width="50" height="10" x="130" y="180" fill="#ffffff" /><rect width="10" height="10" x="180" y="180" fill="#000000" /><rect width="10" height="10" x="190" y="180" fill="#ffffff" /><rect width="30" height="10" x="200" y="180" fill="#ffc110" /><rect width="30" height="10" x="90" y="190" fill="#e11833" /><rect width="110" height="10" x="120" y="190" fill="#ffc110" /><rect width="140" height="10" x="90" y="200" fill="#e11833" /><rect width="60" height="10" x="100" y="110" fill="#ff638d" /><rect width="60" height="10" x="170" y="110" fill="#cc0595" /><rect width="10" height="10" x="100" y="120" fill="#ff638d" /><rect width="20" height="10" x="110" y="120" fill="#ffffff" /><rect width="20" height="10" x="130" y="120" fill="#000000" /><rect width="10" height="10" x="150" y="120" fill="#ff638d" /><rect width="10" height="10" x="170" y="120" fill="#cc0595" /><rect width="20" height="10" x="180" y="120" fill="#ffffff" /><rect width="20" height="10" x="200" y="120" fill="#000000" /><rect width="10" height="10" x="220" y="120" fill="#cc0595" /><rect width="30" height="10" x="70" y="130" fill="#cc0595" /><rect width="10" height="10" x="100" y="130" fill="#ff638d" /><rect width="20" height="10" x="110" y="130" fill="#ffffff" /><rect width="20" height="10" x="130" y="130" fill="#000000" /><rect width="10" height="10" x="150" y="130" fill="#ff638d" /><rect width="20" height="10" x="160" y="130" fill="#cc0595" /><rect width="20" height="10" x="180" y="130" fill="#ffffff" /><rect width="20" height="10" x="200" y="130" fill="#000000" /><rect width="10" height="10" x="220" y="130" fill="#cc0595" /><rect width="10" height="10" x="70" y="140" fill="#cc0595" /><rect width="10" height="10" x="100" y="140" fill="#ff638d" /><rect width="20" height="10" x="110" y="140" fill="#ffffff" /><rect width="20" height="10" x="130" y="140" fill="#000000" /><rect width="10" height="10" x="150" y="140" fill="#ff638d" /><rect width="10" height="10" x="170" y="140" fill="#cc0595" /><rect width="20" height="10" x="180" y="140" fill="#ffffff" /><rect width="20" height="10" x="200" y="140" fill="#000000" /><rect width="10" height="10" x="220" y="140" fill="#cc0595" /><rect width="10" height="10" x="70" y="150" fill="#cc0595" /><rect width="10" height="10" x="100" y="150" fill="#ff638d" /><rect width="20" height="10" x="110" y="150" fill="#ffffff" /><rect width="20" height="10" x="130" y="150" fill="#000000" /><rect width="10" height="10" x="150" y="150" fill="#ff638d" /><rect width="10" height="10" x="170" y="150" fill="#cc0595" /><rect width="20" height="10" x="180" y="150" fill="#ffffff" /><rect width="20" height="10" x="200" y="150" fill="#000000" /><rect width="10" height="10" x="220" y="150" fill="#cc0595" /><rect width="60" height="10" x="100" y="160" fill="#ff638d" /><rect width="60" height="10" x="170" y="160" fill="#cc0595" /></svg>