<svg xmlns:xlink="http://www.w3.org/1999/xlink" width="320" height="320" viewBox="0 0 320 320" xmlns="http://www.w3.org/2000/svg" shape-rendering="crispEdges"><rect width="100%" height="100%" fill="#d5d7e1" /><rect width="140" height="10" x="90" y="210" fill="#5a65fa" /><rect width="140" height="10" x="90" y="220" fill="#5a65fa" /><rect width="140" height="10" x="90" y="230" fill="#5a65fa" /><rect width="140" height="10" x="90" y="240" fill="#5a65fa" /><rect width="20" height="10" x="90" y="250" fill="#5a65fa" /><rect width="110" height="10" x="120" y="250" fill="#5a65fa" /><rect width="20" height="10" x="90" y="260" fill="#5a65fa" /><rect width="110" height="10" x="120" y="260" fill="#5a65fa" /><rect width="20" height="10" x="90" y="270" fill="#5a65fa" /><rect width="110" height="10" x="120" y="270" fill="#5a65fa" /><rect width="20" height="10" x="90" y="280" fill="#5a65fa" /><rect width="110" height="10" x="120" y="280" fill="#5a65fa" /><rect width="20" height="10" x="90" y="290" fill="#5a65fa" /><rect width="110" height="10" x="120" y="290" fill="#5a65fa" /><rect width="20" height="10" x="90" y="300" fill="#5a65fa" /><rect width="110" height="10" x="120" y="300" fill="#5a65fa" /><rect width="20" height="10" x="90" y="310" fill="#5a65fa" /><rect width="110" height="10" x="120" y="310" fill="#5a65fa" /><rect width="10" height="10" x="90" y="240" fill="#ffc110" /><rect width="30" height="10" x="110" y="240" fill="#ffc110" /><rect width="30" height="10" x="150" y="240" fill="#ffc110" /><rect width="30" height="10" x="190" y="240" fill="#ffc110" /><rect width="10" height="10" x="100" y="250" fill="#ffc110" /><rect width="10" height="10" x="140" y="250" fill="#ffc110" /><rect width="10" height="10" x="180" y="250" fill="#ffc110" /><rect width="10" height="10" x="220" y="250" fill="#ffc110" /><rect width="20" height="10" x="90" y="260" fill="#ffc110" /><rect width="30" height="10" x="130" y="260" fill="#ffc110" /><rect width="30" height="10" x="170" y="260" fill="#ffc110" /><rect width="20" height="10" x="210" y="260" fill="#ffc110" /><rect width="10" height="10" x="100" y="270" fill="#ffc110" /><rect width="10" height="10" x="140" y="270" fill="#ffc110" /><rect width="10" height="10" x="180" y="270" fill="#ffc110" /><rect width="10" height="10" x="220" y="270" fill="#ffc110" /><rect width="10" height="10" x="90" y="280" fill="#ffc110" /><rect width="20" height="10" x="120" y="280" fill="#ffc110" /><rect width="30" height="10" x="150" y="280" fill="#ffc110" /><rect width="30" height="10" x="190" y="280" fill="#ffc110" /><rect width="50" height="10" x="160" y="40" fill="#fff0be" /><rect width="40" height="10" x="90" y="50" fill="#fff0be" /><rect width="20" height="10" x="140" y="50" fill="#fff0be" /><rect width="50" height="10" x="160" y="50" fill="#ffffff" /><rect width="20" height="10" x="210" y="50" fill="#fff0be" /><rect width="10" height="10" x="80" y="60" fill="#fff0be" /><rect width="40" height="10" x="90" y="60" fill="#ffffff" /><rect width="10" height="10" x="130" y="60" fill="#fff0be" /><rect width="30" height="10" x="140" y="60" fill="#ffffff" /><rect width="10" height="10" x="170" y="60" fill="#fff0be" /><rect width="50" height="10" x="180" y="60" fill="#ffffff" /><rect width="10" height="10" x="230" y="60" fill="#fff0be" /><rect width="10" height="10" x="70" y="70" fill="#fff0be" /><rect width="60" height="10" x="80" y="70" fill="#ffffff" /><rect width="30" height="10" x="140" y="70" fill="#fff0be" /><rect width="70" height="10" x="170" y="70" fill="#ffffff" /><rect width="10" height="10" x="240" y="70" fill="#fff0be" /><rect width="10" height="10" x="70" y="80" fill="#fff0be" /><rect width="160" height="10" x="80" y="80" fill="#ffffff" /><rect width="10" height="10" x="240" y="80" fill="#fff0be" /><rect width="10" height="10" x="60" y="90" fill="#fff0be" /><rect width="170" height="10" x="70" y="90" fill="#ffffff" /><rect width="10" height="10" x="240" y="90" fill="#fff0be" /><rect width="10" height="10" x="60" y="100" fill="#fff0be" /><rect width="170" height="10" x="70" y="100" fill="#ffffff" /><rect width="10" height="10" x="240" y="100" fill="#fff0be" /><rect width="10" height="10" x="60" y="110" fill="#fff0be" /><rect width="170" height="10" x="70" y="110" fill="#ffffff" /><rect width="10" height="10" x="240" y="110" fill="#fff0be" /><rect width="10" height="10" x="60" y="120" fill="#fff0be" /><rect width="170" height="10" x="70" y="120" fill="#ffffff" /><rect width="10" height="10" x="240" y="120" fill="#fff0be" /><rect width="10" height="10" x="60" y="130" fill="#fff0be" /><rect width="170" height="10" x="70" y="130" fill="#ffffff" /><rect width="10" height="10" x="240" y="130" fill="#fff0be" /><rect width="10" height="10" x="60" y="140" fill="#fff0be" /><rect width="170" height="10" x="70" y="140" fill="#ffffff" /><rect width="10" height="10" x="240" y="140" fill="#fff0be" /><rect width="10" height="10" x="70" y="150" fill="#fff0be" /><rect width="160" height="10" x="80" y="150" fill="#ffffff" /><rect width="10" height="10" x="240" y="150" fill="#fff0be" /><rect width="10" height="10" x="80" y="160" fill="#fff0be" /><rect width="140" height="10" x="90" y="160" fill="#ffffff" /><rect width="10" height="10" x="230" y="160" fill="#fff0be" /><rect width="10" height="10" x="80" y="170" fill="#fff0be" /><rect width="140" height="10" x="90" y="170" fill="#ffffff" /><rect width="10" height="10" x="230" y="170" fill="#fff0be" /><rect width="10" height="10" x="90" y="180" fill="#fff0be" /><rect width="20" height="10" x="100" y="180" fill="#ffffff" /><rect width="90" height="10" x="120" y="180" fill="#b2958d" /><rect width="20" height="10" x="210" y="180" fill="#ffffff" /><rect width="10" height="10" x="230" y="180" fill="#fff0be" /><rect width="10" height="10" x="90" y="190" fill="#fff0be" /><rect width="130" height="10" x="100" y="190" fill="#ffffff" /><rect width="10" height="10" x="230" y="190" fill="#fff0be" /><rect width="10" height="10" x="100" y="200" fill="#fff0be" /><rect width="40" height="10" x="110" y="200" fill="#ffffff" /><rect width="30" height="10" x="150" y="200" fill="#fff0be" /><rect width="40" height="10" x="180" y="200" fill="#ffffff" /><rect width="10" height="10" x="220" y="200" fill="#fff0be" /><rect width="10" height="10" x="100" y="210" fill="#fff0be" /><rect width="30" height="10" x="110" y="210" fill="#ffffff" /><rect width="10" height="10" x="140" y="210" fill="#fff0be" /><rect width="10" height="10" x="180" y="210" fill="#fff0be" /><rect width="30" height="10" x="190" y="210" fill="#ffffff" /><rect width="10" height="10" x="220" y="210" fill="#fff0be" /><rect width="10" height="10" x="110" y="220" fill="#fff0be" /><rect width="20" height="10" x="120" y="220" fill="#ffffff" /><rect width="10" height="10" x="140" y="220" fill="#fff0be" /><rect width="10" height="10" x="190" y="220" fill="#fff0be" /><rect width="20" height="10" x="200" y="220" fill="#ffffff" /><rect width="10" height="10" x="220" y="220" fill="#fff0be" /><rect width="20" height="10" x="120" y="230" fill="#fff0be" /><rect width="20" height="10" x="200" y="230" fill="#fff0be" /><rect width="60" height="10" x="100" y="110" fill="#b9185c" /><rect width="60" height="10" x="170" y="110" fill="#b9185c" /><rect width="10" height="10" x="100" y="120" fill="#b9185c" /><rect width="20" height="10" x="110" y="120" fill="#ffffff" /><rect width="20" height="10" x="130" y="120" fill="#000000" /><rect width="10" height="10" x="150" y="120" fill="#b9185c" /><rect width="10" height="10" x="170" y="120" fill="#b9185c" /><rect width="20" height="10" x="180" y="120" fill="#ffffff" /><rect width="20" height="10" x="200" y="120" fill="#000000" /><rect width="10" height="10" x="220" y="120" fill="#b9185c" /><rect width="40" height="10" x="70" y="130" fill="#b9185c" /><rect width="20" height="10" x="110" y="130" fill="#ffffff" /><rect width="20" height="10" x="130" y="130" fill="#000000" /><rect width="30" height="10" x="150" y="130" fill="#b9185c" /><rect width="20" height="10" x="180" y="130" fill="#ffffff" /><rect width="20" height="10" x="200" y="130" fill="#000000" /><rect width="10" height="10" x="220" y="130" fill="#b9185c" /><rect width="10" height="10" x="70" y="140" fill="#b9185c" /><rect width="10" height="10" x="100" y="140" fill="#b9185c" /><rect width="20" height="10" x="110" y="140" fill="#ffffff" /><rect width="20" height="10" x="130" y="140" fill="#000000" /><rect width="10" height="10" x="150" y="140" fill="#b9185c" /><rect width="10" height="10" x="170" y="140" fill="#b9185c" /><rect width="20" height="10" x="180" y="140" fill="#ffffff" /><rect width="20" height="10" x="200" y="140" fill="#000000" /><rect width="10" height="10" x="220" y="140" fill="#b9185c" /><rect width="10" height="10" x="70" y="150" fill="#b9185c" /><rect width="10" height="10" x="100" y="150" fill="#b9185c" /><rect width="20" height="10" x="110" y="150" fill="#ffffff" /><rect width="20" height="10" x="130" y="150" fill="#000000" /><rect width="10" height="10" x="150" y="150" fill="#b9185c" /><rect width="10" height="10" x="170" y="150" fill="#b9185c" /><rect width="20" height="10" x="180" y="150" fill="#ffffff" /><rect width="20" height="10" x="200" y="150" fill="#000000" /><rect width="10" height="10" x="220" y="150" fill="#b9185c" /><rect width="60" height="10" x="100" y="160" fill="#b9185c" /><rect width="60" height="10" x="170" y="160" fill="#b9185c" /></svg>