<svg xmlns:xlink="http://www.w3.org/1999/xlink" width="320" height="320" viewBox="0 0 320 320" xmlns="http://www.w3.org/2000/svg" shape-rendering="crispEdges"><rect width="100%" height="100%" fill="#d5d7e1" /><rect width="140" height="10" x="90" y="210" fill="#4b4949" /><rect width="140" height="10" x="90" y="220" fill="#4b4949" /><rect width="140" height="10" x="90" y="230" fill="#4b4949" /><rect width="140" height="10" x="90" y="240" fill="#4b4949" /><rect width="20" height="10" x="90" y="250" fill="#4b4949" /><rect width="110" height="10" x="120" y="250" fill="#4b4949" /><rect width="20" height="10" x="90" y="260" fill="#4b4949" /><rect width="110" height="10" x="120" y="260" fill="#4b4949" /><rect width="20" height="10" x="90" y="270" fill="#4b4949" /><rect width="110" height="10" x="120" y="270" fill="#4b4949" /><rect width="20" height="10" x="90" y="280" fill="#4b4949" /><rect width="110" height="10" x="120" y="280" fill="#4b4949" /><rect width="20" height="10" x="90" y="290" fill="#4b4949" /><rect width="110" height="10" x="120" y="290" fill="#4b4949" /><rect width="20" height="10" x="90" y="300" fill="#4b4949" /><rect width="110" height="10" x="120" y="300" fill="#4b4949" /><rect width="20" height="10" x="90" y="310" fill="#4b4949" /><rect width="110" height="10" x="120" y="310" fill="#4b4949" /><rect width="10" height="10" x="120" y="210" fill="#ffc110" /><rect width="10" height="10" x="190" y="210" fill="#ffc110" /><rect width="10" height="10" x="130" y="220" fill="#ffc110" /><rect width="10" height="10" x="180" y="220" fill="#ffc110" /><rect width="10" height="10" x="140" y="230" fill="#ffc110" /><rect width="10" height="10" x="170" y="230" fill="#ffc110" /><rect width="20" height="10" x="150" y="240" fill="#ffc110" /><rect width="60" height="10" x="130" y="250" fill="#fff671" /><rect width="40" height="10" x="130" y="260" fill="#ffc110" /><rect width="20" height="10" x="170" y="260" fill="#fff671" /><rect width="40" height="10" x="130" y="270" fill="#ffc110" /><rect width="20" height="10" x="170" y="270" fill="#fff671" /><rect width="40" height="10" x="120" y="50" fill="#9f4b27" /><rect width="40" height="10" x="170" y="50" fill="#9f4b27" /><rect width="50" height="10" x="100" y="60" fill="#9f4b27" /><rect width="10" height="10" x="150" y="60" fill="#903707" /><rect width="10" height="10" x="160" y="60" fill="#6e3206" /><rect width="10" height="10" x="170" y="60" fill="#903707" /><rect width="50" height="10" x="180" y="60" fill="#9f4b27" /><rect width="20" height="10" x="90" y="70" fill="#9f4b27" /><rect width="10" height="10" x="110" y="70" fill="#903707" /><rect width="30" height="10" x="120" y="70" fill="#9f4b27" /><rect width="10" height="10" x="150" y="70" fill="#903707" /><rect width="10" height="10" x="160" y="70" fill="#000000" /><rect width="10" height="10" x="170" y="70" fill="#903707" /><rect width="60" height="10" x="180" y="70" fill="#9f4b27" /><rect width="20" height="10" x="80" y="80" fill="#9f4b27" /><rect width="10" height="10" x="100" y="80" fill="#903707" /><rect width="40" height="10" x="110" y="80" fill="#9f4b27" /><rect width="10" height="10" x="150" y="80" fill="#903707" /><rect width="10" height="10" x="160" y="80" fill="#000000" /><rect width="10" height="10" x="170" y="80" fill="#903707" /><rect width="70" height="10" x="180" y="80" fill="#9f4b27" /><rect width="10" height="10" x="80" y="90" fill="#9f4b27" /><rect width="10" height="10" x="90" y="90" fill="#903707" /><rect width="50" height="10" x="100" y="90" fill="#9f4b27" /><rect width="10" height="10" x="150" y="90" fill="#903707" /><rect width="10" height="10" x="160" y="90" fill="#000000" /><rect width="10" height="10" x="170" y="90" fill="#903707" /><rect width="70" height="10" x="180" y="90" fill="#9f4b27" /><rect width="10" height="10" x="80" y="100" fill="#9f4b27" /><rect width="10" height="10" x="90" y="100" fill="#903707" /><rect width="50" height="10" x="100" y="100" fill="#9f4b27" /><rect width="10" height="10" x="150" y="100" fill="#903707" /><rect width="10" height="10" x="160" y="100" fill="#000000" /><rect width="10" height="10" x="170" y="100" fill="#903707" /><rect width="70" height="10" x="180" y="100" fill="#9f4b27" /><rect width="10" height="10" x="80" y="110" fill="#9f4b27" /><rect width="10" height="10" x="90" y="110" fill="#903707" /><rect width="50" height="10" x="100" y="110" fill="#9f4b27" /><rect width="10" height="10" x="150" y="110" fill="#903707" /><rect width="10" height="10" x="160" y="110" fill="#000000" /><rect width="10" height="10" x="170" y="110" fill="#903707" /><rect width="70" height="10" x="180" y="110" fill="#9f4b27" /><rect width="70" height="10" x="80" y="120" fill="#9f4b27" /><rect width="10" height="10" x="150" y="120" fill="#903707" /><rect width="10" height="10" x="160" y="120" fill="#000000" /><rect width="10" height="10" x="170" y="120" fill="#903707" /><rect width="70" height="10" x="180" y="120" fill="#9f4b27" /><rect width="70" height="10" x="80" y="130" fill="#9f4b27" /><rect width="10" height="10" x="150" y="130" fill="#903707" /><rect width="10" height="10" x="160" y="130" fill="#000000" /><rect width="10" height="10" x="170" y="130" fill="#903707" /><rect width="70" height="10" x="180" y="130" fill="#9f4b27" /><rect width="70" height="10" x="80" y="140" fill="#9f4b27" /><rect width="10" height="10" x="150" y="140" fill="#903707" /><rect width="10" height="10" x="160" y="140" fill="#000000" /><rect width="10" height="10" x="170" y="140" fill="#903707" /><rect width="70" height="10" x="180" y="140" fill="#9f4b27" /><rect width="70" height="10" x="80" y="150" fill="#9f4b27" /><rect width="10" height="10" x="150" y="150" fill="#903707" /><rect width="10" height="10" x="160" y="150" fill="#000000" /><rect width="10" height="10" x="170" y="150" fill="#903707" /><rect width="70" height="10" x="180" y="150" fill="#9f4b27" /><rect width="70" height="10" x="80" y="160" fill="#9f4b27" /><rect width="10" height="10" x="150" y="160" fill="#903707" /><rect width="10" height="10" x="160" y="160" fill="#000000" /><rect width="10" height="10" x="170" y="160" fill="#903707" /><rect width="70" height="10" x="180" y="160" fill="#9f4b27" /><rect width="70" height="10" x="80" y="170" fill="#9f4b27" /><rect width="10" height="10" x="150" y="170" fill="#903707" /><rect width="10" height="10" x="160" y="170" fill="#000000" /><rect width="10" height="10" x="170" y="170" fill="#903707" /><rect width="70" height="10" x="180" y="170" fill="#9f4b27" /><rect width="40" height="10" x="80" y="180" fill="#9f4b27" /><rect width="30" height="10" x="120" y="180" fill="#000000" /><rect width="10" height="10" x="150" y="180" fill="#903707" /><rect width="10" height="10" x="160" y="180" fill="#000000" /><rect width="10" height="10" x="170" y="180" fill="#903707" /><rect width="70" height="10" x="180" y="180" fill="#9f4b27" /><rect width="70" height="10" x="80" y="190" fill="#9f4b27" /><rect width="10" height="10" x="150" y="190" fill="#903707" /><rect width="10" height="10" x="160" y="190" fill="#000000" /><rect width="10" height="10" x="170" y="190" fill="#903707" /><rect width="70" height="10" x="180" y="190" fill="#9f4b27" /><rect width="60" height="10" x="90" y="200" fill="#9f4b27" /><rect width="10" height="10" x="150" y="200" fill="#903707" /><rect width="10" height="10" x="160" y="200" fill="#000000" /><rect width="10" height="10" x="170" y="200" fill="#903707" /><rect width="60" height="10" x="180" y="200" fill="#9f4b27" /><rect width="50" height="10" x="100" y="210" fill="#9f4b27" /><rect width="10" height="10" x="150" y="210" fill="#903707" /><rect width="10" height="10" x="160" y="210" fill="#6e3206" /><rect width="10" height="10" x="170" y="210" fill="#903707" /><rect width="50" height="10" x="180" y="210" fill="#9f4b27" /><rect width="40" height="10" x="120" y="220" fill="#9f4b27" /><rect width="40" height="10" x="170" y="220" fill="#9f4b27" /><rect width="60" height="10" x="100" y="110" fill="#b9185c" /><rect width="60" height="10" x="170" y="110" fill="#b9185c" /><rect width="10" height="10" x="100" y="120" fill="#b9185c" /><rect width="20" height="10" x="110" y="120" fill="#ffffff" /><rect width="20" height="10" x="130" y="120" fill="#000000" /><rect width="10" height="10" x="150" y="120" fill="#b9185c" /><rect width="10" height="10" x="170" y="120" fill="#b9185c" /><rect width="20" height="10" x="180" y="120" fill="#ffffff" /><rect width="20" height="10" x="200" y="120" fill="#000000" /><rect width="10" height="10" x="220" y="120" fill="#b9185c" /><rect width="40" height="10" x="70" y="130" fill="#b9185c" /><rect width="20" height="10" x="110" y="130" fill="#ffffff" /><rect width="20" height="10" x="130" y="130" fill="#000000" /><rect width="30" height="10" x="150" y="130" fill="#b9185c" /><rect width="20" height="10" x="180" y="130" fill="#ffffff" /><rect width="20" height="10" x="200" y="130" fill="#000000" /><rect width="10" height="10" x="220" y="130" fill="#b9185c" /><rect width="10" height="10" x="70" y="140" fill="#b9185c" /><rect width="10" height="10" x="100" y="140" fill="#b9185c" /><rect width="20" height="10" x="110" y="140" fill="#ffffff" /><rect width="20" height="10" x="130" y="140" fill="#000000" /><rect width="10" height="10" x="150" y="140" fill="#b9185c" /><rect width="10" height="10" x="170" y="140" fill="#b9185c" /><rect width="20" height="10" x="180" y="140" fill="#ffffff" /><rect width="20" height="10" x="200" y="140" fill="#000000" /><rect width="10" height="10" x="220" y="140" fill="#b9185c" /><rect width="10" height="10" x="70" y="150" fill="#b9185c" /><rect width="10" height="10" x="100" y="150" fill="#b9185c" /><rect width="20" height="10" x="110" y="150" fill="#ffffff" /><rect width="20" height="10" x="130" y="150" fill="#000000" /><rect width="10" height="10" x="150" y="150" fill="#b9185c" /><rect width="10" height="10" x="170" y="150" fill="#b9185c" /><rect width="20" height="10" x="180" y="150" fill="#ffffff" /><rect width="20" height="10" x="200" y="150" fill="#000000" /><rect width="10" height="10" x="220" y="150" fill="#b9185c" /><rect width="60" height="10" x="100" y="160" fill="#b9185c" /><rect width="60" height="10" x="170" y="160" fill="#b9185c" /></svg>