<svg xmlns:xlink="http://www.w3.org/1999/xlink" width="320" height="320" viewBox="0 0 320 320" xmlns="http://www.w3.org/2000/svg" shape-rendering="crispEdges"><rect width="100%" height="100%" fill="#e1d7d5" /><rect width="140" height="10" x="90" y="210" fill="#cfc2ab" /><rect width="140" height="10" x="90" y="220" fill="#cfc2ab" /><rect width="140" height="10" x="90" y="230" fill="#cfc2ab" /><rect width="140" height="10" x="90" y="240" fill="#cfc2ab" /><rect width="20" height="10" x="90" y="250" fill="#cfc2ab" /><rect width="110" height="10" x="120" y="250" fill="#cfc2ab" /><rect width="20" height="10" x="90" y="260" fill="#cfc2ab" /><rect width="110" height="10" x="120" y="260" fill="#cfc2ab" /><rect width="20" height="10" x="90" y="270" fill="#cfc2ab" /><rect width="110" height="10" x="120" y="270" fill="#cfc2ab" /><rect width="20" height="10" x="90" y="280" fill="#cfc2ab" /><rect width="110" height="10" x="120" y="280" fill="#cfc2ab" /><rect width="20" height="10" x="90" y="290" fill="#cfc2ab" /><rect width="110" height="10" x="120" y="290" fill="#cfc2ab" /><rect width="20" height="10" x="90" y="300" fill="#cfc2ab" /><rect width="110" height="10" x="120" y="300" fill="#cfc2ab" /><rect width="20" height="10" x="90" y="310" fill="#cfc2ab" /><rect width="110" height="10" x="120" y="310" fill="#cfc2ab" /><rect width="140" height="10" x="90" y="210" fill="#667af9" /><rect width="10" height="10" x="90" y="220" fill="#667af9" /><rect width="10" height="10" x="100" y="220" fill="#648df9" /><rect width="10" height="10" x="110" y="220" fill="#667af9" /><rect width="10" height="10" x="120" y="220" fill="#648df9" /><rect width="10" height="10" x="130" y="220" fill="#667af9" /><rect width="10" height="10" x="140" y="220" fill="#648df9" /><rect width="10" height="10" x="150" y="220" fill="#667af9" /><rect width="10" height="10" x="160" y="220" fill="#648df9" /><rect width="10" height="10" x="170" y="220" fill="#667af9" /><rect width="10" height="10" x="180" y="220" fill="#648df9" /><rect width="10" height="10" x="190" y="220" fill="#667af9" /><rect width="10" height="10" x="200" y="220" fill="#648df9" /><rect width="10" height="10" x="210" y="220" fill="#667af9" /><rect width="10" height="10" x="220" y="220" fill="#648df9" /><rect width="140" height="10" x="90" y="230" fill="#648df9" /><rect width="10" height="10" x="90" y="240" fill="#648df9" /><rect width="10" height="10" x="100" y="240" fill="#63a0f9" /><rect width="10" height="10" x="110" y="240" fill="#648df9" /><rect width="10" height="10" x="120" y="240" fill="#63a0f9" /><rect width="10" height="10" x="130" y="240" fill="#648df9" /><rect width="10" height="10" x="140" y="240" fill="#63a0f9" /><rect width="10" height="10" x="150" y="240" fill="#648df9" /><rect width="10" height="10" x="160" y="240" fill="#63a0f9" /><rect width="10" height="10" x="170" y="240" fill="#648df9" /><rect width="10" height="10" x="180" y="240" fill="#63a0f9" /><rect width="10" height="10" x="190" y="240" fill="#648df9" /><rect width="10" height="10" x="200" y="240" fill="#63a0f9" /><rect width="10" height="10" x="210" y="240" fill="#648df9" /><rect width="10" height="10" x="220" y="240" fill="#63a0f9" /><rect width="20" height="10" x="90" y="250" fill="#63a0f9" /><rect width="110" height="10" x="120" y="250" fill="#63a0f9" /><rect width="20" height="10" x="90" y="260" fill="#63a0f9" /><rect width="110" height="10" x="120" y="260" fill="#63a0f9" /><rect width="20" height="10" x="90" y="270" fill="#63a0f9" /><rect width="110" height="10" x="120" y="270" fill="#63a0f9" /><rect width="10" height="10" x="90" y="280" fill="#63a0f9" /><rect width="10" height="10" x="100" y="280" fill="#7cc4f2" /><rect width="10" height="10" x="120" y="280" fill="#7cc4f2" /><rect width="10" height="10" x="130" y="280" fill="#63a0f9" /><rect width="10" height="10" x="140" y="280" fill="#7cc4f2" /><rect width="10" height="10" x="150" y="280" fill="#63a0f9" /><rect width="10" height="10" x="160" y="280" fill="#7cc4f2" /><rect width="10" height="10" x="170" y="280" fill="#63a0f9" /><rect width="10" height="10" x="180" y="280" fill="#7cc4f2" /><rect width="10" height="10" x="190" y="280" fill="#63a0f9" /><rect width="10" height="10" x="200" y="280" fill="#7cc4f2" /><rect width="10" height="10" x="210" y="280" fill="#63a0f9" /><rect width="10" height="10" x="220" y="280" fill="#7cc4f2" /><rect width="20" height="10" x="90" y="290" fill="#7cc4f2" /><rect width="110" height="10" x="120" y="290" fill="#7cc4f2" /><rect width="10" height="10" x="90" y="300" fill="#7cc4f2" /><rect width="10" height="10" x="100" y="300" fill="#97f2fb" /><rect width="10" height="10" x="120" y="300" fill="#97f2fb" /><rect width="10" height="10" x="130" y="300" fill="#7cc4f2" /><rect width="10" height="10" x="140" y="300" fill="#97f2fb" /><rect width="10" height="10" x="150" y="300" fill="#7cc4f2" /><rect width="10" height="10" x="160" y="300" fill="#97f2fb" /><rect width="10" height="10" x="170" y="300" fill="#7cc4f2" /><rect width="10" height="10" x="180" y="300" fill="#97f2fb" /><rect width="10" height="10" x="190" y="300" fill="#7cc4f2" /><rect width="10" height="10" x="200" y="300" fill="#97f2fb" /><rect width="10" height="10" x="210" y="300" fill="#7cc4f2" /><rect width="10" height="10" x="220" y="300" fill="#97f2fb" /><rect width="20" height="10" x="90" y="310" fill="#97f2fb" /><rect width="110" height="10" x="120" y="310" fill="#97f2fb" /><rect width="80" height="10" x="120" y="20" fill="#e11833" /><rect width="80" height="10" x="90" y="30" fill="#e11833" /><rect width="20" height="10" x="170" y="30" fill="#fff0ee" /><rect width="40" height="10" x="190" y="30" fill="#e11833" /><rect width="30" height="10" x="70" y="40" fill="#e11833" /><rect width="10" height="10" x="100" y="40" fill="#fff0ee" /><rect width="40" height="10" x="110" y="40" fill="#e11833" /><rect width="20" height="10" x="150" y="40" fill="#fff0ee" /><rect width="40" height="10" x="170" y="40" fill="#e11833" /><rect width="20" height="10" x="210" y="40" fill="#fff0ee" /><rect width="20" height="10" x="230" y="40" fill="#e11833" /><rect width="80" height="10" x="60" y="50" fill="#e11833" /><rect width="40" height="10" x="140" y="50" fill="#fff0ee" /><rect width="50" height="10" x="180" y="50" fill="#e11833" /><rect width="10" height="10" x="230" y="50" fill="#fff0ee" /><rect width="20" height="10" x="240" y="50" fill="#e11833" /><rect width="100" height="10" x="50" y="60" fill="#e11833" /><rect width="20" height="10" x="150" y="60" fill="#fff0ee" /><rect width="100" height="10" x="170" y="60" fill="#e11833" /><rect width="30" height="10" x="50" y="70" fill="#e11833" /><rect width="20" height="10" x="80" y="70" fill="#fff0ee" /><rect width="120" height="10" x="100" y="70" fill="#e11833" /><rect width="30" height="10" x="220" y="70" fill="#fff0ee" /><rect width="20" height="10" x="250" y="70" fill="#e11833" /><rect width="30" height="10" x="40" y="80" fill="#e11833" /><rect width="40" height="10" x="70" y="80" fill="#fff0ee" /><rect width="60" height="10" x="110" y="80" fill="#e11833" /><rect width="20" height="10" x="170" y="80" fill="#fff0ee" /><rect width="20" height="10" x="190" y="80" fill="#e11833" /><rect width="50" height="10" x="210" y="80" fill="#fff0ee" /><rect width="20" height="10" x="260" y="80" fill="#e11833" /><rect width="10" height="10" x="40" y="90" fill="#e11833" /><rect width="10" height="10" x="50" y="90" fill="#fff0ee" /><rect width="20" height="10" x="60" y="90" fill="#e11833" /><rect width="20" height="10" x="80" y="90" fill="#fff0ee" /><rect width="30" height="10" x="100" y="90" fill="#e11833" /><rect width="10" height="10" x="130" y="90" fill="#fff0ee" /><rect width="30" height="10" x="140" y="90" fill="#e11833" /><rect width="20" height="10" x="170" y="90" fill="#fff0ee" /><rect width="20" height="10" x="190" y="90" fill="#e11833" /><rect width="50" height="10" x="210" y="90" fill="#fff0ee" /><rect width="20" height="10" x="260" y="90" fill="#e11833" /><rect width="10" height="10" x="40" y="100" fill="#e11833" /><rect width="10" height="10" x="50" y="100" fill="#fff0ee" /><rect width="160" height="10" x="60" y="100" fill="#e11833" /><rect width="30" height="10" x="220" y="100" fill="#fff0ee" /><rect width="30" height="10" x="250" y="100" fill="#e11833" /><rect width="240" height="10" x="40" y="110" fill="#e11833" /><rect width="220" height="10" x="50" y="120" fill="#e11833" /><rect width="180" height="10" x="70" y="130" fill="#e11833" /><rect width="140" height="10" x="90" y="140" fill="#f9e8dd" /><rect width="140" height="10" x="90" y="150" fill="#f9e8dd" /><rect width="140" height="10" x="90" y="160" fill="#f9e8dd" /><rect width="140" height="10" x="90" y="170" fill="#f9e8dd" /><rect width="140" height="10" x="90" y="180" fill="#f9e8dd" /><rect width="20" height="10" x="90" y="190" fill="#f9e8dd" /><rect width="40" height="10" x="110" y="190" fill="#e11833" /><rect width="80" height="10" x="150" y="190" fill="#f9e8dd" /><rect width="20" height="10" x="90" y="200" fill="#f9e8dd" /><rect width="10" height="10" x="110" y="200" fill="#e11833" /><rect width="20" height="10" x="120" y="200" fill="#000000" /><rect width="10" height="10" x="140" y="200" fill="#e11833" /><rect width="80" height="10" x="150" y="200" fill="#f9e8dd" /><rect width="40" height="10" x="110" y="210" fill="#e11833" /><rect width="60" height="10" x="100" y="110" fill="#000000" /><rect width="60" height="10" x="170" y="110" fill="#000000" /><rect width="10" height="10" x="100" y="120" fill="#000000" /><rect width="20" height="10" x="110" y="120" fill="#ffffff" /><rect width="20" height="10" x="130" y="120" fill="#ff0e0e" /><rect width="10" height="10" x="150" y="120" fill="#000000" /><rect width="10" height="10" x="170" y="120" fill="#000000" /><rect width="20" height="10" x="180" y="120" fill="#ffffff" /><rect width="20" height="10" x="200" y="120" fill="#ff0e0e" /><rect width="10" height="10" x="220" y="120" fill="#000000" /><rect width="40" height="10" x="70" y="130" fill="#000000" /><rect width="20" height="10" x="110" y="130" fill="#ffffff" /><rect width="20" height="10" x="130" y="130" fill="#ff0e0e" /><rect width="30" height="10" x="150" y="130" fill="#000000" /><rect width="20" height="10" x="180" y="130" fill="#ffffff" /><rect width="20" height="10" x="200" y="130" fill="#ff0e0e" /><rect width="10" height="10" x="220" y="130" fill="#000000" /><rect width="10" height="10" x="70" y="140" fill="#000000" /><rect width="10" height="10" x="100" y="140" fill="#000000" /><rect width="20" height="10" x="110" y="140" fill="#ffffff" /><rect width="20" height="10" x="130" y="140" fill="#ff0e0e" /><rect width="10" height="10" x="150" y="140" fill="#000000" /><rect width="10" height="10" x="170" y="140" fill="#000000" /><rect width="20" height="10" x="180" y="140" fill="#ffffff" /><rect width="20" height="10" x="200" y="140" fill="#ff0e0e" /><rect width="10" height="10" x="220" y="140" fill="#000000" /><rect width="10" height="10" x="70" y="150" fill="#000000" /><rect width="10" height="10" x="100" y="150" fill="#000000" /><rect width="20" height="10" x="110" y="150" fill="#ffffff" /><rect width="20" height="10" x="130" y="150" fill="#ff0e0e" /><rect width="10" height="10" x="150" y="150" fill="#000000" /><rect width="10" height="10" x="170" y="150" fill="#000000" /><rect width="20" height="10" x="180" y="150" fill="#ffffff" /><rect width="20" height="10" x="200" y="150" fill="#ff0e0e" /><rect width="10" height="10" x="220" y="150" fill="#000000" /><rect width="60" height="10" x="100" y="160" fill="#000000" /><rect width="60" height="10" x="170" y="160" fill="#000000" /></svg>