<svg xmlns:xlink="http://www.w3.org/1999/xlink" width="320" height="320" viewBox="0 0 320 320" xmlns="http://www.w3.org/2000/svg" shape-rendering="crispEdges"><rect width="100%" height="100%" fill="#d5d7e1" /><rect width="140" height="10" x="90" y="210" fill="#d22209" /><rect width="140" height="10" x="90" y="220" fill="#d22209" /><rect width="140" height="10" x="90" y="230" fill="#d22209" /><rect width="140" height="10" x="90" y="240" fill="#d22209" /><rect width="20" height="10" x="90" y="250" fill="#d22209" /><rect width="110" height="10" x="120" y="250" fill="#d22209" /><rect width="20" height="10" x="90" y="260" fill="#d22209" /><rect width="110" height="10" x="120" y="260" fill="#d22209" /><rect width="20" height="10" x="90" y="270" fill="#d22209" /><rect width="110" height="10" x="120" y="270" fill="#d22209" /><rect width="20" height="10" x="90" y="280" fill="#d22209" /><rect width="110" height="10" x="120" y="280" fill="#d22209" /><rect width="20" height="10" x="90" y="290" fill="#d22209" /><rect width="110" height="10" x="120" y="290" fill="#d22209" /><rect width="20" height="10" x="90" y="300" fill="#d22209" /><rect width="110" height="10" x="120" y="300" fill="#d22209" /><rect width="20" height="10" x="90" y="310" fill="#d22209" /><rect width="110" height="10" x="120" y="310" fill="#d22209" /><rect width="10" height="10" x="110" y="210" fill="#505a5c" /><rect width="10" height="10" x="210" y="210" fill="#505a5c" /><rect width="10" height="10" x="120" y="220" fill="#505a5c" /><rect width="10" height="10" x="200" y="220" fill="#505a5c" /><rect width="10" height="10" x="130" y="230" fill="#505a5c" /><rect width="10" height="10" x="190" y="230" fill="#505a5c" /><rect width="10" height="10" x="140" y="240" fill="#505a5c" /><rect width="10" height="10" x="180" y="240" fill="#505a5c" /><rect width="30" height="10" x="150" y="250" fill="#505a5c" /><rect width="10" height="10" x="160" y="260" fill="#343235" /><rect width="20" height="10" x="130" y="270" fill="#343235" /><rect width="50" height="10" x="150" y="270" fill="#505a5c" /><rect width="20" height="10" x="140" y="280" fill="#343235" /><rect width="30" height="10" x="160" y="280" fill="#505a5c" /><rect width="30" height="10" x="150" y="290" fill="#343235" /><rect width="20" height="10" x="140" y="300" fill="#343235" /><rect width="30" height="10" x="160" y="300" fill="#505a5c" /><rect width="20" height="10" x="150" y="10" fill="#6e3206" /><rect width="20" height="10" x="130" y="20" fill="#6e3206" /><rect width="20" height="10" x="180" y="20" fill="#6e3206" /><rect width="10" height="10" x="120" y="30" fill="#6e3206" /><rect width="20" height="10" x="160" y="30" fill="#6e3206" /><rect width="10" height="10" x="110" y="40" fill="#6e3206" /><rect width="10" height="10" x="150" y="40" fill="#6e3206" /><rect width="10" height="10" x="110" y="50" fill="#6e3206" /><rect width="10" height="10" x="140" y="50" fill="#6e3206" /><rect width="10" height="10" x="110" y="60" fill="#6e3206" /><rect width="10" height="10" x="140" y="60" fill="#6e3206" /><rect width="10" height="10" x="110" y="70" fill="#6e3206" /><rect width="10" height="10" x="140" y="70" fill="#6e3206" /><rect width="90" height="10" x="70" y="80" fill="#ae3208" /><rect width="20" height="10" x="60" y="90" fill="#ae3208" /><rect width="10" height="10" x="80" y="90" fill="#ff7216" /><rect width="90" height="10" x="90" y="90" fill="#ae3208" /><rect width="20" height="10" x="50" y="100" fill="#ae3208" /><rect width="10" height="10" x="70" y="100" fill="#ff7216" /><rect width="110" height="10" x="80" y="100" fill="#ae3208" /><rect width="20" height="10" x="40" y="110" fill="#ae3208" /><rect width="10" height="10" x="60" y="110" fill="#ff7216" /><rect width="130" height="10" x="70" y="110" fill="#ae3208" /><rect width="170" height="10" x="40" y="120" fill="#ae3208" /><rect width="190" height="10" x="30" y="130" fill="#ae3208" /><rect width="20" height="10" x="30" y="140" fill="#ae3208" /><rect width="10" height="10" x="50" y="140" fill="#ff7216" /><rect width="160" height="10" x="60" y="140" fill="#ae3208" /><rect width="200" height="10" x="30" y="150" fill="#ae3208" /><rect width="270" height="10" x="40" y="160" fill="#ae3208" /><rect width="210" height="10" x="50" y="170" fill="#ae3208" /><rect width="100" height="10" x="60" y="180" fill="#ae3208" /><rect width="70" height="10" x="160" y="180" fill="#4d271b" /><rect width="20" height="10" x="70" y="190" fill="#ae3208" /><rect width="70" height="10" x="90" y="190" fill="#4d271b" /><rect width="70" height="10" x="160" y="190" fill="#ae3208" /><rect width="150" height="10" x="80" y="200" fill="#ae3208" /><rect width="60" height="10" x="100" y="110" fill="#d7d3cd" /><rect width="60" height="10" x="170" y="110" fill="#d7d3cd" /><rect width="10" height="10" x="100" y="120" fill="#d7d3cd" /><rect width="20" height="10" x="110" y="120" fill="#fdf8ff" /><rect width="20" height="10" x="130" y="120" fill="#000000" /><rect width="10" height="10" x="150" y="120" fill="#d7d3cd" /><rect width="10" height="10" x="170" y="120" fill="#d7d3cd" /><rect width="20" height="10" x="180" y="120" fill="#fdf8ff" /><rect width="20" height="10" x="200" y="120" fill="#000000" /><rect width="10" height="10" x="220" y="120" fill="#d7d3cd" /><rect width="40" height="10" x="70" y="130" fill="#d7d3cd" /><rect width="20" height="10" x="110" y="130" fill="#fdf8ff" /><rect width="20" height="10" x="130" y="130" fill="#000000" /><rect width="30" height="10" x="150" y="130" fill="#d7d3cd" /><rect width="20" height="10" x="180" y="130" fill="#fdf8ff" /><rect width="20" height="10" x="200" y="130" fill="#000000" /><rect width="10" height="10" x="220" y="130" fill="#d7d3cd" /><rect width="10" height="10" x="70" y="140" fill="#d7d3cd" /><rect width="10" height="10" x="100" y="140" fill="#d7d3cd" /><rect width="20" height="10" x="110" y="140" fill="#fdf8ff" /><rect width="20" height="10" x="130" y="140" fill="#000000" /><rect width="10" height="10" x="150" y="140" fill="#d7d3cd" /><rect width="10" height="10" x="170" y="140" fill="#d7d3cd" /><rect width="20" height="10" x="180" y="140" fill="#fdf8ff" /><rect width="20" height="10" x="200" y="140" fill="#000000" /><rect width="10" height="10" x="220" y="140" fill="#d7d3cd" /><rect width="10" height="10" x="70" y="150" fill="#d7d3cd" /><rect width="10" height="10" x="100" y="150" fill="#d7d3cd" /><rect width="20" height="10" x="110" y="150" fill="#fdf8ff" /><rect width="20" height="10" x="130" y="150" fill="#000000" /><rect width="10" height="10" x="150" y="150" fill="#d7d3cd" /><rect width="10" height="10" x="170" y="150" fill="#d7d3cd" /><rect width="20" height="10" x="180" y="150" fill="#fdf8ff" /><rect width="20" height="10" x="200" y="150" fill="#000000" /><rect width="10" height="10" x="220" y="150" fill="#d7d3cd" /><rect width="60" height="10" x="100" y="160" fill="#d7d3cd" /><rect width="60" height="10" x="170" y="160" fill="#d7d3cd" /></svg>