<svg xmlns:xlink="http://www.w3.org/1999/xlink" width="320" height="320" viewBox="0 0 320 320" xmlns="http://www.w3.org/2000/svg" shape-rendering="crispEdges"><rect width="100%" height="100%" fill="#d5d7e1" /><rect width="140" height="10" x="90" y="210" fill="#343235" /><rect width="140" height="10" x="90" y="220" fill="#343235" /><rect width="140" height="10" x="90" y="230" fill="#343235" /><rect width="140" height="10" x="90" y="240" fill="#343235" /><rect width="20" height="10" x="90" y="250" fill="#343235" /><rect width="110" height="10" x="120" y="250" fill="#343235" /><rect width="20" height="10" x="90" y="260" fill="#343235" /><rect width="110" height="10" x="120" y="260" fill="#343235" /><rect width="20" height="10" x="90" y="270" fill="#343235" /><rect width="110" height="10" x="120" y="270" fill="#343235" /><rect width="20" height="10" x="90" y="280" fill="#343235" /><rect width="110" height="10" x="120" y="280" fill="#343235" /><rect width="20" height="10" x="90" y="290" fill="#343235" /><rect width="110" height="10" x="120" y="290" fill="#343235" /><rect width="20" height="10" x="90" y="300" fill="#343235" /><rect width="110" height="10" x="120" y="300" fill="#343235" /><rect width="20" height="10" x="90" y="310" fill="#343235" /><rect width="110" height="10" x="120" y="310" fill="#343235" /><rect width="10" height="10" x="140" y="230" fill="#ffffff" /><rect width="50" height="10" x="150" y="230" fill="#8bc0c5" /><rect width="10" height="10" x="140" y="240" fill="#ffffff" /><rect width="40" height="10" x="150" y="240" fill="#8bc0c5" /><rect width="10" height="10" x="140" y="250" fill="#ffffff" /><rect width="30" height="10" x="150" y="250" fill="#8bc0c5" /><rect width="10" height="10" x="140" y="260" fill="#ffffff" /><rect width="10" height="10" x="150" y="260" fill="#8bc0c5" /><rect width="10" height="10" x="170" y="260" fill="#8bc0c5" /><rect width="10" height="10" x="140" y="270" fill="#ffffff" /><rect width="10" height="10" x="170" y="270" fill="#8bc0c5" /><rect width="10" height="10" x="170" y="280" fill="#8bc0c5" /><rect width="10" height="10" x="170" y="290" fill="#8bc0c5" /><rect width="20" height="10" x="100" y="40" fill="#d8dadf" /><rect width="20" height="10" x="120" y="50" fill="#d8dadf" /><rect width="20" height="10" x="140" y="60" fill="#d8dadf" /><rect width="80" height="10" x="80" y="70" fill="#769ca9" /><rect width="20" height="10" x="160" y="70" fill="#d8dadf" /><rect width="70" height="10" x="180" y="70" fill="#769ca9" /><rect width="10" height="10" x="80" y="80" fill="#769ca9" /><rect width="20" height="10" x="180" y="80" fill="#d8dadf" /><rect width="10" height="10" x="240" y="80" fill="#769ca9" /><rect width="10" height="10" x="80" y="90" fill="#769ca9" /><rect width="20" height="10" x="200" y="90" fill="#d8dadf" /><rect width="10" height="10" x="240" y="90" fill="#769ca9" /><rect width="20" height="10" x="60" y="100" fill="#5a6b7b" /><rect width="190" height="10" x="80" y="100" fill="#adc8cc" /><rect width="20" height="10" x="60" y="110" fill="#5a6b7b" /><rect width="10" height="10" x="80" y="110" fill="#adc8cc" /><rect width="10" height="10" x="90" y="110" fill="#4bea69" /><rect width="10" height="10" x="100" y="110" fill="#adc8cc" /><rect width="10" height="10" x="110" y="110" fill="#769ca9" /><rect width="10" height="10" x="120" y="110" fill="#adc8cc" /><rect width="90" height="10" x="130" y="110" fill="#1f1d29" /><rect width="10" height="10" x="220" y="110" fill="#adc8cc" /><rect width="10" height="10" x="230" y="110" fill="#769ca9" /><rect width="10" height="10" x="240" y="110" fill="#adc8cc" /><rect width="10" height="10" x="250" y="110" fill="#f3322c" /><rect width="10" height="10" x="260" y="110" fill="#adc8cc" /><rect width="20" height="10" x="60" y="120" fill="#5a6b7b" /><rect width="190" height="10" x="80" y="120" fill="#adc8cc" /><rect width="20" height="10" x="60" y="130" fill="#5a6b7b" /><rect width="30" height="10" x="80" y="130" fill="#adc8cc" /><rect width="30" height="10" x="110" y="130" fill="#1f1d29" /><rect width="20" height="10" x="140" y="130" fill="#adc8cc" /><rect width="10" height="10" x="160" y="130" fill="#769ca9" /><rect width="10" height="10" x="170" y="130" fill="#adc8cc" /><rect width="10" height="10" x="180" y="130" fill="#769ca9" /><rect width="20" height="10" x="190" y="130" fill="#adc8cc" /><rect width="30" height="10" x="210" y="130" fill="#1f1d29" /><rect width="30" height="10" x="240" y="130" fill="#adc8cc" /><rect width="20" height="10" x="60" y="140" fill="#5a6b7b" /><rect width="20" height="10" x="80" y="140" fill="#adc8cc" /><rect width="50" height="10" x="100" y="140" fill="#1f1d29" /><rect width="50" height="10" x="150" y="140" fill="#adc8cc" /><rect width="50" height="10" x="200" y="140" fill="#1f1d29" /><rect width="20" height="10" x="250" y="140" fill="#adc8cc" /><rect width="20" height="10" x="60" y="150" fill="#5a6b7b" /><rect width="10" height="10" x="80" y="150" fill="#adc8cc" /><rect width="70" height="10" x="90" y="150" fill="#1f1d29" /><rect width="10" height="10" x="160" y="150" fill="#adc8cc" /><rect width="10" height="10" x="170" y="150" fill="#769ca9" /><rect width="10" height="10" x="180" y="150" fill="#adc8cc" /><rect width="70" height="10" x="190" y="150" fill="#1f1d29" /><rect width="10" height="10" x="260" y="150" fill="#adc8cc" /><rect width="20" height="10" x="60" y="160" fill="#5a6b7b" /><rect width="10" height="10" x="80" y="160" fill="#adc8cc" /><rect width="70" height="10" x="90" y="160" fill="#1f1d29" /><rect width="30" height="10" x="160" y="160" fill="#adc8cc" /><rect width="70" height="10" x="190" y="160" fill="#1f1d29" /><rect width="10" height="10" x="260" y="160" fill="#adc8cc" /><rect width="20" height="10" x="60" y="170" fill="#5a6b7b" /><rect width="10" height="10" x="80" y="170" fill="#adc8cc" /><rect width="70" height="10" x="90" y="170" fill="#1f1d29" /><rect width="10" height="10" x="160" y="170" fill="#adc8cc" /><rect width="10" height="10" x="170" y="170" fill="#769ca9" /><rect width="10" height="10" x="180" y="170" fill="#adc8cc" /><rect width="70" height="10" x="190" y="170" fill="#1f1d29" /><rect width="10" height="10" x="260" y="170" fill="#adc8cc" /><rect width="20" height="10" x="60" y="180" fill="#5a6b7b" /><rect width="20" height="10" x="80" y="180" fill="#adc8cc" /><rect width="50" height="10" x="100" y="180" fill="#1f1d29" /><rect width="50" height="10" x="150" y="180" fill="#adc8cc" /><rect width="50" height="10" x="200" y="180" fill="#1f1d29" /><rect width="20" height="10" x="250" y="180" fill="#adc8cc" /><rect width="20" height="10" x="60" y="190" fill="#5a6b7b" /><rect width="30" height="10" x="80" y="190" fill="#adc8cc" /><rect width="30" height="10" x="110" y="190" fill="#1f1d29" /><rect width="20" height="10" x="140" y="190" fill="#adc8cc" /><rect width="10" height="10" x="160" y="190" fill="#769ca9" /><rect width="10" height="10" x="170" y="190" fill="#adc8cc" /><rect width="10" height="10" x="180" y="190" fill="#769ca9" /><rect width="20" height="10" x="190" y="190" fill="#adc8cc" /><rect width="30" height="10" x="210" y="190" fill="#1f1d29" /><rect width="30" height="10" x="240" y="190" fill="#adc8cc" /><rect width="20" height="10" x="60" y="200" fill="#5a6b7b" /><rect width="190" height="10" x="80" y="200" fill="#adc8cc" /><rect width="20" height="10" x="240" y="210" fill="#1f1d29" /><rect width="10" height="10" x="250" y="220" fill="#1f1d29" /><rect width="10" height="10" x="250" y="230" fill="#1f1d29" /><rect width="10" height="10" x="250" y="240" fill="#1f1d29" /><rect width="10" height="10" x="250" y="250" fill="#1f1d29" /><rect width="10" height="10" x="250" y="260" fill="#1f1d29" /><rect width="10" height="10" x="250" y="270" fill="#1f1d29" /><rect width="10" height="10" x="250" y="280" fill="#1f1d29" /><rect width="10" height="10" x="250" y="290" fill="#1f1d29" /><rect width="10" height="10" x="250" y="300" fill="#1f1d29" /><rect width="10" height="10" x="250" y="310" fill="#1f1d29" /><rect width="60" height="10" x="100" y="110" fill="#8dd122" /><rect width="60" height="10" x="170" y="110" fill="#8dd122" /><rect width="10" height="10" x="100" y="120" fill="#8dd122" /><rect width="20" height="10" x="110" y="120" fill="#ffffff" /><rect width="20" height="10" x="130" y="120" fill="#000000" /><rect width="10" height="10" x="150" y="120" fill="#8dd122" /><rect width="10" height="10" x="170" y="120" fill="#8dd122" /><rect width="20" height="10" x="180" y="120" fill="#ffffff" /><rect width="20" height="10" x="200" y="120" fill="#000000" /><rect width="10" height="10" x="220" y="120" fill="#8dd122" /><rect width="40" height="10" x="70" y="130" fill="#8dd122" /><rect width="20" height="10" x="110" y="130" fill="#ffffff" /><rect width="20" height="10" x="130" y="130" fill="#000000" /><rect width="30" height="10" x="150" y="130" fill="#8dd122" /><rect width="20" height="10" x="180" y="130" fill="#ffffff" /><rect width="20" height="10" x="200" y="130" fill="#000000" /><rect width="10" height="10" x="220" y="130" fill="#8dd122" /><rect width="10" height="10" x="70" y="140" fill="#8dd122" /><rect width="10" height="10" x="100" y="140" fill="#8dd122" /><rect width="20" height="10" x="110" y="140" fill="#ffffff" /><rect width="20" height="10" x="130" y="140" fill="#000000" /><rect width="10" height="10" x="150" y="140" fill="#8dd122" /><rect width="10" height="10" x="170" y="140" fill="#8dd122" /><rect width="20" height="10" x="180" y="140" fill="#ffffff" /><rect width="20" height="10" x="200" y="140" fill="#000000" /><rect width="10" height="10" x="220" y="140" fill="#8dd122" /><rect width="10" height="10" x="70" y="150" fill="#8dd122" /><rect width="10" height="10" x="100" y="150" fill="#8dd122" /><rect width="20" height="10" x="110" y="150" fill="#ffffff" /><rect width="20" height="10" x="130" y="150" fill="#000000" /><rect width="10" height="10" x="150" y="150" fill="#8dd122" /><rect width="10" height="10" x="170" y="150" fill="#8dd122" /><rect width="20" height="10" x="180" y="150" fill="#ffffff" /><rect width="20" height="10" x="200" y="150" fill="#000000" /><rect width="10" height="10" x="220" y="150" fill="#8dd122" /><rect width="60" height="10" x="100" y="160" fill="#8dd122" /><rect width="60" height="10" x="170" y="160" fill="#8dd122" /></svg>