<svg xmlns:xlink="http://www.w3.org/1999/xlink" width="320" height="320" viewBox="0 0 320 320" xmlns="http://www.w3.org/2000/svg" shape-rendering="crispEdges"><rect width="100%" height="100%" fill="#e1d7d5" /><rect width="140" height="10" x="90" y="210" fill="#cfc2ab" /><rect width="140" height="10" x="90" y="220" fill="#cfc2ab" /><rect width="140" height="10" x="90" y="230" fill="#cfc2ab" /><rect width="140" height="10" x="90" y="240" fill="#cfc2ab" /><rect width="20" height="10" x="90" y="250" fill="#cfc2ab" /><rect width="110" height="10" x="120" y="250" fill="#cfc2ab" /><rect width="20" height="10" x="90" y="260" fill="#cfc2ab" /><rect width="110" height="10" x="120" y="260" fill="#cfc2ab" /><rect width="20" height="10" x="90" y="270" fill="#cfc2ab" /><rect width="110" height="10" x="120" y="270" fill="#cfc2ab" /><rect width="20" height="10" x="90" y="280" fill="#cfc2ab" /><rect width="110" height="10" x="120" y="280" fill="#cfc2ab" /><rect width="20" height="10" x="90" y="290" fill="#cfc2ab" /><rect width="110" height="10" x="120" y="290" fill="#cfc2ab" /><rect width="20" height="10" x="90" y="300" fill="#cfc2ab" /><rect width="110" height="10" x="120" y="300" fill="#cfc2ab" /><rect width="20" height="10" x="90" y="310" fill="#cfc2ab" /><rect width="110" height="10" x="120" y="310" fill="#cfc2ab" /><rect width="20" height="10" x="140" y="240" fill="#d8dadf" /><rect width="20" height="10" x="170" y="240" fill="#d8dadf" /><rect width="70" height="10" x="130" y="250" fill="#d8dadf" /><rect width="70" height="10" x="130" y="260" fill="#d8dadf" /><rect width="50" height="10" x="140" y="270" fill="#d8dadf" /><rect width="30" height="10" x="150" y="280" fill="#d8dadf" /><rect width="10" height="10" x="160" y="290" fill="#d8dadf" /><rect width="20" height="10" x="160" y="40" fill="#ffffff" /><rect width="50" height="10" x="150" y="50" fill="#ffffff" /><rect width="90" height="10" x="120" y="60" fill="#ffffff" /><rect width="110" height="10" x="100" y="70" fill="#ffffff" /><rect width="120" height="10" x="80" y="80" fill="#ffffff" /><rect width="110" height="10" x="90" y="110" fill="#9cb4b8" /><rect width="110" height="10" x="90" y="120" fill="#9cb4b8" /><rect width="110" height="10" x="90" y="130" fill="#9cb4b8" /><rect width="120" height="10" x="90" y="140" fill="#9cb4b8" /><rect width="120" height="10" x="90" y="150" fill="#9cb4b8" /><rect width="20" height="10" x="30" y="160" fill="#9cb4b8" /><rect width="180" height="10" x="90" y="160" fill="#9cb4b8" /><rect width="10" height="10" x="290" y="160" fill="#ffffff" /><rect width="20" height="10" x="30" y="170" fill="#9cb4b8" /><rect width="50" height="10" x="90" y="170" fill="#9cb4b8" /><rect width="60" height="10" x="140" y="170" fill="#ffffff" /><rect width="70" height="10" x="200" y="170" fill="#9cb4b8" /><rect width="10" height="10" x="290" y="170" fill="#ffffff" /><rect width="100" height="10" x="30" y="180" fill="#9cb4b8" /><rect width="90" height="10" x="130" y="180" fill="#ffffff" /><rect width="50" height="10" x="220" y="180" fill="#9cb4b8" /><rect width="10" height="10" x="280" y="180" fill="#9cb4b8" /><rect width="10" height="10" x="290" y="180" fill="#ffffff" /><rect width="90" height="10" x="30" y="190" fill="#f3322c" /><rect width="20" height="10" x="120" y="190" fill="#ffffff" /><rect width="60" height="10" x="140" y="190" fill="#000000" /><rect width="20" height="10" x="200" y="190" fill="#ffffff" /><rect width="50" height="10" x="220" y="190" fill="#f3322c" /><rect width="10" height="10" x="290" y="190" fill="#ffffff" /><rect width="70" height="10" x="40" y="200" fill="#9cb4b8" /><rect width="110" height="10" x="110" y="200" fill="#ffffff" /><rect width="50" height="10" x="220" y="200" fill="#9cb4b8" /><rect width="10" height="10" x="290" y="200" fill="#ffffff" /><rect width="60" height="10" x="100" y="110" fill="#9cb4b8" /><rect width="60" height="10" x="170" y="110" fill="#9cb4b8" /><rect width="10" height="10" x="100" y="120" fill="#9cb4b8" /><rect width="20" height="10" x="110" y="120" fill="#ffffff" /><rect width="20" height="10" x="130" y="120" fill="#000000" /><rect width="10" height="10" x="150" y="120" fill="#9cb4b8" /><rect width="10" height="10" x="170" y="120" fill="#9cb4b8" /><rect width="20" height="10" x="180" y="120" fill="#ffffff" /><rect width="20" height="10" x="200" y="120" fill="#000000" /><rect width="10" height="10" x="220" y="120" fill="#9cb4b8" /><rect width="40" height="10" x="70" y="130" fill="#9cb4b8" /><rect width="20" height="10" x="110" y="130" fill="#ffffff" /><rect width="20" height="10" x="130" y="130" fill="#000000" /><rect width="30" height="10" x="150" y="130" fill="#9cb4b8" /><rect width="20" height="10" x="180" y="130" fill="#ffffff" /><rect width="20" height="10" x="200" y="130" fill="#000000" /><rect width="10" height="10" x="220" y="130" fill="#9cb4b8" /><rect width="10" height="10" x="70" y="140" fill="#9cb4b8" /><rect width="10" height="10" x="100" y="140" fill="#9cb4b8" /><rect width="20" height="10" x="110" y="140" fill="#ffffff" /><rect width="20" height="10" x="130" y="140" fill="#000000" /><rect width="10" height="10" x="150" y="140" fill="#9cb4b8" /><rect width="10" height="10" x="170" y="140" fill="#9cb4b8" /><rect width="20" height="10" x="180" y="140" fill="#ffffff" /><rect width="20" height="10" x="200" y="140" fill="#000000" /><rect width="10" height="10" x="220" y="140" fill="#9cb4b8" /><rect width="10" height="10" x="70" y="150" fill="#9cb4b8" /><rect width="10" height="10" x="100" y="150" fill="#9cb4b8" /><rect width="20" height="10" x="110" y="150" fill="#ffffff" /><rect width="20" height="10" x="130" y="150" fill="#000000" /><rect width="10" height="10" x="150" y="150" fill="#9cb4b8" /><rect width="10" height="10" x="170" y="150" fill="#9cb4b8" /><rect width="20" height="10" x="180" y="150" fill="#ffffff" /><rect width="20" height="10" x="200" y="150" fill="#000000" /><rect width="10" height="10" x="220" y="150" fill="#9cb4b8" /><rect width="60" height="10" x="100" y="160" fill="#9cb4b8" /><rect width="60" height="10" x="170" y="160" fill="#9cb4b8" /></svg>