<svg xmlns:xlink="http://www.w3.org/1999/xlink" width="320" height="320" viewBox="0 0 320 320" xmlns="http://www.w3.org/2000/svg" shape-rendering="crispEdges"><rect width="100%" height="100%" fill="#d5d7e1" /><rect width="140" height="10" x="90" y="210" fill="#807f7e" /><rect width="140" height="10" x="90" y="220" fill="#807f7e" /><rect width="140" height="10" x="90" y="230" fill="#807f7e" /><rect width="140" height="10" x="90" y="240" fill="#807f7e" /><rect width="20" height="10" x="90" y="250" fill="#807f7e" /><rect width="110" height="10" x="120" y="250" fill="#807f7e" /><rect width="20" height="10" x="90" y="260" fill="#807f7e" /><rect width="110" height="10" x="120" y="260" fill="#807f7e" /><rect width="20" height="10" x="90" y="270" fill="#807f7e" /><rect width="110" height="10" x="120" y="270" fill="#807f7e" /><rect width="20" height="10" x="90" y="280" fill="#807f7e" /><rect width="110" height="10" x="120" y="280" fill="#807f7e" /><rect width="20" height="10" x="90" y="290" fill="#807f7e" /><rect width="110" height="10" x="120" y="290" fill="#807f7e" /><rect width="20" height="10" x="90" y="300" fill="#807f7e" /><rect width="110" height="10" x="120" y="300" fill="#807f7e" /><rect width="20" height="10" x="90" y="310" fill="#807f7e" /><rect width="110" height="10" x="120" y="310" fill="#807f7e" /><rect width="30" height="10" x="130" y="210" fill="#5648ed" /><rect width="30" height="10" x="170" y="210" fill="#5648ed" /><rect width="20" height="10" x="210" y="210" fill="#5648ed" /><rect width="30" height="10" x="90" y="220" fill="#5648ed" /><rect width="30" height="10" x="130" y="220" fill="#5648ed" /><rect width="30" height="10" x="170" y="220" fill="#5648ed" /><rect width="30" height="10" x="90" y="230" fill="#5648ed" /><rect width="30" height="10" x="130" y="230" fill="#5648ed" /><rect width="30" height="10" x="90" y="240" fill="#5648ed" /><rect width="30" height="10" x="190" y="240" fill="#5648ed" /><rect width="30" height="10" x="150" y="250" fill="#5648ed" /><rect width="30" height="10" x="190" y="250" fill="#5648ed" /><rect width="20" height="10" x="120" y="260" fill="#5648ed" /><rect width="30" height="10" x="150" y="260" fill="#5648ed" /><rect width="30" height="10" x="190" y="260" fill="#5648ed" /><rect width="10" height="10" x="90" y="270" fill="#5648ed" /><rect width="20" height="10" x="120" y="270" fill="#5648ed" /><rect width="30" height="10" x="150" y="270" fill="#5648ed" /><rect width="10" height="10" x="90" y="280" fill="#5648ed" /><rect width="20" height="10" x="120" y="280" fill="#5648ed" /><rect width="20" height="10" x="210" y="280" fill="#5648ed" /><rect width="10" height="10" x="90" y="290" fill="#5648ed" /><rect width="30" height="10" x="170" y="290" fill="#5648ed" /><rect width="20" height="10" x="210" y="290" fill="#5648ed" /><rect width="30" height="10" x="130" y="300" fill="#5648ed" /><rect width="30" height="10" x="170" y="300" fill="#5648ed" /><rect width="20" height="10" x="210" y="300" fill="#5648ed" /><rect width="20" height="10" x="90" y="310" fill="#5648ed" /><rect width="30" height="10" x="130" y="310" fill="#5648ed" /><rect width="30" height="10" x="170" y="310" fill="#5648ed" /><rect width="100" height="10" x="50" y="60" fill="#2bb26b" /><rect width="110" height="10" x="160" y="60" fill="#2bb26b" /><rect width="10" height="10" x="50" y="70" fill="#2bb26b" /><rect width="10" height="10" x="170" y="70" fill="#2bb26b" /><rect width="10" height="10" x="220" y="70" fill="#2bb26b" /><rect width="10" height="10" x="260" y="70" fill="#2bb26b" /><rect width="10" height="10" x="50" y="80" fill="#2bb26b" /><rect width="110" height="10" x="70" y="80" fill="#2bb26b" /><rect width="10" height="10" x="190" y="80" fill="#2bb26b" /><rect width="40" height="10" x="210" y="80" fill="#2bb26b" /><rect width="10" height="10" x="260" y="80" fill="#2bb26b" /><rect width="10" height="10" x="50" y="90" fill="#2bb26b" /><rect width="10" height="10" x="70" y="90" fill="#2bb26b" /><rect width="10" height="10" x="110" y="90" fill="#2bb26b" /><rect width="10" height="10" x="190" y="90" fill="#2bb26b" /><rect width="10" height="10" x="240" y="90" fill="#2bb26b" /><rect width="10" height="10" x="260" y="90" fill="#2bb26b" /><rect width="10" height="10" x="50" y="100" fill="#2bb26b" /><rect width="10" height="10" x="90" y="100" fill="#2bb26b" /><rect width="70" height="10" x="130" y="100" fill="#2bb26b" /><rect width="40" height="10" x="210" y="100" fill="#2bb26b" /><rect width="10" height="10" x="260" y="100" fill="#2bb26b" /><rect width="60" height="10" x="50" y="110" fill="#2bb26b" /><rect width="20" height="10" x="120" y="110" fill="#2bb26b" /><rect width="10" height="10" x="170" y="110" fill="#2bb26b" /><rect width="10" height="10" x="260" y="110" fill="#2bb26b" /><rect width="10" height="10" x="50" y="120" fill="#2bb26b" /><rect width="10" height="10" x="70" y="120" fill="#2bb26b" /><rect width="10" height="10" x="130" y="120" fill="#2bb26b" /><rect width="10" height="10" x="150" y="120" fill="#2bb26b" /><rect width="10" height="10" x="170" y="120" fill="#2bb26b" /><rect width="60" height="10" x="190" y="120" fill="#2bb26b" /><rect width="10" height="10" x="260" y="120" fill="#2bb26b" /><rect width="10" height="10" x="50" y="130" fill="#2bb26b" /><rect width="50" height="10" x="70" y="130" fill="#2bb26b" /><rect width="10" height="10" x="130" y="130" fill="#2bb26b" /><rect width="30" height="10" x="150" y="130" fill="#2bb26b" /><rect width="10" height="10" x="260" y="130" fill="#2bb26b" /><rect width="10" height="10" x="50" y="140" fill="#2bb26b" /><rect width="10" height="10" x="110" y="140" fill="#2bb26b" /><rect width="10" height="10" x="170" y="140" fill="#2bb26b" /><rect width="80" height="10" x="190" y="140" fill="#2bb26b" /><rect width="10" height="10" x="50" y="150" fill="#2bb26b" /><rect width="30" height="10" x="70" y="150" fill="#2bb26b" /><rect width="30" height="10" x="110" y="150" fill="#2bb26b" /><rect width="10" height="10" x="150" y="150" fill="#2bb26b" /><rect width="10" height="10" x="240" y="150" fill="#2bb26b" /><rect width="10" height="10" x="260" y="150" fill="#2bb26b" /><rect width="10" height="10" x="50" y="160" fill="#2bb26b" /><rect width="10" height="10" x="90" y="160" fill="#2bb26b" /><rect width="10" height="10" x="110" y="160" fill="#2bb26b" /><rect width="10" height="10" x="130" y="160" fill="#2bb26b" /><rect width="80" height="10" x="150" y="160" fill="#2bb26b" /><rect width="10" height="10" x="240" y="160" fill="#2bb26b" /><rect width="10" height="10" x="260" y="160" fill="#2bb26b" /><rect width="30" height="10" x="50" y="170" fill="#2bb26b" /><rect width="10" height="10" x="90" y="170" fill="#2bb26b" /><rect width="10" height="10" x="260" y="170" fill="#2bb26b" /><rect width="10" height="10" x="50" y="180" fill="#2bb26b" /><rect width="10" height="10" x="70" y="180" fill="#2bb26b" /><rect width="40" height="10" x="90" y="180" fill="#2bb26b" /><rect width="70" height="10" x="140" y="180" fill="#2bb26b" /><rect width="50" height="10" x="220" y="180" fill="#2bb26b" /><rect width="10" height="10" x="50" y="190" fill="#2bb26b" /><rect width="10" height="10" x="90" y="190" fill="#2bb26b" /><rect width="10" height="10" x="180" y="190" fill="#2bb26b" /><rect width="10" height="10" x="260" y="190" fill="#2bb26b" /><rect width="200" height="10" x="50" y="200" fill="#2bb26b" /><rect width="10" height="10" x="260" y="200" fill="#2bb26b" /><rect width="60" height="10" x="100" y="110" fill="#00a556" /><rect width="60" height="10" x="170" y="110" fill="#00a556" /><rect width="10" height="10" x="100" y="120" fill="#00a556" /><rect width="20" height="10" x="110" y="120" fill="#ffffff" /><rect width="20" height="10" x="130" y="120" fill="#000000" /><rect width="10" height="10" x="150" y="120" fill="#00a556" /><rect width="10" height="10" x="170" y="120" fill="#00a556" /><rect width="20" height="10" x="180" y="120" fill="#ffffff" /><rect width="20" height="10" x="200" y="120" fill="#000000" /><rect width="10" height="10" x="220" y="120" fill="#00a556" /><rect width="40" height="10" x="70" y="130" fill="#00a556" /><rect width="20" height="10" x="110" y="130" fill="#ffffff" /><rect width="20" height="10" x="130" y="130" fill="#000000" /><rect width="30" height="10" x="150" y="130" fill="#00a556" /><rect width="20" height="10" x="180" y="130" fill="#ffffff" /><rect width="20" height="10" x="200" y="130" fill="#000000" /><rect width="10" height="10" x="220" y="130" fill="#00a556" /><rect width="10" height="10" x="70" y="140" fill="#00a556" /><rect width="10" height="10" x="100" y="140" fill="#00a556" /><rect width="20" height="10" x="110" y="140" fill="#ffffff" /><rect width="20" height="10" x="130" y="140" fill="#000000" /><rect width="10" height="10" x="150" y="140" fill="#00a556" /><rect width="10" height="10" x="170" y="140" fill="#00a556" /><rect width="20" height="10" x="180" y="140" fill="#ffffff" /><rect width="20" height="10" x="200" y="140" fill="#000000" /><rect width="10" height="10" x="220" y="140" fill="#00a556" /><rect width="10" height="10" x="70" y="150" fill="#00a556" /><rect width="10" height="10" x="100" y="150" fill="#00a556" /><rect width="20" height="10" x="110" y="150" fill="#ffffff" /><rect width="20" height="10" x="130" y="150" fill="#000000" /><rect width="10" height="10" x="150" y="150" fill="#00a556" /><rect width="10" height="10" x="170" y="150" fill="#00a556" /><rect width="20" height="10" x="180" y="150" fill="#ffffff" /><rect width="20" height="10" x="200" y="150" fill="#000000" /><rect width="10" height="10" x="220" y="150" fill="#00a556" /><rect width="60" height="10" x="100" y="160" fill="#00a556" /><rect width="60" height="10" x="170" y="160" fill="#00a556" /></svg>