<svg xmlns:xlink="http://www.w3.org/1999/xlink" width="320" height="320" viewBox="0 0 320 320" xmlns="http://www.w3.org/2000/svg" shape-rendering="crispEdges"><rect width="100%" height="100%" fill="#e1d7d5" /><rect width="140" height="10" x="90" y="210" fill="#343235" /><rect width="140" height="10" x="90" y="220" fill="#343235" /><rect width="140" height="10" x="90" y="230" fill="#343235" /><rect width="140" height="10" x="90" y="240" fill="#343235" /><rect width="20" height="10" x="90" y="250" fill="#343235" /><rect width="110" height="10" x="120" y="250" fill="#343235" /><rect width="20" height="10" x="90" y="260" fill="#343235" /><rect width="110" height="10" x="120" y="260" fill="#343235" /><rect width="20" height="10" x="90" y="270" fill="#343235" /><rect width="110" height="10" x="120" y="270" fill="#343235" /><rect width="20" height="10" x="90" y="280" fill="#343235" /><rect width="110" height="10" x="120" y="280" fill="#343235" /><rect width="20" height="10" x="90" y="290" fill="#343235" /><rect width="110" height="10" x="120" y="290" fill="#343235" /><rect width="20" height="10" x="90" y="300" fill="#343235" /><rect width="110" height="10" x="120" y="300" fill="#343235" /><rect width="20" height="10" x="90" y="310" fill="#343235" /><rect width="110" height="10" x="120" y="310" fill="#343235" /><rect width="30" height="10" x="120" y="210" fill="#4bea69" /><rect width="30" height="10" x="180" y="210" fill="#4bea69" /><rect width="30" height="10" x="120" y="220" fill="#4bea69" /><rect width="30" height="10" x="180" y="220" fill="#4bea69" /><rect width="30" height="10" x="120" y="230" fill="#4bea69" /><rect width="30" height="10" x="180" y="230" fill="#4bea69" /><rect width="30" height="10" x="120" y="240" fill="#000000" /><rect width="30" height="10" x="180" y="240" fill="#000000" /><rect width="30" height="10" x="120" y="250" fill="#000000" /><rect width="30" height="10" x="180" y="250" fill="#000000" /><rect width="30" height="10" x="120" y="260" fill="#000000" /><rect width="30" height="10" x="180" y="260" fill="#000000" /><rect width="30" height="10" x="120" y="270" fill="#4bea69" /><rect width="30" height="10" x="180" y="270" fill="#4bea69" /><rect width="30" height="10" x="120" y="280" fill="#4bea69" /><rect width="30" height="10" x="180" y="280" fill="#4bea69" /><rect width="30" height="10" x="120" y="290" fill="#4bea69" /><rect width="30" height="10" x="180" y="290" fill="#4bea69" /><rect width="30" height="10" x="120" y="300" fill="#000000" /><rect width="30" height="10" x="180" y="300" fill="#000000" /><rect width="30" height="10" x="120" y="310" fill="#000000" /><rect width="30" height="10" x="180" y="310" fill="#000000" /><rect width="80" height="10" x="160" y="30" fill="#ffc110" /><rect width="50" height="10" x="140" y="40" fill="#ffc110" /><rect width="40" height="10" x="190" y="40" fill="#fff0ee" /><rect width="20" height="10" x="230" y="40" fill="#ffc110" /><rect width="50" height="10" x="130" y="50" fill="#ffc110" /><rect width="20" height="10" x="180" y="50" fill="#fff0ee" /><rect width="20" height="10" x="200" y="50" fill="#000000" /><rect width="20" height="10" x="220" y="50" fill="#fff0ee" /><rect width="10" height="10" x="240" y="50" fill="#ffc110" /><rect width="50" height="10" x="130" y="60" fill="#ffc110" /><rect width="20" height="10" x="180" y="60" fill="#fff0ee" /><rect width="20" height="10" x="200" y="60" fill="#000000" /><rect width="20" height="10" x="220" y="60" fill="#fff0ee" /><rect width="10" height="10" x="240" y="60" fill="#ffc110" /><rect width="10" height="10" x="250" y="60" fill="#fe500c" /><rect width="60" height="10" x="130" y="70" fill="#ffc110" /><rect width="40" height="10" x="190" y="70" fill="#fff0ee" /><rect width="20" height="10" x="230" y="70" fill="#ffc110" /><rect width="30" height="10" x="250" y="70" fill="#fe500c" /><rect width="20" height="10" x="50" y="80" fill="#ffc110" /><rect width="100" height="10" x="140" y="80" fill="#ffc110" /><rect width="30" height="10" x="240" y="80" fill="#fe500c" /><rect width="50" height="10" x="50" y="90" fill="#ffc110" /><rect width="100" height="10" x="150" y="90" fill="#ffc110" /><rect width="220" height="10" x="40" y="100" fill="#ffc110" /><rect width="230" height="10" x="40" y="110" fill="#ffc110" /><rect width="240" height="10" x="40" y="120" fill="#ffc110" /><rect width="240" height="10" x="40" y="130" fill="#ffc110" /><rect width="240" height="10" x="40" y="140" fill="#ffc110" /><rect width="230" height="10" x="50" y="150" fill="#ffc110" /><rect width="230" height="10" x="50" y="160" fill="#ffc110" /><rect width="220" height="10" x="60" y="170" fill="#ffc110" /><rect width="110" height="10" x="60" y="180" fill="#ffc110" /><rect width="10" height="10" x="170" y="180" fill="#d08b11" /><rect width="90" height="10" x="180" y="180" fill="#ffc110" /><rect width="70" height="10" x="70" y="190" fill="#ffc110" /><rect width="30" height="10" x="140" y="190" fill="#d08b11" /><rect width="90" height="10" x="170" y="190" fill="#ffc110" /><rect width="160" height="10" x="90" y="200" fill="#ffc110" /><rect width="60" height="10" x="100" y="110" fill="#000000" /><rect width="60" height="10" x="170" y="110" fill="#000000" /><rect width="30" height="10" x="100" y="120" fill="#000000" /><rect width="10" height="10" x="130" y="120" fill="#ff0e0e" /><rect width="20" height="10" x="140" y="120" fill="#000000" /><rect width="30" height="10" x="170" y="120" fill="#000000" /><rect width="10" height="10" x="200" y="120" fill="#ff0e0e" /><rect width="20" height="10" x="210" y="120" fill="#000000" /><rect width="160" height="10" x="70" y="130" fill="#000000" /><rect width="10" height="10" x="70" y="140" fill="#000000" /><rect width="10" height="10" x="100" y="140" fill="#000000" /><rect width="10" height="10" x="110" y="140" fill="#0adc4d" /><rect width="20" height="10" x="120" y="140" fill="#000000" /><rect width="10" height="10" x="140" y="140" fill="#1929f4" /><rect width="10" height="10" x="150" y="140" fill="#000000" /><rect width="10" height="10" x="170" y="140" fill="#000000" /><rect width="10" height="10" x="180" y="140" fill="#0adc4d" /><rect width="20" height="10" x="190" y="140" fill="#000000" /><rect width="10" height="10" x="210" y="140" fill="#1929f4" /><rect width="10" height="10" x="220" y="140" fill="#000000" /><rect width="10" height="10" x="70" y="150" fill="#000000" /><rect width="60" height="10" x="100" y="150" fill="#000000" /><rect width="60" height="10" x="170" y="150" fill="#000000" /><rect width="60" height="10" x="100" y="160" fill="#000000" /><rect width="60" height="10" x="170" y="160" fill="#000000" /></svg>