<svg xmlns:xlink="http://www.w3.org/1999/xlink" width="320" height="320" viewBox="0 0 320 320" xmlns="http://www.w3.org/2000/svg" shape-rendering="crispEdges"><rect width="100%" height="100%" fill="#d5d7e1" /><rect width="140" height="10" x="90" y="210" fill="#caeff9" /><rect width="140" height="10" x="90" y="220" fill="#caeff9" /><rect width="140" height="10" x="90" y="230" fill="#caeff9" /><rect width="140" height="10" x="90" y="240" fill="#caeff9" /><rect width="20" height="10" x="90" y="250" fill="#caeff9" /><rect width="110" height="10" x="120" y="250" fill="#caeff9" /><rect width="20" height="10" x="90" y="260" fill="#caeff9" /><rect width="110" height="10" x="120" y="260" fill="#caeff9" /><rect width="20" height="10" x="90" y="270" fill="#caeff9" /><rect width="110" height="10" x="120" y="270" fill="#caeff9" /><rect width="20" height="10" x="90" y="280" fill="#caeff9" /><rect width="110" height="10" x="120" y="280" fill="#caeff9" /><rect width="20" height="10" x="90" y="290" fill="#caeff9" /><rect width="110" height="10" x="120" y="290" fill="#caeff9" /><rect width="20" height="10" x="90" y="300" fill="#caeff9" /><rect width="110" height="10" x="120" y="300" fill="#caeff9" /><rect width="20" height="10" x="90" y="310" fill="#caeff9" /><rect width="110" height="10" x="120" y="310" fill="#caeff9" /><rect width="10" height="10" x="120" y="210" fill="#ffc110" /><rect width="10" height="10" x="190" y="210" fill="#ffc110" /><rect width="10" height="10" x="130" y="220" fill="#ffc110" /><rect width="10" height="10" x="180" y="220" fill="#ffc110" /><rect width="10" height="10" x="140" y="230" fill="#ffc110" /><rect width="10" height="10" x="170" y="230" fill="#ffc110" /><rect width="20" height="10" x="150" y="240" fill="#ffc110" /><rect width="20" height="10" x="150" y="250" fill="#ffc110" /><rect width="40" height="10" x="140" y="260" fill="#ffc110" /><rect width="40" height="10" x="140" y="270" fill="#ffc110" /><rect width="60" height="10" x="130" y="280" fill="#ffc110" /><rect width="60" height="10" x="130" y="290" fill="#ffc110" /><rect width="140" height="10" x="90" y="70" fill="#fff0ee" /><rect width="20" height="10" x="70" y="80" fill="#fff0ee" /><rect width="60" height="10" x="90" y="80" fill="#d22209" /><rect width="30" height="10" x="150" y="80" fill="#f38b7c" /><rect width="50" height="10" x="180" y="80" fill="#d22209" /><rect width="20" height="10" x="230" y="80" fill="#fff0ee" /><rect width="10" height="10" x="60" y="90" fill="#fff0ee" /><rect width="90" height="10" x="70" y="90" fill="#d22209" /><rect width="10" height="10" x="160" y="90" fill="#f38b7c" /><rect width="80" height="10" x="170" y="90" fill="#d22209" /><rect width="10" height="10" x="250" y="90" fill="#fff0ee" /><rect width="10" height="10" x="60" y="100" fill="#fff0ee" /><rect width="90" height="10" x="70" y="100" fill="#d22209" /><rect width="10" height="10" x="160" y="100" fill="#f38b7c" /><rect width="80" height="10" x="170" y="100" fill="#d22209" /><rect width="10" height="10" x="250" y="100" fill="#fff0ee" /><rect width="10" height="10" x="50" y="110" fill="#fff0ee" /><rect width="100" height="10" x="60" y="110" fill="#d22209" /><rect width="10" height="10" x="160" y="110" fill="#f38b7c" /><rect width="90" height="10" x="170" y="110" fill="#d22209" /><rect width="10" height="10" x="260" y="110" fill="#fff0ee" /><rect width="10" height="10" x="50" y="120" fill="#fff0ee" /><rect width="100" height="10" x="60" y="120" fill="#d22209" /><rect width="10" height="10" x="160" y="120" fill="#f38b7c" /><rect width="90" height="10" x="170" y="120" fill="#d22209" /><rect width="10" height="10" x="260" y="120" fill="#fff0ee" /><rect width="10" height="10" x="50" y="130" fill="#fff0ee" /><rect width="100" height="10" x="60" y="130" fill="#d22209" /><rect width="10" height="10" x="160" y="130" fill="#f38b7c" /><rect width="90" height="10" x="170" y="130" fill="#d22209" /><rect width="10" height="10" x="260" y="130" fill="#fff0ee" /><rect width="10" height="10" x="50" y="140" fill="#fff0ee" /><rect width="100" height="10" x="60" y="140" fill="#d22209" /><rect width="10" height="10" x="160" y="140" fill="#f38b7c" /><rect width="90" height="10" x="170" y="140" fill="#d22209" /><rect width="10" height="10" x="260" y="140" fill="#fff0ee" /><rect width="10" height="10" x="50" y="150" fill="#fff0ee" /><rect width="100" height="10" x="60" y="150" fill="#d22209" /><rect width="10" height="10" x="160" y="150" fill="#f38b7c" /><rect width="90" height="10" x="170" y="150" fill="#d22209" /><rect width="10" height="10" x="260" y="150" fill="#fff0ee" /><rect width="10" height="10" x="50" y="160" fill="#fff0ee" /><rect width="10" height="10" x="60" y="160" fill="#f38b7c" /><rect width="90" height="10" x="70" y="160" fill="#d22209" /><rect width="10" height="10" x="160" y="160" fill="#f38b7c" /><rect width="90" height="10" x="170" y="160" fill="#d22209" /><rect width="10" height="10" x="260" y="160" fill="#fff0ee" /><rect width="20" height="10" x="50" y="170" fill="#fff0ee" /><rect width="20" height="10" x="70" y="170" fill="#f38b7c" /><rect width="50" height="10" x="90" y="170" fill="#d22209" /><rect width="30" height="10" x="140" y="170" fill="#f38b7c" /><rect width="10" height="10" x="170" y="170" fill="#d22209" /><rect width="30" height="10" x="180" y="170" fill="#fff0ee" /><rect width="50" height="10" x="210" y="170" fill="#d22209" /><rect width="10" height="10" x="260" y="170" fill="#fff0ee" /><rect width="30" height="10" x="60" y="180" fill="#fff0ee" /><rect width="80" height="10" x="90" y="180" fill="#f38b7c" /><rect width="10" height="10" x="170" y="180" fill="#d22209" /><rect width="10" height="10" x="180" y="180" fill="#fff0ee" /><rect width="10" height="10" x="190" y="180" fill="#f38b7c" /><rect width="10" height="10" x="200" y="180" fill="#fff0ee" /><rect width="40" height="10" x="210" y="180" fill="#d22209" /><rect width="20" height="10" x="250" y="180" fill="#fff0ee" /><rect width="80" height="10" x="70" y="190" fill="#fff0ee" /><rect width="20" height="10" x="150" y="190" fill="#f38b7c" /><rect width="10" height="10" x="170" y="190" fill="#d22209" /><rect width="30" height="10" x="180" y="190" fill="#fff0ee" /><rect width="40" height="10" x="210" y="190" fill="#d22209" /><rect width="10" height="10" x="250" y="190" fill="#fff0ee" /><rect width="70" height="10" x="90" y="200" fill="#fff0ee" /><rect width="20" height="10" x="160" y="200" fill="#f38b7c" /><rect width="50" height="10" x="180" y="200" fill="#d22209" /><rect width="30" height="10" x="230" y="200" fill="#fff0ee" /><rect width="100" height="10" x="150" y="210" fill="#fff0ee" /><rect width="70" height="10" x="160" y="220" fill="#fff0ee" /><rect width="60" height="10" x="100" y="110" fill="#2b83f6" /><rect width="60" height="10" x="170" y="110" fill="#2b83f6" /><rect width="10" height="10" x="100" y="120" fill="#2b83f6" /><rect width="20" height="10" x="110" y="120" fill="#ffffff" /><rect width="20" height="10" x="130" y="120" fill="#000000" /><rect width="10" height="10" x="150" y="120" fill="#2b83f6" /><rect width="10" height="10" x="170" y="120" fill="#2b83f6" /><rect width="20" height="10" x="180" y="120" fill="#ffffff" /><rect width="20" height="10" x="200" y="120" fill="#000000" /><rect width="10" height="10" x="220" y="120" fill="#2b83f6" /><rect width="40" height="10" x="70" y="130" fill="#2b83f6" /><rect width="20" height="10" x="110" y="130" fill="#ffffff" /><rect width="20" height="10" x="130" y="130" fill="#000000" /><rect width="30" height="10" x="150" y="130" fill="#2b83f6" /><rect width="20" height="10" x="180" y="130" fill="#ffffff" /><rect width="20" height="10" x="200" y="130" fill="#000000" /><rect width="10" height="10" x="220" y="130" fill="#2b83f6" /><rect width="10" height="10" x="70" y="140" fill="#2b83f6" /><rect width="10" height="10" x="100" y="140" fill="#2b83f6" /><rect width="20" height="10" x="110" y="140" fill="#ffffff" /><rect width="20" height="10" x="130" y="140" fill="#000000" /><rect width="10" height="10" x="150" y="140" fill="#2b83f6" /><rect width="10" height="10" x="170" y="140" fill="#2b83f6" /><rect width="20" height="10" x="180" y="140" fill="#ffffff" /><rect width="20" height="10" x="200" y="140" fill="#000000" /><rect width="10" height="10" x="220" y="140" fill="#2b83f6" /><rect width="10" height="10" x="70" y="150" fill="#2b83f6" /><rect width="10" height="10" x="100" y="150" fill="#2b83f6" /><rect width="20" height="10" x="110" y="150" fill="#ffffff" /><rect width="20" height="10" x="130" y="150" fill="#000000" /><rect width="10" height="10" x="150" y="150" fill="#2b83f6" /><rect width="10" height="10" x="170" y="150" fill="#2b83f6" /><rect width="20" height="10" x="180" y="150" fill="#ffffff" /><rect width="20" height="10" x="200" y="150" fill="#000000" /><rect width="10" height="10" x="220" y="150" fill="#2b83f6" /><rect width="60" height="10" x="100" y="160" fill="#2b83f6" /><rect width="60" height="10" x="170" y="160" fill="#2b83f6" /></svg>