<svg xmlns:xlink="http://www.w3.org/1999/xlink" width="320" height="320" viewBox="0 0 320 320" xmlns="http://www.w3.org/2000/svg" shape-rendering="crispEdges"><rect width="100%" height="100%" fill="#d5d7e1" /><rect width="140" height="10" x="90" y="210" fill="#cbc1bc" /><rect width="140" height="10" x="90" y="220" fill="#cbc1bc" /><rect width="140" height="10" x="90" y="230" fill="#cbc1bc" /><rect width="140" height="10" x="90" y="240" fill="#cbc1bc" /><rect width="20" height="10" x="90" y="250" fill="#cbc1bc" /><rect width="110" height="10" x="120" y="250" fill="#cbc1bc" /><rect width="20" height="10" x="90" y="260" fill="#cbc1bc" /><rect width="110" height="10" x="120" y="260" fill="#cbc1bc" /><rect width="20" height="10" x="90" y="270" fill="#cbc1bc" /><rect width="110" height="10" x="120" y="270" fill="#cbc1bc" /><rect width="20" height="10" x="90" y="280" fill="#cbc1bc" /><rect width="110" height="10" x="120" y="280" fill="#cbc1bc" /><rect width="20" height="10" x="90" y="290" fill="#cbc1bc" /><rect width="110" height="10" x="120" y="290" fill="#cbc1bc" /><rect width="20" height="10" x="90" y="300" fill="#cbc1bc" /><rect width="110" height="10" x="120" y="300" fill="#cbc1bc" /><rect width="20" height="10" x="90" y="310" fill="#cbc1bc" /><rect width="110" height="10" x="120" y="310" fill="#cbc1bc" /><rect width="10" height="10" x="180" y="230" fill="#ffffff" /><rect width="50" height="10" x="160" y="240" fill="#ffc110" /><rect width="50" height="10" x="160" y="250" fill="#ffffff" /><rect width="50" height="10" x="160" y="260" fill="#ffffff" /><rect width="260" height="10" x="30" y="90" fill="#aaa6a4" /><rect width="10" height="10" x="30" y="100" fill="#aaa6a4" /><rect width="10" height="10" x="280" y="100" fill="#aaa6a4" /><rect width="10" height="10" x="30" y="110" fill="#aaa6a4" /><rect width="10" height="10" x="280" y="110" fill="#aaa6a4" /><rect width="10" height="10" x="30" y="120" fill="#aaa6a4" /><rect width="10" height="10" x="280" y="120" fill="#aaa6a4" /><rect width="10" height="10" x="30" y="130" fill="#aaa6a4" /><rect width="160" height="10" x="70" y="130" fill="#aaa6a4" /><rect width="10" height="10" x="280" y="130" fill="#aaa6a4" /><rect width="10" height="10" x="30" y="140" fill="#aaa6a4" /><rect width="10" height="10" x="70" y="140" fill="#aaa6a4" /><rect width="10" height="10" x="280" y="140" fill="#aaa6a4" /><rect width="10" height="10" x="30" y="150" fill="#aaa6a4" /><rect width="10" height="10" x="70" y="150" fill="#aaa6a4" /><rect width="10" height="10" x="280" y="150" fill="#aaa6a4" /><rect width="10" height="10" x="30" y="160" fill="#aaa6a4" /><rect width="10" height="10" x="70" y="160" fill="#aaa6a4" /><rect width="10" height="10" x="280" y="160" fill="#aaa6a4" /><rect width="10" height="10" x="30" y="170" fill="#aaa6a4" /><rect width="10" height="10" x="70" y="170" fill="#aaa6a4" /><rect width="10" height="10" x="280" y="170" fill="#aaa6a4" /><rect width="10" height="10" x="30" y="180" fill="#aaa6a4" /><rect width="220" height="10" x="70" y="180" fill="#aaa6a4" /><rect width="10" height="10" x="30" y="190" fill="#aaa6a4" /><rect width="200" height="10" x="30" y="200" fill="#aaa6a4" /><rect width="60" height="10" x="100" y="110" fill="#d7d3cd" /><rect width="60" height="10" x="170" y="110" fill="#d7d3cd" /><rect width="10" height="10" x="100" y="120" fill="#d7d3cd" /><rect width="20" height="10" x="110" y="120" fill="#fdf8ff" /><rect width="20" height="10" x="130" y="120" fill="#000000" /><rect width="10" height="10" x="150" y="120" fill="#d7d3cd" /><rect width="10" height="10" x="170" y="120" fill="#d7d3cd" /><rect width="20" height="10" x="180" y="120" fill="#fdf8ff" /><rect width="20" height="10" x="200" y="120" fill="#000000" /><rect width="10" height="10" x="220" y="120" fill="#d7d3cd" /><rect width="40" height="10" x="70" y="130" fill="#d7d3cd" /><rect width="20" height="10" x="110" y="130" fill="#fdf8ff" /><rect width="20" height="10" x="130" y="130" fill="#000000" /><rect width="30" height="10" x="150" y="130" fill="#d7d3cd" /><rect width="20" height="10" x="180" y="130" fill="#fdf8ff" /><rect width="20" height="10" x="200" y="130" fill="#000000" /><rect width="10" height="10" x="220" y="130" fill="#d7d3cd" /><rect width="10" height="10" x="70" y="140" fill="#d7d3cd" /><rect width="10" height="10" x="100" y="140" fill="#d7d3cd" /><rect width="20" height="10" x="110" y="140" fill="#fdf8ff" /><rect width="20" height="10" x="130" y="140" fill="#000000" /><rect width="10" height="10" x="150" y="140" fill="#d7d3cd" /><rect width="10" height="10" x="170" y="140" fill="#d7d3cd" /><rect width="20" height="10" x="180" y="140" fill="#fdf8ff" /><rect width="20" height="10" x="200" y="140" fill="#000000" /><rect width="10" height="10" x="220" y="140" fill="#d7d3cd" /><rect width="10" height="10" x="70" y="150" fill="#d7d3cd" /><rect width="10" height="10" x="100" y="150" fill="#d7d3cd" /><rect width="20" height="10" x="110" y="150" fill="#fdf8ff" /><rect width="20" height="10" x="130" y="150" fill="#000000" /><rect width="10" height="10" x="150" y="150" fill="#d7d3cd" /><rect width="10" height="10" x="170" y="150" fill="#d7d3cd" /><rect width="20" height="10" x="180" y="150" fill="#fdf8ff" /><rect width="20" height="10" x="200" y="150" fill="#000000" /><rect width="10" height="10" x="220" y="150" fill="#d7d3cd" /><rect width="60" height="10" x="100" y="160" fill="#d7d3cd" /><rect width="60" height="10" x="170" y="160" fill="#d7d3cd" /></svg>