<svg xmlns:xlink="http://www.w3.org/1999/xlink" width="320" height="320" viewBox="0 0 320 320" xmlns="http://www.w3.org/2000/svg" shape-rendering="crispEdges"><rect width="100%" height="100%" fill="#e1d7d5" /><rect width="140" height="10" x="90" y="210" fill="#b9185c" /><rect width="140" height="10" x="90" y="220" fill="#b9185c" /><rect width="140" height="10" x="90" y="230" fill="#b9185c" /><rect width="140" height="10" x="90" y="240" fill="#b9185c" /><rect width="20" height="10" x="90" y="250" fill="#b9185c" /><rect width="110" height="10" x="120" y="250" fill="#b9185c" /><rect width="20" height="10" x="90" y="260" fill="#b9185c" /><rect width="110" height="10" x="120" y="260" fill="#b9185c" /><rect width="20" height="10" x="90" y="270" fill="#b9185c" /><rect width="110" height="10" x="120" y="270" fill="#b9185c" /><rect width="20" height="10" x="90" y="280" fill="#b9185c" /><rect width="110" height="10" x="120" y="280" fill="#b9185c" /><rect width="20" height="10" x="90" y="290" fill="#b9185c" /><rect width="110" height="10" x="120" y="290" fill="#b9185c" /><rect width="20" height="10" x="90" y="300" fill="#b9185c" /><rect width="110" height="10" x="120" y="300" fill="#b9185c" /><rect width="20" height="10" x="90" y="310" fill="#b9185c" /><rect width="110" height="10" x="120" y="310" fill="#b9185c" /><rect width="10" height="10" x="160" y="220" fill="#eab118" /><rect width="10" height="10" x="150" y="230" fill="#eab118" /><rect width="10" height="10" x="160" y="230" fill="#db8323" /><rect width="10" height="10" x="170" y="230" fill="#eab118" /><rect width="10" height="10" x="160" y="240" fill="#eab118" /><rect width="30" height="10" x="150" y="250" fill="#eab118" /><rect width="10" height="10" x="140" y="260" fill="#eab118" /><rect width="30" height="10" x="150" y="260" fill="#db8323" /><rect width="10" height="10" x="180" y="260" fill="#eab118" /><rect width="20" height="10" x="140" y="270" fill="#eab118" /><rect width="20" height="10" x="160" y="270" fill="#db8323" /><rect width="10" height="10" x="180" y="270" fill="#eab118" /><rect width="10" height="10" x="140" y="280" fill="#eab118" /><rect width="30" height="10" x="150" y="280" fill="#db8323" /><rect width="10" height="10" x="180" y="280" fill="#eab118" /><rect width="30" height="10" x="150" y="290" fill="#eab118" /><rect width="10" height="10" x="130" y="20" fill="#fde7f5" /><rect width="10" height="10" x="160" y="20" fill="#fdf008" /><rect width="10" height="10" x="190" y="20" fill="#fde7f5" /><rect width="10" height="10" x="130" y="30" fill="#fde7f5" /><rect width="10" height="10" x="140" y="30" fill="#fdcef2" /><rect width="10" height="10" x="160" y="30" fill="#fdf008" /><rect width="10" height="10" x="180" y="30" fill="#fdcef2" /><rect width="10" height="10" x="190" y="30" fill="#fde7f5" /><rect width="10" height="10" x="110" y="40" fill="#fde7f5" /><rect width="10" height="10" x="140" y="40" fill="#fdcef2" /><rect width="10" height="10" x="150" y="40" fill="#f681e6" /><rect width="10" height="10" x="160" y="40" fill="#fdf008" /><rect width="10" height="10" x="170" y="40" fill="#f681e6" /><rect width="10" height="10" x="180" y="40" fill="#fdcef2" /><rect width="10" height="10" x="210" y="40" fill="#fde7f5" /><rect width="20" height="10" x="120" y="50" fill="#fdcef2" /><rect width="50" height="10" x="140" y="50" fill="#f681e6" /><rect width="20" height="10" x="190" y="50" fill="#fdcef2" /><rect width="10" height="10" x="80" y="60" fill="#fde7f5" /><rect width="20" height="10" x="100" y="60" fill="#27a463" /><rect width="10" height="10" x="120" y="60" fill="#018146" /><rect width="20" height="10" x="130" y="60" fill="#27a463" /><rect width="30" height="10" x="150" y="60" fill="#018146" /><rect width="20" height="10" x="180" y="60" fill="#27a463" /><rect width="10" height="10" x="200" y="60" fill="#018146" /><rect width="20" height="10" x="210" y="60" fill="#27a463" /><rect width="10" height="10" x="240" y="60" fill="#fde7f5" /><rect width="20" height="10" x="70" y="70" fill="#fde7f5" /><rect width="20" height="10" x="90" y="70" fill="#27a463" /><rect width="10" height="10" x="110" y="70" fill="#018146" /><rect width="40" height="10" x="120" y="70" fill="#27a463" /><rect width="10" height="10" x="160" y="70" fill="#018146" /><rect width="40" height="10" x="170" y="70" fill="#27a463" /><rect width="10" height="10" x="210" y="70" fill="#018146" /><rect width="20" height="10" x="220" y="70" fill="#27a463" /><rect width="20" height="10" x="240" y="70" fill="#fde7f5" /><rect width="20" height="10" x="80" y="80" fill="#27a463" /><rect width="10" height="10" x="100" y="80" fill="#018146" /><rect width="20" height="10" x="110" y="80" fill="#27a463" /><rect width="20" height="10" x="130" y="80" fill="#fde7f5" /><rect width="10" height="10" x="150" y="80" fill="#27a463" /><rect width="10" height="10" x="160" y="80" fill="#018146" /><rect width="10" height="10" x="170" y="80" fill="#27a463" /><rect width="20" height="10" x="180" y="80" fill="#fde7f5" /><rect width="20" height="10" x="200" y="80" fill="#27a463" /><rect width="10" height="10" x="220" y="80" fill="#018146" /><rect width="20" height="10" x="230" y="80" fill="#27a463" /><rect width="20" height="10" x="70" y="90" fill="#27a463" /><rect width="10" height="10" x="90" y="90" fill="#018146" /><rect width="20" height="10" x="100" y="90" fill="#27a463" /><rect width="20" height="10" x="120" y="90" fill="#fde7f5" /><rect width="20" height="10" x="140" y="90" fill="#27a463" /><rect width="10" height="10" x="160" y="90" fill="#018146" /><rect width="20" height="10" x="170" y="90" fill="#27a463" /><rect width="20" height="10" x="190" y="90" fill="#fde7f5" /><rect width="20" height="10" x="210" y="90" fill="#27a463" /><rect width="10" height="10" x="230" y="90" fill="#018146" /><rect width="20" height="10" x="240" y="90" fill="#27a463" /><rect width="20" height="10" x="60" y="100" fill="#27a463" /><rect width="10" height="10" x="80" y="100" fill="#018146" /><rect width="150" height="10" x="90" y="100" fill="#27a463" /><rect width="10" height="10" x="240" y="100" fill="#018146" /><rect width="20" height="10" x="250" y="100" fill="#27a463" /><rect width="230" height="10" x="50" y="110" fill="#27a463" /><rect width="10" height="10" x="30" y="120" fill="#fde7f5" /><rect width="230" height="10" x="50" y="120" fill="#27a463" /><rect width="10" height="10" x="290" y="120" fill="#fde7f5" /><rect width="10" height="10" x="40" y="130" fill="#fde7f5" /><rect width="230" height="10" x="50" y="130" fill="#27a463" /><rect width="10" height="10" x="280" y="130" fill="#fde7f5" /><rect width="20" height="10" x="30" y="140" fill="#fde7f5" /><rect width="230" height="10" x="50" y="140" fill="#27a463" /><rect width="20" height="10" x="280" y="140" fill="#fde7f5" /><rect width="10" height="10" x="40" y="150" fill="#fde7f5" /><rect width="230" height="10" x="50" y="150" fill="#27a463" /><rect width="10" height="10" x="280" y="150" fill="#fde7f5" /><rect width="10" height="10" x="30" y="160" fill="#fde7f5" /><rect width="230" height="10" x="50" y="160" fill="#27a463" /><rect width="10" height="10" x="290" y="160" fill="#fde7f5" /><rect width="20" height="10" x="50" y="170" fill="#27a463" /><rect width="10" height="10" x="70" y="170" fill="#fdf008" /><rect width="170" height="10" x="80" y="170" fill="#27a463" /><rect width="10" height="10" x="250" y="170" fill="#fdf008" /><rect width="20" height="10" x="260" y="170" fill="#27a463" /><rect width="10" height="10" x="60" y="180" fill="#27a463" /><rect width="190" height="10" x="70" y="180" fill="#fdf008" /><rect width="10" height="10" x="260" y="180" fill="#27a463" /><rect width="210" height="10" x="60" y="190" fill="#27a463" /><rect width="170" height="10" x="80" y="200" fill="#27a463" /><rect width="60" height="10" x="100" y="110" fill="#d19a54" /><rect width="60" height="10" x="170" y="110" fill="#d19a54" /><rect width="10" height="10" x="100" y="120" fill="#d19a54" /><rect width="20" height="10" x="110" y="120" fill="#ffffff" /><rect width="20" height="10" x="130" y="120" fill="#000000" /><rect width="10" height="10" x="150" y="120" fill="#d19a54" /><rect width="10" height="10" x="170" y="120" fill="#d19a54" /><rect width="20" height="10" x="180" y="120" fill="#ffffff" /><rect width="20" height="10" x="200" y="120" fill="#000000" /><rect width="10" height="10" x="220" y="120" fill="#d19a54" /><rect width="40" height="10" x="70" y="130" fill="#d19a54" /><rect width="20" height="10" x="110" y="130" fill="#ffffff" /><rect width="20" height="10" x="130" y="130" fill="#000000" /><rect width="30" height="10" x="150" y="130" fill="#d19a54" /><rect width="20" height="10" x="180" y="130" fill="#ffffff" /><rect width="20" height="10" x="200" y="130" fill="#000000" /><rect width="10" height="10" x="220" y="130" fill="#d19a54" /><rect width="10" height="10" x="70" y="140" fill="#d19a54" /><rect width="10" height="10" x="100" y="140" fill="#d19a54" /><rect width="20" height="10" x="110" y="140" fill="#ffffff" /><rect width="20" height="10" x="130" y="140" fill="#000000" /><rect width="10" height="10" x="150" y="140" fill="#d19a54" /><rect width="10" height="10" x="170" y="140" fill="#d19a54" /><rect width="20" height="10" x="180" y="140" fill="#ffffff" /><rect width="20" height="10" x="200" y="140" fill="#000000" /><rect width="10" height="10" x="220" y="140" fill="#d19a54" /><rect width="10" height="10" x="70" y="150" fill="#d19a54" /><rect width="10" height="10" x="100" y="150" fill="#d19a54" /><rect width="20" height="10" x="110" y="150" fill="#ffffff" /><rect width="20" height="10" x="130" y="150" fill="#000000" /><rect width="10" height="10" x="150" y="150" fill="#d19a54" /><rect width="10" height="10" x="170" y="150" fill="#d19a54" /><rect width="20" height="10" x="180" y="150" fill="#ffffff" /><rect width="20" height="10" x="200" y="150" fill="#000000" /><rect width="10" height="10" x="220" y="150" fill="#d19a54" /><rect width="60" height="10" x="100" y="160" fill="#d19a54" /><rect width="60" height="10" x="170" y="160" fill="#d19a54" /></svg>