<svg xmlns:xlink="http://www.w3.org/1999/xlink" width="320" height="320" viewBox="0 0 320 320" xmlns="http://www.w3.org/2000/svg" shape-rendering="crispEdges"><rect width="100%" height="100%" fill="#d5d7e1" /><rect width="140" height="10" x="90" y="210" fill="#cbc1bc" /><rect width="140" height="10" x="90" y="220" fill="#cbc1bc" /><rect width="140" height="10" x="90" y="230" fill="#cbc1bc" /><rect width="140" height="10" x="90" y="240" fill="#cbc1bc" /><rect width="20" height="10" x="90" y="250" fill="#cbc1bc" /><rect width="110" height="10" x="120" y="250" fill="#cbc1bc" /><rect width="20" height="10" x="90" y="260" fill="#cbc1bc" /><rect width="110" height="10" x="120" y="260" fill="#cbc1bc" /><rect width="20" height="10" x="90" y="270" fill="#cbc1bc" /><rect width="110" height="10" x="120" y="270" fill="#cbc1bc" /><rect width="20" height="10" x="90" y="280" fill="#cbc1bc" /><rect width="110" height="10" x="120" y="280" fill="#cbc1bc" /><rect width="20" height="10" x="90" y="290" fill="#cbc1bc" /><rect width="110" height="10" x="120" y="290" fill="#cbc1bc" /><rect width="20" height="10" x="90" y="300" fill="#cbc1bc" /><rect width="110" height="10" x="120" y="300" fill="#cbc1bc" /><rect width="20" height="10" x="90" y="310" fill="#cbc1bc" /><rect width="110" height="10" x="120" y="310" fill="#cbc1bc" /><rect width="30" height="10" x="130" y="210" fill="#5648ed" /><rect width="30" height="10" x="170" y="210" fill="#5648ed" /><rect width="20" height="10" x="210" y="210" fill="#5648ed" /><rect width="30" height="10" x="90" y="220" fill="#5648ed" /><rect width="30" height="10" x="130" y="220" fill="#5648ed" /><rect width="30" height="10" x="170" y="220" fill="#5648ed" /><rect width="30" height="10" x="90" y="230" fill="#5648ed" /><rect width="30" height="10" x="130" y="230" fill="#5648ed" /><rect width="30" height="10" x="90" y="240" fill="#5648ed" /><rect width="30" height="10" x="190" y="240" fill="#5648ed" /><rect width="30" height="10" x="150" y="250" fill="#5648ed" /><rect width="30" height="10" x="190" y="250" fill="#5648ed" /><rect width="20" height="10" x="120" y="260" fill="#5648ed" /><rect width="30" height="10" x="150" y="260" fill="#5648ed" /><rect width="30" height="10" x="190" y="260" fill="#5648ed" /><rect width="10" height="10" x="90" y="270" fill="#5648ed" /><rect width="20" height="10" x="120" y="270" fill="#5648ed" /><rect width="30" height="10" x="150" y="270" fill="#5648ed" /><rect width="10" height="10" x="90" y="280" fill="#5648ed" /><rect width="20" height="10" x="120" y="280" fill="#5648ed" /><rect width="20" height="10" x="210" y="280" fill="#5648ed" /><rect width="10" height="10" x="90" y="290" fill="#5648ed" /><rect width="30" height="10" x="170" y="290" fill="#5648ed" /><rect width="20" height="10" x="210" y="290" fill="#5648ed" /><rect width="30" height="10" x="130" y="300" fill="#5648ed" /><rect width="30" height="10" x="170" y="300" fill="#5648ed" /><rect width="20" height="10" x="210" y="300" fill="#5648ed" /><rect width="20" height="10" x="90" y="310" fill="#5648ed" /><rect width="30" height="10" x="130" y="310" fill="#5648ed" /><rect width="30" height="10" x="170" y="310" fill="#5648ed" /><rect width="60" height="10" x="130" y="30" fill="#000000" /><rect width="60" height="10" x="130" y="40" fill="#000000" /><rect width="160" height="10" x="80" y="50" fill="#000000" /><rect width="30" height="10" x="50" y="60" fill="#f78a18" /><rect width="70" height="10" x="80" y="60" fill="#ffc110" /><rect width="70" height="10" x="150" y="60" fill="#f9f4e6" /><rect width="20" height="10" x="220" y="60" fill="#ffc110" /><rect width="10" height="10" x="60" y="70" fill="#f78a18" /><rect width="70" height="10" x="80" y="70" fill="#ffc110" /><rect width="70" height="10" x="150" y="70" fill="#f9f4e6" /><rect width="20" height="10" x="220" y="70" fill="#ffc110" /><rect width="30" height="10" x="50" y="80" fill="#f78a18" /><rect width="70" height="10" x="80" y="80" fill="#ffc110" /><rect width="70" height="10" x="150" y="80" fill="#f9f4e6" /><rect width="20" height="10" x="220" y="80" fill="#ffc110" /><rect width="30" height="10" x="50" y="90" fill="#f78a18" /><rect width="70" height="10" x="80" y="90" fill="#ffc110" /><rect width="70" height="10" x="150" y="90" fill="#f9f4e6" /><rect width="20" height="10" x="220" y="90" fill="#ffc110" /><rect width="30" height="10" x="50" y="100" fill="#f78a18" /><rect width="70" height="10" x="80" y="100" fill="#ffc110" /><rect width="70" height="10" x="150" y="100" fill="#f9f4e6" /><rect width="20" height="10" x="220" y="100" fill="#ffc110" /><rect width="30" height="10" x="50" y="110" fill="#f78a18" /><rect width="70" height="10" x="80" y="110" fill="#ffc110" /><rect width="70" height="10" x="150" y="110" fill="#f9f4e6" /><rect width="20" height="10" x="220" y="110" fill="#ffc110" /><rect width="30" height="10" x="50" y="120" fill="#f78a18" /><rect width="70" height="10" x="80" y="120" fill="#ffc110" /><rect width="70" height="10" x="150" y="120" fill="#f9f4e6" /><rect width="20" height="10" x="220" y="120" fill="#ffc110" /><rect width="30" height="10" x="50" y="130" fill="#f78a18" /><rect width="70" height="10" x="80" y="130" fill="#ffc110" /><rect width="70" height="10" x="150" y="130" fill="#f9f4e6" /><rect width="20" height="10" x="220" y="130" fill="#ffc110" /><rect width="30" height="10" x="50" y="140" fill="#f78a18" /><rect width="70" height="10" x="80" y="140" fill="#ffc110" /><rect width="70" height="10" x="150" y="140" fill="#f9f4e6" /><rect width="20" height="10" x="220" y="140" fill="#ffc110" /><rect width="30" height="10" x="50" y="150" fill="#f78a18" /><rect width="70" height="10" x="80" y="150" fill="#ffc110" /><rect width="70" height="10" x="150" y="150" fill="#f9f4e6" /><rect width="20" height="10" x="220" y="150" fill="#ffc110" /><rect width="30" height="10" x="50" y="160" fill="#f78a18" /><rect width="70" height="10" x="80" y="160" fill="#ffc110" /><rect width="70" height="10" x="150" y="160" fill="#f9f4e6" /><rect width="20" height="10" x="220" y="160" fill="#ffc110" /><rect width="30" height="10" x="50" y="170" fill="#f78a18" /><rect width="70" height="10" x="80" y="170" fill="#ffc110" /><rect width="70" height="10" x="150" y="170" fill="#f9f4e6" /><rect width="20" height="10" x="220" y="170" fill="#ffc110" /><rect width="10" height="10" x="60" y="180" fill="#f78a18" /><rect width="20" height="10" x="80" y="180" fill="#ffc110" /><rect width="30" height="10" x="100" y="180" fill="#9f4b27" /><rect width="20" height="10" x="130" y="180" fill="#ffc110" /><rect width="70" height="10" x="150" y="180" fill="#f9f4e6" /><rect width="20" height="10" x="220" y="180" fill="#ffc110" /><rect width="30" height="10" x="50" y="190" fill="#f78a18" /><rect width="70" height="10" x="80" y="190" fill="#ffc110" /><rect width="70" height="10" x="150" y="190" fill="#f9f4e6" /><rect width="20" height="10" x="220" y="190" fill="#ffc110" /><rect width="160" height="10" x="80" y="200" fill="#000000" /><rect width="60" height="10" x="100" y="110" fill="#068940" /><rect width="60" height="10" x="170" y="110" fill="#257ced" /><rect width="10" height="10" x="100" y="120" fill="#068940" /><rect width="20" height="10" x="110" y="120" fill="#ffffff" /><rect width="20" height="10" x="130" y="120" fill="#000000" /><rect width="10" height="10" x="150" y="120" fill="#068940" /><rect width="10" height="10" x="170" y="120" fill="#257ced" /><rect width="20" height="10" x="180" y="120" fill="#ffffff" /><rect width="20" height="10" x="200" y="120" fill="#000000" /><rect width="10" height="10" x="220" y="120" fill="#257ced" /><rect width="30" height="10" x="70" y="130" fill="#257ced" /><rect width="10" height="10" x="100" y="130" fill="#068940" /><rect width="20" height="10" x="110" y="130" fill="#ffffff" /><rect width="20" height="10" x="130" y="130" fill="#000000" /><rect width="10" height="10" x="150" y="130" fill="#068940" /><rect width="20" height="10" x="160" y="130" fill="#257ced" /><rect width="20" height="10" x="180" y="130" fill="#ffffff" /><rect width="20" height="10" x="200" y="130" fill="#000000" /><rect width="10" height="10" x="220" y="130" fill="#257ced" /><rect width="10" height="10" x="70" y="140" fill="#257ced" /><rect width="10" height="10" x="100" y="140" fill="#068940" /><rect width="20" height="10" x="110" y="140" fill="#ffffff" /><rect width="20" height="10" x="130" y="140" fill="#000000" /><rect width="10" height="10" x="150" y="140" fill="#068940" /><rect width="10" height="10" x="170" y="140" fill="#257ced" /><rect width="20" height="10" x="180" y="140" fill="#ffffff" /><rect width="20" height="10" x="200" y="140" fill="#000000" /><rect width="10" height="10" x="220" y="140" fill="#257ced" /><rect width="10" height="10" x="70" y="150" fill="#257ced" /><rect width="10" height="10" x="100" y="150" fill="#068940" /><rect width="20" height="10" x="110" y="150" fill="#ffffff" /><rect width="20" height="10" x="130" y="150" fill="#000000" /><rect width="10" height="10" x="150" y="150" fill="#068940" /><rect width="10" height="10" x="170" y="150" fill="#257ced" /><rect width="20" height="10" x="180" y="150" fill="#ffffff" /><rect width="20" height="10" x="200" y="150" fill="#000000" /><rect width="10" height="10" x="220" y="150" fill="#257ced" /><rect width="60" height="10" x="100" y="160" fill="#068940" /><rect width="60" height="10" x="170" y="160" fill="#257ced" /></svg>