<svg xmlns:xlink="http://www.w3.org/1999/xlink" width="320" height="320" viewBox="0 0 320 320" xmlns="http://www.w3.org/2000/svg" shape-rendering="crispEdges"><rect width="100%" height="100%" fill="#d5d7e1" /><rect width="140" height="10" x="90" y="210" fill="#f98f30" /><rect width="140" height="10" x="90" y="220" fill="#f98f30" /><rect width="140" height="10" x="90" y="230" fill="#f98f30" /><rect width="140" height="10" x="90" y="240" fill="#f98f30" /><rect width="20" height="10" x="90" y="250" fill="#f98f30" /><rect width="110" height="10" x="120" y="250" fill="#f98f30" /><rect width="20" height="10" x="90" y="260" fill="#f98f30" /><rect width="110" height="10" x="120" y="260" fill="#f98f30" /><rect width="20" height="10" x="90" y="270" fill="#f98f30" /><rect width="110" height="10" x="120" y="270" fill="#f98f30" /><rect width="20" height="10" x="90" y="280" fill="#f98f30" /><rect width="110" height="10" x="120" y="280" fill="#f98f30" /><rect width="20" height="10" x="90" y="290" fill="#f98f30" /><rect width="110" height="10" x="120" y="290" fill="#f98f30" /><rect width="20" height="10" x="90" y="300" fill="#f98f30" /><rect width="110" height="10" x="120" y="300" fill="#f98f30" /><rect width="20" height="10" x="90" y="310" fill="#f98f30" /><rect width="110" height="10" x="120" y="310" fill="#f98f30" /><rect width="10" height="10" x="160" y="220" fill="#eab118" /><rect width="10" height="10" x="150" y="230" fill="#eab118" /><rect width="10" height="10" x="160" y="230" fill="#db8323" /><rect width="10" height="10" x="170" y="230" fill="#eab118" /><rect width="10" height="10" x="160" y="240" fill="#eab118" /><rect width="30" height="10" x="150" y="250" fill="#eab118" /><rect width="10" height="10" x="140" y="260" fill="#eab118" /><rect width="30" height="10" x="150" y="260" fill="#db8323" /><rect width="10" height="10" x="180" y="260" fill="#eab118" /><rect width="20" height="10" x="140" y="270" fill="#eab118" /><rect width="20" height="10" x="160" y="270" fill="#db8323" /><rect width="10" height="10" x="180" y="270" fill="#eab118" /><rect width="10" height="10" x="140" y="280" fill="#eab118" /><rect width="30" height="10" x="150" y="280" fill="#db8323" /><rect width="10" height="10" x="180" y="280" fill="#eab118" /><rect width="30" height="10" x="150" y="290" fill="#eab118" /><rect width="30" height="10" x="130" y="20" fill="#eed811" /><rect width="80" height="10" x="120" y="30" fill="#eed811" /><rect width="120" height="10" x="120" y="40" fill="#eed811" /><rect width="120" height="10" x="110" y="50" fill="#eed811" /><rect width="110" height="10" x="110" y="60" fill="#eed811" /><rect width="110" height="10" x="100" y="70" fill="#eed811" /><rect width="100" height="10" x="100" y="80" fill="#eed811" /><rect width="100" height="10" x="90" y="90" fill="#eed811" /><rect width="90" height="10" x="90" y="100" fill="#eed811" /><rect width="90" height="10" x="80" y="110" fill="#eed811" /><rect width="80" height="10" x="80" y="120" fill="#eed811" /><rect width="230" height="10" x="70" y="130" fill="#eed811" /><rect width="220" height="10" x="70" y="140" fill="#eed811" /><rect width="210" height="10" x="60" y="150" fill="#eed811" /><rect width="190" height="10" x="60" y="160" fill="#eed811" /><rect width="180" height="10" x="50" y="170" fill="#eed811" /><rect width="110" height="10" x="100" y="180" fill="#eed811" /><rect width="100" height="10" x="90" y="190" fill="#eed811" /><rect width="80" height="10" x="90" y="200" fill="#eed811" /><rect width="70" height="10" x="80" y="210" fill="#eed811" /><rect width="50" height="10" x="80" y="220" fill="#eed811" /><rect width="40" height="10" x="70" y="230" fill="#eed811" /><rect width="20" height="10" x="70" y="240" fill="#eed811" /><rect width="10" height="10" x="60" y="250" fill="#eed811" /><rect width="60" height="10" x="100" y="110" fill="#d7d3cd" /><rect width="60" height="10" x="170" y="110" fill="#d7d3cd" /><rect width="10" height="10" x="100" y="120" fill="#d7d3cd" /><rect width="20" height="10" x="110" y="120" fill="#fdf8ff" /><rect width="20" height="10" x="130" y="120" fill="#000000" /><rect width="10" height="10" x="150" y="120" fill="#d7d3cd" /><rect width="10" height="10" x="170" y="120" fill="#d7d3cd" /><rect width="20" height="10" x="180" y="120" fill="#fdf8ff" /><rect width="20" height="10" x="200" y="120" fill="#000000" /><rect width="10" height="10" x="220" y="120" fill="#d7d3cd" /><rect width="40" height="10" x="70" y="130" fill="#d7d3cd" /><rect width="20" height="10" x="110" y="130" fill="#fdf8ff" /><rect width="20" height="10" x="130" y="130" fill="#000000" /><rect width="30" height="10" x="150" y="130" fill="#d7d3cd" /><rect width="20" height="10" x="180" y="130" fill="#fdf8ff" /><rect width="20" height="10" x="200" y="130" fill="#000000" /><rect width="10" height="10" x="220" y="130" fill="#d7d3cd" /><rect width="10" height="10" x="70" y="140" fill="#d7d3cd" /><rect width="10" height="10" x="100" y="140" fill="#d7d3cd" /><rect width="20" height="10" x="110" y="140" fill="#fdf8ff" /><rect width="20" height="10" x="130" y="140" fill="#000000" /><rect width="10" height="10" x="150" y="140" fill="#d7d3cd" /><rect width="10" height="10" x="170" y="140" fill="#d7d3cd" /><rect width="20" height="10" x="180" y="140" fill="#fdf8ff" /><rect width="20" height="10" x="200" y="140" fill="#000000" /><rect width="10" height="10" x="220" y="140" fill="#d7d3cd" /><rect width="10" height="10" x="70" y="150" fill="#d7d3cd" /><rect width="10" height="10" x="100" y="150" fill="#d7d3cd" /><rect width="20" height="10" x="110" y="150" fill="#fdf8ff" /><rect width="20" height="10" x="130" y="150" fill="#000000" /><rect width="10" height="10" x="150" y="150" fill="#d7d3cd" /><rect width="10" height="10" x="170" y="150" fill="#d7d3cd" /><rect width="20" height="10" x="180" y="150" fill="#fdf8ff" /><rect width="20" height="10" x="200" y="150" fill="#000000" /><rect width="10" height="10" x="220" y="150" fill="#d7d3cd" /><rect width="60" height="10" x="100" y="160" fill="#d7d3cd" /><rect width="60" height="10" x="170" y="160" fill="#d7d3cd" /></svg>