<svg xmlns:xlink="http://www.w3.org/1999/xlink" width="320" height="320" viewBox="0 0 320 320" xmlns="http://www.w3.org/2000/svg" shape-rendering="crispEdges"><rect width="100%" height="100%" fill="#d5d7e1" /><rect width="140" height="10" x="90" y="210" fill="#5a423f" /><rect width="140" height="10" x="90" y="220" fill="#5a423f" /><rect width="140" height="10" x="90" y="230" fill="#5a423f" /><rect width="140" height="10" x="90" y="240" fill="#5a423f" /><rect width="20" height="10" x="90" y="250" fill="#5a423f" /><rect width="110" height="10" x="120" y="250" fill="#5a423f" /><rect width="20" height="10" x="90" y="260" fill="#5a423f" /><rect width="110" height="10" x="120" y="260" fill="#5a423f" /><rect width="20" height="10" x="90" y="270" fill="#5a423f" /><rect width="110" height="10" x="120" y="270" fill="#5a423f" /><rect width="20" height="10" x="90" y="280" fill="#5a423f" /><rect width="110" height="10" x="120" y="280" fill="#5a423f" /><rect width="20" height="10" x="90" y="290" fill="#5a423f" /><rect width="110" height="10" x="120" y="290" fill="#5a423f" /><rect width="20" height="10" x="90" y="300" fill="#5a423f" /><rect width="110" height="10" x="120" y="300" fill="#5a423f" /><rect width="20" height="10" x="90" y="310" fill="#5a423f" /><rect width="110" height="10" x="120" y="310" fill="#5a423f" /><rect width="10" height="10" x="140" y="230" fill="#ffffff" /><rect width="10" height="10" x="180" y="230" fill="#ffffff" /><rect width="20" height="10" x="130" y="240" fill="#ffffff" /><rect width="10" height="10" x="160" y="240" fill="#ffffff" /><rect width="20" height="10" x="180" y="240" fill="#ffffff" /><rect width="30" height="10" x="150" y="250" fill="#ffffff" /><rect width="50" height="10" x="140" y="260" fill="#ffffff" /><rect width="30" height="10" x="150" y="270" fill="#ffffff" /><rect width="20" height="10" x="130" y="280" fill="#ffffff" /><rect width="10" height="10" x="160" y="280" fill="#ffffff" /><rect width="20" height="10" x="180" y="280" fill="#ffffff" /><rect width="10" height="10" x="140" y="290" fill="#ffffff" /><rect width="10" height="10" x="180" y="290" fill="#ffffff" /><rect width="10" height="10" x="150" y="10" fill="#cd916d" /><rect width="30" height="10" x="150" y="20" fill="#068940" /><rect width="10" height="10" x="150" y="30" fill="#cd916d" /><rect width="10" height="10" x="180" y="30" fill="#068940" /><rect width="10" height="10" x="200" y="30" fill="#cd916d" /><rect width="20" height="10" x="150" y="40" fill="#068940" /><rect width="10" height="10" x="200" y="40" fill="#068940" /><rect width="10" height="10" x="210" y="40" fill="#74580d" /><rect width="10" height="10" x="150" y="50" fill="#5a423f" /><rect width="10" height="10" x="160" y="50" fill="#068940" /><rect width="10" height="10" x="170" y="50" fill="#74580d" /><rect width="20" height="10" x="180" y="50" fill="#068940" /><rect width="10" height="10" x="200" y="50" fill="#5a423f" /><rect width="10" height="10" x="210" y="50" fill="#74580d" /><rect width="10" height="10" x="220" y="50" fill="#068940" /><rect width="20" height="10" x="150" y="60" fill="#068940" /><rect width="10" height="10" x="170" y="60" fill="#74580d" /><rect width="20" height="10" x="180" y="60" fill="#068940" /><rect width="10" height="10" x="200" y="60" fill="#cd916d" /><rect width="10" height="10" x="210" y="60" fill="#74580d" /><rect width="20" height="10" x="220" y="60" fill="#068940" /><rect width="10" height="10" x="60" y="70" fill="#cd916d" /><rect width="10" height="10" x="150" y="70" fill="#cd916d" /><rect width="10" height="10" x="170" y="70" fill="#74580d" /><rect width="10" height="10" x="180" y="70" fill="#068940" /><rect width="10" height="10" x="200" y="70" fill="#5a423f" /><rect width="20" height="10" x="220" y="70" fill="#068940" /><rect width="10" height="10" x="240" y="70" fill="#cd916d" /><rect width="10" height="10" x="70" y="80" fill="#5a423f" /><rect width="10" height="10" x="150" y="80" fill="#5a423f" /><rect width="10" height="10" x="200" y="80" fill="#5a423f" /><rect width="10" height="10" x="230" y="80" fill="#068940" /><rect width="10" height="10" x="240" y="80" fill="#74580d" /><rect width="10" height="10" x="250" y="80" fill="#068940" /><rect width="10" height="10" x="80" y="90" fill="#5a423f" /><rect width="10" height="10" x="150" y="90" fill="#5a423f" /><rect width="10" height="10" x="190" y="90" fill="#5a423f" /><rect width="10" height="10" x="230" y="90" fill="#cd916d" /><rect width="10" height="10" x="240" y="90" fill="#74580d" /><rect width="10" height="10" x="250" y="90" fill="#068940" /><rect width="10" height="10" x="90" y="100" fill="#5a423f" /><rect width="10" height="10" x="150" y="100" fill="#5a423f" /><rect width="10" height="10" x="190" y="100" fill="#5a423f" /><rect width="10" height="10" x="220" y="100" fill="#5a423f" /><rect width="10" height="10" x="240" y="100" fill="#74580d" /><rect width="10" height="10" x="250" y="100" fill="#068940" /><rect width="10" height="10" x="280" y="100" fill="#068940" /><rect width="10" height="10" x="70" y="110" fill="#74580d" /><rect width="30" height="10" x="80" y="110" fill="#068940" /><rect width="10" height="10" x="110" y="110" fill="#74580d" /><rect width="30" height="10" x="120" y="110" fill="#068940" /><rect width="10" height="10" x="150" y="110" fill="#5a423f" /><rect width="10" height="10" x="190" y="110" fill="#5a423f" /><rect width="10" height="10" x="220" y="110" fill="#5a423f" /><rect width="20" height="10" x="250" y="110" fill="#068940" /><rect width="10" height="10" x="270" y="110" fill="#74580d" /><rect width="10" height="10" x="60" y="120" fill="#068940" /><rect width="10" height="10" x="70" y="120" fill="#74580d" /><rect width="30" height="10" x="80" y="120" fill="#068940" /><rect width="10" height="10" x="110" y="120" fill="#74580d" /><rect width="30" height="10" x="120" y="120" fill="#068940" /><rect width="10" height="10" x="150" y="120" fill="#74580d" /><rect width="10" height="10" x="190" y="120" fill="#5a423f" /><rect width="10" height="10" x="210" y="120" fill="#5a423f" /><rect width="10" height="10" x="260" y="120" fill="#068940" /><rect width="10" height="10" x="270" y="120" fill="#74580d" /><rect width="10" height="10" x="280" y="120" fill="#068940" /><rect width="10" height="10" x="60" y="130" fill="#068940" /><rect width="10" height="10" x="70" y="130" fill="#74580d" /><rect width="30" height="10" x="80" y="130" fill="#068940" /><rect width="10" height="10" x="110" y="130" fill="#74580d" /><rect width="30" height="10" x="120" y="130" fill="#068940" /><rect width="10" height="10" x="150" y="130" fill="#74580d" /><rect width="10" height="10" x="160" y="130" fill="#068940" /><rect width="10" height="10" x="180" y="130" fill="#5a423f" /><rect width="10" height="10" x="210" y="130" fill="#5a423f" /><rect width="10" height="10" x="260" y="130" fill="#068940" /><rect width="10" height="10" x="60" y="140" fill="#068940" /><rect width="10" height="10" x="70" y="140" fill="#74580d" /><rect width="30" height="10" x="80" y="140" fill="#068940" /><rect width="10" height="10" x="110" y="140" fill="#74580d" /><rect width="30" height="10" x="120" y="140" fill="#068940" /><rect width="10" height="10" x="150" y="140" fill="#74580d" /><rect width="20" height="10" x="160" y="140" fill="#068940" /><rect width="10" height="10" x="180" y="140" fill="#5a423f" /><rect width="10" height="10" x="200" y="140" fill="#5a423f" /><rect width="10" height="10" x="60" y="150" fill="#068940" /><rect width="10" height="10" x="70" y="150" fill="#74580d" /><rect width="30" height="10" x="80" y="150" fill="#068940" /><rect width="10" height="10" x="110" y="150" fill="#74580d" /><rect width="30" height="10" x="120" y="150" fill="#068940" /><rect width="10" height="10" x="150" y="150" fill="#74580d" /><rect width="30" height="10" x="160" y="150" fill="#068940" /><rect width="10" height="10" x="190" y="150" fill="#74580d" /><rect width="20" height="10" x="200" y="150" fill="#068940" /><rect width="10" height="10" x="60" y="160" fill="#068940" /><rect width="10" height="10" x="70" y="160" fill="#74580d" /><rect width="30" height="10" x="80" y="160" fill="#068940" /><rect width="10" height="10" x="110" y="160" fill="#74580d" /><rect width="30" height="10" x="120" y="160" fill="#068940" /><rect width="10" height="10" x="150" y="160" fill="#74580d" /><rect width="30" height="10" x="160" y="160" fill="#068940" /><rect width="10" height="10" x="190" y="160" fill="#74580d" /><rect width="30" height="10" x="200" y="160" fill="#068940" /><rect width="10" height="10" x="230" y="160" fill="#74580d" /><rect width="10" height="10" x="60" y="170" fill="#5a423f" /><rect width="10" height="10" x="70" y="170" fill="#74580d" /><rect width="30" height="10" x="80" y="170" fill="#068940" /><rect width="10" height="10" x="110" y="170" fill="#74580d" /><rect width="30" height="10" x="120" y="170" fill="#068940" /><rect width="10" height="10" x="150" y="170" fill="#74580d" /><rect width="30" height="10" x="160" y="170" fill="#068940" /><rect width="10" height="10" x="190" y="170" fill="#74580d" /><rect width="30" height="10" x="200" y="170" fill="#068940" /><rect width="10" height="10" x="230" y="170" fill="#74580d" /><rect width="10" height="10" x="240" y="170" fill="#068940" /><rect width="10" height="10" x="60" y="180" fill="#5a423f" /><rect width="20" height="10" x="90" y="180" fill="#068940" /><rect width="10" height="10" x="110" y="180" fill="#74580d" /><rect width="30" height="10" x="120" y="180" fill="#068940" /><rect width="20" height="10" x="150" y="180" fill="#ae3208" /><rect width="20" height="10" x="170" y="180" fill="#068940" /><rect width="10" height="10" x="190" y="180" fill="#74580d" /><rect width="30" height="10" x="200" y="180" fill="#068940" /><rect width="10" height="10" x="230" y="180" fill="#74580d" /><rect width="10" height="10" x="240" y="180" fill="#068940" /><rect width="10" height="10" x="60" y="190" fill="#5a423f" /><rect width="10" height="10" x="110" y="190" fill="#74580d" /><rect width="30" height="10" x="120" y="190" fill="#068940" /><rect width="10" height="10" x="150" y="190" fill="#74580d" /><rect width="30" height="10" x="160" y="190" fill="#068940" /><rect width="10" height="10" x="190" y="190" fill="#74580d" /><rect width="30" height="10" x="200" y="190" fill="#068940" /><rect width="10" height="10" x="230" y="190" fill="#74580d" /><rect width="10" height="10" x="240" y="190" fill="#068940" /><rect width="10" height="10" x="60" y="200" fill="#5a423f" /><rect width="10" height="10" x="110" y="200" fill="#74580d" /><rect width="30" height="10" x="120" y="200" fill="#068940" /><rect width="10" height="10" x="150" y="200" fill="#74580d" /><rect width="30" height="10" x="160" y="200" fill="#068940" /><rect width="10" height="10" x="190" y="200" fill="#74580d" /><rect width="30" height="10" x="200" y="200" fill="#068940" /><rect width="10" height="10" x="230" y="200" fill="#74580d" /><rect width="10" height="10" x="60" y="210" fill="#5a423f" /><rect width="30" height="10" x="120" y="210" fill="#068940" /><rect width="10" height="10" x="150" y="210" fill="#74580d" /><rect width="30" height="10" x="160" y="210" fill="#068940" /><rect width="10" height="10" x="190" y="210" fill="#74580d" /><rect width="30" height="10" x="200" y="210" fill="#068940" /><rect width="10" height="10" x="230" y="210" fill="#74580d" /><rect width="10" height="10" x="60" y="220" fill="#5a423f" /><rect width="10" height="10" x="140" y="220" fill="#068940" /><rect width="10" height="10" x="150" y="220" fill="#74580d" /><rect width="30" height="10" x="160" y="220" fill="#068940" /><rect width="10" height="10" x="190" y="220" fill="#74580d" /><rect width="20" height="10" x="200" y="220" fill="#068940" /><rect width="10" height="10" x="60" y="230" fill="#5a423f" /><rect width="10" height="10" x="60" y="240" fill="#cd916d" /><rect width="30" height="10" x="50" y="250" fill="#cd916d" /><rect width="60" height="10" x="100" y="110" fill="#000000" /><rect width="60" height="10" x="170" y="110" fill="#000000" /><rect width="30" height="10" x="100" y="120" fill="#000000" /><rect width="10" height="10" x="130" y="120" fill="#ff0e0e" /><rect width="20" height="10" x="140" y="120" fill="#000000" /><rect width="30" height="10" x="170" y="120" fill="#000000" /><rect width="10" height="10" x="200" y="120" fill="#ff0e0e" /><rect width="20" height="10" x="210" y="120" fill="#000000" /><rect width="160" height="10" x="70" y="130" fill="#000000" /><rect width="10" height="10" x="70" y="140" fill="#000000" /><rect width="10" height="10" x="100" y="140" fill="#000000" /><rect width="10" height="10" x="110" y="140" fill="#0adc4d" /><rect width="20" height="10" x="120" y="140" fill="#000000" /><rect width="10" height="10" x="140" y="140" fill="#1929f4" /><rect width="10" height="10" x="150" y="140" fill="#000000" /><rect width="10" height="10" x="170" y="140" fill="#000000" /><rect width="10" height="10" x="180" y="140" fill="#0adc4d" /><rect width="20" height="10" x="190" y="140" fill="#000000" /><rect width="10" height="10" x="210" y="140" fill="#1929f4" /><rect width="10" height="10" x="220" y="140" fill="#000000" /><rect width="10" height="10" x="70" y="150" fill="#000000" /><rect width="60" height="10" x="100" y="150" fill="#000000" /><rect width="60" height="10" x="170" y="150" fill="#000000" /><rect width="60" height="10" x="100" y="160" fill="#000000" /><rect width="60" height="10" x="170" y="160" fill="#000000" /></svg>