<svg width="320" height="320" viewBox="0 0 320 320" xmlns="http://www.w3.org/2000/svg" shape-rendering="crispEdges"><rect width="100%" height="100%" fill="#d5d7e1" /><rect width="140" height="10" x="90" y="210" fill="#9f21a0" /><rect width="140" height="10" x="90" y="220" fill="#9f21a0" /><rect width="140" height="10" x="90" y="230" fill="#9f21a0" /><rect width="140" height="10" x="90" y="240" fill="#9f21a0" /><rect width="20" height="10" x="90" y="250" fill="#9f21a0" /><rect width="110" height="10" x="120" y="250" fill="#9f21a0" /><rect width="20" height="10" x="90" y="260" fill="#9f21a0" /><rect width="110" height="10" x="120" y="260" fill="#9f21a0" /><rect width="20" height="10" x="90" y="270" fill="#9f21a0" /><rect width="110" height="10" x="120" y="270" fill="#9f21a0" /><rect width="20" height="10" x="90" y="280" fill="#9f21a0" /><rect width="110" height="10" x="120" y="280" fill="#9f21a0" /><rect width="20" height="10" x="90" y="290" fill="#9f21a0" /><rect width="110" height="10" x="120" y="290" fill="#9f21a0" /><rect width="20" height="10" x="90" y="300" fill="#9f21a0" /><rect width="110" height="10" x="120" y="300" fill="#9f21a0" /><rect width="20" height="10" x="90" y="310" fill="#9f21a0" /><rect width="110" height="10" x="120" y="310" fill="#9f21a0" /><rect width="20" height="10" x="140" y="230" fill="#a3efd0" /><rect width="10" height="10" x="170" y="230" fill="#a3efd0" /><rect width="10" height="10" x="140" y="240" fill="#a3efd0" /><rect width="20" height="10" x="160" y="240" fill="#a3efd0" /><rect width="20" height="10" x="130" y="260" fill="#a3efd0" /><rect width="10" height="10" x="160" y="260" fill="#a3efd0" /><rect width="10" height="10" x="180" y="260" fill="#a3efd0" /><rect width="20" height="10" x="130" y="270" fill="#a3efd0" /><rect width="30" height="10" x="160" y="270" fill="#a3efd0" /><rect width="20" height="10" x="140" y="290" fill="#a3efd0" /><rect width="10" height="10" x="170" y="290" fill="#a3efd0" /><rect width="10" height="10" x="140" y="300" fill="#a3efd0" /><rect width="20" height="10" x="160" y="300" fill="#a3efd0" /><rect width="10" height="10" x="130" y="30" fill="#26b1f3" /><rect width="50" height="10" x="140" y="30" fill="#fa6fe2" /><rect width="20" height="10" x="110" y="40" fill="#fa6fe2" /><rect width="10" height="10" x="130" y="40" fill="#26b1f3" /><rect width="40" height="10" x="140" y="40" fill="#fa6fe2" /><rect width="10" height="10" x="180" y="40" fill="#fee3f3" /><rect width="20" height="10" x="190" y="40" fill="#fa6fe2" /><rect width="100" height="10" x="90" y="50" fill="#fa6fe2" /><rect width="10" height="10" x="190" y="50" fill="#fee3f3" /><rect width="30" height="10" x="200" y="50" fill="#fa6fe2" /><rect width="80" height="10" x="80" y="60" fill="#fa6fe2" /><rect width="10" height="10" x="160" y="60" fill="#ffe939" /><rect width="50" height="10" x="170" y="60" fill="#fa6fe2" /><rect width="20" height="10" x="220" y="60" fill="#e9265c" /><rect width="20" height="10" x="80" y="70" fill="#fa6fe2" /><rect width="20" height="10" x="100" y="70" fill="#fee3f3" /><rect width="10" height="10" x="120" y="70" fill="#fa6fe2" /><rect width="10" height="10" x="130" y="70" fill="#e9265c" /><rect width="30" height="10" x="140" y="70" fill="#fa6fe2" /><rect width="10" height="10" x="170" y="70" fill="#ffe939" /><rect width="60" height="10" x="180" y="70" fill="#fa6fe2" /><rect width="70" height="10" x="70" y="80" fill="#fa6fe2" /><rect width="10" height="10" x="140" y="80" fill="#e9265c" /><rect width="10" height="10" x="150" y="80" fill="#fa6fe2" /><rect width="10" height="10" x="160" y="80" fill="#f38b7c" /><rect width="50" height="10" x="170" y="80" fill="#fa6fe2" /><rect width="10" height="10" x="220" y="80" fill="#26b1f3" /><rect width="20" height="10" x="230" y="80" fill="#fa6fe2" /><rect width="70" height="10" x="70" y="90" fill="#fa6fe2" /><rect width="50" height="10" x="140" y="90" fill="#f38b7c" /><rect width="20" height="10" x="190" y="90" fill="#fa6fe2" /><rect width="10" height="10" x="210" y="90" fill="#26b1f3" /><rect width="30" height="10" x="220" y="90" fill="#fa6fe2" /><rect width="40" height="10" x="60" y="100" fill="#fa6fe2" /><rect width="10" height="10" x="100" y="100" fill="#ffe939" /><rect width="20" height="10" x="110" y="100" fill="#fa6fe2" /><rect width="10" height="10" x="130" y="100" fill="#f38b7c" /><rect width="10" height="10" x="180" y="100" fill="#f38b7c" /><rect width="60" height="10" x="190" y="100" fill="#fa6fe2" /><rect width="10" height="10" x="250" y="100" fill="#4bea69" /><rect width="10" height="10" x="60" y="110" fill="#fa6fe2" /><rect width="20" height="10" x="70" y="110" fill="#4bea69" /><rect width="10" height="10" x="90" y="110" fill="#fa6fe2" /><rect width="10" height="10" x="100" y="110" fill="#ffe939" /><rect width="10" height="10" x="110" y="110" fill="#fa6fe2" /><rect width="10" height="10" x="120" y="110" fill="#f38b7c" /><rect width="10" height="10" x="190" y="110" fill="#f38b7c" /><rect width="20" height="10" x="200" y="110" fill="#ffe939" /><rect width="30" height="10" x="220" y="110" fill="#fa6fe2" /><rect width="10" height="10" x="250" y="110" fill="#4bea69" /><rect width="60" height="10" x="60" y="120" fill="#fa6fe2" /><rect width="10" height="10" x="120" y="120" fill="#f38b7c" /><rect width="10" height="10" x="190" y="120" fill="#f38b7c" /><rect width="60" height="10" x="200" y="120" fill="#fa6fe2" /><rect width="60" height="10" x="60" y="130" fill="#fa6fe2" /><rect width="10" height="10" x="120" y="130" fill="#f38b7c" /><rect width="10" height="10" x="190" y="130" fill="#f38b7c" /><rect width="60" height="10" x="200" y="130" fill="#fa6fe2" /><rect width="20" height="10" x="60" y="140" fill="#fa6fe2" /><rect width="10" height="10" x="80" y="140" fill="#26b1f3" /><rect width="30" height="10" x="90" y="140" fill="#fa6fe2" /><rect width="10" height="10" x="120" y="140" fill="#f38b7c" /><rect width="10" height="10" x="190" y="140" fill="#f38b7c" /><rect width="30" height="10" x="200" y="140" fill="#fa6fe2" /><rect width="20" height="10" x="230" y="140" fill="#fee3f3" /><rect width="10" height="10" x="250" y="140" fill="#fa6fe2" /><rect width="20" height="10" x="60" y="150" fill="#fa6fe2" /><rect width="10" height="10" x="80" y="150" fill="#26b1f3" /><rect width="30" height="10" x="90" y="150" fill="#fa6fe2" /><rect width="20" height="10" x="120" y="150" fill="#f38b7c" /><rect width="10" height="10" x="180" y="150" fill="#f38b7c" /><rect width="20" height="10" x="190" y="150" fill="#fa6fe2" /><rect width="10" height="10" x="210" y="150" fill="#26b1f3" /><rect width="40" height="10" x="220" y="150" fill="#fa6fe2" /><rect width="70" height="10" x="70" y="160" fill="#fa6fe2" /><rect width="50" height="10" x="140" y="160" fill="#f38b7c" /><rect width="30" height="10" x="190" y="160" fill="#fa6fe2" /><rect width="10" height="10" x="220" y="160" fill="#26b1f3" /><rect width="20" height="10" x="230" y="160" fill="#fa6fe2" /><rect width="40" height="10" x="70" y="170" fill="#fa6fe2" /><rect width="10" height="10" x="110" y="170" fill="#fee3f3" /><rect width="60" height="10" x="120" y="170" fill="#fa6fe2" /><rect width="20" height="10" x="180" y="170" fill="#e9265c" /><rect width="50" height="10" x="200" y="170" fill="#fa6fe2" /><rect width="20" height="10" x="80" y="180" fill="#fa6fe2" /><rect width="10" height="10" x="100" y="180" fill="#fee3f3" /><rect width="40" height="10" x="110" y="180" fill="#fa6fe2" /><rect width="10" height="10" x="150" y="180" fill="#26b1f3" /><rect width="80" height="10" x="160" y="180" fill="#fa6fe2" /><rect width="70" height="10" x="80" y="190" fill="#fa6fe2" /><rect width="10" height="10" x="150" y="190" fill="#26b1f3" /><rect width="40" height="10" x="160" y="190" fill="#1f1d29" /><rect width="10" height="10" x="200" y="190" fill="#ffe939" /><rect width="30" height="10" x="210" y="190" fill="#fa6fe2" /><rect width="20" height="10" x="90" y="200" fill="#fa6fe2" /><rect width="10" height="10" x="110" y="200" fill="#e9265c" /><rect width="90" height="10" x="120" y="200" fill="#fa6fe2" /><rect width="10" height="10" x="210" y="200" fill="#ffe939" /><rect width="10" height="10" x="220" y="200" fill="#fa6fe2" /><rect width="10" height="10" x="110" y="210" fill="#e9265c" /><rect width="90" height="10" x="120" y="210" fill="#fa6fe2" /><rect width="10" height="10" x="130" y="220" fill="#fa6fe2" /><rect width="20" height="10" x="140" y="220" fill="#4bea69" /><rect width="30" height="10" x="160" y="220" fill="#fa6fe2" /><rect width="60" height="10" x="100" y="110" fill="#ec5b43" /><rect width="60" height="10" x="170" y="110" fill="#ec5b43" /><rect width="10" height="10" x="100" y="120" fill="#ec5b43" /><rect width="20" height="10" x="110" y="120" fill="#ffffff" /><rect width="20" height="10" x="130" y="120" fill="#000000" /><rect width="10" height="10" x="150" y="120" fill="#ec5b43" /><rect width="10" height="10" x="170" y="120" fill="#ec5b43" /><rect width="20" height="10" x="180" y="120" fill="#ffffff" /><rect width="20" height="10" x="200" y="120" fill="#000000" /><rect width="10" height="10" x="220" y="120" fill="#ec5b43" /><rect width="40" height="10" x="70" y="130" fill="#ec5b43" /><rect width="20" height="10" x="110" y="130" fill="#ffffff" /><rect width="20" height="10" x="130" y="130" fill="#000000" /><rect width="30" height="10" x="150" y="130" fill="#ec5b43" /><rect width="20" height="10" x="180" y="130" fill="#ffffff" /><rect width="20" height="10" x="200" y="130" fill="#000000" /><rect width="10" height="10" x="220" y="130" fill="#ec5b43" /><rect width="10" height="10" x="70" y="140" fill="#ec5b43" /><rect width="10" height="10" x="100" y="140" fill="#ec5b43" /><rect width="20" height="10" x="110" y="140" fill="#ffffff" /><rect width="20" height="10" x="130" y="140" fill="#000000" /><rect width="10" height="10" x="150" y="140" fill="#ec5b43" /><rect width="10" height="10" x="170" y="140" fill="#ec5b43" /><rect width="20" height="10" x="180" y="140" fill="#ffffff" /><rect width="20" height="10" x="200" y="140" fill="#000000" /><rect width="10" height="10" x="220" y="140" fill="#ec5b43" /><rect width="10" height="10" x="70" y="150" fill="#ec5b43" /><rect width="10" height="10" x="100" y="150" fill="#ec5b43" /><rect width="20" height="10" x="110" y="150" fill="#ffffff" /><rect width="20" height="10" x="130" y="150" fill="#000000" /><rect width="10" height="10" x="150" y="150" fill="#ec5b43" /><rect width="10" height="10" x="170" y="150" fill="#ec5b43" /><rect width="20" height="10" x="180" y="150" fill="#ffffff" /><rect width="20" height="10" x="200" y="150" fill="#000000" /><rect width="10" height="10" x="220" y="150" fill="#ec5b43" /><rect width="60" height="10" x="100" y="160" fill="#ec5b43" /><rect width="60" height="10" x="170" y="160" fill="#ec5b43" /></svg>