<svg xmlns:xlink="http://www.w3.org/1999/xlink" width="320" height="320" viewBox="0 0 320 320" xmlns="http://www.w3.org/2000/svg" shape-rendering="crispEdges"><rect width="100%" height="100%" fill="#e1d7d5" /><rect width="140" height="10" x="90" y="210" fill="#ae3208" /><rect width="140" height="10" x="90" y="220" fill="#ae3208" /><rect width="140" height="10" x="90" y="230" fill="#ae3208" /><rect width="140" height="10" x="90" y="240" fill="#ae3208" /><rect width="20" height="10" x="90" y="250" fill="#ae3208" /><rect width="110" height="10" x="120" y="250" fill="#ae3208" /><rect width="20" height="10" x="90" y="260" fill="#ae3208" /><rect width="110" height="10" x="120" y="260" fill="#ae3208" /><rect width="20" height="10" x="90" y="270" fill="#ae3208" /><rect width="110" height="10" x="120" y="270" fill="#ae3208" /><rect width="20" height="10" x="90" y="280" fill="#ae3208" /><rect width="110" height="10" x="120" y="280" fill="#ae3208" /><rect width="20" height="10" x="90" y="290" fill="#ae3208" /><rect width="110" height="10" x="120" y="290" fill="#ae3208" /><rect width="20" height="10" x="90" y="300" fill="#ae3208" /><rect width="110" height="10" x="120" y="300" fill="#ae3208" /><rect width="20" height="10" x="90" y="310" fill="#ae3208" /><rect width="110" height="10" x="120" y="310" fill="#ae3208" /><rect width="10" height="10" x="140" y="230" fill="#4b65f7" /><rect width="10" height="10" x="170" y="230" fill="#4b65f7" /><rect width="20" height="10" x="130" y="240" fill="#4b65f7" /><rect width="10" height="10" x="160" y="240" fill="#4b65f7" /><rect width="10" height="10" x="180" y="240" fill="#4b65f7" /><rect width="20" height="10" x="130" y="250" fill="#4b65f7" /><rect width="10" height="10" x="170" y="250" fill="#4b65f7" /><rect width="20" height="10" x="130" y="270" fill="#4b65f7" /><rect width="10" height="10" x="160" y="270" fill="#4b65f7" /><rect width="20" height="10" x="130" y="280" fill="#4b65f7" /><rect width="20" height="10" x="160" y="280" fill="#4b65f7" /><rect width="10" height="10" x="130" y="290" fill="#4b65f7" /><rect width="30" height="10" x="160" y="290" fill="#4b65f7" /><rect width="10" height="10" x="130" y="30" fill="#cd916d" /><rect width="20" height="10" x="60" y="40" fill="#b2958d" /><rect width="10" height="10" x="120" y="40" fill="#cd916d" /><rect width="10" height="10" x="130" y="40" fill="#fff0ee" /><rect width="10" height="10" x="140" y="40" fill="#cd916d" /><rect width="20" height="10" x="60" y="50" fill="#ae3208" /><rect width="10" height="10" x="110" y="50" fill="#cd916d" /><rect width="30" height="10" x="120" y="50" fill="#fff0ee" /><rect width="10" height="10" x="150" y="50" fill="#cd916d" /><rect width="20" height="10" x="60" y="60" fill="#ae3208" /><rect width="10" height="10" x="100" y="60" fill="#cd916d" /><rect width="20" height="10" x="110" y="60" fill="#fff0ee" /><rect width="10" height="10" x="130" y="60" fill="#cd916d" /><rect width="20" height="10" x="140" y="60" fill="#fff0ee" /><rect width="10" height="10" x="160" y="60" fill="#cd916d" /><rect width="20" height="10" x="60" y="70" fill="#ae3208" /><rect width="10" height="10" x="90" y="70" fill="#cd916d" /><rect width="20" height="10" x="100" y="70" fill="#fff0ee" /><rect width="10" height="10" x="120" y="70" fill="#cd916d" /><rect width="10" height="10" x="130" y="70" fill="#9cb4b8" /><rect width="10" height="10" x="140" y="70" fill="#cd916d" /><rect width="20" height="10" x="150" y="70" fill="#fff0ee" /><rect width="10" height="10" x="170" y="70" fill="#cd916d" /><rect width="70" height="10" x="180" y="70" fill="#ae3208" /><rect width="20" height="10" x="60" y="80" fill="#ae3208" /><rect width="10" height="10" x="80" y="80" fill="#cd916d" /><rect width="30" height="10" x="90" y="80" fill="#fff0ee" /><rect width="30" height="10" x="120" y="80" fill="#cd916d" /><rect width="30" height="10" x="150" y="80" fill="#fff0ee" /><rect width="10" height="10" x="180" y="80" fill="#cd916d" /><rect width="70" height="10" x="190" y="80" fill="#ae3208" /><rect width="10" height="10" x="60" y="90" fill="#ae3208" /><rect width="10" height="10" x="70" y="90" fill="#cd916d" /><rect width="110" height="10" x="80" y="90" fill="#fff0ee" /><rect width="10" height="10" x="190" y="90" fill="#cd916d" /><rect width="70" height="10" x="200" y="90" fill="#ae3208" /><rect width="10" height="10" x="60" y="100" fill="#cd916d" /><rect width="130" height="10" x="70" y="100" fill="#fff0ee" /><rect width="10" height="10" x="200" y="100" fill="#cd916d" /><rect width="70" height="10" x="210" y="100" fill="#ae3208" /><rect width="10" height="10" x="50" y="110" fill="#cd916d" /><rect width="150" height="10" x="60" y="110" fill="#fff0ee" /><rect width="70" height="10" x="210" y="110" fill="#cd916d" /><rect width="230" height="10" x="50" y="120" fill="#fff0ee" /><rect width="30" height="10" x="50" y="130" fill="#fff0ee" /><rect width="50" height="10" x="80" y="130" fill="#ae3208" /><rect width="30" height="10" x="130" y="130" fill="#fff0ee" /><rect width="110" height="10" x="160" y="130" fill="#cd916d" /><rect width="10" height="10" x="270" y="130" fill="#fff0ee" /><rect width="30" height="10" x="50" y="140" fill="#fff0ee" /><rect width="50" height="10" x="80" y="140" fill="#ae3208" /><rect width="30" height="10" x="130" y="140" fill="#fff0ee" /><rect width="10" height="10" x="160" y="140" fill="#cd916d" /><rect width="30" height="10" x="170" y="140" fill="#ae3208" /><rect width="30" height="10" x="200" y="140" fill="#9cb4b8" /><rect width="30" height="10" x="230" y="140" fill="#ae3208" /><rect width="10" height="10" x="260" y="140" fill="#cd916d" /><rect width="10" height="10" x="270" y="140" fill="#fff0ee" /><rect width="30" height="10" x="50" y="150" fill="#fff0ee" /><rect width="50" height="10" x="80" y="150" fill="#ae3208" /><rect width="30" height="10" x="130" y="150" fill="#fff0ee" /><rect width="10" height="10" x="160" y="150" fill="#cd916d" /><rect width="20" height="10" x="170" y="150" fill="#ae3208" /><rect width="50" height="10" x="190" y="150" fill="#9cb4b8" /><rect width="20" height="10" x="240" y="150" fill="#ae3208" /><rect width="10" height="10" x="260" y="150" fill="#cd916d" /><rect width="10" height="10" x="270" y="150" fill="#fff0ee" /><rect width="30" height="10" x="50" y="160" fill="#fff0ee" /><rect width="50" height="10" x="80" y="160" fill="#ae3208" /><rect width="30" height="10" x="130" y="160" fill="#fff0ee" /><rect width="10" height="10" x="160" y="160" fill="#cd916d" /><rect width="10" height="10" x="170" y="160" fill="#ae3208" /><rect width="70" height="10" x="180" y="160" fill="#9cb4b8" /><rect width="10" height="10" x="250" y="160" fill="#ae3208" /><rect width="10" height="10" x="260" y="160" fill="#cd916d" /><rect width="10" height="10" x="270" y="160" fill="#fff0ee" /><rect width="30" height="10" x="50" y="170" fill="#fff0ee" /><rect width="30" height="10" x="80" y="170" fill="#ae3208" /><rect width="10" height="10" x="110" y="170" fill="#ffc110" /><rect width="10" height="10" x="120" y="170" fill="#ae3208" /><rect width="30" height="10" x="130" y="170" fill="#fff0ee" /><rect width="10" height="10" x="160" y="170" fill="#cd916d" /><rect width="60" height="10" x="170" y="170" fill="#9cb4b8" /><rect width="10" height="10" x="230" y="170" fill="#b2958d" /><rect width="20" height="10" x="240" y="170" fill="#9cb4b8" /><rect width="10" height="10" x="260" y="170" fill="#cd916d" /><rect width="10" height="10" x="270" y="170" fill="#fff0ee" /><rect width="30" height="10" x="50" y="180" fill="#fff0ee" /><rect width="50" height="10" x="80" y="180" fill="#ae3208" /><rect width="30" height="10" x="130" y="180" fill="#fff0ee" /><rect width="10" height="10" x="160" y="180" fill="#cd916d" /><rect width="50" height="10" x="170" y="180" fill="#9cb4b8" /><rect width="20" height="10" x="220" y="180" fill="#b2958d" /><rect width="20" height="10" x="240" y="180" fill="#9cb4b8" /><rect width="10" height="10" x="260" y="180" fill="#cd916d" /><rect width="10" height="10" x="270" y="180" fill="#fff0ee" /><rect width="30" height="10" x="50" y="190" fill="#fff0ee" /><rect width="10" height="10" x="80" y="190" fill="#ae3208" /><rect width="30" height="10" x="90" y="190" fill="#000000" /><rect width="10" height="10" x="120" y="190" fill="#ae3208" /><rect width="30" height="10" x="130" y="190" fill="#fff0ee" /><rect width="10" height="10" x="160" y="190" fill="#cd916d" /><rect width="40" height="10" x="170" y="190" fill="#9cb4b8" /><rect width="30" height="10" x="210" y="190" fill="#b2958d" /><rect width="20" height="10" x="240" y="190" fill="#9cb4b8" /><rect width="10" height="10" x="260" y="190" fill="#cd916d" /><rect width="10" height="10" x="270" y="190" fill="#fff0ee" /><rect width="30" height="10" x="50" y="200" fill="#fff0ee" /><rect width="50" height="10" x="80" y="200" fill="#ae3208" /><rect width="30" height="10" x="130" y="200" fill="#fff0ee" /><rect width="110" height="10" x="160" y="200" fill="#cd916d" /><rect width="10" height="10" x="270" y="200" fill="#fff0ee" /><rect width="20" height="10" x="50" y="210" fill="#fff0ee" /><rect width="70" height="10" x="70" y="210" fill="#b2958d" /><rect width="140" height="10" x="140" y="210" fill="#fff0ee" /><rect width="60" height="10" x="100" y="110" fill="#4bea69" /><rect width="60" height="10" x="170" y="110" fill="#4bea69" /><rect width="10" height="10" x="100" y="120" fill="#4bea69" /><rect width="20" height="10" x="110" y="120" fill="#ffffff" /><rect width="20" height="10" x="130" y="120" fill="#000000" /><rect width="10" height="10" x="150" y="120" fill="#4bea69" /><rect width="10" height="10" x="170" y="120" fill="#4bea69" /><rect width="20" height="10" x="180" y="120" fill="#ffffff" /><rect width="20" height="10" x="200" y="120" fill="#000000" /><rect width="10" height="10" x="220" y="120" fill="#4bea69" /><rect width="40" height="10" x="70" y="130" fill="#4bea69" /><rect width="20" height="10" x="110" y="130" fill="#ffffff" /><rect width="20" height="10" x="130" y="130" fill="#000000" /><rect width="30" height="10" x="150" y="130" fill="#4bea69" /><rect width="20" height="10" x="180" y="130" fill="#ffffff" /><rect width="20" height="10" x="200" y="130" fill="#000000" /><rect width="10" height="10" x="220" y="130" fill="#4bea69" /><rect width="10" height="10" x="70" y="140" fill="#4bea69" /><rect width="10" height="10" x="100" y="140" fill="#4bea69" /><rect width="20" height="10" x="110" y="140" fill="#ffffff" /><rect width="20" height="10" x="130" y="140" fill="#000000" /><rect width="10" height="10" x="150" y="140" fill="#4bea69" /><rect width="10" height="10" x="170" y="140" fill="#4bea69" /><rect width="20" height="10" x="180" y="140" fill="#ffffff" /><rect width="20" height="10" x="200" y="140" fill="#000000" /><rect width="10" height="10" x="220" y="140" fill="#4bea69" /><rect width="10" height="10" x="70" y="150" fill="#4bea69" /><rect width="10" height="10" x="100" y="150" fill="#4bea69" /><rect width="20" height="10" x="110" y="150" fill="#ffffff" /><rect width="20" height="10" x="130" y="150" fill="#000000" /><rect width="10" height="10" x="150" y="150" fill="#4bea69" /><rect width="10" height="10" x="170" y="150" fill="#4bea69" /><rect width="20" height="10" x="180" y="150" fill="#ffffff" /><rect width="20" height="10" x="200" y="150" fill="#000000" /><rect width="10" height="10" x="220" y="150" fill="#4bea69" /><rect width="60" height="10" x="100" y="160" fill="#4bea69" /><rect width="60" height="10" x="170" y="160" fill="#4bea69" /></svg>