<svg xmlns:xlink="http://www.w3.org/1999/xlink" width="320" height="320" viewBox="0 0 320 320" xmlns="http://www.w3.org/2000/svg" shape-rendering="crispEdges"><rect width="100%" height="100%" fill="#d5d7e1" /><rect width="140" height="10" x="90" y="210" fill="#e9265c" /><rect width="140" height="10" x="90" y="220" fill="#e9265c" /><rect width="140" height="10" x="90" y="230" fill="#e9265c" /><rect width="140" height="10" x="90" y="240" fill="#e9265c" /><rect width="20" height="10" x="90" y="250" fill="#e9265c" /><rect width="110" height="10" x="120" y="250" fill="#e9265c" /><rect width="20" height="10" x="90" y="260" fill="#e9265c" /><rect width="110" height="10" x="120" y="260" fill="#e9265c" /><rect width="20" height="10" x="90" y="270" fill="#e9265c" /><rect width="110" height="10" x="120" y="270" fill="#e9265c" /><rect width="20" height="10" x="90" y="280" fill="#e9265c" /><rect width="110" height="10" x="120" y="280" fill="#e9265c" /><rect width="20" height="10" x="90" y="290" fill="#e9265c" /><rect width="110" height="10" x="120" y="290" fill="#e9265c" /><rect width="20" height="10" x="90" y="300" fill="#e9265c" /><rect width="110" height="10" x="120" y="300" fill="#e9265c" /><rect width="20" height="10" x="90" y="310" fill="#e9265c" /><rect width="110" height="10" x="120" y="310" fill="#e9265c" /><rect width="10" height="10" x="120" y="210" fill="#ffc110" /><rect width="10" height="10" x="190" y="210" fill="#ffc110" /><rect width="10" height="10" x="130" y="220" fill="#ffc110" /><rect width="10" height="10" x="180" y="220" fill="#ffc110" /><rect width="10" height="10" x="140" y="230" fill="#ffc110" /><rect width="10" height="10" x="170" y="230" fill="#ffc110" /><rect width="20" height="10" x="150" y="240" fill="#ffc110" /><rect width="60" height="10" x="130" y="250" fill="#ffc110" /><rect width="10" height="10" x="130" y="260" fill="#ffc110" /><rect width="20" height="10" x="150" y="260" fill="#ffc110" /><rect width="10" height="10" x="180" y="260" fill="#ffc110" /><rect width="60" height="10" x="130" y="270" fill="#ffc110" /><rect width="40" height="10" x="140" y="280" fill="#ffc110" /><rect width="10" height="10" x="130" y="290" fill="#ffc110" /><rect width="20" height="10" x="150" y="290" fill="#ffc110" /><rect width="10" height="10" x="180" y="290" fill="#ffc110" /><rect width="10" height="10" x="130" y="300" fill="#ffc110" /><rect width="10" height="10" x="180" y="300" fill="#ffc110" /><rect width="60" height="10" x="130" y="30" fill="#fff0ee" /><rect width="30" height="10" x="110" y="40" fill="#fff0ee" /><rect width="10" height="10" x="150" y="40" fill="#fff0ee" /><rect width="30" height="10" x="180" y="40" fill="#fff0ee" /><rect width="30" height="10" x="90" y="50" fill="#fff0ee" /><rect width="10" height="10" x="140" y="50" fill="#fff0ee" /><rect width="10" height="10" x="170" y="50" fill="#fff0ee" /><rect width="30" height="10" x="200" y="50" fill="#fff0ee" /><rect width="30" height="10" x="80" y="60" fill="#fff0ee" /><rect width="10" height="10" x="130" y="60" fill="#fff0ee" /><rect width="20" height="10" x="140" y="60" fill="#7d635e" /><rect width="10" height="10" x="160" y="60" fill="#fff0ee" /><rect width="20" height="10" x="170" y="60" fill="#7d635e" /><rect width="10" height="10" x="190" y="60" fill="#fff0ee" /><rect width="20" height="10" x="220" y="60" fill="#fff0ee" /><rect width="20" height="10" x="80" y="70" fill="#fff0ee" /><rect width="10" height="10" x="120" y="70" fill="#fff0ee" /><rect width="20" height="10" x="130" y="70" fill="#7d635e" /><rect width="10" height="10" x="150" y="70" fill="#fff0ee" /><rect width="20" height="10" x="160" y="70" fill="#7d635e" /><rect width="10" height="10" x="180" y="70" fill="#fff0ee" /><rect width="20" height="10" x="190" y="70" fill="#7d635e" /><rect width="10" height="10" x="210" y="70" fill="#fff0ee" /><rect width="10" height="10" x="230" y="70" fill="#fff0ee" /><rect width="20" height="10" x="70" y="80" fill="#fff0ee" /><rect width="10" height="10" x="110" y="80" fill="#fff0ee" /><rect width="10" height="10" x="130" y="80" fill="#7d635e" /><rect width="10" height="10" x="140" y="80" fill="#fff0ee" /><rect width="20" height="10" x="150" y="80" fill="#7d635e" /><rect width="10" height="10" x="170" y="80" fill="#fff0ee" /><rect width="20" height="10" x="180" y="80" fill="#7d635e" /><rect width="10" height="10" x="200" y="80" fill="#fff0ee" /><rect width="10" height="10" x="210" y="80" fill="#7d635e" /><rect width="20" height="10" x="230" y="80" fill="#fff0ee" /><rect width="10" height="10" x="70" y="90" fill="#fff0ee" /><rect width="10" height="10" x="100" y="90" fill="#fff0ee" /><rect width="10" height="10" x="130" y="90" fill="#fff0ee" /><rect width="20" height="10" x="140" y="90" fill="#7d635e" /><rect width="10" height="10" x="160" y="90" fill="#fff0ee" /><rect width="20" height="10" x="170" y="90" fill="#7d635e" /><rect width="10" height="10" x="190" y="90" fill="#fff0ee" /><rect width="10" height="10" x="200" y="90" fill="#7d635e" /><rect width="10" height="10" x="220" y="90" fill="#fff0ee" /><rect width="10" height="10" x="240" y="90" fill="#fff0ee" /><rect width="20" height="10" x="60" y="100" fill="#fff0ee" /><rect width="10" height="10" x="90" y="100" fill="#fff0ee" /><rect width="10" height="10" x="120" y="100" fill="#fff0ee" /><rect width="10" height="10" x="140" y="100" fill="#7d635e" /><rect width="20" height="10" x="150" y="100" fill="#76858b" /><rect width="10" height="10" x="170" y="100" fill="#7d635e" /><rect width="10" height="10" x="180" y="100" fill="#fff0ee" /><rect width="10" height="10" x="190" y="100" fill="#7d635e" /><rect width="10" height="10" x="210" y="100" fill="#fff0ee" /><rect width="20" height="10" x="240" y="100" fill="#fff0ee" /><rect width="10" height="10" x="60" y="110" fill="#fff0ee" /><rect width="10" height="10" x="80" y="110" fill="#fff0ee" /><rect width="20" height="10" x="90" y="110" fill="#7d635e" /><rect width="10" height="10" x="110" y="110" fill="#fff0ee" /><rect width="40" height="10" x="140" y="110" fill="#76858b" /><rect width="10" height="10" x="200" y="110" fill="#fff0ee" /><rect width="10" height="10" x="230" y="110" fill="#fff0ee" /><rect width="10" height="10" x="250" y="110" fill="#fff0ee" /><rect width="20" height="10" x="60" y="120" fill="#fff0ee" /><rect width="20" height="10" x="80" y="120" fill="#7d635e" /><rect width="10" height="10" x="100" y="120" fill="#fff0ee" /><rect width="20" height="10" x="110" y="120" fill="#7d635e" /><rect width="60" height="10" x="130" y="120" fill="#76858b" /><rect width="10" height="10" x="190" y="120" fill="#fff0ee" /><rect width="20" height="10" x="200" y="120" fill="#7d635e" /><rect width="10" height="10" x="220" y="120" fill="#fff0ee" /><rect width="10" height="10" x="250" y="120" fill="#fff0ee" /><rect width="10" height="10" x="60" y="130" fill="#fff0ee" /><rect width="10" height="10" x="80" y="130" fill="#7d635e" /><rect width="10" height="10" x="90" y="130" fill="#fff0ee" /><rect width="20" height="10" x="100" y="130" fill="#7d635e" /><rect width="10" height="10" x="120" y="130" fill="#fff0ee" /><rect width="60" height="10" x="130" y="130" fill="#76858b" /><rect width="20" height="10" x="190" y="130" fill="#7d635e" /><rect width="10" height="10" x="210" y="130" fill="#fff0ee" /><rect width="10" height="10" x="220" y="130" fill="#7d635e" /><rect width="20" height="10" x="240" y="130" fill="#fff0ee" /><rect width="10" height="10" x="60" y="140" fill="#fff0ee" /><rect width="10" height="10" x="80" y="140" fill="#fff0ee" /><rect width="20" height="10" x="90" y="140" fill="#7d635e" /><rect width="10" height="10" x="110" y="140" fill="#fff0ee" /><rect width="20" height="10" x="120" y="140" fill="#7d635e" /><rect width="40" height="10" x="140" y="140" fill="#76858b" /><rect width="20" height="10" x="180" y="140" fill="#7d635e" /><rect width="10" height="10" x="200" y="140" fill="#fff0ee" /><rect width="20" height="10" x="210" y="140" fill="#7d635e" /><rect width="10" height="10" x="230" y="140" fill="#fff0ee" /><rect width="10" height="10" x="250" y="140" fill="#fff0ee" /><rect width="20" height="10" x="60" y="150" fill="#fff0ee" /><rect width="10" height="10" x="90" y="150" fill="#7d635e" /><rect width="10" height="10" x="100" y="150" fill="#fff0ee" /><rect width="20" height="10" x="110" y="150" fill="#7d635e" /><rect width="10" height="10" x="130" y="150" fill="#fff0ee" /><rect width="10" height="10" x="140" y="150" fill="#7d635e" /><rect width="20" height="10" x="150" y="150" fill="#76858b" /><rect width="20" height="10" x="170" y="150" fill="#7d635e" /><rect width="10" height="10" x="190" y="150" fill="#fff0ee" /><rect width="20" height="10" x="200" y="150" fill="#7d635e" /><rect width="10" height="10" x="220" y="150" fill="#fff0ee" /><rect width="10" height="10" x="230" y="150" fill="#7d635e" /><rect width="20" height="10" x="240" y="150" fill="#fff0ee" /><rect width="10" height="10" x="70" y="160" fill="#fff0ee" /><rect width="10" height="10" x="90" y="160" fill="#fff0ee" /><rect width="20" height="10" x="100" y="160" fill="#7d635e" /><rect width="10" height="10" x="120" y="160" fill="#fff0ee" /><rect width="20" height="10" x="130" y="160" fill="#7d635e" /><rect width="10" height="10" x="150" y="160" fill="#fff0ee" /><rect width="10" height="10" x="170" y="160" fill="#7d635e" /><rect width="10" height="10" x="180" y="160" fill="#fff0ee" /><rect width="20" height="10" x="190" y="160" fill="#7d635e" /><rect width="10" height="10" x="210" y="160" fill="#fff0ee" /><rect width="20" height="10" x="220" y="160" fill="#7d635e" /><rect width="10" height="10" x="240" y="160" fill="#fff0ee" /><rect width="20" height="10" x="70" y="170" fill="#fff0ee" /><rect width="10" height="10" x="100" y="170" fill="#7d635e" /><rect width="10" height="10" x="110" y="170" fill="#fff0ee" /><rect width="20" height="10" x="120" y="170" fill="#7d635e" /><rect width="10" height="10" x="140" y="170" fill="#fff0ee" /><rect width="10" height="10" x="160" y="170" fill="#7d635e" /><rect width="10" height="10" x="170" y="170" fill="#fff0ee" /><rect width="20" height="10" x="180" y="170" fill="#7d635e" /><rect width="10" height="10" x="200" y="170" fill="#fff0ee" /><rect width="20" height="10" x="210" y="170" fill="#7d635e" /><rect width="20" height="10" x="230" y="170" fill="#fff0ee" /><rect width="10" height="10" x="80" y="180" fill="#fff0ee" /><rect width="10" height="10" x="100" y="180" fill="#fff0ee" /><rect width="20" height="10" x="110" y="180" fill="#7d635e" /><rect width="10" height="10" x="130" y="180" fill="#fff0ee" /><rect width="10" height="10" x="160" y="180" fill="#fff0ee" /><rect width="20" height="10" x="170" y="180" fill="#7d635e" /><rect width="10" height="10" x="190" y="180" fill="#fff0ee" /><rect width="10" height="10" x="200" y="180" fill="#7d635e" /><rect width="20" height="10" x="220" y="180" fill="#fff0ee" /><rect width="20" height="10" x="80" y="190" fill="#fff0ee" /><rect width="10" height="10" x="120" y="190" fill="#fff0ee" /><rect width="10" height="10" x="150" y="190" fill="#fff0ee" /><rect width="20" height="10" x="160" y="190" fill="#7d635e" /><rect width="10" height="10" x="180" y="190" fill="#fff0ee" /><rect width="30" height="10" x="210" y="190" fill="#fff0ee" /><rect width="30" height="10" x="90" y="200" fill="#fff0ee" /><rect width="10" height="10" x="140" y="200" fill="#fff0ee" /><rect width="10" height="10" x="170" y="200" fill="#fff0ee" /><rect width="30" height="10" x="200" y="200" fill="#fff0ee" /><rect width="30" height="10" x="110" y="210" fill="#fff0ee" /><rect width="10" height="10" x="160" y="210" fill="#fff0ee" /><rect width="30" height="10" x="180" y="210" fill="#fff0ee" /><rect width="60" height="10" x="130" y="220" fill="#fff0ee" /><rect width="60" height="10" x="100" y="110" fill="#ff638d" /><rect width="60" height="10" x="170" y="110" fill="#ff638d" /><rect width="10" height="10" x="100" y="120" fill="#ff638d" /><rect width="20" height="10" x="110" y="120" fill="#ffffff" /><rect width="20" height="10" x="130" y="120" fill="#000000" /><rect width="10" height="10" x="150" y="120" fill="#ff638d" /><rect width="10" height="10" x="170" y="120" fill="#ff638d" /><rect width="20" height="10" x="180" y="120" fill="#ffffff" /><rect width="20" height="10" x="200" y="120" fill="#000000" /><rect width="10" height="10" x="220" y="120" fill="#ff638d" /><rect width="40" height="10" x="70" y="130" fill="#ff638d" /><rect width="20" height="10" x="110" y="130" fill="#ffffff" /><rect width="20" height="10" x="130" y="130" fill="#000000" /><rect width="30" height="10" x="150" y="130" fill="#ff638d" /><rect width="20" height="10" x="180" y="130" fill="#ffffff" /><rect width="20" height="10" x="200" y="130" fill="#000000" /><rect width="10" height="10" x="220" y="130" fill="#ff638d" /><rect width="40" height="10" x="70" y="140" fill="#ff638d" /><rect width="20" height="10" x="110" y="140" fill="#ffffff" /><rect width="20" height="10" x="130" y="140" fill="#000000" /><rect width="30" height="10" x="150" y="140" fill="#ff638d" /><rect width="20" height="10" x="180" y="140" fill="#ffffff" /><rect width="20" height="10" x="200" y="140" fill="#000000" /><rect width="10" height="10" x="220" y="140" fill="#ff638d" /><rect width="10" height="10" x="70" y="150" fill="#ff638d" /><rect width="10" height="10" x="100" y="150" fill="#ff638d" /><rect width="20" height="10" x="110" y="150" fill="#ffffff" /><rect width="20" height="10" x="130" y="150" fill="#000000" /><rect width="10" height="10" x="150" y="150" fill="#ff638d" /><rect width="10" height="10" x="170" y="150" fill="#ff638d" /><rect width="20" height="10" x="180" y="150" fill="#ffffff" /><rect width="20" height="10" x="200" y="150" fill="#000000" /><rect width="10" height="10" x="220" y="150" fill="#ff638d" /><rect width="60" height="10" x="100" y="160" fill="#ff638d" /><rect width="60" height="10" x="170" y="160" fill="#ff638d" /></svg>