<svg xmlns:xlink="http://www.w3.org/1999/xlink" width="320" height="320" viewBox="0 0 320 320" xmlns="http://www.w3.org/2000/svg" shape-rendering="crispEdges"><rect width="100%" height="100%" fill="#d5d7e1" /><rect width="140" height="10" x="90" y="210" fill="#fd8b5b" /><rect width="140" height="10" x="90" y="220" fill="#fd8b5b" /><rect width="140" height="10" x="90" y="230" fill="#fd8b5b" /><rect width="140" height="10" x="90" y="240" fill="#fd8b5b" /><rect width="20" height="10" x="90" y="250" fill="#fd8b5b" /><rect width="110" height="10" x="120" y="250" fill="#fd8b5b" /><rect width="20" height="10" x="90" y="260" fill="#fd8b5b" /><rect width="110" height="10" x="120" y="260" fill="#fd8b5b" /><rect width="20" height="10" x="90" y="270" fill="#fd8b5b" /><rect width="110" height="10" x="120" y="270" fill="#fd8b5b" /><rect width="20" height="10" x="90" y="280" fill="#fd8b5b" /><rect width="110" height="10" x="120" y="280" fill="#fd8b5b" /><rect width="20" height="10" x="90" y="290" fill="#fd8b5b" /><rect width="110" height="10" x="120" y="290" fill="#fd8b5b" /><rect width="20" height="10" x="90" y="300" fill="#fd8b5b" /><rect width="110" height="10" x="120" y="300" fill="#fd8b5b" /><rect width="20" height="10" x="90" y="310" fill="#fd8b5b" /><rect width="110" height="10" x="120" y="310" fill="#fd8b5b" /><rect width="10" height="10" x="150" y="220" fill="#ffffff" /><rect width="10" height="10" x="170" y="220" fill="#ffffff" /><rect width="10" height="10" x="150" y="230" fill="#ffffff" /><rect width="10" height="10" x="170" y="230" fill="#ffffff" /><rect width="10" height="10" x="150" y="240" fill="#ffffff" /><rect width="10" height="10" x="170" y="240" fill="#ffffff" /><rect width="10" height="10" x="150" y="250" fill="#ffffff" /><rect width="10" height="10" x="170" y="250" fill="#d7d3cd" /><rect width="10" height="10" x="150" y="260" fill="#ffffff" /><rect width="10" height="10" x="150" y="270" fill="#d7d3cd" /><rect width="140" height="10" x="90" y="30" fill="#6b3f39" /><rect width="20" height="10" x="80" y="40" fill="#6b3f39" /><rect width="120" height="10" x="100" y="40" fill="#caa26a" /><rect width="20" height="10" x="220" y="40" fill="#6b3f39" /><rect width="10" height="10" x="80" y="50" fill="#6b3f39" /><rect width="30" height="10" x="90" y="50" fill="#caa26a" /><rect width="80" height="10" x="120" y="50" fill="#8f785e" /><rect width="30" height="10" x="200" y="50" fill="#caa26a" /><rect width="10" height="10" x="230" y="50" fill="#6b3f39" /><rect width="10" height="10" x="90" y="60" fill="#6b3f39" /><rect width="120" height="10" x="100" y="60" fill="#caa26a" /><rect width="10" height="10" x="220" y="60" fill="#6b3f39" /><rect width="10" height="10" x="90" y="70" fill="#6b3f39" /><rect width="20" height="10" x="100" y="70" fill="#caa26a" /><rect width="80" height="10" x="120" y="70" fill="#8f785e" /><rect width="20" height="10" x="200" y="70" fill="#caa26a" /><rect width="10" height="10" x="220" y="70" fill="#6b3f39" /><rect width="10" height="10" x="80" y="80" fill="#fffdf2" /><rect width="140" height="10" x="90" y="80" fill="#abaaa8" /><rect width="10" height="10" x="230" y="80" fill="#fffdf2" /><rect width="10" height="10" x="80" y="90" fill="#fffdf2" /><rect width="140" height="10" x="90" y="90" fill="#abaaa8" /><rect width="10" height="10" x="230" y="90" fill="#fffdf2" /><rect width="10" height="10" x="80" y="100" fill="#fffdf2" /><rect width="140" height="10" x="90" y="100" fill="#abaaa8" /><rect width="10" height="10" x="230" y="100" fill="#fffdf2" /><rect width="20" height="10" x="240" y="100" fill="#343235" /><rect width="10" height="10" x="80" y="110" fill="#fffdf2" /><rect width="140" height="10" x="90" y="110" fill="#abaaa8" /><rect width="10" height="10" x="230" y="110" fill="#fffdf2" /><rect width="20" height="10" x="240" y="110" fill="#343235" /><rect width="10" height="10" x="80" y="120" fill="#fffdf2" /><rect width="140" height="10" x="90" y="120" fill="#abaaa8" /><rect width="10" height="10" x="230" y="120" fill="#fffdf2" /><rect width="10" height="10" x="80" y="130" fill="#fffdf2" /><rect width="140" height="10" x="90" y="130" fill="#abaaa8" /><rect width="10" height="10" x="230" y="130" fill="#fffdf2" /><rect width="10" height="10" x="80" y="140" fill="#fffdf2" /><rect width="140" height="10" x="90" y="140" fill="#abaaa8" /><rect width="10" height="10" x="230" y="140" fill="#fffdf2" /><rect width="10" height="10" x="80" y="150" fill="#fffdf2" /><rect width="140" height="10" x="90" y="150" fill="#abaaa8" /><rect width="10" height="10" x="230" y="150" fill="#fffdf2" /><rect width="10" height="10" x="80" y="160" fill="#fffdf2" /><rect width="140" height="10" x="90" y="160" fill="#abaaa8" /><rect width="10" height="10" x="230" y="160" fill="#fffdf2" /><rect width="10" height="10" x="80" y="170" fill="#fffdf2" /><rect width="140" height="10" x="90" y="170" fill="#abaaa8" /><rect width="10" height="10" x="230" y="170" fill="#fffdf2" /><rect width="180" height="10" x="70" y="180" fill="#343235" /><rect width="20" height="10" x="50" y="190" fill="#62616d" /><rect width="180" height="10" x="70" y="190" fill="#343235" /><rect width="10" height="10" x="50" y="200" fill="#62616d" /><rect width="180" height="10" x="70" y="200" fill="#343235" /><rect width="10" height="10" x="50" y="210" fill="#62616d" /><rect width="10" height="10" x="50" y="220" fill="#62616d" /><rect width="10" height="10" x="50" y="230" fill="#62616d" /><rect width="10" height="10" x="50" y="240" fill="#62616d" /><rect width="10" height="10" x="50" y="250" fill="#62616d" /><rect width="10" height="10" x="50" y="260" fill="#62616d" /><rect width="10" height="10" x="50" y="270" fill="#62616d" /><rect width="10" height="10" x="50" y="280" fill="#62616d" /><rect width="10" height="10" x="50" y="290" fill="#62616d" /><rect width="10" height="10" x="50" y="300" fill="#62616d" /><rect width="10" height="10" x="50" y="310" fill="#62616d" /><rect width="60" height="10" x="100" y="110" fill="#fe500c" /><rect width="60" height="10" x="170" y="110" fill="#fe500c" /><rect width="10" height="10" x="100" y="120" fill="#fe500c" /><rect width="20" height="10" x="110" y="120" fill="#ffffff" /><rect width="20" height="10" x="130" y="120" fill="#000000" /><rect width="10" height="10" x="150" y="120" fill="#fe500c" /><rect width="10" height="10" x="170" y="120" fill="#fe500c" /><rect width="20" height="10" x="180" y="120" fill="#ffffff" /><rect width="20" height="10" x="200" y="120" fill="#000000" /><rect width="10" height="10" x="220" y="120" fill="#fe500c" /><rect width="40" height="10" x="70" y="130" fill="#fe500c" /><rect width="20" height="10" x="110" y="130" fill="#ffffff" /><rect width="20" height="10" x="130" y="130" fill="#000000" /><rect width="30" height="10" x="150" y="130" fill="#fe500c" /><rect width="20" height="10" x="180" y="130" fill="#ffffff" /><rect width="20" height="10" x="200" y="130" fill="#000000" /><rect width="10" height="10" x="220" y="130" fill="#fe500c" /><rect width="10" height="10" x="70" y="140" fill="#fe500c" /><rect width="10" height="10" x="100" y="140" fill="#fe500c" /><rect width="20" height="10" x="110" y="140" fill="#ffffff" /><rect width="20" height="10" x="130" y="140" fill="#000000" /><rect width="10" height="10" x="150" y="140" fill="#fe500c" /><rect width="10" height="10" x="170" y="140" fill="#fe500c" /><rect width="20" height="10" x="180" y="140" fill="#ffffff" /><rect width="20" height="10" x="200" y="140" fill="#000000" /><rect width="10" height="10" x="220" y="140" fill="#fe500c" /><rect width="10" height="10" x="70" y="150" fill="#fe500c" /><rect width="10" height="10" x="100" y="150" fill="#fe500c" /><rect width="20" height="10" x="110" y="150" fill="#ffffff" /><rect width="20" height="10" x="130" y="150" fill="#000000" /><rect width="10" height="10" x="150" y="150" fill="#fe500c" /><rect width="10" height="10" x="170" y="150" fill="#fe500c" /><rect width="20" height="10" x="180" y="150" fill="#ffffff" /><rect width="20" height="10" x="200" y="150" fill="#000000" /><rect width="10" height="10" x="220" y="150" fill="#fe500c" /><rect width="60" height="10" x="100" y="160" fill="#fe500c" /><rect width="60" height="10" x="170" y="160" fill="#fe500c" /></svg>