<svg xmlns:xlink="http://www.w3.org/1999/xlink" width="320" height="320" viewBox="0 0 320 320" xmlns="http://www.w3.org/2000/svg" shape-rendering="crispEdges"><rect width="100%" height="100%" fill="#e1d7d5" /><rect width="140" height="10" x="90" y="210" fill="#5a423f" /><rect width="140" height="10" x="90" y="220" fill="#5a423f" /><rect width="140" height="10" x="90" y="230" fill="#5a423f" /><rect width="140" height="10" x="90" y="240" fill="#5a423f" /><rect width="20" height="10" x="90" y="250" fill="#5a423f" /><rect width="110" height="10" x="120" y="250" fill="#5a423f" /><rect width="20" height="10" x="90" y="260" fill="#5a423f" /><rect width="110" height="10" x="120" y="260" fill="#5a423f" /><rect width="20" height="10" x="90" y="270" fill="#5a423f" /><rect width="110" height="10" x="120" y="270" fill="#5a423f" /><rect width="20" height="10" x="90" y="280" fill="#5a423f" /><rect width="110" height="10" x="120" y="280" fill="#5a423f" /><rect width="20" height="10" x="90" y="290" fill="#5a423f" /><rect width="110" height="10" x="120" y="290" fill="#5a423f" /><rect width="20" height="10" x="90" y="300" fill="#5a423f" /><rect width="110" height="10" x="120" y="300" fill="#5a423f" /><rect width="20" height="10" x="90" y="310" fill="#5a423f" /><rect width="110" height="10" x="120" y="310" fill="#5a423f" /><rect width="10" height="10" x="90" y="210" fill="#fff0ee" /><rect width="10" height="10" x="130" y="210" fill="#fff0ee" /><rect width="10" height="10" x="170" y="210" fill="#fff0ee" /><rect width="10" height="10" x="210" y="210" fill="#fff0ee" /><rect width="10" height="10" x="100" y="220" fill="#fff0ee" /><rect width="10" height="10" x="120" y="220" fill="#fff0ee" /><rect width="10" height="10" x="180" y="220" fill="#fff0ee" /><rect width="10" height="10" x="200" y="220" fill="#fff0ee" /><rect width="10" height="10" x="100" y="230" fill="#fff0ee" /><rect width="10" height="10" x="120" y="230" fill="#fff0ee" /><rect width="10" height="10" x="180" y="230" fill="#fff0ee" /><rect width="10" height="10" x="200" y="230" fill="#fff0ee" /><rect width="10" height="10" x="90" y="240" fill="#fff0ee" /><rect width="10" height="10" x="130" y="240" fill="#fff0ee" /><rect width="10" height="10" x="170" y="240" fill="#fff0ee" /><rect width="10" height="10" x="210" y="240" fill="#fff0ee" /><rect width="10" height="10" x="140" y="250" fill="#fff0ee" /><rect width="10" height="10" x="160" y="250" fill="#fff0ee" /><rect width="10" height="10" x="220" y="250" fill="#fff0ee" /><rect width="10" height="10" x="140" y="260" fill="#fff0ee" /><rect width="10" height="10" x="160" y="260" fill="#fff0ee" /><rect width="10" height="10" x="220" y="260" fill="#fff0ee" /><rect width="10" height="10" x="90" y="270" fill="#fff0ee" /><rect width="10" height="10" x="130" y="270" fill="#fff0ee" /><rect width="10" height="10" x="170" y="270" fill="#fff0ee" /><rect width="10" height="10" x="210" y="270" fill="#fff0ee" /><rect width="10" height="10" x="100" y="280" fill="#fff0ee" /><rect width="10" height="10" x="120" y="280" fill="#fff0ee" /><rect width="10" height="10" x="180" y="280" fill="#fff0ee" /><rect width="10" height="10" x="200" y="280" fill="#fff0ee" /><rect width="10" height="10" x="100" y="290" fill="#fff0ee" /><rect width="10" height="10" x="120" y="290" fill="#fff0ee" /><rect width="10" height="10" x="180" y="290" fill="#fff0ee" /><rect width="10" height="10" x="200" y="290" fill="#fff0ee" /><rect width="10" height="10" x="90" y="300" fill="#fff0ee" /><rect width="10" height="10" x="130" y="300" fill="#fff0ee" /><rect width="10" height="10" x="170" y="300" fill="#fff0ee" /><rect width="10" height="10" x="210" y="300" fill="#fff0ee" /><rect width="10" height="10" x="140" y="310" fill="#fff0ee" /><rect width="10" height="10" x="160" y="310" fill="#fff0ee" /><rect width="10" height="10" x="220" y="310" fill="#fff0ee" /><rect width="260" height="10" x="30" y="90" fill="#aaa6a4" /><rect width="10" height="10" x="30" y="100" fill="#aaa6a4" /><rect width="10" height="10" x="280" y="100" fill="#aaa6a4" /><rect width="10" height="10" x="30" y="110" fill="#aaa6a4" /><rect width="10" height="10" x="280" y="110" fill="#aaa6a4" /><rect width="10" height="10" x="30" y="120" fill="#aaa6a4" /><rect width="10" height="10" x="280" y="120" fill="#aaa6a4" /><rect width="10" height="10" x="30" y="130" fill="#aaa6a4" /><rect width="160" height="10" x="70" y="130" fill="#aaa6a4" /><rect width="10" height="10" x="280" y="130" fill="#aaa6a4" /><rect width="10" height="10" x="30" y="140" fill="#aaa6a4" /><rect width="10" height="10" x="70" y="140" fill="#aaa6a4" /><rect width="10" height="10" x="280" y="140" fill="#aaa6a4" /><rect width="10" height="10" x="30" y="150" fill="#aaa6a4" /><rect width="10" height="10" x="70" y="150" fill="#aaa6a4" /><rect width="10" height="10" x="280" y="150" fill="#aaa6a4" /><rect width="10" height="10" x="30" y="160" fill="#aaa6a4" /><rect width="10" height="10" x="70" y="160" fill="#aaa6a4" /><rect width="10" height="10" x="280" y="160" fill="#aaa6a4" /><rect width="10" height="10" x="30" y="170" fill="#aaa6a4" /><rect width="10" height="10" x="70" y="170" fill="#aaa6a4" /><rect width="10" height="10" x="280" y="170" fill="#aaa6a4" /><rect width="10" height="10" x="30" y="180" fill="#aaa6a4" /><rect width="220" height="10" x="70" y="180" fill="#aaa6a4" /><rect width="10" height="10" x="30" y="190" fill="#aaa6a4" /><rect width="200" height="10" x="30" y="200" fill="#aaa6a4" /><rect width="60" height="10" x="100" y="110" fill="#d19a54" /><rect width="60" height="10" x="170" y="110" fill="#d19a54" /><rect width="10" height="10" x="100" y="120" fill="#d19a54" /><rect width="20" height="10" x="110" y="120" fill="#ffffff" /><rect width="20" height="10" x="130" y="120" fill="#000000" /><rect width="10" height="10" x="150" y="120" fill="#d19a54" /><rect width="10" height="10" x="170" y="120" fill="#d19a54" /><rect width="20" height="10" x="180" y="120" fill="#ffffff" /><rect width="20" height="10" x="200" y="120" fill="#000000" /><rect width="10" height="10" x="220" y="120" fill="#d19a54" /><rect width="40" height="10" x="70" y="130" fill="#d19a54" /><rect width="20" height="10" x="110" y="130" fill="#ffffff" /><rect width="20" height="10" x="130" y="130" fill="#000000" /><rect width="30" height="10" x="150" y="130" fill="#d19a54" /><rect width="20" height="10" x="180" y="130" fill="#ffffff" /><rect width="20" height="10" x="200" y="130" fill="#000000" /><rect width="10" height="10" x="220" y="130" fill="#d19a54" /><rect width="10" height="10" x="70" y="140" fill="#d19a54" /><rect width="10" height="10" x="100" y="140" fill="#d19a54" /><rect width="20" height="10" x="110" y="140" fill="#ffffff" /><rect width="20" height="10" x="130" y="140" fill="#000000" /><rect width="10" height="10" x="150" y="140" fill="#d19a54" /><rect width="10" height="10" x="170" y="140" fill="#d19a54" /><rect width="20" height="10" x="180" y="140" fill="#ffffff" /><rect width="20" height="10" x="200" y="140" fill="#000000" /><rect width="10" height="10" x="220" y="140" fill="#d19a54" /><rect width="10" height="10" x="70" y="150" fill="#d19a54" /><rect width="10" height="10" x="100" y="150" fill="#d19a54" /><rect width="20" height="10" x="110" y="150" fill="#ffffff" /><rect width="20" height="10" x="130" y="150" fill="#000000" /><rect width="10" height="10" x="150" y="150" fill="#d19a54" /><rect width="10" height="10" x="170" y="150" fill="#d19a54" /><rect width="20" height="10" x="180" y="150" fill="#ffffff" /><rect width="20" height="10" x="200" y="150" fill="#000000" /><rect width="10" height="10" x="220" y="150" fill="#d19a54" /><rect width="60" height="10" x="100" y="160" fill="#d19a54" /><rect width="60" height="10" x="170" y="160" fill="#d19a54" /></svg>