<svg xmlns:xlink="http://www.w3.org/1999/xlink" width="320" height="320" viewBox="0 0 320 320" xmlns="http://www.w3.org/2000/svg" shape-rendering="crispEdges"><rect width="100%" height="100%" fill="#d5d7e1" /><rect width="140" height="10" x="90" y="210" fill="#fd8b5b" /><rect width="140" height="10" x="90" y="220" fill="#fd8b5b" /><rect width="140" height="10" x="90" y="230" fill="#fd8b5b" /><rect width="140" height="10" x="90" y="240" fill="#fd8b5b" /><rect width="20" height="10" x="90" y="250" fill="#fd8b5b" /><rect width="110" height="10" x="120" y="250" fill="#fd8b5b" /><rect width="20" height="10" x="90" y="260" fill="#fd8b5b" /><rect width="110" height="10" x="120" y="260" fill="#fd8b5b" /><rect width="20" height="10" x="90" y="270" fill="#fd8b5b" /><rect width="110" height="10" x="120" y="270" fill="#fd8b5b" /><rect width="20" height="10" x="90" y="280" fill="#fd8b5b" /><rect width="110" height="10" x="120" y="280" fill="#fd8b5b" /><rect width="20" height="10" x="90" y="290" fill="#fd8b5b" /><rect width="110" height="10" x="120" y="290" fill="#fd8b5b" /><rect width="20" height="10" x="90" y="300" fill="#fd8b5b" /><rect width="110" height="10" x="120" y="300" fill="#fd8b5b" /><rect width="20" height="10" x="90" y="310" fill="#fd8b5b" /><rect width="110" height="10" x="120" y="310" fill="#fd8b5b" /><rect width="20" height="10" x="150" y="240" fill="#feb9d5" /><rect width="30" height="10" x="140" y="250" fill="#feb9d5" /><rect width="20" height="10" x="140" y="260" fill="#feb9d5" /><rect width="10" height="10" x="150" y="270" fill="#feb9d5" /><rect width="20" height="10" x="160" y="270" fill="#ff638d" /><rect width="10" height="10" x="160" y="280" fill="#ff638d" /><rect width="80" height="10" x="120" y="70" fill="#b87b11" /><rect width="60" height="10" x="100" y="80" fill="#b87b11" /><rect width="10" height="10" x="160" y="80" fill="#ffae1a" /><rect width="50" height="10" x="170" y="80" fill="#b87b11" /><rect width="40" height="10" x="90" y="90" fill="#b87b11" /><rect width="10" height="10" x="130" y="90" fill="#ffae1a" /><rect width="50" height="10" x="140" y="90" fill="#b87b11" /><rect width="10" height="10" x="190" y="90" fill="#ffae1a" /><rect width="30" height="10" x="200" y="90" fill="#b87b11" /><rect width="20" height="10" x="80" y="100" fill="#b87b11" /><rect width="10" height="10" x="100" y="100" fill="#ffae1a" /><rect width="130" height="10" x="110" y="100" fill="#b87b11" /><rect width="140" height="10" x="80" y="110" fill="#b87b11" /><rect width="10" height="10" x="220" y="110" fill="#ffae1a" /><rect width="10" height="10" x="230" y="110" fill="#b87b11" /><rect width="180" height="10" x="70" y="120" fill="#b87b11" /><rect width="180" height="10" x="70" y="130" fill="#b87b11" /><rect width="180" height="10" x="70" y="140" fill="#ffc110" /><rect width="80" height="10" x="60" y="150" fill="#ffc110" /><rect width="10" height="10" x="140" y="150" fill="#7e5243" /><rect width="60" height="10" x="150" y="150" fill="#ffc110" /><rect width="20" height="10" x="210" y="150" fill="#7e5243" /><rect width="10" height="10" x="230" y="150" fill="#ffc110" /><rect width="10" height="10" x="240" y="150" fill="#7e5243" /><rect width="10" height="10" x="250" y="150" fill="#ffc110" /><rect width="10" height="10" x="60" y="160" fill="#7e5243" /><rect width="20" height="10" x="70" y="160" fill="#ffc110" /><rect width="10" height="10" x="90" y="160" fill="#7e5243" /><rect width="40" height="10" x="100" y="160" fill="#ffc110" /><rect width="120" height="10" x="140" y="160" fill="#7e5243" /><rect width="20" height="10" x="60" y="170" fill="#7e5243" /><rect width="10" height="10" x="80" y="170" fill="#ffc110" /><rect width="120" height="10" x="90" y="170" fill="#7e5243" /><rect width="10" height="10" x="210" y="170" fill="#ffc110" /><rect width="40" height="10" x="220" y="170" fill="#7e5243" /><rect width="180" height="10" x="70" y="180" fill="#7e5243" /><rect width="160" height="10" x="80" y="190" fill="#b87b11" /><rect width="160" height="10" x="80" y="200" fill="#b87b11" /><rect width="60" height="10" x="100" y="110" fill="#ff638d" /><rect width="60" height="10" x="170" y="110" fill="#ff638d" /><rect width="10" height="10" x="100" y="120" fill="#ff638d" /><rect width="20" height="10" x="110" y="120" fill="#ffffff" /><rect width="20" height="10" x="130" y="120" fill="#000000" /><rect width="10" height="10" x="150" y="120" fill="#ff638d" /><rect width="10" height="10" x="170" y="120" fill="#ff638d" /><rect width="20" height="10" x="180" y="120" fill="#ffffff" /><rect width="20" height="10" x="200" y="120" fill="#000000" /><rect width="10" height="10" x="220" y="120" fill="#ff638d" /><rect width="40" height="10" x="70" y="130" fill="#ff638d" /><rect width="20" height="10" x="110" y="130" fill="#ffffff" /><rect width="20" height="10" x="130" y="130" fill="#000000" /><rect width="30" height="10" x="150" y="130" fill="#ff638d" /><rect width="20" height="10" x="180" y="130" fill="#ffffff" /><rect width="20" height="10" x="200" y="130" fill="#000000" /><rect width="10" height="10" x="220" y="130" fill="#ff638d" /><rect width="40" height="10" x="70" y="140" fill="#ff638d" /><rect width="20" height="10" x="110" y="140" fill="#ffffff" /><rect width="20" height="10" x="130" y="140" fill="#000000" /><rect width="30" height="10" x="150" y="140" fill="#ff638d" /><rect width="20" height="10" x="180" y="140" fill="#ffffff" /><rect width="20" height="10" x="200" y="140" fill="#000000" /><rect width="10" height="10" x="220" y="140" fill="#ff638d" /><rect width="10" height="10" x="70" y="150" fill="#ff638d" /><rect width="10" height="10" x="100" y="150" fill="#ff638d" /><rect width="20" height="10" x="110" y="150" fill="#ffffff" /><rect width="20" height="10" x="130" y="150" fill="#000000" /><rect width="10" height="10" x="150" y="150" fill="#ff638d" /><rect width="10" height="10" x="170" y="150" fill="#ff638d" /><rect width="20" height="10" x="180" y="150" fill="#ffffff" /><rect width="20" height="10" x="200" y="150" fill="#000000" /><rect width="10" height="10" x="220" y="150" fill="#ff638d" /><rect width="60" height="10" x="100" y="160" fill="#ff638d" /><rect width="60" height="10" x="170" y="160" fill="#ff638d" /></svg>