<svg xmlns:xlink="http://www.w3.org/1999/xlink" width="320" height="320" viewBox="0 0 320 320" xmlns="http://www.w3.org/2000/svg" shape-rendering="crispEdges"><rect width="100%" height="100%" fill="#e1d7d5" /><rect width="140" height="10" x="90" y="210" fill="#9f21a0" /><rect width="140" height="10" x="90" y="220" fill="#9f21a0" /><rect width="140" height="10" x="90" y="230" fill="#9f21a0" /><rect width="140" height="10" x="90" y="240" fill="#9f21a0" /><rect width="20" height="10" x="90" y="250" fill="#9f21a0" /><rect width="110" height="10" x="120" y="250" fill="#9f21a0" /><rect width="20" height="10" x="90" y="260" fill="#9f21a0" /><rect width="110" height="10" x="120" y="260" fill="#9f21a0" /><rect width="20" height="10" x="90" y="270" fill="#9f21a0" /><rect width="110" height="10" x="120" y="270" fill="#9f21a0" /><rect width="20" height="10" x="90" y="280" fill="#9f21a0" /><rect width="110" height="10" x="120" y="280" fill="#9f21a0" /><rect width="20" height="10" x="90" y="290" fill="#9f21a0" /><rect width="110" height="10" x="120" y="290" fill="#9f21a0" /><rect width="20" height="10" x="90" y="300" fill="#9f21a0" /><rect width="110" height="10" x="120" y="300" fill="#9f21a0" /><rect width="20" height="10" x="90" y="310" fill="#9f21a0" /><rect width="110" height="10" x="120" y="310" fill="#9f21a0" /><rect width="10" height="10" x="150" y="230" fill="#abf131" /><rect width="10" height="10" x="170" y="230" fill="#abf131" /><rect width="10" height="10" x="130" y="240" fill="#abf131" /><rect width="20" height="10" x="150" y="240" fill="#abf131" /><rect width="30" height="10" x="140" y="250" fill="#abf131" /><rect width="20" height="10" x="140" y="260" fill="#abf131" /><rect width="10" height="10" x="170" y="260" fill="#abf131" /><rect width="10" height="10" x="130" y="270" fill="#abf131" /><rect width="10" height="10" x="150" y="270" fill="#abf131" /><rect width="10" height="10" x="160" y="280" fill="#abf131" /><rect width="10" height="10" x="140" y="290" fill="#abf131" /><rect width="10" height="10" x="110" y="60" fill="#5a423f" /><rect width="10" height="10" x="130" y="60" fill="#5a423f" /><rect width="10" height="10" x="150" y="60" fill="#5a423f" /><rect width="10" height="10" x="170" y="60" fill="#5a423f" /><rect width="10" height="10" x="190" y="60" fill="#5a423f" /><rect width="120" height="10" x="90" y="70" fill="#5a423f" /><rect width="150" height="10" x="80" y="80" fill="#5a423f" /><rect width="20" height="10" x="30" y="90" fill="#5a423f" /><rect width="40" height="10" x="70" y="90" fill="#5a423f" /><rect width="140" height="10" x="110" y="90" fill="#74580d" /><rect width="40" height="10" x="20" y="100" fill="#5a423f" /><rect width="190" height="10" x="80" y="100" fill="#74580d" /><rect width="40" height="10" x="30" y="110" fill="#5a423f" /><rect width="210" height="10" x="70" y="110" fill="#74580d" /><rect width="50" height="10" x="20" y="120" fill="#5a423f" /><rect width="210" height="10" x="70" y="120" fill="#74580d" /><rect width="40" height="10" x="30" y="130" fill="#5a423f" /><rect width="170" height="10" x="70" y="130" fill="#74580d" /><rect width="10" height="10" x="240" y="130" fill="#5a423f" /><rect width="40" height="10" x="250" y="130" fill="#74580d" /><rect width="30" height="10" x="40" y="140" fill="#5a423f" /><rect width="160" height="10" x="70" y="140" fill="#74580d" /><rect width="20" height="10" x="230" y="140" fill="#aa940c" /><rect width="40" height="10" x="250" y="140" fill="#74580d" /><rect width="40" height="10" x="30" y="150" fill="#5a423f" /><rect width="140" height="10" x="70" y="150" fill="#74580d" /><rect width="20" height="10" x="210" y="150" fill="#aa940c" /><rect width="40" height="10" x="230" y="150" fill="#74580d" /><rect width="20" height="10" x="270" y="150" fill="#d18687" /><rect width="30" height="10" x="40" y="160" fill="#5a423f" /><rect width="130" height="10" x="70" y="160" fill="#74580d" /><rect width="10" height="10" x="200" y="160" fill="#aa940c" /><rect width="40" height="10" x="210" y="160" fill="#74580d" /><rect width="20" height="10" x="250" y="160" fill="#d18687" /><rect width="40" height="10" x="30" y="170" fill="#5a423f" /><rect width="120" height="10" x="70" y="170" fill="#74580d" /><rect width="10" height="10" x="190" y="170" fill="#aa940c" /><rect width="40" height="10" x="200" y="170" fill="#74580d" /><rect width="10" height="10" x="240" y="170" fill="#d18687" /><rect width="50" height="10" x="20" y="180" fill="#5a423f" /><rect width="50" height="10" x="70" y="180" fill="#74580d" /><rect width="20" height="10" x="120" y="180" fill="#5a423f" /><rect width="40" height="10" x="140" y="180" fill="#74580d" /><rect width="10" height="10" x="180" y="180" fill="#5a423f" /><rect width="10" height="10" x="190" y="180" fill="#aa940c" /><rect width="30" height="10" x="200" y="180" fill="#74580d" /><rect width="10" height="10" x="230" y="180" fill="#d18687" /><rect width="50" height="10" x="240" y="180" fill="#aa940c" /><rect width="40" height="10" x="30" y="190" fill="#5a423f" /><rect width="40" height="10" x="70" y="190" fill="#74580d" /><rect width="10" height="10" x="110" y="190" fill="#5a423f" /><rect width="50" height="10" x="120" y="190" fill="#74580d" /><rect width="20" height="10" x="170" y="190" fill="#5a423f" /><rect width="10" height="10" x="190" y="190" fill="#aa940c" /><rect width="20" height="10" x="200" y="190" fill="#74580d" /><rect width="10" height="10" x="220" y="190" fill="#d18687" /><rect width="10" height="10" x="230" y="190" fill="#aa940c" /><rect width="40" height="10" x="240" y="190" fill="#74580d" /><rect width="40" height="10" x="20" y="200" fill="#5a423f" /><rect width="70" height="10" x="80" y="200" fill="#74580d" /><rect width="40" height="10" x="150" y="200" fill="#5a423f" /><rect width="10" height="10" x="190" y="200" fill="#aa940c" /><rect width="70" height="10" x="200" y="200" fill="#74580d" /><rect width="20" height="10" x="30" y="210" fill="#5a423f" /><rect width="20" height="10" x="110" y="210" fill="#74580d" /><rect width="50" height="10" x="130" y="210" fill="#5a423f" /><rect width="20" height="10" x="180" y="210" fill="#74580d" /><rect width="10" height="10" x="200" y="210" fill="#aa940c" /><rect width="40" height="10" x="210" y="210" fill="#74580d" /><rect width="30" height="10" x="140" y="220" fill="#5a423f" /><rect width="60" height="10" x="100" y="110" fill="#e8705b" /><rect width="60" height="10" x="170" y="110" fill="#e8705b" /><rect width="10" height="10" x="100" y="120" fill="#e8705b" /><rect width="20" height="10" x="110" y="120" fill="#ffffff" /><rect width="20" height="10" x="130" y="120" fill="#000000" /><rect width="10" height="10" x="150" y="120" fill="#e8705b" /><rect width="10" height="10" x="170" y="120" fill="#e8705b" /><rect width="20" height="10" x="180" y="120" fill="#ffffff" /><rect width="20" height="10" x="200" y="120" fill="#000000" /><rect width="10" height="10" x="220" y="120" fill="#e8705b" /><rect width="40" height="10" x="70" y="130" fill="#e8705b" /><rect width="20" height="10" x="110" y="130" fill="#ffffff" /><rect width="20" height="10" x="130" y="130" fill="#000000" /><rect width="30" height="10" x="150" y="130" fill="#e8705b" /><rect width="20" height="10" x="180" y="130" fill="#ffffff" /><rect width="20" height="10" x="200" y="130" fill="#000000" /><rect width="10" height="10" x="220" y="130" fill="#e8705b" /><rect width="10" height="10" x="70" y="140" fill="#e8705b" /><rect width="10" height="10" x="100" y="140" fill="#e8705b" /><rect width="20" height="10" x="110" y="140" fill="#ffffff" /><rect width="20" height="10" x="130" y="140" fill="#000000" /><rect width="10" height="10" x="150" y="140" fill="#e8705b" /><rect width="10" height="10" x="170" y="140" fill="#e8705b" /><rect width="20" height="10" x="180" y="140" fill="#ffffff" /><rect width="20" height="10" x="200" y="140" fill="#000000" /><rect width="10" height="10" x="220" y="140" fill="#e8705b" /><rect width="10" height="10" x="70" y="150" fill="#e8705b" /><rect width="10" height="10" x="100" y="150" fill="#e8705b" /><rect width="20" height="10" x="110" y="150" fill="#ffffff" /><rect width="20" height="10" x="130" y="150" fill="#000000" /><rect width="10" height="10" x="150" y="150" fill="#e8705b" /><rect width="10" height="10" x="170" y="150" fill="#e8705b" /><rect width="20" height="10" x="180" y="150" fill="#ffffff" /><rect width="20" height="10" x="200" y="150" fill="#000000" /><rect width="10" height="10" x="220" y="150" fill="#e8705b" /><rect width="60" height="10" x="100" y="160" fill="#e8705b" /><rect width="60" height="10" x="170" y="160" fill="#e8705b" /></svg>