<svg xmlns:xlink="http://www.w3.org/1999/xlink" width="320" height="320" viewBox="0 0 320 320" xmlns="http://www.w3.org/2000/svg" shape-rendering="crispEdges"><rect width="100%" height="100%" fill="#e1d7d5" /><rect width="140" height="10" x="90" y="210" fill="#fe500c" /><rect width="140" height="10" x="90" y="220" fill="#fe500c" /><rect width="140" height="10" x="90" y="230" fill="#fe500c" /><rect width="140" height="10" x="90" y="240" fill="#fe500c" /><rect width="20" height="10" x="90" y="250" fill="#fe500c" /><rect width="110" height="10" x="120" y="250" fill="#fe500c" /><rect width="20" height="10" x="90" y="260" fill="#fe500c" /><rect width="110" height="10" x="120" y="260" fill="#fe500c" /><rect width="20" height="10" x="90" y="270" fill="#fe500c" /><rect width="110" height="10" x="120" y="270" fill="#fe500c" /><rect width="20" height="10" x="90" y="280" fill="#fe500c" /><rect width="110" height="10" x="120" y="280" fill="#fe500c" /><rect width="20" height="10" x="90" y="290" fill="#fe500c" /><rect width="110" height="10" x="120" y="290" fill="#fe500c" /><rect width="20" height="10" x="90" y="300" fill="#fe500c" /><rect width="110" height="10" x="120" y="300" fill="#fe500c" /><rect width="20" height="10" x="90" y="310" fill="#fe500c" /><rect width="110" height="10" x="120" y="310" fill="#fe500c" /><rect width="140" height="10" x="90" y="210" fill="#2b83f6" /><rect width="140" height="10" x="90" y="230" fill="#2b83f6" /><rect width="20" height="10" x="90" y="250" fill="#2b83f6" /><rect width="110" height="10" x="120" y="250" fill="#2b83f6" /><rect width="20" height="10" x="90" y="270" fill="#2b83f6" /><rect width="110" height="10" x="120" y="270" fill="#2b83f6" /><rect width="20" height="10" x="90" y="290" fill="#2b83f6" /><rect width="110" height="10" x="120" y="290" fill="#2b83f6" /><rect width="20" height="10" x="90" y="310" fill="#2b83f6" /><rect width="110" height="10" x="120" y="310" fill="#2b83f6" /><rect width="40" height="10" x="30" y="90" fill="#2b83f6" /><rect width="40" height="10" x="250" y="90" fill="#e11833" /><rect width="10" height="10" x="40" y="100" fill="#ffc110" /><rect width="40" height="10" x="60" y="100" fill="#2b83f6" /><rect width="40" height="10" x="220" y="100" fill="#e11833" /><rect width="10" height="10" x="270" y="100" fill="#fff0ee" /><rect width="10" height="10" x="40" y="110" fill="#ffc110" /><rect width="10" height="10" x="60" y="110" fill="#e11833" /><rect width="40" height="10" x="80" y="110" fill="#2b83f6" /><rect width="30" height="10" x="200" y="110" fill="#e11833" /><rect width="10" height="10" x="230" y="110" fill="#2b83f6" /><rect width="10" height="10" x="250" y="110" fill="#ffc110" /><rect width="10" height="10" x="270" y="110" fill="#fff0ee" /><rect width="10" height="10" x="40" y="120" fill="#ffc110" /><rect width="10" height="10" x="60" y="120" fill="#e11833" /><rect width="10" height="10" x="80" y="120" fill="#2b83f6" /><rect width="10" height="10" x="100" y="120" fill="#fff0ee" /><rect width="20" height="10" x="110" y="120" fill="#2b83f6" /><rect width="20" height="10" x="190" y="120" fill="#e11833" /><rect width="10" height="10" x="210" y="120" fill="#2b83f6" /><rect width="10" height="10" x="230" y="120" fill="#2b83f6" /><rect width="10" height="10" x="250" y="120" fill="#ffc110" /><rect width="10" height="10" x="270" y="120" fill="#fff0ee" /><rect width="10" height="10" x="40" y="130" fill="#ffc110" /><rect width="10" height="10" x="60" y="130" fill="#e11833" /><rect width="10" height="10" x="80" y="130" fill="#2b83f6" /><rect width="10" height="10" x="100" y="130" fill="#fff0ee" /><rect width="20" height="10" x="120" y="130" fill="#2b83f6" /><rect width="20" height="10" x="180" y="130" fill="#e11833" /><rect width="10" height="10" x="210" y="130" fill="#2b83f6" /><rect width="10" height="10" x="230" y="130" fill="#2b83f6" /><rect width="10" height="10" x="250" y="130" fill="#ffc110" /><rect width="10" height="10" x="270" y="130" fill="#fff0ee" /><rect width="10" height="10" x="40" y="140" fill="#ffc110" /><rect width="10" height="10" x="60" y="140" fill="#e11833" /><rect width="10" height="10" x="80" y="140" fill="#2b83f6" /><rect width="10" height="10" x="100" y="140" fill="#fff0ee" /><rect width="30" height="10" x="120" y="140" fill="#2b83f6" /><rect width="20" height="10" x="170" y="140" fill="#e11833" /><rect width="10" height="10" x="190" y="140" fill="#2b83f6" /><rect width="10" height="10" x="210" y="140" fill="#2b83f6" /><rect width="10" height="10" x="230" y="140" fill="#2b83f6" /><rect width="10" height="10" x="250" y="140" fill="#ffc110" /><rect width="10" height="10" x="270" y="140" fill="#fff0ee" /><rect width="10" height="10" x="40" y="150" fill="#ffc110" /><rect width="10" height="10" x="60" y="150" fill="#e11833" /><rect width="10" height="10" x="80" y="150" fill="#2b83f6" /><rect width="10" height="10" x="100" y="150" fill="#fff0ee" /><rect width="10" height="10" x="120" y="150" fill="#2b83f6" /><rect width="20" height="10" x="140" y="150" fill="#2b83f6" /><rect width="20" height="10" x="160" y="150" fill="#e11833" /><rect width="10" height="10" x="190" y="150" fill="#2b83f6" /><rect width="10" height="10" x="210" y="150" fill="#2b83f6" /><rect width="10" height="10" x="230" y="150" fill="#2b83f6" /><rect width="10" height="10" x="250" y="150" fill="#ffc110" /><rect width="10" height="10" x="270" y="150" fill="#fff0ee" /><rect width="10" height="10" x="40" y="160" fill="#2b83f6" /><rect width="10" height="10" x="60" y="160" fill="#fff0ee" /><rect width="10" height="10" x="80" y="160" fill="#ffc110" /><rect width="10" height="10" x="100" y="160" fill="#e11833" /><rect width="10" height="10" x="120" y="160" fill="#2b83f6" /><rect width="20" height="10" x="150" y="160" fill="#e11833" /><rect width="10" height="10" x="190" y="160" fill="#2b83f6" /><rect width="10" height="10" x="210" y="160" fill="#2b83f6" /><rect width="10" height="10" x="230" y="160" fill="#e11833" /><rect width="10" height="10" x="250" y="160" fill="#2b83f6" /><rect width="10" height="10" x="270" y="160" fill="#e11833" /><rect width="10" height="10" x="40" y="170" fill="#2b83f6" /><rect width="10" height="10" x="60" y="170" fill="#fff0ee" /><rect width="10" height="10" x="80" y="170" fill="#ffc110" /><rect width="10" height="10" x="100" y="170" fill="#e11833" /><rect width="10" height="10" x="120" y="170" fill="#2b83f6" /><rect width="20" height="10" x="140" y="170" fill="#e11833" /><rect width="20" height="10" x="160" y="170" fill="#2b83f6" /><rect width="10" height="10" x="190" y="170" fill="#2b83f6" /><rect width="10" height="10" x="210" y="170" fill="#2b83f6" /><rect width="10" height="10" x="230" y="170" fill="#e11833" /><rect width="10" height="10" x="250" y="170" fill="#2b83f6" /><rect width="10" height="10" x="270" y="170" fill="#e11833" /><rect width="10" height="10" x="40" y="180" fill="#2b83f6" /><rect width="10" height="10" x="60" y="180" fill="#fff0ee" /><rect width="10" height="10" x="80" y="180" fill="#ffc110" /><rect width="10" height="10" x="100" y="180" fill="#e11833" /><rect width="10" height="10" x="120" y="180" fill="#2b83f6" /><rect width="20" height="10" x="130" y="180" fill="#e11833" /><rect width="30" height="10" x="170" y="180" fill="#2b83f6" /><rect width="10" height="10" x="210" y="180" fill="#2b83f6" /><rect width="10" height="10" x="230" y="180" fill="#e11833" /><rect width="10" height="10" x="250" y="180" fill="#2b83f6" /><rect width="10" height="10" x="270" y="180" fill="#e11833" /><rect width="10" height="10" x="40" y="190" fill="#2b83f6" /><rect width="10" height="10" x="60" y="190" fill="#fff0ee" /><rect width="10" height="10" x="80" y="190" fill="#ffc110" /><rect width="10" height="10" x="100" y="190" fill="#e11833" /><rect width="20" height="10" x="120" y="190" fill="#e11833" /><rect width="20" height="10" x="180" y="190" fill="#2b83f6" /><rect width="10" height="10" x="210" y="190" fill="#2b83f6" /><rect width="10" height="10" x="230" y="190" fill="#e11833" /><rect width="10" height="10" x="250" y="190" fill="#2b83f6" /><rect width="10" height="10" x="270" y="190" fill="#e11833" /><rect width="10" height="10" x="40" y="200" fill="#2b83f6" /><rect width="10" height="10" x="60" y="200" fill="#fff0ee" /><rect width="10" height="10" x="80" y="200" fill="#ffc110" /><rect width="30" height="10" x="100" y="200" fill="#e11833" /><rect width="30" height="10" x="190" y="200" fill="#2b83f6" /><rect width="10" height="10" x="230" y="200" fill="#e11833" /><rect width="10" height="10" x="250" y="200" fill="#2b83f6" /><rect width="10" height="10" x="270" y="200" fill="#e11833" /><rect width="10" height="10" x="40" y="210" fill="#2b83f6" /><rect width="50" height="10" x="60" y="210" fill="#e11833" /><rect width="50" height="10" x="210" y="210" fill="#2b83f6" /><rect width="10" height="10" x="270" y="210" fill="#e11833" /><rect width="50" height="10" x="30" y="220" fill="#e11833" /><rect width="50" height="10" x="240" y="220" fill="#2b83f6" /><rect width="60" height="10" x="100" y="110" fill="#b9185c" /><rect width="60" height="10" x="170" y="110" fill="#b9185c" /><rect width="10" height="10" x="100" y="120" fill="#b9185c" /><rect width="20" height="10" x="110" y="120" fill="#ffffff" /><rect width="20" height="10" x="130" y="120" fill="#000000" /><rect width="10" height="10" x="150" y="120" fill="#b9185c" /><rect width="10" height="10" x="170" y="120" fill="#b9185c" /><rect width="20" height="10" x="180" y="120" fill="#ffffff" /><rect width="20" height="10" x="200" y="120" fill="#000000" /><rect width="10" height="10" x="220" y="120" fill="#b9185c" /><rect width="40" height="10" x="70" y="130" fill="#b9185c" /><rect width="20" height="10" x="110" y="130" fill="#ffffff" /><rect width="20" height="10" x="130" y="130" fill="#000000" /><rect width="30" height="10" x="150" y="130" fill="#b9185c" /><rect width="20" height="10" x="180" y="130" fill="#ffffff" /><rect width="20" height="10" x="200" y="130" fill="#000000" /><rect width="10" height="10" x="220" y="130" fill="#b9185c" /><rect width="10" height="10" x="70" y="140" fill="#b9185c" /><rect width="10" height="10" x="100" y="140" fill="#b9185c" /><rect width="20" height="10" x="110" y="140" fill="#ffffff" /><rect width="20" height="10" x="130" y="140" fill="#000000" /><rect width="10" height="10" x="150" y="140" fill="#b9185c" /><rect width="10" height="10" x="170" y="140" fill="#b9185c" /><rect width="20" height="10" x="180" y="140" fill="#ffffff" /><rect width="20" height="10" x="200" y="140" fill="#000000" /><rect width="10" height="10" x="220" y="140" fill="#b9185c" /><rect width="10" height="10" x="70" y="150" fill="#b9185c" /><rect width="10" height="10" x="100" y="150" fill="#b9185c" /><rect width="20" height="10" x="110" y="150" fill="#ffffff" /><rect width="20" height="10" x="130" y="150" fill="#000000" /><rect width="10" height="10" x="150" y="150" fill="#b9185c" /><rect width="10" height="10" x="170" y="150" fill="#b9185c" /><rect width="20" height="10" x="180" y="150" fill="#ffffff" /><rect width="20" height="10" x="200" y="150" fill="#000000" /><rect width="10" height="10" x="220" y="150" fill="#b9185c" /><rect width="60" height="10" x="100" y="160" fill="#b9185c" /><rect width="60" height="10" x="170" y="160" fill="#b9185c" /></svg>