<svg xmlns:xlink="http://www.w3.org/1999/xlink" width="320" height="320" viewBox="0 0 320 320" xmlns="http://www.w3.org/2000/svg" shape-rendering="crispEdges"><rect width="100%" height="100%" fill="#d5d7e1" /><rect width="140" height="10" x="90" y="210" fill="#eed811" /><rect width="140" height="10" x="90" y="220" fill="#eed811" /><rect width="140" height="10" x="90" y="230" fill="#eed811" /><rect width="140" height="10" x="90" y="240" fill="#eed811" /><rect width="20" height="10" x="90" y="250" fill="#eed811" /><rect width="110" height="10" x="120" y="250" fill="#eed811" /><rect width="20" height="10" x="90" y="260" fill="#eed811" /><rect width="110" height="10" x="120" y="260" fill="#eed811" /><rect width="20" height="10" x="90" y="270" fill="#eed811" /><rect width="110" height="10" x="120" y="270" fill="#eed811" /><rect width="20" height="10" x="90" y="280" fill="#eed811" /><rect width="110" height="10" x="120" y="280" fill="#eed811" /><rect width="20" height="10" x="90" y="290" fill="#eed811" /><rect width="110" height="10" x="120" y="290" fill="#eed811" /><rect width="20" height="10" x="90" y="300" fill="#eed811" /><rect width="110" height="10" x="120" y="300" fill="#eed811" /><rect width="20" height="10" x="90" y="310" fill="#eed811" /><rect width="110" height="10" x="120" y="310" fill="#eed811" /><rect width="10" height="10" x="110" y="210" fill="#505a5c" /><rect width="10" height="10" x="210" y="210" fill="#505a5c" /><rect width="10" height="10" x="120" y="220" fill="#505a5c" /><rect width="10" height="10" x="200" y="220" fill="#505a5c" /><rect width="10" height="10" x="130" y="230" fill="#505a5c" /><rect width="10" height="10" x="190" y="230" fill="#505a5c" /><rect width="10" height="10" x="140" y="240" fill="#505a5c" /><rect width="10" height="10" x="180" y="240" fill="#505a5c" /><rect width="30" height="10" x="150" y="250" fill="#505a5c" /><rect width="10" height="10" x="160" y="260" fill="#343235" /><rect width="20" height="10" x="130" y="270" fill="#343235" /><rect width="50" height="10" x="150" y="270" fill="#505a5c" /><rect width="20" height="10" x="140" y="280" fill="#343235" /><rect width="30" height="10" x="160" y="280" fill="#505a5c" /><rect width="30" height="10" x="150" y="290" fill="#343235" /><rect width="20" height="10" x="140" y="300" fill="#343235" /><rect width="30" height="10" x="160" y="300" fill="#505a5c" /><rect width="230" height="10" x="50" y="60" fill="#4a5358" /><rect width="230" height="10" x="50" y="70" fill="#4a5358" /><rect width="230" height="10" x="50" y="80" fill="#f9f5e9" /><rect width="230" height="10" x="50" y="90" fill="#4a5358" /><rect width="230" height="10" x="50" y="100" fill="#4a5358" /><rect width="230" height="10" x="40" y="110" fill="#4a5358" /><rect width="230" height="10" x="40" y="120" fill="#4a5358" /><rect width="230" height="10" x="40" y="130" fill="#4a5358" /><rect width="230" height="10" x="40" y="140" fill="#4a5358" /><rect width="230" height="10" x="40" y="150" fill="#4a5358" /><rect width="240" height="10" x="30" y="160" fill="#4a5358" /><rect width="230" height="10" x="30" y="170" fill="#fbc800" /><rect width="230" height="10" x="30" y="180" fill="#4a5358" /><rect width="10" height="10" x="30" y="190" fill="#4a5358" /><rect width="30" height="10" x="40" y="190" fill="#fbc800" /><rect width="30" height="10" x="70" y="190" fill="#4a5358" /><rect width="30" height="10" x="100" y="190" fill="#fbc800" /><rect width="30" height="10" x="130" y="190" fill="#4a5358" /><rect width="30" height="10" x="160" y="190" fill="#fbc800" /><rect width="30" height="10" x="190" y="190" fill="#4a5358" /><rect width="30" height="10" x="220" y="190" fill="#fbc800" /><rect width="10" height="10" x="250" y="190" fill="#4a5358" /><rect width="230" height="10" x="30" y="200" fill="#4a5358" /><rect width="60" height="10" x="100" y="110" fill="#000000" /><rect width="60" height="10" x="170" y="110" fill="#000000" /><rect width="10" height="10" x="100" y="120" fill="#000000" /><rect width="20" height="10" x="110" y="120" fill="#ffffff" /><rect width="30" height="10" x="130" y="120" fill="#000000" /><rect width="10" height="10" x="170" y="120" fill="#000000" /><rect width="20" height="10" x="180" y="120" fill="#ffffff" /><rect width="30" height="10" x="200" y="120" fill="#000000" /><rect width="40" height="10" x="70" y="130" fill="#000000" /><rect width="20" height="10" x="110" y="130" fill="#ffffff" /><rect width="50" height="10" x="130" y="130" fill="#000000" /><rect width="20" height="10" x="180" y="130" fill="#ffffff" /><rect width="30" height="10" x="200" y="130" fill="#000000" /><rect width="10" height="10" x="70" y="140" fill="#000000" /><rect width="10" height="10" x="100" y="140" fill="#000000" /><rect width="20" height="10" x="110" y="140" fill="#ffffff" /><rect width="30" height="10" x="130" y="140" fill="#000000" /><rect width="10" height="10" x="170" y="140" fill="#000000" /><rect width="20" height="10" x="180" y="140" fill="#ffffff" /><rect width="30" height="10" x="200" y="140" fill="#000000" /><rect width="10" height="10" x="70" y="150" fill="#000000" /><rect width="10" height="10" x="100" y="150" fill="#000000" /><rect width="20" height="10" x="110" y="150" fill="#ffffff" /><rect width="30" height="10" x="130" y="150" fill="#000000" /><rect width="10" height="10" x="170" y="150" fill="#000000" /><rect width="20" height="10" x="180" y="150" fill="#ffffff" /><rect width="30" height="10" x="200" y="150" fill="#000000" /><rect width="60" height="10" x="100" y="160" fill="#000000" /><rect width="60" height="10" x="170" y="160" fill="#000000" /></svg>