<svg xmlns:xlink="http://www.w3.org/1999/xlink" width="320" height="320" viewBox="0 0 320 320" xmlns="http://www.w3.org/2000/svg" shape-rendering="crispEdges"><rect width="100%" height="100%" fill="#e1d7d5" /><rect width="140" height="10" x="90" y="210" fill="#fe500c" /><rect width="140" height="10" x="90" y="220" fill="#fe500c" /><rect width="140" height="10" x="90" y="230" fill="#fe500c" /><rect width="140" height="10" x="90" y="240" fill="#fe500c" /><rect width="20" height="10" x="90" y="250" fill="#fe500c" /><rect width="110" height="10" x="120" y="250" fill="#fe500c" /><rect width="20" height="10" x="90" y="260" fill="#fe500c" /><rect width="110" height="10" x="120" y="260" fill="#fe500c" /><rect width="20" height="10" x="90" y="270" fill="#fe500c" /><rect width="110" height="10" x="120" y="270" fill="#fe500c" /><rect width="20" height="10" x="90" y="280" fill="#fe500c" /><rect width="110" height="10" x="120" y="280" fill="#fe500c" /><rect width="20" height="10" x="90" y="290" fill="#fe500c" /><rect width="110" height="10" x="120" y="290" fill="#fe500c" /><rect width="20" height="10" x="90" y="300" fill="#fe500c" /><rect width="110" height="10" x="120" y="300" fill="#fe500c" /><rect width="20" height="10" x="90" y="310" fill="#fe500c" /><rect width="110" height="10" x="120" y="310" fill="#fe500c" /><rect width="10" height="10" x="130" y="210" fill="#ffc110" /><rect width="10" height="10" x="190" y="210" fill="#ffc110" /><rect width="10" height="10" x="140" y="220" fill="#ffc110" /><rect width="10" height="10" x="180" y="220" fill="#ffc110" /><rect width="10" height="10" x="150" y="230" fill="#ffc110" /><rect width="10" height="10" x="170" y="230" fill="#ffc110" /><rect width="10" height="10" x="160" y="240" fill="#ffc110" /><rect width="10" height="10" x="160" y="250" fill="#ffc110" /><rect width="30" height="10" x="150" y="260" fill="#ffc110" /><rect width="10" height="10" x="160" y="270" fill="#ffc110" /><rect width="10" height="10" x="140" y="280" fill="#ffc110" /><rect width="10" height="10" x="160" y="280" fill="#ffc110" /><rect width="10" height="10" x="180" y="280" fill="#ffc110" /><rect width="30" height="10" x="150" y="290" fill="#ffc110" /><rect width="20" height="10" x="150" y="10" fill="#e2c8c0" /><rect width="20" height="10" x="90" y="20" fill="#e2c8c0" /><rect width="20" height="10" x="140" y="20" fill="#e2c8c0" /><rect width="20" height="10" x="210" y="20" fill="#e2c8c0" /><rect width="20" height="10" x="100" y="30" fill="#e2c8c0" /><rect width="20" height="10" x="150" y="30" fill="#e2c8c0" /><rect width="20" height="10" x="200" y="30" fill="#e2c8c0" /><rect width="20" height="10" x="90" y="40" fill="#e2c8c0" /><rect width="20" height="10" x="140" y="40" fill="#e2c8c0" /><rect width="20" height="10" x="210" y="40" fill="#e2c8c0" /><rect width="20" height="10" x="100" y="50" fill="#e2c8c0" /><rect width="20" height="10" x="200" y="50" fill="#e2c8c0" /><rect width="20" height="10" x="90" y="60" fill="#e2c8c0" /><rect width="20" height="10" x="150" y="60" fill="#b9185c" /><rect width="20" height="10" x="210" y="60" fill="#e2c8c0" /><rect width="20" height="10" x="100" y="70" fill="#e2c8c0" /><rect width="20" height="10" x="140" y="70" fill="#b9185c" /><rect width="10" height="10" x="160" y="70" fill="#e9265c" /><rect width="10" height="10" x="170" y="70" fill="#b9185c" /><rect width="20" height="10" x="200" y="70" fill="#e2c8c0" /><rect width="10" height="10" x="130" y="80" fill="#d19a54" /><rect width="40" height="10" x="140" y="80" fill="#b9185c" /><rect width="10" height="10" x="180" y="80" fill="#d19a54" /><rect width="20" height="10" x="90" y="90" fill="#d19a54" /><rect width="10" height="10" x="110" y="90" fill="#b9185c" /><rect width="30" height="10" x="120" y="90" fill="#d19a54" /><rect width="20" height="10" x="150" y="90" fill="#b9185c" /><rect width="30" height="10" x="170" y="90" fill="#d19a54" /><rect width="10" height="10" x="200" y="90" fill="#b9185c" /><rect width="20" height="10" x="210" y="90" fill="#d19a54" /><rect width="180" height="10" x="70" y="100" fill="#d19a54" /><rect width="10" height="10" x="60" y="110" fill="#d19a54" /><rect width="10" height="10" x="70" y="110" fill="#b9185c" /><rect width="160" height="10" x="80" y="110" fill="#d19a54" /><rect width="10" height="10" x="240" y="110" fill="#b9185c" /><rect width="10" height="10" x="250" y="110" fill="#d19a54" /><rect width="220" height="10" x="50" y="120" fill="#d19a54" /><rect width="10" height="10" x="50" y="130" fill="#d19a54" /><rect width="40" height="10" x="60" y="130" fill="#c16923" /><rect width="10" height="10" x="100" y="130" fill="#d19a54" /><rect width="40" height="10" x="110" y="130" fill="#c16923" /><rect width="10" height="10" x="150" y="130" fill="#d19a54" /><rect width="40" height="10" x="160" y="130" fill="#c16923" /><rect width="10" height="10" x="200" y="130" fill="#d19a54" /><rect width="40" height="10" x="210" y="130" fill="#c16923" /><rect width="10" height="10" x="250" y="130" fill="#d19a54" /><rect width="10" height="10" x="260" y="130" fill="#c16923" /><rect width="240" height="10" x="40" y="140" fill="#c16923" /><rect width="240" height="10" x="40" y="150" fill="#c16923" /><rect width="30" height="10" x="40" y="160" fill="#c16923" /><rect width="20" height="10" x="70" y="160" fill="#769ca9" /><rect width="30" height="10" x="90" y="160" fill="#c16923" /><rect width="10" height="10" x="120" y="160" fill="#5a6b7b" /><rect width="10" height="10" x="130" y="160" fill="#769ca9" /><rect width="30" height="10" x="140" y="160" fill="#c16923" /><rect width="10" height="10" x="170" y="160" fill="#769ca9" /><rect width="10" height="10" x="180" y="160" fill="#5a6b7b" /><rect width="30" height="10" x="190" y="160" fill="#c16923" /><rect width="20" height="10" x="220" y="160" fill="#769ca9" /><rect width="40" height="10" x="240" y="160" fill="#c16923" /><rect width="10" height="10" x="40" y="170" fill="#c16923" /><rect width="10" height="10" x="50" y="170" fill="#769ca9" /><rect width="10" height="10" x="60" y="170" fill="#5a6b7b" /><rect width="20" height="10" x="70" y="170" fill="#769ca9" /><rect width="10" height="10" x="90" y="170" fill="#5a6b7b" /><rect width="20" height="10" x="100" y="170" fill="#769ca9" /><rect width="10" height="10" x="120" y="170" fill="#1e3445" /><rect width="20" height="10" x="130" y="170" fill="#769ca9" /><rect width="10" height="10" x="150" y="170" fill="#5a6b7b" /><rect width="20" height="10" x="160" y="170" fill="#769ca9" /><rect width="10" height="10" x="180" y="170" fill="#5a6b7b" /><rect width="20" height="10" x="190" y="170" fill="#769ca9" /><rect width="10" height="10" x="210" y="170" fill="#5a6b7b" /><rect width="20" height="10" x="220" y="170" fill="#769ca9" /><rect width="10" height="10" x="240" y="170" fill="#5a6b7b" /><rect width="20" height="10" x="250" y="170" fill="#769ca9" /><rect width="10" height="10" x="270" y="170" fill="#c16923" /><rect width="10" height="10" x="50" y="180" fill="#769ca9" /><rect width="10" height="10" x="60" y="180" fill="#5a6b7b" /><rect width="20" height="10" x="70" y="180" fill="#769ca9" /><rect width="10" height="10" x="90" y="180" fill="#5a6b7b" /><rect width="20" height="10" x="100" y="180" fill="#769ca9" /><rect width="90" height="10" x="120" y="180" fill="#1e3445" /><rect width="10" height="10" x="210" y="180" fill="#5a6b7b" /><rect width="20" height="10" x="220" y="180" fill="#769ca9" /><rect width="10" height="10" x="240" y="180" fill="#5a6b7b" /><rect width="20" height="10" x="250" y="180" fill="#769ca9" /><rect width="10" height="10" x="60" y="190" fill="#5a6b7b" /><rect width="20" height="10" x="70" y="190" fill="#769ca9" /><rect width="10" height="10" x="90" y="190" fill="#5a6b7b" /><rect width="20" height="10" x="100" y="190" fill="#769ca9" /><rect width="10" height="10" x="120" y="190" fill="#1e3445" /><rect width="20" height="10" x="130" y="190" fill="#769ca9" /><rect width="10" height="10" x="150" y="190" fill="#5a6b7b" /><rect width="20" height="10" x="160" y="190" fill="#769ca9" /><rect width="10" height="10" x="180" y="190" fill="#5a6b7b" /><rect width="20" height="10" x="190" y="190" fill="#769ca9" /><rect width="10" height="10" x="210" y="190" fill="#5a6b7b" /><rect width="20" height="10" x="220" y="190" fill="#769ca9" /><rect width="10" height="10" x="240" y="190" fill="#5a6b7b" /><rect width="10" height="10" x="250" y="190" fill="#769ca9" /><rect width="10" height="10" x="60" y="200" fill="#5a6b7b" /><rect width="20" height="10" x="70" y="200" fill="#769ca9" /><rect width="10" height="10" x="90" y="200" fill="#5a6b7b" /><rect width="20" height="10" x="100" y="200" fill="#769ca9" /><rect width="10" height="10" x="120" y="200" fill="#5a6b7b" /><rect width="20" height="10" x="130" y="200" fill="#769ca9" /><rect width="10" height="10" x="150" y="200" fill="#5a6b7b" /><rect width="20" height="10" x="160" y="200" fill="#769ca9" /><rect width="10" height="10" x="180" y="200" fill="#5a6b7b" /><rect width="20" height="10" x="190" y="200" fill="#769ca9" /><rect width="10" height="10" x="210" y="200" fill="#5a6b7b" /><rect width="20" height="10" x="220" y="200" fill="#769ca9" /><rect width="10" height="10" x="240" y="200" fill="#5a6b7b" /><rect width="10" height="10" x="250" y="200" fill="#769ca9" /><rect width="60" height="10" x="100" y="110" fill="#2b83f6" /><rect width="60" height="10" x="170" y="110" fill="#2b83f6" /><rect width="10" height="10" x="100" y="120" fill="#2b83f6" /><rect width="20" height="10" x="110" y="120" fill="#ffffff" /><rect width="20" height="10" x="130" y="120" fill="#000000" /><rect width="10" height="10" x="150" y="120" fill="#2b83f6" /><rect width="10" height="10" x="170" y="120" fill="#2b83f6" /><rect width="20" height="10" x="180" y="120" fill="#ffffff" /><rect width="20" height="10" x="200" y="120" fill="#000000" /><rect width="10" height="10" x="220" y="120" fill="#2b83f6" /><rect width="40" height="10" x="70" y="130" fill="#2b83f6" /><rect width="20" height="10" x="110" y="130" fill="#ffffff" /><rect width="20" height="10" x="130" y="130" fill="#000000" /><rect width="30" height="10" x="150" y="130" fill="#2b83f6" /><rect width="20" height="10" x="180" y="130" fill="#ffffff" /><rect width="20" height="10" x="200" y="130" fill="#000000" /><rect width="10" height="10" x="220" y="130" fill="#2b83f6" /><rect width="10" height="10" x="70" y="140" fill="#2b83f6" /><rect width="10" height="10" x="100" y="140" fill="#2b83f6" /><rect width="20" height="10" x="110" y="140" fill="#ffffff" /><rect width="20" height="10" x="130" y="140" fill="#000000" /><rect width="10" height="10" x="150" y="140" fill="#2b83f6" /><rect width="10" height="10" x="170" y="140" fill="#2b83f6" /><rect width="20" height="10" x="180" y="140" fill="#ffffff" /><rect width="20" height="10" x="200" y="140" fill="#000000" /><rect width="10" height="10" x="220" y="140" fill="#2b83f6" /><rect width="10" height="10" x="70" y="150" fill="#2b83f6" /><rect width="10" height="10" x="100" y="150" fill="#2b83f6" /><rect width="20" height="10" x="110" y="150" fill="#ffffff" /><rect width="20" height="10" x="130" y="150" fill="#000000" /><rect width="10" height="10" x="150" y="150" fill="#2b83f6" /><rect width="10" height="10" x="170" y="150" fill="#2b83f6" /><rect width="20" height="10" x="180" y="150" fill="#ffffff" /><rect width="20" height="10" x="200" y="150" fill="#000000" /><rect width="10" height="10" x="220" y="150" fill="#2b83f6" /><rect width="60" height="10" x="100" y="160" fill="#2b83f6" /><rect width="60" height="10" x="170" y="160" fill="#2b83f6" /></svg>