<svg xmlns:xlink="http://www.w3.org/1999/xlink" width="320" height="320" viewBox="0 0 320 320" xmlns="http://www.w3.org/2000/svg" shape-rendering="crispEdges"><rect width="100%" height="100%" fill="#d5d7e1" /><rect width="140" height="10" x="90" y="210" fill="#068940" /><rect width="140" height="10" x="90" y="220" fill="#068940" /><rect width="140" height="10" x="90" y="230" fill="#068940" /><rect width="140" height="10" x="90" y="240" fill="#068940" /><rect width="20" height="10" x="90" y="250" fill="#068940" /><rect width="110" height="10" x="120" y="250" fill="#068940" /><rect width="20" height="10" x="90" y="260" fill="#068940" /><rect width="110" height="10" x="120" y="260" fill="#068940" /><rect width="20" height="10" x="90" y="270" fill="#068940" /><rect width="110" height="10" x="120" y="270" fill="#068940" /><rect width="20" height="10" x="90" y="280" fill="#068940" /><rect width="110" height="10" x="120" y="280" fill="#068940" /><rect width="20" height="10" x="90" y="290" fill="#068940" /><rect width="110" height="10" x="120" y="290" fill="#068940" /><rect width="20" height="10" x="90" y="300" fill="#068940" /><rect width="110" height="10" x="120" y="300" fill="#068940" /><rect width="20" height="10" x="90" y="310" fill="#068940" /><rect width="110" height="10" x="120" y="310" fill="#068940" /><rect width="20" height="10" x="150" y="240" fill="#feb9d5" /><rect width="30" height="10" x="140" y="250" fill="#feb9d5" /><rect width="20" height="10" x="140" y="260" fill="#feb9d5" /><rect width="10" height="10" x="150" y="270" fill="#feb9d5" /><rect width="20" height="10" x="160" y="270" fill="#ff638d" /><rect width="10" height="10" x="160" y="280" fill="#ff638d" /><rect width="80" height="10" x="120" y="30" fill="#62616d" /><rect width="10" height="10" x="120" y="40" fill="#62616d" /><rect width="60" height="10" x="130" y="40" fill="#ff1a0b" /><rect width="10" height="10" x="190" y="40" fill="#62616d" /><rect width="20" height="10" x="110" y="50" fill="#62616d" /><rect width="60" height="10" x="130" y="50" fill="#f78a18" /><rect width="20" height="10" x="190" y="50" fill="#62616d" /><rect width="10" height="10" x="110" y="60" fill="#62616d" /><rect width="10" height="10" x="120" y="60" fill="#ff1a0b" /><rect width="60" height="10" x="130" y="60" fill="#ffef16" /><rect width="10" height="10" x="190" y="60" fill="#ff1a0b" /><rect width="10" height="10" x="200" y="60" fill="#62616d" /><rect width="20" height="10" x="100" y="70" fill="#62616d" /><rect width="30" height="10" x="120" y="70" fill="#ff1a0b" /><rect width="30" height="10" x="150" y="70" fill="#62616d" /><rect width="20" height="10" x="180" y="70" fill="#ff1a0b" /><rect width="20" height="10" x="200" y="70" fill="#62616d" /><rect width="20" height="10" x="100" y="80" fill="#62616d" /><rect width="10" height="10" x="120" y="80" fill="#ff1a0b" /><rect width="40" height="10" x="130" y="80" fill="#62616d" /><rect width="10" height="10" x="170" y="80" fill="#ff1a0b" /><rect width="20" height="10" x="180" y="80" fill="#62616d" /><rect width="10" height="10" x="200" y="80" fill="#ff1a0b" /><rect width="10" height="10" x="210" y="80" fill="#62616d" /><rect width="20" height="10" x="90" y="90" fill="#62616d" /><rect width="10" height="10" x="110" y="90" fill="#ff1a0b" /><rect width="110" height="10" x="120" y="90" fill="#62616d" /><rect width="40" height="10" x="90" y="100" fill="#62616d" /><rect width="10" height="10" x="130" y="100" fill="#4b4949" /><rect width="50" height="10" x="140" y="100" fill="#62616d" /><rect width="10" height="10" x="190" y="100" fill="#4b4949" /><rect width="30" height="10" x="200" y="100" fill="#62616d" /><rect width="50" height="10" x="80" y="110" fill="#62616d" /><rect width="10" height="10" x="130" y="110" fill="#4b4949" /><rect width="50" height="10" x="140" y="110" fill="#62616d" /><rect width="10" height="10" x="190" y="110" fill="#4b4949" /><rect width="40" height="10" x="200" y="110" fill="#62616d" /><rect width="50" height="10" x="80" y="120" fill="#62616d" /><rect width="10" height="10" x="130" y="120" fill="#4b4949" /><rect width="50" height="10" x="140" y="120" fill="#62616d" /><rect width="10" height="10" x="190" y="120" fill="#4b4949" /><rect width="40" height="10" x="200" y="120" fill="#62616d" /><rect width="50" height="10" x="70" y="130" fill="#62616d" /><rect width="10" height="10" x="120" y="130" fill="#4b4949" /><rect width="70" height="10" x="130" y="130" fill="#62616d" /><rect width="10" height="10" x="200" y="130" fill="#4b4949" /><rect width="40" height="10" x="210" y="130" fill="#62616d" /><rect width="50" height="10" x="70" y="140" fill="#62616d" /><rect width="10" height="10" x="120" y="140" fill="#4b4949" /><rect width="70" height="10" x="130" y="140" fill="#62616d" /><rect width="10" height="10" x="200" y="140" fill="#4b4949" /><rect width="40" height="10" x="210" y="140" fill="#62616d" /><rect width="60" height="10" x="60" y="150" fill="#62616d" /><rect width="10" height="10" x="120" y="150" fill="#4b4949" /><rect width="70" height="10" x="130" y="150" fill="#62616d" /><rect width="10" height="10" x="200" y="150" fill="#4b4949" /><rect width="50" height="10" x="210" y="150" fill="#62616d" /><rect width="50" height="10" x="60" y="160" fill="#62616d" /><rect width="10" height="10" x="110" y="160" fill="#4b4949" /><rect width="90" height="10" x="120" y="160" fill="#62616d" /><rect width="10" height="10" x="210" y="160" fill="#4b4949" /><rect width="40" height="10" x="220" y="160" fill="#62616d" /><rect width="20" height="10" x="50" y="170" fill="#62616d" /><rect width="20" height="10" x="70" y="170" fill="#4b4949" /><rect width="150" height="10" x="90" y="170" fill="#62616d" /><rect width="10" height="10" x="240" y="170" fill="#4b4949" /><rect width="20" height="10" x="250" y="170" fill="#62616d" /><rect width="20" height="10" x="50" y="180" fill="#62616d" /><rect width="20" height="10" x="70" y="180" fill="#4b4949" /><rect width="50" height="10" x="90" y="180" fill="#62616d" /><rect width="10" height="10" x="140" y="180" fill="#4b4949" /><rect width="120" height="10" x="150" y="180" fill="#62616d" /><rect width="100" height="10" x="40" y="190" fill="#62616d" /><rect width="10" height="10" x="140" y="190" fill="#4b4949" /><rect width="30" height="10" x="150" y="190" fill="#ff1a0b" /><rect width="10" height="10" x="180" y="190" fill="#4b4949" /><rect width="40" height="10" x="190" y="190" fill="#62616d" /><rect width="20" height="10" x="230" y="190" fill="#4b4949" /><rect width="30" height="10" x="250" y="190" fill="#62616d" /><rect width="60" height="10" x="40" y="200" fill="#62616d" /><rect width="10" height="10" x="100" y="200" fill="#4b4949" /><rect width="20" height="10" x="110" y="200" fill="#62616d" /><rect width="10" height="10" x="130" y="200" fill="#4b4949" /><rect width="90" height="10" x="140" y="200" fill="#62616d" /><rect width="20" height="10" x="230" y="200" fill="#4b4949" /><rect width="30" height="10" x="250" y="200" fill="#62616d" /><rect width="200" height="10" x="60" y="210" fill="#62616d" /><rect width="60" height="10" x="100" y="110" fill="#068940" /><rect width="60" height="10" x="170" y="110" fill="#257ced" /><rect width="10" height="10" x="100" y="120" fill="#068940" /><rect width="20" height="10" x="110" y="120" fill="#ffffff" /><rect width="20" height="10" x="130" y="120" fill="#000000" /><rect width="10" height="10" x="150" y="120" fill="#068940" /><rect width="10" height="10" x="170" y="120" fill="#257ced" /><rect width="20" height="10" x="180" y="120" fill="#ffffff" /><rect width="20" height="10" x="200" y="120" fill="#000000" /><rect width="10" height="10" x="220" y="120" fill="#257ced" /><rect width="30" height="10" x="70" y="130" fill="#257ced" /><rect width="10" height="10" x="100" y="130" fill="#068940" /><rect width="20" height="10" x="110" y="130" fill="#ffffff" /><rect width="20" height="10" x="130" y="130" fill="#000000" /><rect width="10" height="10" x="150" y="130" fill="#068940" /><rect width="20" height="10" x="160" y="130" fill="#257ced" /><rect width="20" height="10" x="180" y="130" fill="#ffffff" /><rect width="20" height="10" x="200" y="130" fill="#000000" /><rect width="10" height="10" x="220" y="130" fill="#257ced" /><rect width="10" height="10" x="70" y="140" fill="#257ced" /><rect width="10" height="10" x="100" y="140" fill="#068940" /><rect width="20" height="10" x="110" y="140" fill="#ffffff" /><rect width="20" height="10" x="130" y="140" fill="#000000" /><rect width="10" height="10" x="150" y="140" fill="#068940" /><rect width="10" height="10" x="170" y="140" fill="#257ced" /><rect width="20" height="10" x="180" y="140" fill="#ffffff" /><rect width="20" height="10" x="200" y="140" fill="#000000" /><rect width="10" height="10" x="220" y="140" fill="#257ced" /><rect width="10" height="10" x="70" y="150" fill="#257ced" /><rect width="10" height="10" x="100" y="150" fill="#068940" /><rect width="20" height="10" x="110" y="150" fill="#ffffff" /><rect width="20" height="10" x="130" y="150" fill="#000000" /><rect width="10" height="10" x="150" y="150" fill="#068940" /><rect width="10" height="10" x="170" y="150" fill="#257ced" /><rect width="20" height="10" x="180" y="150" fill="#ffffff" /><rect width="20" height="10" x="200" y="150" fill="#000000" /><rect width="10" height="10" x="220" y="150" fill="#257ced" /><rect width="60" height="10" x="100" y="160" fill="#068940" /><rect width="60" height="10" x="170" y="160" fill="#257ced" /></svg>