<svg xmlns:xlink="http://www.w3.org/1999/xlink" width="320" height="320" viewBox="0 0 320 320" xmlns="http://www.w3.org/2000/svg" shape-rendering="crispEdges"><rect width="100%" height="100%" fill="#e1d7d5" /><rect width="140" height="10" x="90" y="210" fill="#c54e38" /><rect width="140" height="10" x="90" y="220" fill="#c54e38" /><rect width="140" height="10" x="90" y="230" fill="#c54e38" /><rect width="140" height="10" x="90" y="240" fill="#c54e38" /><rect width="20" height="10" x="90" y="250" fill="#c54e38" /><rect width="110" height="10" x="120" y="250" fill="#c54e38" /><rect width="20" height="10" x="90" y="260" fill="#c54e38" /><rect width="110" height="10" x="120" y="260" fill="#c54e38" /><rect width="20" height="10" x="90" y="270" fill="#c54e38" /><rect width="110" height="10" x="120" y="270" fill="#c54e38" /><rect width="20" height="10" x="90" y="280" fill="#c54e38" /><rect width="110" height="10" x="120" y="280" fill="#c54e38" /><rect width="20" height="10" x="90" y="290" fill="#c54e38" /><rect width="110" height="10" x="120" y="290" fill="#c54e38" /><rect width="20" height="10" x="90" y="300" fill="#c54e38" /><rect width="110" height="10" x="120" y="300" fill="#c54e38" /><rect width="20" height="10" x="90" y="310" fill="#c54e38" /><rect width="110" height="10" x="120" y="310" fill="#c54e38" /><rect width="20" height="10" x="140" y="230" fill="#5a65fa" /><rect width="10" height="10" x="170" y="230" fill="#5a65fa" /><rect width="10" height="10" x="140" y="240" fill="#5a65fa" /><rect width="20" height="10" x="160" y="240" fill="#5a65fa" /><rect width="20" height="10" x="130" y="260" fill="#da42cb" /><rect width="10" height="10" x="160" y="260" fill="#fe500c" /><rect width="10" height="10" x="180" y="260" fill="#fe500c" /><rect width="20" height="10" x="130" y="270" fill="#da42cb" /><rect width="30" height="10" x="160" y="270" fill="#fe500c" /><rect width="20" height="10" x="140" y="290" fill="#068940" /><rect width="10" height="10" x="170" y="290" fill="#068940" /><rect width="10" height="10" x="140" y="300" fill="#068940" /><rect width="20" height="10" x="160" y="300" fill="#068940" /><rect width="50" height="10" x="120" y="30" fill="#feb9d5" /><rect width="10" height="10" x="170" y="30" fill="#ff82ad" /><rect width="30" height="10" x="180" y="30" fill="#feb9d5" /><rect width="10" height="10" x="90" y="40" fill="#ff82ad" /><rect width="140" height="10" x="100" y="40" fill="#feb9d5" /><rect width="60" height="10" x="70" y="50" fill="#feb9d5" /><rect width="10" height="10" x="130" y="50" fill="#ff82ad" /><rect width="120" height="10" x="140" y="50" fill="#feb9d5" /><rect width="190" height="10" x="70" y="60" fill="#feb9d5" /><rect width="80" height="10" x="60" y="70" fill="#feb9d5" /><rect width="50" height="10" x="140" y="70" fill="#da42cb" /><rect width="50" height="10" x="190" y="70" fill="#feb9d5" /><rect width="10" height="10" x="240" y="70" fill="#ff82ad" /><rect width="20" height="10" x="250" y="70" fill="#feb9d5" /><rect width="10" height="10" x="60" y="80" fill="#feb9d5" /><rect width="10" height="10" x="70" y="80" fill="#ff82ad" /><rect width="40" height="10" x="80" y="80" fill="#feb9d5" /><rect width="90" height="10" x="120" y="80" fill="#da42cb" /><rect width="60" height="10" x="210" y="80" fill="#feb9d5" /><rect width="50" height="10" x="50" y="90" fill="#feb9d5" /><rect width="130" height="10" x="100" y="90" fill="#da42cb" /><rect width="50" height="10" x="230" y="90" fill="#feb9d5" /><rect width="10" height="10" x="50" y="100" fill="#feb9d5" /><rect width="10" height="10" x="60" y="100" fill="#ff82ad" /><rect width="20" height="10" x="70" y="100" fill="#feb9d5" /><rect width="150" height="10" x="90" y="100" fill="#da42cb" /><rect width="20" height="10" x="240" y="100" fill="#feb9d5" /><rect width="10" height="10" x="260" y="100" fill="#ff82ad" /><rect width="10" height="10" x="270" y="100" fill="#feb9d5" /><rect width="40" height="10" x="50" y="110" fill="#feb9d5" /><rect width="150" height="10" x="90" y="110" fill="#da42cb" /><rect width="40" height="10" x="240" y="110" fill="#feb9d5" /><rect width="30" height="10" x="50" y="120" fill="#feb9d5" /><rect width="170" height="10" x="80" y="120" fill="#da42cb" /><rect width="30" height="10" x="250" y="120" fill="#feb9d5" /><rect width="30" height="10" x="50" y="130" fill="#feb9d5" /><rect width="170" height="10" x="80" y="130" fill="#da42cb" /><rect width="30" height="10" x="250" y="130" fill="#feb9d5" /><rect width="10" height="10" x="60" y="140" fill="#feb9d5" /><rect width="190" height="10" x="70" y="140" fill="#da42cb" /><rect width="10" height="10" x="260" y="140" fill="#feb9d5" /><rect width="10" height="10" x="60" y="150" fill="#feb9d5" /><rect width="190" height="10" x="70" y="150" fill="#da42cb" /><rect width="10" height="10" x="260" y="150" fill="#feb9d5" /><rect width="10" height="10" x="60" y="160" fill="#feb9d5" /><rect width="190" height="10" x="70" y="160" fill="#da42cb" /><rect width="10" height="10" x="260" y="160" fill="#feb9d5" /><rect width="10" height="10" x="60" y="170" fill="#feb9d5" /><rect width="30" height="10" x="70" y="170" fill="#ab36be" /><rect width="10" height="10" x="100" y="170" fill="#da42cb" /><rect width="30" height="10" x="110" y="170" fill="#ab36be" /><rect width="10" height="10" x="140" y="170" fill="#da42cb" /><rect width="30" height="10" x="150" y="170" fill="#ab36be" /><rect width="10" height="10" x="180" y="170" fill="#da42cb" /><rect width="30" height="10" x="190" y="170" fill="#ab36be" /><rect width="10" height="10" x="220" y="170" fill="#da42cb" /><rect width="30" height="10" x="230" y="170" fill="#ab36be" /><rect width="10" height="10" x="260" y="170" fill="#feb9d5" /><rect width="210" height="10" x="60" y="180" fill="#ab36be" /><rect width="10" height="10" x="60" y="190" fill="#ff82ad" /><rect width="80" height="10" x="70" y="190" fill="#ab36be" /><rect width="60" height="10" x="150" y="190" fill="#3a085b" /><rect width="60" height="10" x="210" y="190" fill="#ab36be" /><rect width="10" height="10" x="60" y="200" fill="#ff82ad" /><rect width="10" height="10" x="90" y="200" fill="#ff82ad" /><rect width="140" height="10" x="100" y="200" fill="#ab36be" /><rect width="10" height="10" x="240" y="200" fill="#ff82ad" /><rect width="10" height="10" x="260" y="200" fill="#ff82ad" /><rect width="10" height="10" x="60" y="210" fill="#ff82ad" /><rect width="10" height="10" x="90" y="210" fill="#ff82ad" /><rect width="10" height="10" x="240" y="210" fill="#ff82ad" /><rect width="10" height="10" x="260" y="210" fill="#ff82ad" /><rect width="10" height="10" x="60" y="220" fill="#ff82ad" /><rect width="10" height="10" x="90" y="220" fill="#ff82ad" /><rect width="10" height="10" x="240" y="220" fill="#ff82ad" /><rect width="10" height="10" x="260" y="220" fill="#ff82ad" /><rect width="10" height="10" x="50" y="230" fill="#ff82ad" /><rect width="10" height="10" x="80" y="230" fill="#ff82ad" /><rect width="10" height="10" x="240" y="230" fill="#ff82ad" /><rect width="10" height="10" x="270" y="230" fill="#ff82ad" /><rect width="10" height="10" x="50" y="240" fill="#ff82ad" /><rect width="10" height="10" x="80" y="240" fill="#ff82ad" /><rect width="10" height="10" x="250" y="240" fill="#ff82ad" /><rect width="10" height="10" x="270" y="240" fill="#ff82ad" /><rect width="10" height="10" x="50" y="250" fill="#ff82ad" /><rect width="10" height="10" x="250" y="250" fill="#ff82ad" /><rect width="10" height="10" x="270" y="250" fill="#ff82ad" /><rect width="10" height="10" x="50" y="260" fill="#ff82ad" /><rect width="10" height="10" x="270" y="260" fill="#ff82ad" /><rect width="10" height="10" x="50" y="270" fill="#ff82ad" /><rect width="10" height="10" x="270" y="270" fill="#ff82ad" /><rect width="60" height="10" x="100" y="110" fill="#000000" /><rect width="60" height="10" x="170" y="110" fill="#000000" /><rect width="30" height="10" x="100" y="120" fill="#000000" /><rect width="10" height="10" x="130" y="120" fill="#ff0e0e" /><rect width="20" height="10" x="140" y="120" fill="#000000" /><rect width="30" height="10" x="170" y="120" fill="#000000" /><rect width="10" height="10" x="200" y="120" fill="#ff0e0e" /><rect width="20" height="10" x="210" y="120" fill="#000000" /><rect width="160" height="10" x="70" y="130" fill="#000000" /><rect width="10" height="10" x="70" y="140" fill="#000000" /><rect width="10" height="10" x="100" y="140" fill="#000000" /><rect width="10" height="10" x="110" y="140" fill="#0adc4d" /><rect width="20" height="10" x="120" y="140" fill="#000000" /><rect width="10" height="10" x="140" y="140" fill="#1929f4" /><rect width="10" height="10" x="150" y="140" fill="#000000" /><rect width="10" height="10" x="170" y="140" fill="#000000" /><rect width="10" height="10" x="180" y="140" fill="#0adc4d" /><rect width="20" height="10" x="190" y="140" fill="#000000" /><rect width="10" height="10" x="210" y="140" fill="#1929f4" /><rect width="10" height="10" x="220" y="140" fill="#000000" /><rect width="10" height="10" x="70" y="150" fill="#000000" /><rect width="60" height="10" x="100" y="150" fill="#000000" /><rect width="60" height="10" x="170" y="150" fill="#000000" /><rect width="60" height="10" x="100" y="160" fill="#000000" /><rect width="60" height="10" x="170" y="160" fill="#000000" /></svg>