<svg xmlns:xlink="http://www.w3.org/1999/xlink" width="320" height="320" viewBox="0 0 320 320" xmlns="http://www.w3.org/2000/svg" shape-rendering="crispEdges"><rect width="100%" height="100%" fill="#e1d7d5" /><rect width="140" height="10" x="90" y="210" fill="#80a72d" /><rect width="140" height="10" x="90" y="220" fill="#80a72d" /><rect width="140" height="10" x="90" y="230" fill="#80a72d" /><rect width="140" height="10" x="90" y="240" fill="#80a72d" /><rect width="20" height="10" x="90" y="250" fill="#80a72d" /><rect width="110" height="10" x="120" y="250" fill="#80a72d" /><rect width="20" height="10" x="90" y="260" fill="#80a72d" /><rect width="110" height="10" x="120" y="260" fill="#80a72d" /><rect width="20" height="10" x="90" y="270" fill="#80a72d" /><rect width="110" height="10" x="120" y="270" fill="#80a72d" /><rect width="20" height="10" x="90" y="280" fill="#80a72d" /><rect width="110" height="10" x="120" y="280" fill="#80a72d" /><rect width="20" height="10" x="90" y="290" fill="#80a72d" /><rect width="110" height="10" x="120" y="290" fill="#80a72d" /><rect width="20" height="10" x="90" y="300" fill="#80a72d" /><rect width="110" height="10" x="120" y="300" fill="#80a72d" /><rect width="20" height="10" x="90" y="310" fill="#80a72d" /><rect width="110" height="10" x="120" y="310" fill="#80a72d" /><rect width="20" height="10" x="120" y="240" fill="#000000" /><rect width="10" height="10" x="160" y="240" fill="#000000" /><rect width="10" height="10" x="190" y="240" fill="#000000" /><rect width="10" height="10" x="120" y="250" fill="#000000" /><rect width="20" height="10" x="140" y="250" fill="#000000" /><rect width="20" height="10" x="170" y="250" fill="#000000" /><rect width="10" height="10" x="200" y="250" fill="#000000" /><rect width="10" height="10" x="120" y="260" fill="#000000" /><rect width="50" height="10" x="140" y="260" fill="#000000" /><rect width="10" height="10" x="200" y="260" fill="#000000" /><rect width="20" height="10" x="120" y="270" fill="#000000" /><rect width="10" height="10" x="150" y="270" fill="#000000" /><rect width="10" height="10" x="170" y="270" fill="#000000" /><rect width="10" height="10" x="190" y="270" fill="#000000" /><rect width="40" height="10" x="100" y="20" fill="#068940" /><rect width="60" height="10" x="90" y="30" fill="#068940" /><rect width="60" height="10" x="160" y="30" fill="#4bea69" /><rect width="20" height="10" x="130" y="40" fill="#068940" /><rect width="90" height="10" x="150" y="40" fill="#4bea69" /><rect width="80" height="10" x="110" y="50" fill="#068940" /><rect width="30" height="10" x="190" y="50" fill="#4bea69" /><rect width="10" height="10" x="220" y="50" fill="#ae6c0a" /><rect width="30" height="10" x="230" y="50" fill="#4bea69" /><rect width="40" height="10" x="100" y="60" fill="#068940" /><rect width="10" height="10" x="140" y="60" fill="#ae6c0a" /><rect width="30" height="10" x="150" y="60" fill="#068940" /><rect width="30" height="10" x="180" y="60" fill="#4bea69" /><rect width="10" height="10" x="210" y="60" fill="#ae6c0a" /><rect width="30" height="10" x="240" y="60" fill="#4bea69" /><rect width="20" height="10" x="100" y="70" fill="#068940" /><rect width="20" height="10" x="140" y="70" fill="#ae6c0a" /><rect width="10" height="10" x="170" y="70" fill="#068940" /><rect width="20" height="10" x="180" y="70" fill="#4bea69" /><rect width="20" height="10" x="200" y="70" fill="#ae6c0a" /><rect width="20" height="10" x="250" y="70" fill="#4bea69" /><rect width="10" height="10" x="100" y="80" fill="#068940" /><rect width="20" height="10" x="150" y="80" fill="#ae6c0a" /><rect width="20" height="10" x="180" y="80" fill="#4bea69" /><rect width="10" height="10" x="200" y="80" fill="#ae6c0a" /><rect width="20" height="10" x="250" y="80" fill="#4bea69" /><rect width="20" height="10" x="150" y="90" fill="#ae6c0a" /><rect width="10" height="10" x="190" y="90" fill="#4bea69" /><rect width="10" height="10" x="200" y="90" fill="#ae6c0a" /><rect width="10" height="10" x="260" y="90" fill="#4bea69" /><rect width="60" height="10" x="100" y="100" fill="#068940" /><rect width="10" height="10" x="160" y="100" fill="#ae6c0a" /><rect width="20" height="10" x="190" y="100" fill="#ae6c0a" /><rect width="80" height="10" x="90" y="110" fill="#068940" /><rect width="10" height="10" x="170" y="110" fill="#ae6c0a" /><rect width="20" height="10" x="190" y="110" fill="#ae6c0a" /><rect width="80" height="10" x="90" y="120" fill="#068940" /><rect width="10" height="10" x="170" y="120" fill="#ae6c0a" /><rect width="20" height="10" x="190" y="120" fill="#ae6c0a" /><rect width="80" height="10" x="90" y="130" fill="#068940" /><rect width="10" height="10" x="170" y="130" fill="#ae6c0a" /><rect width="20" height="10" x="190" y="130" fill="#ae6c0a" /><rect width="80" height="10" x="90" y="140" fill="#068940" /><rect width="10" height="10" x="170" y="140" fill="#ae6c0a" /><rect width="20" height="10" x="190" y="140" fill="#ae6c0a" /><rect width="140" height="10" x="90" y="150" fill="#ffc110" /><rect width="160" height="10" x="80" y="160" fill="#ffc110" /><rect width="130" height="10" x="70" y="170" fill="#ffc110" /><rect width="10" height="10" x="200" y="170" fill="#ffc925" /><rect width="40" height="10" x="210" y="170" fill="#ffc110" /><rect width="20" height="10" x="60" y="180" fill="#ffc110" /><rect width="10" height="10" x="80" y="180" fill="#ffc925" /><rect width="10" height="10" x="90" y="180" fill="#ffc110" /><rect width="20" height="10" x="100" y="180" fill="#fff671" /><rect width="20" height="10" x="120" y="180" fill="#ffc110" /><rect width="20" height="10" x="140" y="180" fill="#fff671" /><rect width="20" height="10" x="160" y="180" fill="#ffc110" /><rect width="10" height="10" x="180" y="180" fill="#ffc925" /><rect width="30" height="10" x="190" y="180" fill="#ffc110" /><rect width="10" height="10" x="220" y="180" fill="#ffc925" /><rect width="30" height="10" x="230" y="180" fill="#ffc110" /><rect width="60" height="10" x="60" y="190" fill="#ffc110" /><rect width="20" height="10" x="120" y="190" fill="#fff671" /><rect width="60" height="10" x="140" y="190" fill="#ffc110" /><rect width="10" height="10" x="200" y="190" fill="#ffc925" /><rect width="50" height="10" x="210" y="190" fill="#ffc110" /><rect width="200" height="10" x="60" y="200" fill="#ffc110" /><rect width="60" height="10" x="100" y="110" fill="#000000" /><rect width="60" height="10" x="170" y="110" fill="#000000" /><rect width="10" height="10" x="100" y="120" fill="#000000" /><rect width="20" height="10" x="110" y="120" fill="#ffffff" /><rect width="30" height="10" x="130" y="120" fill="#000000" /><rect width="10" height="10" x="170" y="120" fill="#000000" /><rect width="20" height="10" x="180" y="120" fill="#ffffff" /><rect width="30" height="10" x="200" y="120" fill="#000000" /><rect width="40" height="10" x="70" y="130" fill="#000000" /><rect width="20" height="10" x="110" y="130" fill="#ffffff" /><rect width="50" height="10" x="130" y="130" fill="#000000" /><rect width="20" height="10" x="180" y="130" fill="#ffffff" /><rect width="30" height="10" x="200" y="130" fill="#000000" /><rect width="10" height="10" x="70" y="140" fill="#000000" /><rect width="10" height="10" x="100" y="140" fill="#000000" /><rect width="20" height="10" x="110" y="140" fill="#ffffff" /><rect width="30" height="10" x="130" y="140" fill="#000000" /><rect width="10" height="10" x="170" y="140" fill="#000000" /><rect width="20" height="10" x="180" y="140" fill="#ffffff" /><rect width="30" height="10" x="200" y="140" fill="#000000" /><rect width="10" height="10" x="70" y="150" fill="#000000" /><rect width="10" height="10" x="100" y="150" fill="#000000" /><rect width="20" height="10" x="110" y="150" fill="#ffffff" /><rect width="30" height="10" x="130" y="150" fill="#000000" /><rect width="10" height="10" x="170" y="150" fill="#000000" /><rect width="20" height="10" x="180" y="150" fill="#ffffff" /><rect width="30" height="10" x="200" y="150" fill="#000000" /><rect width="60" height="10" x="100" y="160" fill="#000000" /><rect width="60" height="10" x="170" y="160" fill="#000000" /></svg>