<svg xmlns:xlink="http://www.w3.org/1999/xlink" width="320" height="320" viewBox="0 0 320 320" xmlns="http://www.w3.org/2000/svg" shape-rendering="crispEdges"><rect width="100%" height="100%" fill="#e1d7d5" /><rect width="140" height="10" x="90" y="210" fill="#caeff9" /><rect width="140" height="10" x="90" y="220" fill="#caeff9" /><rect width="140" height="10" x="90" y="230" fill="#caeff9" /><rect width="140" height="10" x="90" y="240" fill="#caeff9" /><rect width="20" height="10" x="90" y="250" fill="#caeff9" /><rect width="110" height="10" x="120" y="250" fill="#caeff9" /><rect width="20" height="10" x="90" y="260" fill="#caeff9" /><rect width="110" height="10" x="120" y="260" fill="#caeff9" /><rect width="20" height="10" x="90" y="270" fill="#caeff9" /><rect width="110" height="10" x="120" y="270" fill="#caeff9" /><rect width="20" height="10" x="90" y="280" fill="#caeff9" /><rect width="110" height="10" x="120" y="280" fill="#caeff9" /><rect width="20" height="10" x="90" y="290" fill="#caeff9" /><rect width="110" height="10" x="120" y="290" fill="#caeff9" /><rect width="20" height="10" x="90" y="300" fill="#caeff9" /><rect width="110" height="10" x="120" y="300" fill="#caeff9" /><rect width="20" height="10" x="90" y="310" fill="#caeff9" /><rect width="110" height="10" x="120" y="310" fill="#caeff9" /><rect width="10" height="10" x="110" y="210" fill="#feb9d5" /><rect width="10" height="10" x="140" y="210" fill="#feb9d5" /><rect width="10" height="10" x="170" y="210" fill="#feb9d5" /><rect width="10" height="10" x="200" y="210" fill="#feb9d5" /><rect width="10" height="10" x="90" y="220" fill="#feb9d5" /><rect width="10" height="10" x="120" y="220" fill="#feb9d5" /><rect width="10" height="10" x="150" y="220" fill="#feb9d5" /><rect width="10" height="10" x="180" y="220" fill="#feb9d5" /><rect width="10" height="10" x="210" y="220" fill="#feb9d5" /><rect width="10" height="10" x="100" y="230" fill="#feb9d5" /><rect width="10" height="10" x="130" y="230" fill="#feb9d5" /><rect width="10" height="10" x="160" y="230" fill="#feb9d5" /><rect width="10" height="10" x="190" y="230" fill="#feb9d5" /><rect width="10" height="10" x="220" y="230" fill="#feb9d5" /><rect width="10" height="10" x="110" y="240" fill="#feb9d5" /><rect width="10" height="10" x="140" y="240" fill="#feb9d5" /><rect width="10" height="10" x="170" y="240" fill="#feb9d5" /><rect width="10" height="10" x="200" y="240" fill="#feb9d5" /><rect width="10" height="10" x="90" y="250" fill="#feb9d5" /><rect width="10" height="10" x="120" y="250" fill="#feb9d5" /><rect width="10" height="10" x="150" y="250" fill="#feb9d5" /><rect width="10" height="10" x="180" y="250" fill="#feb9d5" /><rect width="10" height="10" x="210" y="250" fill="#feb9d5" /><rect width="10" height="10" x="100" y="260" fill="#feb9d5" /><rect width="10" height="10" x="130" y="260" fill="#feb9d5" /><rect width="10" height="10" x="160" y="260" fill="#feb9d5" /><rect width="10" height="10" x="190" y="260" fill="#feb9d5" /><rect width="10" height="10" x="220" y="260" fill="#feb9d5" /><rect width="10" height="10" x="140" y="270" fill="#feb9d5" /><rect width="10" height="10" x="170" y="270" fill="#feb9d5" /><rect width="10" height="10" x="200" y="270" fill="#feb9d5" /><rect width="10" height="10" x="90" y="280" fill="#feb9d5" /><rect width="10" height="10" x="120" y="280" fill="#feb9d5" /><rect width="10" height="10" x="150" y="280" fill="#feb9d5" /><rect width="10" height="10" x="180" y="280" fill="#feb9d5" /><rect width="10" height="10" x="210" y="280" fill="#feb9d5" /><rect width="10" height="10" x="100" y="290" fill="#feb9d5" /><rect width="10" height="10" x="130" y="290" fill="#feb9d5" /><rect width="10" height="10" x="160" y="290" fill="#feb9d5" /><rect width="10" height="10" x="190" y="290" fill="#feb9d5" /><rect width="10" height="10" x="220" y="290" fill="#feb9d5" /><rect width="10" height="10" x="140" y="300" fill="#feb9d5" /><rect width="10" height="10" x="170" y="300" fill="#feb9d5" /><rect width="10" height="10" x="200" y="300" fill="#feb9d5" /><rect width="10" height="10" x="90" y="310" fill="#feb9d5" /><rect width="10" height="10" x="120" y="310" fill="#feb9d5" /><rect width="10" height="10" x="150" y="310" fill="#feb9d5" /><rect width="10" height="10" x="180" y="310" fill="#feb9d5" /><rect width="10" height="10" x="210" y="310" fill="#feb9d5" /><rect width="50" height="10" x="120" y="70" fill="#b92b3c" /><rect width="50" height="10" x="120" y="80" fill="#b92b3c" /><rect width="20" height="10" x="150" y="90" fill="#b92b3c" /><rect width="100" height="10" x="50" y="100" fill="#807f7e" /><rect width="20" height="10" x="150" y="100" fill="#b92b3c" /><rect width="30" height="10" x="170" y="100" fill="#807f7e" /><rect width="100" height="10" x="50" y="110" fill="#807f7e" /><rect width="20" height="10" x="150" y="110" fill="#b92b3c" /><rect width="30" height="10" x="170" y="110" fill="#807f7e" /><rect width="100" height="10" x="50" y="120" fill="#807f7e" /><rect width="20" height="10" x="150" y="120" fill="#b92b3c" /><rect width="30" height="10" x="170" y="120" fill="#807f7e" /><rect width="100" height="10" x="50" y="130" fill="#807f7e" /><rect width="20" height="10" x="150" y="130" fill="#b92b3c" /><rect width="30" height="10" x="170" y="130" fill="#807f7e" /><rect width="100" height="10" x="50" y="140" fill="#807f7e" /><rect width="20" height="10" x="150" y="140" fill="#b92b3c" /><rect width="30" height="10" x="170" y="140" fill="#807f7e" /><rect width="60" height="10" x="200" y="140" fill="#ffffff" /><rect width="100" height="10" x="50" y="150" fill="#807f7e" /><rect width="20" height="10" x="150" y="150" fill="#b92b3c" /><rect width="30" height="10" x="170" y="150" fill="#807f7e" /><rect width="40" height="10" x="200" y="150" fill="#ffffff" /><rect width="10" height="10" x="240" y="150" fill="#667af9" /><rect width="10" height="10" x="250" y="150" fill="#ffffff" /><rect width="100" height="10" x="50" y="160" fill="#807f7e" /><rect width="20" height="10" x="150" y="160" fill="#b92b3c" /><rect width="30" height="10" x="170" y="160" fill="#807f7e" /><rect width="60" height="10" x="200" y="160" fill="#ffffff" /><rect width="100" height="10" x="50" y="170" fill="#807f7e" /><rect width="20" height="10" x="150" y="170" fill="#b92b3c" /><rect width="30" height="10" x="170" y="170" fill="#807f7e" /><rect width="60" height="10" x="200" y="170" fill="#ffffff" /><rect width="100" height="10" x="50" y="180" fill="#807f7e" /><rect width="20" height="10" x="150" y="180" fill="#b92b3c" /><rect width="30" height="10" x="170" y="180" fill="#807f7e" /><rect width="10" height="10" x="200" y="180" fill="#ffffff" /><rect width="40" height="10" x="210" y="180" fill="#000000" /><rect width="10" height="10" x="250" y="180" fill="#ffffff" /><rect width="150" height="10" x="50" y="190" fill="#807f7e" /><rect width="60" height="10" x="200" y="190" fill="#ffffff" /><rect width="230" height="10" x="50" y="200" fill="#807f7e" /><rect width="60" height="10" x="100" y="110" fill="#b9185c" /><rect width="60" height="10" x="170" y="110" fill="#b9185c" /><rect width="10" height="10" x="100" y="120" fill="#b9185c" /><rect width="20" height="10" x="110" y="120" fill="#ffffff" /><rect width="20" height="10" x="130" y="120" fill="#000000" /><rect width="10" height="10" x="150" y="120" fill="#b9185c" /><rect width="10" height="10" x="170" y="120" fill="#b9185c" /><rect width="20" height="10" x="180" y="120" fill="#ffffff" /><rect width="20" height="10" x="200" y="120" fill="#000000" /><rect width="10" height="10" x="220" y="120" fill="#b9185c" /><rect width="40" height="10" x="70" y="130" fill="#b9185c" /><rect width="20" height="10" x="110" y="130" fill="#ffffff" /><rect width="20" height="10" x="130" y="130" fill="#000000" /><rect width="30" height="10" x="150" y="130" fill="#b9185c" /><rect width="20" height="10" x="180" y="130" fill="#ffffff" /><rect width="20" height="10" x="200" y="130" fill="#000000" /><rect width="10" height="10" x="220" y="130" fill="#b9185c" /><rect width="10" height="10" x="70" y="140" fill="#b9185c" /><rect width="10" height="10" x="100" y="140" fill="#b9185c" /><rect width="20" height="10" x="110" y="140" fill="#ffffff" /><rect width="20" height="10" x="130" y="140" fill="#000000" /><rect width="10" height="10" x="150" y="140" fill="#b9185c" /><rect width="10" height="10" x="170" y="140" fill="#b9185c" /><rect width="20" height="10" x="180" y="140" fill="#ffffff" /><rect width="20" height="10" x="200" y="140" fill="#000000" /><rect width="10" height="10" x="220" y="140" fill="#b9185c" /><rect width="10" height="10" x="70" y="150" fill="#b9185c" /><rect width="10" height="10" x="100" y="150" fill="#b9185c" /><rect width="20" height="10" x="110" y="150" fill="#ffffff" /><rect width="20" height="10" x="130" y="150" fill="#000000" /><rect width="10" height="10" x="150" y="150" fill="#b9185c" /><rect width="10" height="10" x="170" y="150" fill="#b9185c" /><rect width="20" height="10" x="180" y="150" fill="#ffffff" /><rect width="20" height="10" x="200" y="150" fill="#000000" /><rect width="10" height="10" x="220" y="150" fill="#b9185c" /><rect width="60" height="10" x="100" y="160" fill="#b9185c" /><rect width="60" height="10" x="170" y="160" fill="#b9185c" /></svg>