<svg xmlns:xlink="http://www.w3.org/1999/xlink" width="320" height="320" viewBox="0 0 320 320" xmlns="http://www.w3.org/2000/svg" shape-rendering="crispEdges"><rect width="100%" height="100%" fill="#d5d7e1" /><rect width="140" height="10" x="90" y="210" fill="#b87b11" /><rect width="140" height="10" x="90" y="220" fill="#b87b11" /><rect width="140" height="10" x="90" y="230" fill="#b87b11" /><rect width="140" height="10" x="90" y="240" fill="#b87b11" /><rect width="20" height="10" x="90" y="250" fill="#b87b11" /><rect width="110" height="10" x="120" y="250" fill="#b87b11" /><rect width="20" height="10" x="90" y="260" fill="#b87b11" /><rect width="110" height="10" x="120" y="260" fill="#b87b11" /><rect width="20" height="10" x="90" y="270" fill="#b87b11" /><rect width="110" height="10" x="120" y="270" fill="#b87b11" /><rect width="20" height="10" x="90" y="280" fill="#b87b11" /><rect width="110" height="10" x="120" y="280" fill="#b87b11" /><rect width="20" height="10" x="90" y="290" fill="#b87b11" /><rect width="110" height="10" x="120" y="290" fill="#b87b11" /><rect width="20" height="10" x="90" y="300" fill="#b87b11" /><rect width="110" height="10" x="120" y="300" fill="#b87b11" /><rect width="20" height="10" x="90" y="310" fill="#b87b11" /><rect width="110" height="10" x="120" y="310" fill="#b87b11" /><rect width="140" height="10" x="90" y="210" fill="#2b83f6" /><rect width="140" height="10" x="90" y="230" fill="#2b83f6" /><rect width="20" height="10" x="90" y="250" fill="#2b83f6" /><rect width="110" height="10" x="120" y="250" fill="#2b83f6" /><rect width="20" height="10" x="90" y="270" fill="#2b83f6" /><rect width="110" height="10" x="120" y="270" fill="#2b83f6" /><rect width="20" height="10" x="90" y="290" fill="#2b83f6" /><rect width="110" height="10" x="120" y="290" fill="#2b83f6" /><rect width="20" height="10" x="90" y="310" fill="#2b83f6" /><rect width="110" height="10" x="120" y="310" fill="#2b83f6" /><rect width="110" height="10" x="110" y="90" fill="#85634f" /><rect width="140" height="10" x="90" y="100" fill="#85634f" /><rect width="150" height="10" x="90" y="110" fill="#85634f" /><rect width="150" height="10" x="90" y="120" fill="#85634f" /><rect width="150" height="10" x="90" y="130" fill="#85634f" /><rect width="160" height="10" x="80" y="140" fill="#85634f" /><rect width="170" height="10" x="70" y="150" fill="#85634f" /><rect width="170" height="10" x="70" y="160" fill="#85634f" /><rect width="20" height="10" x="90" y="170" fill="#85634f" /><rect width="40" height="10" x="110" y="170" fill="#eff2fa" /><rect width="60" height="10" x="150" y="170" fill="#000000" /><rect width="30" height="10" x="210" y="170" fill="#eff2fa" /><rect width="10" height="10" x="90" y="180" fill="#d0aea9" /><rect width="40" height="10" x="100" y="180" fill="#85634f" /><rect width="10" height="10" x="140" y="180" fill="#eff2fa" /><rect width="60" height="10" x="150" y="180" fill="#000000" /><rect width="10" height="10" x="210" y="180" fill="#eff2fa" /><rect width="20" height="10" x="220" y="180" fill="#85634f" /><rect width="20" height="10" x="90" y="190" fill="#d0aea9" /><rect width="30" height="10" x="110" y="190" fill="#eff2fa" /><rect width="40" height="10" x="140" y="190" fill="#d0aea9" /><rect width="10" height="10" x="180" y="190" fill="#000000" /><rect width="30" height="10" x="190" y="190" fill="#d0aea9" /><rect width="20" height="10" x="220" y="190" fill="#eff2fa" /><rect width="80" height="10" x="90" y="200" fill="#d0aea9" /><rect width="10" height="10" x="170" y="200" fill="#000000" /><rect width="10" height="10" x="180" y="200" fill="#d0aea9" /><rect width="10" height="10" x="190" y="200" fill="#000000" /><rect width="40" height="10" x="200" y="200" fill="#d0aea9" /><rect width="60" height="10" x="100" y="110" fill="#000000" /><rect width="60" height="10" x="170" y="110" fill="#000000" /><rect width="40" height="10" x="100" y="120" fill="#000000" /><rect width="10" height="10" x="140" y="120" fill="#ffffff" /><rect width="10" height="10" x="150" y="120" fill="#000000" /><rect width="40" height="10" x="170" y="120" fill="#000000" /><rect width="10" height="10" x="210" y="120" fill="#ffffff" /><rect width="10" height="10" x="220" y="120" fill="#000000" /><rect width="70" height="10" x="70" y="130" fill="#000000" /><rect width="10" height="10" x="140" y="130" fill="#ffffff" /><rect width="60" height="10" x="150" y="130" fill="#000000" /><rect width="10" height="10" x="210" y="130" fill="#ffffff" /><rect width="10" height="10" x="220" y="130" fill="#000000" /><rect width="10" height="10" x="70" y="140" fill="#000000" /><rect width="60" height="10" x="100" y="140" fill="#000000" /><rect width="60" height="10" x="170" y="140" fill="#000000" /><rect width="10" height="10" x="70" y="150" fill="#000000" /><rect width="60" height="10" x="100" y="150" fill="#000000" /><rect width="60" height="10" x="170" y="150" fill="#000000" /><rect width="60" height="10" x="100" y="160" fill="#000000" /><rect width="60" height="10" x="170" y="160" fill="#000000" /></svg>