<svg xmlns:xlink="http://www.w3.org/1999/xlink" width="320" height="320" viewBox="0 0 320 320" xmlns="http://www.w3.org/2000/svg" shape-rendering="crispEdges"><rect width="100%" height="100%" fill="#e1d7d5" /><rect width="140" height="10" x="90" y="210" fill="#63a0f9" /><rect width="140" height="10" x="90" y="220" fill="#63a0f9" /><rect width="140" height="10" x="90" y="230" fill="#63a0f9" /><rect width="140" height="10" x="90" y="240" fill="#63a0f9" /><rect width="20" height="10" x="90" y="250" fill="#63a0f9" /><rect width="110" height="10" x="120" y="250" fill="#63a0f9" /><rect width="20" height="10" x="90" y="260" fill="#63a0f9" /><rect width="110" height="10" x="120" y="260" fill="#63a0f9" /><rect width="20" height="10" x="90" y="270" fill="#63a0f9" /><rect width="110" height="10" x="120" y="270" fill="#63a0f9" /><rect width="20" height="10" x="90" y="280" fill="#63a0f9" /><rect width="110" height="10" x="120" y="280" fill="#63a0f9" /><rect width="20" height="10" x="90" y="290" fill="#63a0f9" /><rect width="110" height="10" x="120" y="290" fill="#63a0f9" /><rect width="20" height="10" x="90" y="300" fill="#63a0f9" /><rect width="110" height="10" x="120" y="300" fill="#63a0f9" /><rect width="20" height="10" x="90" y="310" fill="#63a0f9" /><rect width="110" height="10" x="120" y="310" fill="#63a0f9" /><rect width="10" height="10" x="120" y="210" fill="#ffc110" /><rect width="10" height="10" x="190" y="210" fill="#ffc110" /><rect width="10" height="10" x="130" y="220" fill="#ffc110" /><rect width="10" height="10" x="180" y="220" fill="#ffc110" /><rect width="10" height="10" x="140" y="230" fill="#ffc110" /><rect width="10" height="10" x="170" y="230" fill="#ffc110" /><rect width="20" height="10" x="150" y="240" fill="#ffc110" /><rect width="10" height="10" x="140" y="250" fill="#ffc110" /><rect width="10" height="10" x="170" y="250" fill="#ffc110" /><rect width="10" height="10" x="130" y="260" fill="#ffc110" /><rect width="10" height="10" x="140" y="260" fill="#ffef16" /><rect width="40" height="10" x="150" y="260" fill="#ffc110" /><rect width="60" height="10" x="130" y="270" fill="#ffc110" /><rect width="40" height="10" x="140" y="280" fill="#ffc110" /><rect width="20" height="10" x="150" y="290" fill="#ffc110" /><rect width="20" height="10" x="150" y="10" fill="#ff82ad" /><rect width="40" height="10" x="140" y="20" fill="#ff82ad" /><rect width="30" height="10" x="130" y="30" fill="#ff82ad" /><rect width="10" height="10" x="160" y="30" fill="#ffc5f0" /><rect width="20" height="10" x="170" y="30" fill="#ff82ad" /><rect width="50" height="10" x="120" y="40" fill="#ff82ad" /><rect width="10" height="10" x="170" y="40" fill="#ffc5f0" /><rect width="20" height="10" x="180" y="40" fill="#ff82ad" /><rect width="70" height="10" x="110" y="50" fill="#ff82ad" /><rect width="10" height="10" x="180" y="50" fill="#ffc5f0" /><rect width="20" height="10" x="190" y="50" fill="#ff82ad" /><rect width="120" height="10" x="100" y="60" fill="#ff82ad" /><rect width="140" height="10" x="90" y="70" fill="#ff82ad" /><rect width="10" height="10" x="80" y="80" fill="#fb4694" /><rect width="140" height="10" x="90" y="80" fill="#ff82ad" /><rect width="10" height="10" x="230" y="80" fill="#fb4694" /><rect width="20" height="10" x="70" y="90" fill="#fb4694" /><rect width="140" height="10" x="90" y="90" fill="#ff82ad" /><rect width="20" height="10" x="230" y="90" fill="#fb4694" /><rect width="20" height="10" x="60" y="100" fill="#fb4694" /><rect width="160" height="10" x="80" y="100" fill="#ff82ad" /><rect width="20" height="10" x="240" y="100" fill="#fb4694" /><rect width="30" height="10" x="50" y="110" fill="#fb4694" /><rect width="160" height="10" x="80" y="110" fill="#ff82ad" /><rect width="30" height="10" x="240" y="110" fill="#fb4694" /><rect width="40" height="10" x="40" y="120" fill="#fb4694" /><rect width="160" height="10" x="80" y="120" fill="#ff82ad" /><rect width="10" height="10" x="240" y="120" fill="#fb4694" /><rect width="10" height="10" x="250" y="120" fill="#ffc5f0" /><rect width="20" height="10" x="260" y="120" fill="#fb4694" /><rect width="40" height="10" x="40" y="130" fill="#fb4694" /><rect width="160" height="10" x="80" y="130" fill="#ff82ad" /><rect width="20" height="10" x="240" y="130" fill="#fb4694" /><rect width="10" height="10" x="260" y="130" fill="#ffc5f0" /><rect width="10" height="10" x="270" y="130" fill="#fb4694" /><rect width="40" height="10" x="40" y="140" fill="#fb4694" /><rect width="160" height="10" x="80" y="140" fill="#ff82ad" /><rect width="40" height="10" x="240" y="140" fill="#fb4694" /><rect width="40" height="10" x="40" y="150" fill="#fb4694" /><rect width="160" height="10" x="80" y="150" fill="#ff82ad" /><rect width="40" height="10" x="240" y="150" fill="#fb4694" /><rect width="30" height="10" x="50" y="160" fill="#fb4694" /><rect width="160" height="10" x="80" y="160" fill="#ff82ad" /><rect width="30" height="10" x="240" y="160" fill="#fb4694" /><rect width="10" height="10" x="30" y="170" fill="#fb4694" /><rect width="30" height="10" x="60" y="170" fill="#fb4694" /><rect width="140" height="10" x="90" y="170" fill="#ff82ad" /><rect width="30" height="10" x="230" y="170" fill="#fb4694" /><rect width="10" height="10" x="20" y="180" fill="#fb4694" /><rect width="10" height="10" x="30" y="180" fill="#ff82ad" /><rect width="10" height="10" x="40" y="180" fill="#fb4694" /><rect width="20" height="10" x="80" y="180" fill="#834398" /><rect width="10" height="10" x="100" y="180" fill="#fb4694" /><rect width="10" height="10" x="110" y="180" fill="#000000" /><rect width="10" height="10" x="120" y="180" fill="#ffffff" /><rect width="10" height="10" x="130" y="180" fill="#000000" /><rect width="10" height="10" x="140" y="180" fill="#ffffff" /><rect width="10" height="10" x="150" y="180" fill="#000000" /><rect width="10" height="10" x="160" y="180" fill="#ffffff" /><rect width="10" height="10" x="170" y="180" fill="#000000" /><rect width="10" height="10" x="180" y="180" fill="#ffffff" /><rect width="10" height="10" x="190" y="180" fill="#000000" /><rect width="10" height="10" x="200" y="180" fill="#ffffff" /><rect width="10" height="10" x="210" y="180" fill="#fb4694" /><rect width="20" height="10" x="220" y="180" fill="#834398" /><rect width="10" height="10" x="20" y="190" fill="#fb4694" /><rect width="10" height="10" x="30" y="190" fill="#ff82ad" /><rect width="10" height="10" x="40" y="190" fill="#fb4694" /><rect width="30" height="10" x="70" y="190" fill="#834398" /><rect width="120" height="10" x="100" y="190" fill="#fb4694" /><rect width="30" height="10" x="220" y="190" fill="#834398" /><rect width="10" height="10" x="20" y="200" fill="#fb4694" /><rect width="10" height="10" x="30" y="200" fill="#ff82ad" /><rect width="10" height="10" x="40" y="200" fill="#fb4694" /><rect width="200" height="10" x="60" y="200" fill="#834398" /><rect width="10" height="10" x="30" y="210" fill="#fb4694" /><rect width="10" height="10" x="40" y="210" fill="#834398" /><rect width="10" height="10" x="60" y="210" fill="#834398" /><rect width="20" height="10" x="80" y="210" fill="#834398" /><rect width="20" height="10" x="110" y="210" fill="#834398" /><rect width="20" height="10" x="190" y="210" fill="#834398" /><rect width="20" height="10" x="220" y="210" fill="#834398" /><rect width="20" height="10" x="250" y="210" fill="#834398" /><rect width="30" height="10" x="40" y="220" fill="#834398" /><rect width="10" height="10" x="80" y="220" fill="#834398" /><rect width="10" height="10" x="110" y="220" fill="#834398" /><rect width="10" height="10" x="200" y="220" fill="#834398" /><rect width="10" height="10" x="230" y="220" fill="#834398" /><rect width="10" height="10" x="260" y="220" fill="#834398" /><rect width="10" height="10" x="50" y="230" fill="#834398" /><rect width="10" height="10" x="250" y="230" fill="#fb4694" /><rect width="10" height="10" x="260" y="230" fill="#834398" /><rect width="10" height="10" x="250" y="240" fill="#fb4694" /><rect width="10" height="10" x="260" y="240" fill="#834398" /><rect width="10" height="10" x="250" y="250" fill="#fb4694" /><rect width="10" height="10" x="260" y="250" fill="#834398" /><rect width="10" height="10" x="250" y="260" fill="#fb4694" /><rect width="60" height="10" x="100" y="110" fill="#f3322c" /><rect width="60" height="10" x="170" y="110" fill="#f3322c" /><rect width="10" height="10" x="100" y="120" fill="#f3322c" /><rect width="20" height="10" x="110" y="120" fill="#ffffff" /><rect width="20" height="10" x="130" y="120" fill="#000000" /><rect width="10" height="10" x="150" y="120" fill="#f3322c" /><rect width="10" height="10" x="170" y="120" fill="#f3322c" /><rect width="20" height="10" x="180" y="120" fill="#ffffff" /><rect width="20" height="10" x="200" y="120" fill="#000000" /><rect width="10" height="10" x="220" y="120" fill="#f3322c" /><rect width="40" height="10" x="70" y="130" fill="#f3322c" /><rect width="20" height="10" x="110" y="130" fill="#ffffff" /><rect width="20" height="10" x="130" y="130" fill="#000000" /><rect width="30" height="10" x="150" y="130" fill="#f3322c" /><rect width="20" height="10" x="180" y="130" fill="#ffffff" /><rect width="20" height="10" x="200" y="130" fill="#000000" /><rect width="10" height="10" x="220" y="130" fill="#f3322c" /><rect width="10" height="10" x="70" y="140" fill="#f3322c" /><rect width="10" height="10" x="100" y="140" fill="#f3322c" /><rect width="20" height="10" x="110" y="140" fill="#ffffff" /><rect width="20" height="10" x="130" y="140" fill="#000000" /><rect width="10" height="10" x="150" y="140" fill="#f3322c" /><rect width="10" height="10" x="170" y="140" fill="#f3322c" /><rect width="20" height="10" x="180" y="140" fill="#ffffff" /><rect width="20" height="10" x="200" y="140" fill="#000000" /><rect width="10" height="10" x="220" y="140" fill="#f3322c" /><rect width="10" height="10" x="70" y="150" fill="#f3322c" /><rect width="10" height="10" x="100" y="150" fill="#f3322c" /><rect width="20" height="10" x="110" y="150" fill="#ffffff" /><rect width="20" height="10" x="130" y="150" fill="#000000" /><rect width="10" height="10" x="150" y="150" fill="#f3322c" /><rect width="10" height="10" x="170" y="150" fill="#f3322c" /><rect width="20" height="10" x="180" y="150" fill="#ffffff" /><rect width="20" height="10" x="200" y="150" fill="#000000" /><rect width="10" height="10" x="220" y="150" fill="#f3322c" /><rect width="60" height="10" x="100" y="160" fill="#f3322c" /><rect width="60" height="10" x="170" y="160" fill="#f3322c" /></svg>