<svg xmlns:xlink="http://www.w3.org/1999/xlink" width="320" height="320" viewBox="0 0 320 320" xmlns="http://www.w3.org/2000/svg" shape-rendering="crispEdges"><rect width="100%" height="100%" fill="#d5d7e1" /><rect width="140" height="10" x="90" y="210" fill="#fe500c" /><rect width="140" height="10" x="90" y="220" fill="#fe500c" /><rect width="140" height="10" x="90" y="230" fill="#fe500c" /><rect width="140" height="10" x="90" y="240" fill="#fe500c" /><rect width="20" height="10" x="90" y="250" fill="#fe500c" /><rect width="110" height="10" x="120" y="250" fill="#fe500c" /><rect width="20" height="10" x="90" y="260" fill="#fe500c" /><rect width="110" height="10" x="120" y="260" fill="#fe500c" /><rect width="20" height="10" x="90" y="270" fill="#fe500c" /><rect width="110" height="10" x="120" y="270" fill="#fe500c" /><rect width="20" height="10" x="90" y="280" fill="#fe500c" /><rect width="110" height="10" x="120" y="280" fill="#fe500c" /><rect width="20" height="10" x="90" y="290" fill="#fe500c" /><rect width="110" height="10" x="120" y="290" fill="#fe500c" /><rect width="20" height="10" x="90" y="300" fill="#fe500c" /><rect width="110" height="10" x="120" y="300" fill="#fe500c" /><rect width="20" height="10" x="90" y="310" fill="#fe500c" /><rect width="110" height="10" x="120" y="310" fill="#fe500c" /><rect width="140" height="10" x="90" y="210" fill="#505a5c" /><rect width="20" height="10" x="90" y="220" fill="#ff1a0b" /><rect width="60" height="10" x="110" y="220" fill="#505a5c" /><rect width="30" height="10" x="170" y="220" fill="#ff1a0b" /><rect width="30" height="10" x="200" y="220" fill="#505a5c" /><rect width="20" height="10" x="90" y="230" fill="#f78a18" /><rect width="110" height="10" x="110" y="230" fill="#505a5c" /><rect width="10" height="10" x="220" y="230" fill="#f78a18" /><rect width="10" height="10" x="90" y="240" fill="#f78a18" /><rect width="90" height="10" x="100" y="240" fill="#505a5c" /><rect width="10" height="10" x="190" y="240" fill="#f78a18" /><rect width="20" height="10" x="200" y="240" fill="#505a5c" /><rect width="10" height="10" x="220" y="240" fill="#f78a18" /><rect width="20" height="10" x="90" y="250" fill="#505a5c" /><rect width="10" height="10" x="120" y="250" fill="#505a5c" /><rect width="10" height="10" x="130" y="250" fill="#fff449" /><rect width="30" height="10" x="140" y="250" fill="#505a5c" /><rect width="20" height="10" x="170" y="250" fill="#fff449" /><rect width="40" height="10" x="190" y="250" fill="#505a5c" /><rect width="20" height="10" x="90" y="260" fill="#505a5c" /><rect width="80" height="10" x="120" y="260" fill="#505a5c" /><rect width="30" height="10" x="200" y="260" fill="#fff449" /><rect width="10" height="10" x="90" y="270" fill="#505a5c" /><rect width="10" height="10" x="100" y="270" fill="#068940" /><rect width="10" height="10" x="120" y="270" fill="#505a5c" /><rect width="20" height="10" x="130" y="270" fill="#068940" /><rect width="30" height="10" x="150" y="270" fill="#505a5c" /><rect width="50" height="10" x="180" y="270" fill="#068940" /><rect width="20" height="10" x="90" y="280" fill="#068940" /><rect width="80" height="10" x="120" y="280" fill="#505a5c" /><rect width="30" height="10" x="200" y="280" fill="#068940" /><rect width="20" height="10" x="90" y="290" fill="#2b83f6" /><rect width="10" height="10" x="120" y="290" fill="#505a5c" /><rect width="40" height="10" x="130" y="290" fill="#2b83f6" /><rect width="20" height="10" x="170" y="290" fill="#505a5c" /><rect width="10" height="10" x="190" y="290" fill="#2b83f6" /><rect width="20" height="10" x="200" y="290" fill="#505a5c" /><rect width="10" height="10" x="220" y="290" fill="#2b83f6" /><rect width="10" height="10" x="90" y="300" fill="#2b83f6" /><rect width="10" height="10" x="100" y="300" fill="#505a5c" /><rect width="110" height="10" x="120" y="300" fill="#505a5c" /><rect width="20" height="10" x="90" y="310" fill="#9f21a0" /><rect width="110" height="10" x="120" y="310" fill="#505a5c" /><rect width="100" height="10" x="110" y="50" fill="#2b83f6" /><rect width="160" height="10" x="80" y="60" fill="#2b83f6" /><rect width="160" height="10" x="80" y="70" fill="#2b83f6" /><rect width="180" height="10" x="70" y="80" fill="#2b83f6" /><rect width="180" height="10" x="70" y="90" fill="#2b83f6" /><rect width="160" height="10" x="80" y="100" fill="#f9e8dd" /><rect width="160" height="10" x="80" y="110" fill="#f9e8dd" /><rect width="160" height="10" x="80" y="120" fill="#f9e8dd" /><rect width="160" height="10" x="80" y="130" fill="#f9e8dd" /><rect width="160" height="10" x="80" y="140" fill="#f9e8dd" /><rect width="160" height="10" x="80" y="150" fill="#f9e8dd" /><rect width="160" height="10" x="80" y="160" fill="#f9e8dd" /><rect width="70" height="10" x="80" y="170" fill="#f9e8dd" /><rect width="10" height="10" x="150" y="170" fill="#9d8e6e" /><rect width="10" height="10" x="160" y="170" fill="#f9e8dd" /><rect width="10" height="10" x="170" y="170" fill="#9d8e6e" /><rect width="60" height="10" x="180" y="170" fill="#f9e8dd" /><rect width="120" height="10" x="100" y="180" fill="#f9e8dd" /><rect width="20" height="10" x="100" y="190" fill="#f9e8dd" /><rect width="10" height="10" x="120" y="190" fill="#9d8e6e" /><rect width="10" height="10" x="130" y="190" fill="#f9e8dd" /><rect width="10" height="10" x="140" y="190" fill="#ffe939" /><rect width="10" height="10" x="150" y="190" fill="#f9e8dd" /><rect width="10" height="10" x="160" y="190" fill="#9d8e6e" /><rect width="10" height="10" x="170" y="190" fill="#f9e8dd" /><rect width="10" height="10" x="180" y="190" fill="#9d8e6e" /><rect width="10" height="10" x="190" y="190" fill="#f9e8dd" /><rect width="10" height="10" x="200" y="190" fill="#9d8e6e" /><rect width="10" height="10" x="210" y="190" fill="#f9e8dd" /><rect width="30" height="10" x="100" y="200" fill="#f9e8dd" /><rect width="10" height="10" x="130" y="200" fill="#9d8e6e" /><rect width="10" height="10" x="140" y="200" fill="#f9e8dd" /><rect width="10" height="10" x="150" y="200" fill="#9d8e6e" /><rect width="10" height="10" x="160" y="200" fill="#f9e8dd" /><rect width="10" height="10" x="170" y="200" fill="#9d8e6e" /><rect width="10" height="10" x="180" y="200" fill="#f9e8dd" /><rect width="10" height="10" x="190" y="200" fill="#9d8e6e" /><rect width="10" height="10" x="200" y="200" fill="#f9e8dd" /><rect width="10" height="10" x="210" y="200" fill="#9d8e6e" /><rect width="110" height="10" x="110" y="210" fill="#f9e8dd" /><rect width="60" height="10" x="100" y="110" fill="#000000" /><rect width="60" height="10" x="170" y="110" fill="#000000" /><rect width="40" height="10" x="100" y="120" fill="#000000" /><rect width="10" height="10" x="140" y="120" fill="#ffffff" /><rect width="10" height="10" x="150" y="120" fill="#000000" /><rect width="40" height="10" x="170" y="120" fill="#000000" /><rect width="10" height="10" x="210" y="120" fill="#ffffff" /><rect width="10" height="10" x="220" y="120" fill="#000000" /><rect width="70" height="10" x="70" y="130" fill="#000000" /><rect width="10" height="10" x="140" y="130" fill="#ffffff" /><rect width="60" height="10" x="150" y="130" fill="#000000" /><rect width="10" height="10" x="210" y="130" fill="#ffffff" /><rect width="10" height="10" x="220" y="130" fill="#000000" /><rect width="10" height="10" x="70" y="140" fill="#000000" /><rect width="60" height="10" x="100" y="140" fill="#000000" /><rect width="60" height="10" x="170" y="140" fill="#000000" /><rect width="10" height="10" x="70" y="150" fill="#000000" /><rect width="60" height="10" x="100" y="150" fill="#000000" /><rect width="60" height="10" x="170" y="150" fill="#000000" /><rect width="60" height="10" x="100" y="160" fill="#000000" /><rect width="60" height="10" x="170" y="160" fill="#000000" /></svg>