<svg xmlns:xlink="http://www.w3.org/1999/xlink" width="320" height="320" viewBox="0 0 320 320" xmlns="http://www.w3.org/2000/svg" shape-rendering="crispEdges"><rect width="100%" height="100%" fill="#d5d7e1" /><rect width="140" height="10" x="90" y="210" fill="#63a0f9" /><rect width="140" height="10" x="90" y="220" fill="#63a0f9" /><rect width="140" height="10" x="90" y="230" fill="#63a0f9" /><rect width="140" height="10" x="90" y="240" fill="#63a0f9" /><rect width="20" height="10" x="90" y="250" fill="#63a0f9" /><rect width="110" height="10" x="120" y="250" fill="#63a0f9" /><rect width="20" height="10" x="90" y="260" fill="#63a0f9" /><rect width="110" height="10" x="120" y="260" fill="#63a0f9" /><rect width="20" height="10" x="90" y="270" fill="#63a0f9" /><rect width="110" height="10" x="120" y="270" fill="#63a0f9" /><rect width="20" height="10" x="90" y="280" fill="#63a0f9" /><rect width="110" height="10" x="120" y="280" fill="#63a0f9" /><rect width="20" height="10" x="90" y="290" fill="#63a0f9" /><rect width="110" height="10" x="120" y="290" fill="#63a0f9" /><rect width="20" height="10" x="90" y="300" fill="#63a0f9" /><rect width="110" height="10" x="120" y="300" fill="#63a0f9" /><rect width="20" height="10" x="90" y="310" fill="#63a0f9" /><rect width="110" height="10" x="120" y="310" fill="#63a0f9" /><rect width="140" height="10" x="90" y="210" fill="#fffdf2" /><rect width="140" height="10" x="90" y="220" fill="#fffdf2" /><rect width="140" height="10" x="90" y="230" fill="#fffdf2" /><rect width="140" height="10" x="90" y="240" fill="#fffdf2" /><rect width="20" height="10" x="90" y="250" fill="#fffdf2" /><rect width="110" height="10" x="120" y="250" fill="#fffdf2" /><rect width="20" height="10" x="90" y="260" fill="#fffdf2" /><rect width="110" height="10" x="120" y="260" fill="#fffdf2" /><rect width="20" height="10" x="90" y="270" fill="#fffdf2" /><rect width="110" height="10" x="120" y="270" fill="#fffdf2" /><rect width="20" height="10" x="90" y="280" fill="#fffdf2" /><rect width="110" height="10" x="120" y="280" fill="#fffdf2" /><rect width="20" height="10" x="90" y="290" fill="#fffdf2" /><rect width="110" height="10" x="120" y="290" fill="#fffdf2" /><rect width="20" height="10" x="90" y="300" fill="#fffdf2" /><rect width="110" height="10" x="120" y="300" fill="#fffdf2" /><rect width="20" height="10" x="90" y="310" fill="#fffdf2" /><rect width="110" height="10" x="120" y="310" fill="#fffdf2" /><rect width="10" height="10" x="110" y="30" fill="#6b3f39" /><rect width="10" height="10" x="200" y="30" fill="#6b3f39" /><rect width="10" height="10" x="110" y="40" fill="#6b3f39" /><rect width="10" height="10" x="200" y="40" fill="#6b3f39" /><rect width="30" height="10" x="100" y="50" fill="#6b3f39" /><rect width="30" height="10" x="190" y="50" fill="#6b3f39" /><rect width="10" height="10" x="60" y="60" fill="#6b3f39" /><rect width="20" height="10" x="90" y="60" fill="#6b3f39" /><rect width="10" height="10" x="110" y="60" fill="#4d271b" /><rect width="10" height="10" x="120" y="60" fill="#6b3f39" /><rect width="10" height="10" x="190" y="60" fill="#6b3f39" /><rect width="10" height="10" x="200" y="60" fill="#4d271b" /><rect width="20" height="10" x="210" y="60" fill="#6b3f39" /><rect width="10" height="10" x="250" y="60" fill="#6b3f39" /><rect width="50" height="10" x="60" y="70" fill="#6b3f39" /><rect width="10" height="10" x="110" y="70" fill="#4d271b" /><rect width="20" height="10" x="120" y="70" fill="#6b3f39" /><rect width="20" height="10" x="180" y="70" fill="#6b3f39" /><rect width="10" height="10" x="200" y="70" fill="#4d271b" /><rect width="50" height="10" x="210" y="70" fill="#6b3f39" /><rect width="10" height="10" x="50" y="80" fill="#6b3f39" /><rect width="10" height="10" x="60" y="80" fill="#4d271b" /><rect width="30" height="10" x="70" y="80" fill="#6b3f39" /><rect width="10" height="10" x="100" y="80" fill="#4d271b" /><rect width="100" height="10" x="110" y="80" fill="#6b3f39" /><rect width="10" height="10" x="210" y="80" fill="#4d271b" /><rect width="30" height="10" x="220" y="80" fill="#6b3f39" /><rect width="10" height="10" x="250" y="80" fill="#4d271b" /><rect width="10" height="10" x="260" y="80" fill="#6b3f39" /><rect width="50" height="10" x="50" y="90" fill="#6b3f39" /><rect width="10" height="10" x="100" y="90" fill="#4d271b" /><rect width="100" height="10" x="110" y="90" fill="#6b3f39" /><rect width="10" height="10" x="210" y="90" fill="#4d271b" /><rect width="50" height="10" x="220" y="90" fill="#6b3f39" /><rect width="10" height="10" x="40" y="100" fill="#6b3f39" /><rect width="10" height="10" x="50" y="100" fill="#4d271b" /><rect width="200" height="10" x="60" y="100" fill="#6b3f39" /><rect width="10" height="10" x="260" y="100" fill="#4d271b" /><rect width="10" height="10" x="270" y="100" fill="#6b3f39" /><rect width="10" height="10" x="40" y="110" fill="#6b3f39" /><rect width="10" height="10" x="50" y="110" fill="#4d271b" /><rect width="200" height="10" x="60" y="110" fill="#6b3f39" /><rect width="10" height="10" x="260" y="110" fill="#4d271b" /><rect width="10" height="10" x="270" y="110" fill="#6b3f39" /><rect width="10" height="10" x="30" y="120" fill="#6b3f39" /><rect width="10" height="10" x="40" y="120" fill="#4d271b" /><rect width="220" height="10" x="50" y="120" fill="#6b3f39" /><rect width="10" height="10" x="270" y="120" fill="#4d271b" /><rect width="10" height="10" x="280" y="120" fill="#6b3f39" /><rect width="10" height="10" x="30" y="130" fill="#6b3f39" /><rect width="10" height="10" x="40" y="130" fill="#4d271b" /><rect width="220" height="10" x="50" y="130" fill="#6b3f39" /><rect width="10" height="10" x="270" y="130" fill="#4d271b" /><rect width="10" height="10" x="280" y="130" fill="#6b3f39" /><rect width="10" height="10" x="30" y="140" fill="#6b3f39" /><rect width="10" height="10" x="40" y="140" fill="#4d271b" /><rect width="220" height="10" x="50" y="140" fill="#6b3f39" /><rect width="10" height="10" x="270" y="140" fill="#4d271b" /><rect width="10" height="10" x="280" y="140" fill="#6b3f39" /><rect width="10" height="10" x="30" y="150" fill="#6b3f39" /><rect width="10" height="10" x="40" y="150" fill="#4d271b" /><rect width="220" height="10" x="50" y="150" fill="#6b3f39" /><rect width="10" height="10" x="270" y="150" fill="#4d271b" /><rect width="10" height="10" x="280" y="150" fill="#6b3f39" /><rect width="10" height="10" x="20" y="160" fill="#6b3f39" /><rect width="10" height="10" x="30" y="160" fill="#4d271b" /><rect width="240" height="10" x="40" y="160" fill="#6b3f39" /><rect width="10" height="10" x="280" y="160" fill="#4d271b" /><rect width="10" height="10" x="290" y="160" fill="#6b3f39" /><rect width="10" height="10" x="20" y="170" fill="#6b3f39" /><rect width="10" height="10" x="30" y="170" fill="#4d271b" /><rect width="240" height="10" x="40" y="170" fill="#6b3f39" /><rect width="10" height="10" x="280" y="170" fill="#4d271b" /><rect width="10" height="10" x="290" y="170" fill="#6b3f39" /><rect width="70" height="10" x="20" y="180" fill="#6b3f39" /><rect width="10" height="10" x="90" y="180" fill="#4d271b" /><rect width="40" height="10" x="100" y="180" fill="#6b3f39" /><rect width="20" height="10" x="140" y="180" fill="#000000" /><rect width="10" height="10" x="160" y="180" fill="#76858b" /><rect width="10" height="10" x="170" y="180" fill="#000000" /><rect width="10" height="10" x="180" y="180" fill="#76858b" /><rect width="20" height="10" x="190" y="180" fill="#000000" /><rect width="10" height="10" x="210" y="180" fill="#6b3f39" /><rect width="10" height="10" x="220" y="180" fill="#4d271b" /><rect width="70" height="10" x="230" y="180" fill="#6b3f39" /><rect width="20" height="10" x="20" y="190" fill="#6b3f39" /><rect width="20" height="10" x="70" y="190" fill="#6b3f39" /><rect width="10" height="10" x="90" y="190" fill="#4d271b" /><rect width="30" height="10" x="100" y="190" fill="#6b3f39" /><rect width="30" height="10" x="130" y="190" fill="#000000" /><rect width="10" height="10" x="160" y="190" fill="#ffffff" /><rect width="10" height="10" x="170" y="190" fill="#000000" /><rect width="10" height="10" x="180" y="190" fill="#ffffff" /><rect width="10" height="10" x="190" y="190" fill="#000000" /><rect width="20" height="10" x="200" y="190" fill="#6b3f39" /><rect width="10" height="10" x="220" y="190" fill="#4d271b" /><rect width="20" height="10" x="230" y="190" fill="#6b3f39" /><rect width="20" height="10" x="280" y="190" fill="#6b3f39" /><rect width="10" height="10" x="20" y="200" fill="#6b3f39" /><rect width="160" height="10" x="80" y="200" fill="#6b3f39" /><rect width="10" height="10" x="290" y="200" fill="#6b3f39" /><rect width="60" height="10" x="100" y="110" fill="#2b83f6" /><rect width="60" height="10" x="170" y="110" fill="#2b83f6" /><rect width="10" height="10" x="100" y="120" fill="#2b83f6" /><rect width="20" height="10" x="110" y="120" fill="#ffffff" /><rect width="20" height="10" x="130" y="120" fill="#000000" /><rect width="10" height="10" x="150" y="120" fill="#2b83f6" /><rect width="10" height="10" x="170" y="120" fill="#2b83f6" /><rect width="20" height="10" x="180" y="120" fill="#ffffff" /><rect width="20" height="10" x="200" y="120" fill="#000000" /><rect width="10" height="10" x="220" y="120" fill="#2b83f6" /><rect width="40" height="10" x="70" y="130" fill="#2b83f6" /><rect width="20" height="10" x="110" y="130" fill="#ffffff" /><rect width="20" height="10" x="130" y="130" fill="#000000" /><rect width="30" height="10" x="150" y="130" fill="#2b83f6" /><rect width="20" height="10" x="180" y="130" fill="#ffffff" /><rect width="20" height="10" x="200" y="130" fill="#000000" /><rect width="10" height="10" x="220" y="130" fill="#2b83f6" /><rect width="10" height="10" x="70" y="140" fill="#2b83f6" /><rect width="10" height="10" x="100" y="140" fill="#2b83f6" /><rect width="20" height="10" x="110" y="140" fill="#ffffff" /><rect width="20" height="10" x="130" y="140" fill="#000000" /><rect width="10" height="10" x="150" y="140" fill="#2b83f6" /><rect width="10" height="10" x="170" y="140" fill="#2b83f6" /><rect width="20" height="10" x="180" y="140" fill="#ffffff" /><rect width="20" height="10" x="200" y="140" fill="#000000" /><rect width="10" height="10" x="220" y="140" fill="#2b83f6" /><rect width="10" height="10" x="70" y="150" fill="#2b83f6" /><rect width="10" height="10" x="100" y="150" fill="#2b83f6" /><rect width="20" height="10" x="110" y="150" fill="#ffffff" /><rect width="20" height="10" x="130" y="150" fill="#000000" /><rect width="10" height="10" x="150" y="150" fill="#2b83f6" /><rect width="10" height="10" x="170" y="150" fill="#2b83f6" /><rect width="20" height="10" x="180" y="150" fill="#ffffff" /><rect width="20" height="10" x="200" y="150" fill="#000000" /><rect width="10" height="10" x="220" y="150" fill="#2b83f6" /><rect width="60" height="10" x="100" y="160" fill="#2b83f6" /><rect width="60" height="10" x="170" y="160" fill="#2b83f6" /></svg>