<svg xmlns:xlink="http://www.w3.org/1999/xlink" width="320" height="320" viewBox="0 0 320 320" xmlns="http://www.w3.org/2000/svg" shape-rendering="crispEdges"><rect width="100%" height="100%" fill="#d5d7e1" /><rect width="140" height="10" x="90" y="210" fill="#4bea69" /><rect width="140" height="10" x="90" y="220" fill="#4bea69" /><rect width="140" height="10" x="90" y="230" fill="#4bea69" /><rect width="140" height="10" x="90" y="240" fill="#4bea69" /><rect width="20" height="10" x="90" y="250" fill="#4bea69" /><rect width="110" height="10" x="120" y="250" fill="#4bea69" /><rect width="20" height="10" x="90" y="260" fill="#4bea69" /><rect width="110" height="10" x="120" y="260" fill="#4bea69" /><rect width="20" height="10" x="90" y="270" fill="#4bea69" /><rect width="110" height="10" x="120" y="270" fill="#4bea69" /><rect width="20" height="10" x="90" y="280" fill="#4bea69" /><rect width="110" height="10" x="120" y="280" fill="#4bea69" /><rect width="20" height="10" x="90" y="290" fill="#4bea69" /><rect width="110" height="10" x="120" y="290" fill="#4bea69" /><rect width="20" height="10" x="90" y="300" fill="#4bea69" /><rect width="110" height="10" x="120" y="300" fill="#4bea69" /><rect width="20" height="10" x="90" y="310" fill="#4bea69" /><rect width="110" height="10" x="120" y="310" fill="#4bea69" /><rect width="140" height="10" x="90" y="210" fill="#d62149" /><rect width="140" height="10" x="90" y="220" fill="#d62149" /><rect width="140" height="10" x="90" y="230" fill="#d62149" /><rect width="140" height="10" x="90" y="240" fill="#b9185c" /><rect width="20" height="10" x="90" y="250" fill="#b9185c" /><rect width="110" height="10" x="120" y="250" fill="#b9185c" /><rect width="20" height="10" x="90" y="260" fill="#b9185c" /><rect width="110" height="10" x="120" y="260" fill="#b9185c" /><rect width="20" height="10" x="90" y="270" fill="#b9185c" /><rect width="110" height="10" x="120" y="270" fill="#b9185c" /><rect width="20" height="10" x="90" y="280" fill="#b9185c" /><rect width="110" height="10" x="120" y="280" fill="#b9185c" /><rect width="20" height="10" x="90" y="290" fill="#b9185c" /><rect width="110" height="10" x="120" y="290" fill="#b9185c" /><rect width="20" height="10" x="90" y="300" fill="#834398" /><rect width="110" height="10" x="120" y="300" fill="#834398" /><rect width="20" height="10" x="90" y="310" fill="#834398" /><rect width="110" height="10" x="120" y="310" fill="#834398" /><rect width="40" height="10" x="140" y="50" fill="#ffb913" /><rect width="80" height="10" x="120" y="60" fill="#ffb913" /><rect width="120" height="10" x="100" y="70" fill="#ffb913" /><rect width="20" height="10" x="240" y="70" fill="#667af9" /><rect width="50" height="10" x="40" y="80" fill="#fff0ee" /><rect width="140" height="10" x="90" y="80" fill="#ffb913" /><rect width="20" height="10" x="240" y="80" fill="#667af9" /><rect width="10" height="10" x="30" y="90" fill="#fff0ee" /><rect width="140" height="10" x="90" y="90" fill="#ffb913" /><rect width="10" height="10" x="30" y="100" fill="#fff0ee" /><rect width="20" height="10" x="80" y="100" fill="#fe500c" /><rect width="130" height="10" x="100" y="100" fill="#ffb913" /><rect width="10" height="10" x="230" y="100" fill="#fe500c" /><rect width="10" height="10" x="30" y="110" fill="#fff0ee" /><rect width="30" height="10" x="80" y="110" fill="#fe500c" /><rect width="120" height="10" x="110" y="110" fill="#ffb913" /><rect width="10" height="10" x="230" y="110" fill="#fe500c" /><rect width="10" height="10" x="40" y="120" fill="#fff0ee" /><rect width="20" height="10" x="70" y="120" fill="#e11833" /><rect width="30" height="10" x="90" y="120" fill="#fe500c" /><rect width="110" height="10" x="120" y="120" fill="#ffb913" /><rect width="20" height="10" x="230" y="120" fill="#fe500c" /><rect width="10" height="10" x="50" y="130" fill="#fff0ee" /><rect width="20" height="10" x="70" y="130" fill="#e11833" /><rect width="40" height="10" x="90" y="130" fill="#fe500c" /><rect width="90" height="10" x="130" y="130" fill="#ffb913" /><rect width="30" height="10" x="220" y="130" fill="#fe500c" /><rect width="10" height="10" x="60" y="140" fill="#fff0ee" /><rect width="30" height="10" x="70" y="140" fill="#e11833" /><rect width="60" height="10" x="100" y="140" fill="#fe500c" /><rect width="50" height="10" x="160" y="140" fill="#ffb913" /><rect width="40" height="10" x="210" y="140" fill="#fe500c" /><rect width="10" height="10" x="70" y="150" fill="#fff0ee" /><rect width="20" height="10" x="80" y="150" fill="#e11833" /><rect width="150" height="10" x="100" y="150" fill="#fe500c" /><rect width="10" height="10" x="80" y="160" fill="#fff0ee" /><rect width="40" height="10" x="90" y="160" fill="#e11833" /><rect width="110" height="10" x="130" y="160" fill="#fe500c" /><rect width="10" height="10" x="240" y="160" fill="#fff0ee" /><rect width="10" height="10" x="270" y="160" fill="#ffb913" /><rect width="10" height="10" x="80" y="170" fill="#e11833" /><rect width="20" height="10" x="90" y="170" fill="#fff0ee" /><rect width="50" height="10" x="110" y="170" fill="#e11833" /><rect width="60" height="10" x="160" y="170" fill="#fe500c" /><rect width="20" height="10" x="220" y="170" fill="#e11833" /><rect width="10" height="10" x="250" y="170" fill="#fff0ee" /><rect width="20" height="10" x="90" y="180" fill="#e11833" /><rect width="20" height="10" x="110" y="180" fill="#fff0ee" /><rect width="100" height="10" x="130" y="180" fill="#e11833" /><rect width="10" height="10" x="260" y="180" fill="#fff0ee" /><rect width="20" height="10" x="60" y="190" fill="#ffb913" /><rect width="40" height="10" x="90" y="190" fill="#e11833" /><rect width="30" height="10" x="130" y="190" fill="#fff0ee" /><rect width="70" height="10" x="160" y="190" fill="#e11833" /><rect width="10" height="10" x="270" y="190" fill="#fff0ee" /><rect width="10" height="10" x="50" y="200" fill="#667af9" /><rect width="20" height="10" x="60" y="200" fill="#ffb913" /><rect width="60" height="10" x="100" y="200" fill="#e11833" /><rect width="30" height="10" x="160" y="200" fill="#fff0ee" /><rect width="30" height="10" x="190" y="200" fill="#e11833" /><rect width="10" height="10" x="270" y="200" fill="#fff0ee" /><rect width="20" height="10" x="50" y="210" fill="#667af9" /><rect width="70" height="10" x="120" y="210" fill="#e11833" /><rect width="30" height="10" x="190" y="210" fill="#fff0ee" /><rect width="10" height="10" x="270" y="210" fill="#fff0ee" /><rect width="40" height="10" x="140" y="220" fill="#e11833" /><rect width="50" height="10" x="220" y="220" fill="#fff0ee" /><rect width="60" height="10" x="100" y="110" fill="#2b83f6" /><rect width="60" height="10" x="170" y="110" fill="#2b83f6" /><rect width="10" height="10" x="100" y="120" fill="#2b83f6" /><rect width="20" height="10" x="110" y="120" fill="#ffffff" /><rect width="20" height="10" x="130" y="120" fill="#000000" /><rect width="10" height="10" x="150" y="120" fill="#2b83f6" /><rect width="10" height="10" x="170" y="120" fill="#2b83f6" /><rect width="20" height="10" x="180" y="120" fill="#ffffff" /><rect width="20" height="10" x="200" y="120" fill="#000000" /><rect width="10" height="10" x="220" y="120" fill="#2b83f6" /><rect width="40" height="10" x="70" y="130" fill="#2b83f6" /><rect width="20" height="10" x="110" y="130" fill="#ffffff" /><rect width="20" height="10" x="130" y="130" fill="#000000" /><rect width="30" height="10" x="150" y="130" fill="#2b83f6" /><rect width="20" height="10" x="180" y="130" fill="#ffffff" /><rect width="20" height="10" x="200" y="130" fill="#000000" /><rect width="10" height="10" x="220" y="130" fill="#2b83f6" /><rect width="10" height="10" x="70" y="140" fill="#2b83f6" /><rect width="10" height="10" x="100" y="140" fill="#2b83f6" /><rect width="20" height="10" x="110" y="140" fill="#ffffff" /><rect width="20" height="10" x="130" y="140" fill="#000000" /><rect width="10" height="10" x="150" y="140" fill="#2b83f6" /><rect width="10" height="10" x="170" y="140" fill="#2b83f6" /><rect width="20" height="10" x="180" y="140" fill="#ffffff" /><rect width="20" height="10" x="200" y="140" fill="#000000" /><rect width="10" height="10" x="220" y="140" fill="#2b83f6" /><rect width="10" height="10" x="70" y="150" fill="#2b83f6" /><rect width="10" height="10" x="100" y="150" fill="#2b83f6" /><rect width="20" height="10" x="110" y="150" fill="#ffffff" /><rect width="20" height="10" x="130" y="150" fill="#000000" /><rect width="10" height="10" x="150" y="150" fill="#2b83f6" /><rect width="10" height="10" x="170" y="150" fill="#2b83f6" /><rect width="20" height="10" x="180" y="150" fill="#ffffff" /><rect width="20" height="10" x="200" y="150" fill="#000000" /><rect width="10" height="10" x="220" y="150" fill="#2b83f6" /><rect width="60" height="10" x="100" y="160" fill="#2b83f6" /><rect width="60" height="10" x="170" y="160" fill="#2b83f6" /></svg>