<svg xmlns:xlink="http://www.w3.org/1999/xlink" width="320" height="320" viewBox="0 0 320 320" xmlns="http://www.w3.org/2000/svg" shape-rendering="crispEdges"><rect width="100%" height="100%" fill="#d5d7e1" /><rect width="140" height="10" x="90" y="210" fill="#d26451" /><rect width="140" height="10" x="90" y="220" fill="#d26451" /><rect width="140" height="10" x="90" y="230" fill="#d26451" /><rect width="140" height="10" x="90" y="240" fill="#d26451" /><rect width="20" height="10" x="90" y="250" fill="#d26451" /><rect width="110" height="10" x="120" y="250" fill="#d26451" /><rect width="20" height="10" x="90" y="260" fill="#d26451" /><rect width="110" height="10" x="120" y="260" fill="#d26451" /><rect width="20" height="10" x="90" y="270" fill="#d26451" /><rect width="110" height="10" x="120" y="270" fill="#d26451" /><rect width="20" height="10" x="90" y="280" fill="#d26451" /><rect width="110" height="10" x="120" y="280" fill="#d26451" /><rect width="20" height="10" x="90" y="290" fill="#d26451" /><rect width="110" height="10" x="120" y="290" fill="#d26451" /><rect width="20" height="10" x="90" y="300" fill="#d26451" /><rect width="110" height="10" x="120" y="300" fill="#d26451" /><rect width="20" height="10" x="90" y="310" fill="#d26451" /><rect width="110" height="10" x="120" y="310" fill="#d26451" /><rect width="10" height="10" x="120" y="210" fill="#ffc110" /><rect width="10" height="10" x="190" y="210" fill="#ffc110" /><rect width="10" height="10" x="120" y="220" fill="#ffc110" /><rect width="10" height="10" x="190" y="220" fill="#ffc110" /><rect width="10" height="10" x="130" y="230" fill="#ffc110" /><rect width="10" height="10" x="180" y="230" fill="#ffc110" /><rect width="40" height="10" x="140" y="240" fill="#ffc110" /><rect width="20" height="10" x="150" y="250" fill="#ffc110" /><rect width="40" height="10" x="140" y="260" fill="#ffc110" /><rect width="20" height="10" x="140" y="270" fill="#ffc110" /><rect width="20" height="10" x="160" y="280" fill="#ffc110" /><rect width="40" height="10" x="140" y="290" fill="#ffc110" /><rect width="20" height="10" x="150" y="300" fill="#ffc110" /><rect width="70" height="10" x="150" y="20" fill="#068940" /><rect width="30" height="10" x="130" y="30" fill="#068940" /><rect width="30" height="10" x="160" y="30" fill="#4bea69" /><rect width="40" height="10" x="190" y="30" fill="#068940" /><rect width="50" height="10" x="110" y="40" fill="#068940" /><rect width="30" height="10" x="160" y="40" fill="#4bea69" /><rect width="10" height="10" x="190" y="40" fill="#068940" /><rect width="20" height="10" x="200" y="40" fill="#4bea69" /><rect width="20" height="10" x="220" y="40" fill="#068940" /><rect width="40" height="10" x="90" y="50" fill="#068940" /><rect width="10" height="10" x="130" y="50" fill="#4bea69" /><rect width="20" height="10" x="140" y="50" fill="#068940" /><rect width="30" height="10" x="160" y="50" fill="#4bea69" /><rect width="10" height="10" x="190" y="50" fill="#068940" /><rect width="20" height="10" x="200" y="50" fill="#4bea69" /><rect width="20" height="10" x="220" y="50" fill="#068940" /><rect width="160" height="10" x="80" y="60" fill="#068940" /><rect width="140" height="10" x="90" y="70" fill="#068940" /><rect width="30" height="10" x="250" y="70" fill="#068940" /><rect width="80" height="10" x="130" y="80" fill="#068940" /><rect width="20" height="10" x="240" y="80" fill="#068940" /><rect width="10" height="10" x="260" y="80" fill="#4bea69" /><rect width="20" height="10" x="270" y="80" fill="#068940" /><rect width="70" height="10" x="40" y="90" fill="#068940" /><rect width="20" height="10" x="170" y="90" fill="#b2958d" /><rect width="80" height="10" x="220" y="90" fill="#068940" /><rect width="20" height="10" x="30" y="100" fill="#068940" /><rect width="20" height="10" x="50" y="100" fill="#4bea69" /><rect width="60" height="10" x="70" y="100" fill="#068940" /><rect width="30" height="10" x="170" y="100" fill="#b2958d" /><rect width="60" height="10" x="200" y="100" fill="#068940" /><rect width="20" height="10" x="260" y="100" fill="#4bea69" /><rect width="20" height="10" x="280" y="100" fill="#068940" /><rect width="20" height="10" x="30" y="110" fill="#068940" /><rect width="20" height="10" x="50" y="110" fill="#4bea69" /><rect width="10" height="10" x="70" y="110" fill="#068940" /><rect width="10" height="10" x="80" y="110" fill="#4bea69" /><rect width="50" height="10" x="90" y="110" fill="#068940" /><rect width="10" height="10" x="180" y="110" fill="#b2958d" /><rect width="70" height="10" x="190" y="110" fill="#068940" /><rect width="20" height="10" x="260" y="110" fill="#4bea69" /><rect width="20" height="10" x="280" y="110" fill="#068940" /><rect width="110" height="10" x="30" y="120" fill="#068940" /><rect width="30" height="10" x="180" y="120" fill="#b2958d" /><rect width="80" height="10" x="210" y="120" fill="#068940" /><rect width="110" height="10" x="30" y="130" fill="#068940" /><rect width="90" height="10" x="170" y="130" fill="#b2958d" /><rect width="80" height="10" x="40" y="140" fill="#068940" /><rect width="80" height="10" x="120" y="140" fill="#b2958d" /><rect width="30" height="10" x="50" y="150" fill="#068940" /><rect width="40" height="10" x="80" y="150" fill="#b2958d" /><rect width="40" height="10" x="150" y="150" fill="#b2958d" /><rect width="60" height="10" x="130" y="160" fill="#b2958d" /><rect width="80" height="10" x="120" y="170" fill="#b2958d" /><rect width="180" height="10" x="70" y="180" fill="#962236" /><rect width="50" height="10" x="70" y="190" fill="#962236" /><rect width="130" height="10" x="120" y="190" fill="#1f1d29" /><rect width="180" height="10" x="70" y="200" fill="#962236" /><rect width="140" height="10" x="90" y="210" fill="#962236" /><rect width="60" height="10" x="100" y="110" fill="#068940" /><rect width="60" height="10" x="170" y="110" fill="#257ced" /><rect width="10" height="10" x="100" y="120" fill="#068940" /><rect width="20" height="10" x="110" y="120" fill="#ffffff" /><rect width="20" height="10" x="130" y="120" fill="#000000" /><rect width="10" height="10" x="150" y="120" fill="#068940" /><rect width="10" height="10" x="170" y="120" fill="#257ced" /><rect width="20" height="10" x="180" y="120" fill="#ffffff" /><rect width="20" height="10" x="200" y="120" fill="#000000" /><rect width="10" height="10" x="220" y="120" fill="#257ced" /><rect width="30" height="10" x="70" y="130" fill="#257ced" /><rect width="10" height="10" x="100" y="130" fill="#068940" /><rect width="20" height="10" x="110" y="130" fill="#ffffff" /><rect width="20" height="10" x="130" y="130" fill="#000000" /><rect width="10" height="10" x="150" y="130" fill="#068940" /><rect width="20" height="10" x="160" y="130" fill="#257ced" /><rect width="20" height="10" x="180" y="130" fill="#ffffff" /><rect width="20" height="10" x="200" y="130" fill="#000000" /><rect width="10" height="10" x="220" y="130" fill="#257ced" /><rect width="10" height="10" x="70" y="140" fill="#257ced" /><rect width="10" height="10" x="100" y="140" fill="#068940" /><rect width="20" height="10" x="110" y="140" fill="#ffffff" /><rect width="20" height="10" x="130" y="140" fill="#000000" /><rect width="10" height="10" x="150" y="140" fill="#068940" /><rect width="10" height="10" x="170" y="140" fill="#257ced" /><rect width="20" height="10" x="180" y="140" fill="#ffffff" /><rect width="20" height="10" x="200" y="140" fill="#000000" /><rect width="10" height="10" x="220" y="140" fill="#257ced" /><rect width="10" height="10" x="70" y="150" fill="#257ced" /><rect width="10" height="10" x="100" y="150" fill="#068940" /><rect width="20" height="10" x="110" y="150" fill="#ffffff" /><rect width="20" height="10" x="130" y="150" fill="#000000" /><rect width="10" height="10" x="150" y="150" fill="#068940" /><rect width="10" height="10" x="170" y="150" fill="#257ced" /><rect width="20" height="10" x="180" y="150" fill="#ffffff" /><rect width="20" height="10" x="200" y="150" fill="#000000" /><rect width="10" height="10" x="220" y="150" fill="#257ced" /><rect width="60" height="10" x="100" y="160" fill="#068940" /><rect width="60" height="10" x="170" y="160" fill="#257ced" /></svg>