<svg width="320" height="320" viewBox="0 0 320 320" xmlns="http://www.w3.org/2000/svg" shape-rendering="crispEdges"><rect width="100%" height="100%" fill="#e1d7d5" /><rect width="140" height="10" x="90" y="210" fill="#63a0f9" /><rect width="140" height="10" x="90" y="220" fill="#63a0f9" /><rect width="140" height="10" x="90" y="230" fill="#63a0f9" /><rect width="140" height="10" x="90" y="240" fill="#63a0f9" /><rect width="20" height="10" x="90" y="250" fill="#63a0f9" /><rect width="110" height="10" x="120" y="250" fill="#63a0f9" /><rect width="20" height="10" x="90" y="260" fill="#63a0f9" /><rect width="110" height="10" x="120" y="260" fill="#63a0f9" /><rect width="20" height="10" x="90" y="270" fill="#63a0f9" /><rect width="110" height="10" x="120" y="270" fill="#63a0f9" /><rect width="20" height="10" x="90" y="280" fill="#63a0f9" /><rect width="110" height="10" x="120" y="280" fill="#63a0f9" /><rect width="20" height="10" x="90" y="290" fill="#63a0f9" /><rect width="110" height="10" x="120" y="290" fill="#63a0f9" /><rect width="20" height="10" x="90" y="300" fill="#63a0f9" /><rect width="110" height="10" x="120" y="300" fill="#63a0f9" /><rect width="20" height="10" x="90" y="310" fill="#63a0f9" /><rect width="110" height="10" x="120" y="310" fill="#63a0f9" /><rect width="140" height="10" x="90" y="210" fill="#a3efd0" /><rect width="140" height="10" x="90" y="220" fill="#a3efd0" /><rect width="140" height="10" x="90" y="230" fill="#87e4d9" /><rect width="140" height="10" x="90" y="240" fill="#87e4d9" /><rect width="20" height="10" x="90" y="250" fill="#87e4d9" /><rect width="110" height="10" x="120" y="250" fill="#87e4d9" /><rect width="20" height="10" x="90" y="260" fill="#87e4d9" /><rect width="110" height="10" x="120" y="260" fill="#87e4d9" /><rect width="20" height="10" x="90" y="270" fill="#7cc4f2" /><rect width="110" height="10" x="120" y="270" fill="#7cc4f2" /><rect width="20" height="10" x="90" y="280" fill="#7cc4f2" /><rect width="110" height="10" x="120" y="280" fill="#7cc4f2" /><rect width="20" height="10" x="90" y="290" fill="#7cc4f2" /><rect width="110" height="10" x="120" y="290" fill="#7cc4f2" /><rect width="20" height="10" x="90" y="300" fill="#7cc4f2" /><rect width="110" height="10" x="120" y="300" fill="#7cc4f2" /><rect width="20" height="10" x="90" y="310" fill="#71bde4" /><rect width="110" height="10" x="120" y="310" fill="#71bde4" /><rect width="30" height="10" x="140" y="20" fill="#ffffff" /><rect width="70" height="10" x="120" y="30" fill="#ffffff" /><rect width="10" height="10" x="120" y="40" fill="#ffffff" /><rect width="10" height="10" x="130" y="40" fill="#000000" /><rect width="20" height="10" x="140" y="40" fill="#ffffff" /><rect width="10" height="10" x="160" y="40" fill="#000000" /><rect width="20" height="10" x="170" y="40" fill="#ffffff" /><rect width="60" height="10" x="90" y="50" fill="#ff7216" /><rect width="50" height="10" x="150" y="50" fill="#ffffff" /><rect width="10" height="10" x="240" y="50" fill="#9f4b27" /><rect width="10" height="10" x="260" y="50" fill="#9f4b27" /><rect width="90" height="10" x="110" y="60" fill="#ffffff" /><rect width="20" height="10" x="250" y="60" fill="#9f4b27" /><rect width="10" height="10" x="40" y="70" fill="#9f4b27" /><rect width="10" height="10" x="60" y="70" fill="#9f4b27" /><rect width="20" height="10" x="110" y="70" fill="#ffffff" /><rect width="10" height="10" x="130" y="70" fill="#000000" /><rect width="10" height="10" x="140" y="70" fill="#ffffff" /><rect width="10" height="10" x="150" y="70" fill="#000000" /><rect width="10" height="10" x="160" y="70" fill="#ffffff" /><rect width="10" height="10" x="170" y="70" fill="#000000" /><rect width="20" height="10" x="180" y="70" fill="#ffffff" /><rect width="10" height="10" x="220" y="70" fill="#f3322c" /><rect width="10" height="10" x="260" y="70" fill="#9f4b27" /><rect width="20" height="10" x="50" y="80" fill="#9f4b27" /><rect width="70" height="10" x="120" y="80" fill="#ffffff" /><rect width="10" height="10" x="210" y="80" fill="#f3322c" /><rect width="10" height="10" x="250" y="80" fill="#9f4b27" /><rect width="10" height="10" x="60" y="90" fill="#9f4b27" /><rect width="10" height="10" x="110" y="90" fill="#f9e8dd" /><rect width="10" height="10" x="120" y="90" fill="#f3322c" /><rect width="10" height="10" x="130" y="90" fill="#f9e8dd" /><rect width="10" height="10" x="140" y="90" fill="#f3322c" /><rect width="10" height="10" x="150" y="90" fill="#f9e8dd" /><rect width="10" height="10" x="160" y="90" fill="#f3322c" /><rect width="10" height="10" x="170" y="90" fill="#f9e8dd" /><rect width="10" height="10" x="180" y="90" fill="#f3322c" /><rect width="10" height="10" x="190" y="90" fill="#f9e8dd" /><rect width="10" height="10" x="200" y="90" fill="#f3322c" /><rect width="20" height="10" x="210" y="90" fill="#f9e8dd" /><rect width="10" height="10" x="250" y="90" fill="#9f4b27" /><rect width="10" height="10" x="60" y="100" fill="#9f4b27" /><rect width="10" height="10" x="110" y="100" fill="#f9e8dd" /><rect width="10" height="10" x="120" y="100" fill="#f3322c" /><rect width="10" height="10" x="130" y="100" fill="#f9e8dd" /><rect width="10" height="10" x="140" y="100" fill="#f3322c" /><rect width="10" height="10" x="150" y="100" fill="#f9e8dd" /><rect width="10" height="10" x="160" y="100" fill="#f3322c" /><rect width="10" height="10" x="170" y="100" fill="#f9e8dd" /><rect width="10" height="10" x="180" y="100" fill="#f3322c" /><rect width="10" height="10" x="190" y="100" fill="#f9e8dd" /><rect width="10" height="10" x="200" y="100" fill="#f3322c" /><rect width="10" height="10" x="240" y="100" fill="#9f4b27" /><rect width="20" height="10" x="70" y="110" fill="#9f4b27" /><rect width="130" height="10" x="100" y="110" fill="#ffffff" /><rect width="10" height="10" x="240" y="110" fill="#9f4b27" /><rect width="150" height="10" x="90" y="120" fill="#ffffff" /><rect width="10" height="10" x="240" y="120" fill="#9f4b27" /><rect width="160" height="10" x="90" y="130" fill="#ffffff" /><rect width="170" height="10" x="80" y="140" fill="#ffffff" /><rect width="180" height="10" x="80" y="150" fill="#ffffff" /><rect width="180" height="10" x="80" y="160" fill="#ffffff" /><rect width="180" height="10" x="80" y="170" fill="#ffffff" /><rect width="20" height="10" x="80" y="180" fill="#ffffff" /><rect width="10" height="10" x="100" y="180" fill="#7cc4f2" /><rect width="50" height="10" x="110" y="180" fill="#ffffff" /><rect width="40" height="10" x="160" y="180" fill="#7cc4f2" /><rect width="50" height="10" x="200" y="180" fill="#ffffff" /><rect width="20" height="10" x="90" y="190" fill="#ffffff" /><rect width="10" height="10" x="110" y="190" fill="#7cc4f2" /><rect width="100" height="10" x="120" y="190" fill="#ffffff" /><rect width="10" height="10" x="220" y="190" fill="#7cc4f2" /><rect width="10" height="10" x="230" y="190" fill="#ffffff" /><rect width="10" height="10" x="240" y="190" fill="#7cc4f2" /><rect width="70" height="10" x="90" y="200" fill="#7cc4f2" /><rect width="50" height="10" x="160" y="200" fill="#ffffff" /><rect width="40" height="10" x="210" y="200" fill="#7cc4f2" /><rect width="10" height="10" x="230" y="210" fill="#7cc4f2" /><rect width="10" height="10" x="230" y="220" fill="#7cc4f2" /><rect width="60" height="10" x="100" y="110" fill="#e8705b" /><rect width="60" height="10" x="170" y="110" fill="#e8705b" /><rect width="10" height="10" x="100" y="120" fill="#e8705b" /><rect width="20" height="10" x="110" y="120" fill="#ffffff" /><rect width="20" height="10" x="130" y="120" fill="#000000" /><rect width="10" height="10" x="150" y="120" fill="#e8705b" /><rect width="10" height="10" x="170" y="120" fill="#e8705b" /><rect width="20" height="10" x="180" y="120" fill="#ffffff" /><rect width="20" height="10" x="200" y="120" fill="#000000" /><rect width="10" height="10" x="220" y="120" fill="#e8705b" /><rect width="40" height="10" x="70" y="130" fill="#e8705b" /><rect width="20" height="10" x="110" y="130" fill="#ffffff" /><rect width="20" height="10" x="130" y="130" fill="#000000" /><rect width="30" height="10" x="150" y="130" fill="#e8705b" /><rect width="20" height="10" x="180" y="130" fill="#ffffff" /><rect width="20" height="10" x="200" y="130" fill="#000000" /><rect width="10" height="10" x="220" y="130" fill="#e8705b" /><rect width="10" height="10" x="70" y="140" fill="#e8705b" /><rect width="10" height="10" x="100" y="140" fill="#e8705b" /><rect width="20" height="10" x="110" y="140" fill="#ffffff" /><rect width="20" height="10" x="130" y="140" fill="#000000" /><rect width="10" height="10" x="150" y="140" fill="#e8705b" /><rect width="10" height="10" x="170" y="140" fill="#e8705b" /><rect width="20" height="10" x="180" y="140" fill="#ffffff" /><rect width="20" height="10" x="200" y="140" fill="#000000" /><rect width="10" height="10" x="220" y="140" fill="#e8705b" /><rect width="10" height="10" x="70" y="150" fill="#e8705b" /><rect width="10" height="10" x="100" y="150" fill="#e8705b" /><rect width="20" height="10" x="110" y="150" fill="#ffffff" /><rect width="20" height="10" x="130" y="150" fill="#000000" /><rect width="10" height="10" x="150" y="150" fill="#e8705b" /><rect width="10" height="10" x="170" y="150" fill="#e8705b" /><rect width="20" height="10" x="180" y="150" fill="#ffffff" /><rect width="20" height="10" x="200" y="150" fill="#000000" /><rect width="10" height="10" x="220" y="150" fill="#e8705b" /><rect width="60" height="10" x="100" y="160" fill="#e8705b" /><rect width="60" height="10" x="170" y="160" fill="#e8705b" /></svg>