<svg xmlns:xlink="http://www.w3.org/1999/xlink" width="320" height="320" viewBox="0 0 320 320" xmlns="http://www.w3.org/2000/svg" shape-rendering="crispEdges"><rect width="100%" height="100%" fill="#d5d7e1" /><rect width="140" height="10" x="90" y="210" fill="#63a0f9" /><rect width="140" height="10" x="90" y="220" fill="#63a0f9" /><rect width="140" height="10" x="90" y="230" fill="#63a0f9" /><rect width="140" height="10" x="90" y="240" fill="#63a0f9" /><rect width="20" height="10" x="90" y="250" fill="#63a0f9" /><rect width="110" height="10" x="120" y="250" fill="#63a0f9" /><rect width="20" height="10" x="90" y="260" fill="#63a0f9" /><rect width="110" height="10" x="120" y="260" fill="#63a0f9" /><rect width="20" height="10" x="90" y="270" fill="#63a0f9" /><rect width="110" height="10" x="120" y="270" fill="#63a0f9" /><rect width="20" height="10" x="90" y="280" fill="#63a0f9" /><rect width="110" height="10" x="120" y="280" fill="#63a0f9" /><rect width="20" height="10" x="90" y="290" fill="#63a0f9" /><rect width="110" height="10" x="120" y="290" fill="#63a0f9" /><rect width="20" height="10" x="90" y="300" fill="#63a0f9" /><rect width="110" height="10" x="120" y="300" fill="#63a0f9" /><rect width="20" height="10" x="90" y="310" fill="#63a0f9" /><rect width="110" height="10" x="120" y="310" fill="#63a0f9" /><rect width="10" height="10" x="180" y="240" fill="#fff0ee" /><rect width="30" height="10" x="140" y="250" fill="#fff0ee" /><rect width="10" height="10" x="170" y="250" fill="#000000" /><rect width="10" height="10" x="180" y="250" fill="#fff0ee" /><rect width="10" height="10" x="190" y="250" fill="#f38b7c" /><rect width="10" height="10" x="130" y="260" fill="#fff0ee" /><rect width="10" height="10" x="150" y="260" fill="#fff0ee" /><rect width="10" height="10" x="160" y="260" fill="#000000" /><rect width="20" height="10" x="170" y="260" fill="#fff0ee" /><rect width="10" height="10" x="130" y="270" fill="#fff0ee" /><rect width="10" height="10" x="150" y="270" fill="#fff0ee" /><rect width="20" height="10" x="160" y="270" fill="#f38b7c" /><rect width="10" height="10" x="180" y="270" fill="#fff0ee" /><rect width="10" height="10" x="150" y="280" fill="#fff0ee" /><rect width="10" height="10" x="180" y="280" fill="#fff0ee" /><rect width="60" height="10" x="130" y="30" fill="#2b83f6" /><rect width="100" height="10" x="110" y="40" fill="#2b83f6" /><rect width="30" height="10" x="90" y="50" fill="#2b83f6" /><rect width="10" height="10" x="120" y="50" fill="#4bea69" /><rect width="50" height="10" x="130" y="50" fill="#2b83f6" /><rect width="10" height="10" x="180" y="50" fill="#4bea69" /><rect width="20" height="10" x="190" y="50" fill="#2b83f6" /><rect width="20" height="10" x="210" y="50" fill="#4bea69" /><rect width="20" height="10" x="80" y="60" fill="#2b83f6" /><rect width="30" height="10" x="100" y="60" fill="#4bea69" /><rect width="50" height="10" x="130" y="60" fill="#2b83f6" /><rect width="60" height="10" x="180" y="60" fill="#4bea69" /><rect width="20" height="10" x="80" y="70" fill="#2b83f6" /><rect width="20" height="10" x="100" y="70" fill="#4bea69" /><rect width="50" height="10" x="120" y="70" fill="#2b83f6" /><rect width="70" height="10" x="170" y="70" fill="#4bea69" /><rect width="10" height="10" x="70" y="80" fill="#4bea69" /><rect width="20" height="10" x="80" y="80" fill="#2b83f6" /><rect width="30" height="10" x="100" y="80" fill="#4bea69" /><rect width="30" height="10" x="130" y="80" fill="#2b83f6" /><rect width="90" height="10" x="160" y="80" fill="#4bea69" /><rect width="20" height="10" x="70" y="90" fill="#4bea69" /><rect width="20" height="10" x="90" y="90" fill="#2b83f6" /><rect width="10" height="10" x="110" y="90" fill="#4bea69" /><rect width="40" height="10" x="120" y="90" fill="#2b83f6" /><rect width="90" height="10" x="160" y="90" fill="#4bea69" /><rect width="30" height="10" x="60" y="100" fill="#4bea69" /><rect width="80" height="10" x="90" y="100" fill="#2b83f6" /><rect width="90" height="10" x="170" y="100" fill="#4bea69" /><rect width="30" height="10" x="60" y="110" fill="#4bea69" /><rect width="130" height="10" x="90" y="110" fill="#2b83f6" /><rect width="40" height="10" x="220" y="110" fill="#4bea69" /><rect width="40" height="10" x="60" y="120" fill="#4bea69" /><rect width="70" height="10" x="100" y="120" fill="#2b83f6" /><rect width="90" height="10" x="170" y="120" fill="#4bea69" /><rect width="50" height="10" x="60" y="130" fill="#4bea69" /><rect width="50" height="10" x="110" y="130" fill="#2b83f6" /><rect width="90" height="10" x="160" y="130" fill="#4bea69" /><rect width="10" height="10" x="250" y="130" fill="#2b83f6" /><rect width="60" height="10" x="60" y="140" fill="#4bea69" /><rect width="40" height="10" x="120" y="140" fill="#2b83f6" /><rect width="80" height="10" x="160" y="140" fill="#4bea69" /><rect width="20" height="10" x="240" y="140" fill="#2b83f6" /><rect width="60" height="10" x="60" y="150" fill="#4bea69" /><rect width="40" height="10" x="120" y="150" fill="#2b83f6" /><rect width="70" height="10" x="160" y="150" fill="#4bea69" /><rect width="30" height="10" x="230" y="150" fill="#2b83f6" /><rect width="30" height="10" x="70" y="160" fill="#4bea69" /><rect width="60" height="10" x="100" y="160" fill="#2b83f6" /><rect width="70" height="10" x="160" y="160" fill="#4bea69" /><rect width="20" height="10" x="230" y="160" fill="#2b83f6" /><rect width="20" height="10" x="70" y="170" fill="#4bea69" /><rect width="80" height="10" x="90" y="170" fill="#2b83f6" /><rect width="40" height="10" x="170" y="170" fill="#4bea69" /><rect width="40" height="10" x="210" y="170" fill="#2b83f6" /><rect width="10" height="10" x="80" y="180" fill="#4bea69" /><rect width="90" height="10" x="90" y="180" fill="#2b83f6" /><rect width="40" height="10" x="180" y="180" fill="#4bea69" /><rect width="20" height="10" x="220" y="180" fill="#2b83f6" /><rect width="10" height="10" x="80" y="190" fill="#4bea69" /><rect width="40" height="10" x="90" y="190" fill="#2b83f6" /><rect width="80" height="10" x="130" y="190" fill="#4bea69" /><rect width="30" height="10" x="210" y="190" fill="#2b83f6" /><rect width="140" height="10" x="90" y="200" fill="#2b83f6" /><rect width="100" height="10" x="110" y="210" fill="#2b83f6" /><rect width="60" height="10" x="130" y="220" fill="#2b83f6" /><rect width="60" height="10" x="100" y="110" fill="#ffef16" /><rect width="60" height="10" x="170" y="110" fill="#ffef16" /><rect width="10" height="10" x="100" y="120" fill="#ffef16" /><rect width="20" height="10" x="110" y="120" fill="#ffffff" /><rect width="20" height="10" x="130" y="120" fill="#000000" /><rect width="10" height="10" x="150" y="120" fill="#ffef16" /><rect width="10" height="10" x="170" y="120" fill="#ffef16" /><rect width="20" height="10" x="180" y="120" fill="#ffffff" /><rect width="20" height="10" x="200" y="120" fill="#000000" /><rect width="10" height="10" x="220" y="120" fill="#ffef16" /><rect width="40" height="10" x="70" y="130" fill="#ffef16" /><rect width="20" height="10" x="110" y="130" fill="#ffffff" /><rect width="20" height="10" x="130" y="130" fill="#000000" /><rect width="30" height="10" x="150" y="130" fill="#ffef16" /><rect width="20" height="10" x="180" y="130" fill="#ffffff" /><rect width="20" height="10" x="200" y="130" fill="#000000" /><rect width="10" height="10" x="220" y="130" fill="#ffef16" /><rect width="10" height="10" x="70" y="140" fill="#ffef16" /><rect width="10" height="10" x="100" y="140" fill="#ffef16" /><rect width="20" height="10" x="110" y="140" fill="#ffffff" /><rect width="20" height="10" x="130" y="140" fill="#000000" /><rect width="10" height="10" x="150" y="140" fill="#ffef16" /><rect width="10" height="10" x="170" y="140" fill="#ffef16" /><rect width="20" height="10" x="180" y="140" fill="#ffffff" /><rect width="20" height="10" x="200" y="140" fill="#000000" /><rect width="10" height="10" x="220" y="140" fill="#ffef16" /><rect width="10" height="10" x="70" y="150" fill="#ffef16" /><rect width="10" height="10" x="100" y="150" fill="#ffef16" /><rect width="20" height="10" x="110" y="150" fill="#ffffff" /><rect width="20" height="10" x="130" y="150" fill="#000000" /><rect width="10" height="10" x="150" y="150" fill="#ffef16" /><rect width="10" height="10" x="170" y="150" fill="#ffef16" /><rect width="20" height="10" x="180" y="150" fill="#ffffff" /><rect width="20" height="10" x="200" y="150" fill="#000000" /><rect width="10" height="10" x="220" y="150" fill="#ffef16" /><rect width="60" height="10" x="100" y="160" fill="#ffef16" /><rect width="60" height="10" x="170" y="160" fill="#ffef16" /></svg>