<svg xmlns:xlink="http://www.w3.org/1999/xlink" width="320" height="320" viewBox="0 0 320 320" xmlns="http://www.w3.org/2000/svg" shape-rendering="crispEdges"><rect width="100%" height="100%" fill="#d5d7e1" /><rect width="140" height="10" x="90" y="210" fill="#5648ed" /><rect width="140" height="10" x="90" y="220" fill="#5648ed" /><rect width="140" height="10" x="90" y="230" fill="#5648ed" /><rect width="140" height="10" x="90" y="240" fill="#5648ed" /><rect width="20" height="10" x="90" y="250" fill="#5648ed" /><rect width="110" height="10" x="120" y="250" fill="#5648ed" /><rect width="20" height="10" x="90" y="260" fill="#5648ed" /><rect width="110" height="10" x="120" y="260" fill="#5648ed" /><rect width="20" height="10" x="90" y="270" fill="#5648ed" /><rect width="110" height="10" x="120" y="270" fill="#5648ed" /><rect width="20" height="10" x="90" y="280" fill="#5648ed" /><rect width="110" height="10" x="120" y="280" fill="#5648ed" /><rect width="20" height="10" x="90" y="290" fill="#5648ed" /><rect width="110" height="10" x="120" y="290" fill="#5648ed" /><rect width="20" height="10" x="90" y="300" fill="#5648ed" /><rect width="110" height="10" x="120" y="300" fill="#5648ed" /><rect width="20" height="10" x="90" y="310" fill="#5648ed" /><rect width="110" height="10" x="120" y="310" fill="#5648ed" /><rect width="10" height="10" x="140" y="230" fill="#4b65f7" /><rect width="10" height="10" x="170" y="230" fill="#4b65f7" /><rect width="20" height="10" x="130" y="240" fill="#4b65f7" /><rect width="10" height="10" x="160" y="240" fill="#4b65f7" /><rect width="10" height="10" x="180" y="240" fill="#4b65f7" /><rect width="20" height="10" x="130" y="250" fill="#4b65f7" /><rect width="10" height="10" x="170" y="250" fill="#4b65f7" /><rect width="20" height="10" x="130" y="270" fill="#4b65f7" /><rect width="10" height="10" x="160" y="270" fill="#4b65f7" /><rect width="20" height="10" x="130" y="280" fill="#4b65f7" /><rect width="20" height="10" x="160" y="280" fill="#4b65f7" /><rect width="10" height="10" x="130" y="290" fill="#4b65f7" /><rect width="30" height="10" x="160" y="290" fill="#4b65f7" /><rect width="180" height="10" x="80" y="50" fill="#cfc2ab" /><rect width="180" height="10" x="80" y="60" fill="#cfc2ab" /><rect width="10" height="10" x="80" y="70" fill="#cfc2ab" /><rect width="40" height="10" x="90" y="70" fill="#f8ddb0" /><rect width="10" height="10" x="130" y="70" fill="#cfc2ab" /><rect width="30" height="10" x="140" y="70" fill="#f8ddb0" /><rect width="10" height="10" x="170" y="70" fill="#cfc2ab" /><rect width="70" height="10" x="180" y="70" fill="#5648ed" /><rect width="10" height="10" x="250" y="70" fill="#cfc2ab" /><rect width="60" height="10" x="80" y="80" fill="#cfc2ab" /><rect width="30" height="10" x="140" y="80" fill="#f8ddb0" /><rect width="10" height="10" x="170" y="80" fill="#cfc2ab" /><rect width="70" height="10" x="180" y="80" fill="#5648ed" /><rect width="10" height="10" x="250" y="80" fill="#cfc2ab" /><rect width="10" height="10" x="80" y="90" fill="#cfc2ab" /><rect width="40" height="10" x="90" y="90" fill="#f8ddb0" /><rect width="130" height="10" x="130" y="90" fill="#cfc2ab" /><rect width="60" height="10" x="80" y="100" fill="#cfc2ab" /><rect width="30" height="10" x="140" y="100" fill="#f8ddb0" /><rect width="10" height="10" x="170" y="100" fill="#cfc2ab" /><rect width="30" height="10" x="180" y="100" fill="#f8ddb0" /><rect width="10" height="10" x="210" y="100" fill="#cfc2ab" /><rect width="30" height="10" x="220" y="100" fill="#f8ddb0" /><rect width="10" height="10" x="250" y="100" fill="#cfc2ab" /><rect width="10" height="10" x="80" y="110" fill="#cfc2ab" /><rect width="40" height="10" x="90" y="110" fill="#f8ddb0" /><rect width="130" height="10" x="130" y="110" fill="#cfc2ab" /><rect width="60" height="10" x="80" y="120" fill="#cfc2ab" /><rect width="30" height="10" x="140" y="120" fill="#f8ddb0" /><rect width="10" height="10" x="170" y="120" fill="#cfc2ab" /><rect width="30" height="10" x="180" y="120" fill="#f8ddb0" /><rect width="10" height="10" x="210" y="120" fill="#cfc2ab" /><rect width="30" height="10" x="220" y="120" fill="#f8ddb0" /><rect width="10" height="10" x="250" y="120" fill="#cfc2ab" /><rect width="10" height="10" x="80" y="130" fill="#cfc2ab" /><rect width="40" height="10" x="90" y="130" fill="#d22209" /><rect width="130" height="10" x="130" y="130" fill="#cfc2ab" /><rect width="10" height="10" x="80" y="140" fill="#cfc2ab" /><rect width="40" height="10" x="90" y="140" fill="#d22209" /><rect width="10" height="10" x="130" y="140" fill="#cfc2ab" /><rect width="30" height="10" x="140" y="140" fill="#f8ddb0" /><rect width="10" height="10" x="170" y="140" fill="#cfc2ab" /><rect width="30" height="10" x="180" y="140" fill="#f8ddb0" /><rect width="10" height="10" x="210" y="140" fill="#cfc2ab" /><rect width="30" height="10" x="220" y="140" fill="#f8ddb0" /><rect width="10" height="10" x="250" y="140" fill="#cfc2ab" /><rect width="180" height="10" x="80" y="150" fill="#cfc2ab" /><rect width="10" height="10" x="80" y="160" fill="#cfc2ab" /><rect width="160" height="10" x="90" y="160" fill="#0b5027" /><rect width="10" height="10" x="250" y="160" fill="#cfc2ab" /><rect width="20" height="10" x="60" y="170" fill="#5a423f" /><rect width="10" height="10" x="80" y="170" fill="#cfc2ab" /><rect width="10" height="10" x="90" y="170" fill="#0b5027" /><rect width="10" height="10" x="100" y="170" fill="#42ffb0" /><rect width="30" height="10" x="110" y="170" fill="#0b5027" /><rect width="10" height="10" x="140" y="170" fill="#42ffb0" /><rect width="30" height="10" x="150" y="170" fill="#0b5027" /><rect width="10" height="10" x="180" y="170" fill="#42ffb0" /><rect width="10" height="10" x="190" y="170" fill="#0b5027" /><rect width="10" height="10" x="200" y="170" fill="#42ffb0" /><rect width="10" height="10" x="210" y="170" fill="#0b5027" /><rect width="20" height="10" x="220" y="170" fill="#42ffb0" /><rect width="10" height="10" x="240" y="170" fill="#0b5027" /><rect width="10" height="10" x="250" y="170" fill="#cfc2ab" /><rect width="20" height="10" x="60" y="180" fill="#5a423f" /><rect width="10" height="10" x="80" y="180" fill="#cfc2ab" /><rect width="10" height="10" x="90" y="180" fill="#0b5027" /><rect width="30" height="10" x="100" y="180" fill="#42ffb0" /><rect width="10" height="10" x="130" y="180" fill="#0b5027" /><rect width="20" height="10" x="140" y="180" fill="#42ffb0" /><rect width="20" height="10" x="160" y="180" fill="#0b5027" /><rect width="10" height="10" x="180" y="180" fill="#42ffb0" /><rect width="10" height="10" x="190" y="180" fill="#0b5027" /><rect width="10" height="10" x="200" y="180" fill="#42ffb0" /><rect width="10" height="10" x="210" y="180" fill="#0b5027" /><rect width="20" height="10" x="220" y="180" fill="#42ffb0" /><rect width="10" height="10" x="240" y="180" fill="#0b5027" /><rect width="10" height="10" x="250" y="180" fill="#cfc2ab" /><rect width="20" height="10" x="60" y="190" fill="#5a423f" /><rect width="10" height="10" x="80" y="190" fill="#cfc2ab" /><rect width="10" height="10" x="90" y="190" fill="#0b5027" /><rect width="10" height="10" x="100" y="190" fill="#42ffb0" /><rect width="10" height="10" x="110" y="190" fill="#0b5027" /><rect width="10" height="10" x="120" y="190" fill="#42ffb0" /><rect width="10" height="10" x="130" y="190" fill="#0b5027" /><rect width="30" height="10" x="140" y="190" fill="#42ffb0" /><rect width="10" height="10" x="170" y="190" fill="#0b5027" /><rect width="10" height="10" x="180" y="190" fill="#42ffb0" /><rect width="10" height="10" x="190" y="190" fill="#0b5027" /><rect width="10" height="10" x="200" y="190" fill="#42ffb0" /><rect width="10" height="10" x="210" y="190" fill="#0b5027" /><rect width="20" height="10" x="220" y="190" fill="#42ffb0" /><rect width="10" height="10" x="240" y="190" fill="#0b5027" /><rect width="10" height="10" x="250" y="190" fill="#cfc2ab" /><rect width="20" height="10" x="60" y="200" fill="#5a423f" /><rect width="10" height="10" x="80" y="200" fill="#cfc2ab" /><rect width="160" height="10" x="90" y="200" fill="#0b5027" /><rect width="10" height="10" x="250" y="200" fill="#cfc2ab" /><rect width="10" height="10" x="80" y="210" fill="#cfc2ab" /><rect width="160" height="10" x="90" y="210" fill="#d56333" /><rect width="10" height="10" x="250" y="210" fill="#cfc2ab" /><rect width="180" height="10" x="80" y="220" fill="#cfc2ab" /><rect width="60" height="10" x="100" y="110" fill="#ec5b43" /><rect width="60" height="10" x="170" y="110" fill="#ec5b43" /><rect width="10" height="10" x="100" y="120" fill="#ec5b43" /><rect width="20" height="10" x="110" y="120" fill="#ffffff" /><rect width="20" height="10" x="130" y="120" fill="#000000" /><rect width="10" height="10" x="150" y="120" fill="#ec5b43" /><rect width="10" height="10" x="170" y="120" fill="#ec5b43" /><rect width="20" height="10" x="180" y="120" fill="#ffffff" /><rect width="20" height="10" x="200" y="120" fill="#000000" /><rect width="10" height="10" x="220" y="120" fill="#ec5b43" /><rect width="40" height="10" x="70" y="130" fill="#ec5b43" /><rect width="20" height="10" x="110" y="130" fill="#ffffff" /><rect width="20" height="10" x="130" y="130" fill="#000000" /><rect width="30" height="10" x="150" y="130" fill="#ec5b43" /><rect width="20" height="10" x="180" y="130" fill="#ffffff" /><rect width="20" height="10" x="200" y="130" fill="#000000" /><rect width="10" height="10" x="220" y="130" fill="#ec5b43" /><rect width="10" height="10" x="70" y="140" fill="#ec5b43" /><rect width="10" height="10" x="100" y="140" fill="#ec5b43" /><rect width="20" height="10" x="110" y="140" fill="#ffffff" /><rect width="20" height="10" x="130" y="140" fill="#000000" /><rect width="10" height="10" x="150" y="140" fill="#ec5b43" /><rect width="10" height="10" x="170" y="140" fill="#ec5b43" /><rect width="20" height="10" x="180" y="140" fill="#ffffff" /><rect width="20" height="10" x="200" y="140" fill="#000000" /><rect width="10" height="10" x="220" y="140" fill="#ec5b43" /><rect width="10" height="10" x="70" y="150" fill="#ec5b43" /><rect width="10" height="10" x="100" y="150" fill="#ec5b43" /><rect width="20" height="10" x="110" y="150" fill="#ffffff" /><rect width="20" height="10" x="130" y="150" fill="#000000" /><rect width="10" height="10" x="150" y="150" fill="#ec5b43" /><rect width="10" height="10" x="170" y="150" fill="#ec5b43" /><rect width="20" height="10" x="180" y="150" fill="#ffffff" /><rect width="20" height="10" x="200" y="150" fill="#000000" /><rect width="10" height="10" x="220" y="150" fill="#ec5b43" /><rect width="60" height="10" x="100" y="160" fill="#ec5b43" /><rect width="60" height="10" x="170" y="160" fill="#ec5b43" /></svg>