<svg xmlns:xlink="http://www.w3.org/1999/xlink" width="320" height="320" viewBox="0 0 320 320" xmlns="http://www.w3.org/2000/svg" shape-rendering="crispEdges"><rect width="100%" height="100%" fill="#d5d7e1" /><rect width="140" height="10" x="90" y="210" fill="#e9265c" /><rect width="140" height="10" x="90" y="220" fill="#e9265c" /><rect width="140" height="10" x="90" y="230" fill="#e9265c" /><rect width="140" height="10" x="90" y="240" fill="#e9265c" /><rect width="20" height="10" x="90" y="250" fill="#e9265c" /><rect width="110" height="10" x="120" y="250" fill="#e9265c" /><rect width="20" height="10" x="90" y="260" fill="#e9265c" /><rect width="110" height="10" x="120" y="260" fill="#e9265c" /><rect width="20" height="10" x="90" y="270" fill="#e9265c" /><rect width="110" height="10" x="120" y="270" fill="#e9265c" /><rect width="20" height="10" x="90" y="280" fill="#e9265c" /><rect width="110" height="10" x="120" y="280" fill="#e9265c" /><rect width="20" height="10" x="90" y="290" fill="#e9265c" /><rect width="110" height="10" x="120" y="290" fill="#e9265c" /><rect width="20" height="10" x="90" y="300" fill="#e9265c" /><rect width="110" height="10" x="120" y="300" fill="#e9265c" /><rect width="20" height="10" x="90" y="310" fill="#e9265c" /><rect width="110" height="10" x="120" y="310" fill="#e9265c" /><rect width="30" height="10" x="200" y="230" fill="#9f21a0" /><rect width="40" height="10" x="160" y="240" fill="#d22209" /><rect width="30" height="10" x="200" y="240" fill="#9f21a0" /><rect width="40" height="10" x="120" y="250" fill="#fe500c" /><rect width="40" height="10" x="160" y="250" fill="#d22209" /><rect width="30" height="10" x="200" y="250" fill="#9f21a0" /><rect width="20" height="10" x="90" y="260" fill="#ffc925" /><rect width="40" height="10" x="120" y="260" fill="#fe500c" /><rect width="40" height="10" x="160" y="260" fill="#d22209" /><rect width="20" height="10" x="90" y="270" fill="#ffc925" /><rect width="40" height="10" x="120" y="270" fill="#fe500c" /><rect width="20" height="10" x="90" y="280" fill="#ffc925" /><rect width="220" height="10" x="50" y="50" fill="#2b2834" /><rect width="20" height="10" x="60" y="60" fill="#2b2834" /><rect width="20" height="10" x="90" y="60" fill="#2b2834" /><rect width="20" height="10" x="120" y="60" fill="#2b2834" /><rect width="20" height="10" x="150" y="60" fill="#2b2834" /><rect width="20" height="10" x="180" y="60" fill="#2b2834" /><rect width="20" height="10" x="210" y="60" fill="#2b2834" /><rect width="20" height="10" x="240" y="60" fill="#2b2834" /><rect width="220" height="10" x="50" y="70" fill="#2b2834" /><rect width="20" height="10" x="50" y="80" fill="#0079fc" /><rect width="10" height="10" x="70" y="80" fill="#2b2834" /><rect width="160" height="10" x="80" y="80" fill="#0079fc" /><rect width="10" height="10" x="240" y="80" fill="#2b2834" /><rect width="20" height="10" x="250" y="80" fill="#0079fc" /><rect width="20" height="10" x="50" y="90" fill="#0079fc" /><rect width="10" height="10" x="70" y="90" fill="#2b2834" /><rect width="160" height="10" x="80" y="90" fill="#0079fc" /><rect width="10" height="10" x="240" y="90" fill="#2b2834" /><rect width="20" height="10" x="250" y="90" fill="#0079fc" /><rect width="20" height="10" x="50" y="100" fill="#0079fc" /><rect width="10" height="10" x="70" y="100" fill="#2b2834" /><rect width="160" height="10" x="80" y="100" fill="#0079fc" /><rect width="10" height="10" x="240" y="100" fill="#2b2834" /><rect width="20" height="10" x="250" y="100" fill="#0079fc" /><rect width="20" height="10" x="50" y="110" fill="#0079fc" /><rect width="10" height="10" x="70" y="110" fill="#2b2834" /><rect width="160" height="10" x="80" y="110" fill="#0079fc" /><rect width="10" height="10" x="240" y="110" fill="#2b2834" /><rect width="20" height="10" x="250" y="110" fill="#0079fc" /><rect width="10" height="10" x="50" y="120" fill="#0079fc" /><rect width="10" height="10" x="60" y="120" fill="#027ee6" /><rect width="10" height="10" x="70" y="120" fill="#2b2834" /><rect width="160" height="10" x="80" y="120" fill="#0079fc" /><rect width="10" height="10" x="240" y="120" fill="#2b2834" /><rect width="20" height="10" x="250" y="120" fill="#0079fc" /><rect width="20" height="10" x="50" y="130" fill="#0079fc" /><rect width="10" height="10" x="70" y="130" fill="#2b2834" /><rect width="160" height="10" x="80" y="130" fill="#0079fc" /><rect width="10" height="10" x="240" y="130" fill="#2b2834" /><rect width="20" height="10" x="250" y="130" fill="#0079fc" /><rect width="20" height="10" x="50" y="140" fill="#0079fc" /><rect width="10" height="10" x="70" y="140" fill="#2b2834" /><rect width="160" height="10" x="80" y="140" fill="#0079fc" /><rect width="10" height="10" x="240" y="140" fill="#2b2834" /><rect width="20" height="10" x="250" y="140" fill="#0079fc" /><rect width="20" height="10" x="50" y="150" fill="#0079fc" /><rect width="10" height="10" x="70" y="150" fill="#2b2834" /><rect width="160" height="10" x="80" y="150" fill="#0079fc" /><rect width="10" height="10" x="240" y="150" fill="#2b2834" /><rect width="20" height="10" x="250" y="150" fill="#0079fc" /><rect width="20" height="10" x="50" y="160" fill="#0079fc" /><rect width="10" height="10" x="70" y="160" fill="#2b2834" /><rect width="160" height="10" x="80" y="160" fill="#0079fc" /><rect width="10" height="10" x="240" y="160" fill="#2b2834" /><rect width="20" height="10" x="250" y="160" fill="#0079fc" /><rect width="20" height="10" x="50" y="170" fill="#0079fc" /><rect width="10" height="10" x="70" y="170" fill="#2b2834" /><rect width="160" height="10" x="80" y="170" fill="#0079fc" /><rect width="10" height="10" x="240" y="170" fill="#2b2834" /><rect width="20" height="10" x="250" y="170" fill="#0079fc" /><rect width="220" height="10" x="50" y="180" fill="#2b2834" /><rect width="20" height="10" x="60" y="190" fill="#2b2834" /><rect width="20" height="10" x="90" y="190" fill="#2b2834" /><rect width="20" height="10" x="120" y="190" fill="#2b2834" /><rect width="20" height="10" x="150" y="190" fill="#2b2834" /><rect width="20" height="10" x="180" y="190" fill="#2b2834" /><rect width="20" height="10" x="210" y="190" fill="#2b2834" /><rect width="20" height="10" x="240" y="190" fill="#2b2834" /><rect width="220" height="10" x="50" y="200" fill="#2b2834" /><rect width="60" height="10" x="100" y="110" fill="#000000" /><rect width="60" height="10" x="170" y="110" fill="#000000" /><rect width="30" height="10" x="100" y="120" fill="#000000" /><rect width="10" height="10" x="130" y="120" fill="#ff0e0e" /><rect width="20" height="10" x="140" y="120" fill="#000000" /><rect width="30" height="10" x="170" y="120" fill="#000000" /><rect width="10" height="10" x="200" y="120" fill="#ff0e0e" /><rect width="20" height="10" x="210" y="120" fill="#000000" /><rect width="160" height="10" x="70" y="130" fill="#000000" /><rect width="10" height="10" x="70" y="140" fill="#000000" /><rect width="10" height="10" x="100" y="140" fill="#000000" /><rect width="10" height="10" x="110" y="140" fill="#0adc4d" /><rect width="20" height="10" x="120" y="140" fill="#000000" /><rect width="10" height="10" x="140" y="140" fill="#1929f4" /><rect width="10" height="10" x="150" y="140" fill="#000000" /><rect width="10" height="10" x="170" y="140" fill="#000000" /><rect width="10" height="10" x="180" y="140" fill="#0adc4d" /><rect width="20" height="10" x="190" y="140" fill="#000000" /><rect width="10" height="10" x="210" y="140" fill="#1929f4" /><rect width="10" height="10" x="220" y="140" fill="#000000" /><rect width="10" height="10" x="70" y="150" fill="#000000" /><rect width="60" height="10" x="100" y="150" fill="#000000" /><rect width="60" height="10" x="170" y="150" fill="#000000" /><rect width="60" height="10" x="100" y="160" fill="#000000" /><rect width="60" height="10" x="170" y="160" fill="#000000" /></svg>