<svg xmlns:xlink="http://www.w3.org/1999/xlink" width="320" height="320" viewBox="0 0 320 320" xmlns="http://www.w3.org/2000/svg" shape-rendering="crispEdges"><rect width="100%" height="100%" fill="#d5d7e1" /><rect width="140" height="10" x="90" y="210" fill="#343235" /><rect width="140" height="10" x="90" y="220" fill="#343235" /><rect width="140" height="10" x="90" y="230" fill="#343235" /><rect width="140" height="10" x="90" y="240" fill="#343235" /><rect width="20" height="10" x="90" y="250" fill="#343235" /><rect width="110" height="10" x="120" y="250" fill="#343235" /><rect width="20" height="10" x="90" y="260" fill="#343235" /><rect width="110" height="10" x="120" y="260" fill="#343235" /><rect width="20" height="10" x="90" y="270" fill="#343235" /><rect width="110" height="10" x="120" y="270" fill="#343235" /><rect width="20" height="10" x="90" y="280" fill="#343235" /><rect width="110" height="10" x="120" y="280" fill="#343235" /><rect width="20" height="10" x="90" y="290" fill="#343235" /><rect width="110" height="10" x="120" y="290" fill="#343235" /><rect width="20" height="10" x="90" y="300" fill="#343235" /><rect width="110" height="10" x="120" y="300" fill="#343235" /><rect width="20" height="10" x="90" y="310" fill="#343235" /><rect width="110" height="10" x="120" y="310" fill="#343235" /><rect width="20" height="10" x="130" y="230" fill="#ffef16" /><rect width="20" height="10" x="130" y="240" fill="#ffef16" /><rect width="10" height="10" x="130" y="250" fill="#ffef16" /><rect width="20" height="10" x="150" y="250" fill="#ffef16" /><rect width="20" height="10" x="150" y="260" fill="#ffef16" /><rect width="20" height="10" x="170" y="270" fill="#ffef16" /><rect width="20" height="10" x="170" y="280" fill="#ffef16" /><rect width="10" height="10" x="170" y="290" fill="#ffef16" /><rect width="80" height="10" x="120" y="50" fill="#807f7e" /><rect width="30" height="10" x="90" y="60" fill="#807f7e" /><rect width="80" height="10" x="120" y="60" fill="#62616d" /><rect width="30" height="10" x="200" y="60" fill="#807f7e" /><rect width="20" height="10" x="70" y="70" fill="#807f7e" /><rect width="140" height="10" x="90" y="70" fill="#62616d" /><rect width="20" height="10" x="230" y="70" fill="#807f7e" /><rect width="10" height="10" x="60" y="80" fill="#807f7e" /><rect width="180" height="10" x="70" y="80" fill="#62616d" /><rect width="10" height="10" x="250" y="80" fill="#807f7e" /><rect width="10" height="10" x="50" y="90" fill="#807f7e" /><rect width="200" height="10" x="60" y="90" fill="#62616d" /><rect width="10" height="10" x="260" y="90" fill="#807f7e" /><rect width="10" height="10" x="50" y="100" fill="#807f7e" /><rect width="200" height="10" x="60" y="100" fill="#62616d" /><rect width="10" height="10" x="260" y="100" fill="#807f7e" /><rect width="10" height="10" x="50" y="110" fill="#807f7e" /><rect width="200" height="10" x="60" y="110" fill="#62616d" /><rect width="10" height="10" x="260" y="110" fill="#807f7e" /><rect width="10" height="10" x="50" y="120" fill="#343235" /><rect width="10" height="10" x="60" y="120" fill="#807f7e" /><rect width="180" height="10" x="70" y="120" fill="#62616d" /><rect width="10" height="10" x="250" y="120" fill="#807f7e" /><rect width="10" height="10" x="260" y="120" fill="#62616d" /><rect width="20" height="10" x="50" y="130" fill="#343235" /><rect width="20" height="10" x="70" y="130" fill="#807f7e" /><rect width="140" height="10" x="90" y="130" fill="#62616d" /><rect width="20" height="10" x="230" y="130" fill="#807f7e" /><rect width="10" height="10" x="250" y="130" fill="#4b4949" /><rect width="10" height="10" x="260" y="130" fill="#62616d" /><rect width="40" height="10" x="50" y="140" fill="#343235" /><rect width="30" height="10" x="90" y="140" fill="#807f7e" /><rect width="80" height="10" x="120" y="140" fill="#62616d" /><rect width="30" height="10" x="200" y="140" fill="#807f7e" /><rect width="20" height="10" x="230" y="140" fill="#4b4949" /><rect width="20" height="10" x="250" y="140" fill="#62616d" /><rect width="70" height="10" x="50" y="150" fill="#343235" /><rect width="80" height="10" x="120" y="150" fill="#807f7e" /><rect width="60" height="10" x="200" y="150" fill="#4b4949" /><rect width="10" height="10" x="260" y="150" fill="#62616d" /><rect width="40" height="10" x="50" y="160" fill="#343235" /><rect width="30" height="10" x="90" y="160" fill="#4b4949" /><rect width="20" height="10" x="120" y="160" fill="#343235" /><rect width="10" height="10" x="140" y="160" fill="#4b4949" /><rect width="10" height="10" x="150" y="160" fill="#343235" /><rect width="90" height="10" x="160" y="160" fill="#4b4949" /><rect width="20" height="10" x="250" y="160" fill="#62616d" /><rect width="70" height="10" x="50" y="170" fill="#343235" /><rect width="140" height="10" x="120" y="170" fill="#4b4949" /><rect width="10" height="10" x="260" y="170" fill="#62616d" /><rect width="30" height="10" x="60" y="180" fill="#343235" /><rect width="30" height="10" x="90" y="180" fill="#4b4949" /><rect width="20" height="10" x="120" y="180" fill="#343235" /><rect width="110" height="10" x="140" y="180" fill="#4b4949" /><rect width="10" height="10" x="250" y="180" fill="#62616d" /><rect width="50" height="10" x="70" y="190" fill="#343235" /><rect width="30" height="10" x="120" y="190" fill="#4b4949" /><rect width="10" height="10" x="150" y="190" fill="#807f7e" /><rect width="10" height="10" x="160" y="190" fill="#343235" /><rect width="20" height="10" x="170" y="190" fill="#807f7e" /><rect width="10" height="10" x="190" y="190" fill="#343235" /><rect width="50" height="10" x="200" y="190" fill="#4b4949" /><rect width="30" height="10" x="90" y="200" fill="#4b4949" /><rect width="20" height="10" x="120" y="200" fill="#343235" /><rect width="90" height="10" x="140" y="200" fill="#4b4949" /><rect width="80" height="10" x="120" y="210" fill="#4b4949" /><rect width="60" height="10" x="100" y="110" fill="#ec5b43" /><rect width="60" height="10" x="170" y="110" fill="#ec5b43" /><rect width="10" height="10" x="100" y="120" fill="#ec5b43" /><rect width="20" height="10" x="110" y="120" fill="#ffffff" /><rect width="20" height="10" x="130" y="120" fill="#000000" /><rect width="10" height="10" x="150" y="120" fill="#ec5b43" /><rect width="10" height="10" x="170" y="120" fill="#ec5b43" /><rect width="20" height="10" x="180" y="120" fill="#ffffff" /><rect width="20" height="10" x="200" y="120" fill="#000000" /><rect width="10" height="10" x="220" y="120" fill="#ec5b43" /><rect width="40" height="10" x="70" y="130" fill="#ec5b43" /><rect width="20" height="10" x="110" y="130" fill="#ffffff" /><rect width="20" height="10" x="130" y="130" fill="#000000" /><rect width="30" height="10" x="150" y="130" fill="#ec5b43" /><rect width="20" height="10" x="180" y="130" fill="#ffffff" /><rect width="20" height="10" x="200" y="130" fill="#000000" /><rect width="10" height="10" x="220" y="130" fill="#ec5b43" /><rect width="10" height="10" x="70" y="140" fill="#ec5b43" /><rect width="10" height="10" x="100" y="140" fill="#ec5b43" /><rect width="20" height="10" x="110" y="140" fill="#ffffff" /><rect width="20" height="10" x="130" y="140" fill="#000000" /><rect width="10" height="10" x="150" y="140" fill="#ec5b43" /><rect width="10" height="10" x="170" y="140" fill="#ec5b43" /><rect width="20" height="10" x="180" y="140" fill="#ffffff" /><rect width="20" height="10" x="200" y="140" fill="#000000" /><rect width="10" height="10" x="220" y="140" fill="#ec5b43" /><rect width="10" height="10" x="70" y="150" fill="#ec5b43" /><rect width="10" height="10" x="100" y="150" fill="#ec5b43" /><rect width="20" height="10" x="110" y="150" fill="#ffffff" /><rect width="20" height="10" x="130" y="150" fill="#000000" /><rect width="10" height="10" x="150" y="150" fill="#ec5b43" /><rect width="10" height="10" x="170" y="150" fill="#ec5b43" /><rect width="20" height="10" x="180" y="150" fill="#ffffff" /><rect width="20" height="10" x="200" y="150" fill="#000000" /><rect width="10" height="10" x="220" y="150" fill="#ec5b43" /><rect width="60" height="10" x="100" y="160" fill="#ec5b43" /><rect width="60" height="10" x="170" y="160" fill="#ec5b43" /></svg>