<svg xmlns:xlink="http://www.w3.org/1999/xlink" width="320" height="320" viewBox="0 0 320 320" xmlns="http://www.w3.org/2000/svg" shape-rendering="crispEdges"><rect width="100%" height="100%" fill="#e1d7d5" /><rect width="140" height="10" x="90" y="210" fill="#5a65fa" /><rect width="140" height="10" x="90" y="220" fill="#5a65fa" /><rect width="140" height="10" x="90" y="230" fill="#5a65fa" /><rect width="140" height="10" x="90" y="240" fill="#5a65fa" /><rect width="20" height="10" x="90" y="250" fill="#5a65fa" /><rect width="110" height="10" x="120" y="250" fill="#5a65fa" /><rect width="20" height="10" x="90" y="260" fill="#5a65fa" /><rect width="110" height="10" x="120" y="260" fill="#5a65fa" /><rect width="20" height="10" x="90" y="270" fill="#5a65fa" /><rect width="110" height="10" x="120" y="270" fill="#5a65fa" /><rect width="20" height="10" x="90" y="280" fill="#5a65fa" /><rect width="110" height="10" x="120" y="280" fill="#5a65fa" /><rect width="20" height="10" x="90" y="290" fill="#5a65fa" /><rect width="110" height="10" x="120" y="290" fill="#5a65fa" /><rect width="20" height="10" x="90" y="300" fill="#5a65fa" /><rect width="110" height="10" x="120" y="300" fill="#5a65fa" /><rect width="20" height="10" x="90" y="310" fill="#5a65fa" /><rect width="110" height="10" x="120" y="310" fill="#5a65fa" /><rect width="20" height="10" x="90" y="210" fill="#ffef16" /><rect width="10" height="10" x="130" y="210" fill="#ffef16" /><rect width="10" height="10" x="180" y="210" fill="#ffef16" /><rect width="10" height="10" x="220" y="210" fill="#ffef16" /><rect width="20" height="10" x="90" y="220" fill="#ffef16" /><rect width="40" height="10" x="140" y="220" fill="#ffef16" /><rect width="10" height="10" x="220" y="220" fill="#ffef16" /><rect width="30" height="10" x="90" y="230" fill="#ffef16" /><rect width="20" height="10" x="210" y="230" fill="#ffef16" /><rect width="30" height="10" x="90" y="240" fill="#ffef16" /><rect width="20" height="10" x="210" y="240" fill="#ffef16" /><rect width="20" height="10" x="90" y="250" fill="#ffef16" /><rect width="10" height="10" x="130" y="250" fill="#ffef16" /><rect width="10" height="10" x="150" y="250" fill="#ffef16" /><rect width="10" height="10" x="190" y="250" fill="#ffef16" /><rect width="20" height="10" x="210" y="250" fill="#ffef16" /><rect width="20" height="10" x="90" y="260" fill="#ffef16" /><rect width="10" height="10" x="140" y="260" fill="#ffef16" /><rect width="20" height="10" x="160" y="260" fill="#ffef16" /><rect width="10" height="10" x="190" y="260" fill="#ffef16" /><rect width="20" height="10" x="210" y="260" fill="#ffef16" /><rect width="20" height="10" x="90" y="270" fill="#ffef16" /><rect width="10" height="10" x="140" y="270" fill="#ffef16" /><rect width="20" height="10" x="160" y="270" fill="#ffef16" /><rect width="20" height="10" x="210" y="270" fill="#ffef16" /><rect width="20" height="10" x="90" y="280" fill="#ffef16" /><rect width="10" height="10" x="190" y="280" fill="#ffef16" /><rect width="20" height="10" x="210" y="280" fill="#ffef16" /><rect width="20" height="10" x="90" y="290" fill="#ffef16" /><rect width="20" height="10" x="210" y="290" fill="#ffef16" /><rect width="20" height="10" x="90" y="300" fill="#ffef16" /><rect width="20" height="10" x="210" y="300" fill="#ffef16" /><rect width="20" height="10" x="90" y="310" fill="#ffef16" /><rect width="20" height="10" x="210" y="310" fill="#ffef16" /><rect width="140" height="10" x="90" y="30" fill="#667af9" /><rect width="140" height="10" x="90" y="40" fill="#667af9" /><rect width="20" height="10" x="70" y="50" fill="#667af9" /><rect width="20" height="10" x="230" y="50" fill="#667af9" /><rect width="20" height="10" x="70" y="60" fill="#667af9" /><rect width="20" height="10" x="230" y="60" fill="#667af9" /><rect width="20" height="10" x="70" y="70" fill="#667af9" /><rect width="20" height="10" x="230" y="70" fill="#667af9" /><rect width="20" height="10" x="50" y="80" fill="#5648ed" /><rect width="20" height="10" x="70" y="80" fill="#667af9" /><rect width="140" height="10" x="90" y="80" fill="#5648ed" /><rect width="20" height="10" x="230" y="80" fill="#667af9" /><rect width="20" height="10" x="250" y="80" fill="#5648ed" /><rect width="10" height="10" x="50" y="90" fill="#5648ed" /><rect width="10" height="10" x="60" y="90" fill="#ffc110" /><rect width="20" height="10" x="70" y="90" fill="#667af9" /><rect width="40" height="10" x="90" y="90" fill="#5648ed" /><rect width="60" height="10" x="130" y="90" fill="#ffc110" /><rect width="40" height="10" x="190" y="90" fill="#5648ed" /><rect width="20" height="10" x="230" y="90" fill="#667af9" /><rect width="10" height="10" x="250" y="90" fill="#ffc110" /><rect width="10" height="10" x="260" y="90" fill="#5648ed" /><rect width="10" height="10" x="40" y="100" fill="#ffc110" /><rect width="10" height="10" x="50" y="100" fill="#5648ed" /><rect width="20" height="10" x="60" y="100" fill="#ffc110" /><rect width="60" height="10" x="80" y="100" fill="#5648ed" /><rect width="40" height="10" x="140" y="100" fill="#ffc110" /><rect width="60" height="10" x="180" y="100" fill="#5648ed" /><rect width="20" height="10" x="240" y="100" fill="#ffc110" /><rect width="10" height="10" x="260" y="100" fill="#5648ed" /><rect width="10" height="10" x="40" y="110" fill="#ffc110" /><rect width="80" height="10" x="50" y="110" fill="#5648ed" /><rect width="60" height="10" x="130" y="110" fill="#ffc110" /><rect width="80" height="10" x="190" y="110" fill="#5648ed" /><rect width="10" height="10" x="40" y="120" fill="#667af9" /><rect width="220" height="10" x="50" y="120" fill="#5648ed" /><rect width="10" height="10" x="30" y="130" fill="#667af9" /><rect width="10" height="10" x="50" y="130" fill="#667af9" /><rect width="210" height="10" x="60" y="130" fill="#5648ed" /><rect width="10" height="10" x="30" y="140" fill="#667af9" /><rect width="10" height="10" x="50" y="140" fill="#667af9" /><rect width="210" height="10" x="60" y="140" fill="#5648ed" /><rect width="10" height="10" x="30" y="150" fill="#667af9" /><rect width="10" height="10" x="40" y="150" fill="#5648ed" /><rect width="10" height="10" x="50" y="150" fill="#667af9" /><rect width="220" height="10" x="60" y="150" fill="#5648ed" /><rect width="10" height="10" x="30" y="160" fill="#667af9" /><rect width="10" height="10" x="40" y="160" fill="#5648ed" /><rect width="10" height="10" x="50" y="160" fill="#667af9" /><rect width="220" height="10" x="60" y="160" fill="#5648ed" /><rect width="240" height="10" x="40" y="170" fill="#5648ed" /><rect width="70" height="10" x="40" y="180" fill="#5648ed" /><rect width="30" height="10" x="110" y="180" fill="#da42cb" /><rect width="140" height="10" x="140" y="180" fill="#5648ed" /><rect width="240" height="10" x="40" y="190" fill="#5648ed" /><rect width="220" height="10" x="50" y="200" fill="#5648ed" /><rect width="60" height="10" x="100" y="110" fill="#000000" /><rect width="60" height="10" x="170" y="110" fill="#000000" /><rect width="10" height="10" x="100" y="120" fill="#000000" /><rect width="20" height="10" x="110" y="120" fill="#ffffff" /><rect width="20" height="10" x="130" y="120" fill="#ff0e0e" /><rect width="10" height="10" x="150" y="120" fill="#000000" /><rect width="10" height="10" x="170" y="120" fill="#000000" /><rect width="20" height="10" x="180" y="120" fill="#ffffff" /><rect width="20" height="10" x="200" y="120" fill="#ff0e0e" /><rect width="10" height="10" x="220" y="120" fill="#000000" /><rect width="40" height="10" x="70" y="130" fill="#000000" /><rect width="20" height="10" x="110" y="130" fill="#ffffff" /><rect width="20" height="10" x="130" y="130" fill="#ff0e0e" /><rect width="30" height="10" x="150" y="130" fill="#000000" /><rect width="20" height="10" x="180" y="130" fill="#ffffff" /><rect width="20" height="10" x="200" y="130" fill="#ff0e0e" /><rect width="10" height="10" x="220" y="130" fill="#000000" /><rect width="10" height="10" x="70" y="140" fill="#000000" /><rect width="10" height="10" x="100" y="140" fill="#000000" /><rect width="20" height="10" x="110" y="140" fill="#ffffff" /><rect width="20" height="10" x="130" y="140" fill="#ff0e0e" /><rect width="10" height="10" x="150" y="140" fill="#000000" /><rect width="10" height="10" x="170" y="140" fill="#000000" /><rect width="20" height="10" x="180" y="140" fill="#ffffff" /><rect width="20" height="10" x="200" y="140" fill="#ff0e0e" /><rect width="10" height="10" x="220" y="140" fill="#000000" /><rect width="10" height="10" x="70" y="150" fill="#000000" /><rect width="10" height="10" x="100" y="150" fill="#000000" /><rect width="20" height="10" x="110" y="150" fill="#ffffff" /><rect width="20" height="10" x="130" y="150" fill="#ff0e0e" /><rect width="10" height="10" x="150" y="150" fill="#000000" /><rect width="10" height="10" x="170" y="150" fill="#000000" /><rect width="20" height="10" x="180" y="150" fill="#ffffff" /><rect width="20" height="10" x="200" y="150" fill="#ff0e0e" /><rect width="10" height="10" x="220" y="150" fill="#000000" /><rect width="60" height="10" x="100" y="160" fill="#000000" /><rect width="60" height="10" x="170" y="160" fill="#000000" /></svg>