<svg xmlns:xlink="http://www.w3.org/1999/xlink" width="320" height="320" viewBox="0 0 320 320" xmlns="http://www.w3.org/2000/svg" shape-rendering="crispEdges"><rect width="100%" height="100%" fill="#d5d7e1" /><rect width="140" height="10" x="90" y="210" fill="#068940" /><rect width="140" height="10" x="90" y="220" fill="#068940" /><rect width="140" height="10" x="90" y="230" fill="#068940" /><rect width="140" height="10" x="90" y="240" fill="#068940" /><rect width="20" height="10" x="90" y="250" fill="#068940" /><rect width="110" height="10" x="120" y="250" fill="#068940" /><rect width="20" height="10" x="90" y="260" fill="#068940" /><rect width="110" height="10" x="120" y="260" fill="#068940" /><rect width="20" height="10" x="90" y="270" fill="#068940" /><rect width="110" height="10" x="120" y="270" fill="#068940" /><rect width="20" height="10" x="90" y="280" fill="#068940" /><rect width="110" height="10" x="120" y="280" fill="#068940" /><rect width="20" height="10" x="90" y="290" fill="#068940" /><rect width="110" height="10" x="120" y="290" fill="#068940" /><rect width="20" height="10" x="90" y="300" fill="#068940" /><rect width="110" height="10" x="120" y="300" fill="#068940" /><rect width="20" height="10" x="90" y="310" fill="#068940" /><rect width="110" height="10" x="120" y="310" fill="#068940" /><rect width="20" height="10" x="130" y="230" fill="#ffffff" /><rect width="20" height="10" x="170" y="230" fill="#027c92" /><rect width="20" height="10" x="130" y="240" fill="#ffffff" /><rect width="20" height="10" x="170" y="240" fill="#027c92" /><rect width="10" height="10" x="130" y="250" fill="#ffffff" /><rect width="10" height="10" x="150" y="250" fill="#ffffff" /><rect width="20" height="10" x="170" y="250" fill="#027c92" /><rect width="30" height="10" x="130" y="270" fill="#e8705b" /><rect width="10" height="10" x="170" y="270" fill="#ffc110" /><rect width="20" height="10" x="130" y="280" fill="#e8705b" /><rect width="10" height="10" x="170" y="280" fill="#ffc110" /><rect width="10" height="10" x="130" y="290" fill="#e8705b" /><rect width="20" height="10" x="170" y="290" fill="#ffc110" /><rect width="40" height="10" x="140" y="30" fill="#f9f5e9" /><rect width="10" height="10" x="110" y="40" fill="#f9f5e9" /><rect width="10" height="10" x="120" y="40" fill="#d4cfc0" /><rect width="20" height="10" x="130" y="40" fill="#f9f5e9" /><rect width="20" height="10" x="150" y="40" fill="#ffffff" /><rect width="20" height="10" x="170" y="40" fill="#f9f5e9" /><rect width="10" height="10" x="190" y="40" fill="#d4cfc0" /><rect width="10" height="10" x="200" y="40" fill="#f9f5e9" /><rect width="30" height="10" x="90" y="50" fill="#f9f5e9" /><rect width="10" height="10" x="120" y="50" fill="#d4cfc0" /><rect width="20" height="10" x="130" y="50" fill="#f9f5e9" /><rect width="20" height="10" x="150" y="50" fill="#ffffff" /><rect width="20" height="10" x="170" y="50" fill="#f9f5e9" /><rect width="10" height="10" x="190" y="50" fill="#d4cfc0" /><rect width="30" height="10" x="200" y="50" fill="#f9f5e9" /><rect width="10" height="10" x="80" y="60" fill="#f9f5e9" /><rect width="10" height="10" x="90" y="60" fill="#d4cfc0" /><rect width="30" height="10" x="100" y="60" fill="#f9f5e9" /><rect width="10" height="10" x="130" y="60" fill="#d4cfc0" /><rect width="40" height="10" x="140" y="60" fill="#f9f5e9" /><rect width="10" height="10" x="180" y="60" fill="#d4cfc0" /><rect width="30" height="10" x="190" y="60" fill="#f9f5e9" /><rect width="10" height="10" x="220" y="60" fill="#d4cfc0" /><rect width="10" height="10" x="230" y="60" fill="#f9f5e9" /><rect width="30" height="10" x="70" y="70" fill="#f9f5e9" /><rect width="10" height="10" x="100" y="70" fill="#d4cfc0" /><rect width="20" height="10" x="110" y="70" fill="#f9f5e9" /><rect width="10" height="10" x="130" y="70" fill="#d4cfc0" /><rect width="40" height="10" x="140" y="70" fill="#f9f5e9" /><rect width="10" height="10" x="180" y="70" fill="#d4cfc0" /><rect width="20" height="10" x="190" y="70" fill="#f9f5e9" /><rect width="10" height="10" x="210" y="70" fill="#d4cfc0" /><rect width="30" height="10" x="220" y="70" fill="#f9f5e9" /><rect width="40" height="10" x="70" y="80" fill="#f9f5e9" /><rect width="100" height="10" x="110" y="80" fill="#d4cfc0" /><rect width="20" height="10" x="210" y="80" fill="#f9f5e9" /><rect width="10" height="10" x="230" y="80" fill="#ffffff" /><rect width="10" height="10" x="240" y="80" fill="#f9f5e9" /><rect width="40" height="10" x="60" y="90" fill="#f9f5e9" /><rect width="10" height="10" x="100" y="90" fill="#d4cfc0" /><rect width="100" height="10" x="110" y="90" fill="#f9f5e9" /><rect width="10" height="10" x="210" y="90" fill="#d4cfc0" /><rect width="40" height="10" x="220" y="90" fill="#f9f5e9" /><rect width="30" height="10" x="60" y="100" fill="#f9f5e9" /><rect width="10" height="10" x="90" y="100" fill="#d4cfc0" /><rect width="120" height="10" x="100" y="100" fill="#f9f5e9" /><rect width="10" height="10" x="220" y="100" fill="#d4cfc0" /><rect width="10" height="10" x="230" y="100" fill="#f9f5e9" /><rect width="10" height="10" x="240" y="100" fill="#ffffff" /><rect width="10" height="10" x="250" y="100" fill="#f9f5e9" /><rect width="30" height="10" x="60" y="110" fill="#f9f5e9" /><rect width="10" height="10" x="90" y="110" fill="#d4cfc0" /><rect width="120" height="10" x="100" y="110" fill="#f9f5e9" /><rect width="10" height="10" x="220" y="110" fill="#d4cfc0" /><rect width="10" height="10" x="230" y="110" fill="#f9f5e9" /><rect width="10" height="10" x="240" y="110" fill="#ffffff" /><rect width="10" height="10" x="250" y="110" fill="#f9f5e9" /><rect width="40" height="10" x="50" y="120" fill="#f9f5e9" /><rect width="10" height="10" x="90" y="120" fill="#d4cfc0" /><rect width="120" height="10" x="100" y="120" fill="#f9f5e9" /><rect width="10" height="10" x="220" y="120" fill="#d4cfc0" /><rect width="10" height="10" x="230" y="120" fill="#f9f5e9" /><rect width="10" height="10" x="240" y="120" fill="#ffffff" /><rect width="20" height="10" x="250" y="120" fill="#f9f5e9" /><rect width="40" height="10" x="50" y="130" fill="#f9f5e9" /><rect width="10" height="10" x="90" y="130" fill="#d4cfc0" /><rect width="120" height="10" x="100" y="130" fill="#f9f5e9" /><rect width="10" height="10" x="220" y="130" fill="#d4cfc0" /><rect width="20" height="10" x="230" y="130" fill="#f9f5e9" /><rect width="10" height="10" x="250" y="130" fill="#ffffff" /><rect width="10" height="10" x="260" y="130" fill="#f9f5e9" /><rect width="40" height="10" x="50" y="140" fill="#f9f5e9" /><rect width="10" height="10" x="90" y="140" fill="#d4cfc0" /><rect width="120" height="10" x="100" y="140" fill="#f9f5e9" /><rect width="10" height="10" x="220" y="140" fill="#d4cfc0" /><rect width="20" height="10" x="230" y="140" fill="#f9f5e9" /><rect width="10" height="10" x="250" y="140" fill="#ffffff" /><rect width="10" height="10" x="260" y="140" fill="#f9f5e9" /><rect width="40" height="10" x="50" y="150" fill="#f9f5e9" /><rect width="10" height="10" x="90" y="150" fill="#d4cfc0" /><rect width="120" height="10" x="100" y="150" fill="#f9f5e9" /><rect width="10" height="10" x="220" y="150" fill="#d4cfc0" /><rect width="40" height="10" x="230" y="150" fill="#f9f5e9" /><rect width="30" height="10" x="60" y="160" fill="#f9f5e9" /><rect width="10" height="10" x="90" y="160" fill="#d4cfc0" /><rect width="120" height="10" x="100" y="160" fill="#f9f5e9" /><rect width="10" height="10" x="220" y="160" fill="#d4cfc0" /><rect width="40" height="10" x="230" y="160" fill="#f9f5e9" /><rect width="30" height="10" x="60" y="170" fill="#f9f5e9" /><rect width="10" height="10" x="90" y="170" fill="#d4cfc0" /><rect width="120" height="10" x="100" y="170" fill="#f9f5e9" /><rect width="10" height="10" x="220" y="170" fill="#d4cfc0" /><rect width="30" height="10" x="230" y="170" fill="#f9f5e9" /><rect width="10" height="10" x="60" y="180" fill="#f9f5e9" /><rect width="10" height="10" x="70" y="180" fill="#ffffff" /><rect width="20" height="10" x="80" y="180" fill="#f9f5e9" /><rect width="10" height="10" x="100" y="180" fill="#d4cfc0" /><rect width="100" height="10" x="110" y="180" fill="#f9f5e9" /><rect width="10" height="10" x="210" y="180" fill="#d4cfc0" /><rect width="40" height="10" x="220" y="180" fill="#f9f5e9" /><rect width="10" height="10" x="70" y="190" fill="#f9f5e9" /><rect width="10" height="10" x="80" y="190" fill="#ffffff" /><rect width="20" height="10" x="90" y="190" fill="#f9f5e9" /><rect width="100" height="10" x="110" y="190" fill="#d4cfc0" /><rect width="40" height="10" x="210" y="190" fill="#f9f5e9" /><rect width="30" height="10" x="70" y="200" fill="#f9f5e9" /><rect width="10" height="10" x="100" y="200" fill="#d4cfc0" /><rect width="20" height="10" x="110" y="200" fill="#f9f5e9" /><rect width="10" height="10" x="130" y="200" fill="#d4cfc0" /><rect width="40" height="10" x="140" y="200" fill="#f9f5e9" /><rect width="10" height="10" x="180" y="200" fill="#d4cfc0" /><rect width="20" height="10" x="190" y="200" fill="#f9f5e9" /><rect width="10" height="10" x="210" y="200" fill="#d4cfc0" /><rect width="30" height="10" x="220" y="200" fill="#f9f5e9" /><rect width="10" height="10" x="80" y="210" fill="#f9f5e9" /><rect width="10" height="10" x="90" y="210" fill="#d4cfc0" /><rect width="30" height="10" x="100" y="210" fill="#f9f5e9" /><rect width="10" height="10" x="130" y="210" fill="#d4cfc0" /><rect width="40" height="10" x="140" y="210" fill="#f9f5e9" /><rect width="10" height="10" x="180" y="210" fill="#d4cfc0" /><rect width="30" height="10" x="190" y="210" fill="#f9f5e9" /><rect width="10" height="10" x="220" y="210" fill="#d4cfc0" /><rect width="10" height="10" x="230" y="210" fill="#f9f5e9" /><rect width="60" height="10" x="100" y="110" fill="#2b83f6" /><rect width="60" height="10" x="170" y="110" fill="#2b83f6" /><rect width="10" height="10" x="100" y="120" fill="#2b83f6" /><rect width="20" height="10" x="110" y="120" fill="#ffffff" /><rect width="20" height="10" x="130" y="120" fill="#000000" /><rect width="10" height="10" x="150" y="120" fill="#2b83f6" /><rect width="10" height="10" x="170" y="120" fill="#2b83f6" /><rect width="20" height="10" x="180" y="120" fill="#ffffff" /><rect width="20" height="10" x="200" y="120" fill="#000000" /><rect width="10" height="10" x="220" y="120" fill="#2b83f6" /><rect width="40" height="10" x="70" y="130" fill="#2b83f6" /><rect width="20" height="10" x="110" y="130" fill="#ffffff" /><rect width="20" height="10" x="130" y="130" fill="#000000" /><rect width="30" height="10" x="150" y="130" fill="#2b83f6" /><rect width="20" height="10" x="180" y="130" fill="#ffffff" /><rect width="20" height="10" x="200" y="130" fill="#000000" /><rect width="10" height="10" x="220" y="130" fill="#2b83f6" /><rect width="10" height="10" x="70" y="140" fill="#2b83f6" /><rect width="10" height="10" x="100" y="140" fill="#2b83f6" /><rect width="20" height="10" x="110" y="140" fill="#ffffff" /><rect width="20" height="10" x="130" y="140" fill="#000000" /><rect width="10" height="10" x="150" y="140" fill="#2b83f6" /><rect width="10" height="10" x="170" y="140" fill="#2b83f6" /><rect width="20" height="10" x="180" y="140" fill="#ffffff" /><rect width="20" height="10" x="200" y="140" fill="#000000" /><rect width="10" height="10" x="220" y="140" fill="#2b83f6" /><rect width="10" height="10" x="70" y="150" fill="#2b83f6" /><rect width="10" height="10" x="100" y="150" fill="#2b83f6" /><rect width="20" height="10" x="110" y="150" fill="#ffffff" /><rect width="20" height="10" x="130" y="150" fill="#000000" /><rect width="10" height="10" x="150" y="150" fill="#2b83f6" /><rect width="10" height="10" x="170" y="150" fill="#2b83f6" /><rect width="20" height="10" x="180" y="150" fill="#ffffff" /><rect width="20" height="10" x="200" y="150" fill="#000000" /><rect width="10" height="10" x="220" y="150" fill="#2b83f6" /><rect width="60" height="10" x="100" y="160" fill="#2b83f6" /><rect width="60" height="10" x="170" y="160" fill="#2b83f6" /></svg>