<svg xmlns:xlink="http://www.w3.org/1999/xlink" width="320" height="320" viewBox="0 0 320 320" xmlns="http://www.w3.org/2000/svg" shape-rendering="crispEdges"><rect width="100%" height="100%" fill="#d5d7e1" /><rect width="140" height="10" x="90" y="210" fill="#fffdf2" /><rect width="140" height="10" x="90" y="220" fill="#fffdf2" /><rect width="140" height="10" x="90" y="230" fill="#fffdf2" /><rect width="140" height="10" x="90" y="240" fill="#fffdf2" /><rect width="20" height="10" x="90" y="250" fill="#fffdf2" /><rect width="110" height="10" x="120" y="250" fill="#fffdf2" /><rect width="20" height="10" x="90" y="260" fill="#fffdf2" /><rect width="110" height="10" x="120" y="260" fill="#fffdf2" /><rect width="20" height="10" x="90" y="270" fill="#fffdf2" /><rect width="110" height="10" x="120" y="270" fill="#fffdf2" /><rect width="20" height="10" x="90" y="280" fill="#fffdf2" /><rect width="110" height="10" x="120" y="280" fill="#fffdf2" /><rect width="20" height="10" x="90" y="290" fill="#fffdf2" /><rect width="110" height="10" x="120" y="290" fill="#fffdf2" /><rect width="20" height="10" x="90" y="300" fill="#fffdf2" /><rect width="110" height="10" x="120" y="300" fill="#fffdf2" /><rect width="20" height="10" x="90" y="310" fill="#fffdf2" /><rect width="110" height="10" x="120" y="310" fill="#fffdf2" /><rect width="10" height="10" x="90" y="240" fill="#ffc110" /><rect width="30" height="10" x="110" y="240" fill="#ffc110" /><rect width="30" height="10" x="150" y="240" fill="#ffc110" /><rect width="30" height="10" x="190" y="240" fill="#ffc110" /><rect width="10" height="10" x="100" y="250" fill="#ffc110" /><rect width="10" height="10" x="140" y="250" fill="#ffc110" /><rect width="10" height="10" x="180" y="250" fill="#ffc110" /><rect width="10" height="10" x="220" y="250" fill="#ffc110" /><rect width="20" height="10" x="90" y="260" fill="#ffc110" /><rect width="30" height="10" x="130" y="260" fill="#ffc110" /><rect width="30" height="10" x="170" y="260" fill="#ffc110" /><rect width="20" height="10" x="210" y="260" fill="#ffc110" /><rect width="10" height="10" x="100" y="270" fill="#ffc110" /><rect width="10" height="10" x="140" y="270" fill="#ffc110" /><rect width="10" height="10" x="180" y="270" fill="#ffc110" /><rect width="10" height="10" x="220" y="270" fill="#ffc110" /><rect width="10" height="10" x="90" y="280" fill="#ffc110" /><rect width="20" height="10" x="120" y="280" fill="#ffc110" /><rect width="30" height="10" x="150" y="280" fill="#ffc110" /><rect width="30" height="10" x="190" y="280" fill="#ffc110" /><rect width="10" height="10" x="40" y="10" fill="#000000" /><rect width="200" height="10" x="60" y="10" fill="#000000" /><rect width="10" height="10" x="270" y="10" fill="#000000" /><rect width="10" height="10" x="290" y="10" fill="#000000" /><rect width="10" height="10" x="110" y="20" fill="#000000" /><rect width="10" height="10" x="130" y="20" fill="#000000" /><rect width="10" height="10" x="30" y="30" fill="#000000" /><rect width="210" height="10" x="60" y="30" fill="#000000" /><rect width="10" height="10" x="280" y="30" fill="#000000" /><rect width="10" height="10" x="90" y="40" fill="#000000" /><rect width="10" height="10" x="90" y="50" fill="#000000" /><rect width="20" height="10" x="90" y="60" fill="#000000" /><rect width="40" height="10" x="90" y="70" fill="#000000" /><rect width="110" height="10" x="100" y="80" fill="#000000" /><rect width="200" height="10" x="60" y="90" fill="#f8ddb0" /><rect width="10" height="10" x="50" y="100" fill="#f8ddb0" /><rect width="100" height="10" x="60" y="100" fill="#027c92" /><rect width="10" height="10" x="160" y="100" fill="#f8ddb0" /><rect width="90" height="10" x="170" y="100" fill="#027c92" /><rect width="10" height="10" x="260" y="100" fill="#f8ddb0" /><rect width="10" height="10" x="50" y="110" fill="#f8ddb0" /><rect width="100" height="10" x="60" y="110" fill="#027c92" /><rect width="10" height="10" x="160" y="110" fill="#f8ddb0" /><rect width="70" height="10" x="170" y="110" fill="#027c92" /><rect width="10" height="10" x="240" y="110" fill="#fdf8ff" /><rect width="10" height="10" x="250" y="110" fill="#027c92" /><rect width="10" height="10" x="260" y="110" fill="#f8ddb0" /><rect width="10" height="10" x="50" y="120" fill="#f8ddb0" /><rect width="100" height="10" x="60" y="120" fill="#027c92" /><rect width="10" height="10" x="160" y="120" fill="#f8ddb0" /><rect width="70" height="10" x="170" y="120" fill="#027c92" /><rect width="10" height="10" x="240" y="120" fill="#fdf8ff" /><rect width="10" height="10" x="250" y="120" fill="#027c92" /><rect width="10" height="10" x="260" y="120" fill="#f8ddb0" /><rect width="10" height="10" x="50" y="130" fill="#f8ddb0" /><rect width="100" height="10" x="60" y="130" fill="#027c92" /><rect width="10" height="10" x="160" y="130" fill="#f8ddb0" /><rect width="70" height="10" x="170" y="130" fill="#027c92" /><rect width="10" height="10" x="240" y="130" fill="#fdf8ff" /><rect width="10" height="10" x="250" y="130" fill="#027c92" /><rect width="10" height="10" x="260" y="130" fill="#f8ddb0" /><rect width="10" height="10" x="50" y="140" fill="#f8ddb0" /><rect width="100" height="10" x="60" y="140" fill="#027c92" /><rect width="10" height="10" x="160" y="140" fill="#f8ddb0" /><rect width="90" height="10" x="170" y="140" fill="#027c92" /><rect width="10" height="10" x="260" y="140" fill="#f8ddb0" /><rect width="220" height="10" x="50" y="150" fill="#d32a09" /><rect width="220" height="10" x="50" y="160" fill="#f8ddb0" /><rect width="220" height="10" x="50" y="170" fill="#d32a09" /><rect width="60" height="10" x="50" y="180" fill="#d32a09" /><rect width="60" height="10" x="110" y="180" fill="#000000" /><rect width="100" height="10" x="170" y="180" fill="#d32a09" /><rect width="220" height="10" x="50" y="190" fill="#d32a09" /><rect width="180" height="10" x="70" y="200" fill="#d32a09" /><rect width="60" height="10" x="100" y="110" fill="#5648ed" /><rect width="60" height="10" x="170" y="110" fill="#5648ed" /><rect width="10" height="10" x="100" y="120" fill="#5648ed" /><rect width="20" height="10" x="110" y="120" fill="#ffffff" /><rect width="20" height="10" x="130" y="120" fill="#000000" /><rect width="10" height="10" x="150" y="120" fill="#5648ed" /><rect width="10" height="10" x="170" y="120" fill="#5648ed" /><rect width="20" height="10" x="180" y="120" fill="#ffffff" /><rect width="20" height="10" x="200" y="120" fill="#000000" /><rect width="10" height="10" x="220" y="120" fill="#5648ed" /><rect width="40" height="10" x="70" y="130" fill="#5648ed" /><rect width="20" height="10" x="110" y="130" fill="#ffffff" /><rect width="20" height="10" x="130" y="130" fill="#000000" /><rect width="30" height="10" x="150" y="130" fill="#5648ed" /><rect width="20" height="10" x="180" y="130" fill="#ffffff" /><rect width="20" height="10" x="200" y="130" fill="#000000" /><rect width="10" height="10" x="220" y="130" fill="#5648ed" /><rect width="10" height="10" x="70" y="140" fill="#5648ed" /><rect width="10" height="10" x="100" y="140" fill="#5648ed" /><rect width="20" height="10" x="110" y="140" fill="#ffffff" /><rect width="20" height="10" x="130" y="140" fill="#000000" /><rect width="10" height="10" x="150" y="140" fill="#5648ed" /><rect width="10" height="10" x="170" y="140" fill="#5648ed" /><rect width="20" height="10" x="180" y="140" fill="#ffffff" /><rect width="20" height="10" x="200" y="140" fill="#000000" /><rect width="10" height="10" x="220" y="140" fill="#5648ed" /><rect width="10" height="10" x="70" y="150" fill="#5648ed" /><rect width="10" height="10" x="100" y="150" fill="#5648ed" /><rect width="20" height="10" x="110" y="150" fill="#ffffff" /><rect width="20" height="10" x="130" y="150" fill="#000000" /><rect width="10" height="10" x="150" y="150" fill="#5648ed" /><rect width="10" height="10" x="170" y="150" fill="#5648ed" /><rect width="20" height="10" x="180" y="150" fill="#ffffff" /><rect width="20" height="10" x="200" y="150" fill="#000000" /><rect width="10" height="10" x="220" y="150" fill="#5648ed" /><rect width="60" height="10" x="100" y="160" fill="#5648ed" /><rect width="60" height="10" x="170" y="160" fill="#5648ed" /></svg>