<svg xmlns:xlink="http://www.w3.org/1999/xlink" width="320" height="320" viewBox="0 0 320 320" xmlns="http://www.w3.org/2000/svg" shape-rendering="crispEdges"><rect width="100%" height="100%" fill="#e1d7d5" /><rect width="140" height="10" x="90" y="210" fill="#f98f30" /><rect width="140" height="10" x="90" y="220" fill="#f98f30" /><rect width="140" height="10" x="90" y="230" fill="#f98f30" /><rect width="140" height="10" x="90" y="240" fill="#f98f30" /><rect width="20" height="10" x="90" y="250" fill="#f98f30" /><rect width="110" height="10" x="120" y="250" fill="#f98f30" /><rect width="20" height="10" x="90" y="260" fill="#f98f30" /><rect width="110" height="10" x="120" y="260" fill="#f98f30" /><rect width="20" height="10" x="90" y="270" fill="#f98f30" /><rect width="110" height="10" x="120" y="270" fill="#f98f30" /><rect width="20" height="10" x="90" y="280" fill="#f98f30" /><rect width="110" height="10" x="120" y="280" fill="#f98f30" /><rect width="20" height="10" x="90" y="290" fill="#f98f30" /><rect width="110" height="10" x="120" y="290" fill="#f98f30" /><rect width="20" height="10" x="90" y="300" fill="#f98f30" /><rect width="110" height="10" x="120" y="300" fill="#f98f30" /><rect width="20" height="10" x="90" y="310" fill="#f98f30" /><rect width="110" height="10" x="120" y="310" fill="#f98f30" /><rect width="30" height="10" x="150" y="240" fill="#ff638d" /><rect width="10" height="10" x="190" y="240" fill="#ff638d" /><rect width="50" height="10" x="140" y="250" fill="#ff638d" /><rect width="10" height="10" x="130" y="260" fill="#ff638d" /><rect width="10" height="10" x="150" y="260" fill="#ff638d" /><rect width="10" height="10" x="170" y="260" fill="#ff638d" /><rect width="20" height="10" x="190" y="260" fill="#ff638d" /><rect width="150" height="10" x="90" y="40" fill="#903707" /><rect width="150" height="10" x="90" y="50" fill="#903707" /><rect width="130" height="10" x="100" y="60" fill="#000000" /><rect width="130" height="10" x="100" y="70" fill="#ffc110" /><rect width="10" height="10" x="100" y="80" fill="#ffc110" /><rect width="10" height="10" x="110" y="80" fill="#f9f5cb" /><rect width="110" height="10" x="120" y="80" fill="#ffc110" /><rect width="10" height="10" x="100" y="90" fill="#ffc110" /><rect width="10" height="10" x="110" y="90" fill="#f9f5cb" /><rect width="110" height="10" x="120" y="90" fill="#ffc110" /><rect width="10" height="10" x="10" y="100" fill="#903707" /><rect width="20" height="10" x="30" y="100" fill="#903707" /><rect width="40" height="10" x="60" y="100" fill="#903707" /><rect width="130" height="10" x="100" y="100" fill="#ffc110" /><rect width="10" height="10" x="30" y="110" fill="#903707" /><rect width="40" height="10" x="60" y="110" fill="#903707" /><rect width="130" height="10" x="100" y="110" fill="#ffc110" /><rect width="20" height="10" x="20" y="120" fill="#903707" /><rect width="50" height="10" x="50" y="120" fill="#903707" /><rect width="130" height="10" x="100" y="120" fill="#ffc110" /><rect width="130" height="10" x="100" y="130" fill="#ffc110" /><rect width="130" height="10" x="100" y="140" fill="#ffc110" /><rect width="130" height="10" x="100" y="150" fill="#ffc110" /><rect width="150" height="10" x="90" y="160" fill="#903707" /><rect width="150" height="10" x="90" y="170" fill="#000000" /><rect width="170" height="10" x="80" y="180" fill="#c16710" /><rect width="170" height="10" x="80" y="190" fill="#c16710" /><rect width="170" height="10" x="80" y="200" fill="#000000" /><rect width="60" height="10" x="100" y="110" fill="#ffef16" /><rect width="60" height="10" x="170" y="110" fill="#ffef16" /><rect width="10" height="10" x="100" y="120" fill="#ffef16" /><rect width="20" height="10" x="110" y="120" fill="#ffffff" /><rect width="20" height="10" x="130" y="120" fill="#000000" /><rect width="10" height="10" x="150" y="120" fill="#ffef16" /><rect width="10" height="10" x="170" y="120" fill="#ffef16" /><rect width="20" height="10" x="180" y="120" fill="#ffffff" /><rect width="20" height="10" x="200" y="120" fill="#000000" /><rect width="10" height="10" x="220" y="120" fill="#ffef16" /><rect width="40" height="10" x="70" y="130" fill="#ffef16" /><rect width="20" height="10" x="110" y="130" fill="#ffffff" /><rect width="20" height="10" x="130" y="130" fill="#000000" /><rect width="30" height="10" x="150" y="130" fill="#ffef16" /><rect width="20" height="10" x="180" y="130" fill="#ffffff" /><rect width="20" height="10" x="200" y="130" fill="#000000" /><rect width="10" height="10" x="220" y="130" fill="#ffef16" /><rect width="10" height="10" x="70" y="140" fill="#ffef16" /><rect width="10" height="10" x="100" y="140" fill="#ffef16" /><rect width="20" height="10" x="110" y="140" fill="#ffffff" /><rect width="20" height="10" x="130" y="140" fill="#000000" /><rect width="10" height="10" x="150" y="140" fill="#ffef16" /><rect width="10" height="10" x="170" y="140" fill="#ffef16" /><rect width="20" height="10" x="180" y="140" fill="#ffffff" /><rect width="20" height="10" x="200" y="140" fill="#000000" /><rect width="10" height="10" x="220" y="140" fill="#ffef16" /><rect width="10" height="10" x="70" y="150" fill="#ffef16" /><rect width="10" height="10" x="100" y="150" fill="#ffef16" /><rect width="20" height="10" x="110" y="150" fill="#ffffff" /><rect width="20" height="10" x="130" y="150" fill="#000000" /><rect width="10" height="10" x="150" y="150" fill="#ffef16" /><rect width="10" height="10" x="170" y="150" fill="#ffef16" /><rect width="20" height="10" x="180" y="150" fill="#ffffff" /><rect width="20" height="10" x="200" y="150" fill="#000000" /><rect width="10" height="10" x="220" y="150" fill="#ffef16" /><rect width="60" height="10" x="100" y="160" fill="#ffef16" /><rect width="60" height="10" x="170" y="160" fill="#ffef16" /></svg>