<svg xmlns:xlink="http://www.w3.org/1999/xlink" width="320" height="320" viewBox="0 0 320 320" xmlns="http://www.w3.org/2000/svg" shape-rendering="crispEdges"><rect width="100%" height="100%" fill="#e1d7d5" /><rect width="140" height="10" x="90" y="210" fill="#caeff9" /><rect width="140" height="10" x="90" y="220" fill="#caeff9" /><rect width="140" height="10" x="90" y="230" fill="#caeff9" /><rect width="140" height="10" x="90" y="240" fill="#caeff9" /><rect width="20" height="10" x="90" y="250" fill="#caeff9" /><rect width="110" height="10" x="120" y="250" fill="#caeff9" /><rect width="20" height="10" x="90" y="260" fill="#caeff9" /><rect width="110" height="10" x="120" y="260" fill="#caeff9" /><rect width="20" height="10" x="90" y="270" fill="#caeff9" /><rect width="110" height="10" x="120" y="270" fill="#caeff9" /><rect width="20" height="10" x="90" y="280" fill="#caeff9" /><rect width="110" height="10" x="120" y="280" fill="#caeff9" /><rect width="20" height="10" x="90" y="290" fill="#caeff9" /><rect width="110" height="10" x="120" y="290" fill="#caeff9" /><rect width="20" height="10" x="90" y="300" fill="#caeff9" /><rect width="110" height="10" x="120" y="300" fill="#caeff9" /><rect width="20" height="10" x="90" y="310" fill="#caeff9" /><rect width="110" height="10" x="120" y="310" fill="#caeff9" /><rect width="140" height="10" x="90" y="210" fill="#ff1a0b" /><rect width="140" height="10" x="90" y="220" fill="#ff1a0b" /><rect width="140" height="10" x="90" y="230" fill="#f78a18" /><rect width="140" height="10" x="90" y="240" fill="#f78a18" /><rect width="20" height="10" x="90" y="250" fill="#fff449" /><rect width="110" height="10" x="120" y="250" fill="#fff449" /><rect width="20" height="10" x="90" y="260" fill="#fff449" /><rect width="110" height="10" x="120" y="260" fill="#fff449" /><rect width="20" height="10" x="90" y="270" fill="#068940" /><rect width="110" height="10" x="120" y="270" fill="#068940" /><rect width="20" height="10" x="90" y="280" fill="#068940" /><rect width="110" height="10" x="120" y="280" fill="#068940" /><rect width="20" height="10" x="90" y="290" fill="#2b83f6" /><rect width="110" height="10" x="120" y="290" fill="#2b83f6" /><rect width="20" height="10" x="90" y="300" fill="#2b83f6" /><rect width="110" height="10" x="120" y="300" fill="#2b83f6" /><rect width="20" height="10" x="90" y="310" fill="#9f21a0" /><rect width="110" height="10" x="120" y="310" fill="#9f21a0" /><rect width="60" height="10" x="130" y="10" fill="#ff0e0e" /><rect width="100" height="10" x="110" y="20" fill="#ff0e0e" /><rect width="120" height="10" x="100" y="30" fill="#ff0e0e" /><rect width="140" height="10" x="90" y="40" fill="#ff0e0e" /><rect width="140" height="10" x="90" y="50" fill="#ff0e0e" /><rect width="160" height="10" x="80" y="60" fill="#ff0e0e" /><rect width="10" height="10" x="80" y="70" fill="#ff0e0e" /><rect width="60" height="10" x="90" y="70" fill="#ffef16" /><rect width="20" height="10" x="150" y="70" fill="#ff0e0e" /><rect width="60" height="10" x="170" y="70" fill="#ff1ad2" /><rect width="10" height="10" x="230" y="70" fill="#ff0e0e" /><rect width="10" height="10" x="70" y="80" fill="#0adc4d" /><rect width="70" height="10" x="80" y="80" fill="#ffef16" /><rect width="20" height="10" x="150" y="80" fill="#ffffff" /><rect width="70" height="10" x="170" y="80" fill="#ff1ad2" /><rect width="10" height="10" x="240" y="80" fill="#1929f4" /><rect width="20" height="10" x="60" y="90" fill="#0adc4d" /><rect width="60" height="10" x="80" y="90" fill="#ffef16" /><rect width="40" height="10" x="140" y="90" fill="#ffffff" /><rect width="60" height="10" x="180" y="90" fill="#ff1ad2" /><rect width="20" height="10" x="240" y="90" fill="#1929f4" /><rect width="30" height="10" x="50" y="100" fill="#0adc4d" /><rect width="50" height="10" x="80" y="100" fill="#ffef16" /><rect width="60" height="10" x="130" y="100" fill="#ffffff" /><rect width="50" height="10" x="190" y="100" fill="#ff1ad2" /><rect width="30" height="10" x="240" y="100" fill="#1929f4" /><rect width="30" height="10" x="50" y="110" fill="#0adc4d" /><rect width="50" height="10" x="80" y="110" fill="#ffef16" /><rect width="60" height="10" x="130" y="110" fill="#ffffff" /><rect width="50" height="10" x="190" y="110" fill="#ff1ad2" /><rect width="30" height="10" x="240" y="110" fill="#1929f4" /><rect width="50" height="10" x="40" y="120" fill="#0adc4d" /><rect width="30" height="10" x="90" y="120" fill="#ffef16" /><rect width="80" height="10" x="120" y="120" fill="#ffffff" /><rect width="30" height="10" x="200" y="120" fill="#ff1ad2" /><rect width="50" height="10" x="230" y="120" fill="#1929f4" /><rect width="50" height="10" x="40" y="130" fill="#0adc4d" /><rect width="30" height="10" x="90" y="130" fill="#ffef16" /><rect width="80" height="10" x="120" y="130" fill="#ffffff" /><rect width="30" height="10" x="200" y="130" fill="#ff1ad2" /><rect width="50" height="10" x="230" y="130" fill="#1929f4" /><rect width="60" height="10" x="40" y="140" fill="#0adc4d" /><rect width="20" height="10" x="100" y="140" fill="#ffef16" /><rect width="80" height="10" x="120" y="140" fill="#ffffff" /><rect width="20" height="10" x="200" y="140" fill="#ff1ad2" /><rect width="60" height="10" x="220" y="140" fill="#1929f4" /><rect width="70" height="10" x="40" y="150" fill="#0adc4d" /><rect width="10" height="10" x="110" y="150" fill="#ffef16" /><rect width="80" height="10" x="120" y="150" fill="#ffffff" /><rect width="10" height="10" x="200" y="150" fill="#ff1ad2" /><rect width="70" height="10" x="210" y="150" fill="#1929f4" /><rect width="80" height="10" x="40" y="160" fill="#0adc4d" /><rect width="10" height="10" x="120" y="160" fill="#00fcff" /><rect width="60" height="10" x="130" y="160" fill="#ffffff" /><rect width="10" height="10" x="190" y="160" fill="#00fcff" /><rect width="80" height="10" x="200" y="160" fill="#1929f4" /><rect width="80" height="10" x="40" y="170" fill="#0adc4d" /><rect width="80" height="10" x="120" y="170" fill="#00fcff" /><rect width="80" height="10" x="200" y="170" fill="#1929f4" /><rect width="80" height="10" x="50" y="180" fill="#0adc4d" /><rect width="60" height="10" x="130" y="180" fill="#00fcff" /><rect width="80" height="10" x="190" y="180" fill="#1929f4" /><rect width="80" height="10" x="50" y="190" fill="#0adc4d" /><rect width="60" height="10" x="130" y="190" fill="#00fcff" /><rect width="80" height="10" x="190" y="190" fill="#1929f4" /><rect width="80" height="10" x="60" y="200" fill="#0adc4d" /><rect width="40" height="10" x="140" y="200" fill="#00fcff" /><rect width="80" height="10" x="180" y="200" fill="#1929f4" /><rect width="80" height="10" x="70" y="210" fill="#0adc4d" /><rect width="20" height="10" x="150" y="210" fill="#00fcff" /><rect width="80" height="10" x="170" y="210" fill="#1929f4" /><rect width="60" height="10" x="90" y="220" fill="#0adc4d" /><rect width="60" height="10" x="170" y="220" fill="#1929f4" /><rect width="60" height="10" x="100" y="110" fill="#e8705b" /><rect width="60" height="10" x="170" y="110" fill="#e8705b" /><rect width="10" height="10" x="100" y="120" fill="#e8705b" /><rect width="20" height="10" x="110" y="120" fill="#ffffff" /><rect width="20" height="10" x="130" y="120" fill="#000000" /><rect width="10" height="10" x="150" y="120" fill="#e8705b" /><rect width="10" height="10" x="170" y="120" fill="#e8705b" /><rect width="20" height="10" x="180" y="120" fill="#ffffff" /><rect width="20" height="10" x="200" y="120" fill="#000000" /><rect width="10" height="10" x="220" y="120" fill="#e8705b" /><rect width="40" height="10" x="70" y="130" fill="#e8705b" /><rect width="20" height="10" x="110" y="130" fill="#ffffff" /><rect width="20" height="10" x="130" y="130" fill="#000000" /><rect width="30" height="10" x="150" y="130" fill="#e8705b" /><rect width="20" height="10" x="180" y="130" fill="#ffffff" /><rect width="20" height="10" x="200" y="130" fill="#000000" /><rect width="10" height="10" x="220" y="130" fill="#e8705b" /><rect width="10" height="10" x="70" y="140" fill="#e8705b" /><rect width="10" height="10" x="100" y="140" fill="#e8705b" /><rect width="20" height="10" x="110" y="140" fill="#ffffff" /><rect width="20" height="10" x="130" y="140" fill="#000000" /><rect width="10" height="10" x="150" y="140" fill="#e8705b" /><rect width="10" height="10" x="170" y="140" fill="#e8705b" /><rect width="20" height="10" x="180" y="140" fill="#ffffff" /><rect width="20" height="10" x="200" y="140" fill="#000000" /><rect width="10" height="10" x="220" y="140" fill="#e8705b" /><rect width="10" height="10" x="70" y="150" fill="#e8705b" /><rect width="10" height="10" x="100" y="150" fill="#e8705b" /><rect width="20" height="10" x="110" y="150" fill="#ffffff" /><rect width="20" height="10" x="130" y="150" fill="#000000" /><rect width="10" height="10" x="150" y="150" fill="#e8705b" /><rect width="10" height="10" x="170" y="150" fill="#e8705b" /><rect width="20" height="10" x="180" y="150" fill="#ffffff" /><rect width="20" height="10" x="200" y="150" fill="#000000" /><rect width="10" height="10" x="220" y="150" fill="#e8705b" /><rect width="60" height="10" x="100" y="160" fill="#e8705b" /><rect width="60" height="10" x="170" y="160" fill="#e8705b" /></svg>