<svg xmlns:xlink="http://www.w3.org/1999/xlink" width="320" height="320" viewBox="0 0 320 320" xmlns="http://www.w3.org/2000/svg" shape-rendering="crispEdges"><rect width="100%" height="100%" fill="#e1d7d5" /><rect width="140" height="10" x="90" y="210" fill="#807f7e" /><rect width="140" height="10" x="90" y="220" fill="#807f7e" /><rect width="140" height="10" x="90" y="230" fill="#807f7e" /><rect width="140" height="10" x="90" y="240" fill="#807f7e" /><rect width="20" height="10" x="90" y="250" fill="#807f7e" /><rect width="110" height="10" x="120" y="250" fill="#807f7e" /><rect width="20" height="10" x="90" y="260" fill="#807f7e" /><rect width="110" height="10" x="120" y="260" fill="#807f7e" /><rect width="20" height="10" x="90" y="270" fill="#807f7e" /><rect width="110" height="10" x="120" y="270" fill="#807f7e" /><rect width="20" height="10" x="90" y="280" fill="#807f7e" /><rect width="110" height="10" x="120" y="280" fill="#807f7e" /><rect width="20" height="10" x="90" y="290" fill="#807f7e" /><rect width="110" height="10" x="120" y="290" fill="#807f7e" /><rect width="20" height="10" x="90" y="300" fill="#807f7e" /><rect width="110" height="10" x="120" y="300" fill="#807f7e" /><rect width="20" height="10" x="90" y="310" fill="#807f7e" /><rect width="110" height="10" x="120" y="310" fill="#807f7e" /><rect width="20" height="10" x="120" y="210" fill="#000000" /><rect width="20" height="10" x="180" y="210" fill="#000000" /><rect width="20" height="10" x="120" y="220" fill="#000000" /><rect width="20" height="10" x="180" y="220" fill="#000000" /><rect width="20" height="10" x="90" y="240" fill="#000000" /><rect width="20" height="10" x="150" y="240" fill="#000000" /><rect width="20" height="10" x="210" y="240" fill="#000000" /><rect width="20" height="10" x="90" y="250" fill="#000000" /><rect width="20" height="10" x="150" y="250" fill="#000000" /><rect width="20" height="10" x="210" y="250" fill="#000000" /><rect width="20" height="10" x="120" y="270" fill="#000000" /><rect width="20" height="10" x="180" y="270" fill="#000000" /><rect width="20" height="10" x="120" y="280" fill="#000000" /><rect width="20" height="10" x="180" y="280" fill="#000000" /><rect width="20" height="10" x="90" y="300" fill="#000000" /><rect width="20" height="10" x="150" y="300" fill="#000000" /><rect width="20" height="10" x="210" y="300" fill="#000000" /><rect width="20" height="10" x="90" y="310" fill="#000000" /><rect width="20" height="10" x="150" y="310" fill="#000000" /><rect width="20" height="10" x="210" y="310" fill="#000000" /><rect width="50" height="10" x="70" y="40" fill="#000000" /><rect width="40" height="10" x="120" y="40" fill="#909b0e" /><rect width="30" height="10" x="160" y="40" fill="#ffc110" /><rect width="30" height="10" x="80" y="50" fill="#000000" /><rect width="40" height="10" x="110" y="50" fill="#909b0e" /><rect width="50" height="10" x="150" y="50" fill="#ffc110" /><rect width="10" height="10" x="90" y="60" fill="#000000" /><rect width="40" height="10" x="100" y="60" fill="#909b0e" /><rect width="70" height="10" x="140" y="60" fill="#ffc110" /><rect width="30" height="10" x="100" y="70" fill="#909b0e" /><rect width="90" height="10" x="130" y="70" fill="#ffc110" /><rect width="20" height="10" x="100" y="80" fill="#909b0e" /><rect width="20" height="10" x="120" y="80" fill="#ffc110" /><rect width="10" height="10" x="140" y="80" fill="#db8323" /><rect width="70" height="10" x="150" y="80" fill="#ffc110" /><rect width="10" height="10" x="100" y="90" fill="#909b0e" /><rect width="30" height="10" x="110" y="90" fill="#ffc110" /><rect width="10" height="10" x="140" y="90" fill="#db8323" /><rect width="30" height="10" x="150" y="90" fill="#ffc110" /><rect width="20" height="10" x="180" y="90" fill="#db8323" /><rect width="20" height="10" x="200" y="90" fill="#ffc110" /><rect width="20" height="10" x="100" y="100" fill="#ffc110" /><rect width="10" height="10" x="120" y="100" fill="#db8323" /><rect width="50" height="10" x="130" y="100" fill="#ffc110" /><rect width="20" height="10" x="180" y="100" fill="#db8323" /><rect width="20" height="10" x="200" y="100" fill="#ffc110" /><rect width="10" height="10" x="30" y="110" fill="#ffc110" /><rect width="80" height="10" x="100" y="110" fill="#ffc110" /><rect width="20" height="10" x="180" y="110" fill="#db8323" /><rect width="20" height="10" x="200" y="110" fill="#ffc110" /><rect width="10" height="10" x="280" y="110" fill="#ffc110" /><rect width="20" height="10" x="30" y="120" fill="#ffc110" /><rect width="80" height="10" x="100" y="120" fill="#ffc110" /><rect width="20" height="10" x="180" y="120" fill="#db8323" /><rect width="20" height="10" x="200" y="120" fill="#ffc110" /><rect width="20" height="10" x="270" y="120" fill="#ffc110" /><rect width="30" height="10" x="30" y="130" fill="#ffc110" /><rect width="120" height="10" x="100" y="130" fill="#ffc110" /><rect width="30" height="10" x="260" y="130" fill="#ffc110" /><rect width="10" height="10" x="30" y="140" fill="#ffc110" /><rect width="10" height="10" x="40" y="140" fill="#db8323" /><rect width="20" height="10" x="50" y="140" fill="#ffc110" /><rect width="140" height="10" x="90" y="140" fill="#ffc110" /><rect width="40" height="10" x="250" y="140" fill="#ffc110" /><rect width="20" height="10" x="30" y="150" fill="#ffc110" /><rect width="10" height="10" x="50" y="150" fill="#db8323" /><rect width="20" height="10" x="60" y="150" fill="#ffc110" /><rect width="140" height="10" x="90" y="150" fill="#ffc110" /><rect width="50" height="10" x="240" y="150" fill="#ffc110" /><rect width="30" height="10" x="30" y="160" fill="#ffc110" /><rect width="10" height="10" x="60" y="160" fill="#db8323" /><rect width="180" height="10" x="70" y="160" fill="#ffc110" /><rect width="10" height="10" x="250" y="160" fill="#db8323" /><rect width="30" height="10" x="260" y="160" fill="#ffc110" /><rect width="200" height="10" x="40" y="170" fill="#ffc110" /><rect width="10" height="10" x="240" y="170" fill="#db8323" /><rect width="30" height="10" x="250" y="170" fill="#ffc110" /><rect width="100" height="10" x="50" y="180" fill="#ffc110" /><rect width="30" height="10" x="150" y="180" fill="#db8323" /><rect width="90" height="10" x="180" y="180" fill="#ffc110" /><rect width="60" height="10" x="60" y="190" fill="#ffc110" /><rect width="10" height="10" x="120" y="190" fill="#fff0be" /><rect width="60" height="10" x="130" y="190" fill="#ffc110" /><rect width="10" height="10" x="190" y="190" fill="#fff0be" /><rect width="60" height="10" x="200" y="190" fill="#ffc110" /><rect width="40" height="10" x="70" y="200" fill="#ffc110" /><rect width="30" height="10" x="110" y="200" fill="#fff0be" /><rect width="50" height="10" x="140" y="200" fill="#ffc110" /><rect width="20" height="10" x="190" y="200" fill="#fff0be" /><rect width="40" height="10" x="210" y="200" fill="#ffc110" /><rect width="60" height="10" x="100" y="110" fill="#000000" /><rect width="60" height="10" x="170" y="110" fill="#000000" /><rect width="10" height="10" x="100" y="120" fill="#000000" /><rect width="20" height="10" x="110" y="120" fill="#ffffff" /><rect width="30" height="10" x="130" y="120" fill="#000000" /><rect width="10" height="10" x="170" y="120" fill="#000000" /><rect width="20" height="10" x="180" y="120" fill="#ffffff" /><rect width="30" height="10" x="200" y="120" fill="#000000" /><rect width="40" height="10" x="70" y="130" fill="#000000" /><rect width="20" height="10" x="110" y="130" fill="#ffffff" /><rect width="50" height="10" x="130" y="130" fill="#000000" /><rect width="20" height="10" x="180" y="130" fill="#ffffff" /><rect width="30" height="10" x="200" y="130" fill="#000000" /><rect width="10" height="10" x="70" y="140" fill="#000000" /><rect width="10" height="10" x="100" y="140" fill="#000000" /><rect width="20" height="10" x="110" y="140" fill="#ffffff" /><rect width="30" height="10" x="130" y="140" fill="#000000" /><rect width="10" height="10" x="170" y="140" fill="#000000" /><rect width="20" height="10" x="180" y="140" fill="#ffffff" /><rect width="30" height="10" x="200" y="140" fill="#000000" /><rect width="10" height="10" x="70" y="150" fill="#000000" /><rect width="10" height="10" x="100" y="150" fill="#000000" /><rect width="20" height="10" x="110" y="150" fill="#ffffff" /><rect width="30" height="10" x="130" y="150" fill="#000000" /><rect width="10" height="10" x="170" y="150" fill="#000000" /><rect width="20" height="10" x="180" y="150" fill="#ffffff" /><rect width="30" height="10" x="200" y="150" fill="#000000" /><rect width="60" height="10" x="100" y="160" fill="#000000" /><rect width="60" height="10" x="170" y="160" fill="#000000" /></svg>