<svg xmlns:xlink="http://www.w3.org/1999/xlink" width="320" height="320" viewBox="0 0 320 320" xmlns="http://www.w3.org/2000/svg" shape-rendering="crispEdges"><rect width="100%" height="100%" fill="#d5d7e1" /><rect width="140" height="10" x="90" y="210" fill="#9f21a0" /><rect width="140" height="10" x="90" y="220" fill="#9f21a0" /><rect width="140" height="10" x="90" y="230" fill="#9f21a0" /><rect width="140" height="10" x="90" y="240" fill="#9f21a0" /><rect width="20" height="10" x="90" y="250" fill="#9f21a0" /><rect width="110" height="10" x="120" y="250" fill="#9f21a0" /><rect width="20" height="10" x="90" y="260" fill="#9f21a0" /><rect width="110" height="10" x="120" y="260" fill="#9f21a0" /><rect width="20" height="10" x="90" y="270" fill="#9f21a0" /><rect width="110" height="10" x="120" y="270" fill="#9f21a0" /><rect width="20" height="10" x="90" y="280" fill="#9f21a0" /><rect width="110" height="10" x="120" y="280" fill="#9f21a0" /><rect width="20" height="10" x="90" y="290" fill="#9f21a0" /><rect width="110" height="10" x="120" y="290" fill="#9f21a0" /><rect width="20" height="10" x="90" y="300" fill="#9f21a0" /><rect width="110" height="10" x="120" y="300" fill="#9f21a0" /><rect width="20" height="10" x="90" y="310" fill="#9f21a0" /><rect width="110" height="10" x="120" y="310" fill="#9f21a0" /><rect width="10" height="10" x="130" y="220" fill="#000000" /><rect width="30" height="10" x="110" y="230" fill="#000000" /><rect width="10" height="10" x="110" y="240" fill="#000000" /><rect width="30" height="10" x="130" y="240" fill="#000000" /><rect width="20" height="10" x="120" y="250" fill="#000000" /><rect width="30" height="10" x="150" y="250" fill="#000000" /><rect width="20" height="10" x="140" y="260" fill="#000000" /><rect width="30" height="10" x="170" y="260" fill="#000000" /><rect width="20" height="10" x="160" y="270" fill="#000000" /><rect width="30" height="10" x="190" y="270" fill="#000000" /><rect width="10" height="10" x="190" y="280" fill="#000000" /><rect width="10" height="10" x="210" y="280" fill="#000000" /><rect width="10" height="10" x="210" y="290" fill="#000000" /><rect width="30" height="10" x="130" y="50" fill="#c16710" /><rect width="10" height="10" x="160" y="50" fill="#70e890" /><rect width="20" height="10" x="170" y="50" fill="#c16710" /><rect width="30" height="10" x="110" y="60" fill="#c16710" /><rect width="10" height="10" x="140" y="60" fill="#70e890" /><rect width="10" height="10" x="150" y="60" fill="#c16710" /><rect width="10" height="10" x="160" y="60" fill="#70e890" /><rect width="40" height="10" x="170" y="60" fill="#c16710" /><rect width="30" height="10" x="90" y="70" fill="#c16710" /><rect width="10" height="10" x="120" y="70" fill="#70e890" /><rect width="10" height="10" x="130" y="70" fill="#c16710" /><rect width="10" height="10" x="140" y="70" fill="#fff0be" /><rect width="10" height="10" x="150" y="70" fill="#70e890" /><rect width="10" height="10" x="160" y="70" fill="#fff0be" /><rect width="10" height="10" x="170" y="70" fill="#c16710" /><rect width="10" height="10" x="180" y="70" fill="#70e890" /><rect width="20" height="10" x="190" y="70" fill="#c16710" /><rect width="10" height="10" x="210" y="70" fill="#70e890" /><rect width="10" height="10" x="220" y="70" fill="#c16710" /><rect width="10" height="10" x="80" y="80" fill="#c16710" /><rect width="20" height="10" x="90" y="80" fill="#70e890" /><rect width="10" height="10" x="110" y="80" fill="#c16710" /><rect width="30" height="10" x="120" y="80" fill="#70e890" /><rect width="10" height="10" x="150" y="80" fill="#ae3208" /><rect width="20" height="10" x="160" y="80" fill="#fff0be" /><rect width="30" height="10" x="180" y="80" fill="#70e890" /><rect width="30" height="10" x="210" y="80" fill="#c16710" /><rect width="20" height="10" x="80" y="90" fill="#c16710" /><rect width="20" height="10" x="100" y="90" fill="#70e890" /><rect width="80" height="10" x="120" y="90" fill="#e7a32c" /><rect width="10" height="10" x="200" y="90" fill="#fff0be" /><rect width="30" height="10" x="210" y="90" fill="#c16710" /><rect width="10" height="10" x="60" y="100" fill="#c16710" /><rect width="10" height="10" x="70" y="100" fill="#70e890" /><rect width="10" height="10" x="80" y="100" fill="#c16710" /><rect width="10" height="10" x="90" y="100" fill="#fff0be" /><rect width="20" height="10" x="100" y="100" fill="#ae3208" /><rect width="10" height="10" x="120" y="100" fill="#e7a32c" /><rect width="10" height="10" x="130" y="100" fill="#d08b11" /><rect width="30" height="10" x="140" y="100" fill="#e7a32c" /><rect width="10" height="10" x="170" y="100" fill="#d08b11" /><rect width="20" height="10" x="180" y="100" fill="#e7a32c" /><rect width="20" height="10" x="200" y="100" fill="#ae3208" /><rect width="20" height="10" x="220" y="100" fill="#70e890" /><rect width="20" height="10" x="240" y="100" fill="#c16710" /><rect width="20" height="10" x="60" y="110" fill="#c16710" /><rect width="10" height="10" x="80" y="110" fill="#70e890" /><rect width="60" height="10" x="90" y="110" fill="#e7a32c" /><rect width="10" height="10" x="150" y="110" fill="#d08b11" /><rect width="70" height="10" x="160" y="110" fill="#e7a32c" /><rect width="30" height="10" x="230" y="110" fill="#c16710" /><rect width="10" height="10" x="60" y="120" fill="#c16710" /><rect width="10" height="10" x="70" y="120" fill="#ae3208" /><rect width="130" height="10" x="80" y="120" fill="#e7a32c" /><rect width="10" height="10" x="210" y="120" fill="#d08b11" /><rect width="20" height="10" x="220" y="120" fill="#e7a32c" /><rect width="10" height="10" x="240" y="120" fill="#70e890" /><rect width="10" height="10" x="250" y="120" fill="#c16710" /><rect width="10" height="10" x="50" y="130" fill="#c16710" /><rect width="10" height="10" x="60" y="130" fill="#fff0be" /><rect width="10" height="10" x="70" y="130" fill="#ae3208" /><rect width="10" height="10" x="80" y="130" fill="#e7a32c" /><rect width="10" height="10" x="90" y="130" fill="#d08b11" /><rect width="140" height="10" x="100" y="130" fill="#e7a32c" /><rect width="10" height="10" x="240" y="130" fill="#ae3208" /><rect width="10" height="10" x="250" y="130" fill="#fff0be" /><rect width="10" height="10" x="260" y="130" fill="#c16710" /><rect width="10" height="10" x="40" y="140" fill="#70e890" /><rect width="10" height="10" x="50" y="140" fill="#c16710" /><rect width="200" height="10" x="60" y="140" fill="#e7a32c" /><rect width="10" height="10" x="260" y="140" fill="#c16710" /><rect width="10" height="10" x="50" y="150" fill="#70e890" /><rect width="40" height="10" x="60" y="150" fill="#e7a32c" /><rect width="10" height="10" x="100" y="150" fill="#d08b11" /><rect width="120" height="10" x="110" y="150" fill="#e7a32c" /><rect width="10" height="10" x="230" y="150" fill="#d08b11" /><rect width="20" height="10" x="240" y="150" fill="#e7a32c" /><rect width="20" height="10" x="260" y="150" fill="#70e890" /><rect width="10" height="10" x="50" y="160" fill="#ae3208" /><rect width="200" height="10" x="60" y="160" fill="#e7a32c" /><rect width="10" height="10" x="260" y="160" fill="#ae3208" /><rect width="10" height="10" x="30" y="170" fill="#70e890" /><rect width="30" height="10" x="50" y="170" fill="#e7a32c" /><rect width="10" height="10" x="80" y="170" fill="#d08b11" /><rect width="130" height="10" x="90" y="170" fill="#e7a32c" /><rect width="10" height="10" x="220" y="170" fill="#d08b11" /><rect width="10" height="10" x="230" y="170" fill="#e7a32c" /><rect width="10" height="10" x="240" y="170" fill="#d08b11" /><rect width="20" height="10" x="250" y="170" fill="#e7a32c" /><rect width="10" height="10" x="40" y="180" fill="#70e890" /><rect width="220" height="10" x="50" y="180" fill="#e7a32c" /><rect width="10" height="10" x="270" y="180" fill="#70e890" /><rect width="50" height="10" x="50" y="190" fill="#e7a32c" /><rect width="10" height="10" x="100" y="190" fill="#d08b11" /><rect width="50" height="10" x="110" y="190" fill="#e7a32c" /><rect width="10" height="10" x="160" y="190" fill="#d08b11" /><rect width="70" height="10" x="170" y="190" fill="#e7a32c" /><rect width="10" height="10" x="240" y="190" fill="#d08b11" /><rect width="20" height="10" x="250" y="190" fill="#e7a32c" /><rect width="10" height="10" x="280" y="190" fill="#70e890" /><rect width="200" height="10" x="60" y="200" fill="#e7a32c" /><rect width="10" height="10" x="260" y="200" fill="#70e890" /><rect width="60" height="10" x="100" y="110" fill="#5648ed" /><rect width="60" height="10" x="170" y="110" fill="#5648ed" /><rect width="10" height="10" x="100" y="120" fill="#5648ed" /><rect width="20" height="10" x="110" y="120" fill="#ffffff" /><rect width="20" height="10" x="130" y="120" fill="#000000" /><rect width="10" height="10" x="150" y="120" fill="#5648ed" /><rect width="10" height="10" x="170" y="120" fill="#5648ed" /><rect width="20" height="10" x="180" y="120" fill="#ffffff" /><rect width="20" height="10" x="200" y="120" fill="#000000" /><rect width="10" height="10" x="220" y="120" fill="#5648ed" /><rect width="40" height="10" x="70" y="130" fill="#5648ed" /><rect width="20" height="10" x="110" y="130" fill="#ffffff" /><rect width="20" height="10" x="130" y="130" fill="#000000" /><rect width="30" height="10" x="150" y="130" fill="#5648ed" /><rect width="20" height="10" x="180" y="130" fill="#ffffff" /><rect width="20" height="10" x="200" y="130" fill="#000000" /><rect width="10" height="10" x="220" y="130" fill="#5648ed" /><rect width="10" height="10" x="70" y="140" fill="#5648ed" /><rect width="10" height="10" x="100" y="140" fill="#5648ed" /><rect width="20" height="10" x="110" y="140" fill="#ffffff" /><rect width="20" height="10" x="130" y="140" fill="#000000" /><rect width="10" height="10" x="150" y="140" fill="#5648ed" /><rect width="10" height="10" x="170" y="140" fill="#5648ed" /><rect width="20" height="10" x="180" y="140" fill="#ffffff" /><rect width="20" height="10" x="200" y="140" fill="#000000" /><rect width="10" height="10" x="220" y="140" fill="#5648ed" /><rect width="10" height="10" x="70" y="150" fill="#5648ed" /><rect width="10" height="10" x="100" y="150" fill="#5648ed" /><rect width="20" height="10" x="110" y="150" fill="#ffffff" /><rect width="20" height="10" x="130" y="150" fill="#000000" /><rect width="10" height="10" x="150" y="150" fill="#5648ed" /><rect width="10" height="10" x="170" y="150" fill="#5648ed" /><rect width="20" height="10" x="180" y="150" fill="#ffffff" /><rect width="20" height="10" x="200" y="150" fill="#000000" /><rect width="10" height="10" x="220" y="150" fill="#5648ed" /><rect width="60" height="10" x="100" y="160" fill="#5648ed" /><rect width="60" height="10" x="170" y="160" fill="#5648ed" /></svg>