<svg xmlns:xlink="http://www.w3.org/1999/xlink" width="320" height="320" viewBox="0 0 320 320" xmlns="http://www.w3.org/2000/svg" shape-rendering="crispEdges"><rect width="100%" height="100%" fill="#d5d7e1" /><rect width="140" height="10" x="90" y="210" fill="#cbc1bc" /><rect width="140" height="10" x="90" y="220" fill="#cbc1bc" /><rect width="140" height="10" x="90" y="230" fill="#cbc1bc" /><rect width="140" height="10" x="90" y="240" fill="#cbc1bc" /><rect width="20" height="10" x="90" y="250" fill="#cbc1bc" /><rect width="110" height="10" x="120" y="250" fill="#cbc1bc" /><rect width="20" height="10" x="90" y="260" fill="#cbc1bc" /><rect width="110" height="10" x="120" y="260" fill="#cbc1bc" /><rect width="20" height="10" x="90" y="270" fill="#cbc1bc" /><rect width="110" height="10" x="120" y="270" fill="#cbc1bc" /><rect width="20" height="10" x="90" y="280" fill="#cbc1bc" /><rect width="110" height="10" x="120" y="280" fill="#cbc1bc" /><rect width="20" height="10" x="90" y="290" fill="#cbc1bc" /><rect width="110" height="10" x="120" y="290" fill="#cbc1bc" /><rect width="20" height="10" x="90" y="300" fill="#cbc1bc" /><rect width="110" height="10" x="120" y="300" fill="#cbc1bc" /><rect width="20" height="10" x="90" y="310" fill="#cbc1bc" /><rect width="110" height="10" x="120" y="310" fill="#cbc1bc" /><rect width="70" height="10" x="130" y="230" fill="#26b1f3" /><rect width="10" height="10" x="130" y="240" fill="#26b1f3" /><rect width="20" height="10" x="150" y="240" fill="#26b1f3" /><rect width="20" height="10" x="180" y="240" fill="#26b1f3" /><rect width="20" height="10" x="150" y="250" fill="#26b1f3" /><rect width="20" height="10" x="180" y="250" fill="#26b1f3" /><rect width="70" height="10" x="130" y="270" fill="#34ac80" /><rect width="10" height="10" x="130" y="280" fill="#34ac80" /><rect width="20" height="10" x="150" y="280" fill="#34ac80" /><rect width="20" height="10" x="180" y="280" fill="#34ac80" /><rect width="20" height="10" x="150" y="290" fill="#34ac80" /><rect width="20" height="10" x="180" y="290" fill="#34ac80" /><rect width="120" height="10" x="100" y="30" fill="#b2a8a5" /><rect width="60" height="10" x="90" y="40" fill="#fe500c" /><rect width="50" height="10" x="150" y="40" fill="#ffef16" /><rect width="30" height="10" x="200" y="40" fill="#fe500c" /><rect width="50" height="10" x="80" y="50" fill="#fe500c" /><rect width="10" height="10" x="130" y="50" fill="#ffef16" /><rect width="30" height="10" x="140" y="50" fill="#fe500c" /><rect width="40" height="10" x="170" y="50" fill="#ffef16" /><rect width="30" height="10" x="210" y="50" fill="#fe500c" /><rect width="20" height="10" x="80" y="60" fill="#ffef16" /><rect width="20" height="10" x="100" y="60" fill="#fe500c" /><rect width="10" height="10" x="120" y="60" fill="#ffef16" /><rect width="10" height="10" x="130" y="60" fill="#fe500c" /><rect width="10" height="10" x="140" y="60" fill="#ffef16" /><rect width="30" height="10" x="150" y="60" fill="#fe500c" /><rect width="40" height="10" x="180" y="60" fill="#ffef16" /><rect width="20" height="10" x="220" y="60" fill="#fe500c" /><rect width="20" height="10" x="80" y="70" fill="#fe500c" /><rect width="10" height="10" x="100" y="70" fill="#ffef16" /><rect width="20" height="10" x="110" y="70" fill="#fe500c" /><rect width="10" height="10" x="130" y="70" fill="#ffef16" /><rect width="40" height="10" x="140" y="70" fill="#fe500c" /><rect width="50" height="10" x="180" y="70" fill="#ffef16" /><rect width="10" height="10" x="230" y="70" fill="#fe500c" /><rect width="20" height="10" x="80" y="80" fill="#fe500c" /><rect width="10" height="10" x="100" y="80" fill="#ffef16" /><rect width="80" height="10" x="110" y="80" fill="#fe500c" /><rect width="40" height="10" x="190" y="80" fill="#ffef16" /><rect width="10" height="10" x="230" y="80" fill="#fe500c" /><rect width="20" height="10" x="80" y="90" fill="#ffef16" /><rect width="50" height="10" x="100" y="90" fill="#fe500c" /><rect width="10" height="10" x="150" y="90" fill="#ffef16" /><rect width="30" height="10" x="160" y="90" fill="#fe500c" /><rect width="40" height="10" x="190" y="90" fill="#ffef16" /><rect width="10" height="10" x="230" y="90" fill="#fe500c" /><rect width="100" height="10" x="80" y="100" fill="#fe500c" /><rect width="50" height="10" x="180" y="100" fill="#ffef16" /><rect width="10" height="10" x="230" y="100" fill="#fe500c" /><rect width="100" height="10" x="80" y="110" fill="#fe500c" /><rect width="40" height="10" x="180" y="110" fill="#ffef16" /><rect width="20" height="10" x="220" y="110" fill="#fe500c" /><rect width="90" height="10" x="80" y="120" fill="#fe500c" /><rect width="50" height="10" x="170" y="120" fill="#ffef16" /><rect width="20" height="10" x="220" y="120" fill="#fe500c" /><rect width="90" height="10" x="80" y="130" fill="#fe500c" /><rect width="40" height="10" x="170" y="130" fill="#ffef16" /><rect width="30" height="10" x="210" y="130" fill="#fe500c" /><rect width="80" height="10" x="80" y="140" fill="#fe500c" /><rect width="40" height="10" x="160" y="140" fill="#ffef16" /><rect width="40" height="10" x="200" y="140" fill="#fe500c" /><rect width="70" height="10" x="80" y="150" fill="#fe500c" /><rect width="40" height="10" x="150" y="150" fill="#ffef16" /><rect width="50" height="10" x="190" y="150" fill="#fe500c" /><rect width="50" height="10" x="80" y="160" fill="#fe500c" /><rect width="50" height="10" x="130" y="160" fill="#ffef16" /><rect width="60" height="10" x="180" y="160" fill="#fe500c" /><rect width="30" height="10" x="80" y="170" fill="#fe500c" /><rect width="40" height="10" x="110" y="170" fill="#ffef16" /><rect width="90" height="10" x="150" y="170" fill="#fe500c" /><rect width="20" height="10" x="80" y="180" fill="#fe500c" /><rect width="30" height="10" x="100" y="180" fill="#ffef16" /><rect width="30" height="10" x="130" y="180" fill="#fe500c" /><rect width="10" height="10" x="160" y="180" fill="#ffef16" /><rect width="10" height="10" x="170" y="180" fill="#000000" /><rect width="20" height="10" x="180" y="180" fill="#ffffff" /><rect width="10" height="10" x="200" y="180" fill="#000000" /><rect width="10" height="10" x="210" y="180" fill="#ffef16" /><rect width="20" height="10" x="220" y="180" fill="#fe500c" /><rect width="20" height="10" x="90" y="190" fill="#ffef16" /><rect width="120" height="10" x="110" y="190" fill="#fe500c" /><rect width="120" height="10" x="100" y="200" fill="#b2a8a5" /><rect width="60" height="10" x="100" y="110" fill="#ffc110" /><rect width="60" height="10" x="170" y="110" fill="#f98f30" /><rect width="10" height="10" x="100" y="120" fill="#ffc110" /><rect width="20" height="10" x="110" y="120" fill="#ffffff" /><rect width="20" height="10" x="130" y="120" fill="#000000" /><rect width="10" height="10" x="150" y="120" fill="#ffc110" /><rect width="10" height="10" x="170" y="120" fill="#f98f30" /><rect width="20" height="10" x="180" y="120" fill="#ffffff" /><rect width="20" height="10" x="200" y="120" fill="#000000" /><rect width="10" height="10" x="220" y="120" fill="#f98f30" /><rect width="30" height="10" x="70" y="130" fill="#f98f30" /><rect width="10" height="10" x="100" y="130" fill="#ffc110" /><rect width="20" height="10" x="110" y="130" fill="#ffffff" /><rect width="20" height="10" x="130" y="130" fill="#000000" /><rect width="10" height="10" x="150" y="130" fill="#ffc110" /><rect width="20" height="10" x="160" y="130" fill="#f98f30" /><rect width="20" height="10" x="180" y="130" fill="#ffffff" /><rect width="20" height="10" x="200" y="130" fill="#000000" /><rect width="10" height="10" x="220" y="130" fill="#f98f30" /><rect width="10" height="10" x="70" y="140" fill="#f98f30" /><rect width="10" height="10" x="100" y="140" fill="#ffc110" /><rect width="20" height="10" x="110" y="140" fill="#ffffff" /><rect width="20" height="10" x="130" y="140" fill="#000000" /><rect width="10" height="10" x="150" y="140" fill="#ffc110" /><rect width="10" height="10" x="170" y="140" fill="#f98f30" /><rect width="20" height="10" x="180" y="140" fill="#ffffff" /><rect width="20" height="10" x="200" y="140" fill="#000000" /><rect width="10" height="10" x="220" y="140" fill="#f98f30" /><rect width="10" height="10" x="70" y="150" fill="#f98f30" /><rect width="10" height="10" x="100" y="150" fill="#ffc110" /><rect width="20" height="10" x="110" y="150" fill="#ffffff" /><rect width="20" height="10" x="130" y="150" fill="#000000" /><rect width="10" height="10" x="150" y="150" fill="#ffc110" /><rect width="10" height="10" x="170" y="150" fill="#f98f30" /><rect width="20" height="10" x="180" y="150" fill="#ffffff" /><rect width="20" height="10" x="200" y="150" fill="#000000" /><rect width="10" height="10" x="220" y="150" fill="#f98f30" /><rect width="60" height="10" x="100" y="160" fill="#ffc110" /><rect width="60" height="10" x="170" y="160" fill="#f98f30" /></svg>