<svg xmlns:xlink="http://www.w3.org/1999/xlink" width="320" height="320" viewBox="0 0 320 320" xmlns="http://www.w3.org/2000/svg" shape-rendering="crispEdges"><rect width="100%" height="100%" fill="#e1d7d5" /><rect width="140" height="10" x="90" y="210" fill="#5a423f" /><rect width="140" height="10" x="90" y="220" fill="#5a423f" /><rect width="140" height="10" x="90" y="230" fill="#5a423f" /><rect width="140" height="10" x="90" y="240" fill="#5a423f" /><rect width="20" height="10" x="90" y="250" fill="#5a423f" /><rect width="110" height="10" x="120" y="250" fill="#5a423f" /><rect width="20" height="10" x="90" y="260" fill="#5a423f" /><rect width="110" height="10" x="120" y="260" fill="#5a423f" /><rect width="20" height="10" x="90" y="270" fill="#5a423f" /><rect width="110" height="10" x="120" y="270" fill="#5a423f" /><rect width="20" height="10" x="90" y="280" fill="#5a423f" /><rect width="110" height="10" x="120" y="280" fill="#5a423f" /><rect width="20" height="10" x="90" y="290" fill="#5a423f" /><rect width="110" height="10" x="120" y="290" fill="#5a423f" /><rect width="20" height="10" x="90" y="300" fill="#5a423f" /><rect width="110" height="10" x="120" y="300" fill="#5a423f" /><rect width="20" height="10" x="90" y="310" fill="#5a423f" /><rect width="110" height="10" x="120" y="310" fill="#5a423f" /><rect width="20" height="10" x="120" y="210" fill="#ffffff" /><rect width="20" height="10" x="180" y="210" fill="#ffffff" /><rect width="20" height="10" x="120" y="220" fill="#ffffff" /><rect width="20" height="10" x="180" y="220" fill="#ffffff" /><rect width="20" height="10" x="90" y="240" fill="#ffffff" /><rect width="20" height="10" x="150" y="240" fill="#ffffff" /><rect width="20" height="10" x="210" y="240" fill="#ffffff" /><rect width="20" height="10" x="90" y="250" fill="#ffffff" /><rect width="20" height="10" x="150" y="250" fill="#ffffff" /><rect width="20" height="10" x="210" y="250" fill="#ffffff" /><rect width="20" height="10" x="120" y="270" fill="#ffffff" /><rect width="20" height="10" x="180" y="270" fill="#ffffff" /><rect width="20" height="10" x="120" y="280" fill="#ffffff" /><rect width="20" height="10" x="180" y="280" fill="#ffffff" /><rect width="20" height="10" x="90" y="300" fill="#ffffff" /><rect width="20" height="10" x="150" y="300" fill="#ffffff" /><rect width="20" height="10" x="210" y="300" fill="#ffffff" /><rect width="20" height="10" x="90" y="310" fill="#ffffff" /><rect width="20" height="10" x="150" y="310" fill="#ffffff" /><rect width="20" height="10" x="210" y="310" fill="#ffffff" /><rect width="40" height="10" x="160" y="30" fill="#909b0e" /><rect width="50" height="10" x="160" y="40" fill="#909b0e" /><rect width="40" height="10" x="70" y="50" fill="#909b0e" /><rect width="50" height="10" x="160" y="50" fill="#909b0e" /><rect width="40" height="10" x="70" y="60" fill="#909b0e" /><rect width="20" height="10" x="130" y="60" fill="#909b0e" /><rect width="50" height="10" x="160" y="60" fill="#909b0e" /><rect width="40" height="10" x="70" y="70" fill="#909b0e" /><rect width="20" height="10" x="130" y="70" fill="#909b0e" /><rect width="50" height="10" x="160" y="70" fill="#909b0e" /><rect width="20" height="10" x="40" y="80" fill="#909b0e" /><rect width="40" height="10" x="70" y="80" fill="#909b0e" /><rect width="20" height="10" x="130" y="80" fill="#909b0e" /><rect width="50" height="10" x="160" y="80" fill="#909b0e" /><rect width="20" height="10" x="40" y="90" fill="#909b0e" /><rect width="40" height="10" x="70" y="90" fill="#909b0e" /><rect width="10" height="10" x="130" y="90" fill="#909b0e" /><rect width="20" height="10" x="140" y="90" fill="#6b7212" /><rect width="50" height="10" x="160" y="90" fill="#909b0e" /><rect width="20" height="10" x="230" y="90" fill="#909b0e" /><rect width="20" height="10" x="260" y="90" fill="#909b0e" /><rect width="10" height="10" x="50" y="100" fill="#909b0e" /><rect width="10" height="10" x="60" y="100" fill="#6b7212" /><rect width="40" height="10" x="70" y="100" fill="#909b0e" /><rect width="50" height="10" x="160" y="100" fill="#909b0e" /><rect width="20" height="10" x="230" y="100" fill="#909b0e" /><rect width="20" height="10" x="260" y="100" fill="#909b0e" /><rect width="40" height="10" x="70" y="110" fill="#909b0e" /><rect width="50" height="10" x="160" y="110" fill="#909b0e" /><rect width="30" height="10" x="220" y="110" fill="#909b0e" /><rect width="20" height="10" x="260" y="110" fill="#909b0e" /><rect width="30" height="10" x="80" y="120" fill="#909b0e" /><rect width="40" height="10" x="160" y="120" fill="#909b0e" /><rect width="30" height="10" x="220" y="120" fill="#909b0e" /><rect width="10" height="10" x="250" y="120" fill="#6b7212" /><rect width="10" height="10" x="260" y="120" fill="#909b0e" /><rect width="20" height="10" x="40" y="130" fill="#909b0e" /><rect width="40" height="10" x="80" y="130" fill="#909b0e" /><rect width="10" height="10" x="140" y="130" fill="#909b0e" /><rect width="40" height="10" x="160" y="130" fill="#909b0e" /><rect width="30" height="10" x="220" y="130" fill="#909b0e" /><rect width="20" height="10" x="40" y="140" fill="#909b0e" /><rect width="40" height="10" x="80" y="140" fill="#909b0e" /><rect width="10" height="10" x="140" y="140" fill="#909b0e" /><rect width="40" height="10" x="160" y="140" fill="#909b0e" /><rect width="20" height="10" x="220" y="140" fill="#909b0e" /><rect width="20" height="10" x="40" y="150" fill="#909b0e" /><rect width="40" height="10" x="80" y="150" fill="#909b0e" /><rect width="10" height="10" x="140" y="150" fill="#909b0e" /><rect width="10" height="10" x="150" y="150" fill="#6b7212" /><rect width="40" height="10" x="160" y="150" fill="#909b0e" /><rect width="20" height="10" x="220" y="150" fill="#909b0e" /><rect width="30" height="10" x="40" y="160" fill="#909b0e" /><rect width="40" height="10" x="80" y="160" fill="#909b0e" /><rect width="10" height="10" x="150" y="160" fill="#6b7212" /><rect width="40" height="10" x="160" y="160" fill="#909b0e" /><rect width="30" height="10" x="210" y="160" fill="#909b0e" /><rect width="20" height="10" x="50" y="170" fill="#909b0e" /><rect width="10" height="10" x="70" y="170" fill="#6b7212" /><rect width="40" height="10" x="80" y="170" fill="#909b0e" /><rect width="40" height="10" x="120" y="170" fill="#6b7212" /><rect width="40" height="10" x="160" y="170" fill="#909b0e" /><rect width="30" height="10" x="210" y="170" fill="#909b0e" /><rect width="10" height="10" x="60" y="180" fill="#909b0e" /><rect width="10" height="10" x="70" y="180" fill="#6b7212" /><rect width="70" height="10" x="80" y="180" fill="#909b0e" /><rect width="20" height="10" x="150" y="180" fill="#6b7212" /><rect width="30" height="10" x="170" y="180" fill="#909b0e" /><rect width="20" height="10" x="210" y="180" fill="#909b0e" /><rect width="20" height="10" x="80" y="190" fill="#909b0e" /><rect width="30" height="10" x="100" y="190" fill="#000000" /><rect width="30" height="10" x="130" y="190" fill="#909b0e" /><rect width="10" height="10" x="160" y="190" fill="#6b7212" /><rect width="30" height="10" x="170" y="190" fill="#909b0e" /><rect width="10" height="10" x="200" y="190" fill="#6b7212" /><rect width="20" height="10" x="210" y="190" fill="#909b0e" /><rect width="70" height="10" x="90" y="200" fill="#909b0e" /><rect width="10" height="10" x="160" y="200" fill="#6b7212" /><rect width="30" height="10" x="170" y="200" fill="#909b0e" /><rect width="10" height="10" x="200" y="200" fill="#6b7212" /><rect width="20" height="10" x="210" y="200" fill="#909b0e" /><rect width="60" height="10" x="100" y="110" fill="#068940" /><rect width="60" height="10" x="170" y="110" fill="#257ced" /><rect width="10" height="10" x="100" y="120" fill="#068940" /><rect width="20" height="10" x="110" y="120" fill="#ffffff" /><rect width="20" height="10" x="130" y="120" fill="#000000" /><rect width="10" height="10" x="150" y="120" fill="#068940" /><rect width="10" height="10" x="170" y="120" fill="#257ced" /><rect width="20" height="10" x="180" y="120" fill="#ffffff" /><rect width="20" height="10" x="200" y="120" fill="#000000" /><rect width="10" height="10" x="220" y="120" fill="#257ced" /><rect width="30" height="10" x="70" y="130" fill="#257ced" /><rect width="10" height="10" x="100" y="130" fill="#068940" /><rect width="20" height="10" x="110" y="130" fill="#ffffff" /><rect width="20" height="10" x="130" y="130" fill="#000000" /><rect width="10" height="10" x="150" y="130" fill="#068940" /><rect width="20" height="10" x="160" y="130" fill="#257ced" /><rect width="20" height="10" x="180" y="130" fill="#ffffff" /><rect width="20" height="10" x="200" y="130" fill="#000000" /><rect width="10" height="10" x="220" y="130" fill="#257ced" /><rect width="10" height="10" x="70" y="140" fill="#257ced" /><rect width="10" height="10" x="100" y="140" fill="#068940" /><rect width="20" height="10" x="110" y="140" fill="#ffffff" /><rect width="20" height="10" x="130" y="140" fill="#000000" /><rect width="10" height="10" x="150" y="140" fill="#068940" /><rect width="10" height="10" x="170" y="140" fill="#257ced" /><rect width="20" height="10" x="180" y="140" fill="#ffffff" /><rect width="20" height="10" x="200" y="140" fill="#000000" /><rect width="10" height="10" x="220" y="140" fill="#257ced" /><rect width="10" height="10" x="70" y="150" fill="#257ced" /><rect width="10" height="10" x="100" y="150" fill="#068940" /><rect width="20" height="10" x="110" y="150" fill="#ffffff" /><rect width="20" height="10" x="130" y="150" fill="#000000" /><rect width="10" height="10" x="150" y="150" fill="#068940" /><rect width="10" height="10" x="170" y="150" fill="#257ced" /><rect width="20" height="10" x="180" y="150" fill="#ffffff" /><rect width="20" height="10" x="200" y="150" fill="#000000" /><rect width="10" height="10" x="220" y="150" fill="#257ced" /><rect width="60" height="10" x="100" y="160" fill="#068940" /><rect width="60" height="10" x="170" y="160" fill="#257ced" /></svg>