<svg xmlns:xlink="http://www.w3.org/1999/xlink" width="320" height="320" viewBox="0 0 320 320" xmlns="http://www.w3.org/2000/svg" shape-rendering="crispEdges"><rect width="100%" height="100%" fill="#d5d7e1" /><rect width="140" height="10" x="90" y="210" fill="#867c1d" /><rect width="140" height="10" x="90" y="220" fill="#867c1d" /><rect width="140" height="10" x="90" y="230" fill="#867c1d" /><rect width="140" height="10" x="90" y="240" fill="#867c1d" /><rect width="20" height="10" x="90" y="250" fill="#867c1d" /><rect width="110" height="10" x="120" y="250" fill="#867c1d" /><rect width="20" height="10" x="90" y="260" fill="#867c1d" /><rect width="110" height="10" x="120" y="260" fill="#867c1d" /><rect width="20" height="10" x="90" y="270" fill="#867c1d" /><rect width="110" height="10" x="120" y="270" fill="#867c1d" /><rect width="20" height="10" x="90" y="280" fill="#867c1d" /><rect width="110" height="10" x="120" y="280" fill="#867c1d" /><rect width="20" height="10" x="90" y="290" fill="#867c1d" /><rect width="110" height="10" x="120" y="290" fill="#867c1d" /><rect width="20" height="10" x="90" y="300" fill="#867c1d" /><rect width="110" height="10" x="120" y="300" fill="#867c1d" /><rect width="20" height="10" x="90" y="310" fill="#867c1d" /><rect width="110" height="10" x="120" y="310" fill="#867c1d" /><rect width="10" height="10" x="140" y="230" fill="#62616d" /><rect width="20" height="10" x="130" y="240" fill="#62616d" /><rect width="10" height="10" x="140" y="250" fill="#62616d" /><rect width="10" height="10" x="180" y="250" fill="#62616d" /><rect width="10" height="10" x="140" y="260" fill="#62616d" /><rect width="10" height="10" x="170" y="260" fill="#62616d" /><rect width="10" height="10" x="160" y="270" fill="#62616d" /><rect width="10" height="10" x="150" y="280" fill="#62616d" /><rect width="20" height="10" x="180" y="280" fill="#62616d" /><rect width="10" height="10" x="140" y="290" fill="#62616d" /><rect width="10" height="10" x="170" y="290" fill="#62616d" /><rect width="10" height="10" x="190" y="290" fill="#62616d" /><rect width="10" height="10" x="170" y="300" fill="#62616d" /><rect width="10" height="10" x="190" y="300" fill="#62616d" /><rect width="10" height="10" x="210" y="40" fill="#74580d" /><rect width="30" height="10" x="180" y="50" fill="#cd916d" /><rect width="10" height="10" x="210" y="50" fill="#74580d" /><rect width="20" height="10" x="200" y="60" fill="#74580d" /><rect width="40" height="10" x="170" y="70" fill="#74580d" /><rect width="60" height="10" x="130" y="80" fill="#74580d" /><rect width="20" height="10" x="220" y="80" fill="#e4a499" /><rect width="90" height="10" x="60" y="90" fill="#74580d" /><rect width="50" height="10" x="200" y="90" fill="#e4a499" /><rect width="200" height="10" x="60" y="100" fill="#cd916d" /><rect width="200" height="10" x="60" y="110" fill="#a3baed" /><rect width="200" height="10" x="60" y="120" fill="#a3baed" /><rect width="200" height="10" x="60" y="130" fill="#a3baed" /><rect width="200" height="10" x="60" y="140" fill="#a3baed" /><rect width="200" height="10" x="60" y="150" fill="#235476" /><rect width="200" height="10" x="60" y="160" fill="#5648ed" /><rect width="200" height="10" x="60" y="170" fill="#5648ed" /><rect width="50" height="10" x="60" y="180" fill="#5648ed" /><rect width="10" height="10" x="110" y="180" fill="#1f1d29" /><rect width="10" height="10" x="120" y="180" fill="#fff0ee" /><rect width="10" height="10" x="130" y="180" fill="#1f1d29" /><rect width="10" height="10" x="140" y="180" fill="#fff0ee" /><rect width="10" height="10" x="150" y="180" fill="#1f1d29" /><rect width="10" height="10" x="160" y="180" fill="#fff0ee" /><rect width="10" height="10" x="170" y="180" fill="#1f1d29" /><rect width="10" height="10" x="180" y="180" fill="#fff0ee" /><rect width="70" height="10" x="190" y="180" fill="#5648ed" /><rect width="200" height="10" x="60" y="190" fill="#5648ed" /><rect width="200" height="10" x="60" y="200" fill="#cd916d" /><rect width="60" height="10" x="100" y="110" fill="#d7d3cd" /><rect width="60" height="10" x="170" y="110" fill="#d7d3cd" /><rect width="10" height="10" x="100" y="120" fill="#d7d3cd" /><rect width="20" height="10" x="110" y="120" fill="#fdf8ff" /><rect width="20" height="10" x="130" y="120" fill="#000000" /><rect width="10" height="10" x="150" y="120" fill="#d7d3cd" /><rect width="10" height="10" x="170" y="120" fill="#d7d3cd" /><rect width="20" height="10" x="180" y="120" fill="#fdf8ff" /><rect width="20" height="10" x="200" y="120" fill="#000000" /><rect width="10" height="10" x="220" y="120" fill="#d7d3cd" /><rect width="40" height="10" x="70" y="130" fill="#d7d3cd" /><rect width="20" height="10" x="110" y="130" fill="#fdf8ff" /><rect width="20" height="10" x="130" y="130" fill="#000000" /><rect width="30" height="10" x="150" y="130" fill="#d7d3cd" /><rect width="20" height="10" x="180" y="130" fill="#fdf8ff" /><rect width="20" height="10" x="200" y="130" fill="#000000" /><rect width="10" height="10" x="220" y="130" fill="#d7d3cd" /><rect width="10" height="10" x="70" y="140" fill="#d7d3cd" /><rect width="10" height="10" x="100" y="140" fill="#d7d3cd" /><rect width="20" height="10" x="110" y="140" fill="#fdf8ff" /><rect width="20" height="10" x="130" y="140" fill="#000000" /><rect width="10" height="10" x="150" y="140" fill="#d7d3cd" /><rect width="10" height="10" x="170" y="140" fill="#d7d3cd" /><rect width="20" height="10" x="180" y="140" fill="#fdf8ff" /><rect width="20" height="10" x="200" y="140" fill="#000000" /><rect width="10" height="10" x="220" y="140" fill="#d7d3cd" /><rect width="10" height="10" x="70" y="150" fill="#d7d3cd" /><rect width="10" height="10" x="100" y="150" fill="#d7d3cd" /><rect width="20" height="10" x="110" y="150" fill="#fdf8ff" /><rect width="20" height="10" x="130" y="150" fill="#000000" /><rect width="10" height="10" x="150" y="150" fill="#d7d3cd" /><rect width="10" height="10" x="170" y="150" fill="#d7d3cd" /><rect width="20" height="10" x="180" y="150" fill="#fdf8ff" /><rect width="20" height="10" x="200" y="150" fill="#000000" /><rect width="10" height="10" x="220" y="150" fill="#d7d3cd" /><rect width="60" height="10" x="100" y="160" fill="#d7d3cd" /><rect width="60" height="10" x="170" y="160" fill="#d7d3cd" /></svg>