<svg xmlns:xlink="http://www.w3.org/1999/xlink" width="320" height="320" viewBox="0 0 320 320" xmlns="http://www.w3.org/2000/svg" shape-rendering="crispEdges"><rect width="100%" height="100%" fill="#d5d7e1" /><rect width="140" height="10" x="90" y="210" fill="#80a72d" /><rect width="140" height="10" x="90" y="220" fill="#80a72d" /><rect width="140" height="10" x="90" y="230" fill="#80a72d" /><rect width="140" height="10" x="90" y="240" fill="#80a72d" /><rect width="20" height="10" x="90" y="250" fill="#80a72d" /><rect width="110" height="10" x="120" y="250" fill="#80a72d" /><rect width="20" height="10" x="90" y="260" fill="#80a72d" /><rect width="110" height="10" x="120" y="260" fill="#80a72d" /><rect width="20" height="10" x="90" y="270" fill="#80a72d" /><rect width="110" height="10" x="120" y="270" fill="#80a72d" /><rect width="20" height="10" x="90" y="280" fill="#80a72d" /><rect width="110" height="10" x="120" y="280" fill="#80a72d" /><rect width="20" height="10" x="90" y="290" fill="#80a72d" /><rect width="110" height="10" x="120" y="290" fill="#80a72d" /><rect width="20" height="10" x="90" y="300" fill="#80a72d" /><rect width="110" height="10" x="120" y="300" fill="#80a72d" /><rect width="20" height="10" x="90" y="310" fill="#80a72d" /><rect width="110" height="10" x="120" y="310" fill="#80a72d" /><rect width="30" height="10" x="130" y="210" fill="#e5e5de" /><rect width="30" height="10" x="170" y="210" fill="#e5e5de" /><rect width="20" height="10" x="210" y="210" fill="#e5e5de" /><rect width="30" height="10" x="90" y="220" fill="#e5e5de" /><rect width="30" height="10" x="130" y="220" fill="#e5e5de" /><rect width="30" height="10" x="170" y="220" fill="#e5e5de" /><rect width="30" height="10" x="90" y="230" fill="#e5e5de" /><rect width="30" height="10" x="130" y="230" fill="#e5e5de" /><rect width="30" height="10" x="90" y="240" fill="#e5e5de" /><rect width="30" height="10" x="190" y="240" fill="#e5e5de" /><rect width="30" height="10" x="150" y="250" fill="#e5e5de" /><rect width="30" height="10" x="190" y="250" fill="#e5e5de" /><rect width="20" height="10" x="120" y="260" fill="#e5e5de" /><rect width="30" height="10" x="150" y="260" fill="#e5e5de" /><rect width="30" height="10" x="190" y="260" fill="#e5e5de" /><rect width="10" height="10" x="90" y="270" fill="#e5e5de" /><rect width="20" height="10" x="120" y="270" fill="#e5e5de" /><rect width="30" height="10" x="150" y="270" fill="#e5e5de" /><rect width="10" height="10" x="90" y="280" fill="#e5e5de" /><rect width="20" height="10" x="120" y="280" fill="#e5e5de" /><rect width="20" height="10" x="210" y="280" fill="#e5e5de" /><rect width="10" height="10" x="90" y="290" fill="#e5e5de" /><rect width="30" height="10" x="170" y="290" fill="#e5e5de" /><rect width="20" height="10" x="210" y="290" fill="#e5e5de" /><rect width="30" height="10" x="130" y="300" fill="#e5e5de" /><rect width="30" height="10" x="170" y="300" fill="#e5e5de" /><rect width="20" height="10" x="210" y="300" fill="#e5e5de" /><rect width="20" height="10" x="90" y="310" fill="#e5e5de" /><rect width="30" height="10" x="130" y="310" fill="#e5e5de" /><rect width="30" height="10" x="170" y="310" fill="#e5e5de" /><rect width="10" height="10" x="130" y="30" fill="#e11833" /><rect width="30" height="10" x="150" y="30" fill="#e11833" /><rect width="70" height="10" x="120" y="40" fill="#e11833" /><rect width="80" height="10" x="110" y="50" fill="#e11833" /><rect width="20" height="10" x="100" y="60" fill="#f9f4e6" /><rect width="70" height="10" x="120" y="60" fill="#e11833" /><rect width="30" height="10" x="190" y="60" fill="#f9f4e6" /><rect width="60" height="10" x="90" y="70" fill="#f9f4e6" /><rect width="40" height="10" x="150" y="70" fill="#e11833" /><rect width="40" height="10" x="190" y="70" fill="#f9f4e6" /><rect width="90" height="10" x="90" y="80" fill="#f9f4e6" /><rect width="10" height="10" x="180" y="80" fill="#e11833" /><rect width="40" height="10" x="190" y="80" fill="#f9f4e6" /><rect width="160" height="10" x="80" y="90" fill="#f9f4e6" /><rect width="160" height="10" x="80" y="100" fill="#f9f4e6" /><rect width="160" height="10" x="80" y="110" fill="#f9f4e6" /><rect width="160" height="10" x="80" y="120" fill="#f9f4e6" /><rect width="160" height="10" x="80" y="130" fill="#f9f4e6" /><rect width="160" height="10" x="80" y="140" fill="#f9f4e6" /><rect width="160" height="10" x="80" y="150" fill="#f9f4e6" /><rect width="160" height="10" x="80" y="160" fill="#f9f4e6" /><rect width="80" height="10" x="80" y="170" fill="#f9f4e6" /><rect width="40" height="10" x="160" y="170" fill="#f98f30" /><rect width="40" height="10" x="200" y="170" fill="#f9f4e6" /><rect width="80" height="10" x="80" y="180" fill="#f9f4e6" /><rect width="60" height="10" x="160" y="180" fill="#f98f30" /><rect width="20" height="10" x="220" y="180" fill="#f9f4e6" /><rect width="80" height="10" x="80" y="190" fill="#f9f4e6" /><rect width="40" height="10" x="160" y="190" fill="#e11833" /><rect width="40" height="10" x="200" y="190" fill="#f9f4e6" /><rect width="80" height="10" x="80" y="200" fill="#f9f4e6" /><rect width="40" height="10" x="160" y="200" fill="#e11833" /><rect width="40" height="10" x="200" y="200" fill="#f9f4e6" /><rect width="60" height="10" x="100" y="110" fill="#8dd122" /><rect width="60" height="10" x="170" y="110" fill="#8dd122" /><rect width="10" height="10" x="100" y="120" fill="#8dd122" /><rect width="20" height="10" x="110" y="120" fill="#ffffff" /><rect width="20" height="10" x="130" y="120" fill="#000000" /><rect width="10" height="10" x="150" y="120" fill="#8dd122" /><rect width="10" height="10" x="170" y="120" fill="#8dd122" /><rect width="20" height="10" x="180" y="120" fill="#ffffff" /><rect width="20" height="10" x="200" y="120" fill="#000000" /><rect width="10" height="10" x="220" y="120" fill="#8dd122" /><rect width="40" height="10" x="70" y="130" fill="#8dd122" /><rect width="20" height="10" x="110" y="130" fill="#ffffff" /><rect width="20" height="10" x="130" y="130" fill="#000000" /><rect width="30" height="10" x="150" y="130" fill="#8dd122" /><rect width="20" height="10" x="180" y="130" fill="#ffffff" /><rect width="20" height="10" x="200" y="130" fill="#000000" /><rect width="10" height="10" x="220" y="130" fill="#8dd122" /><rect width="10" height="10" x="70" y="140" fill="#8dd122" /><rect width="10" height="10" x="100" y="140" fill="#8dd122" /><rect width="20" height="10" x="110" y="140" fill="#ffffff" /><rect width="20" height="10" x="130" y="140" fill="#000000" /><rect width="10" height="10" x="150" y="140" fill="#8dd122" /><rect width="10" height="10" x="170" y="140" fill="#8dd122" /><rect width="20" height="10" x="180" y="140" fill="#ffffff" /><rect width="20" height="10" x="200" y="140" fill="#000000" /><rect width="10" height="10" x="220" y="140" fill="#8dd122" /><rect width="10" height="10" x="70" y="150" fill="#8dd122" /><rect width="10" height="10" x="100" y="150" fill="#8dd122" /><rect width="20" height="10" x="110" y="150" fill="#ffffff" /><rect width="20" height="10" x="130" y="150" fill="#000000" /><rect width="10" height="10" x="150" y="150" fill="#8dd122" /><rect width="10" height="10" x="170" y="150" fill="#8dd122" /><rect width="20" height="10" x="180" y="150" fill="#ffffff" /><rect width="20" height="10" x="200" y="150" fill="#000000" /><rect width="10" height="10" x="220" y="150" fill="#8dd122" /><rect width="60" height="10" x="100" y="160" fill="#8dd122" /><rect width="60" height="10" x="170" y="160" fill="#8dd122" /></svg>