<svg xmlns:xlink="http://www.w3.org/1999/xlink" width="320" height="320" viewBox="0 0 320 320" xmlns="http://www.w3.org/2000/svg" shape-rendering="crispEdges"><rect width="100%" height="100%" fill="#d5d7e1" /><rect width="140" height="10" x="90" y="210" fill="#63a0f9" /><rect width="140" height="10" x="90" y="220" fill="#63a0f9" /><rect width="140" height="10" x="90" y="230" fill="#63a0f9" /><rect width="140" height="10" x="90" y="240" fill="#63a0f9" /><rect width="20" height="10" x="90" y="250" fill="#63a0f9" /><rect width="110" height="10" x="120" y="250" fill="#63a0f9" /><rect width="20" height="10" x="90" y="260" fill="#63a0f9" /><rect width="110" height="10" x="120" y="260" fill="#63a0f9" /><rect width="20" height="10" x="90" y="270" fill="#63a0f9" /><rect width="110" height="10" x="120" y="270" fill="#63a0f9" /><rect width="20" height="10" x="90" y="280" fill="#63a0f9" /><rect width="110" height="10" x="120" y="280" fill="#63a0f9" /><rect width="20" height="10" x="90" y="290" fill="#63a0f9" /><rect width="110" height="10" x="120" y="290" fill="#63a0f9" /><rect width="20" height="10" x="90" y="300" fill="#63a0f9" /><rect width="110" height="10" x="120" y="300" fill="#63a0f9" /><rect width="20" height="10" x="90" y="310" fill="#63a0f9" /><rect width="110" height="10" x="120" y="310" fill="#63a0f9" /><rect width="20" height="10" x="140" y="230" fill="#5a65fa" /><rect width="10" height="10" x="170" y="230" fill="#5a65fa" /><rect width="10" height="10" x="140" y="240" fill="#5a65fa" /><rect width="20" height="10" x="160" y="240" fill="#5a65fa" /><rect width="20" height="10" x="130" y="260" fill="#da42cb" /><rect width="10" height="10" x="160" y="260" fill="#fe500c" /><rect width="10" height="10" x="180" y="260" fill="#fe500c" /><rect width="20" height="10" x="130" y="270" fill="#da42cb" /><rect width="30" height="10" x="160" y="270" fill="#fe500c" /><rect width="20" height="10" x="140" y="290" fill="#068940" /><rect width="10" height="10" x="170" y="290" fill="#068940" /><rect width="10" height="10" x="140" y="300" fill="#068940" /><rect width="20" height="10" x="160" y="300" fill="#068940" /><rect width="20" height="10" x="150" y="10" fill="#ffc110" /><rect width="20" height="10" x="150" y="20" fill="#ffc110" /><rect width="80" height="10" x="120" y="30" fill="#ffc110" /><rect width="20" height="10" x="110" y="40" fill="#ffc110" /><rect width="10" height="10" x="130" y="40" fill="#ffffff" /><rect width="70" height="10" x="140" y="40" fill="#ffc110" /><rect width="20" height="10" x="100" y="50" fill="#ffc110" /><rect width="10" height="10" x="120" y="50" fill="#ffffff" /><rect width="90" height="10" x="130" y="50" fill="#ffc110" /><rect width="20" height="10" x="90" y="60" fill="#ffc110" /><rect width="10" height="10" x="110" y="60" fill="#ffffff" /><rect width="110" height="10" x="120" y="60" fill="#ffc110" /><rect width="140" height="10" x="90" y="70" fill="#ffc110" /><rect width="140" height="10" x="90" y="80" fill="#ffc110" /><rect width="160" height="10" x="80" y="90" fill="#ffc110" /><rect width="160" height="10" x="80" y="100" fill="#ffc110" /><rect width="160" height="10" x="80" y="110" fill="#ffc110" /><rect width="160" height="10" x="80" y="120" fill="#ffc110" /><rect width="160" height="10" x="80" y="130" fill="#ffc110" /><rect width="160" height="10" x="80" y="140" fill="#d08b11" /><rect width="160" height="10" x="80" y="150" fill="#d08b11" /><rect width="200" height="10" x="60" y="160" fill="#ffc110" /><rect width="10" height="10" x="60" y="170" fill="#ffc110" /><rect width="10" height="10" x="70" y="170" fill="#ffffff" /><rect width="180" height="10" x="80" y="170" fill="#ffc110" /><rect width="120" height="10" x="40" y="180" fill="#ffc110" /><rect width="30" height="10" x="160" y="180" fill="#e8705b" /><rect width="90" height="10" x="190" y="180" fill="#ffc110" /><rect width="240" height="10" x="40" y="190" fill="#ffc110" /><rect width="220" height="10" x="50" y="200" fill="#ffc110" /><rect width="60" height="10" x="100" y="110" fill="#fe500c" /><rect width="60" height="10" x="170" y="110" fill="#fe500c" /><rect width="10" height="10" x="100" y="120" fill="#fe500c" /><rect width="20" height="10" x="110" y="120" fill="#ffffff" /><rect width="20" height="10" x="130" y="120" fill="#000000" /><rect width="10" height="10" x="150" y="120" fill="#fe500c" /><rect width="10" height="10" x="170" y="120" fill="#fe500c" /><rect width="20" height="10" x="180" y="120" fill="#ffffff" /><rect width="20" height="10" x="200" y="120" fill="#000000" /><rect width="10" height="10" x="220" y="120" fill="#fe500c" /><rect width="40" height="10" x="70" y="130" fill="#fe500c" /><rect width="20" height="10" x="110" y="130" fill="#ffffff" /><rect width="20" height="10" x="130" y="130" fill="#000000" /><rect width="30" height="10" x="150" y="130" fill="#fe500c" /><rect width="20" height="10" x="180" y="130" fill="#ffffff" /><rect width="20" height="10" x="200" y="130" fill="#000000" /><rect width="10" height="10" x="220" y="130" fill="#fe500c" /><rect width="10" height="10" x="70" y="140" fill="#fe500c" /><rect width="10" height="10" x="100" y="140" fill="#fe500c" /><rect width="20" height="10" x="110" y="140" fill="#ffffff" /><rect width="20" height="10" x="130" y="140" fill="#000000" /><rect width="10" height="10" x="150" y="140" fill="#fe500c" /><rect width="10" height="10" x="170" y="140" fill="#fe500c" /><rect width="20" height="10" x="180" y="140" fill="#ffffff" /><rect width="20" height="10" x="200" y="140" fill="#000000" /><rect width="10" height="10" x="220" y="140" fill="#fe500c" /><rect width="10" height="10" x="70" y="150" fill="#fe500c" /><rect width="10" height="10" x="100" y="150" fill="#fe500c" /><rect width="20" height="10" x="110" y="150" fill="#ffffff" /><rect width="20" height="10" x="130" y="150" fill="#000000" /><rect width="10" height="10" x="150" y="150" fill="#fe500c" /><rect width="10" height="10" x="170" y="150" fill="#fe500c" /><rect width="20" height="10" x="180" y="150" fill="#ffffff" /><rect width="20" height="10" x="200" y="150" fill="#000000" /><rect width="10" height="10" x="220" y="150" fill="#fe500c" /><rect width="60" height="10" x="100" y="160" fill="#fe500c" /><rect width="60" height="10" x="170" y="160" fill="#fe500c" /></svg>