<svg xmlns:xlink="http://www.w3.org/1999/xlink" width="320" height="320" viewBox="0 0 320 320" xmlns="http://www.w3.org/2000/svg" shape-rendering="crispEdges"><rect width="100%" height="100%" fill="#d5d7e1" /><rect width="140" height="10" x="90" y="210" fill="#807f7e" /><rect width="140" height="10" x="90" y="220" fill="#807f7e" /><rect width="140" height="10" x="90" y="230" fill="#807f7e" /><rect width="140" height="10" x="90" y="240" fill="#807f7e" /><rect width="20" height="10" x="90" y="250" fill="#807f7e" /><rect width="110" height="10" x="120" y="250" fill="#807f7e" /><rect width="20" height="10" x="90" y="260" fill="#807f7e" /><rect width="110" height="10" x="120" y="260" fill="#807f7e" /><rect width="20" height="10" x="90" y="270" fill="#807f7e" /><rect width="110" height="10" x="120" y="270" fill="#807f7e" /><rect width="20" height="10" x="90" y="280" fill="#807f7e" /><rect width="110" height="10" x="120" y="280" fill="#807f7e" /><rect width="20" height="10" x="90" y="290" fill="#807f7e" /><rect width="110" height="10" x="120" y="290" fill="#807f7e" /><rect width="20" height="10" x="90" y="300" fill="#807f7e" /><rect width="110" height="10" x="120" y="300" fill="#807f7e" /><rect width="20" height="10" x="90" y="310" fill="#807f7e" /><rect width="110" height="10" x="120" y="310" fill="#807f7e" /><rect width="20" height="10" x="90" y="210" fill="#df2c39" /><rect width="20" height="10" x="110" y="210" fill="#000000" /><rect width="20" height="10" x="130" y="210" fill="#df2c39" /><rect width="20" height="10" x="150" y="210" fill="#000000" /><rect width="20" height="10" x="170" y="210" fill="#df2c39" /><rect width="20" height="10" x="190" y="210" fill="#000000" /><rect width="20" height="10" x="210" y="210" fill="#df2c39" /><rect width="20" height="10" x="90" y="220" fill="#df2c39" /><rect width="20" height="10" x="110" y="220" fill="#000000" /><rect width="20" height="10" x="130" y="220" fill="#df2c39" /><rect width="20" height="10" x="150" y="220" fill="#000000" /><rect width="20" height="10" x="170" y="220" fill="#df2c39" /><rect width="20" height="10" x="190" y="220" fill="#000000" /><rect width="20" height="10" x="210" y="220" fill="#df2c39" /><rect width="20" height="10" x="90" y="230" fill="#000000" /><rect width="20" height="10" x="110" y="230" fill="#f938d8" /><rect width="20" height="10" x="130" y="230" fill="#000000" /><rect width="20" height="10" x="150" y="230" fill="#f938d8" /><rect width="20" height="10" x="170" y="230" fill="#000000" /><rect width="20" height="10" x="190" y="230" fill="#f938d8" /><rect width="20" height="10" x="210" y="230" fill="#000000" /><rect width="20" height="10" x="90" y="240" fill="#000000" /><rect width="20" height="10" x="110" y="240" fill="#f938d8" /><rect width="20" height="10" x="130" y="240" fill="#000000" /><rect width="20" height="10" x="150" y="240" fill="#f938d8" /><rect width="20" height="10" x="170" y="240" fill="#000000" /><rect width="20" height="10" x="190" y="240" fill="#f938d8" /><rect width="20" height="10" x="210" y="240" fill="#000000" /><rect width="20" height="10" x="90" y="250" fill="#5c25fb" /><rect width="10" height="10" x="120" y="250" fill="#000000" /><rect width="20" height="10" x="130" y="250" fill="#5c25fb" /><rect width="20" height="10" x="150" y="250" fill="#000000" /><rect width="20" height="10" x="170" y="250" fill="#5c25fb" /><rect width="20" height="10" x="190" y="250" fill="#000000" /><rect width="20" height="10" x="210" y="250" fill="#5c25fb" /><rect width="20" height="10" x="90" y="260" fill="#5c25fb" /><rect width="10" height="10" x="120" y="260" fill="#000000" /><rect width="20" height="10" x="130" y="260" fill="#5c25fb" /><rect width="20" height="10" x="150" y="260" fill="#000000" /><rect width="20" height="10" x="170" y="260" fill="#5c25fb" /><rect width="20" height="10" x="190" y="260" fill="#000000" /><rect width="20" height="10" x="210" y="260" fill="#5c25fb" /><rect width="20" height="10" x="90" y="270" fill="#000000" /><rect width="10" height="10" x="120" y="270" fill="#2a86fd" /><rect width="20" height="10" x="130" y="270" fill="#000000" /><rect width="20" height="10" x="150" y="270" fill="#2a86fd" /><rect width="20" height="10" x="170" y="270" fill="#000000" /><rect width="20" height="10" x="190" y="270" fill="#2a86fd" /><rect width="20" height="10" x="210" y="270" fill="#000000" /><rect width="20" height="10" x="90" y="280" fill="#000000" /><rect width="10" height="10" x="120" y="280" fill="#2a86fd" /><rect width="20" height="10" x="130" y="280" fill="#000000" /><rect width="20" height="10" x="150" y="280" fill="#2a86fd" /><rect width="20" height="10" x="170" y="280" fill="#000000" /><rect width="20" height="10" x="190" y="280" fill="#2a86fd" /><rect width="20" height="10" x="210" y="280" fill="#000000" /><rect width="20" height="10" x="90" y="290" fill="#45faff" /><rect width="10" height="10" x="120" y="290" fill="#000000" /><rect width="20" height="10" x="130" y="290" fill="#45faff" /><rect width="20" height="10" x="150" y="290" fill="#000000" /><rect width="20" height="10" x="170" y="290" fill="#45faff" /><rect width="20" height="10" x="190" y="290" fill="#000000" /><rect width="20" height="10" x="210" y="290" fill="#45faff" /><rect width="20" height="10" x="90" y="300" fill="#45faff" /><rect width="10" height="10" x="120" y="300" fill="#000000" /><rect width="20" height="10" x="130" y="300" fill="#45faff" /><rect width="20" height="10" x="150" y="300" fill="#000000" /><rect width="20" height="10" x="170" y="300" fill="#45faff" /><rect width="20" height="10" x="190" y="300" fill="#000000" /><rect width="20" height="10" x="210" y="300" fill="#45faff" /><rect width="20" height="10" x="90" y="310" fill="#000000" /><rect width="10" height="10" x="120" y="310" fill="#38dd56" /><rect width="20" height="10" x="130" y="310" fill="#000000" /><rect width="20" height="10" x="150" y="310" fill="#38dd56" /><rect width="20" height="10" x="170" y="310" fill="#000000" /><rect width="20" height="10" x="190" y="310" fill="#38dd56" /><rect width="20" height="10" x="210" y="310" fill="#000000" /><rect width="40" height="10" x="90" y="20" fill="#f98f30" /><rect width="40" height="10" x="190" y="20" fill="#f98f30" /><rect width="70" height="10" x="70" y="30" fill="#f98f30" /><rect width="70" height="10" x="180" y="30" fill="#f98f30" /><rect width="90" height="10" x="60" y="40" fill="#f98f30" /><rect width="90" height="10" x="170" y="40" fill="#f98f30" /><rect width="30" height="10" x="50" y="50" fill="#f98f30" /><rect width="20" height="10" x="80" y="50" fill="#fa5e20" /><rect width="20" height="10" x="220" y="50" fill="#fa5e20" /><rect width="30" height="10" x="240" y="50" fill="#f98f30" /><rect width="100" height="10" x="50" y="60" fill="#f98f30" /><rect width="100" height="10" x="170" y="60" fill="#f98f30" /><rect width="90" height="10" x="50" y="70" fill="#f98f30" /><rect width="90" height="10" x="180" y="70" fill="#f98f30" /><rect width="20" height="10" x="50" y="80" fill="#f98f30" /><rect width="50" height="10" x="80" y="80" fill="#f98f30" /><rect width="50" height="10" x="190" y="80" fill="#f98f30" /><rect width="20" height="10" x="250" y="80" fill="#f98f30" /><rect width="20" height="10" x="50" y="90" fill="#f98f30" /><rect width="10" height="10" x="140" y="90" fill="#000000" /><rect width="10" height="10" x="170" y="90" fill="#000000" /><rect width="20" height="10" x="250" y="90" fill="#f98f30" /><rect width="20" height="10" x="50" y="100" fill="#f98f30" /><rect width="160" height="10" x="80" y="100" fill="#f98f30" /><rect width="20" height="10" x="250" y="100" fill="#f98f30" /><rect width="20" height="10" x="50" y="110" fill="#f98f30" /><rect width="160" height="10" x="80" y="110" fill="#f98f30" /><rect width="20" height="10" x="250" y="110" fill="#f98f30" /><rect width="220" height="10" x="50" y="120" fill="#f98f30" /><rect width="220" height="10" x="50" y="130" fill="#f98f30" /><rect width="220" height="10" x="50" y="140" fill="#f98f30" /><rect width="160" height="10" x="80" y="150" fill="#f98f30" /><rect width="160" height="10" x="80" y="160" fill="#f98f30" /><rect width="160" height="10" x="80" y="170" fill="#f98f30" /><rect width="60" height="10" x="80" y="180" fill="#f98f30" /><rect width="40" height="10" x="140" y="180" fill="#fa5e20" /><rect width="60" height="10" x="180" y="180" fill="#f98f30" /><rect width="160" height="10" x="80" y="190" fill="#f98f30" /><rect width="160" height="10" x="80" y="200" fill="#f98f30" /><rect width="60" height="10" x="100" y="110" fill="#000000" /><rect width="60" height="10" x="170" y="110" fill="#000000" /><rect width="10" height="10" x="100" y="120" fill="#000000" /><rect width="20" height="10" x="110" y="120" fill="#ffffff" /><rect width="20" height="10" x="130" y="120" fill="#ff0e0e" /><rect width="10" height="10" x="150" y="120" fill="#000000" /><rect width="10" height="10" x="170" y="120" fill="#000000" /><rect width="20" height="10" x="180" y="120" fill="#ffffff" /><rect width="20" height="10" x="200" y="120" fill="#ff0e0e" /><rect width="10" height="10" x="220" y="120" fill="#000000" /><rect width="40" height="10" x="70" y="130" fill="#000000" /><rect width="20" height="10" x="110" y="130" fill="#ffffff" /><rect width="20" height="10" x="130" y="130" fill="#ff0e0e" /><rect width="30" height="10" x="150" y="130" fill="#000000" /><rect width="20" height="10" x="180" y="130" fill="#ffffff" /><rect width="20" height="10" x="200" y="130" fill="#ff0e0e" /><rect width="10" height="10" x="220" y="130" fill="#000000" /><rect width="10" height="10" x="70" y="140" fill="#000000" /><rect width="10" height="10" x="100" y="140" fill="#000000" /><rect width="20" height="10" x="110" y="140" fill="#ffffff" /><rect width="20" height="10" x="130" y="140" fill="#ff0e0e" /><rect width="10" height="10" x="150" y="140" fill="#000000" /><rect width="10" height="10" x="170" y="140" fill="#000000" /><rect width="20" height="10" x="180" y="140" fill="#ffffff" /><rect width="20" height="10" x="200" y="140" fill="#ff0e0e" /><rect width="10" height="10" x="220" y="140" fill="#000000" /><rect width="10" height="10" x="70" y="150" fill="#000000" /><rect width="10" height="10" x="100" y="150" fill="#000000" /><rect width="20" height="10" x="110" y="150" fill="#ffffff" /><rect width="20" height="10" x="130" y="150" fill="#ff0e0e" /><rect width="10" height="10" x="150" y="150" fill="#000000" /><rect width="10" height="10" x="170" y="150" fill="#000000" /><rect width="20" height="10" x="180" y="150" fill="#ffffff" /><rect width="20" height="10" x="200" y="150" fill="#ff0e0e" /><rect width="10" height="10" x="220" y="150" fill="#000000" /><rect width="60" height="10" x="100" y="160" fill="#000000" /><rect width="60" height="10" x="170" y="160" fill="#000000" /></svg>