<svg xmlns:xlink="http://www.w3.org/1999/xlink" width="320" height="320" viewBox="0 0 320 320" xmlns="http://www.w3.org/2000/svg" shape-rendering="crispEdges"><rect width="100%" height="100%" fill="#d5d7e1" /><rect width="140" height="10" x="90" y="210" fill="#b87b11" /><rect width="140" height="10" x="90" y="220" fill="#b87b11" /><rect width="140" height="10" x="90" y="230" fill="#b87b11" /><rect width="140" height="10" x="90" y="240" fill="#b87b11" /><rect width="20" height="10" x="90" y="250" fill="#b87b11" /><rect width="110" height="10" x="120" y="250" fill="#b87b11" /><rect width="20" height="10" x="90" y="260" fill="#b87b11" /><rect width="110" height="10" x="120" y="260" fill="#b87b11" /><rect width="20" height="10" x="90" y="270" fill="#b87b11" /><rect width="110" height="10" x="120" y="270" fill="#b87b11" /><rect width="20" height="10" x="90" y="280" fill="#b87b11" /><rect width="110" height="10" x="120" y="280" fill="#b87b11" /><rect width="20" height="10" x="90" y="290" fill="#b87b11" /><rect width="110" height="10" x="120" y="290" fill="#b87b11" /><rect width="20" height="10" x="90" y="300" fill="#b87b11" /><rect width="110" height="10" x="120" y="300" fill="#b87b11" /><rect width="20" height="10" x="90" y="310" fill="#b87b11" /><rect width="110" height="10" x="120" y="310" fill="#b87b11" /><rect width="140" height="10" x="90" y="210" fill="#a3efd0" /><rect width="140" height="10" x="90" y="220" fill="#a3efd0" /><rect width="140" height="10" x="90" y="230" fill="#87e4d9" /><rect width="140" height="10" x="90" y="240" fill="#87e4d9" /><rect width="20" height="10" x="90" y="250" fill="#87e4d9" /><rect width="110" height="10" x="120" y="250" fill="#87e4d9" /><rect width="20" height="10" x="90" y="260" fill="#87e4d9" /><rect width="110" height="10" x="120" y="260" fill="#87e4d9" /><rect width="20" height="10" x="90" y="270" fill="#7cc4f2" /><rect width="110" height="10" x="120" y="270" fill="#7cc4f2" /><rect width="20" height="10" x="90" y="280" fill="#7cc4f2" /><rect width="110" height="10" x="120" y="280" fill="#7cc4f2" /><rect width="20" height="10" x="90" y="290" fill="#7cc4f2" /><rect width="110" height="10" x="120" y="290" fill="#7cc4f2" /><rect width="20" height="10" x="90" y="300" fill="#7cc4f2" /><rect width="110" height="10" x="120" y="300" fill="#7cc4f2" /><rect width="20" height="10" x="90" y="310" fill="#71bde4" /><rect width="110" height="10" x="120" y="310" fill="#71bde4" /><rect width="20" height="10" x="70" y="30" fill="#1f1d29" /><rect width="20" height="10" x="220" y="30" fill="#1f1d29" /><rect width="40" height="10" x="70" y="40" fill="#1f1d29" /><rect width="40" height="10" x="200" y="40" fill="#1f1d29" /><rect width="10" height="10" x="70" y="50" fill="#1f1d29" /><rect width="10" height="10" x="80" y="50" fill="#caeff9" /><rect width="40" height="10" x="90" y="50" fill="#1f1d29" /><rect width="40" height="10" x="180" y="50" fill="#1f1d29" /><rect width="10" height="10" x="220" y="50" fill="#caeff9" /><rect width="10" height="10" x="230" y="50" fill="#1f1d29" /><rect width="10" height="10" x="70" y="60" fill="#1f1d29" /><rect width="30" height="10" x="80" y="60" fill="#caeff9" /><rect width="20" height="10" x="110" y="60" fill="#1f1d29" /><rect width="20" height="10" x="180" y="60" fill="#1f1d29" /><rect width="30" height="10" x="200" y="60" fill="#caeff9" /><rect width="10" height="10" x="230" y="60" fill="#1f1d29" /><rect width="10" height="10" x="70" y="70" fill="#1f1d29" /><rect width="40" height="10" x="80" y="70" fill="#caeff9" /><rect width="70" height="10" x="120" y="70" fill="#1f1d29" /><rect width="40" height="10" x="190" y="70" fill="#caeff9" /><rect width="10" height="10" x="230" y="70" fill="#1f1d29" /><rect width="10" height="10" x="70" y="80" fill="#1f1d29" /><rect width="30" height="10" x="80" y="80" fill="#caeff9" /><rect width="90" height="10" x="110" y="80" fill="#1f1d29" /><rect width="30" height="10" x="200" y="80" fill="#caeff9" /><rect width="10" height="10" x="230" y="80" fill="#1f1d29" /><rect width="10" height="10" x="70" y="90" fill="#1f1d29" /><rect width="10" height="10" x="80" y="90" fill="#caeff9" /><rect width="130" height="10" x="90" y="90" fill="#1f1d29" /><rect width="10" height="10" x="220" y="90" fill="#caeff9" /><rect width="10" height="10" x="230" y="90" fill="#1f1d29" /><rect width="170" height="10" x="70" y="100" fill="#1f1d29" /><rect width="160" height="10" x="80" y="110" fill="#1f1d29" /><rect width="160" height="10" x="80" y="120" fill="#1f1d29" /><rect width="160" height="10" x="80" y="130" fill="#1f1d29" /><rect width="160" height="10" x="80" y="140" fill="#1f1d29" /><rect width="160" height="10" x="80" y="150" fill="#1f1d29" /><rect width="160" height="10" x="80" y="160" fill="#1f1d29" /><rect width="50" height="10" x="60" y="170" fill="#7cc4f2" /><rect width="50" height="10" x="110" y="170" fill="#caeff9" /><rect width="20" height="10" x="160" y="170" fill="#fa6fe2" /><rect width="40" height="10" x="180" y="170" fill="#caeff9" /><rect width="40" height="10" x="220" y="170" fill="#7cc4f2" /><rect width="80" height="10" x="80" y="180" fill="#caeff9" /><rect width="10" height="10" x="160" y="180" fill="#5a6b7b" /><rect width="70" height="10" x="170" y="180" fill="#caeff9" /><rect width="50" height="10" x="60" y="190" fill="#7cc4f2" /><rect width="30" height="10" x="110" y="190" fill="#caeff9" /><rect width="40" height="10" x="140" y="190" fill="#5a6b7b" /><rect width="40" height="10" x="180" y="190" fill="#caeff9" /><rect width="40" height="10" x="220" y="190" fill="#7cc4f2" /><rect width="160" height="10" x="80" y="200" fill="#caeff9" /><rect width="60" height="10" x="100" y="110" fill="#00a556" /><rect width="60" height="10" x="170" y="110" fill="#00a556" /><rect width="10" height="10" x="100" y="120" fill="#00a556" /><rect width="20" height="10" x="110" y="120" fill="#ffffff" /><rect width="20" height="10" x="130" y="120" fill="#000000" /><rect width="10" height="10" x="150" y="120" fill="#00a556" /><rect width="10" height="10" x="170" y="120" fill="#00a556" /><rect width="20" height="10" x="180" y="120" fill="#ffffff" /><rect width="20" height="10" x="200" y="120" fill="#000000" /><rect width="10" height="10" x="220" y="120" fill="#00a556" /><rect width="40" height="10" x="70" y="130" fill="#00a556" /><rect width="20" height="10" x="110" y="130" fill="#ffffff" /><rect width="20" height="10" x="130" y="130" fill="#000000" /><rect width="30" height="10" x="150" y="130" fill="#00a556" /><rect width="20" height="10" x="180" y="130" fill="#ffffff" /><rect width="20" height="10" x="200" y="130" fill="#000000" /><rect width="10" height="10" x="220" y="130" fill="#00a556" /><rect width="10" height="10" x="70" y="140" fill="#00a556" /><rect width="10" height="10" x="100" y="140" fill="#00a556" /><rect width="20" height="10" x="110" y="140" fill="#ffffff" /><rect width="20" height="10" x="130" y="140" fill="#000000" /><rect width="10" height="10" x="150" y="140" fill="#00a556" /><rect width="10" height="10" x="170" y="140" fill="#00a556" /><rect width="20" height="10" x="180" y="140" fill="#ffffff" /><rect width="20" height="10" x="200" y="140" fill="#000000" /><rect width="10" height="10" x="220" y="140" fill="#00a556" /><rect width="10" height="10" x="70" y="150" fill="#00a556" /><rect width="10" height="10" x="100" y="150" fill="#00a556" /><rect width="20" height="10" x="110" y="150" fill="#ffffff" /><rect width="20" height="10" x="130" y="150" fill="#000000" /><rect width="10" height="10" x="150" y="150" fill="#00a556" /><rect width="10" height="10" x="170" y="150" fill="#00a556" /><rect width="20" height="10" x="180" y="150" fill="#ffffff" /><rect width="20" height="10" x="200" y="150" fill="#000000" /><rect width="10" height="10" x="220" y="150" fill="#00a556" /><rect width="60" height="10" x="100" y="160" fill="#00a556" /><rect width="60" height="10" x="170" y="160" fill="#00a556" /></svg>