<svg xmlns:xlink="http://www.w3.org/1999/xlink" width="320" height="320" viewBox="0 0 320 320" xmlns="http://www.w3.org/2000/svg" shape-rendering="crispEdges"><rect width="100%" height="100%" fill="#e1d7d5" /><rect width="140" height="10" x="90" y="210" fill="#d26451" /><rect width="140" height="10" x="90" y="220" fill="#d26451" /><rect width="140" height="10" x="90" y="230" fill="#d26451" /><rect width="140" height="10" x="90" y="240" fill="#d26451" /><rect width="20" height="10" x="90" y="250" fill="#d26451" /><rect width="110" height="10" x="120" y="250" fill="#d26451" /><rect width="20" height="10" x="90" y="260" fill="#d26451" /><rect width="110" height="10" x="120" y="260" fill="#d26451" /><rect width="20" height="10" x="90" y="270" fill="#d26451" /><rect width="110" height="10" x="120" y="270" fill="#d26451" /><rect width="20" height="10" x="90" y="280" fill="#d26451" /><rect width="110" height="10" x="120" y="280" fill="#d26451" /><rect width="20" height="10" x="90" y="290" fill="#d26451" /><rect width="110" height="10" x="120" y="290" fill="#d26451" /><rect width="20" height="10" x="90" y="300" fill="#d26451" /><rect width="110" height="10" x="120" y="300" fill="#d26451" /><rect width="20" height="10" x="90" y="310" fill="#d26451" /><rect width="110" height="10" x="120" y="310" fill="#d26451" /><rect width="140" height="10" x="90" y="210" fill="#ff1a0b" /><rect width="140" height="10" x="90" y="220" fill="#ff1a0b" /><rect width="140" height="10" x="90" y="230" fill="#f78a18" /><rect width="140" height="10" x="90" y="240" fill="#f78a18" /><rect width="20" height="10" x="90" y="250" fill="#fff449" /><rect width="110" height="10" x="120" y="250" fill="#fff449" /><rect width="20" height="10" x="90" y="260" fill="#fff449" /><rect width="110" height="10" x="120" y="260" fill="#fff449" /><rect width="20" height="10" x="90" y="270" fill="#068940" /><rect width="110" height="10" x="120" y="270" fill="#068940" /><rect width="20" height="10" x="90" y="280" fill="#068940" /><rect width="110" height="10" x="120" y="280" fill="#068940" /><rect width="20" height="10" x="90" y="290" fill="#2b83f6" /><rect width="110" height="10" x="120" y="290" fill="#2b83f6" /><rect width="20" height="10" x="90" y="300" fill="#2b83f6" /><rect width="110" height="10" x="120" y="300" fill="#2b83f6" /><rect width="20" height="10" x="90" y="310" fill="#9f21a0" /><rect width="110" height="10" x="120" y="310" fill="#9f21a0" /><rect width="10" height="10" x="170" y="10" fill="#a28ef4" /><rect width="10" height="10" x="160" y="20" fill="#a28ef4" /><rect width="10" height="10" x="70" y="30" fill="#a28ef4" /><rect width="10" height="10" x="60" y="40" fill="#a28ef4" /><rect width="10" height="10" x="130" y="40" fill="#feb9d5" /><rect width="10" height="10" x="200" y="40" fill="#feb9d5" /><rect width="10" height="10" x="250" y="40" fill="#a28ef4" /><rect width="10" height="10" x="60" y="50" fill="#a28ef4" /><rect width="10" height="10" x="120" y="50" fill="#feb9d5" /><rect width="10" height="10" x="190" y="50" fill="#feb9d5" /><rect width="10" height="10" x="260" y="50" fill="#a28ef4" /><rect width="10" height="10" x="110" y="60" fill="#feb9d5" /><rect width="40" height="10" x="150" y="60" fill="#feb9d5" /><rect width="10" height="10" x="220" y="60" fill="#feb9d5" /><rect width="10" height="10" x="110" y="70" fill="#feb9d5" /><rect width="10" height="10" x="120" y="70" fill="#e9265c" /><rect width="10" height="10" x="130" y="70" fill="#ff638d" /><rect width="10" height="10" x="140" y="70" fill="#feb9d5" /><rect width="30" height="10" x="150" y="70" fill="#ff638d" /><rect width="30" height="10" x="180" y="70" fill="#e9265c" /><rect width="10" height="10" x="70" y="80" fill="#feb9d5" /><rect width="10" height="10" x="100" y="80" fill="#feb9d5" /><rect width="10" height="10" x="110" y="80" fill="#e9265c" /><rect width="20" height="10" x="120" y="80" fill="#ff638d" /><rect width="40" height="10" x="140" y="80" fill="#feb9d5" /><rect width="20" height="10" x="180" y="80" fill="#ff638d" /><rect width="20" height="10" x="200" y="80" fill="#feb9d5" /><rect width="10" height="10" x="70" y="90" fill="#feb9d5" /><rect width="10" height="10" x="90" y="90" fill="#feb9d5" /><rect width="10" height="10" x="100" y="90" fill="#e9265c" /><rect width="10" height="10" x="110" y="90" fill="#ff638d" /><rect width="20" height="10" x="120" y="90" fill="#feb9d5" /><rect width="40" height="10" x="140" y="90" fill="#3a085b" /><rect width="20" height="10" x="180" y="90" fill="#feb9d5" /><rect width="10" height="10" x="200" y="90" fill="#ff638d" /><rect width="10" height="10" x="210" y="90" fill="#e9265c" /><rect width="10" height="10" x="220" y="90" fill="#feb9d5" /><rect width="10" height="10" x="70" y="100" fill="#feb9d5" /><rect width="10" height="10" x="90" y="100" fill="#feb9d5" /><rect width="10" height="10" x="100" y="100" fill="#ff638d" /><rect width="10" height="10" x="110" y="100" fill="#feb9d5" /><rect width="20" height="10" x="120" y="100" fill="#3a085b" /><rect width="40" height="10" x="140" y="100" fill="#000000" /><rect width="20" height="10" x="180" y="100" fill="#3a085b" /><rect width="10" height="10" x="200" y="100" fill="#feb9d5" /><rect width="10" height="10" x="210" y="100" fill="#ff638d" /><rect width="10" height="10" x="220" y="100" fill="#e9265c" /><rect width="10" height="10" x="230" y="100" fill="#feb9d5" /><rect width="10" height="10" x="250" y="100" fill="#feb9d5" /><rect width="10" height="10" x="50" y="110" fill="#feb9d5" /><rect width="20" height="10" x="80" y="110" fill="#feb9d5" /><rect width="10" height="10" x="100" y="110" fill="#ff638d" /><rect width="10" height="10" x="110" y="110" fill="#feb9d5" /><rect width="10" height="10" x="120" y="110" fill="#3a085b" /><rect width="60" height="10" x="130" y="110" fill="#000000" /><rect width="10" height="10" x="190" y="110" fill="#3a085b" /><rect width="10" height="10" x="200" y="110" fill="#feb9d5" /><rect width="20" height="10" x="210" y="110" fill="#ff638d" /><rect width="10" height="10" x="230" y="110" fill="#e9265c" /><rect width="10" height="10" x="270" y="110" fill="#a28ef4" /><rect width="10" height="10" x="80" y="120" fill="#e9265c" /><rect width="20" height="10" x="90" y="120" fill="#feb9d5" /><rect width="10" height="10" x="110" y="120" fill="#3a085b" /><rect width="80" height="10" x="120" y="120" fill="#000000" /><rect width="10" height="10" x="200" y="120" fill="#3a085b" /><rect width="20" height="10" x="210" y="120" fill="#feb9d5" /><rect width="10" height="10" x="230" y="120" fill="#e9265c" /><rect width="10" height="10" x="280" y="120" fill="#a28ef4" /><rect width="10" height="10" x="30" y="130" fill="#a28ef4" /><rect width="20" height="10" x="90" y="130" fill="#feb9d5" /><rect width="10" height="10" x="110" y="130" fill="#3a085b" /><rect width="80" height="10" x="120" y="130" fill="#000000" /><rect width="10" height="10" x="200" y="130" fill="#3a085b" /><rect width="10" height="10" x="210" y="130" fill="#feb9d5" /><rect width="10" height="10" x="220" y="130" fill="#ff638d" /><rect width="10" height="10" x="230" y="130" fill="#feb9d5" /><rect width="10" height="10" x="240" y="130" fill="#e9265c" /><rect width="10" height="10" x="280" y="130" fill="#a28ef4" /><rect width="10" height="10" x="30" y="140" fill="#a28ef4" /><rect width="10" height="10" x="80" y="140" fill="#feb9d5" /><rect width="10" height="10" x="90" y="140" fill="#ff638d" /><rect width="10" height="10" x="100" y="140" fill="#feb9d5" /><rect width="10" height="10" x="110" y="140" fill="#3a085b" /><rect width="80" height="10" x="120" y="140" fill="#000000" /><rect width="10" height="10" x="200" y="140" fill="#3a085b" /><rect width="10" height="10" x="210" y="140" fill="#feb9d5" /><rect width="10" height="10" x="220" y="140" fill="#ff638d" /><rect width="10" height="10" x="230" y="140" fill="#feb9d5" /><rect width="10" height="10" x="40" y="150" fill="#a28ef4" /><rect width="10" height="10" x="80" y="150" fill="#feb9d5" /><rect width="10" height="10" x="90" y="150" fill="#ff638d" /><rect width="10" height="10" x="100" y="150" fill="#feb9d5" /><rect width="10" height="10" x="110" y="150" fill="#3a085b" /><rect width="80" height="10" x="120" y="150" fill="#000000" /><rect width="10" height="10" x="200" y="150" fill="#3a085b" /><rect width="10" height="10" x="210" y="150" fill="#feb9d5" /><rect width="10" height="10" x="220" y="150" fill="#ff638d" /><rect width="10" height="10" x="230" y="150" fill="#feb9d5" /><rect width="10" height="10" x="80" y="160" fill="#feb9d5" /><rect width="10" height="10" x="90" y="160" fill="#e9265c" /><rect width="10" height="10" x="100" y="160" fill="#ff638d" /><rect width="10" height="10" x="110" y="160" fill="#feb9d5" /><rect width="10" height="10" x="120" y="160" fill="#3a085b" /><rect width="60" height="10" x="130" y="160" fill="#000000" /><rect width="10" height="10" x="190" y="160" fill="#3a085b" /><rect width="10" height="10" x="200" y="160" fill="#feb9d5" /><rect width="20" height="10" x="210" y="160" fill="#ff638d" /><rect width="10" height="10" x="230" y="160" fill="#e9265c" /><rect width="10" height="10" x="240" y="160" fill="#feb9d5" /><rect width="10" height="10" x="60" y="170" fill="#feb9d5" /><rect width="30" height="10" x="90" y="170" fill="#feb9d5" /><rect width="20" height="10" x="120" y="170" fill="#3a085b" /><rect width="40" height="10" x="140" y="170" fill="#000000" /><rect width="20" height="10" x="180" y="170" fill="#3a085b" /><rect width="20" height="10" x="200" y="170" fill="#feb9d5" /><rect width="20" height="10" x="220" y="170" fill="#e9265c" /><rect width="10" height="10" x="250" y="170" fill="#feb9d5" /><rect width="20" height="10" x="70" y="180" fill="#feb9d5" /><rect width="20" height="10" x="90" y="180" fill="#e9265c" /><rect width="10" height="10" x="110" y="180" fill="#ff638d" /><rect width="20" height="10" x="120" y="180" fill="#feb9d5" /><rect width="40" height="10" x="140" y="180" fill="#3a085b" /><rect width="20" height="10" x="180" y="180" fill="#feb9d5" /><rect width="20" height="10" x="200" y="180" fill="#ff638d" /><rect width="10" height="10" x="220" y="180" fill="#feb9d5" /><rect width="10" height="10" x="230" y="180" fill="#e9265c" /><rect width="10" height="10" x="250" y="180" fill="#feb9d5" /><rect width="10" height="10" x="100" y="190" fill="#feb9d5" /><rect width="10" height="10" x="110" y="190" fill="#e9265c" /><rect width="20" height="10" x="120" y="190" fill="#ff638d" /><rect width="40" height="10" x="140" y="190" fill="#feb9d5" /><rect width="10" height="10" x="180" y="190" fill="#ff638d" /><rect width="10" height="10" x="190" y="190" fill="#feb9d5" /><rect width="10" height="10" x="200" y="190" fill="#ff638d" /><rect width="10" height="10" x="210" y="190" fill="#e9265c" /><rect width="10" height="10" x="220" y="190" fill="#feb9d5" /><rect width="20" height="10" x="90" y="200" fill="#e9265c" /><rect width="50" height="10" x="110" y="200" fill="#feb9d5" /><rect width="30" height="10" x="160" y="200" fill="#ff638d" /><rect width="10" height="10" x="190" y="200" fill="#feb9d5" /><rect width="20" height="10" x="200" y="200" fill="#e9265c" /><rect width="10" height="10" x="240" y="200" fill="#feb9d5" /><rect width="10" height="10" x="50" y="210" fill="#a28ef4" /><rect width="10" height="10" x="130" y="210" fill="#feb9d5" /><rect width="30" height="10" x="150" y="210" fill="#e9265c" /><rect width="10" height="10" x="180" y="210" fill="#feb9d5" /><rect width="10" height="10" x="60" y="220" fill="#a28ef4" /><rect width="10" height="10" x="160" y="220" fill="#feb9d5" /><rect width="10" height="10" x="260" y="220" fill="#a28ef4" /><rect width="10" height="10" x="250" y="230" fill="#a28ef4" /><rect width="60" height="10" x="100" y="110" fill="#068940" /><rect width="60" height="10" x="170" y="110" fill="#257ced" /><rect width="10" height="10" x="100" y="120" fill="#068940" /><rect width="20" height="10" x="110" y="120" fill="#ffffff" /><rect width="20" height="10" x="130" y="120" fill="#000000" /><rect width="10" height="10" x="150" y="120" fill="#068940" /><rect width="10" height="10" x="170" y="120" fill="#257ced" /><rect width="20" height="10" x="180" y="120" fill="#ffffff" /><rect width="20" height="10" x="200" y="120" fill="#000000" /><rect width="10" height="10" x="220" y="120" fill="#257ced" /><rect width="30" height="10" x="70" y="130" fill="#257ced" /><rect width="10" height="10" x="100" y="130" fill="#068940" /><rect width="20" height="10" x="110" y="130" fill="#ffffff" /><rect width="20" height="10" x="130" y="130" fill="#000000" /><rect width="10" height="10" x="150" y="130" fill="#068940" /><rect width="20" height="10" x="160" y="130" fill="#257ced" /><rect width="20" height="10" x="180" y="130" fill="#ffffff" /><rect width="20" height="10" x="200" y="130" fill="#000000" /><rect width="10" height="10" x="220" y="130" fill="#257ced" /><rect width="10" height="10" x="70" y="140" fill="#257ced" /><rect width="10" height="10" x="100" y="140" fill="#068940" /><rect width="20" height="10" x="110" y="140" fill="#ffffff" /><rect width="20" height="10" x="130" y="140" fill="#000000" /><rect width="10" height="10" x="150" y="140" fill="#068940" /><rect width="10" height="10" x="170" y="140" fill="#257ced" /><rect width="20" height="10" x="180" y="140" fill="#ffffff" /><rect width="20" height="10" x="200" y="140" fill="#000000" /><rect width="10" height="10" x="220" y="140" fill="#257ced" /><rect width="10" height="10" x="70" y="150" fill="#257ced" /><rect width="10" height="10" x="100" y="150" fill="#068940" /><rect width="20" height="10" x="110" y="150" fill="#ffffff" /><rect width="20" height="10" x="130" y="150" fill="#000000" /><rect width="10" height="10" x="150" y="150" fill="#068940" /><rect width="10" height="10" x="170" y="150" fill="#257ced" /><rect width="20" height="10" x="180" y="150" fill="#ffffff" /><rect width="20" height="10" x="200" y="150" fill="#000000" /><rect width="10" height="10" x="220" y="150" fill="#257ced" /><rect width="60" height="10" x="100" y="160" fill="#068940" /><rect width="60" height="10" x="170" y="160" fill="#257ced" /></svg>