<svg xmlns:xlink="http://www.w3.org/1999/xlink" width="320" height="320" viewBox="0 0 320 320" xmlns="http://www.w3.org/2000/svg" shape-rendering="crispEdges"><rect width="100%" height="100%" fill="#d5d7e1" /><rect width="140" height="10" x="90" y="210" fill="#caeff9" /><rect width="140" height="10" x="90" y="220" fill="#caeff9" /><rect width="140" height="10" x="90" y="230" fill="#caeff9" /><rect width="140" height="10" x="90" y="240" fill="#caeff9" /><rect width="20" height="10" x="90" y="250" fill="#caeff9" /><rect width="110" height="10" x="120" y="250" fill="#caeff9" /><rect width="20" height="10" x="90" y="260" fill="#caeff9" /><rect width="110" height="10" x="120" y="260" fill="#caeff9" /><rect width="20" height="10" x="90" y="270" fill="#caeff9" /><rect width="110" height="10" x="120" y="270" fill="#caeff9" /><rect width="20" height="10" x="90" y="280" fill="#caeff9" /><rect width="110" height="10" x="120" y="280" fill="#caeff9" /><rect width="20" height="10" x="90" y="290" fill="#caeff9" /><rect width="110" height="10" x="120" y="290" fill="#caeff9" /><rect width="20" height="10" x="90" y="300" fill="#caeff9" /><rect width="110" height="10" x="120" y="300" fill="#caeff9" /><rect width="20" height="10" x="90" y="310" fill="#caeff9" /><rect width="110" height="10" x="120" y="310" fill="#caeff9" /><rect width="10" height="10" x="170" y="230" fill="#e8705b" /><rect width="10" height="10" x="170" y="240" fill="#ffffff" /><rect width="50" height="10" x="160" y="250" fill="#757576" /><rect width="30" height="10" x="90" y="40" fill="#abaaa8" /><rect width="30" height="10" x="200" y="40" fill="#abaaa8" /><rect width="30" height="10" x="90" y="50" fill="#abaaa8" /><rect width="30" height="10" x="200" y="50" fill="#abaaa8" /><rect width="30" height="10" x="90" y="60" fill="#abaaa8" /><rect width="30" height="10" x="200" y="60" fill="#abaaa8" /><rect width="30" height="10" x="90" y="70" fill="#abaaa8" /><rect width="30" height="10" x="200" y="70" fill="#abaaa8" /><rect width="30" height="10" x="90" y="80" fill="#abaaa8" /><rect width="30" height="10" x="200" y="80" fill="#abaaa8" /><rect width="140" height="10" x="90" y="90" fill="#abaaa8" /><rect width="140" height="10" x="90" y="100" fill="#abaaa8" /><rect width="140" height="10" x="90" y="110" fill="#abaaa8" /><rect width="140" height="10" x="90" y="120" fill="#abaaa8" /><rect width="140" height="10" x="90" y="130" fill="#abaaa8" /><rect width="140" height="10" x="90" y="140" fill="#abaaa8" /><rect width="140" height="10" x="90" y="150" fill="#abaaa8" /><rect width="140" height="10" x="90" y="160" fill="#807f7e" /><rect width="140" height="10" x="90" y="170" fill="#807f7e" /><rect width="20" height="10" x="90" y="180" fill="#807f7e" /><rect width="110" height="10" x="110" y="180" fill="#000000" /><rect width="10" height="10" x="220" y="180" fill="#807f7e" /><rect width="30" height="10" x="90" y="190" fill="#807f7e" /><rect width="20" height="10" x="120" y="190" fill="#ffffff" /><rect width="40" height="10" x="140" y="190" fill="#807f7e" /><rect width="20" height="10" x="180" y="190" fill="#ffffff" /><rect width="30" height="10" x="200" y="190" fill="#807f7e" /><rect width="140" height="10" x="90" y="200" fill="#807f7e" /><rect width="140" height="10" x="90" y="210" fill="#807f7e" /><rect width="60" height="10" x="100" y="110" fill="#fe500c" /><rect width="60" height="10" x="170" y="110" fill="#fe500c" /><rect width="10" height="10" x="100" y="120" fill="#fe500c" /><rect width="20" height="10" x="110" y="120" fill="#ffffff" /><rect width="20" height="10" x="130" y="120" fill="#000000" /><rect width="10" height="10" x="150" y="120" fill="#fe500c" /><rect width="10" height="10" x="170" y="120" fill="#fe500c" /><rect width="20" height="10" x="180" y="120" fill="#ffffff" /><rect width="20" height="10" x="200" y="120" fill="#000000" /><rect width="10" height="10" x="220" y="120" fill="#fe500c" /><rect width="40" height="10" x="70" y="130" fill="#fe500c" /><rect width="20" height="10" x="110" y="130" fill="#ffffff" /><rect width="20" height="10" x="130" y="130" fill="#000000" /><rect width="30" height="10" x="150" y="130" fill="#fe500c" /><rect width="20" height="10" x="180" y="130" fill="#ffffff" /><rect width="20" height="10" x="200" y="130" fill="#000000" /><rect width="10" height="10" x="220" y="130" fill="#fe500c" /><rect width="10" height="10" x="70" y="140" fill="#fe500c" /><rect width="10" height="10" x="100" y="140" fill="#fe500c" /><rect width="20" height="10" x="110" y="140" fill="#ffffff" /><rect width="20" height="10" x="130" y="140" fill="#000000" /><rect width="10" height="10" x="150" y="140" fill="#fe500c" /><rect width="10" height="10" x="170" y="140" fill="#fe500c" /><rect width="20" height="10" x="180" y="140" fill="#ffffff" /><rect width="20" height="10" x="200" y="140" fill="#000000" /><rect width="10" height="10" x="220" y="140" fill="#fe500c" /><rect width="10" height="10" x="70" y="150" fill="#fe500c" /><rect width="10" height="10" x="100" y="150" fill="#fe500c" /><rect width="20" height="10" x="110" y="150" fill="#ffffff" /><rect width="20" height="10" x="130" y="150" fill="#000000" /><rect width="10" height="10" x="150" y="150" fill="#fe500c" /><rect width="10" height="10" x="170" y="150" fill="#fe500c" /><rect width="20" height="10" x="180" y="150" fill="#ffffff" /><rect width="20" height="10" x="200" y="150" fill="#000000" /><rect width="10" height="10" x="220" y="150" fill="#fe500c" /><rect width="60" height="10" x="100" y="160" fill="#fe500c" /><rect width="60" height="10" x="170" y="160" fill="#fe500c" /></svg>