<svg xmlns:xlink="http://www.w3.org/1999/xlink" width="320" height="320" viewBox="0 0 320 320" xmlns="http://www.w3.org/2000/svg" shape-rendering="crispEdges"><rect width="100%" height="100%" fill="#d5d7e1" /><rect width="140" height="10" x="90" y="210" fill="#fffdf2" /><rect width="140" height="10" x="90" y="220" fill="#fffdf2" /><rect width="140" height="10" x="90" y="230" fill="#fffdf2" /><rect width="140" height="10" x="90" y="240" fill="#fffdf2" /><rect width="20" height="10" x="90" y="250" fill="#fffdf2" /><rect width="110" height="10" x="120" y="250" fill="#fffdf2" /><rect width="20" height="10" x="90" y="260" fill="#fffdf2" /><rect width="110" height="10" x="120" y="260" fill="#fffdf2" /><rect width="20" height="10" x="90" y="270" fill="#fffdf2" /><rect width="110" height="10" x="120" y="270" fill="#fffdf2" /><rect width="20" height="10" x="90" y="280" fill="#fffdf2" /><rect width="110" height="10" x="120" y="280" fill="#fffdf2" /><rect width="20" height="10" x="90" y="290" fill="#fffdf2" /><rect width="110" height="10" x="120" y="290" fill="#fffdf2" /><rect width="20" height="10" x="90" y="300" fill="#fffdf2" /><rect width="110" height="10" x="120" y="300" fill="#fffdf2" /><rect width="20" height="10" x="90" y="310" fill="#fffdf2" /><rect width="110" height="10" x="120" y="310" fill="#fffdf2" /><rect width="70" height="10" x="130" y="240" fill="#26b1f3" /><rect width="10" height="10" x="130" y="250" fill="#26b1f3" /><rect width="10" height="10" x="150" y="250" fill="#26b1f3" /><rect width="10" height="10" x="170" y="250" fill="#26b1f3" /><rect width="30" height="10" x="190" y="250" fill="#26b1f3" /><rect width="30" height="10" x="130" y="260" fill="#26b1f3" /><rect width="30" height="10" x="170" y="260" fill="#26b1f3" /><rect width="10" height="10" x="210" y="260" fill="#26b1f3" /><rect width="40" height="10" x="140" y="30" fill="#b92b3c" /><rect width="10" height="10" x="110" y="40" fill="#cd916d" /><rect width="10" height="10" x="120" y="40" fill="#e4a499" /><rect width="60" height="10" x="130" y="40" fill="#b92b3c" /><rect width="10" height="10" x="190" y="40" fill="#e4a499" /><rect width="10" height="10" x="200" y="40" fill="#cd916d" /><rect width="20" height="10" x="100" y="50" fill="#cd916d" /><rect width="10" height="10" x="120" y="50" fill="#e4a499" /><rect width="60" height="10" x="130" y="50" fill="#b92b3c" /><rect width="10" height="10" x="190" y="50" fill="#e4a499" /><rect width="20" height="10" x="200" y="50" fill="#cd916d" /><rect width="20" height="10" x="90" y="60" fill="#cd916d" /><rect width="10" height="10" x="110" y="60" fill="#e4a499" /><rect width="20" height="10" x="120" y="60" fill="#b92b3c" /><rect width="10" height="10" x="140" y="60" fill="#ffe939" /><rect width="20" height="10" x="150" y="60" fill="#e9265c" /><rect width="30" height="10" x="170" y="60" fill="#b92b3c" /><rect width="10" height="10" x="200" y="60" fill="#e4a499" /><rect width="20" height="10" x="210" y="60" fill="#cd916d" /><rect width="20" height="10" x="90" y="70" fill="#cd916d" /><rect width="10" height="10" x="110" y="70" fill="#e4a499" /><rect width="30" height="10" x="120" y="70" fill="#b92b3c" /><rect width="20" height="10" x="150" y="70" fill="#ffe939" /><rect width="10" height="10" x="170" y="70" fill="#e9265c" /><rect width="20" height="10" x="180" y="70" fill="#b92b3c" /><rect width="10" height="10" x="200" y="70" fill="#e4a499" /><rect width="20" height="10" x="210" y="70" fill="#cd916d" /><rect width="20" height="10" x="90" y="80" fill="#cd916d" /><rect width="10" height="10" x="110" y="80" fill="#e4a499" /><rect width="50" height="10" x="120" y="80" fill="#b92b3c" /><rect width="10" height="10" x="170" y="80" fill="#ffe939" /><rect width="10" height="10" x="180" y="80" fill="#e9265c" /><rect width="10" height="10" x="190" y="80" fill="#b92b3c" /><rect width="10" height="10" x="200" y="80" fill="#e4a499" /><rect width="20" height="10" x="210" y="80" fill="#cd916d" /><rect width="20" height="10" x="90" y="90" fill="#cd916d" /><rect width="10" height="10" x="110" y="90" fill="#e4a499" /><rect width="30" height="10" x="120" y="90" fill="#b92b3c" /><rect width="20" height="10" x="150" y="90" fill="#ffe939" /><rect width="10" height="10" x="170" y="90" fill="#e9265c" /><rect width="20" height="10" x="180" y="90" fill="#b92b3c" /><rect width="10" height="10" x="200" y="90" fill="#e4a499" /><rect width="20" height="10" x="210" y="90" fill="#cd916d" /><rect width="20" height="10" x="90" y="100" fill="#cd916d" /><rect width="10" height="10" x="110" y="100" fill="#e4a499" /><rect width="20" height="10" x="120" y="100" fill="#b92b3c" /><rect width="10" height="10" x="140" y="100" fill="#ffe939" /><rect width="20" height="10" x="150" y="100" fill="#e9265c" /><rect width="30" height="10" x="170" y="100" fill="#b92b3c" /><rect width="10" height="10" x="200" y="100" fill="#e4a499" /><rect width="20" height="10" x="210" y="100" fill="#cd916d" /><rect width="20" height="10" x="90" y="110" fill="#cd916d" /><rect width="10" height="10" x="110" y="110" fill="#e4a499" /><rect width="30" height="10" x="120" y="110" fill="#b92b3c" /><rect width="20" height="10" x="150" y="110" fill="#ffe939" /><rect width="10" height="10" x="170" y="110" fill="#e9265c" /><rect width="20" height="10" x="180" y="110" fill="#b92b3c" /><rect width="10" height="10" x="200" y="110" fill="#e4a499" /><rect width="20" height="10" x="210" y="110" fill="#cd916d" /><rect width="20" height="10" x="90" y="120" fill="#cd916d" /><rect width="10" height="10" x="110" y="120" fill="#e4a499" /><rect width="50" height="10" x="120" y="120" fill="#b92b3c" /><rect width="10" height="10" x="170" y="120" fill="#ffe939" /><rect width="10" height="10" x="180" y="120" fill="#e9265c" /><rect width="10" height="10" x="190" y="120" fill="#b92b3c" /><rect width="10" height="10" x="200" y="120" fill="#e4a499" /><rect width="20" height="10" x="210" y="120" fill="#cd916d" /><rect width="20" height="10" x="90" y="130" fill="#cd916d" /><rect width="10" height="10" x="110" y="130" fill="#e4a499" /><rect width="30" height="10" x="120" y="130" fill="#b92b3c" /><rect width="20" height="10" x="150" y="130" fill="#ffe939" /><rect width="10" height="10" x="170" y="130" fill="#e9265c" /><rect width="20" height="10" x="180" y="130" fill="#b92b3c" /><rect width="10" height="10" x="200" y="130" fill="#e4a499" /><rect width="20" height="10" x="210" y="130" fill="#cd916d" /><rect width="20" height="10" x="90" y="140" fill="#cd916d" /><rect width="10" height="10" x="110" y="140" fill="#e4a499" /><rect width="20" height="10" x="120" y="140" fill="#b92b3c" /><rect width="10" height="10" x="140" y="140" fill="#ffe939" /><rect width="20" height="10" x="150" y="140" fill="#e9265c" /><rect width="30" height="10" x="170" y="140" fill="#b92b3c" /><rect width="10" height="10" x="200" y="140" fill="#e4a499" /><rect width="20" height="10" x="210" y="140" fill="#cd916d" /><rect width="20" height="10" x="90" y="150" fill="#cd916d" /><rect width="10" height="10" x="110" y="150" fill="#e4a499" /><rect width="30" height="10" x="120" y="150" fill="#b92b3c" /><rect width="20" height="10" x="150" y="150" fill="#ffe939" /><rect width="10" height="10" x="170" y="150" fill="#e9265c" /><rect width="20" height="10" x="180" y="150" fill="#b92b3c" /><rect width="10" height="10" x="200" y="150" fill="#e4a499" /><rect width="20" height="10" x="210" y="150" fill="#cd916d" /><rect width="20" height="10" x="90" y="160" fill="#cd916d" /><rect width="10" height="10" x="110" y="160" fill="#e4a499" /><rect width="50" height="10" x="120" y="160" fill="#b92b3c" /><rect width="10" height="10" x="170" y="160" fill="#ffe939" /><rect width="10" height="10" x="180" y="160" fill="#e9265c" /><rect width="10" height="10" x="190" y="160" fill="#b92b3c" /><rect width="10" height="10" x="200" y="160" fill="#e4a499" /><rect width="20" height="10" x="210" y="160" fill="#cd916d" /><rect width="20" height="10" x="90" y="170" fill="#cd916d" /><rect width="10" height="10" x="110" y="170" fill="#e4a499" /><rect width="30" height="10" x="120" y="170" fill="#b92b3c" /><rect width="20" height="10" x="150" y="170" fill="#ffe939" /><rect width="10" height="10" x="170" y="170" fill="#e9265c" /><rect width="20" height="10" x="180" y="170" fill="#b92b3c" /><rect width="10" height="10" x="200" y="170" fill="#e4a499" /><rect width="20" height="10" x="210" y="170" fill="#cd916d" /><rect width="20" height="10" x="90" y="180" fill="#cd916d" /><rect width="10" height="10" x="110" y="180" fill="#e4a499" /><rect width="20" height="10" x="120" y="180" fill="#b92b3c" /><rect width="10" height="10" x="140" y="180" fill="#ffe939" /><rect width="20" height="10" x="150" y="180" fill="#e9265c" /><rect width="30" height="10" x="170" y="180" fill="#b92b3c" /><rect width="10" height="10" x="200" y="180" fill="#e4a499" /><rect width="20" height="10" x="210" y="180" fill="#cd916d" /><rect width="20" height="10" x="90" y="190" fill="#cd916d" /><rect width="10" height="10" x="110" y="190" fill="#e4a499" /><rect width="30" height="10" x="120" y="190" fill="#b92b3c" /><rect width="20" height="10" x="150" y="190" fill="#ffe939" /><rect width="10" height="10" x="170" y="190" fill="#e9265c" /><rect width="20" height="10" x="180" y="190" fill="#b92b3c" /><rect width="10" height="10" x="200" y="190" fill="#e4a499" /><rect width="20" height="10" x="210" y="190" fill="#cd916d" /><rect width="20" height="10" x="90" y="200" fill="#cd916d" /><rect width="10" height="10" x="110" y="200" fill="#e4a499" /><rect width="50" height="10" x="120" y="200" fill="#b92b3c" /><rect width="10" height="10" x="170" y="200" fill="#ffe939" /><rect width="10" height="10" x="180" y="200" fill="#e9265c" /><rect width="10" height="10" x="190" y="200" fill="#b92b3c" /><rect width="10" height="10" x="200" y="200" fill="#e4a499" /><rect width="20" height="10" x="210" y="200" fill="#cd916d" /><rect width="60" height="10" x="100" y="110" fill="#ffc110" /><rect width="60" height="10" x="170" y="110" fill="#f98f30" /><rect width="10" height="10" x="100" y="120" fill="#ffc110" /><rect width="20" height="10" x="110" y="120" fill="#ffffff" /><rect width="20" height="10" x="130" y="120" fill="#000000" /><rect width="10" height="10" x="150" y="120" fill="#ffc110" /><rect width="10" height="10" x="170" y="120" fill="#f98f30" /><rect width="20" height="10" x="180" y="120" fill="#ffffff" /><rect width="20" height="10" x="200" y="120" fill="#000000" /><rect width="10" height="10" x="220" y="120" fill="#f98f30" /><rect width="30" height="10" x="70" y="130" fill="#f98f30" /><rect width="10" height="10" x="100" y="130" fill="#ffc110" /><rect width="20" height="10" x="110" y="130" fill="#ffffff" /><rect width="20" height="10" x="130" y="130" fill="#000000" /><rect width="10" height="10" x="150" y="130" fill="#ffc110" /><rect width="20" height="10" x="160" y="130" fill="#f98f30" /><rect width="20" height="10" x="180" y="130" fill="#ffffff" /><rect width="20" height="10" x="200" y="130" fill="#000000" /><rect width="10" height="10" x="220" y="130" fill="#f98f30" /><rect width="10" height="10" x="70" y="140" fill="#f98f30" /><rect width="10" height="10" x="100" y="140" fill="#ffc110" /><rect width="20" height="10" x="110" y="140" fill="#ffffff" /><rect width="20" height="10" x="130" y="140" fill="#000000" /><rect width="10" height="10" x="150" y="140" fill="#ffc110" /><rect width="10" height="10" x="170" y="140" fill="#f98f30" /><rect width="20" height="10" x="180" y="140" fill="#ffffff" /><rect width="20" height="10" x="200" y="140" fill="#000000" /><rect width="10" height="10" x="220" y="140" fill="#f98f30" /><rect width="10" height="10" x="70" y="150" fill="#f98f30" /><rect width="10" height="10" x="100" y="150" fill="#ffc110" /><rect width="20" height="10" x="110" y="150" fill="#ffffff" /><rect width="20" height="10" x="130" y="150" fill="#000000" /><rect width="10" height="10" x="150" y="150" fill="#ffc110" /><rect width="10" height="10" x="170" y="150" fill="#f98f30" /><rect width="20" height="10" x="180" y="150" fill="#ffffff" /><rect width="20" height="10" x="200" y="150" fill="#000000" /><rect width="10" height="10" x="220" y="150" fill="#f98f30" /><rect width="60" height="10" x="100" y="160" fill="#ffc110" /><rect width="60" height="10" x="170" y="160" fill="#f98f30" /></svg>