<svg xmlns:xlink="http://www.w3.org/1999/xlink" width="320" height="320" viewBox="0 0 320 320" xmlns="http://www.w3.org/2000/svg" shape-rendering="crispEdges"><rect width="100%" height="100%" fill="#e1d7d5" /><rect width="140" height="10" x="90" y="210" fill="#5648ed" /><rect width="140" height="10" x="90" y="220" fill="#5648ed" /><rect width="140" height="10" x="90" y="230" fill="#5648ed" /><rect width="140" height="10" x="90" y="240" fill="#5648ed" /><rect width="20" height="10" x="90" y="250" fill="#5648ed" /><rect width="110" height="10" x="120" y="250" fill="#5648ed" /><rect width="20" height="10" x="90" y="260" fill="#5648ed" /><rect width="110" height="10" x="120" y="260" fill="#5648ed" /><rect width="20" height="10" x="90" y="270" fill="#5648ed" /><rect width="110" height="10" x="120" y="270" fill="#5648ed" /><rect width="20" height="10" x="90" y="280" fill="#5648ed" /><rect width="110" height="10" x="120" y="280" fill="#5648ed" /><rect width="20" height="10" x="90" y="290" fill="#5648ed" /><rect width="110" height="10" x="120" y="290" fill="#5648ed" /><rect width="20" height="10" x="90" y="300" fill="#5648ed" /><rect width="110" height="10" x="120" y="300" fill="#5648ed" /><rect width="20" height="10" x="90" y="310" fill="#5648ed" /><rect width="110" height="10" x="120" y="310" fill="#5648ed" /><rect width="10" height="10" x="140" y="240" fill="#fffdf2" /><rect width="10" height="10" x="160" y="240" fill="#fffdf2" /><rect width="10" height="10" x="180" y="240" fill="#fffdf2" /><rect width="10" height="10" x="140" y="260" fill="#fffdf2" /><rect width="10" height="10" x="160" y="260" fill="#fffdf2" /><rect width="10" height="10" x="180" y="260" fill="#fffdf2" /><rect width="10" height="10" x="140" y="280" fill="#fffdf2" /><rect width="10" height="10" x="160" y="280" fill="#fffdf2" /><rect width="10" height="10" x="180" y="280" fill="#fffdf2" /><rect width="30" height="10" x="140" y="10" fill="#f3322c" /><rect width="70" height="10" x="120" y="20" fill="#f3322c" /><rect width="10" height="10" x="110" y="30" fill="#e8705b" /><rect width="90" height="10" x="120" y="30" fill="#f3322c" /><rect width="10" height="10" x="100" y="40" fill="#f3322c" /><rect width="10" height="10" x="110" y="40" fill="#e8705b" /><rect width="100" height="10" x="120" y="40" fill="#f3322c" /><rect width="20" height="10" x="100" y="50" fill="#f3322c" /><rect width="10" height="10" x="120" y="50" fill="#e8705b" /><rect width="60" height="10" x="130" y="50" fill="#f3322c" /><rect width="10" height="10" x="190" y="50" fill="#e8705b" /><rect width="20" height="10" x="200" y="50" fill="#f3322c" /><rect width="30" height="10" x="100" y="60" fill="#f3322c" /><rect width="40" height="10" x="130" y="60" fill="#e8705b" /><rect width="20" height="10" x="170" y="60" fill="#ffffff" /><rect width="30" height="10" x="190" y="60" fill="#f3322c" /><rect width="70" height="10" x="100" y="70" fill="#f3322c" /><rect width="20" height="10" x="170" y="70" fill="#e8705b" /><rect width="30" height="10" x="190" y="70" fill="#f3322c" /><rect width="70" height="10" x="100" y="80" fill="#f3322c" /><rect width="20" height="10" x="170" y="80" fill="#e8705b" /><rect width="30" height="10" x="190" y="80" fill="#f3322c" /><rect width="110" height="10" x="80" y="90" fill="#fff449" /><rect width="10" height="10" x="190" y="90" fill="#ffffff" /><rect width="40" height="10" x="200" y="90" fill="#fff449" /><rect width="110" height="10" x="80" y="100" fill="#fff449" /><rect width="10" height="10" x="190" y="100" fill="#ffffff" /><rect width="40" height="10" x="200" y="100" fill="#fff449" /><rect width="110" height="10" x="80" y="110" fill="#fff449" /><rect width="10" height="10" x="190" y="110" fill="#ffffff" /><rect width="40" height="10" x="200" y="110" fill="#fff449" /><rect width="110" height="10" x="80" y="120" fill="#343235" /><rect width="10" height="10" x="190" y="120" fill="#807f7e" /><rect width="40" height="10" x="200" y="120" fill="#343235" /><rect width="110" height="10" x="80" y="130" fill="#343235" /><rect width="10" height="10" x="190" y="130" fill="#807f7e" /><rect width="40" height="10" x="200" y="130" fill="#343235" /><rect width="110" height="10" x="80" y="140" fill="#343235" /><rect width="10" height="10" x="190" y="140" fill="#807f7e" /><rect width="40" height="10" x="200" y="140" fill="#343235" /><rect width="110" height="10" x="80" y="150" fill="#343235" /><rect width="10" height="10" x="190" y="150" fill="#807f7e" /><rect width="40" height="10" x="200" y="150" fill="#343235" /><rect width="110" height="10" x="80" y="160" fill="#343235" /><rect width="10" height="10" x="190" y="160" fill="#807f7e" /><rect width="40" height="10" x="200" y="160" fill="#343235" /><rect width="110" height="10" x="80" y="170" fill="#343235" /><rect width="10" height="10" x="190" y="170" fill="#807f7e" /><rect width="40" height="10" x="200" y="170" fill="#343235" /><rect width="60" height="10" x="80" y="180" fill="#343235" /><rect width="20" height="10" x="140" y="180" fill="#000000" /><rect width="30" height="10" x="160" y="180" fill="#343235" /><rect width="10" height="10" x="190" y="180" fill="#807f7e" /><rect width="40" height="10" x="200" y="180" fill="#343235" /><rect width="110" height="10" x="80" y="190" fill="#343235" /><rect width="10" height="10" x="190" y="190" fill="#807f7e" /><rect width="40" height="10" x="200" y="190" fill="#343235" /><rect width="110" height="10" x="80" y="200" fill="#807f7e" /><rect width="10" height="10" x="190" y="200" fill="#ffffff" /><rect width="40" height="10" x="200" y="200" fill="#807f7e" /><rect width="60" height="10" x="100" y="110" fill="#b9185c" /><rect width="60" height="10" x="170" y="110" fill="#b9185c" /><rect width="10" height="10" x="100" y="120" fill="#b9185c" /><rect width="20" height="10" x="110" y="120" fill="#ffffff" /><rect width="20" height="10" x="130" y="120" fill="#000000" /><rect width="10" height="10" x="150" y="120" fill="#b9185c" /><rect width="10" height="10" x="170" y="120" fill="#b9185c" /><rect width="20" height="10" x="180" y="120" fill="#ffffff" /><rect width="20" height="10" x="200" y="120" fill="#000000" /><rect width="10" height="10" x="220" y="120" fill="#b9185c" /><rect width="40" height="10" x="70" y="130" fill="#b9185c" /><rect width="20" height="10" x="110" y="130" fill="#ffffff" /><rect width="20" height="10" x="130" y="130" fill="#000000" /><rect width="30" height="10" x="150" y="130" fill="#b9185c" /><rect width="20" height="10" x="180" y="130" fill="#ffffff" /><rect width="20" height="10" x="200" y="130" fill="#000000" /><rect width="10" height="10" x="220" y="130" fill="#b9185c" /><rect width="10" height="10" x="70" y="140" fill="#b9185c" /><rect width="10" height="10" x="100" y="140" fill="#b9185c" /><rect width="20" height="10" x="110" y="140" fill="#ffffff" /><rect width="20" height="10" x="130" y="140" fill="#000000" /><rect width="10" height="10" x="150" y="140" fill="#b9185c" /><rect width="10" height="10" x="170" y="140" fill="#b9185c" /><rect width="20" height="10" x="180" y="140" fill="#ffffff" /><rect width="20" height="10" x="200" y="140" fill="#000000" /><rect width="10" height="10" x="220" y="140" fill="#b9185c" /><rect width="10" height="10" x="70" y="150" fill="#b9185c" /><rect width="10" height="10" x="100" y="150" fill="#b9185c" /><rect width="20" height="10" x="110" y="150" fill="#ffffff" /><rect width="20" height="10" x="130" y="150" fill="#000000" /><rect width="10" height="10" x="150" y="150" fill="#b9185c" /><rect width="10" height="10" x="170" y="150" fill="#b9185c" /><rect width="20" height="10" x="180" y="150" fill="#ffffff" /><rect width="20" height="10" x="200" y="150" fill="#000000" /><rect width="10" height="10" x="220" y="150" fill="#b9185c" /><rect width="60" height="10" x="100" y="160" fill="#b9185c" /><rect width="60" height="10" x="170" y="160" fill="#b9185c" /></svg>