<svg xmlns:xlink="http://www.w3.org/1999/xlink" width="320" height="320" viewBox="0 0 320 320" xmlns="http://www.w3.org/2000/svg" shape-rendering="crispEdges"><rect width="100%" height="100%" fill="#e1d7d5" /><rect width="140" height="10" x="90" y="210" fill="#d26451" /><rect width="140" height="10" x="90" y="220" fill="#d26451" /><rect width="140" height="10" x="90" y="230" fill="#d26451" /><rect width="140" height="10" x="90" y="240" fill="#d26451" /><rect width="20" height="10" x="90" y="250" fill="#d26451" /><rect width="110" height="10" x="120" y="250" fill="#d26451" /><rect width="20" height="10" x="90" y="260" fill="#d26451" /><rect width="110" height="10" x="120" y="260" fill="#d26451" /><rect width="20" height="10" x="90" y="270" fill="#d26451" /><rect width="110" height="10" x="120" y="270" fill="#d26451" /><rect width="20" height="10" x="90" y="280" fill="#d26451" /><rect width="110" height="10" x="120" y="280" fill="#d26451" /><rect width="20" height="10" x="90" y="290" fill="#d26451" /><rect width="110" height="10" x="120" y="290" fill="#d26451" /><rect width="20" height="10" x="90" y="300" fill="#d26451" /><rect width="110" height="10" x="120" y="300" fill="#d26451" /><rect width="20" height="10" x="90" y="310" fill="#d26451" /><rect width="110" height="10" x="120" y="310" fill="#d26451" /><rect width="10" height="10" x="130" y="230" fill="#a3efd0" /><rect width="20" height="10" x="170" y="230" fill="#a3efd0" /><rect width="10" height="10" x="130" y="240" fill="#a3efd0" /><rect width="20" height="10" x="160" y="240" fill="#a3efd0" /><rect width="20" height="10" x="130" y="250" fill="#a3efd0" /><rect width="10" height="10" x="160" y="250" fill="#a3efd0" /><rect width="10" height="10" x="140" y="270" fill="#a3efd0" /><rect width="20" height="10" x="170" y="270" fill="#a3efd0" /><rect width="10" height="10" x="130" y="280" fill="#a3efd0" /><rect width="10" height="10" x="150" y="280" fill="#a3efd0" /><rect width="20" height="10" x="170" y="280" fill="#a3efd0" /><rect width="10" height="10" x="130" y="290" fill="#a3efd0" /><rect width="10" height="10" x="150" y="290" fill="#a3efd0" /><rect width="20" height="10" x="170" y="290" fill="#a3efd0" /><rect width="40" height="10" x="140" y="40" fill="#fffdf2" /><rect width="80" height="10" x="120" y="50" fill="#fffdf2" /><rect width="10" height="10" x="100" y="60" fill="#f3322c" /><rect width="110" height="10" x="110" y="60" fill="#fffdf2" /><rect width="20" height="10" x="90" y="70" fill="#fffdf2" /><rect width="10" height="10" x="110" y="70" fill="#f3322c" /><rect width="100" height="10" x="120" y="70" fill="#fffdf2" /><rect width="10" height="10" x="220" y="70" fill="#f3322c" /><rect width="10" height="10" x="230" y="70" fill="#fffdf2" /><rect width="30" height="10" x="80" y="80" fill="#fffdf2" /><rect width="10" height="10" x="110" y="80" fill="#f3322c" /><rect width="100" height="10" x="120" y="80" fill="#fffdf2" /><rect width="10" height="10" x="220" y="80" fill="#f3322c" /><rect width="10" height="10" x="230" y="80" fill="#fffdf2" /><rect width="30" height="10" x="80" y="90" fill="#fffdf2" /><rect width="10" height="10" x="110" y="90" fill="#f3322c" /><rect width="100" height="10" x="120" y="90" fill="#fffdf2" /><rect width="10" height="10" x="220" y="90" fill="#f3322c" /><rect width="10" height="10" x="230" y="90" fill="#fffdf2" /><rect width="40" height="10" x="70" y="100" fill="#fffdf2" /><rect width="10" height="10" x="110" y="100" fill="#f3322c" /><rect width="100" height="10" x="120" y="100" fill="#fffdf2" /><rect width="10" height="10" x="220" y="100" fill="#f3322c" /><rect width="20" height="10" x="230" y="100" fill="#fffdf2" /><rect width="30" height="10" x="70" y="110" fill="#fffdf2" /><rect width="10" height="10" x="100" y="110" fill="#f3322c" /><rect width="120" height="10" x="110" y="110" fill="#fffdf2" /><rect width="10" height="10" x="230" y="110" fill="#f3322c" /><rect width="10" height="10" x="240" y="110" fill="#fffdf2" /><rect width="40" height="10" x="60" y="120" fill="#fffdf2" /><rect width="10" height="10" x="100" y="120" fill="#f3322c" /><rect width="120" height="10" x="110" y="120" fill="#fffdf2" /><rect width="10" height="10" x="230" y="120" fill="#f3322c" /><rect width="20" height="10" x="240" y="120" fill="#fffdf2" /><rect width="30" height="10" x="60" y="130" fill="#fffdf2" /><rect width="10" height="10" x="90" y="130" fill="#f3322c" /><rect width="140" height="10" x="100" y="130" fill="#fffdf2" /><rect width="10" height="10" x="240" y="130" fill="#f3322c" /><rect width="10" height="10" x="250" y="130" fill="#fffdf2" /><rect width="30" height="10" x="60" y="140" fill="#fffdf2" /><rect width="10" height="10" x="90" y="140" fill="#f3322c" /><rect width="140" height="10" x="100" y="140" fill="#fffdf2" /><rect width="10" height="10" x="240" y="140" fill="#f3322c" /><rect width="10" height="10" x="250" y="140" fill="#fffdf2" /><rect width="30" height="10" x="60" y="150" fill="#fffdf2" /><rect width="10" height="10" x="90" y="150" fill="#f3322c" /><rect width="140" height="10" x="100" y="150" fill="#fffdf2" /><rect width="10" height="10" x="240" y="150" fill="#f3322c" /><rect width="10" height="10" x="250" y="150" fill="#fffdf2" /><rect width="30" height="10" x="70" y="160" fill="#fffdf2" /><rect width="10" height="10" x="100" y="160" fill="#f3322c" /><rect width="120" height="10" x="110" y="160" fill="#fffdf2" /><rect width="10" height="10" x="230" y="160" fill="#f3322c" /><rect width="10" height="10" x="240" y="160" fill="#fffdf2" /><rect width="30" height="10" x="70" y="170" fill="#fffdf2" /><rect width="10" height="10" x="100" y="170" fill="#f3322c" /><rect width="120" height="10" x="110" y="170" fill="#fffdf2" /><rect width="10" height="10" x="230" y="170" fill="#f3322c" /><rect width="10" height="10" x="240" y="170" fill="#fffdf2" /><rect width="30" height="10" x="80" y="180" fill="#fffdf2" /><rect width="10" height="10" x="110" y="180" fill="#f3322c" /><rect width="100" height="10" x="120" y="180" fill="#fffdf2" /><rect width="10" height="10" x="220" y="180" fill="#f3322c" /><rect width="10" height="10" x="230" y="180" fill="#fffdf2" /><rect width="40" height="10" x="80" y="190" fill="#fffdf2" /><rect width="20" height="10" x="120" y="190" fill="#f3322c" /><rect width="60" height="10" x="140" y="190" fill="#fffdf2" /><rect width="20" height="10" x="200" y="190" fill="#f3322c" /><rect width="20" height="10" x="220" y="190" fill="#fffdf2" /><rect width="50" height="10" x="90" y="200" fill="#fffdf2" /><rect width="60" height="10" x="140" y="200" fill="#f3322c" /><rect width="30" height="10" x="200" y="200" fill="#fffdf2" /><rect width="120" height="10" x="100" y="210" fill="#fffdf2" /><rect width="80" height="10" x="120" y="220" fill="#fffdf2" /><rect width="40" height="10" x="140" y="230" fill="#fffdf2" /><rect width="60" height="10" x="100" y="110" fill="#4bea69" /><rect width="60" height="10" x="170" y="110" fill="#4bea69" /><rect width="10" height="10" x="100" y="120" fill="#4bea69" /><rect width="20" height="10" x="110" y="120" fill="#ffffff" /><rect width="20" height="10" x="130" y="120" fill="#000000" /><rect width="10" height="10" x="150" y="120" fill="#4bea69" /><rect width="10" height="10" x="170" y="120" fill="#4bea69" /><rect width="20" height="10" x="180" y="120" fill="#ffffff" /><rect width="20" height="10" x="200" y="120" fill="#000000" /><rect width="10" height="10" x="220" y="120" fill="#4bea69" /><rect width="40" height="10" x="70" y="130" fill="#4bea69" /><rect width="20" height="10" x="110" y="130" fill="#ffffff" /><rect width="20" height="10" x="130" y="130" fill="#000000" /><rect width="30" height="10" x="150" y="130" fill="#4bea69" /><rect width="20" height="10" x="180" y="130" fill="#ffffff" /><rect width="20" height="10" x="200" y="130" fill="#000000" /><rect width="10" height="10" x="220" y="130" fill="#4bea69" /><rect width="10" height="10" x="70" y="140" fill="#4bea69" /><rect width="10" height="10" x="100" y="140" fill="#4bea69" /><rect width="20" height="10" x="110" y="140" fill="#ffffff" /><rect width="20" height="10" x="130" y="140" fill="#000000" /><rect width="10" height="10" x="150" y="140" fill="#4bea69" /><rect width="10" height="10" x="170" y="140" fill="#4bea69" /><rect width="20" height="10" x="180" y="140" fill="#ffffff" /><rect width="20" height="10" x="200" y="140" fill="#000000" /><rect width="10" height="10" x="220" y="140" fill="#4bea69" /><rect width="10" height="10" x="70" y="150" fill="#4bea69" /><rect width="10" height="10" x="100" y="150" fill="#4bea69" /><rect width="20" height="10" x="110" y="150" fill="#ffffff" /><rect width="20" height="10" x="130" y="150" fill="#000000" /><rect width="10" height="10" x="150" y="150" fill="#4bea69" /><rect width="10" height="10" x="170" y="150" fill="#4bea69" /><rect width="20" height="10" x="180" y="150" fill="#ffffff" /><rect width="20" height="10" x="200" y="150" fill="#000000" /><rect width="10" height="10" x="220" y="150" fill="#4bea69" /><rect width="60" height="10" x="100" y="160" fill="#4bea69" /><rect width="60" height="10" x="170" y="160" fill="#4bea69" /></svg>