<svg xmlns:xlink="http://www.w3.org/1999/xlink" width="320" height="320" viewBox="0 0 320 320" xmlns="http://www.w3.org/2000/svg" shape-rendering="crispEdges"><rect width="100%" height="100%" fill="#d5d7e1" /><rect width="140" height="10" x="90" y="210" fill="#fd8b5b" /><rect width="140" height="10" x="90" y="220" fill="#fd8b5b" /><rect width="140" height="10" x="90" y="230" fill="#fd8b5b" /><rect width="140" height="10" x="90" y="240" fill="#fd8b5b" /><rect width="20" height="10" x="90" y="250" fill="#fd8b5b" /><rect width="110" height="10" x="120" y="250" fill="#fd8b5b" /><rect width="20" height="10" x="90" y="260" fill="#fd8b5b" /><rect width="110" height="10" x="120" y="260" fill="#fd8b5b" /><rect width="20" height="10" x="90" y="270" fill="#fd8b5b" /><rect width="110" height="10" x="120" y="270" fill="#fd8b5b" /><rect width="20" height="10" x="90" y="280" fill="#fd8b5b" /><rect width="110" height="10" x="120" y="280" fill="#fd8b5b" /><rect width="20" height="10" x="90" y="290" fill="#fd8b5b" /><rect width="110" height="10" x="120" y="290" fill="#fd8b5b" /><rect width="20" height="10" x="90" y="300" fill="#fd8b5b" /><rect width="110" height="10" x="120" y="300" fill="#fd8b5b" /><rect width="20" height="10" x="90" y="310" fill="#fd8b5b" /><rect width="110" height="10" x="120" y="310" fill="#fd8b5b" /><rect width="30" height="10" x="130" y="240" fill="#58565c" /><rect width="10" height="10" x="170" y="240" fill="#58565c" /><rect width="10" height="10" x="190" y="240" fill="#58565c" /><rect width="10" height="10" x="130" y="250" fill="#58565c" /><rect width="10" height="10" x="150" y="250" fill="#58565c" /><rect width="10" height="10" x="170" y="250" fill="#58565c" /><rect width="10" height="10" x="190" y="250" fill="#58565c" /><rect width="10" height="10" x="130" y="260" fill="#58565c" /><rect width="10" height="10" x="150" y="260" fill="#58565c" /><rect width="10" height="10" x="170" y="260" fill="#58565c" /><rect width="20" height="10" x="190" y="260" fill="#58565c" /><rect width="80" height="10" x="120" y="10" fill="#d18687" /><rect width="120" height="10" x="100" y="20" fill="#d18687" /><rect width="90" height="10" x="100" y="30" fill="#d18687" /><rect width="30" height="10" x="190" y="30" fill="#efad81" /><rect width="160" height="10" x="70" y="40" fill="#efad81" /><rect width="20" height="10" x="230" y="40" fill="#e8705b" /><rect width="50" height="10" x="60" y="50" fill="#efad81" /><rect width="150" height="10" x="110" y="50" fill="#e8705b" /><rect width="110" height="10" x="60" y="60" fill="#e8705b" /><rect width="90" height="10" x="170" y="60" fill="#f38b7c" /><rect width="50" height="10" x="40" y="70" fill="#e8705b" /><rect width="100" height="10" x="90" y="70" fill="#f38b7c" /><rect width="90" height="10" x="190" y="70" fill="#e8705b" /><rect width="60" height="10" x="40" y="80" fill="#f38b7c" /><rect width="100" height="10" x="100" y="80" fill="#e8705b" /><rect width="80" height="10" x="200" y="80" fill="#efad81" /><rect width="90" height="10" x="40" y="90" fill="#e8705b" /><rect width="150" height="10" x="130" y="90" fill="#efad81" /><rect width="60" height="10" x="30" y="100" fill="#e8705b" /><rect width="200" height="10" x="90" y="100" fill="#efad81" /><rect width="40" height="10" x="30" y="110" fill="#e8705b" /><rect width="220" height="10" x="70" y="110" fill="#efad81" /><rect width="260" height="10" x="30" y="120" fill="#efad81" /><rect width="260" height="10" x="30" y="130" fill="#efad81" /><rect width="260" height="10" x="30" y="140" fill="#efad81" /><rect width="240" height="10" x="30" y="150" fill="#efad81" /><rect width="20" height="10" x="270" y="150" fill="#e8705b" /><rect width="220" height="10" x="30" y="160" fill="#efad81" /><rect width="40" height="10" x="250" y="160" fill="#e8705b" /><rect width="200" height="10" x="30" y="170" fill="#efad81" /><rect width="60" height="10" x="230" y="170" fill="#e8705b" /><rect width="10" height="10" x="40" y="180" fill="#e8705b" /><rect width="110" height="10" x="50" y="180" fill="#efad81" /><rect width="120" height="10" x="160" y="180" fill="#e8705b" /><rect width="140" height="10" x="40" y="190" fill="#e8705b" /><rect width="40" height="10" x="180" y="190" fill="#ffae1a" /><rect width="30" height="10" x="220" y="190" fill="#e8705b" /><rect width="30" height="10" x="250" y="190" fill="#d18687" /><rect width="110" height="10" x="60" y="200" fill="#e8705b" /><rect width="20" height="10" x="170" y="200" fill="#ffae1a" /><rect width="20" height="10" x="190" y="200" fill="#000000" /><rect width="20" height="10" x="210" y="200" fill="#ffae1a" /><rect width="30" height="10" x="230" y="200" fill="#d18687" /><rect width="40" height="10" x="60" y="210" fill="#d18687" /><rect width="80" height="10" x="100" y="210" fill="#e8705b" /><rect width="40" height="10" x="180" y="210" fill="#ffae1a" /><rect width="40" height="10" x="220" y="210" fill="#d18687" /><rect width="200" height="10" x="60" y="220" fill="#d18687" /><rect width="180" height="10" x="70" y="230" fill="#d18687" /><rect width="120" height="10" x="100" y="240" fill="#d18687" /><rect width="80" height="10" x="120" y="250" fill="#d18687" /><rect width="80" height="10" x="120" y="260" fill="#d18687" /><rect width="60" height="10" x="100" y="110" fill="#9cb4b8" /><rect width="60" height="10" x="170" y="110" fill="#9cb4b8" /><rect width="10" height="10" x="100" y="120" fill="#9cb4b8" /><rect width="20" height="10" x="110" y="120" fill="#ffffff" /><rect width="20" height="10" x="130" y="120" fill="#000000" /><rect width="10" height="10" x="150" y="120" fill="#9cb4b8" /><rect width="10" height="10" x="170" y="120" fill="#9cb4b8" /><rect width="20" height="10" x="180" y="120" fill="#ffffff" /><rect width="20" height="10" x="200" y="120" fill="#000000" /><rect width="10" height="10" x="220" y="120" fill="#9cb4b8" /><rect width="40" height="10" x="70" y="130" fill="#9cb4b8" /><rect width="20" height="10" x="110" y="130" fill="#ffffff" /><rect width="20" height="10" x="130" y="130" fill="#000000" /><rect width="30" height="10" x="150" y="130" fill="#9cb4b8" /><rect width="20" height="10" x="180" y="130" fill="#ffffff" /><rect width="20" height="10" x="200" y="130" fill="#000000" /><rect width="10" height="10" x="220" y="130" fill="#9cb4b8" /><rect width="10" height="10" x="70" y="140" fill="#9cb4b8" /><rect width="10" height="10" x="100" y="140" fill="#9cb4b8" /><rect width="20" height="10" x="110" y="140" fill="#ffffff" /><rect width="20" height="10" x="130" y="140" fill="#000000" /><rect width="10" height="10" x="150" y="140" fill="#9cb4b8" /><rect width="10" height="10" x="170" y="140" fill="#9cb4b8" /><rect width="20" height="10" x="180" y="140" fill="#ffffff" /><rect width="20" height="10" x="200" y="140" fill="#000000" /><rect width="10" height="10" x="220" y="140" fill="#9cb4b8" /><rect width="10" height="10" x="70" y="150" fill="#9cb4b8" /><rect width="10" height="10" x="100" y="150" fill="#9cb4b8" /><rect width="20" height="10" x="110" y="150" fill="#ffffff" /><rect width="20" height="10" x="130" y="150" fill="#000000" /><rect width="10" height="10" x="150" y="150" fill="#9cb4b8" /><rect width="10" height="10" x="170" y="150" fill="#9cb4b8" /><rect width="20" height="10" x="180" y="150" fill="#ffffff" /><rect width="20" height="10" x="200" y="150" fill="#000000" /><rect width="10" height="10" x="220" y="150" fill="#9cb4b8" /><rect width="60" height="10" x="100" y="160" fill="#9cb4b8" /><rect width="60" height="10" x="170" y="160" fill="#9cb4b8" /></svg>