<svg xmlns:xlink="http://www.w3.org/1999/xlink" width="320" height="320" viewBox="0 0 320 320" xmlns="http://www.w3.org/2000/svg" shape-rendering="crispEdges"><rect width="100%" height="100%" fill="#e1d7d5" /><rect width="140" height="10" x="90" y="210" fill="#e9265c" /><rect width="140" height="10" x="90" y="220" fill="#e9265c" /><rect width="140" height="10" x="90" y="230" fill="#e9265c" /><rect width="140" height="10" x="90" y="240" fill="#e9265c" /><rect width="20" height="10" x="90" y="250" fill="#e9265c" /><rect width="110" height="10" x="120" y="250" fill="#e9265c" /><rect width="20" height="10" x="90" y="260" fill="#e9265c" /><rect width="110" height="10" x="120" y="260" fill="#e9265c" /><rect width="20" height="10" x="90" y="270" fill="#e9265c" /><rect width="110" height="10" x="120" y="270" fill="#e9265c" /><rect width="20" height="10" x="90" y="280" fill="#e9265c" /><rect width="110" height="10" x="120" y="280" fill="#e9265c" /><rect width="20" height="10" x="90" y="290" fill="#e9265c" /><rect width="110" height="10" x="120" y="290" fill="#e9265c" /><rect width="20" height="10" x="90" y="300" fill="#e9265c" /><rect width="110" height="10" x="120" y="300" fill="#e9265c" /><rect width="20" height="10" x="90" y="310" fill="#e9265c" /><rect width="110" height="10" x="120" y="310" fill="#e9265c" /><rect width="20" height="10" x="140" y="230" fill="#fffdf2" /><rect width="10" height="10" x="130" y="240" fill="#fffdf2" /><rect width="10" height="10" x="160" y="240" fill="#fffdf2" /><rect width="10" height="10" x="130" y="250" fill="#fffdf2" /><rect width="30" height="10" x="140" y="260" fill="#fffdf2" /><rect width="30" height="10" x="160" y="270" fill="#fffdf2" /><rect width="10" height="10" x="190" y="280" fill="#fffdf2" /><rect width="10" height="10" x="160" y="290" fill="#fffdf2" /><rect width="10" height="10" x="190" y="290" fill="#fffdf2" /><rect width="20" height="10" x="170" y="300" fill="#fffdf2" /><rect width="100" height="10" x="60" y="90" fill="#6f597a" /><rect width="100" height="10" x="180" y="90" fill="#6f597a" /><rect width="10" height="10" x="60" y="100" fill="#6f597a" /><rect width="50" height="10" x="70" y="100" fill="#ffffff" /><rect width="40" height="10" x="120" y="100" fill="#6f597a" /><rect width="10" height="10" x="180" y="100" fill="#6f597a" /><rect width="50" height="10" x="190" y="100" fill="#ffffff" /><rect width="40" height="10" x="240" y="100" fill="#6f597a" /><rect width="10" height="10" x="60" y="110" fill="#6f597a" /><rect width="50" height="10" x="70" y="110" fill="#ffffff" /><rect width="40" height="10" x="120" y="110" fill="#6f597a" /><rect width="10" height="10" x="180" y="110" fill="#6f597a" /><rect width="50" height="10" x="190" y="110" fill="#ffffff" /><rect width="40" height="10" x="240" y="110" fill="#6f597a" /><rect width="50" height="10" x="20" y="120" fill="#6f597a" /><rect width="50" height="10" x="70" y="120" fill="#ffffff" /><rect width="70" height="10" x="120" y="120" fill="#6f597a" /><rect width="50" height="10" x="190" y="120" fill="#ffffff" /><rect width="40" height="10" x="240" y="120" fill="#6f597a" /><rect width="50" height="10" x="20" y="130" fill="#6f597a" /><rect width="50" height="10" x="70" y="130" fill="#ffffff" /><rect width="70" height="10" x="120" y="130" fill="#6f597a" /><rect width="50" height="10" x="190" y="130" fill="#ffffff" /><rect width="40" height="10" x="240" y="130" fill="#6f597a" /><rect width="10" height="10" x="20" y="140" fill="#6f597a" /><rect width="10" height="10" x="60" y="140" fill="#6f597a" /><rect width="50" height="10" x="70" y="140" fill="#ffffff" /><rect width="40" height="10" x="120" y="140" fill="#6f597a" /><rect width="10" height="10" x="180" y="140" fill="#6f597a" /><rect width="50" height="10" x="190" y="140" fill="#ffffff" /><rect width="40" height="10" x="240" y="140" fill="#6f597a" /><rect width="10" height="10" x="20" y="150" fill="#6f597a" /><rect width="10" height="10" x="60" y="150" fill="#6f597a" /><rect width="50" height="10" x="70" y="150" fill="#ffffff" /><rect width="40" height="10" x="120" y="150" fill="#6f597a" /><rect width="10" height="10" x="180" y="150" fill="#6f597a" /><rect width="50" height="10" x="190" y="150" fill="#ffffff" /><rect width="40" height="10" x="240" y="150" fill="#6f597a" /><rect width="10" height="10" x="20" y="160" fill="#6f597a" /><rect width="10" height="10" x="60" y="160" fill="#6f597a" /><rect width="50" height="10" x="70" y="160" fill="#ffffff" /><rect width="40" height="10" x="120" y="160" fill="#6f597a" /><rect width="10" height="10" x="180" y="160" fill="#6f597a" /><rect width="50" height="10" x="190" y="160" fill="#ffffff" /><rect width="40" height="10" x="240" y="160" fill="#6f597a" /><rect width="10" height="10" x="60" y="170" fill="#6f597a" /><rect width="50" height="10" x="70" y="170" fill="#ffffff" /><rect width="40" height="10" x="120" y="170" fill="#6f597a" /><rect width="10" height="10" x="180" y="170" fill="#6f597a" /><rect width="50" height="10" x="190" y="170" fill="#ffffff" /><rect width="40" height="10" x="240" y="170" fill="#6f597a" /><rect width="100" height="10" x="60" y="180" fill="#6f597a" /><rect width="100" height="10" x="180" y="180" fill="#6f597a" /><rect width="60" height="10" x="100" y="110" fill="#f3322c" /><rect width="60" height="10" x="170" y="110" fill="#f3322c" /><rect width="10" height="10" x="100" y="120" fill="#f3322c" /><rect width="20" height="10" x="110" y="120" fill="#ffffff" /><rect width="20" height="10" x="130" y="120" fill="#000000" /><rect width="10" height="10" x="150" y="120" fill="#f3322c" /><rect width="10" height="10" x="170" y="120" fill="#f3322c" /><rect width="20" height="10" x="180" y="120" fill="#ffffff" /><rect width="20" height="10" x="200" y="120" fill="#000000" /><rect width="10" height="10" x="220" y="120" fill="#f3322c" /><rect width="40" height="10" x="70" y="130" fill="#f3322c" /><rect width="20" height="10" x="110" y="130" fill="#ffffff" /><rect width="20" height="10" x="130" y="130" fill="#000000" /><rect width="30" height="10" x="150" y="130" fill="#f3322c" /><rect width="20" height="10" x="180" y="130" fill="#ffffff" /><rect width="20" height="10" x="200" y="130" fill="#000000" /><rect width="10" height="10" x="220" y="130" fill="#f3322c" /><rect width="10" height="10" x="70" y="140" fill="#f3322c" /><rect width="10" height="10" x="100" y="140" fill="#f3322c" /><rect width="20" height="10" x="110" y="140" fill="#ffffff" /><rect width="20" height="10" x="130" y="140" fill="#000000" /><rect width="10" height="10" x="150" y="140" fill="#f3322c" /><rect width="10" height="10" x="170" y="140" fill="#f3322c" /><rect width="20" height="10" x="180" y="140" fill="#ffffff" /><rect width="20" height="10" x="200" y="140" fill="#000000" /><rect width="10" height="10" x="220" y="140" fill="#f3322c" /><rect width="10" height="10" x="70" y="150" fill="#f3322c" /><rect width="10" height="10" x="100" y="150" fill="#f3322c" /><rect width="20" height="10" x="110" y="150" fill="#ffffff" /><rect width="20" height="10" x="130" y="150" fill="#000000" /><rect width="10" height="10" x="150" y="150" fill="#f3322c" /><rect width="10" height="10" x="170" y="150" fill="#f3322c" /><rect width="20" height="10" x="180" y="150" fill="#ffffff" /><rect width="20" height="10" x="200" y="150" fill="#000000" /><rect width="10" height="10" x="220" y="150" fill="#f3322c" /><rect width="60" height="10" x="100" y="160" fill="#f3322c" /><rect width="60" height="10" x="170" y="160" fill="#f3322c" /></svg>