<svg xmlns:xlink="http://www.w3.org/1999/xlink" width="320" height="320" viewBox="0 0 320 320" xmlns="http://www.w3.org/2000/svg" shape-rendering="crispEdges"><rect width="100%" height="100%" fill="#e1d7d5" /><rect width="140" height="10" x="90" y="210" fill="#34ac80" /><rect width="140" height="10" x="90" y="220" fill="#34ac80" /><rect width="140" height="10" x="90" y="230" fill="#34ac80" /><rect width="140" height="10" x="90" y="240" fill="#34ac80" /><rect width="20" height="10" x="90" y="250" fill="#34ac80" /><rect width="110" height="10" x="120" y="250" fill="#34ac80" /><rect width="20" height="10" x="90" y="260" fill="#34ac80" /><rect width="110" height="10" x="120" y="260" fill="#34ac80" /><rect width="20" height="10" x="90" y="270" fill="#34ac80" /><rect width="110" height="10" x="120" y="270" fill="#34ac80" /><rect width="20" height="10" x="90" y="280" fill="#34ac80" /><rect width="110" height="10" x="120" y="280" fill="#34ac80" /><rect width="20" height="10" x="90" y="290" fill="#34ac80" /><rect width="110" height="10" x="120" y="290" fill="#34ac80" /><rect width="20" height="10" x="90" y="300" fill="#34ac80" /><rect width="110" height="10" x="120" y="300" fill="#34ac80" /><rect width="20" height="10" x="90" y="310" fill="#34ac80" /><rect width="110" height="10" x="120" y="310" fill="#34ac80" /><rect width="20" height="10" x="140" y="230" fill="#5a65fa" /><rect width="10" height="10" x="170" y="230" fill="#5a65fa" /><rect width="10" height="10" x="140" y="240" fill="#5a65fa" /><rect width="20" height="10" x="160" y="240" fill="#5a65fa" /><rect width="20" height="10" x="130" y="260" fill="#da42cb" /><rect width="10" height="10" x="160" y="260" fill="#fe500c" /><rect width="10" height="10" x="180" y="260" fill="#fe500c" /><rect width="20" height="10" x="130" y="270" fill="#da42cb" /><rect width="30" height="10" x="160" y="270" fill="#fe500c" /><rect width="20" height="10" x="140" y="290" fill="#068940" /><rect width="10" height="10" x="170" y="290" fill="#068940" /><rect width="10" height="10" x="140" y="300" fill="#068940" /><rect width="20" height="10" x="160" y="300" fill="#068940" /><rect width="10" height="10" x="80" y="50" fill="#9d8e6e" /><rect width="40" height="10" x="210" y="50" fill="#343235" /><rect width="20" height="10" x="70" y="60" fill="#9d8e6e" /><rect width="40" height="10" x="230" y="60" fill="#9d8e6e" /><rect width="20" height="10" x="60" y="70" fill="#9d8e6e" /><rect width="20" height="10" x="220" y="70" fill="#9d8e6e" /><rect width="10" height="10" x="240" y="70" fill="#7d635e" /><rect width="20" height="10" x="250" y="70" fill="#000000" /><rect width="10" height="10" x="270" y="70" fill="#9d8e6e" /><rect width="20" height="10" x="60" y="80" fill="#9d8e6e" /><rect width="20" height="10" x="220" y="80" fill="#9d8e6e" /><rect width="10" height="10" x="240" y="80" fill="#7d635e" /><rect width="40" height="10" x="250" y="80" fill="#9d8e6e" /><rect width="150" height="10" x="60" y="90" fill="#9d8e6e" /><rect width="10" height="10" x="210" y="90" fill="#7d635e" /><rect width="20" height="10" x="220" y="90" fill="#9d8e6e" /><rect width="10" height="10" x="240" y="90" fill="#7d635e" /><rect width="20" height="10" x="250" y="90" fill="#9d8e6e" /><rect width="20" height="10" x="270" y="90" fill="#a86f60" /><rect width="140" height="10" x="70" y="100" fill="#9d8e6e" /><rect width="10" height="10" x="210" y="100" fill="#7d635e" /><rect width="20" height="10" x="220" y="100" fill="#9d8e6e" /><rect width="10" height="10" x="240" y="100" fill="#7d635e" /><rect width="10" height="10" x="250" y="100" fill="#9d8e6e" /><rect width="10" height="10" x="260" y="100" fill="#7d635e" /><rect width="20" height="10" x="270" y="100" fill="#9d8e6e" /><rect width="140" height="10" x="80" y="110" fill="#9d8e6e" /><rect width="20" height="10" x="220" y="110" fill="#7d635e" /><rect width="20" height="10" x="240" y="110" fill="#9d8e6e" /><rect width="20" height="10" x="270" y="110" fill="#9d8e6e" /><rect width="160" height="10" x="80" y="120" fill="#9d8e6e" /><rect width="10" height="10" x="270" y="120" fill="#9d8e6e" /><rect width="160" height="10" x="80" y="130" fill="#9d8e6e" /><rect width="160" height="10" x="80" y="140" fill="#9d8e6e" /><rect width="170" height="10" x="80" y="150" fill="#9d8e6e" /><rect width="170" height="10" x="80" y="160" fill="#9d8e6e" /><rect width="50" height="10" x="70" y="170" fill="#9d8e6e" /><rect width="10" height="10" x="120" y="170" fill="#7d635e" /><rect width="120" height="10" x="130" y="170" fill="#9d8e6e" /><rect width="50" height="10" x="70" y="180" fill="#9d8e6e" /><rect width="10" height="10" x="120" y="180" fill="#7d635e" /><rect width="10" height="10" x="130" y="180" fill="#000000" /><rect width="10" height="10" x="140" y="180" fill="#ffffff" /><rect width="10" height="10" x="150" y="180" fill="#000000" /><rect width="10" height="10" x="160" y="180" fill="#ffffff" /><rect width="10" height="10" x="170" y="180" fill="#000000" /><rect width="10" height="10" x="180" y="180" fill="#ffffff" /><rect width="70" height="10" x="190" y="180" fill="#9d8e6e" /><rect width="40" height="10" x="70" y="190" fill="#9d8e6e" /><rect width="10" height="10" x="110" y="190" fill="#7d635e" /><rect width="100" height="10" x="120" y="190" fill="#9d8e6e" /><rect width="30" height="10" x="230" y="190" fill="#9d8e6e" /><rect width="30" height="10" x="70" y="200" fill="#9d8e6e" /><rect width="100" height="10" x="110" y="200" fill="#9d8e6e" /><rect width="10" height="10" x="250" y="200" fill="#9d8e6e" /><rect width="20" height="10" x="60" y="210" fill="#9d8e6e" /><rect width="10" height="10" x="250" y="210" fill="#9d8e6e" /><rect width="30" height="10" x="50" y="220" fill="#9d8e6e" /><rect width="20" height="10" x="240" y="220" fill="#9d8e6e" /><rect width="10" height="10" x="50" y="230" fill="#9d8e6e" /><rect width="10" height="10" x="240" y="230" fill="#9d8e6e" /><rect width="10" height="10" x="50" y="240" fill="#9d8e6e" /><rect width="10" height="10" x="240" y="240" fill="#9d8e6e" /><rect width="60" height="10" x="100" y="110" fill="#f3322c" /><rect width="60" height="10" x="170" y="110" fill="#f3322c" /><rect width="10" height="10" x="100" y="120" fill="#f3322c" /><rect width="20" height="10" x="110" y="120" fill="#ffffff" /><rect width="20" height="10" x="130" y="120" fill="#000000" /><rect width="10" height="10" x="150" y="120" fill="#f3322c" /><rect width="10" height="10" x="170" y="120" fill="#f3322c" /><rect width="20" height="10" x="180" y="120" fill="#ffffff" /><rect width="20" height="10" x="200" y="120" fill="#000000" /><rect width="10" height="10" x="220" y="120" fill="#f3322c" /><rect width="40" height="10" x="70" y="130" fill="#f3322c" /><rect width="20" height="10" x="110" y="130" fill="#ffffff" /><rect width="20" height="10" x="130" y="130" fill="#000000" /><rect width="30" height="10" x="150" y="130" fill="#f3322c" /><rect width="20" height="10" x="180" y="130" fill="#ffffff" /><rect width="20" height="10" x="200" y="130" fill="#000000" /><rect width="10" height="10" x="220" y="130" fill="#f3322c" /><rect width="10" height="10" x="70" y="140" fill="#f3322c" /><rect width="10" height="10" x="100" y="140" fill="#f3322c" /><rect width="20" height="10" x="110" y="140" fill="#ffffff" /><rect width="20" height="10" x="130" y="140" fill="#000000" /><rect width="10" height="10" x="150" y="140" fill="#f3322c" /><rect width="10" height="10" x="170" y="140" fill="#f3322c" /><rect width="20" height="10" x="180" y="140" fill="#ffffff" /><rect width="20" height="10" x="200" y="140" fill="#000000" /><rect width="10" height="10" x="220" y="140" fill="#f3322c" /><rect width="10" height="10" x="70" y="150" fill="#f3322c" /><rect width="10" height="10" x="100" y="150" fill="#f3322c" /><rect width="20" height="10" x="110" y="150" fill="#ffffff" /><rect width="20" height="10" x="130" y="150" fill="#000000" /><rect width="10" height="10" x="150" y="150" fill="#f3322c" /><rect width="10" height="10" x="170" y="150" fill="#f3322c" /><rect width="20" height="10" x="180" y="150" fill="#ffffff" /><rect width="20" height="10" x="200" y="150" fill="#000000" /><rect width="10" height="10" x="220" y="150" fill="#f3322c" /><rect width="60" height="10" x="100" y="160" fill="#f3322c" /><rect width="60" height="10" x="170" y="160" fill="#f3322c" /></svg>