<svg xmlns:xlink="http://www.w3.org/1999/xlink" width="320" height="320" viewBox="0 0 320 320" xmlns="http://www.w3.org/2000/svg" shape-rendering="crispEdges"><rect width="100%" height="100%" fill="#e1d7d5" /><rect width="140" height="10" x="90" y="210" fill="#d22209" /><rect width="140" height="10" x="90" y="220" fill="#d22209" /><rect width="140" height="10" x="90" y="230" fill="#d22209" /><rect width="140" height="10" x="90" y="240" fill="#d22209" /><rect width="20" height="10" x="90" y="250" fill="#d22209" /><rect width="110" height="10" x="120" y="250" fill="#d22209" /><rect width="20" height="10" x="90" y="260" fill="#d22209" /><rect width="110" height="10" x="120" y="260" fill="#d22209" /><rect width="20" height="10" x="90" y="270" fill="#d22209" /><rect width="110" height="10" x="120" y="270" fill="#d22209" /><rect width="20" height="10" x="90" y="280" fill="#d22209" /><rect width="110" height="10" x="120" y="280" fill="#d22209" /><rect width="20" height="10" x="90" y="290" fill="#d22209" /><rect width="110" height="10" x="120" y="290" fill="#d22209" /><rect width="20" height="10" x="90" y="300" fill="#d22209" /><rect width="110" height="10" x="120" y="300" fill="#d22209" /><rect width="20" height="10" x="90" y="310" fill="#d22209" /><rect width="110" height="10" x="120" y="310" fill="#d22209" /><rect width="20" height="10" x="140" y="220" fill="#fa6fe2" /><rect width="10" height="10" x="170" y="220" fill="#fa6fe2" /><rect width="10" height="10" x="140" y="230" fill="#fa6fe2" /><rect width="20" height="10" x="160" y="230" fill="#fa6fe2" /><rect width="20" height="10" x="130" y="250" fill="#fa6fe2" /><rect width="10" height="10" x="160" y="250" fill="#fa6fe2" /><rect width="10" height="10" x="180" y="250" fill="#fa6fe2" /><rect width="20" height="10" x="130" y="260" fill="#fa6fe2" /><rect width="30" height="10" x="160" y="260" fill="#fa6fe2" /><rect width="20" height="10" x="140" y="280" fill="#fa6fe2" /><rect width="10" height="10" x="170" y="280" fill="#fa6fe2" /><rect width="10" height="10" x="140" y="290" fill="#fa6fe2" /><rect width="20" height="10" x="160" y="290" fill="#fa6fe2" /><rect width="10" height="10" x="190" y="60" fill="#a38654" /><rect width="70" height="10" x="170" y="70" fill="#74580d" /><rect width="30" height="10" x="150" y="80" fill="#74580d" /><rect width="10" height="10" x="180" y="80" fill="#a38654" /><rect width="70" height="10" x="190" y="80" fill="#74580d" /><rect width="110" height="10" x="120" y="90" fill="#74580d" /><rect width="20" height="10" x="230" y="90" fill="#a38654" /><rect width="20" height="10" x="250" y="90" fill="#74580d" /><rect width="150" height="10" x="90" y="100" fill="#74580d" /><rect width="10" height="10" x="240" y="100" fill="#a38654" /><rect width="20" height="10" x="250" y="100" fill="#74580d" /><rect width="220" height="10" x="60" y="110" fill="#74580d" /><rect width="230" height="10" x="50" y="120" fill="#74580d" /><rect width="240" height="10" x="40" y="130" fill="#74580d" /><rect width="240" height="10" x="40" y="140" fill="#74580d" /><rect width="240" height="10" x="40" y="150" fill="#74580d" /><rect width="10" height="10" x="280" y="150" fill="#a38654" /><rect width="240" height="10" x="40" y="160" fill="#74580d" /><rect width="160" height="10" x="40" y="170" fill="#74580d" /><rect width="20" height="10" x="200" y="170" fill="#a38654" /><rect width="50" height="10" x="220" y="170" fill="#74580d" /><rect width="90" height="10" x="50" y="180" fill="#74580d" /><rect width="10" height="10" x="140" y="180" fill="#000000" /><rect width="10" height="10" x="150" y="180" fill="#ffffff" /><rect width="10" height="10" x="160" y="180" fill="#000000" /><rect width="10" height="10" x="170" y="180" fill="#ffffff" /><rect width="10" height="10" x="180" y="180" fill="#000000" /><rect width="10" height="10" x="190" y="180" fill="#74580d" /><rect width="20" height="10" x="200" y="180" fill="#a38654" /><rect width="50" height="10" x="220" y="180" fill="#74580d" /><rect width="50" height="10" x="60" y="190" fill="#74580d" /><rect width="20" height="10" x="110" y="190" fill="#a38654" /><rect width="130" height="10" x="130" y="190" fill="#74580d" /><rect width="40" height="10" x="70" y="200" fill="#74580d" /><rect width="20" height="10" x="110" y="200" fill="#a38654" /><rect width="110" height="10" x="130" y="200" fill="#74580d" /><rect width="100" height="10" x="100" y="210" fill="#74580d" /><rect width="60" height="10" x="100" y="110" fill="#4bea69" /><rect width="60" height="10" x="170" y="110" fill="#4bea69" /><rect width="10" height="10" x="100" y="120" fill="#4bea69" /><rect width="20" height="10" x="110" y="120" fill="#ffffff" /><rect width="20" height="10" x="130" y="120" fill="#000000" /><rect width="10" height="10" x="150" y="120" fill="#4bea69" /><rect width="10" height="10" x="170" y="120" fill="#4bea69" /><rect width="20" height="10" x="180" y="120" fill="#ffffff" /><rect width="20" height="10" x="200" y="120" fill="#000000" /><rect width="10" height="10" x="220" y="120" fill="#4bea69" /><rect width="40" height="10" x="70" y="130" fill="#4bea69" /><rect width="20" height="10" x="110" y="130" fill="#ffffff" /><rect width="20" height="10" x="130" y="130" fill="#000000" /><rect width="30" height="10" x="150" y="130" fill="#4bea69" /><rect width="20" height="10" x="180" y="130" fill="#ffffff" /><rect width="20" height="10" x="200" y="130" fill="#000000" /><rect width="10" height="10" x="220" y="130" fill="#4bea69" /><rect width="10" height="10" x="70" y="140" fill="#4bea69" /><rect width="10" height="10" x="100" y="140" fill="#4bea69" /><rect width="20" height="10" x="110" y="140" fill="#ffffff" /><rect width="20" height="10" x="130" y="140" fill="#000000" /><rect width="10" height="10" x="150" y="140" fill="#4bea69" /><rect width="10" height="10" x="170" y="140" fill="#4bea69" /><rect width="20" height="10" x="180" y="140" fill="#ffffff" /><rect width="20" height="10" x="200" y="140" fill="#000000" /><rect width="10" height="10" x="220" y="140" fill="#4bea69" /><rect width="10" height="10" x="70" y="150" fill="#4bea69" /><rect width="10" height="10" x="100" y="150" fill="#4bea69" /><rect width="20" height="10" x="110" y="150" fill="#ffffff" /><rect width="20" height="10" x="130" y="150" fill="#000000" /><rect width="10" height="10" x="150" y="150" fill="#4bea69" /><rect width="10" height="10" x="170" y="150" fill="#4bea69" /><rect width="20" height="10" x="180" y="150" fill="#ffffff" /><rect width="20" height="10" x="200" y="150" fill="#000000" /><rect width="10" height="10" x="220" y="150" fill="#4bea69" /><rect width="60" height="10" x="100" y="160" fill="#4bea69" /><rect width="60" height="10" x="170" y="160" fill="#4bea69" /></svg>