<svg xmlns:xlink="http://www.w3.org/1999/xlink" width="320" height="320" viewBox="0 0 320 320" xmlns="http://www.w3.org/2000/svg" shape-rendering="crispEdges"><rect width="100%" height="100%" fill="#d5d7e1" /><rect width="140" height="10" x="90" y="210" fill="#b87b11" /><rect width="140" height="10" x="90" y="220" fill="#b87b11" /><rect width="140" height="10" x="90" y="230" fill="#b87b11" /><rect width="140" height="10" x="90" y="240" fill="#b87b11" /><rect width="20" height="10" x="90" y="250" fill="#b87b11" /><rect width="110" height="10" x="120" y="250" fill="#b87b11" /><rect width="20" height="10" x="90" y="260" fill="#b87b11" /><rect width="110" height="10" x="120" y="260" fill="#b87b11" /><rect width="20" height="10" x="90" y="270" fill="#b87b11" /><rect width="110" height="10" x="120" y="270" fill="#b87b11" /><rect width="20" height="10" x="90" y="280" fill="#b87b11" /><rect width="110" height="10" x="120" y="280" fill="#b87b11" /><rect width="20" height="10" x="90" y="290" fill="#b87b11" /><rect width="110" height="10" x="120" y="290" fill="#b87b11" /><rect width="20" height="10" x="90" y="300" fill="#b87b11" /><rect width="110" height="10" x="120" y="300" fill="#b87b11" /><rect width="20" height="10" x="90" y="310" fill="#b87b11" /><rect width="110" height="10" x="120" y="310" fill="#b87b11" /><rect width="20" height="10" x="90" y="210" fill="#df2c39" /><rect width="20" height="10" x="110" y="210" fill="#000000" /><rect width="20" height="10" x="130" y="210" fill="#df2c39" /><rect width="20" height="10" x="150" y="210" fill="#000000" /><rect width="20" height="10" x="170" y="210" fill="#df2c39" /><rect width="20" height="10" x="190" y="210" fill="#000000" /><rect width="20" height="10" x="210" y="210" fill="#df2c39" /><rect width="20" height="10" x="90" y="220" fill="#df2c39" /><rect width="20" height="10" x="110" y="220" fill="#000000" /><rect width="20" height="10" x="130" y="220" fill="#df2c39" /><rect width="20" height="10" x="150" y="220" fill="#000000" /><rect width="20" height="10" x="170" y="220" fill="#df2c39" /><rect width="20" height="10" x="190" y="220" fill="#000000" /><rect width="20" height="10" x="210" y="220" fill="#df2c39" /><rect width="20" height="10" x="90" y="230" fill="#000000" /><rect width="20" height="10" x="110" y="230" fill="#f938d8" /><rect width="20" height="10" x="130" y="230" fill="#000000" /><rect width="20" height="10" x="150" y="230" fill="#f938d8" /><rect width="20" height="10" x="170" y="230" fill="#000000" /><rect width="20" height="10" x="190" y="230" fill="#f938d8" /><rect width="20" height="10" x="210" y="230" fill="#000000" /><rect width="20" height="10" x="90" y="240" fill="#000000" /><rect width="20" height="10" x="110" y="240" fill="#f938d8" /><rect width="20" height="10" x="130" y="240" fill="#000000" /><rect width="20" height="10" x="150" y="240" fill="#f938d8" /><rect width="20" height="10" x="170" y="240" fill="#000000" /><rect width="20" height="10" x="190" y="240" fill="#f938d8" /><rect width="20" height="10" x="210" y="240" fill="#000000" /><rect width="20" height="10" x="90" y="250" fill="#5c25fb" /><rect width="10" height="10" x="120" y="250" fill="#000000" /><rect width="20" height="10" x="130" y="250" fill="#5c25fb" /><rect width="20" height="10" x="150" y="250" fill="#000000" /><rect width="20" height="10" x="170" y="250" fill="#5c25fb" /><rect width="20" height="10" x="190" y="250" fill="#000000" /><rect width="20" height="10" x="210" y="250" fill="#5c25fb" /><rect width="20" height="10" x="90" y="260" fill="#5c25fb" /><rect width="10" height="10" x="120" y="260" fill="#000000" /><rect width="20" height="10" x="130" y="260" fill="#5c25fb" /><rect width="20" height="10" x="150" y="260" fill="#000000" /><rect width="20" height="10" x="170" y="260" fill="#5c25fb" /><rect width="20" height="10" x="190" y="260" fill="#000000" /><rect width="20" height="10" x="210" y="260" fill="#5c25fb" /><rect width="20" height="10" x="90" y="270" fill="#000000" /><rect width="10" height="10" x="120" y="270" fill="#2a86fd" /><rect width="20" height="10" x="130" y="270" fill="#000000" /><rect width="20" height="10" x="150" y="270" fill="#2a86fd" /><rect width="20" height="10" x="170" y="270" fill="#000000" /><rect width="20" height="10" x="190" y="270" fill="#2a86fd" /><rect width="20" height="10" x="210" y="270" fill="#000000" /><rect width="20" height="10" x="90" y="280" fill="#000000" /><rect width="10" height="10" x="120" y="280" fill="#2a86fd" /><rect width="20" height="10" x="130" y="280" fill="#000000" /><rect width="20" height="10" x="150" y="280" fill="#2a86fd" /><rect width="20" height="10" x="170" y="280" fill="#000000" /><rect width="20" height="10" x="190" y="280" fill="#2a86fd" /><rect width="20" height="10" x="210" y="280" fill="#000000" /><rect width="20" height="10" x="90" y="290" fill="#45faff" /><rect width="10" height="10" x="120" y="290" fill="#000000" /><rect width="20" height="10" x="130" y="290" fill="#45faff" /><rect width="20" height="10" x="150" y="290" fill="#000000" /><rect width="20" height="10" x="170" y="290" fill="#45faff" /><rect width="20" height="10" x="190" y="290" fill="#000000" /><rect width="20" height="10" x="210" y="290" fill="#45faff" /><rect width="20" height="10" x="90" y="300" fill="#45faff" /><rect width="10" height="10" x="120" y="300" fill="#000000" /><rect width="20" height="10" x="130" y="300" fill="#45faff" /><rect width="20" height="10" x="150" y="300" fill="#000000" /><rect width="20" height="10" x="170" y="300" fill="#45faff" /><rect width="20" height="10" x="190" y="300" fill="#000000" /><rect width="20" height="10" x="210" y="300" fill="#45faff" /><rect width="20" height="10" x="90" y="310" fill="#000000" /><rect width="10" height="10" x="120" y="310" fill="#38dd56" /><rect width="20" height="10" x="130" y="310" fill="#000000" /><rect width="20" height="10" x="150" y="310" fill="#38dd56" /><rect width="20" height="10" x="170" y="310" fill="#000000" /><rect width="20" height="10" x="190" y="310" fill="#38dd56" /><rect width="20" height="10" x="210" y="310" fill="#000000" /><rect width="60" height="10" x="70" y="70" fill="#4bea69" /><rect width="80" height="10" x="130" y="70" fill="#ffd067" /><rect width="50" height="10" x="210" y="70" fill="#e9265c" /><rect width="20" height="10" x="60" y="80" fill="#4bea69" /><rect width="50" height="10" x="80" y="80" fill="#42ffb0" /><rect width="80" height="10" x="130" y="80" fill="#ffffff" /><rect width="30" height="10" x="210" y="80" fill="#fd8b5b" /><rect width="30" height="10" x="240" y="80" fill="#e9265c" /><rect width="10" height="10" x="60" y="90" fill="#4bea69" /><rect width="10" height="10" x="70" y="90" fill="#42ffb0" /><rect width="50" height="10" x="80" y="90" fill="#4bea69" /><rect width="80" height="10" x="130" y="90" fill="#ffd067" /><rect width="30" height="10" x="210" y="90" fill="#e9265c" /><rect width="20" height="10" x="240" y="90" fill="#ffffff" /><rect width="20" height="10" x="260" y="90" fill="#e9265c" /><rect width="10" height="10" x="60" y="100" fill="#4bea69" /><rect width="10" height="10" x="70" y="100" fill="#42ffb0" /><rect width="50" height="10" x="80" y="100" fill="#4bea69" /><rect width="80" height="10" x="130" y="100" fill="#ffd067" /><rect width="30" height="10" x="210" y="100" fill="#e9265c" /><rect width="20" height="10" x="240" y="100" fill="#ffffff" /><rect width="20" height="10" x="260" y="100" fill="#e9265c" /><rect width="70" height="10" x="60" y="110" fill="#4bea69" /><rect width="80" height="10" x="130" y="110" fill="#ffd067" /><rect width="50" height="10" x="210" y="110" fill="#e9265c" /><rect width="10" height="10" x="260" y="110" fill="#fd8b5b" /><rect width="10" height="10" x="270" y="110" fill="#e9265c" /><rect width="40" height="10" x="20" y="120" fill="#a38654" /><rect width="70" height="10" x="60" y="120" fill="#4bea69" /><rect width="80" height="10" x="130" y="120" fill="#ffd067" /><rect width="50" height="10" x="210" y="120" fill="#e9265c" /><rect width="10" height="10" x="260" y="120" fill="#fd8b5b" /><rect width="10" height="10" x="270" y="120" fill="#e9265c" /><rect width="40" height="10" x="20" y="130" fill="#a38654" /><rect width="70" height="10" x="60" y="130" fill="#4bea69" /><rect width="80" height="10" x="130" y="130" fill="#ffd067" /><rect width="70" height="10" x="210" y="130" fill="#e9265c" /><rect width="40" height="10" x="20" y="140" fill="#a38654" /><rect width="70" height="10" x="60" y="140" fill="#4bea69" /><rect width="80" height="10" x="130" y="140" fill="#ffd067" /><rect width="50" height="10" x="210" y="140" fill="#e9265c" /><rect width="10" height="10" x="260" y="140" fill="#fd8b5b" /><rect width="10" height="10" x="270" y="140" fill="#e9265c" /><rect width="40" height="10" x="20" y="150" fill="#a38654" /><rect width="70" height="10" x="60" y="150" fill="#4bea69" /><rect width="80" height="10" x="130" y="150" fill="#ffd067" /><rect width="70" height="10" x="210" y="150" fill="#e9265c" /><rect width="40" height="10" x="20" y="160" fill="#a38654" /><rect width="70" height="10" x="60" y="160" fill="#4bea69" /><rect width="80" height="10" x="130" y="160" fill="#ffd067" /><rect width="70" height="10" x="210" y="160" fill="#e9265c" /><rect width="70" height="10" x="60" y="170" fill="#4bea69" /><rect width="80" height="10" x="130" y="170" fill="#ffd067" /><rect width="70" height="10" x="210" y="170" fill="#e9265c" /><rect width="10" height="10" x="60" y="180" fill="#4bea69" /><rect width="20" height="10" x="70" y="180" fill="#42ffb0" /><rect width="40" height="10" x="90" y="180" fill="#4bea69" /><rect width="80" height="10" x="130" y="180" fill="#ffd067" /><rect width="70" height="10" x="210" y="180" fill="#e9265c" /><rect width="10" height="10" x="60" y="190" fill="#4bea69" /><rect width="20" height="10" x="70" y="190" fill="#42ffb0" /><rect width="40" height="10" x="90" y="190" fill="#4bea69" /><rect width="10" height="10" x="130" y="190" fill="#ffd067" /><rect width="20" height="10" x="140" y="190" fill="#ffffff" /><rect width="10" height="10" x="160" y="190" fill="#ffd067" /><rect width="10" height="10" x="170" y="190" fill="#ffffff" /><rect width="30" height="10" x="180" y="190" fill="#ffd067" /><rect width="60" height="10" x="210" y="190" fill="#e9265c" /><rect width="60" height="10" x="70" y="200" fill="#4bea69" /><rect width="80" height="10" x="130" y="200" fill="#ffd067" /><rect width="50" height="10" x="210" y="200" fill="#e9265c" /><rect width="20" height="10" x="100" y="210" fill="#4bea69" /><rect width="20" height="10" x="240" y="210" fill="#e9265c" /><rect width="10" height="10" x="100" y="220" fill="#4bea69" /><rect width="10" height="10" x="240" y="220" fill="#e9265c" /><rect width="10" height="10" x="240" y="230" fill="#e9265c" /><rect width="10" height="10" x="240" y="250" fill="#e9265c" /><rect width="60" height="10" x="100" y="110" fill="#068940" /><rect width="60" height="10" x="170" y="110" fill="#257ced" /><rect width="10" height="10" x="100" y="120" fill="#068940" /><rect width="20" height="10" x="110" y="120" fill="#ffffff" /><rect width="20" height="10" x="130" y="120" fill="#000000" /><rect width="10" height="10" x="150" y="120" fill="#068940" /><rect width="10" height="10" x="170" y="120" fill="#257ced" /><rect width="20" height="10" x="180" y="120" fill="#ffffff" /><rect width="20" height="10" x="200" y="120" fill="#000000" /><rect width="10" height="10" x="220" y="120" fill="#257ced" /><rect width="30" height="10" x="70" y="130" fill="#257ced" /><rect width="10" height="10" x="100" y="130" fill="#068940" /><rect width="20" height="10" x="110" y="130" fill="#ffffff" /><rect width="20" height="10" x="130" y="130" fill="#000000" /><rect width="10" height="10" x="150" y="130" fill="#068940" /><rect width="20" height="10" x="160" y="130" fill="#257ced" /><rect width="20" height="10" x="180" y="130" fill="#ffffff" /><rect width="20" height="10" x="200" y="130" fill="#000000" /><rect width="10" height="10" x="220" y="130" fill="#257ced" /><rect width="10" height="10" x="70" y="140" fill="#257ced" /><rect width="10" height="10" x="100" y="140" fill="#068940" /><rect width="20" height="10" x="110" y="140" fill="#ffffff" /><rect width="20" height="10" x="130" y="140" fill="#000000" /><rect width="10" height="10" x="150" y="140" fill="#068940" /><rect width="10" height="10" x="170" y="140" fill="#257ced" /><rect width="20" height="10" x="180" y="140" fill="#ffffff" /><rect width="20" height="10" x="200" y="140" fill="#000000" /><rect width="10" height="10" x="220" y="140" fill="#257ced" /><rect width="10" height="10" x="70" y="150" fill="#257ced" /><rect width="10" height="10" x="100" y="150" fill="#068940" /><rect width="20" height="10" x="110" y="150" fill="#ffffff" /><rect width="20" height="10" x="130" y="150" fill="#000000" /><rect width="10" height="10" x="150" y="150" fill="#068940" /><rect width="10" height="10" x="170" y="150" fill="#257ced" /><rect width="20" height="10" x="180" y="150" fill="#ffffff" /><rect width="20" height="10" x="200" y="150" fill="#000000" /><rect width="10" height="10" x="220" y="150" fill="#257ced" /><rect width="60" height="10" x="100" y="160" fill="#068940" /><rect width="60" height="10" x="170" y="160" fill="#257ced" /></svg>