<svg xmlns:xlink="http://www.w3.org/1999/xlink" width="320" height="320" viewBox="0 0 320 320" xmlns="http://www.w3.org/2000/svg" shape-rendering="crispEdges"><rect width="100%" height="100%" fill="#e1d7d5" /><rect width="140" height="10" x="90" y="210" fill="#d22209" /><rect width="140" height="10" x="90" y="220" fill="#d22209" /><rect width="140" height="10" x="90" y="230" fill="#d22209" /><rect width="140" height="10" x="90" y="240" fill="#d22209" /><rect width="20" height="10" x="90" y="250" fill="#d22209" /><rect width="110" height="10" x="120" y="250" fill="#d22209" /><rect width="20" height="10" x="90" y="260" fill="#d22209" /><rect width="110" height="10" x="120" y="260" fill="#d22209" /><rect width="20" height="10" x="90" y="270" fill="#d22209" /><rect width="110" height="10" x="120" y="270" fill="#d22209" /><rect width="20" height="10" x="90" y="280" fill="#d22209" /><rect width="110" height="10" x="120" y="280" fill="#d22209" /><rect width="20" height="10" x="90" y="290" fill="#d22209" /><rect width="110" height="10" x="120" y="290" fill="#d22209" /><rect width="20" height="10" x="90" y="300" fill="#d22209" /><rect width="110" height="10" x="120" y="300" fill="#d22209" /><rect width="20" height="10" x="90" y="310" fill="#d22209" /><rect width="110" height="10" x="120" y="310" fill="#d22209" /><rect width="10" height="10" x="130" y="230" fill="#ffffff" /><rect width="20" height="10" x="160" y="230" fill="#ffffff" /><rect width="10" height="10" x="190" y="230" fill="#ffffff" /><rect width="10" height="10" x="130" y="240" fill="#ffffff" /><rect width="20" height="10" x="160" y="240" fill="#ffffff" /><rect width="10" height="10" x="190" y="240" fill="#ffffff" /><rect width="20" height="10" x="130" y="250" fill="#ffffff" /><rect width="20" height="10" x="160" y="250" fill="#ffffff" /><rect width="20" height="10" x="190" y="250" fill="#ffffff" /><rect width="10" height="10" x="140" y="60" fill="#c16710" /><rect width="20" height="10" x="160" y="60" fill="#c16710" /><rect width="30" height="10" x="90" y="70" fill="#d4a015" /><rect width="60" height="10" x="130" y="70" fill="#c16710" /><rect width="30" height="10" x="200" y="70" fill="#d4a015" /><rect width="20" height="10" x="70" y="80" fill="#c16710" /><rect width="30" height="10" x="90" y="80" fill="#d4a015" /><rect width="60" height="10" x="120" y="80" fill="#c16710" /><rect width="30" height="10" x="200" y="80" fill="#d4a015" /><rect width="20" height="10" x="70" y="90" fill="#c16710" /><rect width="70" height="10" x="90" y="90" fill="#d4a015" /><rect width="10" height="10" x="160" y="90" fill="#c16710" /><rect width="60" height="10" x="170" y="90" fill="#d4a015" /><rect width="30" height="10" x="60" y="100" fill="#c16710" /><rect width="60" height="10" x="90" y="100" fill="#d4a015" /><rect width="30" height="10" x="150" y="100" fill="#ffe939" /><rect width="50" height="10" x="180" y="100" fill="#d4a015" /><rect width="20" height="10" x="70" y="110" fill="#c16710" /><rect width="70" height="10" x="90" y="110" fill="#d4a015" /><rect width="10" height="10" x="160" y="110" fill="#ffe939" /><rect width="60" height="10" x="170" y="110" fill="#d4a015" /><rect width="20" height="10" x="70" y="120" fill="#c16710" /><rect width="70" height="10" x="90" y="120" fill="#d4a015" /><rect width="10" height="10" x="160" y="120" fill="#ffe939" /><rect width="60" height="10" x="170" y="120" fill="#d4a015" /><rect width="30" height="10" x="60" y="130" fill="#c16710" /><rect width="70" height="10" x="90" y="130" fill="#d4a015" /><rect width="10" height="10" x="160" y="130" fill="#ffe939" /><rect width="60" height="10" x="170" y="130" fill="#d4a015" /><rect width="20" height="10" x="70" y="140" fill="#c16710" /><rect width="70" height="10" x="90" y="140" fill="#d4a015" /><rect width="10" height="10" x="160" y="140" fill="#ffe939" /><rect width="60" height="10" x="170" y="140" fill="#d4a015" /><rect width="20" height="10" x="70" y="150" fill="#c16710" /><rect width="70" height="10" x="90" y="150" fill="#d4a015" /><rect width="10" height="10" x="160" y="150" fill="#ffe939" /><rect width="60" height="10" x="170" y="150" fill="#d4a015" /><rect width="30" height="10" x="60" y="160" fill="#c16710" /><rect width="180" height="10" x="90" y="160" fill="#d08b11" /><rect width="20" height="10" x="70" y="170" fill="#c16710" /><rect width="140" height="10" x="90" y="170" fill="#d08b11" /><rect width="10" height="10" x="230" y="170" fill="#000000" /><rect width="10" height="10" x="240" y="170" fill="#d08b11" /><rect width="10" height="10" x="250" y="170" fill="#000000" /><rect width="10" height="10" x="260" y="170" fill="#d08b11" /><rect width="30" height="10" x="60" y="180" fill="#c16710" /><rect width="20" height="10" x="90" y="180" fill="#d08b11" /><rect width="10" height="10" x="110" y="180" fill="#ffe939" /><rect width="10" height="10" x="120" y="180" fill="#000000" /><rect width="10" height="10" x="130" y="180" fill="#ffe939" /><rect width="10" height="10" x="140" y="180" fill="#000000" /><rect width="10" height="10" x="150" y="180" fill="#ffe939" /><rect width="10" height="10" x="160" y="180" fill="#000000" /><rect width="10" height="10" x="170" y="180" fill="#ffe939" /><rect width="90" height="10" x="180" y="180" fill="#d08b11" /><rect width="40" height="10" x="50" y="190" fill="#c16710" /><rect width="180" height="10" x="90" y="190" fill="#d08b11" /><rect width="30" height="10" x="60" y="200" fill="#c16710" /><rect width="180" height="10" x="90" y="200" fill="#d08b11" /><rect width="10" height="10" x="60" y="210" fill="#c16710" /><rect width="10" height="10" x="80" y="210" fill="#c16710" /><rect width="140" height="10" x="90" y="210" fill="#d08b11" /><rect width="60" height="10" x="100" y="110" fill="#b9185c" /><rect width="60" height="10" x="170" y="110" fill="#b9185c" /><rect width="10" height="10" x="100" y="120" fill="#b9185c" /><rect width="20" height="10" x="110" y="120" fill="#ffffff" /><rect width="20" height="10" x="130" y="120" fill="#000000" /><rect width="10" height="10" x="150" y="120" fill="#b9185c" /><rect width="10" height="10" x="170" y="120" fill="#b9185c" /><rect width="20" height="10" x="180" y="120" fill="#ffffff" /><rect width="20" height="10" x="200" y="120" fill="#000000" /><rect width="10" height="10" x="220" y="120" fill="#b9185c" /><rect width="40" height="10" x="70" y="130" fill="#b9185c" /><rect width="20" height="10" x="110" y="130" fill="#ffffff" /><rect width="20" height="10" x="130" y="130" fill="#000000" /><rect width="30" height="10" x="150" y="130" fill="#b9185c" /><rect width="20" height="10" x="180" y="130" fill="#ffffff" /><rect width="20" height="10" x="200" y="130" fill="#000000" /><rect width="10" height="10" x="220" y="130" fill="#b9185c" /><rect width="10" height="10" x="70" y="140" fill="#b9185c" /><rect width="10" height="10" x="100" y="140" fill="#b9185c" /><rect width="20" height="10" x="110" y="140" fill="#ffffff" /><rect width="20" height="10" x="130" y="140" fill="#000000" /><rect width="10" height="10" x="150" y="140" fill="#b9185c" /><rect width="10" height="10" x="170" y="140" fill="#b9185c" /><rect width="20" height="10" x="180" y="140" fill="#ffffff" /><rect width="20" height="10" x="200" y="140" fill="#000000" /><rect width="10" height="10" x="220" y="140" fill="#b9185c" /><rect width="10" height="10" x="70" y="150" fill="#b9185c" /><rect width="10" height="10" x="100" y="150" fill="#b9185c" /><rect width="20" height="10" x="110" y="150" fill="#ffffff" /><rect width="20" height="10" x="130" y="150" fill="#000000" /><rect width="10" height="10" x="150" y="150" fill="#b9185c" /><rect width="10" height="10" x="170" y="150" fill="#b9185c" /><rect width="20" height="10" x="180" y="150" fill="#ffffff" /><rect width="20" height="10" x="200" y="150" fill="#000000" /><rect width="10" height="10" x="220" y="150" fill="#b9185c" /><rect width="60" height="10" x="100" y="160" fill="#b9185c" /><rect width="60" height="10" x="170" y="160" fill="#b9185c" /></svg>