<svg xmlns:xlink="http://www.w3.org/1999/xlink" width="320" height="320" viewBox="0 0 320 320" xmlns="http://www.w3.org/2000/svg" shape-rendering="crispEdges"><rect width="100%" height="100%" fill="#d5d7e1" /><rect width="140" height="10" x="90" y="210" fill="#9f21a0" /><rect width="140" height="10" x="90" y="220" fill="#9f21a0" /><rect width="140" height="10" x="90" y="230" fill="#9f21a0" /><rect width="140" height="10" x="90" y="240" fill="#9f21a0" /><rect width="20" height="10" x="90" y="250" fill="#9f21a0" /><rect width="110" height="10" x="120" y="250" fill="#9f21a0" /><rect width="20" height="10" x="90" y="260" fill="#9f21a0" /><rect width="110" height="10" x="120" y="260" fill="#9f21a0" /><rect width="20" height="10" x="90" y="270" fill="#9f21a0" /><rect width="110" height="10" x="120" y="270" fill="#9f21a0" /><rect width="20" height="10" x="90" y="280" fill="#9f21a0" /><rect width="110" height="10" x="120" y="280" fill="#9f21a0" /><rect width="20" height="10" x="90" y="290" fill="#9f21a0" /><rect width="110" height="10" x="120" y="290" fill="#9f21a0" /><rect width="20" height="10" x="90" y="300" fill="#9f21a0" /><rect width="110" height="10" x="120" y="300" fill="#9f21a0" /><rect width="20" height="10" x="90" y="310" fill="#9f21a0" /><rect width="110" height="10" x="120" y="310" fill="#9f21a0" /><rect width="10" height="10" x="120" y="210" fill="#ffc110" /><rect width="10" height="10" x="190" y="210" fill="#ffc110" /><rect width="10" height="10" x="130" y="220" fill="#ffc110" /><rect width="10" height="10" x="180" y="220" fill="#ffc110" /><rect width="10" height="10" x="140" y="230" fill="#ffc110" /><rect width="10" height="10" x="170" y="230" fill="#ffc110" /><rect width="20" height="10" x="150" y="240" fill="#ffc110" /><rect width="10" height="10" x="140" y="250" fill="#ffc110" /><rect width="10" height="10" x="170" y="250" fill="#ffc110" /><rect width="10" height="10" x="130" y="260" fill="#ffc110" /><rect width="10" height="10" x="140" y="260" fill="#ffef16" /><rect width="40" height="10" x="150" y="260" fill="#ffc110" /><rect width="60" height="10" x="130" y="270" fill="#ffc110" /><rect width="40" height="10" x="140" y="280" fill="#ffc110" /><rect width="20" height="10" x="150" y="290" fill="#ffc110" /><rect width="220" height="10" x="50" y="60" fill="#62616d" /><rect width="10" height="10" x="50" y="70" fill="#62616d" /><rect width="10" height="10" x="60" y="70" fill="#fffdf2" /><rect width="10" height="10" x="70" y="70" fill="#7cc4f2" /><rect width="180" height="10" x="80" y="70" fill="#fffdf2" /><rect width="10" height="10" x="260" y="70" fill="#62616d" /><rect width="10" height="10" x="50" y="80" fill="#62616d" /><rect width="200" height="10" x="60" y="80" fill="#26b1f3" /><rect width="10" height="10" x="260" y="80" fill="#62616d" /><rect width="10" height="10" x="50" y="90" fill="#62616d" /><rect width="200" height="10" x="60" y="90" fill="#26b1f3" /><rect width="10" height="10" x="260" y="90" fill="#62616d" /><rect width="10" height="10" x="50" y="100" fill="#62616d" /><rect width="200" height="10" x="60" y="100" fill="#26b1f3" /><rect width="10" height="10" x="260" y="100" fill="#62616d" /><rect width="10" height="10" x="50" y="110" fill="#62616d" /><rect width="200" height="10" x="60" y="110" fill="#26b1f3" /><rect width="10" height="10" x="260" y="110" fill="#62616d" /><rect width="10" height="10" x="50" y="120" fill="#62616d" /><rect width="200" height="10" x="60" y="120" fill="#26b1f3" /><rect width="10" height="10" x="260" y="120" fill="#62616d" /><rect width="10" height="10" x="50" y="130" fill="#62616d" /><rect width="200" height="10" x="60" y="130" fill="#26b1f3" /><rect width="10" height="10" x="260" y="130" fill="#62616d" /><rect width="10" height="10" x="50" y="140" fill="#62616d" /><rect width="200" height="10" x="60" y="140" fill="#26b1f3" /><rect width="10" height="10" x="260" y="140" fill="#62616d" /><rect width="10" height="10" x="50" y="150" fill="#62616d" /><rect width="200" height="10" x="60" y="150" fill="#26b1f3" /><rect width="10" height="10" x="260" y="150" fill="#62616d" /><rect width="10" height="10" x="50" y="160" fill="#62616d" /><rect width="200" height="10" x="60" y="160" fill="#26b1f3" /><rect width="10" height="10" x="260" y="160" fill="#62616d" /><rect width="10" height="10" x="50" y="170" fill="#62616d" /><rect width="200" height="10" x="60" y="170" fill="#26b1f3" /><rect width="10" height="10" x="260" y="170" fill="#62616d" /><rect width="30" height="10" x="50" y="180" fill="#62616d" /><rect width="10" height="10" x="80" y="180" fill="#1f1d29" /><rect width="10" height="10" x="90" y="180" fill="#62616d" /><rect width="10" height="10" x="100" y="180" fill="#1f1d29" /><rect width="10" height="10" x="110" y="180" fill="#62616d" /><rect width="10" height="10" x="120" y="180" fill="#1f1d29" /><rect width="10" height="10" x="130" y="180" fill="#62616d" /><rect width="10" height="10" x="140" y="180" fill="#1f1d29" /><rect width="10" height="10" x="150" y="180" fill="#62616d" /><rect width="10" height="10" x="160" y="180" fill="#1f1d29" /><rect width="10" height="10" x="170" y="180" fill="#62616d" /><rect width="10" height="10" x="180" y="180" fill="#1f1d29" /><rect width="10" height="10" x="190" y="180" fill="#62616d" /><rect width="10" height="10" x="200" y="180" fill="#1f1d29" /><rect width="10" height="10" x="210" y="180" fill="#62616d" /><rect width="10" height="10" x="220" y="180" fill="#1f1d29" /><rect width="10" height="10" x="230" y="180" fill="#62616d" /><rect width="10" height="10" x="240" y="180" fill="#1f1d29" /><rect width="20" height="10" x="250" y="180" fill="#62616d" /><rect width="20" height="10" x="50" y="190" fill="#62616d" /><rect width="190" height="10" x="70" y="190" fill="#1f1d29" /><rect width="10" height="10" x="260" y="190" fill="#62616d" /><rect width="20" height="10" x="50" y="200" fill="#62616d" /><rect width="10" height="10" x="70" y="200" fill="#1f1d29" /><rect width="10" height="10" x="80" y="200" fill="#62616d" /><rect width="10" height="10" x="90" y="200" fill="#1f1d29" /><rect width="10" height="10" x="100" y="200" fill="#62616d" /><rect width="10" height="10" x="110" y="200" fill="#1f1d29" /><rect width="10" height="10" x="120" y="200" fill="#62616d" /><rect width="10" height="10" x="130" y="200" fill="#1f1d29" /><rect width="10" height="10" x="140" y="200" fill="#62616d" /><rect width="10" height="10" x="150" y="200" fill="#1f1d29" /><rect width="10" height="10" x="160" y="200" fill="#62616d" /><rect width="10" height="10" x="170" y="200" fill="#1f1d29" /><rect width="10" height="10" x="180" y="200" fill="#62616d" /><rect width="10" height="10" x="190" y="200" fill="#1f1d29" /><rect width="10" height="10" x="200" y="200" fill="#62616d" /><rect width="10" height="10" x="210" y="200" fill="#1f1d29" /><rect width="10" height="10" x="220" y="200" fill="#62616d" /><rect width="10" height="10" x="230" y="200" fill="#1f1d29" /><rect width="30" height="10" x="240" y="200" fill="#62616d" /><rect width="10" height="10" x="50" y="210" fill="#62616d" /><rect width="190" height="10" x="60" y="210" fill="#1f1d29" /><rect width="20" height="10" x="250" y="210" fill="#62616d" /><rect width="220" height="10" x="50" y="220" fill="#62616d" /><rect width="60" height="10" x="100" y="110" fill="#f3322c" /><rect width="60" height="10" x="170" y="110" fill="#f3322c" /><rect width="10" height="10" x="100" y="120" fill="#f3322c" /><rect width="20" height="10" x="110" y="120" fill="#ffffff" /><rect width="20" height="10" x="130" y="120" fill="#000000" /><rect width="10" height="10" x="150" y="120" fill="#f3322c" /><rect width="10" height="10" x="170" y="120" fill="#f3322c" /><rect width="20" height="10" x="180" y="120" fill="#ffffff" /><rect width="20" height="10" x="200" y="120" fill="#000000" /><rect width="10" height="10" x="220" y="120" fill="#f3322c" /><rect width="40" height="10" x="70" y="130" fill="#f3322c" /><rect width="20" height="10" x="110" y="130" fill="#ffffff" /><rect width="20" height="10" x="130" y="130" fill="#000000" /><rect width="30" height="10" x="150" y="130" fill="#f3322c" /><rect width="20" height="10" x="180" y="130" fill="#ffffff" /><rect width="20" height="10" x="200" y="130" fill="#000000" /><rect width="10" height="10" x="220" y="130" fill="#f3322c" /><rect width="10" height="10" x="70" y="140" fill="#f3322c" /><rect width="10" height="10" x="100" y="140" fill="#f3322c" /><rect width="20" height="10" x="110" y="140" fill="#ffffff" /><rect width="20" height="10" x="130" y="140" fill="#000000" /><rect width="10" height="10" x="150" y="140" fill="#f3322c" /><rect width="10" height="10" x="170" y="140" fill="#f3322c" /><rect width="20" height="10" x="180" y="140" fill="#ffffff" /><rect width="20" height="10" x="200" y="140" fill="#000000" /><rect width="10" height="10" x="220" y="140" fill="#f3322c" /><rect width="10" height="10" x="70" y="150" fill="#f3322c" /><rect width="10" height="10" x="100" y="150" fill="#f3322c" /><rect width="20" height="10" x="110" y="150" fill="#ffffff" /><rect width="20" height="10" x="130" y="150" fill="#000000" /><rect width="10" height="10" x="150" y="150" fill="#f3322c" /><rect width="10" height="10" x="170" y="150" fill="#f3322c" /><rect width="20" height="10" x="180" y="150" fill="#ffffff" /><rect width="20" height="10" x="200" y="150" fill="#000000" /><rect width="10" height="10" x="220" y="150" fill="#f3322c" /><rect width="60" height="10" x="100" y="160" fill="#f3322c" /><rect width="60" height="10" x="170" y="160" fill="#f3322c" /></svg>