<svg xmlns:xlink="http://www.w3.org/1999/xlink" width="320" height="320" viewBox="0 0 320 320" xmlns="http://www.w3.org/2000/svg" shape-rendering="crispEdges"><rect width="100%" height="100%" fill="#d5d7e1" /><rect width="140" height="10" x="90" y="210" fill="#068940" /><rect width="140" height="10" x="90" y="220" fill="#068940" /><rect width="140" height="10" x="90" y="230" fill="#068940" /><rect width="140" height="10" x="90" y="240" fill="#068940" /><rect width="20" height="10" x="90" y="250" fill="#068940" /><rect width="110" height="10" x="120" y="250" fill="#068940" /><rect width="20" height="10" x="90" y="260" fill="#068940" /><rect width="110" height="10" x="120" y="260" fill="#068940" /><rect width="20" height="10" x="90" y="270" fill="#068940" /><rect width="110" height="10" x="120" y="270" fill="#068940" /><rect width="20" height="10" x="90" y="280" fill="#068940" /><rect width="110" height="10" x="120" y="280" fill="#068940" /><rect width="20" height="10" x="90" y="290" fill="#068940" /><rect width="110" height="10" x="120" y="290" fill="#068940" /><rect width="20" height="10" x="90" y="300" fill="#068940" /><rect width="110" height="10" x="120" y="300" fill="#068940" /><rect width="20" height="10" x="90" y="310" fill="#068940" /><rect width="110" height="10" x="120" y="310" fill="#068940" /><rect width="30" height="10" x="90" y="210" fill="#b2958d" /><rect width="30" height="10" x="130" y="210" fill="#b2958d" /><rect width="30" height="10" x="170" y="210" fill="#b2958d" /><rect width="20" height="10" x="210" y="210" fill="#b2958d" /><rect width="10" height="10" x="90" y="230" fill="#b2958d" /><rect width="30" height="10" x="110" y="230" fill="#b2958d" /><rect width="30" height="10" x="150" y="230" fill="#b2958d" /><rect width="30" height="10" x="190" y="230" fill="#b2958d" /><rect width="10" height="10" x="100" y="240" fill="#b2958d" /><rect width="10" height="10" x="140" y="240" fill="#b2958d" /><rect width="10" height="10" x="180" y="240" fill="#b2958d" /><rect width="10" height="10" x="220" y="240" fill="#b2958d" /><rect width="10" height="10" x="90" y="250" fill="#b2958d" /><rect width="20" height="10" x="120" y="250" fill="#b2958d" /><rect width="30" height="10" x="150" y="250" fill="#b2958d" /><rect width="30" height="10" x="190" y="250" fill="#b2958d" /><rect width="20" height="10" x="90" y="270" fill="#b2958d" /><rect width="30" height="10" x="130" y="270" fill="#b2958d" /><rect width="30" height="10" x="170" y="270" fill="#b2958d" /><rect width="20" height="10" x="210" y="270" fill="#b2958d" /><rect width="10" height="10" x="120" y="280" fill="#b2958d" /><rect width="10" height="10" x="160" y="280" fill="#b2958d" /><rect width="10" height="10" x="200" y="280" fill="#b2958d" /><rect width="20" height="10" x="90" y="290" fill="#b2958d" /><rect width="30" height="10" x="130" y="290" fill="#b2958d" /><rect width="30" height="10" x="170" y="290" fill="#b2958d" /><rect width="20" height="10" x="210" y="290" fill="#b2958d" /><rect width="10" height="10" x="90" y="310" fill="#b2958d" /><rect width="20" height="10" x="120" y="310" fill="#b2958d" /><rect width="30" height="10" x="150" y="310" fill="#b2958d" /><rect width="30" height="10" x="190" y="310" fill="#b2958d" /><rect width="50" height="10" x="100" y="40" fill="#eedc00" /><rect width="50" height="10" x="150" y="40" fill="#fff006" /><rect width="60" height="10" x="90" y="50" fill="#fff006" /><rect width="10" height="10" x="150" y="50" fill="#eedc00" /><rect width="50" height="10" x="160" y="50" fill="#fff006" /><rect width="60" height="10" x="80" y="60" fill="#eedc00" /><rect width="20" height="10" x="140" y="60" fill="#fff006" /><rect width="10" height="10" x="160" y="60" fill="#eedc00" /><rect width="50" height="10" x="170" y="60" fill="#fff006" /><rect width="70" height="10" x="70" y="70" fill="#fff006" /><rect width="10" height="10" x="140" y="70" fill="#eedc00" /><rect width="20" height="10" x="150" y="70" fill="#fff006" /><rect width="10" height="10" x="170" y="70" fill="#eedc00" /><rect width="50" height="10" x="180" y="70" fill="#fff006" /><rect width="80" height="10" x="70" y="80" fill="#fff006" /><rect width="10" height="10" x="150" y="80" fill="#eedc00" /><rect width="10" height="10" x="160" y="80" fill="#fff006" /><rect width="10" height="10" x="170" y="80" fill="#eedc00" /><rect width="50" height="10" x="180" y="80" fill="#fff006" /><rect width="90" height="10" x="60" y="90" fill="#fff006" /><rect width="10" height="10" x="150" y="90" fill="#eedc00" /><rect width="20" height="10" x="160" y="90" fill="#fff006" /><rect width="50" height="10" x="180" y="90" fill="#eedc00" /><rect width="10" height="10" x="230" y="90" fill="#fff006" /><rect width="90" height="10" x="60" y="100" fill="#fff006" /><rect width="10" height="10" x="150" y="100" fill="#eedc00" /><rect width="80" height="10" x="160" y="100" fill="#fff006" /><rect width="90" height="10" x="60" y="110" fill="#fff006" /><rect width="10" height="10" x="150" y="110" fill="#eedc00" /><rect width="80" height="10" x="160" y="110" fill="#fff006" /><rect width="90" height="10" x="60" y="120" fill="#fff006" /><rect width="10" height="10" x="150" y="120" fill="#eedc00" /><rect width="80" height="10" x="160" y="120" fill="#fff006" /><rect width="90" height="10" x="60" y="130" fill="#fff006" /><rect width="10" height="10" x="150" y="130" fill="#eedc00" /><rect width="80" height="10" x="160" y="130" fill="#fff006" /><rect width="90" height="10" x="60" y="140" fill="#fff006" /><rect width="10" height="10" x="150" y="140" fill="#eedc00" /><rect width="80" height="10" x="160" y="140" fill="#fff006" /><rect width="90" height="10" x="60" y="150" fill="#fff006" /><rect width="10" height="10" x="150" y="150" fill="#eedc00" /><rect width="80" height="10" x="160" y="150" fill="#fff006" /><rect width="90" height="10" x="60" y="160" fill="#fff006" /><rect width="10" height="10" x="150" y="160" fill="#eedc00" /><rect width="80" height="10" x="160" y="160" fill="#fff006" /><rect width="30" height="10" x="60" y="170" fill="#fff006" /><rect width="150" height="10" x="90" y="170" fill="#eedc00" /><rect width="40" height="10" x="50" y="180" fill="#fff006" /><rect width="10" height="10" x="90" y="180" fill="#eedc00" /><rect width="130" height="10" x="100" y="180" fill="#000000" /><rect width="10" height="10" x="230" y="180" fill="#eedc00" /><rect width="50" height="10" x="240" y="180" fill="#fff006" /><rect width="40" height="10" x="50" y="190" fill="#fff006" /><rect width="10" height="10" x="90" y="190" fill="#eedc00" /><rect width="130" height="10" x="100" y="190" fill="#fff006" /><rect width="10" height="10" x="230" y="190" fill="#eedc00" /><rect width="50" height="10" x="240" y="190" fill="#fff006" /><rect width="240" height="10" x="50" y="200" fill="#fff006" /><rect width="60" height="10" x="100" y="110" fill="#5648ed" /><rect width="60" height="10" x="170" y="110" fill="#5648ed" /><rect width="10" height="10" x="100" y="120" fill="#5648ed" /><rect width="20" height="10" x="110" y="120" fill="#ffffff" /><rect width="20" height="10" x="130" y="120" fill="#000000" /><rect width="10" height="10" x="150" y="120" fill="#5648ed" /><rect width="10" height="10" x="170" y="120" fill="#5648ed" /><rect width="20" height="10" x="180" y="120" fill="#ffffff" /><rect width="20" height="10" x="200" y="120" fill="#000000" /><rect width="10" height="10" x="220" y="120" fill="#5648ed" /><rect width="40" height="10" x="70" y="130" fill="#5648ed" /><rect width="20" height="10" x="110" y="130" fill="#ffffff" /><rect width="20" height="10" x="130" y="130" fill="#000000" /><rect width="30" height="10" x="150" y="130" fill="#5648ed" /><rect width="20" height="10" x="180" y="130" fill="#ffffff" /><rect width="20" height="10" x="200" y="130" fill="#000000" /><rect width="10" height="10" x="220" y="130" fill="#5648ed" /><rect width="10" height="10" x="70" y="140" fill="#5648ed" /><rect width="10" height="10" x="100" y="140" fill="#5648ed" /><rect width="20" height="10" x="110" y="140" fill="#ffffff" /><rect width="20" height="10" x="130" y="140" fill="#000000" /><rect width="10" height="10" x="150" y="140" fill="#5648ed" /><rect width="10" height="10" x="170" y="140" fill="#5648ed" /><rect width="20" height="10" x="180" y="140" fill="#ffffff" /><rect width="20" height="10" x="200" y="140" fill="#000000" /><rect width="10" height="10" x="220" y="140" fill="#5648ed" /><rect width="10" height="10" x="70" y="150" fill="#5648ed" /><rect width="10" height="10" x="100" y="150" fill="#5648ed" /><rect width="20" height="10" x="110" y="150" fill="#ffffff" /><rect width="20" height="10" x="130" y="150" fill="#000000" /><rect width="10" height="10" x="150" y="150" fill="#5648ed" /><rect width="10" height="10" x="170" y="150" fill="#5648ed" /><rect width="20" height="10" x="180" y="150" fill="#ffffff" /><rect width="20" height="10" x="200" y="150" fill="#000000" /><rect width="10" height="10" x="220" y="150" fill="#5648ed" /><rect width="60" height="10" x="100" y="160" fill="#5648ed" /><rect width="60" height="10" x="170" y="160" fill="#5648ed" /></svg>