<svg xmlns:xlink="http://www.w3.org/1999/xlink" width="320" height="320" viewBox="0 0 320 320" xmlns="http://www.w3.org/2000/svg" shape-rendering="crispEdges"><rect width="100%" height="100%" fill="#d5d7e1" /><rect width="140" height="10" x="90" y="210" fill="#80a72d" /><rect width="140" height="10" x="90" y="220" fill="#80a72d" /><rect width="140" height="10" x="90" y="230" fill="#80a72d" /><rect width="140" height="10" x="90" y="240" fill="#80a72d" /><rect width="20" height="10" x="90" y="250" fill="#80a72d" /><rect width="110" height="10" x="120" y="250" fill="#80a72d" /><rect width="20" height="10" x="90" y="260" fill="#80a72d" /><rect width="110" height="10" x="120" y="260" fill="#80a72d" /><rect width="20" height="10" x="90" y="270" fill="#80a72d" /><rect width="110" height="10" x="120" y="270" fill="#80a72d" /><rect width="20" height="10" x="90" y="280" fill="#80a72d" /><rect width="110" height="10" x="120" y="280" fill="#80a72d" /><rect width="20" height="10" x="90" y="290" fill="#80a72d" /><rect width="110" height="10" x="120" y="290" fill="#80a72d" /><rect width="20" height="10" x="90" y="300" fill="#80a72d" /><rect width="110" height="10" x="120" y="300" fill="#80a72d" /><rect width="20" height="10" x="90" y="310" fill="#80a72d" /><rect width="110" height="10" x="120" y="310" fill="#80a72d" /><rect width="140" height="10" x="90" y="210" fill="#ff1a0b" /><rect width="140" height="10" x="90" y="220" fill="#ff1a0b" /><rect width="140" height="10" x="90" y="230" fill="#f78a18" /><rect width="140" height="10" x="90" y="240" fill="#f78a18" /><rect width="20" height="10" x="90" y="250" fill="#fff449" /><rect width="110" height="10" x="120" y="250" fill="#fff449" /><rect width="20" height="10" x="90" y="260" fill="#fff449" /><rect width="110" height="10" x="120" y="260" fill="#fff449" /><rect width="20" height="10" x="90" y="270" fill="#068940" /><rect width="110" height="10" x="120" y="270" fill="#068940" /><rect width="20" height="10" x="90" y="280" fill="#068940" /><rect width="110" height="10" x="120" y="280" fill="#068940" /><rect width="20" height="10" x="90" y="290" fill="#2b83f6" /><rect width="110" height="10" x="120" y="290" fill="#2b83f6" /><rect width="20" height="10" x="90" y="300" fill="#2b83f6" /><rect width="110" height="10" x="120" y="300" fill="#2b83f6" /><rect width="20" height="10" x="90" y="310" fill="#9f21a0" /><rect width="110" height="10" x="120" y="310" fill="#9f21a0" /><rect width="10" height="10" x="160" y="20" fill="#fb4694" /><rect width="30" height="10" x="150" y="30" fill="#fb4694" /><rect width="10" height="10" x="160" y="40" fill="#fb4694" /><rect width="60" height="10" x="130" y="50" fill="#fb4694" /><rect width="100" height="10" x="110" y="60" fill="#fb4694" /><rect width="140" height="10" x="90" y="70" fill="#2b83f6" /><rect width="100" height="10" x="80" y="80" fill="#2b83f6" /><rect width="10" height="10" x="180" y="80" fill="#caeff9" /><rect width="10" height="10" x="190" y="80" fill="#2b83f6" /><rect width="20" height="10" x="200" y="80" fill="#caeff9" /><rect width="20" height="10" x="220" y="80" fill="#2b83f6" /><rect width="120" height="10" x="80" y="90" fill="#2b83f6" /><rect width="20" height="10" x="200" y="90" fill="#caeff9" /><rect width="20" height="10" x="220" y="90" fill="#2b83f6" /><rect width="180" height="10" x="70" y="100" fill="#2b83f6" /><rect width="180" height="10" x="70" y="110" fill="#2b83f6" /><rect width="180" height="10" x="70" y="120" fill="#2b83f6" /><rect width="200" height="10" x="60" y="130" fill="#2b83f6" /><rect width="200" height="10" x="60" y="140" fill="#2b83f6" /><rect width="200" height="10" x="60" y="150" fill="#2b83f6" /><rect width="200" height="10" x="60" y="160" fill="#fb4694" /><rect width="240" height="10" x="40" y="170" fill="#fb4694" /><rect width="50" height="10" x="30" y="180" fill="#fb4694" /><rect width="20" height="10" x="80" y="180" fill="#ffe939" /><rect width="10" height="10" x="100" y="180" fill="#fb4694" /><rect width="20" height="10" x="110" y="180" fill="#ffe939" /><rect width="10" height="10" x="130" y="180" fill="#fb4694" /><rect width="20" height="10" x="140" y="180" fill="#ffe939" /><rect width="10" height="10" x="160" y="180" fill="#fb4694" /><rect width="20" height="10" x="170" y="180" fill="#ffe939" /><rect width="10" height="10" x="190" y="180" fill="#fb4694" /><rect width="20" height="10" x="200" y="180" fill="#ffe939" /><rect width="10" height="10" x="220" y="180" fill="#fb4694" /><rect width="20" height="10" x="230" y="180" fill="#ffe939" /><rect width="40" height="10" x="250" y="180" fill="#fb4694" /><rect width="60" height="10" x="20" y="190" fill="#fb4694" /><rect width="20" height="10" x="80" y="190" fill="#ffe939" /><rect width="10" height="10" x="100" y="190" fill="#fb4694" /><rect width="20" height="10" x="110" y="190" fill="#ffe939" /><rect width="10" height="10" x="130" y="190" fill="#fb4694" /><rect width="20" height="10" x="140" y="190" fill="#ffe939" /><rect width="10" height="10" x="160" y="190" fill="#fb4694" /><rect width="20" height="10" x="170" y="190" fill="#ffe939" /><rect width="10" height="10" x="190" y="190" fill="#fb4694" /><rect width="20" height="10" x="200" y="190" fill="#ffe939" /><rect width="10" height="10" x="220" y="190" fill="#fb4694" /><rect width="20" height="10" x="230" y="190" fill="#ffe939" /><rect width="50" height="10" x="250" y="190" fill="#fb4694" /><rect width="200" height="10" x="60" y="200" fill="#fb4694" /><rect width="100" height="10" x="110" y="210" fill="#fb4694" /><rect width="60" height="10" x="100" y="110" fill="#000000" /><rect width="60" height="10" x="170" y="110" fill="#000000" /><rect width="10" height="10" x="100" y="120" fill="#000000" /><rect width="20" height="10" x="110" y="120" fill="#ffffff" /><rect width="30" height="10" x="130" y="120" fill="#000000" /><rect width="10" height="10" x="170" y="120" fill="#000000" /><rect width="20" height="10" x="180" y="120" fill="#ffffff" /><rect width="30" height="10" x="200" y="120" fill="#000000" /><rect width="40" height="10" x="70" y="130" fill="#000000" /><rect width="20" height="10" x="110" y="130" fill="#ffffff" /><rect width="50" height="10" x="130" y="130" fill="#000000" /><rect width="20" height="10" x="180" y="130" fill="#ffffff" /><rect width="30" height="10" x="200" y="130" fill="#000000" /><rect width="10" height="10" x="70" y="140" fill="#000000" /><rect width="10" height="10" x="100" y="140" fill="#000000" /><rect width="20" height="10" x="110" y="140" fill="#ffffff" /><rect width="30" height="10" x="130" y="140" fill="#000000" /><rect width="10" height="10" x="170" y="140" fill="#000000" /><rect width="20" height="10" x="180" y="140" fill="#ffffff" /><rect width="30" height="10" x="200" y="140" fill="#000000" /><rect width="10" height="10" x="70" y="150" fill="#000000" /><rect width="10" height="10" x="100" y="150" fill="#000000" /><rect width="20" height="10" x="110" y="150" fill="#ffffff" /><rect width="30" height="10" x="130" y="150" fill="#000000" /><rect width="10" height="10" x="170" y="150" fill="#000000" /><rect width="20" height="10" x="180" y="150" fill="#ffffff" /><rect width="30" height="10" x="200" y="150" fill="#000000" /><rect width="60" height="10" x="100" y="160" fill="#000000" /><rect width="60" height="10" x="170" y="160" fill="#000000" /></svg>