<svg xmlns:xlink="http://www.w3.org/1999/xlink" width="320" height="320" viewBox="0 0 320 320" xmlns="http://www.w3.org/2000/svg" shape-rendering="crispEdges"><rect width="100%" height="100%" fill="#e1d7d5" /><rect width="140" height="10" x="90" y="210" fill="#fe500c" /><rect width="140" height="10" x="90" y="220" fill="#fe500c" /><rect width="140" height="10" x="90" y="230" fill="#fe500c" /><rect width="140" height="10" x="90" y="240" fill="#fe500c" /><rect width="20" height="10" x="90" y="250" fill="#fe500c" /><rect width="110" height="10" x="120" y="250" fill="#fe500c" /><rect width="20" height="10" x="90" y="260" fill="#fe500c" /><rect width="110" height="10" x="120" y="260" fill="#fe500c" /><rect width="20" height="10" x="90" y="270" fill="#fe500c" /><rect width="110" height="10" x="120" y="270" fill="#fe500c" /><rect width="20" height="10" x="90" y="280" fill="#fe500c" /><rect width="110" height="10" x="120" y="280" fill="#fe500c" /><rect width="20" height="10" x="90" y="290" fill="#fe500c" /><rect width="110" height="10" x="120" y="290" fill="#fe500c" /><rect width="20" height="10" x="90" y="300" fill="#fe500c" /><rect width="110" height="10" x="120" y="300" fill="#fe500c" /><rect width="20" height="10" x="90" y="310" fill="#fe500c" /><rect width="110" height="10" x="120" y="310" fill="#fe500c" /><rect width="20" height="10" x="140" y="240" fill="#000000" /><rect width="20" height="10" x="180" y="240" fill="#000000" /><rect width="10" height="10" x="130" y="250" fill="#000000" /><rect width="20" height="10" x="160" y="250" fill="#000000" /><rect width="10" height="10" x="200" y="250" fill="#000000" /><rect width="20" height="10" x="160" y="260" fill="#000000" /><rect width="90" height="10" x="70" y="70" fill="#db8323" /><rect width="80" height="10" x="170" y="70" fill="#db8323" /><rect width="100" height="10" x="60" y="80" fill="#db8323" /><rect width="10" height="10" x="160" y="80" fill="#9f4b27" /><rect width="90" height="10" x="170" y="80" fill="#db8323" /><rect width="100" height="10" x="60" y="90" fill="#db8323" /><rect width="10" height="10" x="160" y="90" fill="#9f4b27" /><rect width="90" height="10" x="170" y="90" fill="#db8323" /><rect width="100" height="10" x="60" y="100" fill="#db8323" /><rect width="10" height="10" x="160" y="100" fill="#9f4b27" /><rect width="90" height="10" x="170" y="100" fill="#db8323" /><rect width="30" height="10" x="40" y="110" fill="#c16923" /><rect width="90" height="10" x="70" y="110" fill="#db8323" /><rect width="10" height="10" x="160" y="110" fill="#9f4b27" /><rect width="80" height="10" x="170" y="110" fill="#db8323" /><rect width="30" height="10" x="250" y="110" fill="#c16923" /><rect width="10" height="10" x="30" y="120" fill="#c16923" /><rect width="30" height="10" x="40" y="120" fill="#9f4b27" /><rect width="10" height="10" x="70" y="120" fill="#c16923" /><rect width="80" height="10" x="80" y="120" fill="#db8323" /><rect width="10" height="10" x="160" y="120" fill="#9f4b27" /><rect width="70" height="10" x="170" y="120" fill="#db8323" /><rect width="10" height="10" x="240" y="120" fill="#c16923" /><rect width="30" height="10" x="250" y="120" fill="#9f4b27" /><rect width="10" height="10" x="280" y="120" fill="#c16923" /><rect width="10" height="10" x="30" y="130" fill="#c16923" /><rect width="10" height="10" x="40" y="130" fill="#9f4b27" /><rect width="10" height="10" x="50" y="130" fill="#c16923" /><rect width="10" height="10" x="60" y="130" fill="#9f4b27" /><rect width="10" height="10" x="70" y="130" fill="#c16923" /><rect width="80" height="10" x="80" y="130" fill="#db8323" /><rect width="10" height="10" x="160" y="130" fill="#9f4b27" /><rect width="70" height="10" x="170" y="130" fill="#db8323" /><rect width="10" height="10" x="240" y="130" fill="#c16923" /><rect width="10" height="10" x="250" y="130" fill="#9f4b27" /><rect width="10" height="10" x="260" y="130" fill="#c16923" /><rect width="10" height="10" x="270" y="130" fill="#9f4b27" /><rect width="10" height="10" x="280" y="130" fill="#c16923" /><rect width="10" height="10" x="30" y="140" fill="#c16923" /><rect width="30" height="10" x="40" y="140" fill="#9f4b27" /><rect width="10" height="10" x="70" y="140" fill="#c16923" /><rect width="160" height="10" x="80" y="140" fill="#9f4b27" /><rect width="10" height="10" x="240" y="140" fill="#c16923" /><rect width="30" height="10" x="250" y="140" fill="#9f4b27" /><rect width="10" height="10" x="280" y="140" fill="#c16923" /><rect width="40" height="10" x="40" y="150" fill="#c16923" /><rect width="160" height="10" x="80" y="150" fill="#9f4b27" /><rect width="40" height="10" x="240" y="150" fill="#c16923" /><rect width="30" height="10" x="50" y="160" fill="#c16923" /><rect width="160" height="10" x="80" y="160" fill="#9f4b27" /><rect width="30" height="10" x="240" y="160" fill="#c16923" /><rect width="220" height="10" x="50" y="170" fill="#c16923" /><rect width="220" height="10" x="50" y="180" fill="#c16923" /><rect width="30" height="10" x="50" y="190" fill="#c16923" /><rect width="160" height="10" x="80" y="190" fill="#6e3206" /><rect width="30" height="10" x="240" y="190" fill="#c16923" /><rect width="30" height="10" x="50" y="200" fill="#c16923" /><rect width="160" height="10" x="80" y="200" fill="#9f4b27" /><rect width="30" height="10" x="240" y="200" fill="#c16923" /><rect width="20" height="10" x="60" y="210" fill="#6e3206" /><rect width="20" height="10" x="240" y="210" fill="#6e3206" /><rect width="60" height="10" x="100" y="110" fill="#ec5b43" /><rect width="60" height="10" x="170" y="110" fill="#ec5b43" /><rect width="10" height="10" x="100" y="120" fill="#ec5b43" /><rect width="20" height="10" x="110" y="120" fill="#ffffff" /><rect width="20" height="10" x="130" y="120" fill="#000000" /><rect width="10" height="10" x="150" y="120" fill="#ec5b43" /><rect width="10" height="10" x="170" y="120" fill="#ec5b43" /><rect width="20" height="10" x="180" y="120" fill="#ffffff" /><rect width="20" height="10" x="200" y="120" fill="#000000" /><rect width="10" height="10" x="220" y="120" fill="#ec5b43" /><rect width="40" height="10" x="70" y="130" fill="#ec5b43" /><rect width="20" height="10" x="110" y="130" fill="#ffffff" /><rect width="20" height="10" x="130" y="130" fill="#000000" /><rect width="30" height="10" x="150" y="130" fill="#ec5b43" /><rect width="20" height="10" x="180" y="130" fill="#ffffff" /><rect width="20" height="10" x="200" y="130" fill="#000000" /><rect width="10" height="10" x="220" y="130" fill="#ec5b43" /><rect width="10" height="10" x="70" y="140" fill="#ec5b43" /><rect width="10" height="10" x="100" y="140" fill="#ec5b43" /><rect width="20" height="10" x="110" y="140" fill="#ffffff" /><rect width="20" height="10" x="130" y="140" fill="#000000" /><rect width="10" height="10" x="150" y="140" fill="#ec5b43" /><rect width="10" height="10" x="170" y="140" fill="#ec5b43" /><rect width="20" height="10" x="180" y="140" fill="#ffffff" /><rect width="20" height="10" x="200" y="140" fill="#000000" /><rect width="10" height="10" x="220" y="140" fill="#ec5b43" /><rect width="10" height="10" x="70" y="150" fill="#ec5b43" /><rect width="10" height="10" x="100" y="150" fill="#ec5b43" /><rect width="20" height="10" x="110" y="150" fill="#ffffff" /><rect width="20" height="10" x="130" y="150" fill="#000000" /><rect width="10" height="10" x="150" y="150" fill="#ec5b43" /><rect width="10" height="10" x="170" y="150" fill="#ec5b43" /><rect width="20" height="10" x="180" y="150" fill="#ffffff" /><rect width="20" height="10" x="200" y="150" fill="#000000" /><rect width="10" height="10" x="220" y="150" fill="#ec5b43" /><rect width="60" height="10" x="100" y="160" fill="#ec5b43" /><rect width="60" height="10" x="170" y="160" fill="#ec5b43" /></svg>