<svg xmlns:xlink="http://www.w3.org/1999/xlink" width="320" height="320" viewBox="0 0 320 320" xmlns="http://www.w3.org/2000/svg" shape-rendering="crispEdges"><rect width="100%" height="100%" fill="#d5d7e1" /><rect width="140" height="10" x="90" y="210" fill="#5648ed" /><rect width="140" height="10" x="90" y="220" fill="#5648ed" /><rect width="140" height="10" x="90" y="230" fill="#5648ed" /><rect width="140" height="10" x="90" y="240" fill="#5648ed" /><rect width="20" height="10" x="90" y="250" fill="#5648ed" /><rect width="110" height="10" x="120" y="250" fill="#5648ed" /><rect width="20" height="10" x="90" y="260" fill="#5648ed" /><rect width="110" height="10" x="120" y="260" fill="#5648ed" /><rect width="20" height="10" x="90" y="270" fill="#5648ed" /><rect width="110" height="10" x="120" y="270" fill="#5648ed" /><rect width="20" height="10" x="90" y="280" fill="#5648ed" /><rect width="110" height="10" x="120" y="280" fill="#5648ed" /><rect width="20" height="10" x="90" y="290" fill="#5648ed" /><rect width="110" height="10" x="120" y="290" fill="#5648ed" /><rect width="20" height="10" x="90" y="300" fill="#5648ed" /><rect width="110" height="10" x="120" y="300" fill="#5648ed" /><rect width="20" height="10" x="90" y="310" fill="#5648ed" /><rect width="110" height="10" x="120" y="310" fill="#5648ed" /><rect width="20" height="10" x="140" y="230" fill="#a3efd0" /><rect width="10" height="10" x="170" y="230" fill="#a3efd0" /><rect width="10" height="10" x="140" y="240" fill="#a3efd0" /><rect width="20" height="10" x="160" y="240" fill="#a3efd0" /><rect width="20" height="10" x="130" y="260" fill="#a3efd0" /><rect width="10" height="10" x="160" y="260" fill="#a3efd0" /><rect width="10" height="10" x="180" y="260" fill="#a3efd0" /><rect width="20" height="10" x="130" y="270" fill="#a3efd0" /><rect width="30" height="10" x="160" y="270" fill="#a3efd0" /><rect width="20" height="10" x="140" y="290" fill="#a3efd0" /><rect width="10" height="10" x="170" y="290" fill="#a3efd0" /><rect width="10" height="10" x="140" y="300" fill="#a3efd0" /><rect width="20" height="10" x="160" y="300" fill="#a3efd0" /><rect width="40" height="10" x="90" y="20" fill="#d8dadf" /><rect width="10" height="10" x="90" y="30" fill="#d8dadf" /><rect width="20" height="10" x="100" y="30" fill="#76858b" /><rect width="10" height="10" x="120" y="30" fill="#d8dadf" /><rect width="40" height="10" x="90" y="40" fill="#d8dadf" /><rect width="100" height="10" x="150" y="40" fill="#505a5c" /><rect width="10" height="10" x="80" y="50" fill="#5d6061" /><rect width="10" height="10" x="90" y="50" fill="#d8dadf" /><rect width="10" height="10" x="100" y="50" fill="#76858b" /><rect width="20" height="10" x="110" y="50" fill="#d8dadf" /><rect width="20" height="10" x="130" y="50" fill="#5d6061" /><rect width="10" height="10" x="150" y="50" fill="#505a5c" /><rect width="80" height="10" x="160" y="50" fill="#2b83f6" /><rect width="10" height="10" x="240" y="50" fill="#505a5c" /><rect width="10" height="10" x="250" y="50" fill="#5d6061" /><rect width="10" height="10" x="80" y="60" fill="#5d6061" /><rect width="40" height="10" x="90" y="60" fill="#d8dadf" /><rect width="20" height="10" x="130" y="60" fill="#5d6061" /><rect width="10" height="10" x="150" y="60" fill="#505a5c" /><rect width="10" height="10" x="160" y="60" fill="#2b83f6" /><rect width="60" height="10" x="170" y="60" fill="#00499c" /><rect width="10" height="10" x="230" y="60" fill="#2b83f6" /><rect width="10" height="10" x="240" y="60" fill="#505a5c" /><rect width="10" height="10" x="250" y="60" fill="#5d6061" /><rect width="10" height="10" x="80" y="70" fill="#5d6061" /><rect width="10" height="10" x="90" y="70" fill="#adc8cc" /><rect width="20" height="10" x="100" y="70" fill="#76858b" /><rect width="10" height="10" x="120" y="70" fill="#adc8cc" /><rect width="20" height="10" x="130" y="70" fill="#5d6061" /><rect width="10" height="10" x="150" y="70" fill="#505a5c" /><rect width="80" height="10" x="160" y="70" fill="#2b83f6" /><rect width="10" height="10" x="240" y="70" fill="#505a5c" /><rect width="10" height="10" x="250" y="70" fill="#5d6061" /><rect width="10" height="10" x="80" y="80" fill="#5d6061" /><rect width="40" height="10" x="90" y="80" fill="#adc8cc" /><rect width="20" height="10" x="130" y="80" fill="#5d6061" /><rect width="10" height="10" x="150" y="80" fill="#505a5c" /><rect width="10" height="10" x="160" y="80" fill="#2b83f6" /><rect width="30" height="10" x="170" y="80" fill="#00499c" /><rect width="40" height="10" x="200" y="80" fill="#2b83f6" /><rect width="10" height="10" x="240" y="80" fill="#505a5c" /><rect width="10" height="10" x="250" y="80" fill="#5d6061" /><rect width="10" height="10" x="80" y="90" fill="#5d6061" /><rect width="40" height="10" x="90" y="90" fill="#505a5c" /><rect width="20" height="10" x="130" y="90" fill="#5d6061" /><rect width="10" height="10" x="150" y="90" fill="#505a5c" /><rect width="80" height="10" x="160" y="90" fill="#2b83f6" /><rect width="10" height="10" x="240" y="90" fill="#505a5c" /><rect width="10" height="10" x="250" y="90" fill="#5d6061" /><rect width="180" height="10" x="80" y="100" fill="#5d6061" /><rect width="180" height="10" x="80" y="110" fill="#5d6061" /><rect width="180" height="10" x="80" y="120" fill="#5d6061" /><rect width="180" height="10" x="80" y="130" fill="#5d6061" /><rect width="180" height="10" x="80" y="140" fill="#5d6061" /><rect width="180" height="10" x="80" y="150" fill="#5d6061" /><rect width="180" height="10" x="80" y="160" fill="#5d6061" /><rect width="150" height="10" x="80" y="170" fill="#5d6061" /><rect width="20" height="10" x="230" y="170" fill="#fff449" /><rect width="10" height="10" x="250" y="170" fill="#5d6061" /><rect width="10" height="10" x="80" y="180" fill="#5d6061" /><rect width="20" height="10" x="90" y="180" fill="#f9f4e6" /><rect width="10" height="10" x="110" y="180" fill="#5d6061" /><rect width="20" height="10" x="120" y="180" fill="#f9f4e6" /><rect width="10" height="10" x="140" y="180" fill="#5d6061" /><rect width="20" height="10" x="150" y="180" fill="#f9f4e6" /><rect width="10" height="10" x="170" y="180" fill="#5d6061" /><rect width="20" height="10" x="180" y="180" fill="#f9f4e6" /><rect width="10" height="10" x="200" y="180" fill="#5d6061" /><rect width="40" height="10" x="210" y="180" fill="#fff449" /><rect width="10" height="10" x="250" y="180" fill="#5d6061" /><rect width="10" height="10" x="80" y="190" fill="#5d6061" /><rect width="20" height="10" x="90" y="190" fill="#f9f4e6" /><rect width="10" height="10" x="110" y="190" fill="#5d6061" /><rect width="20" height="10" x="120" y="190" fill="#f9f4e6" /><rect width="10" height="10" x="140" y="190" fill="#5d6061" /><rect width="20" height="10" x="150" y="190" fill="#f9f4e6" /><rect width="10" height="10" x="170" y="190" fill="#5d6061" /><rect width="20" height="10" x="180" y="190" fill="#f9f4e6" /><rect width="10" height="10" x="200" y="190" fill="#5d6061" /><rect width="40" height="10" x="210" y="190" fill="#fff449" /><rect width="10" height="10" x="250" y="190" fill="#5d6061" /><rect width="180" height="10" x="80" y="200" fill="#5d6061" /><rect width="60" height="10" x="100" y="110" fill="#8dd122" /><rect width="60" height="10" x="170" y="110" fill="#8dd122" /><rect width="10" height="10" x="100" y="120" fill="#8dd122" /><rect width="20" height="10" x="110" y="120" fill="#ffffff" /><rect width="20" height="10" x="130" y="120" fill="#000000" /><rect width="10" height="10" x="150" y="120" fill="#8dd122" /><rect width="10" height="10" x="170" y="120" fill="#8dd122" /><rect width="20" height="10" x="180" y="120" fill="#ffffff" /><rect width="20" height="10" x="200" y="120" fill="#000000" /><rect width="10" height="10" x="220" y="120" fill="#8dd122" /><rect width="40" height="10" x="70" y="130" fill="#8dd122" /><rect width="20" height="10" x="110" y="130" fill="#ffffff" /><rect width="20" height="10" x="130" y="130" fill="#000000" /><rect width="30" height="10" x="150" y="130" fill="#8dd122" /><rect width="20" height="10" x="180" y="130" fill="#ffffff" /><rect width="20" height="10" x="200" y="130" fill="#000000" /><rect width="10" height="10" x="220" y="130" fill="#8dd122" /><rect width="10" height="10" x="70" y="140" fill="#8dd122" /><rect width="10" height="10" x="100" y="140" fill="#8dd122" /><rect width="20" height="10" x="110" y="140" fill="#ffffff" /><rect width="20" height="10" x="130" y="140" fill="#000000" /><rect width="10" height="10" x="150" y="140" fill="#8dd122" /><rect width="10" height="10" x="170" y="140" fill="#8dd122" /><rect width="20" height="10" x="180" y="140" fill="#ffffff" /><rect width="20" height="10" x="200" y="140" fill="#000000" /><rect width="10" height="10" x="220" y="140" fill="#8dd122" /><rect width="10" height="10" x="70" y="150" fill="#8dd122" /><rect width="10" height="10" x="100" y="150" fill="#8dd122" /><rect width="20" height="10" x="110" y="150" fill="#ffffff" /><rect width="20" height="10" x="130" y="150" fill="#000000" /><rect width="10" height="10" x="150" y="150" fill="#8dd122" /><rect width="10" height="10" x="170" y="150" fill="#8dd122" /><rect width="20" height="10" x="180" y="150" fill="#ffffff" /><rect width="20" height="10" x="200" y="150" fill="#000000" /><rect width="10" height="10" x="220" y="150" fill="#8dd122" /><rect width="60" height="10" x="100" y="160" fill="#8dd122" /><rect width="60" height="10" x="170" y="160" fill="#8dd122" /></svg>