<svg xmlns:xlink="http://www.w3.org/1999/xlink" width="320" height="320" viewBox="0 0 320 320" xmlns="http://www.w3.org/2000/svg" shape-rendering="crispEdges"><rect width="100%" height="100%" fill="#d5d7e1" /><rect width="140" height="10" x="90" y="210" fill="#34ac80" /><rect width="140" height="10" x="90" y="220" fill="#34ac80" /><rect width="140" height="10" x="90" y="230" fill="#34ac80" /><rect width="140" height="10" x="90" y="240" fill="#34ac80" /><rect width="20" height="10" x="90" y="250" fill="#34ac80" /><rect width="110" height="10" x="120" y="250" fill="#34ac80" /><rect width="20" height="10" x="90" y="260" fill="#34ac80" /><rect width="110" height="10" x="120" y="260" fill="#34ac80" /><rect width="20" height="10" x="90" y="270" fill="#34ac80" /><rect width="110" height="10" x="120" y="270" fill="#34ac80" /><rect width="20" height="10" x="90" y="280" fill="#34ac80" /><rect width="110" height="10" x="120" y="280" fill="#34ac80" /><rect width="20" height="10" x="90" y="290" fill="#34ac80" /><rect width="110" height="10" x="120" y="290" fill="#34ac80" /><rect width="20" height="10" x="90" y="300" fill="#34ac80" /><rect width="110" height="10" x="120" y="300" fill="#34ac80" /><rect width="20" height="10" x="90" y="310" fill="#34ac80" /><rect width="110" height="10" x="120" y="310" fill="#34ac80" /><rect width="30" height="10" x="150" y="230" fill="#009c59" /><rect width="10" height="10" x="150" y="240" fill="#009c59" /><rect width="10" height="10" x="170" y="240" fill="#009c59" /><rect width="40" height="10" x="150" y="250" fill="#009c59" /><rect width="30" height="10" x="150" y="260" fill="#009c59" /><rect width="10" height="10" x="130" y="270" fill="#009c59" /><rect width="30" height="10" x="150" y="270" fill="#009c59" /><rect width="60" height="10" x="130" y="280" fill="#009c59" /><rect width="10" height="10" x="160" y="290" fill="#009c59" /><rect width="30" height="10" x="90" y="90" fill="#ff638d" /><rect width="10" height="10" x="90" y="100" fill="#ff638d" /><rect width="10" height="10" x="100" y="100" fill="#e9265c" /><rect width="60" height="10" x="110" y="100" fill="#ff638d" /><rect width="30" height="10" x="90" y="110" fill="#ff638d" /><rect width="10" height="10" x="120" y="110" fill="#e9265c" /><rect width="60" height="10" x="130" y="110" fill="#ff638d" /><rect width="50" height="10" x="80" y="120" fill="#ff638d" /><rect width="10" height="10" x="130" y="120" fill="#e9265c" /><rect width="20" height="10" x="140" y="120" fill="#ff638d" /><rect width="10" height="10" x="160" y="120" fill="#e9265c" /><rect width="40" height="10" x="170" y="120" fill="#ff638d" /><rect width="90" height="10" x="80" y="130" fill="#ff638d" /><rect width="10" height="10" x="170" y="130" fill="#e9265c" /><rect width="60" height="10" x="180" y="130" fill="#ff638d" /><rect width="20" height="10" x="80" y="140" fill="#ff638d" /><rect width="10" height="10" x="100" y="140" fill="#e9265c" /><rect width="30" height="10" x="110" y="140" fill="#ff638d" /><rect width="10" height="10" x="140" y="140" fill="#e9265c" /><rect width="60" height="10" x="150" y="140" fill="#ff638d" /><rect width="10" height="10" x="210" y="140" fill="#e9265c" /><rect width="30" height="10" x="220" y="140" fill="#ff638d" /><rect width="20" height="10" x="70" y="150" fill="#ff638d" /><rect width="20" height="10" x="90" y="150" fill="#e9265c" /><rect width="30" height="10" x="110" y="150" fill="#ff638d" /><rect width="10" height="10" x="140" y="150" fill="#e9265c" /><rect width="30" height="10" x="150" y="150" fill="#ff638d" /><rect width="20" height="10" x="180" y="150" fill="#e9265c" /><rect width="10" height="10" x="200" y="150" fill="#ff638d" /><rect width="30" height="10" x="210" y="150" fill="#e9265c" /><rect width="10" height="10" x="240" y="150" fill="#ff638d" /><rect width="20" height="10" x="70" y="160" fill="#ff638d" /><rect width="150" height="10" x="90" y="160" fill="#e9265c" /><rect width="20" height="10" x="240" y="160" fill="#ff638d" /><rect width="20" height="10" x="60" y="170" fill="#ff638d" /><rect width="170" height="10" x="80" y="170" fill="#e9265c" /><rect width="10" height="10" x="250" y="170" fill="#ff638d" /><rect width="10" height="10" x="60" y="180" fill="#ff638d" /><rect width="30" height="10" x="70" y="180" fill="#e9265c" /><rect width="40" height="10" x="100" y="180" fill="#d6c3be" /><rect width="10" height="10" x="140" y="180" fill="#e9265c" /><rect width="40" height="10" x="150" y="180" fill="#d6c3be" /><rect width="10" height="10" x="190" y="180" fill="#e9265c" /><rect width="40" height="10" x="200" y="180" fill="#d6c3be" /><rect width="10" height="10" x="240" y="180" fill="#e9265c" /><rect width="20" height="10" x="250" y="180" fill="#ff638d" /><rect width="20" height="10" x="270" y="180" fill="#d6c3be" /><rect width="20" height="10" x="50" y="190" fill="#ff638d" /><rect width="20" height="10" x="70" y="190" fill="#e9265c" /><rect width="10" height="10" x="90" y="190" fill="#ff638d" /><rect width="10" height="10" x="100" y="190" fill="#d6c3be" /><rect width="10" height="10" x="110" y="190" fill="#ff638d" /><rect width="10" height="10" x="120" y="190" fill="#e9265c" /><rect width="10" height="10" x="130" y="190" fill="#d6c3be" /><rect width="10" height="10" x="140" y="190" fill="#e9265c" /><rect width="10" height="10" x="150" y="190" fill="#d6c3be" /><rect width="20" height="10" x="160" y="190" fill="#e9265c" /><rect width="10" height="10" x="180" y="190" fill="#d6c3be" /><rect width="10" height="10" x="190" y="190" fill="#e9265c" /><rect width="10" height="10" x="200" y="190" fill="#d6c3be" /><rect width="10" height="10" x="210" y="190" fill="#e9265c" /><rect width="10" height="10" x="220" y="190" fill="#ff638d" /><rect width="10" height="10" x="230" y="190" fill="#d6c3be" /><rect width="30" height="10" x="240" y="190" fill="#ff638d" /><rect width="10" height="10" x="280" y="190" fill="#d6c3be" /><rect width="50" height="10" x="50" y="200" fill="#ff638d" /><rect width="10" height="10" x="100" y="200" fill="#d6c3be" /><rect width="20" height="10" x="110" y="200" fill="#ff638d" /><rect width="30" height="10" x="130" y="200" fill="#d6c3be" /><rect width="20" height="10" x="160" y="200" fill="#ff638d" /><rect width="30" height="10" x="180" y="200" fill="#d6c3be" /><rect width="20" height="10" x="210" y="200" fill="#ff638d" /><rect width="60" height="10" x="230" y="200" fill="#d6c3be" /><rect width="30" height="10" x="80" y="210" fill="#d6c3be" /><rect width="60" height="10" x="100" y="110" fill="#b9185c" /><rect width="60" height="10" x="170" y="110" fill="#b9185c" /><rect width="10" height="10" x="100" y="120" fill="#b9185c" /><rect width="20" height="10" x="110" y="120" fill="#ffffff" /><rect width="20" height="10" x="130" y="120" fill="#000000" /><rect width="10" height="10" x="150" y="120" fill="#b9185c" /><rect width="10" height="10" x="170" y="120" fill="#b9185c" /><rect width="20" height="10" x="180" y="120" fill="#ffffff" /><rect width="20" height="10" x="200" y="120" fill="#000000" /><rect width="10" height="10" x="220" y="120" fill="#b9185c" /><rect width="40" height="10" x="70" y="130" fill="#b9185c" /><rect width="20" height="10" x="110" y="130" fill="#ffffff" /><rect width="20" height="10" x="130" y="130" fill="#000000" /><rect width="30" height="10" x="150" y="130" fill="#b9185c" /><rect width="20" height="10" x="180" y="130" fill="#ffffff" /><rect width="20" height="10" x="200" y="130" fill="#000000" /><rect width="10" height="10" x="220" y="130" fill="#b9185c" /><rect width="10" height="10" x="70" y="140" fill="#b9185c" /><rect width="10" height="10" x="100" y="140" fill="#b9185c" /><rect width="20" height="10" x="110" y="140" fill="#ffffff" /><rect width="20" height="10" x="130" y="140" fill="#000000" /><rect width="10" height="10" x="150" y="140" fill="#b9185c" /><rect width="10" height="10" x="170" y="140" fill="#b9185c" /><rect width="20" height="10" x="180" y="140" fill="#ffffff" /><rect width="20" height="10" x="200" y="140" fill="#000000" /><rect width="10" height="10" x="220" y="140" fill="#b9185c" /><rect width="10" height="10" x="70" y="150" fill="#b9185c" /><rect width="10" height="10" x="100" y="150" fill="#b9185c" /><rect width="20" height="10" x="110" y="150" fill="#ffffff" /><rect width="20" height="10" x="130" y="150" fill="#000000" /><rect width="10" height="10" x="150" y="150" fill="#b9185c" /><rect width="10" height="10" x="170" y="150" fill="#b9185c" /><rect width="20" height="10" x="180" y="150" fill="#ffffff" /><rect width="20" height="10" x="200" y="150" fill="#000000" /><rect width="10" height="10" x="220" y="150" fill="#b9185c" /><rect width="60" height="10" x="100" y="160" fill="#b9185c" /><rect width="60" height="10" x="170" y="160" fill="#b9185c" /></svg>