<svg xmlns:xlink="http://www.w3.org/1999/xlink" width="320" height="320" viewBox="0 0 320 320" xmlns="http://www.w3.org/2000/svg" shape-rendering="crispEdges"><rect width="100%" height="100%" fill="#d5d7e1" /><rect width="140" height="10" x="90" y="210" fill="#b87b11" /><rect width="140" height="10" x="90" y="220" fill="#b87b11" /><rect width="140" height="10" x="90" y="230" fill="#b87b11" /><rect width="140" height="10" x="90" y="240" fill="#b87b11" /><rect width="20" height="10" x="90" y="250" fill="#b87b11" /><rect width="110" height="10" x="120" y="250" fill="#b87b11" /><rect width="20" height="10" x="90" y="260" fill="#b87b11" /><rect width="110" height="10" x="120" y="260" fill="#b87b11" /><rect width="20" height="10" x="90" y="270" fill="#b87b11" /><rect width="110" height="10" x="120" y="270" fill="#b87b11" /><rect width="20" height="10" x="90" y="280" fill="#b87b11" /><rect width="110" height="10" x="120" y="280" fill="#b87b11" /><rect width="20" height="10" x="90" y="290" fill="#b87b11" /><rect width="110" height="10" x="120" y="290" fill="#b87b11" /><rect width="20" height="10" x="90" y="300" fill="#b87b11" /><rect width="110" height="10" x="120" y="300" fill="#b87b11" /><rect width="20" height="10" x="90" y="310" fill="#b87b11" /><rect width="110" height="10" x="120" y="310" fill="#b87b11" /><rect width="40" height="10" x="110" y="210" fill="#f98f30" /><rect width="50" height="10" x="180" y="210" fill="#f98f30" /><rect width="40" height="10" x="110" y="220" fill="#f98f30" /><rect width="50" height="10" x="180" y="220" fill="#f98f30" /><rect width="40" height="10" x="110" y="230" fill="#f98f30" /><rect width="50" height="10" x="180" y="230" fill="#f98f30" /><rect width="40" height="10" x="110" y="240" fill="#f98f30" /><rect width="50" height="10" x="180" y="240" fill="#f98f30" /><rect width="30" height="10" x="120" y="250" fill="#fdf8ff" /><rect width="50" height="10" x="180" y="250" fill="#fdf8ff" /><rect width="30" height="10" x="120" y="260" fill="#fdf8ff" /><rect width="50" height="10" x="180" y="260" fill="#fdf8ff" /><rect width="30" height="10" x="120" y="270" fill="#fdf8ff" /><rect width="50" height="10" x="180" y="270" fill="#fdf8ff" /><rect width="30" height="10" x="120" y="280" fill="#fdf8ff" /><rect width="50" height="10" x="180" y="280" fill="#fdf8ff" /><rect width="30" height="10" x="120" y="290" fill="#f98f30" /><rect width="50" height="10" x="180" y="290" fill="#f98f30" /><rect width="30" height="10" x="120" y="300" fill="#f98f30" /><rect width="50" height="10" x="180" y="300" fill="#f98f30" /><rect width="30" height="10" x="120" y="310" fill="#f98f30" /><rect width="50" height="10" x="180" y="310" fill="#f98f30" /><rect width="20" height="10" x="150" y="10" fill="#000000" /><rect width="10" height="10" x="160" y="20" fill="#a86f60" /><rect width="10" height="10" x="80" y="30" fill="#a86f60" /><rect width="80" height="10" x="120" y="30" fill="#000000" /><rect width="20" height="10" x="70" y="40" fill="#000000" /><rect width="80" height="10" x="130" y="40" fill="#000000" /><rect width="20" height="10" x="230" y="40" fill="#000000" /><rect width="10" height="10" x="80" y="50" fill="#a86f60" /><rect width="10" height="10" x="140" y="50" fill="#000000" /><rect width="10" height="10" x="150" y="50" fill="#fff0ee" /><rect width="10" height="10" x="160" y="50" fill="#000000" /><rect width="20" height="10" x="170" y="50" fill="#fff0ee" /><rect width="10" height="10" x="190" y="50" fill="#000000" /><rect width="10" height="10" x="200" y="50" fill="#fff0ee" /><rect width="10" height="10" x="210" y="50" fill="#000000" /><rect width="10" height="10" x="240" y="50" fill="#a86f60" /><rect width="20" height="10" x="60" y="60" fill="#e11833" /><rect width="10" height="10" x="80" y="60" fill="#a86f60" /><rect width="30" height="10" x="140" y="60" fill="#000000" /><rect width="20" height="10" x="170" y="60" fill="#fff0ee" /><rect width="30" height="10" x="190" y="60" fill="#000000" /><rect width="30" height="10" x="230" y="60" fill="#e11833" /><rect width="30" height="10" x="60" y="70" fill="#e11833" /><rect width="40" height="10" x="140" y="70" fill="#000000" /><rect width="10" height="10" x="180" y="70" fill="#fff0ee" /><rect width="30" height="10" x="190" y="70" fill="#000000" /><rect width="30" height="10" x="240" y="70" fill="#e11833" /><rect width="40" height="10" x="60" y="80" fill="#e11833" /><rect width="20" height="10" x="130" y="80" fill="#000000" /><rect width="10" height="10" x="150" y="80" fill="#fff0ee" /><rect width="40" height="10" x="160" y="80" fill="#000000" /><rect width="10" height="10" x="200" y="80" fill="#fff0ee" /><rect width="10" height="10" x="210" y="80" fill="#000000" /><rect width="30" height="10" x="230" y="80" fill="#e11833" /><rect width="60" height="10" x="50" y="90" fill="#e11833" /><rect width="90" height="10" x="120" y="90" fill="#000000" /><rect width="10" height="10" x="240" y="90" fill="#a86f60" /><rect width="10" height="10" x="80" y="100" fill="#a86f60" /><rect width="10" height="10" x="160" y="100" fill="#a86f60" /><rect width="10" height="10" x="240" y="100" fill="#a86f60" /><rect width="10" height="10" x="80" y="110" fill="#a86f60" /><rect width="10" height="10" x="160" y="110" fill="#a86f60" /><rect width="10" height="10" x="240" y="110" fill="#a86f60" /><rect width="130" height="10" x="30" y="120" fill="#ffc110" /><rect width="10" height="10" x="160" y="120" fill="#a86f60" /><rect width="10" height="10" x="240" y="120" fill="#a86f60" /><rect width="120" height="10" x="30" y="130" fill="#7e5243" /><rect width="10" height="10" x="150" y="130" fill="#ffc110" /><rect width="10" height="10" x="160" y="130" fill="#a86f60" /><rect width="10" height="10" x="240" y="130" fill="#a86f60" /><rect width="10" height="10" x="30" y="140" fill="#7e5243" /><rect width="20" height="10" x="40" y="140" fill="#000000" /><rect width="90" height="10" x="60" y="140" fill="#7e5243" /><rect width="10" height="10" x="150" y="140" fill="#ffc110" /><rect width="80" height="10" x="160" y="140" fill="#7e5243" /><rect width="10" height="10" x="240" y="140" fill="#a86f60" /><rect width="50" height="10" x="260" y="140" fill="#ffc110" /><rect width="10" height="10" x="30" y="150" fill="#7e5243" /><rect width="20" height="10" x="40" y="150" fill="#000000" /><rect width="90" height="10" x="60" y="150" fill="#7e5243" /><rect width="10" height="10" x="150" y="150" fill="#ffc110" /><rect width="10" height="10" x="160" y="150" fill="#a86f60" /><rect width="10" height="10" x="180" y="150" fill="#7e5243" /><rect width="10" height="10" x="200" y="150" fill="#7e5243" /><rect width="10" height="10" x="220" y="150" fill="#7e5243" /><rect width="10" height="10" x="240" y="150" fill="#a86f60" /><rect width="10" height="10" x="250" y="150" fill="#ffc110" /><rect width="40" height="10" x="260" y="150" fill="#7e5243" /><rect width="120" height="10" x="30" y="160" fill="#7e5243" /><rect width="100" height="10" x="150" y="160" fill="#ffc110" /><rect width="30" height="10" x="250" y="160" fill="#7e5243" /><rect width="40" height="10" x="50" y="170" fill="#7e5243" /><rect width="10" height="10" x="90" y="170" fill="#000000" /><rect width="160" height="10" x="100" y="170" fill="#7e5243" /><rect width="20" height="10" x="60" y="180" fill="#7e5243" /><rect width="30" height="10" x="80" y="180" fill="#000000" /><rect width="10" height="10" x="110" y="180" fill="#7e5243" /><rect width="10" height="10" x="120" y="180" fill="#000000" /><rect width="10" height="10" x="130" y="180" fill="#7e5243" /><rect width="10" height="10" x="140" y="180" fill="#000000" /><rect width="10" height="10" x="150" y="180" fill="#7e5243" /><rect width="10" height="10" x="160" y="180" fill="#000000" /><rect width="10" height="10" x="170" y="180" fill="#7e5243" /><rect width="10" height="10" x="180" y="180" fill="#000000" /><rect width="10" height="10" x="190" y="180" fill="#7e5243" /><rect width="10" height="10" x="200" y="180" fill="#000000" /><rect width="40" height="10" x="210" y="180" fill="#7e5243" /><rect width="20" height="10" x="70" y="190" fill="#7e5243" /><rect width="10" height="10" x="90" y="190" fill="#000000" /><rect width="140" height="10" x="100" y="190" fill="#7e5243" /><rect width="150" height="10" x="80" y="200" fill="#7e5243" /><rect width="60" height="10" x="100" y="110" fill="#4bea69" /><rect width="60" height="10" x="170" y="110" fill="#4bea69" /><rect width="10" height="10" x="100" y="120" fill="#4bea69" /><rect width="20" height="10" x="110" y="120" fill="#ffffff" /><rect width="20" height="10" x="130" y="120" fill="#000000" /><rect width="10" height="10" x="150" y="120" fill="#4bea69" /><rect width="10" height="10" x="170" y="120" fill="#4bea69" /><rect width="20" height="10" x="180" y="120" fill="#ffffff" /><rect width="20" height="10" x="200" y="120" fill="#000000" /><rect width="10" height="10" x="220" y="120" fill="#4bea69" /><rect width="40" height="10" x="70" y="130" fill="#4bea69" /><rect width="20" height="10" x="110" y="130" fill="#ffffff" /><rect width="20" height="10" x="130" y="130" fill="#000000" /><rect width="30" height="10" x="150" y="130" fill="#4bea69" /><rect width="20" height="10" x="180" y="130" fill="#ffffff" /><rect width="20" height="10" x="200" y="130" fill="#000000" /><rect width="10" height="10" x="220" y="130" fill="#4bea69" /><rect width="10" height="10" x="70" y="140" fill="#4bea69" /><rect width="10" height="10" x="100" y="140" fill="#4bea69" /><rect width="20" height="10" x="110" y="140" fill="#ffffff" /><rect width="20" height="10" x="130" y="140" fill="#000000" /><rect width="10" height="10" x="150" y="140" fill="#4bea69" /><rect width="10" height="10" x="170" y="140" fill="#4bea69" /><rect width="20" height="10" x="180" y="140" fill="#ffffff" /><rect width="20" height="10" x="200" y="140" fill="#000000" /><rect width="10" height="10" x="220" y="140" fill="#4bea69" /><rect width="10" height="10" x="70" y="150" fill="#4bea69" /><rect width="10" height="10" x="100" y="150" fill="#4bea69" /><rect width="20" height="10" x="110" y="150" fill="#ffffff" /><rect width="20" height="10" x="130" y="150" fill="#000000" /><rect width="10" height="10" x="150" y="150" fill="#4bea69" /><rect width="10" height="10" x="170" y="150" fill="#4bea69" /><rect width="20" height="10" x="180" y="150" fill="#ffffff" /><rect width="20" height="10" x="200" y="150" fill="#000000" /><rect width="10" height="10" x="220" y="150" fill="#4bea69" /><rect width="60" height="10" x="100" y="160" fill="#4bea69" /><rect width="60" height="10" x="170" y="160" fill="#4bea69" /></svg>