<svg xmlns:xlink="http://www.w3.org/1999/xlink" width="320" height="320" viewBox="0 0 320 320" xmlns="http://www.w3.org/2000/svg" shape-rendering="crispEdges"><rect width="100%" height="100%" fill="#e1d7d5" /><rect width="140" height="10" x="90" y="210" fill="#4b4949" /><rect width="140" height="10" x="90" y="220" fill="#4b4949" /><rect width="140" height="10" x="90" y="230" fill="#4b4949" /><rect width="140" height="10" x="90" y="240" fill="#4b4949" /><rect width="20" height="10" x="90" y="250" fill="#4b4949" /><rect width="110" height="10" x="120" y="250" fill="#4b4949" /><rect width="20" height="10" x="90" y="260" fill="#4b4949" /><rect width="110" height="10" x="120" y="260" fill="#4b4949" /><rect width="20" height="10" x="90" y="270" fill="#4b4949" /><rect width="110" height="10" x="120" y="270" fill="#4b4949" /><rect width="20" height="10" x="90" y="280" fill="#4b4949" /><rect width="110" height="10" x="120" y="280" fill="#4b4949" /><rect width="20" height="10" x="90" y="290" fill="#4b4949" /><rect width="110" height="10" x="120" y="290" fill="#4b4949" /><rect width="20" height="10" x="90" y="300" fill="#4b4949" /><rect width="110" height="10" x="120" y="300" fill="#4b4949" /><rect width="20" height="10" x="90" y="310" fill="#4b4949" /><rect width="110" height="10" x="120" y="310" fill="#4b4949" /><rect width="20" height="10" x="110" y="210" fill="#000000" /><rect width="20" height="10" x="150" y="210" fill="#000000" /><rect width="20" height="10" x="190" y="210" fill="#000000" /><rect width="20" height="10" x="110" y="220" fill="#000000" /><rect width="20" height="10" x="150" y="220" fill="#000000" /><rect width="20" height="10" x="190" y="220" fill="#000000" /><rect width="20" height="10" x="90" y="230" fill="#000000" /><rect width="20" height="10" x="130" y="230" fill="#000000" /><rect width="20" height="10" x="170" y="230" fill="#000000" /><rect width="20" height="10" x="210" y="230" fill="#000000" /><rect width="20" height="10" x="90" y="240" fill="#000000" /><rect width="20" height="10" x="130" y="240" fill="#000000" /><rect width="20" height="10" x="170" y="240" fill="#000000" /><rect width="20" height="10" x="210" y="240" fill="#000000" /><rect width="10" height="10" x="120" y="250" fill="#000000" /><rect width="20" height="10" x="150" y="250" fill="#000000" /><rect width="20" height="10" x="190" y="250" fill="#000000" /><rect width="10" height="10" x="120" y="260" fill="#000000" /><rect width="20" height="10" x="150" y="260" fill="#000000" /><rect width="20" height="10" x="190" y="260" fill="#000000" /><rect width="20" height="10" x="90" y="270" fill="#000000" /><rect width="20" height="10" x="130" y="270" fill="#000000" /><rect width="20" height="10" x="170" y="270" fill="#000000" /><rect width="20" height="10" x="210" y="270" fill="#000000" /><rect width="20" height="10" x="90" y="280" fill="#000000" /><rect width="20" height="10" x="130" y="280" fill="#000000" /><rect width="20" height="10" x="170" y="280" fill="#000000" /><rect width="20" height="10" x="210" y="280" fill="#000000" /><rect width="10" height="10" x="120" y="290" fill="#000000" /><rect width="20" height="10" x="150" y="290" fill="#000000" /><rect width="20" height="10" x="190" y="290" fill="#000000" /><rect width="10" height="10" x="120" y="300" fill="#000000" /><rect width="20" height="10" x="150" y="300" fill="#000000" /><rect width="20" height="10" x="190" y="300" fill="#000000" /><rect width="20" height="10" x="90" y="310" fill="#000000" /><rect width="20" height="10" x="130" y="310" fill="#000000" /><rect width="20" height="10" x="170" y="310" fill="#000000" /><rect width="20" height="10" x="210" y="310" fill="#000000" /><rect width="190" height="10" x="50" y="60" fill="#49b38b" /><rect width="10" height="10" x="50" y="70" fill="#49b38b" /><rect width="10" height="10" x="60" y="70" fill="#fccf25" /><rect width="30" height="10" x="70" y="70" fill="#49b38b" /><rect width="20" height="10" x="100" y="70" fill="#f59b34" /><rect width="10" height="10" x="120" y="70" fill="#49b38b" /><rect width="80" height="10" x="130" y="70" fill="#375dfc" /><rect width="10" height="10" x="210" y="70" fill="#49b38b" /><rect width="10" height="10" x="220" y="70" fill="#fccf25" /><rect width="10" height="10" x="230" y="70" fill="#49b38b" /><rect width="50" height="10" x="50" y="80" fill="#49b38b" /><rect width="20" height="10" x="100" y="80" fill="#f59b34" /><rect width="60" height="10" x="120" y="80" fill="#49b38b" /><rect width="10" height="10" x="180" y="80" fill="#99e6de" /><rect width="60" height="10" x="190" y="80" fill="#49b38b" /><rect width="10" height="10" x="50" y="90" fill="#49b38b" /><rect width="30" height="10" x="60" y="90" fill="#27a463" /><rect width="10" height="10" x="90" y="90" fill="#49b38b" /><rect width="20" height="10" x="100" y="90" fill="#f59b34" /><rect width="10" height="10" x="120" y="90" fill="#49b38b" /><rect width="100" height="10" x="130" y="90" fill="#554543" /><rect width="20" height="10" x="230" y="90" fill="#49b38b" /><rect width="10" height="10" x="50" y="100" fill="#49b38b" /><rect width="10" height="10" x="60" y="100" fill="#27a463" /><rect width="10" height="10" x="70" y="100" fill="#554543" /><rect width="10" height="10" x="80" y="100" fill="#27a463" /><rect width="20" height="10" x="90" y="100" fill="#49b38b" /><rect width="10" height="10" x="110" y="100" fill="#99e6de" /><rect width="60" height="10" x="120" y="100" fill="#49b38b" /><rect width="10" height="10" x="180" y="100" fill="#99e6de" /><rect width="70" height="10" x="190" y="100" fill="#49b38b" /><rect width="10" height="10" x="260" y="100" fill="#b19e00" /><rect width="10" height="10" x="270" y="100" fill="#fccf25" /><rect width="10" height="10" x="50" y="110" fill="#49b38b" /><rect width="30" height="10" x="60" y="110" fill="#27a463" /><rect width="10" height="10" x="90" y="110" fill="#49b38b" /><rect width="10" height="10" x="100" y="110" fill="#99e6de" /><rect width="40" height="10" x="110" y="110" fill="#49b38b" /><rect width="10" height="10" x="150" y="110" fill="#99e6de" /><rect width="30" height="10" x="160" y="110" fill="#49b38b" /><rect width="10" height="10" x="190" y="110" fill="#99e6de" /><rect width="50" height="10" x="200" y="110" fill="#49b38b" /><rect width="10" height="10" x="250" y="110" fill="#99e6de" /><rect width="20" height="10" x="260" y="110" fill="#fccf25" /><rect width="50" height="10" x="50" y="120" fill="#49b38b" /><rect width="10" height="10" x="100" y="120" fill="#99e6de" /><rect width="30" height="10" x="110" y="120" fill="#49b38b" /><rect width="10" height="10" x="140" y="120" fill="#99e6de" /><rect width="50" height="10" x="150" y="120" fill="#49b38b" /><rect width="10" height="10" x="200" y="120" fill="#99e6de" /><rect width="30" height="10" x="210" y="120" fill="#49b38b" /><rect width="10" height="10" x="240" y="120" fill="#99e6de" /><rect width="10" height="10" x="250" y="120" fill="#49b38b" /><rect width="10" height="10" x="260" y="120" fill="#b19e00" /><rect width="10" height="10" x="270" y="120" fill="#fccf25" /><rect width="50" height="10" x="50" y="130" fill="#49b38b" /><rect width="10" height="10" x="100" y="130" fill="#99e6de" /><rect width="30" height="10" x="110" y="130" fill="#49b38b" /><rect width="10" height="10" x="140" y="130" fill="#99e6de" /><rect width="50" height="10" x="150" y="130" fill="#49b38b" /><rect width="10" height="10" x="200" y="130" fill="#99e6de" /><rect width="20" height="10" x="210" y="130" fill="#49b38b" /><rect width="10" height="10" x="230" y="130" fill="#99e6de" /><rect width="20" height="10" x="240" y="130" fill="#49b38b" /><rect width="20" height="10" x="260" y="130" fill="#fccf25" /><rect width="20" height="10" x="50" y="140" fill="#49b38b" /><rect width="160" height="10" x="70" y="140" fill="#99e6de" /><rect width="30" height="10" x="230" y="140" fill="#49b38b" /><rect width="10" height="10" x="260" y="140" fill="#b19e00" /><rect width="10" height="10" x="270" y="140" fill="#fccf25" /><rect width="10" height="10" x="50" y="150" fill="#49b38b" /><rect width="10" height="10" x="60" y="150" fill="#99e6de" /><rect width="30" height="10" x="70" y="150" fill="#49b38b" /><rect width="10" height="10" x="100" y="150" fill="#99e6de" /><rect width="150" height="10" x="110" y="150" fill="#49b38b" /><rect width="10" height="10" x="50" y="160" fill="#49b38b" /><rect width="10" height="10" x="60" y="160" fill="#99e6de" /><rect width="20" height="10" x="70" y="160" fill="#49b38b" /><rect width="160" height="10" x="90" y="160" fill="#99e6de" /><rect width="10" height="10" x="250" y="160" fill="#49b38b" /><rect width="10" height="10" x="260" y="160" fill="#b19e00" /><rect width="10" height="10" x="270" y="160" fill="#fccf25" /><rect width="10" height="10" x="50" y="170" fill="#49b38b" /><rect width="10" height="10" x="60" y="170" fill="#99e6de" /><rect width="10" height="10" x="70" y="170" fill="#49b38b" /><rect width="10" height="10" x="80" y="170" fill="#99e6de" /><rect width="160" height="10" x="90" y="170" fill="#49b38b" /><rect width="10" height="10" x="250" y="170" fill="#99e6de" /><rect width="20" height="10" x="260" y="170" fill="#fccf25" /><rect width="30" height="10" x="50" y="180" fill="#49b38b" /><rect width="10" height="10" x="80" y="180" fill="#99e6de" /><rect width="10" height="10" x="90" y="180" fill="#49b38b" /><rect width="20" height="10" x="100" y="180" fill="#554543" /><rect width="10" height="10" x="120" y="180" fill="#49b38b" /><rect width="20" height="10" x="130" y="180" fill="#554543" /><rect width="10" height="10" x="150" y="180" fill="#49b38b" /><rect width="20" height="10" x="160" y="180" fill="#554543" /><rect width="10" height="10" x="180" y="180" fill="#49b38b" /><rect width="20" height="10" x="190" y="180" fill="#554543" /><rect width="10" height="10" x="210" y="180" fill="#49b38b" /><rect width="20" height="10" x="220" y="180" fill="#554543" /><rect width="20" height="10" x="240" y="180" fill="#49b38b" /><rect width="10" height="10" x="260" y="180" fill="#b19e00" /><rect width="10" height="10" x="270" y="180" fill="#fccf25" /><rect width="10" height="10" x="50" y="190" fill="#49b38b" /><rect width="10" height="10" x="60" y="190" fill="#fccf25" /><rect width="10" height="10" x="70" y="190" fill="#49b38b" /><rect width="10" height="10" x="80" y="190" fill="#99e6de" /><rect width="10" height="10" x="90" y="190" fill="#49b38b" /><rect width="20" height="10" x="100" y="190" fill="#554543" /><rect width="10" height="10" x="120" y="190" fill="#49b38b" /><rect width="20" height="10" x="130" y="190" fill="#554543" /><rect width="10" height="10" x="150" y="190" fill="#49b38b" /><rect width="20" height="10" x="160" y="190" fill="#554543" /><rect width="10" height="10" x="180" y="190" fill="#49b38b" /><rect width="20" height="10" x="190" y="190" fill="#554543" /><rect width="10" height="10" x="210" y="190" fill="#49b38b" /><rect width="20" height="10" x="220" y="190" fill="#554543" /><rect width="20" height="10" x="240" y="190" fill="#49b38b" /><rect width="20" height="10" x="260" y="190" fill="#fccf25" /><rect width="210" height="10" x="50" y="200" fill="#49b38b" /><rect width="10" height="10" x="260" y="200" fill="#b19e00" /><rect width="10" height="10" x="270" y="200" fill="#fccf25" /><rect width="60" height="10" x="100" y="110" fill="#d19a54" /><rect width="60" height="10" x="170" y="110" fill="#d19a54" /><rect width="10" height="10" x="100" y="120" fill="#d19a54" /><rect width="20" height="10" x="110" y="120" fill="#ffffff" /><rect width="20" height="10" x="130" y="120" fill="#000000" /><rect width="10" height="10" x="150" y="120" fill="#d19a54" /><rect width="10" height="10" x="170" y="120" fill="#d19a54" /><rect width="20" height="10" x="180" y="120" fill="#ffffff" /><rect width="20" height="10" x="200" y="120" fill="#000000" /><rect width="10" height="10" x="220" y="120" fill="#d19a54" /><rect width="40" height="10" x="70" y="130" fill="#d19a54" /><rect width="20" height="10" x="110" y="130" fill="#ffffff" /><rect width="20" height="10" x="130" y="130" fill="#000000" /><rect width="30" height="10" x="150" y="130" fill="#d19a54" /><rect width="20" height="10" x="180" y="130" fill="#ffffff" /><rect width="20" height="10" x="200" y="130" fill="#000000" /><rect width="10" height="10" x="220" y="130" fill="#d19a54" /><rect width="10" height="10" x="70" y="140" fill="#d19a54" /><rect width="10" height="10" x="100" y="140" fill="#d19a54" /><rect width="20" height="10" x="110" y="140" fill="#ffffff" /><rect width="20" height="10" x="130" y="140" fill="#000000" /><rect width="10" height="10" x="150" y="140" fill="#d19a54" /><rect width="10" height="10" x="170" y="140" fill="#d19a54" /><rect width="20" height="10" x="180" y="140" fill="#ffffff" /><rect width="20" height="10" x="200" y="140" fill="#000000" /><rect width="10" height="10" x="220" y="140" fill="#d19a54" /><rect width="10" height="10" x="70" y="150" fill="#d19a54" /><rect width="10" height="10" x="100" y="150" fill="#d19a54" /><rect width="20" height="10" x="110" y="150" fill="#ffffff" /><rect width="20" height="10" x="130" y="150" fill="#000000" /><rect width="10" height="10" x="150" y="150" fill="#d19a54" /><rect width="10" height="10" x="170" y="150" fill="#d19a54" /><rect width="20" height="10" x="180" y="150" fill="#ffffff" /><rect width="20" height="10" x="200" y="150" fill="#000000" /><rect width="10" height="10" x="220" y="150" fill="#d19a54" /><rect width="60" height="10" x="100" y="160" fill="#d19a54" /><rect width="60" height="10" x="170" y="160" fill="#d19a54" /></svg>