<svg xmlns:xlink="http://www.w3.org/1999/xlink" width="320" height="320" viewBox="0 0 320 320" xmlns="http://www.w3.org/2000/svg" shape-rendering="crispEdges"><rect width="100%" height="100%" fill="#d5d7e1" /><rect width="140" height="10" x="90" y="210" fill="#5a65fa" /><rect width="140" height="10" x="90" y="220" fill="#5a65fa" /><rect width="140" height="10" x="90" y="230" fill="#5a65fa" /><rect width="140" height="10" x="90" y="240" fill="#5a65fa" /><rect width="20" height="10" x="90" y="250" fill="#5a65fa" /><rect width="110" height="10" x="120" y="250" fill="#5a65fa" /><rect width="20" height="10" x="90" y="260" fill="#5a65fa" /><rect width="110" height="10" x="120" y="260" fill="#5a65fa" /><rect width="20" height="10" x="90" y="270" fill="#5a65fa" /><rect width="110" height="10" x="120" y="270" fill="#5a65fa" /><rect width="20" height="10" x="90" y="280" fill="#5a65fa" /><rect width="110" height="10" x="120" y="280" fill="#5a65fa" /><rect width="20" height="10" x="90" y="290" fill="#5a65fa" /><rect width="110" height="10" x="120" y="290" fill="#5a65fa" /><rect width="20" height="10" x="90" y="300" fill="#5a65fa" /><rect width="110" height="10" x="120" y="300" fill="#5a65fa" /><rect width="20" height="10" x="90" y="310" fill="#5a65fa" /><rect width="110" height="10" x="120" y="310" fill="#5a65fa" /><rect width="140" height="10" x="90" y="210" fill="#a3efd0" /><rect width="140" height="10" x="90" y="220" fill="#a3efd0" /><rect width="140" height="10" x="90" y="230" fill="#87e4d9" /><rect width="140" height="10" x="90" y="240" fill="#87e4d9" /><rect width="20" height="10" x="90" y="250" fill="#87e4d9" /><rect width="110" height="10" x="120" y="250" fill="#87e4d9" /><rect width="20" height="10" x="90" y="260" fill="#87e4d9" /><rect width="110" height="10" x="120" y="260" fill="#87e4d9" /><rect width="20" height="10" x="90" y="270" fill="#7cc4f2" /><rect width="110" height="10" x="120" y="270" fill="#7cc4f2" /><rect width="20" height="10" x="90" y="280" fill="#7cc4f2" /><rect width="110" height="10" x="120" y="280" fill="#7cc4f2" /><rect width="20" height="10" x="90" y="290" fill="#7cc4f2" /><rect width="110" height="10" x="120" y="290" fill="#7cc4f2" /><rect width="20" height="10" x="90" y="300" fill="#7cc4f2" /><rect width="110" height="10" x="120" y="300" fill="#7cc4f2" /><rect width="20" height="10" x="90" y="310" fill="#71bde4" /><rect width="110" height="10" x="120" y="310" fill="#71bde4" /><rect width="10" height="10" x="150" y="10" fill="#068940" /><rect width="20" height="10" x="140" y="20" fill="#068940" /><rect width="20" height="10" x="140" y="30" fill="#068940" /><rect width="10" height="10" x="170" y="30" fill="#068940" /><rect width="40" height="10" x="130" y="40" fill="#068940" /><rect width="10" height="10" x="60" y="50" fill="#068940" /><rect width="40" height="10" x="130" y="50" fill="#068940" /><rect width="10" height="10" x="240" y="50" fill="#068940" /><rect width="20" height="10" x="60" y="60" fill="#068940" /><rect width="30" height="10" x="140" y="60" fill="#068940" /><rect width="10" height="10" x="180" y="60" fill="#068940" /><rect width="20" height="10" x="230" y="60" fill="#068940" /><rect width="30" height="10" x="60" y="70" fill="#068940" /><rect width="10" height="10" x="100" y="70" fill="#068940" /><rect width="50" height="10" x="130" y="70" fill="#068940" /><rect width="30" height="10" x="220" y="70" fill="#068940" /><rect width="40" height="10" x="70" y="80" fill="#068940" /><rect width="60" height="10" x="130" y="80" fill="#068940" /><rect width="40" height="10" x="200" y="80" fill="#068940" /><rect width="50" height="10" x="70" y="90" fill="#068940" /><rect width="40" height="10" x="140" y="90" fill="#068940" /><rect width="50" height="10" x="190" y="90" fill="#068940" /><rect width="50" height="10" x="80" y="100" fill="#068940" /><rect width="40" height="10" x="140" y="100" fill="#068940" /><rect width="40" height="10" x="190" y="100" fill="#068940" /><rect width="10" height="10" x="20" y="110" fill="#068940" /><rect width="130" height="10" x="90" y="110" fill="#068940" /><rect width="10" height="10" x="280" y="110" fill="#068940" /><rect width="20" height="10" x="30" y="120" fill="#068940" /><rect width="10" height="10" x="60" y="120" fill="#068940" /><rect width="110" height="10" x="100" y="120" fill="#068940" /><rect width="20" height="10" x="260" y="120" fill="#068940" /><rect width="40" height="10" x="30" y="130" fill="#068940" /><rect width="190" height="10" x="90" y="130" fill="#068940" /><rect width="230" height="10" x="40" y="140" fill="#068940" /><rect width="190" height="10" x="60" y="150" fill="#068940" /><rect width="150" height="10" x="70" y="160" fill="#068940" /><rect width="30" height="10" x="110" y="170" fill="#068940" /><rect width="10" height="10" x="140" y="170" fill="#0b5027" /><rect width="30" height="10" x="150" y="170" fill="#068940" /><rect width="10" height="10" x="180" y="170" fill="#0b5027" /><rect width="10" height="10" x="190" y="170" fill="#068940" /><rect width="50" height="10" x="100" y="180" fill="#068940" /><rect width="30" height="10" x="150" y="180" fill="#0b5027" /><rect width="30" height="10" x="180" y="180" fill="#068940" /><rect width="150" height="10" x="80" y="190" fill="#068940" /><rect width="170" height="10" x="70" y="200" fill="#068940" /><rect width="20" height="10" x="60" y="210" fill="#068940" /><rect width="20" height="10" x="230" y="210" fill="#068940" /><rect width="60" height="10" x="100" y="110" fill="#4bea69" /><rect width="60" height="10" x="170" y="110" fill="#4bea69" /><rect width="10" height="10" x="100" y="120" fill="#4bea69" /><rect width="20" height="10" x="110" y="120" fill="#ffffff" /><rect width="20" height="10" x="130" y="120" fill="#000000" /><rect width="10" height="10" x="150" y="120" fill="#4bea69" /><rect width="10" height="10" x="170" y="120" fill="#4bea69" /><rect width="20" height="10" x="180" y="120" fill="#ffffff" /><rect width="20" height="10" x="200" y="120" fill="#000000" /><rect width="10" height="10" x="220" y="120" fill="#4bea69" /><rect width="40" height="10" x="70" y="130" fill="#4bea69" /><rect width="20" height="10" x="110" y="130" fill="#ffffff" /><rect width="20" height="10" x="130" y="130" fill="#000000" /><rect width="30" height="10" x="150" y="130" fill="#4bea69" /><rect width="20" height="10" x="180" y="130" fill="#ffffff" /><rect width="20" height="10" x="200" y="130" fill="#000000" /><rect width="10" height="10" x="220" y="130" fill="#4bea69" /><rect width="10" height="10" x="70" y="140" fill="#4bea69" /><rect width="10" height="10" x="100" y="140" fill="#4bea69" /><rect width="20" height="10" x="110" y="140" fill="#ffffff" /><rect width="20" height="10" x="130" y="140" fill="#000000" /><rect width="10" height="10" x="150" y="140" fill="#4bea69" /><rect width="10" height="10" x="170" y="140" fill="#4bea69" /><rect width="20" height="10" x="180" y="140" fill="#ffffff" /><rect width="20" height="10" x="200" y="140" fill="#000000" /><rect width="10" height="10" x="220" y="140" fill="#4bea69" /><rect width="10" height="10" x="70" y="150" fill="#4bea69" /><rect width="10" height="10" x="100" y="150" fill="#4bea69" /><rect width="20" height="10" x="110" y="150" fill="#ffffff" /><rect width="20" height="10" x="130" y="150" fill="#000000" /><rect width="10" height="10" x="150" y="150" fill="#4bea69" /><rect width="10" height="10" x="170" y="150" fill="#4bea69" /><rect width="20" height="10" x="180" y="150" fill="#ffffff" /><rect width="20" height="10" x="200" y="150" fill="#000000" /><rect width="10" height="10" x="220" y="150" fill="#4bea69" /><rect width="60" height="10" x="100" y="160" fill="#4bea69" /><rect width="60" height="10" x="170" y="160" fill="#4bea69" /></svg>