<svg xmlns:xlink="http://www.w3.org/1999/xlink" width="320" height="320" viewBox="0 0 320 320" xmlns="http://www.w3.org/2000/svg" shape-rendering="crispEdges"><rect width="100%" height="100%" fill="#d5d7e1" /><rect width="140" height="10" x="90" y="210" fill="#fffdf2" /><rect width="140" height="10" x="90" y="220" fill="#fffdf2" /><rect width="140" height="10" x="90" y="230" fill="#fffdf2" /><rect width="140" height="10" x="90" y="240" fill="#fffdf2" /><rect width="20" height="10" x="90" y="250" fill="#fffdf2" /><rect width="110" height="10" x="120" y="250" fill="#fffdf2" /><rect width="20" height="10" x="90" y="260" fill="#fffdf2" /><rect width="110" height="10" x="120" y="260" fill="#fffdf2" /><rect width="20" height="10" x="90" y="270" fill="#fffdf2" /><rect width="110" height="10" x="120" y="270" fill="#fffdf2" /><rect width="20" height="10" x="90" y="280" fill="#fffdf2" /><rect width="110" height="10" x="120" y="280" fill="#fffdf2" /><rect width="20" height="10" x="90" y="290" fill="#fffdf2" /><rect width="110" height="10" x="120" y="290" fill="#fffdf2" /><rect width="20" height="10" x="90" y="300" fill="#fffdf2" /><rect width="110" height="10" x="120" y="300" fill="#fffdf2" /><rect width="20" height="10" x="90" y="310" fill="#fffdf2" /><rect width="110" height="10" x="120" y="310" fill="#fffdf2" /><rect width="10" height="10" x="120" y="210" fill="#ffc110" /><rect width="10" height="10" x="190" y="210" fill="#ffc110" /><rect width="10" height="10" x="130" y="220" fill="#ffc110" /><rect width="10" height="10" x="180" y="220" fill="#ffc110" /><rect width="10" height="10" x="140" y="230" fill="#ffc110" /><rect width="10" height="10" x="170" y="230" fill="#ffc110" /><rect width="20" height="10" x="150" y="240" fill="#ffc110" /><rect width="60" height="10" x="130" y="250" fill="#fff671" /><rect width="40" height="10" x="130" y="260" fill="#ffc110" /><rect width="20" height="10" x="170" y="260" fill="#fff671" /><rect width="40" height="10" x="130" y="270" fill="#ffc110" /><rect width="20" height="10" x="170" y="270" fill="#fff671" /><rect width="80" height="10" x="50" y="80" fill="#d6c3be" /><rect width="140" height="10" x="130" y="80" fill="#a3baed" /><rect width="20" height="10" x="30" y="90" fill="#7e5243" /><rect width="10" height="10" x="50" y="90" fill="#d6c3be" /><rect width="80" height="10" x="60" y="90" fill="#fff0ee" /><rect width="140" height="10" x="140" y="90" fill="#9cb4b8" /><rect width="10" height="10" x="280" y="90" fill="#7e5243" /><rect width="10" height="10" x="30" y="100" fill="#7e5243" /><rect width="10" height="10" x="40" y="100" fill="#000000" /><rect width="10" height="10" x="50" y="100" fill="#d6c3be" /><rect width="80" height="10" x="60" y="100" fill="#fff0ee" /><rect width="140" height="10" x="140" y="100" fill="#9cb4b8" /><rect width="10" height="10" x="280" y="100" fill="#7e5243" /><rect width="130" height="10" x="30" y="110" fill="#7e5243" /><rect width="10" height="10" x="160" y="110" fill="#5a423f" /><rect width="120" height="10" x="170" y="110" fill="#7e5243" /><rect width="10" height="10" x="30" y="120" fill="#7e5243" /><rect width="110" height="10" x="40" y="120" fill="#d6c3be" /><rect width="10" height="10" x="150" y="120" fill="#7e5243" /><rect width="10" height="10" x="160" y="120" fill="#5a423f" /><rect width="10" height="10" x="170" y="120" fill="#7e5243" /><rect width="100" height="10" x="180" y="120" fill="#2b83f6" /><rect width="10" height="10" x="280" y="120" fill="#7e5243" /><rect width="10" height="10" x="30" y="130" fill="#7e5243" /><rect width="10" height="10" x="40" y="130" fill="#d6c3be" /><rect width="50" height="10" x="50" y="130" fill="#b2958d" /><rect width="50" height="10" x="100" y="130" fill="#d6c3be" /><rect width="10" height="10" x="150" y="130" fill="#7e5243" /><rect width="10" height="10" x="160" y="130" fill="#5a423f" /><rect width="120" height="10" x="170" y="130" fill="#7e5243" /><rect width="10" height="10" x="30" y="140" fill="#7e5243" /><rect width="10" height="10" x="40" y="140" fill="#d6c3be" /><rect width="10" height="10" x="50" y="140" fill="#b2958d" /><rect width="30" height="10" x="60" y="140" fill="#d6c3be" /><rect width="10" height="10" x="90" y="140" fill="#b2958d" /><rect width="50" height="10" x="100" y="140" fill="#d6c3be" /><rect width="10" height="10" x="150" y="140" fill="#7e5243" /><rect width="10" height="10" x="160" y="140" fill="#5a423f" /><rect width="10" height="10" x="170" y="140" fill="#7e5243" /><rect width="100" height="10" x="180" y="140" fill="#ffc110" /><rect width="10" height="10" x="280" y="140" fill="#7e5243" /><rect width="10" height="10" x="30" y="150" fill="#7e5243" /><rect width="10" height="10" x="40" y="150" fill="#d6c3be" /><rect width="10" height="10" x="50" y="150" fill="#b2958d" /><rect width="30" height="10" x="60" y="150" fill="#d6c3be" /><rect width="10" height="10" x="90" y="150" fill="#b2958d" /><rect width="50" height="10" x="100" y="150" fill="#d6c3be" /><rect width="10" height="10" x="150" y="150" fill="#7e5243" /><rect width="10" height="10" x="160" y="150" fill="#5a423f" /><rect width="120" height="10" x="170" y="150" fill="#7e5243" /><rect width="10" height="10" x="30" y="160" fill="#7e5243" /><rect width="10" height="10" x="40" y="160" fill="#d6c3be" /><rect width="20" height="10" x="50" y="160" fill="#b2958d" /><rect width="10" height="10" x="70" y="160" fill="#d6c3be" /><rect width="20" height="10" x="80" y="160" fill="#b2958d" /><rect width="50" height="10" x="100" y="160" fill="#d6c3be" /><rect width="10" height="10" x="150" y="160" fill="#7e5243" /><rect width="10" height="10" x="160" y="160" fill="#5a423f" /><rect width="10" height="10" x="170" y="160" fill="#7e5243" /><rect width="100" height="10" x="180" y="160" fill="#a86f60" /><rect width="10" height="10" x="280" y="160" fill="#7e5243" /><rect width="10" height="10" x="30" y="170" fill="#7e5243" /><rect width="10" height="10" x="40" y="170" fill="#d6c3be" /><rect width="10" height="10" x="50" y="170" fill="#b2958d" /><rect width="30" height="10" x="60" y="170" fill="#d6c3be" /><rect width="10" height="10" x="90" y="170" fill="#b2958d" /><rect width="50" height="10" x="100" y="170" fill="#d6c3be" /><rect width="10" height="10" x="150" y="170" fill="#7e5243" /><rect width="10" height="10" x="160" y="170" fill="#5a423f" /><rect width="10" height="10" x="170" y="170" fill="#7e5243" /><rect width="100" height="10" x="180" y="170" fill="#a86f60" /><rect width="10" height="10" x="280" y="170" fill="#7e5243" /><rect width="10" height="10" x="30" y="180" fill="#7e5243" /><rect width="10" height="10" x="40" y="180" fill="#d6c3be" /><rect width="50" height="10" x="50" y="180" fill="#b2958d" /><rect width="10" height="10" x="100" y="180" fill="#d6c3be" /><rect width="30" height="10" x="110" y="180" fill="#d9391f" /><rect width="10" height="10" x="140" y="180" fill="#d6c3be" /><rect width="10" height="10" x="150" y="180" fill="#7e5243" /><rect width="10" height="10" x="160" y="180" fill="#5a423f" /><rect width="120" height="10" x="170" y="180" fill="#7e5243" /><rect width="10" height="10" x="30" y="190" fill="#7e5243" /><rect width="110" height="10" x="40" y="190" fill="#d6c3be" /><rect width="10" height="10" x="150" y="190" fill="#7e5243" /><rect width="10" height="10" x="160" y="190" fill="#5a423f" /><rect width="120" height="10" x="170" y="190" fill="#7e5243" /><rect width="130" height="10" x="30" y="200" fill="#7e5243" /><rect width="10" height="10" x="160" y="200" fill="#5a423f" /><rect width="120" height="10" x="170" y="200" fill="#7e5243" /><rect width="60" height="10" x="100" y="110" fill="#f3322c" /><rect width="60" height="10" x="170" y="110" fill="#f3322c" /><rect width="10" height="10" x="100" y="120" fill="#f3322c" /><rect width="20" height="10" x="110" y="120" fill="#ffffff" /><rect width="20" height="10" x="130" y="120" fill="#000000" /><rect width="10" height="10" x="150" y="120" fill="#f3322c" /><rect width="10" height="10" x="170" y="120" fill="#f3322c" /><rect width="20" height="10" x="180" y="120" fill="#ffffff" /><rect width="20" height="10" x="200" y="120" fill="#000000" /><rect width="10" height="10" x="220" y="120" fill="#f3322c" /><rect width="40" height="10" x="70" y="130" fill="#f3322c" /><rect width="20" height="10" x="110" y="130" fill="#ffffff" /><rect width="20" height="10" x="130" y="130" fill="#000000" /><rect width="30" height="10" x="150" y="130" fill="#f3322c" /><rect width="20" height="10" x="180" y="130" fill="#ffffff" /><rect width="20" height="10" x="200" y="130" fill="#000000" /><rect width="10" height="10" x="220" y="130" fill="#f3322c" /><rect width="10" height="10" x="70" y="140" fill="#f3322c" /><rect width="10" height="10" x="100" y="140" fill="#f3322c" /><rect width="20" height="10" x="110" y="140" fill="#ffffff" /><rect width="20" height="10" x="130" y="140" fill="#000000" /><rect width="10" height="10" x="150" y="140" fill="#f3322c" /><rect width="10" height="10" x="170" y="140" fill="#f3322c" /><rect width="20" height="10" x="180" y="140" fill="#ffffff" /><rect width="20" height="10" x="200" y="140" fill="#000000" /><rect width="10" height="10" x="220" y="140" fill="#f3322c" /><rect width="10" height="10" x="70" y="150" fill="#f3322c" /><rect width="10" height="10" x="100" y="150" fill="#f3322c" /><rect width="20" height="10" x="110" y="150" fill="#ffffff" /><rect width="20" height="10" x="130" y="150" fill="#000000" /><rect width="10" height="10" x="150" y="150" fill="#f3322c" /><rect width="10" height="10" x="170" y="150" fill="#f3322c" /><rect width="20" height="10" x="180" y="150" fill="#ffffff" /><rect width="20" height="10" x="200" y="150" fill="#000000" /><rect width="10" height="10" x="220" y="150" fill="#f3322c" /><rect width="60" height="10" x="100" y="160" fill="#f3322c" /><rect width="60" height="10" x="170" y="160" fill="#f3322c" /></svg>