<svg xmlns:xlink="http://www.w3.org/1999/xlink" width="320" height="320" viewBox="0 0 320 320" xmlns="http://www.w3.org/2000/svg" shape-rendering="crispEdges"><rect width="100%" height="100%" fill="#d5d7e1" /><rect width="140" height="10" x="90" y="210" fill="#9f21a0" /><rect width="140" height="10" x="90" y="220" fill="#9f21a0" /><rect width="140" height="10" x="90" y="230" fill="#9f21a0" /><rect width="140" height="10" x="90" y="240" fill="#9f21a0" /><rect width="20" height="10" x="90" y="250" fill="#9f21a0" /><rect width="110" height="10" x="120" y="250" fill="#9f21a0" /><rect width="20" height="10" x="90" y="260" fill="#9f21a0" /><rect width="110" height="10" x="120" y="260" fill="#9f21a0" /><rect width="20" height="10" x="90" y="270" fill="#9f21a0" /><rect width="110" height="10" x="120" y="270" fill="#9f21a0" /><rect width="20" height="10" x="90" y="280" fill="#9f21a0" /><rect width="110" height="10" x="120" y="280" fill="#9f21a0" /><rect width="20" height="10" x="90" y="290" fill="#9f21a0" /><rect width="110" height="10" x="120" y="290" fill="#9f21a0" /><rect width="20" height="10" x="90" y="300" fill="#9f21a0" /><rect width="110" height="10" x="120" y="300" fill="#9f21a0" /><rect width="20" height="10" x="90" y="310" fill="#9f21a0" /><rect width="110" height="10" x="120" y="310" fill="#9f21a0" /><rect width="20" height="10" x="140" y="230" fill="#ff1ad2" /><rect width="10" height="10" x="170" y="230" fill="#ff1ad2" /><rect width="10" height="10" x="140" y="240" fill="#ff1ad2" /><rect width="20" height="10" x="160" y="240" fill="#ff1ad2" /><rect width="20" height="10" x="130" y="260" fill="#ff1ad2" /><rect width="10" height="10" x="160" y="260" fill="#ff1ad2" /><rect width="10" height="10" x="180" y="260" fill="#ff1ad2" /><rect width="20" height="10" x="130" y="270" fill="#ff1ad2" /><rect width="30" height="10" x="160" y="270" fill="#ff1ad2" /><rect width="20" height="10" x="140" y="290" fill="#ff1ad2" /><rect width="10" height="10" x="170" y="290" fill="#ff1ad2" /><rect width="10" height="10" x="140" y="300" fill="#ff1ad2" /><rect width="20" height="10" x="160" y="300" fill="#ff1ad2" /><rect width="220" height="10" x="50" y="90" fill="#8dd122" /><rect width="30" height="10" x="30" y="100" fill="#8dd122" /><rect width="10" height="10" x="60" y="100" fill="#ff82ad" /><rect width="30" height="10" x="70" y="100" fill="#ff1ad2" /><rect width="10" height="10" x="100" y="100" fill="#ff82ad" /><rect width="100" height="10" x="110" y="100" fill="#8dd122" /><rect width="10" height="10" x="210" y="100" fill="#ff82ad" /><rect width="30" height="10" x="220" y="100" fill="#ff1ad2" /><rect width="10" height="10" x="250" y="100" fill="#ff82ad" /><rect width="30" height="10" x="260" y="100" fill="#8dd122" /><rect width="10" height="10" x="30" y="110" fill="#8dd122" /><rect width="10" height="10" x="40" y="110" fill="#80a72d" /><rect width="10" height="10" x="50" y="110" fill="#8dd122" /><rect width="10" height="10" x="60" y="110" fill="#ff82ad" /><rect width="30" height="10" x="70" y="110" fill="#ff1ad2" /><rect width="10" height="10" x="100" y="110" fill="#ff82ad" /><rect width="100" height="10" x="110" y="110" fill="#8dd122" /><rect width="10" height="10" x="210" y="110" fill="#ff82ad" /><rect width="30" height="10" x="220" y="110" fill="#ff1ad2" /><rect width="10" height="10" x="250" y="110" fill="#ff82ad" /><rect width="10" height="10" x="260" y="110" fill="#8dd122" /><rect width="10" height="10" x="270" y="110" fill="#80a72d" /><rect width="10" height="10" x="280" y="110" fill="#8dd122" /><rect width="20" height="10" x="20" y="120" fill="#8dd122" /><rect width="10" height="10" x="40" y="120" fill="#80a72d" /><rect width="10" height="10" x="50" y="120" fill="#8dd122" /><rect width="10" height="10" x="60" y="120" fill="#ff82ad" /><rect width="30" height="10" x="70" y="120" fill="#ff1ad2" /><rect width="10" height="10" x="100" y="120" fill="#ff82ad" /><rect width="100" height="10" x="110" y="120" fill="#8dd122" /><rect width="10" height="10" x="210" y="120" fill="#ff82ad" /><rect width="30" height="10" x="220" y="120" fill="#ff1ad2" /><rect width="10" height="10" x="250" y="120" fill="#ff82ad" /><rect width="10" height="10" x="260" y="120" fill="#8dd122" /><rect width="10" height="10" x="270" y="120" fill="#80a72d" /><rect width="20" height="10" x="280" y="120" fill="#8dd122" /><rect width="20" height="10" x="20" y="130" fill="#8dd122" /><rect width="10" height="10" x="40" y="130" fill="#80a72d" /><rect width="30" height="10" x="50" y="130" fill="#8dd122" /><rect width="10" height="10" x="80" y="130" fill="#b2958d" /><rect width="140" height="10" x="90" y="130" fill="#8dd122" /><rect width="10" height="10" x="230" y="130" fill="#b2958d" /><rect width="30" height="10" x="240" y="130" fill="#8dd122" /><rect width="10" height="10" x="270" y="130" fill="#80a72d" /><rect width="20" height="10" x="280" y="130" fill="#8dd122" /><rect width="20" height="10" x="20" y="140" fill="#8dd122" /><rect width="10" height="10" x="40" y="140" fill="#80a72d" /><rect width="30" height="10" x="50" y="140" fill="#8dd122" /><rect width="10" height="10" x="80" y="140" fill="#b2958d" /><rect width="140" height="10" x="90" y="140" fill="#8dd122" /><rect width="10" height="10" x="230" y="140" fill="#b2958d" /><rect width="30" height="10" x="240" y="140" fill="#8dd122" /><rect width="10" height="10" x="270" y="140" fill="#80a72d" /><rect width="20" height="10" x="280" y="140" fill="#8dd122" /><rect width="20" height="10" x="20" y="150" fill="#8dd122" /><rect width="10" height="10" x="40" y="150" fill="#80a72d" /><rect width="30" height="10" x="50" y="150" fill="#8dd122" /><rect width="10" height="10" x="80" y="150" fill="#b2958d" /><rect width="140" height="10" x="90" y="150" fill="#8dd122" /><rect width="10" height="10" x="230" y="150" fill="#b2958d" /><rect width="30" height="10" x="240" y="150" fill="#8dd122" /><rect width="10" height="10" x="270" y="150" fill="#80a72d" /><rect width="20" height="10" x="280" y="150" fill="#8dd122" /><rect width="20" height="10" x="20" y="160" fill="#8dd122" /><rect width="10" height="10" x="40" y="160" fill="#80a72d" /><rect width="30" height="10" x="50" y="160" fill="#8dd122" /><rect width="10" height="10" x="80" y="160" fill="#b2958d" /><rect width="140" height="10" x="90" y="160" fill="#8dd122" /><rect width="10" height="10" x="230" y="160" fill="#b2958d" /><rect width="30" height="10" x="240" y="160" fill="#8dd122" /><rect width="10" height="10" x="270" y="160" fill="#80a72d" /><rect width="20" height="10" x="280" y="160" fill="#8dd122" /><rect width="20" height="10" x="20" y="170" fill="#8dd122" /><rect width="10" height="10" x="40" y="170" fill="#80a72d" /><rect width="10" height="10" x="50" y="170" fill="#8dd122" /><rect width="10" height="10" x="60" y="170" fill="#ff82ad" /><rect width="30" height="10" x="70" y="170" fill="#ff1ad2" /><rect width="10" height="10" x="100" y="170" fill="#ff82ad" /><rect width="100" height="10" x="110" y="170" fill="#8dd122" /><rect width="10" height="10" x="210" y="170" fill="#ff82ad" /><rect width="30" height="10" x="220" y="170" fill="#ff1ad2" /><rect width="10" height="10" x="250" y="170" fill="#ff82ad" /><rect width="10" height="10" x="260" y="170" fill="#8dd122" /><rect width="10" height="10" x="270" y="170" fill="#80a72d" /><rect width="20" height="10" x="280" y="170" fill="#8dd122" /><rect width="10" height="10" x="30" y="180" fill="#8dd122" /><rect width="10" height="10" x="40" y="180" fill="#80a72d" /><rect width="10" height="10" x="50" y="180" fill="#8dd122" /><rect width="10" height="10" x="60" y="180" fill="#ff82ad" /><rect width="30" height="10" x="70" y="180" fill="#ff1ad2" /><rect width="10" height="10" x="100" y="180" fill="#ff82ad" /><rect width="50" height="10" x="110" y="180" fill="#8dd122" /><rect width="30" height="10" x="160" y="180" fill="#1f1d29" /><rect width="20" height="10" x="190" y="180" fill="#8dd122" /><rect width="10" height="10" x="210" y="180" fill="#ff82ad" /><rect width="30" height="10" x="220" y="180" fill="#ff1ad2" /><rect width="10" height="10" x="250" y="180" fill="#ff82ad" /><rect width="10" height="10" x="260" y="180" fill="#8dd122" /><rect width="10" height="10" x="270" y="180" fill="#80a72d" /><rect width="10" height="10" x="280" y="180" fill="#8dd122" /><rect width="30" height="10" x="30" y="190" fill="#8dd122" /><rect width="10" height="10" x="60" y="190" fill="#ff82ad" /><rect width="30" height="10" x="70" y="190" fill="#ff1ad2" /><rect width="10" height="10" x="100" y="190" fill="#ff82ad" /><rect width="100" height="10" x="110" y="190" fill="#8dd122" /><rect width="10" height="10" x="210" y="190" fill="#ff82ad" /><rect width="30" height="10" x="220" y="190" fill="#ff1ad2" /><rect width="10" height="10" x="250" y="190" fill="#ff82ad" /><rect width="30" height="10" x="260" y="190" fill="#8dd122" /><rect width="220" height="10" x="50" y="200" fill="#8dd122" /><rect width="60" height="10" x="100" y="110" fill="#000000" /><rect width="60" height="10" x="170" y="110" fill="#000000" /><rect width="30" height="10" x="100" y="120" fill="#000000" /><rect width="10" height="10" x="130" y="120" fill="#ff0e0e" /><rect width="20" height="10" x="140" y="120" fill="#000000" /><rect width="30" height="10" x="170" y="120" fill="#000000" /><rect width="10" height="10" x="200" y="120" fill="#ff0e0e" /><rect width="20" height="10" x="210" y="120" fill="#000000" /><rect width="160" height="10" x="70" y="130" fill="#000000" /><rect width="10" height="10" x="70" y="140" fill="#000000" /><rect width="10" height="10" x="100" y="140" fill="#000000" /><rect width="10" height="10" x="110" y="140" fill="#0adc4d" /><rect width="20" height="10" x="120" y="140" fill="#000000" /><rect width="10" height="10" x="140" y="140" fill="#1929f4" /><rect width="10" height="10" x="150" y="140" fill="#000000" /><rect width="10" height="10" x="170" y="140" fill="#000000" /><rect width="10" height="10" x="180" y="140" fill="#0adc4d" /><rect width="20" height="10" x="190" y="140" fill="#000000" /><rect width="10" height="10" x="210" y="140" fill="#1929f4" /><rect width="10" height="10" x="220" y="140" fill="#000000" /><rect width="10" height="10" x="70" y="150" fill="#000000" /><rect width="60" height="10" x="100" y="150" fill="#000000" /><rect width="60" height="10" x="170" y="150" fill="#000000" /><rect width="60" height="10" x="100" y="160" fill="#000000" /><rect width="60" height="10" x="170" y="160" fill="#000000" /></svg>