<svg xmlns:xlink="http://www.w3.org/1999/xlink" width="320" height="320" viewBox="0 0 320 320" xmlns="http://www.w3.org/2000/svg" shape-rendering="crispEdges"><rect width="100%" height="100%" fill="#d5d7e1" /><rect width="140" height="10" x="90" y="210" fill="#b87b11" /><rect width="140" height="10" x="90" y="220" fill="#b87b11" /><rect width="140" height="10" x="90" y="230" fill="#b87b11" /><rect width="140" height="10" x="90" y="240" fill="#b87b11" /><rect width="20" height="10" x="90" y="250" fill="#b87b11" /><rect width="110" height="10" x="120" y="250" fill="#b87b11" /><rect width="20" height="10" x="90" y="260" fill="#b87b11" /><rect width="110" height="10" x="120" y="260" fill="#b87b11" /><rect width="20" height="10" x="90" y="270" fill="#b87b11" /><rect width="110" height="10" x="120" y="270" fill="#b87b11" /><rect width="20" height="10" x="90" y="280" fill="#b87b11" /><rect width="110" height="10" x="120" y="280" fill="#b87b11" /><rect width="20" height="10" x="90" y="290" fill="#b87b11" /><rect width="110" height="10" x="120" y="290" fill="#b87b11" /><rect width="20" height="10" x="90" y="300" fill="#b87b11" /><rect width="110" height="10" x="120" y="300" fill="#b87b11" /><rect width="20" height="10" x="90" y="310" fill="#b87b11" /><rect width="110" height="10" x="120" y="310" fill="#b87b11" /><rect width="40" height="10" x="140" y="210" fill="#000000" /><rect width="10" height="10" x="140" y="220" fill="#e5e5de" /><rect width="20" height="10" x="150" y="220" fill="#000000" /><rect width="10" height="10" x="170" y="220" fill="#e5e5de" /><rect width="10" height="10" x="140" y="230" fill="#e5e5de" /><rect width="20" height="10" x="150" y="230" fill="#000000" /><rect width="10" height="10" x="170" y="230" fill="#e5e5de" /><rect width="10" height="10" x="140" y="240" fill="#e5e5de" /><rect width="20" height="10" x="150" y="240" fill="#000000" /><rect width="10" height="10" x="170" y="240" fill="#e5e5de" /><rect width="10" height="10" x="140" y="250" fill="#e5e5de" /><rect width="20" height="10" x="150" y="250" fill="#000000" /><rect width="10" height="10" x="170" y="250" fill="#e5e5de" /><rect width="10" height="10" x="140" y="260" fill="#e5e5de" /><rect width="20" height="10" x="150" y="260" fill="#000000" /><rect width="10" height="10" x="170" y="260" fill="#e5e5de" /><rect width="10" height="10" x="140" y="270" fill="#e5e5de" /><rect width="20" height="10" x="150" y="270" fill="#000000" /><rect width="10" height="10" x="170" y="270" fill="#e5e5de" /><rect width="10" height="10" x="140" y="280" fill="#e5e5de" /><rect width="20" height="10" x="150" y="280" fill="#000000" /><rect width="10" height="10" x="170" y="280" fill="#e5e5de" /><rect width="10" height="10" x="140" y="290" fill="#e5e5de" /><rect width="20" height="10" x="150" y="290" fill="#000000" /><rect width="10" height="10" x="170" y="290" fill="#e5e5de" /><rect width="10" height="10" x="140" y="300" fill="#e5e5de" /><rect width="20" height="10" x="150" y="300" fill="#000000" /><rect width="10" height="10" x="170" y="300" fill="#e5e5de" /><rect width="10" height="10" x="140" y="310" fill="#e5e5de" /><rect width="20" height="10" x="150" y="310" fill="#000000" /><rect width="10" height="10" x="170" y="310" fill="#e5e5de" /><rect width="120" height="10" x="100" y="30" fill="#aaa6a4" /><rect width="30" height="10" x="100" y="40" fill="#6b3f39" /><rect width="10" height="10" x="130" y="40" fill="#4d271b" /><rect width="20" height="10" x="140" y="40" fill="#6b3f39" /><rect width="10" height="10" x="160" y="40" fill="#4d271b" /><rect width="20" height="10" x="170" y="40" fill="#85634f" /><rect width="10" height="10" x="190" y="40" fill="#4d271b" /><rect width="20" height="10" x="200" y="40" fill="#85634f" /><rect width="30" height="10" x="90" y="50" fill="#6b3f39" /><rect width="10" height="10" x="120" y="50" fill="#4d271b" /><rect width="30" height="10" x="130" y="50" fill="#6b3f39" /><rect width="10" height="10" x="160" y="50" fill="#4d271b" /><rect width="30" height="10" x="170" y="50" fill="#85634f" /><rect width="10" height="10" x="200" y="50" fill="#4d271b" /><rect width="20" height="10" x="210" y="50" fill="#85634f" /><rect width="30" height="10" x="90" y="60" fill="#6b3f39" /><rect width="10" height="10" x="120" y="60" fill="#4d271b" /><rect width="30" height="10" x="130" y="60" fill="#6b3f39" /><rect width="10" height="10" x="160" y="60" fill="#4d271b" /><rect width="30" height="10" x="170" y="60" fill="#85634f" /><rect width="10" height="10" x="200" y="60" fill="#4d271b" /><rect width="20" height="10" x="210" y="60" fill="#85634f" /><rect width="160" height="10" x="80" y="70" fill="#aaa6a4" /><rect width="160" height="10" x="80" y="80" fill="#aaa6a4" /><rect width="40" height="10" x="70" y="90" fill="#6b3f39" /><rect width="10" height="10" x="110" y="90" fill="#4d271b" /><rect width="40" height="10" x="120" y="90" fill="#6b3f39" /><rect width="10" height="10" x="160" y="90" fill="#4d271b" /><rect width="40" height="10" x="170" y="90" fill="#85634f" /><rect width="10" height="10" x="210" y="90" fill="#4d271b" /><rect width="30" height="10" x="220" y="90" fill="#85634f" /><rect width="40" height="10" x="70" y="100" fill="#6b3f39" /><rect width="10" height="10" x="110" y="100" fill="#4d271b" /><rect width="40" height="10" x="120" y="100" fill="#6b3f39" /><rect width="10" height="10" x="160" y="100" fill="#4d271b" /><rect width="40" height="10" x="170" y="100" fill="#85634f" /><rect width="10" height="10" x="210" y="100" fill="#4d271b" /><rect width="30" height="10" x="220" y="100" fill="#85634f" /><rect width="40" height="10" x="70" y="110" fill="#6b3f39" /><rect width="10" height="10" x="110" y="110" fill="#4d271b" /><rect width="40" height="10" x="120" y="110" fill="#6b3f39" /><rect width="10" height="10" x="160" y="110" fill="#4d271b" /><rect width="40" height="10" x="170" y="110" fill="#85634f" /><rect width="10" height="10" x="210" y="110" fill="#4d271b" /><rect width="30" height="10" x="220" y="110" fill="#85634f" /><rect width="10" height="10" x="250" y="110" fill="#aaa6a4" /><rect width="40" height="10" x="70" y="120" fill="#6b3f39" /><rect width="10" height="10" x="110" y="120" fill="#4d271b" /><rect width="40" height="10" x="120" y="120" fill="#6b3f39" /><rect width="10" height="10" x="160" y="120" fill="#4d271b" /><rect width="40" height="10" x="170" y="120" fill="#85634f" /><rect width="10" height="10" x="210" y="120" fill="#4d271b" /><rect width="30" height="10" x="220" y="120" fill="#85634f" /><rect width="30" height="10" x="250" y="120" fill="#aaa6a4" /><rect width="40" height="10" x="70" y="130" fill="#6b3f39" /><rect width="10" height="10" x="110" y="130" fill="#4d271b" /><rect width="40" height="10" x="120" y="130" fill="#6b3f39" /><rect width="10" height="10" x="160" y="130" fill="#4d271b" /><rect width="40" height="10" x="170" y="130" fill="#85634f" /><rect width="10" height="10" x="210" y="130" fill="#4d271b" /><rect width="30" height="10" x="220" y="130" fill="#85634f" /><rect width="10" height="10" x="270" y="130" fill="#b92b3c" /><rect width="40" height="10" x="70" y="140" fill="#6b3f39" /><rect width="10" height="10" x="110" y="140" fill="#4d271b" /><rect width="40" height="10" x="120" y="140" fill="#6b3f39" /><rect width="10" height="10" x="160" y="140" fill="#4d271b" /><rect width="40" height="10" x="170" y="140" fill="#85634f" /><rect width="10" height="10" x="210" y="140" fill="#4d271b" /><rect width="30" height="10" x="220" y="140" fill="#85634f" /><rect width="10" height="10" x="270" y="140" fill="#b92b3c" /><rect width="180" height="10" x="70" y="150" fill="#aaa6a4" /><rect width="10" height="10" x="270" y="150" fill="#b92b3c" /><rect width="180" height="10" x="70" y="160" fill="#aaa6a4" /><rect width="10" height="10" x="270" y="160" fill="#b92b3c" /><rect width="30" height="10" x="80" y="170" fill="#6b3f39" /><rect width="10" height="10" x="110" y="170" fill="#4d271b" /><rect width="40" height="10" x="120" y="170" fill="#6b3f39" /><rect width="10" height="10" x="160" y="170" fill="#4d271b" /><rect width="40" height="10" x="170" y="170" fill="#85634f" /><rect width="10" height="10" x="210" y="170" fill="#4d271b" /><rect width="20" height="10" x="220" y="170" fill="#85634f" /><rect width="10" height="10" x="270" y="170" fill="#b92b3c" /><rect width="30" height="10" x="80" y="180" fill="#85634f" /><rect width="10" height="10" x="110" y="180" fill="#4d271b" /><rect width="40" height="10" x="120" y="180" fill="#85634f" /><rect width="10" height="10" x="160" y="180" fill="#4d271b" /><rect width="40" height="10" x="170" y="180" fill="#6b3f39" /><rect width="10" height="10" x="210" y="180" fill="#4d271b" /><rect width="20" height="10" x="220" y="180" fill="#6b3f39" /><rect width="10" height="10" x="270" y="180" fill="#b92b3c" /><rect width="30" height="10" x="90" y="190" fill="#6b3f39" /><rect width="10" height="10" x="120" y="190" fill="#4d271b" /><rect width="30" height="10" x="130" y="190" fill="#6b3f39" /><rect width="10" height="10" x="160" y="190" fill="#4d271b" /><rect width="30" height="10" x="170" y="190" fill="#85634f" /><rect width="10" height="10" x="200" y="190" fill="#4d271b" /><rect width="20" height="10" x="210" y="190" fill="#85634f" /><rect width="10" height="10" x="270" y="190" fill="#b92b3c" /><rect width="140" height="10" x="90" y="200" fill="#aaa6a4" /><rect width="10" height="10" x="270" y="200" fill="#b92b3c" /><rect width="10" height="10" x="270" y="210" fill="#b92b3c" /><rect width="10" height="10" x="270" y="220" fill="#b92b3c" /><rect width="10" height="10" x="270" y="230" fill="#b92b3c" /><rect width="10" height="10" x="270" y="240" fill="#b92b3c" /><rect width="10" height="10" x="270" y="250" fill="#b92b3c" /><rect width="10" height="10" x="270" y="260" fill="#b92b3c" /><rect width="10" height="10" x="270" y="270" fill="#b92b3c" /><rect width="10" height="10" x="270" y="280" fill="#b92b3c" /><rect width="10" height="10" x="270" y="290" fill="#b92b3c" /><rect width="10" height="10" x="270" y="300" fill="#b92b3c" /><rect width="10" height="10" x="270" y="310" fill="#b92b3c" /><rect width="60" height="10" x="100" y="110" fill="#4bea69" /><rect width="60" height="10" x="170" y="110" fill="#4bea69" /><rect width="10" height="10" x="100" y="120" fill="#4bea69" /><rect width="20" height="10" x="110" y="120" fill="#ffffff" /><rect width="20" height="10" x="130" y="120" fill="#000000" /><rect width="10" height="10" x="150" y="120" fill="#4bea69" /><rect width="10" height="10" x="170" y="120" fill="#4bea69" /><rect width="20" height="10" x="180" y="120" fill="#ffffff" /><rect width="20" height="10" x="200" y="120" fill="#000000" /><rect width="10" height="10" x="220" y="120" fill="#4bea69" /><rect width="40" height="10" x="70" y="130" fill="#4bea69" /><rect width="20" height="10" x="110" y="130" fill="#ffffff" /><rect width="20" height="10" x="130" y="130" fill="#000000" /><rect width="30" height="10" x="150" y="130" fill="#4bea69" /><rect width="20" height="10" x="180" y="130" fill="#ffffff" /><rect width="20" height="10" x="200" y="130" fill="#000000" /><rect width="10" height="10" x="220" y="130" fill="#4bea69" /><rect width="10" height="10" x="70" y="140" fill="#4bea69" /><rect width="10" height="10" x="100" y="140" fill="#4bea69" /><rect width="20" height="10" x="110" y="140" fill="#ffffff" /><rect width="20" height="10" x="130" y="140" fill="#000000" /><rect width="10" height="10" x="150" y="140" fill="#4bea69" /><rect width="10" height="10" x="170" y="140" fill="#4bea69" /><rect width="20" height="10" x="180" y="140" fill="#ffffff" /><rect width="20" height="10" x="200" y="140" fill="#000000" /><rect width="10" height="10" x="220" y="140" fill="#4bea69" /><rect width="10" height="10" x="70" y="150" fill="#4bea69" /><rect width="10" height="10" x="100" y="150" fill="#4bea69" /><rect width="20" height="10" x="110" y="150" fill="#ffffff" /><rect width="20" height="10" x="130" y="150" fill="#000000" /><rect width="10" height="10" x="150" y="150" fill="#4bea69" /><rect width="10" height="10" x="170" y="150" fill="#4bea69" /><rect width="20" height="10" x="180" y="150" fill="#ffffff" /><rect width="20" height="10" x="200" y="150" fill="#000000" /><rect width="10" height="10" x="220" y="150" fill="#4bea69" /><rect width="60" height="10" x="100" y="160" fill="#4bea69" /><rect width="60" height="10" x="170" y="160" fill="#4bea69" /></svg>