<svg xmlns:xlink="http://www.w3.org/1999/xlink" width="320" height="320" viewBox="0 0 320 320" xmlns="http://www.w3.org/2000/svg" shape-rendering="crispEdges"><rect width="100%" height="100%" fill="#d5d7e1" /><rect width="140" height="10" x="90" y="210" fill="#b9185c" /><rect width="140" height="10" x="90" y="220" fill="#b9185c" /><rect width="140" height="10" x="90" y="230" fill="#b9185c" /><rect width="140" height="10" x="90" y="240" fill="#b9185c" /><rect width="20" height="10" x="90" y="250" fill="#b9185c" /><rect width="110" height="10" x="120" y="250" fill="#b9185c" /><rect width="20" height="10" x="90" y="260" fill="#b9185c" /><rect width="110" height="10" x="120" y="260" fill="#b9185c" /><rect width="20" height="10" x="90" y="270" fill="#b9185c" /><rect width="110" height="10" x="120" y="270" fill="#b9185c" /><rect width="20" height="10" x="90" y="280" fill="#b9185c" /><rect width="110" height="10" x="120" y="280" fill="#b9185c" /><rect width="20" height="10" x="90" y="290" fill="#b9185c" /><rect width="110" height="10" x="120" y="290" fill="#b9185c" /><rect width="20" height="10" x="90" y="300" fill="#b9185c" /><rect width="110" height="10" x="120" y="300" fill="#b9185c" /><rect width="20" height="10" x="90" y="310" fill="#b9185c" /><rect width="110" height="10" x="120" y="310" fill="#b9185c" /><rect width="30" height="10" x="160" y="230" fill="#fff449" /><rect width="10" height="10" x="150" y="240" fill="#fff449" /><rect width="10" height="10" x="190" y="240" fill="#fff449" /><rect width="30" height="10" x="140" y="250" fill="#fff449" /><rect width="10" height="10" x="190" y="250" fill="#fff449" /><rect width="10" height="10" x="130" y="260" fill="#fff449" /><rect width="10" height="10" x="150" y="260" fill="#fff449" /><rect width="10" height="10" x="170" y="260" fill="#fff449" /><rect width="10" height="10" x="190" y="260" fill="#fff449" /><rect width="10" height="10" x="130" y="270" fill="#fff449" /><rect width="30" height="10" x="160" y="270" fill="#fff449" /><rect width="10" height="10" x="130" y="280" fill="#fff449" /><rect width="10" height="10" x="170" y="280" fill="#fff449" /><rect width="30" height="10" x="140" y="290" fill="#fff449" /><rect width="40" height="10" x="90" y="50" fill="#6f597a" /><rect width="90" height="10" x="80" y="60" fill="#6f597a" /><rect width="140" height="10" x="70" y="70" fill="#6f597a" /><rect width="150" height="10" x="80" y="80" fill="#6f597a" /><rect width="160" height="10" x="70" y="90" fill="#6f597a" /><rect width="150" height="10" x="80" y="100" fill="#6f597a" /><rect width="150" height="10" x="80" y="110" fill="#6f597a" /><rect width="10" height="10" x="80" y="120" fill="#6f597a" /><rect width="140" height="10" x="90" y="120" fill="#d4b7b2" /><rect width="10" height="10" x="80" y="130" fill="#6f597a" /><rect width="140" height="10" x="90" y="130" fill="#d4b7b2" /><rect width="10" height="10" x="80" y="140" fill="#6f597a" /><rect width="140" height="10" x="90" y="140" fill="#d4b7b2" /><rect width="10" height="10" x="80" y="150" fill="#6f597a" /><rect width="140" height="10" x="90" y="150" fill="#d4b7b2" /><rect width="30" height="10" x="60" y="160" fill="#6f597a" /><rect width="140" height="10" x="90" y="160" fill="#d4b7b2" /><rect width="10" height="10" x="60" y="170" fill="#6f597a" /><rect width="10" height="10" x="70" y="170" fill="#d4b7b2" /><rect width="10" height="10" x="80" y="170" fill="#6f597a" /><rect width="150" height="10" x="90" y="170" fill="#d4b7b2" /><rect width="10" height="10" x="60" y="180" fill="#6f597a" /><rect width="10" height="10" x="70" y="180" fill="#d4b7b2" /><rect width="30" height="10" x="80" y="180" fill="#6f597a" /><rect width="130" height="10" x="110" y="180" fill="#d18687" /><rect width="10" height="10" x="240" y="180" fill="#6f597a" /><rect width="50" height="10" x="60" y="190" fill="#6f597a" /><rect width="130" height="10" x="110" y="190" fill="#d4b7b2" /><rect width="10" height="10" x="240" y="190" fill="#6f597a" /><rect width="170" height="10" x="80" y="200" fill="#6f597a" /><rect width="60" height="10" x="100" y="110" fill="#d7d3cd" /><rect width="60" height="10" x="170" y="110" fill="#d7d3cd" /><rect width="10" height="10" x="100" y="120" fill="#d7d3cd" /><rect width="20" height="10" x="110" y="120" fill="#fdf8ff" /><rect width="20" height="10" x="130" y="120" fill="#000000" /><rect width="10" height="10" x="150" y="120" fill="#d7d3cd" /><rect width="10" height="10" x="170" y="120" fill="#d7d3cd" /><rect width="20" height="10" x="180" y="120" fill="#fdf8ff" /><rect width="20" height="10" x="200" y="120" fill="#000000" /><rect width="10" height="10" x="220" y="120" fill="#d7d3cd" /><rect width="40" height="10" x="70" y="130" fill="#d7d3cd" /><rect width="20" height="10" x="110" y="130" fill="#fdf8ff" /><rect width="20" height="10" x="130" y="130" fill="#000000" /><rect width="30" height="10" x="150" y="130" fill="#d7d3cd" /><rect width="20" height="10" x="180" y="130" fill="#fdf8ff" /><rect width="20" height="10" x="200" y="130" fill="#000000" /><rect width="10" height="10" x="220" y="130" fill="#d7d3cd" /><rect width="10" height="10" x="70" y="140" fill="#d7d3cd" /><rect width="10" height="10" x="100" y="140" fill="#d7d3cd" /><rect width="20" height="10" x="110" y="140" fill="#fdf8ff" /><rect width="20" height="10" x="130" y="140" fill="#000000" /><rect width="10" height="10" x="150" y="140" fill="#d7d3cd" /><rect width="10" height="10" x="170" y="140" fill="#d7d3cd" /><rect width="20" height="10" x="180" y="140" fill="#fdf8ff" /><rect width="20" height="10" x="200" y="140" fill="#000000" /><rect width="10" height="10" x="220" y="140" fill="#d7d3cd" /><rect width="10" height="10" x="70" y="150" fill="#d7d3cd" /><rect width="10" height="10" x="100" y="150" fill="#d7d3cd" /><rect width="20" height="10" x="110" y="150" fill="#fdf8ff" /><rect width="20" height="10" x="130" y="150" fill="#000000" /><rect width="10" height="10" x="150" y="150" fill="#d7d3cd" /><rect width="10" height="10" x="170" y="150" fill="#d7d3cd" /><rect width="20" height="10" x="180" y="150" fill="#fdf8ff" /><rect width="20" height="10" x="200" y="150" fill="#000000" /><rect width="10" height="10" x="220" y="150" fill="#d7d3cd" /><rect width="60" height="10" x="100" y="160" fill="#d7d3cd" /><rect width="60" height="10" x="170" y="160" fill="#d7d3cd" /></svg>