<svg xmlns:xlink="http://www.w3.org/1999/xlink" width="320" height="320" viewBox="0 0 320 320" xmlns="http://www.w3.org/2000/svg" shape-rendering="crispEdges"><rect width="100%" height="100%" fill="#d5d7e1" /><rect width="140" height="10" x="90" y="210" fill="#b9185c" /><rect width="140" height="10" x="90" y="220" fill="#b9185c" /><rect width="140" height="10" x="90" y="230" fill="#b9185c" /><rect width="140" height="10" x="90" y="240" fill="#b9185c" /><rect width="20" height="10" x="90" y="250" fill="#b9185c" /><rect width="110" height="10" x="120" y="250" fill="#b9185c" /><rect width="20" height="10" x="90" y="260" fill="#b9185c" /><rect width="110" height="10" x="120" y="260" fill="#b9185c" /><rect width="20" height="10" x="90" y="270" fill="#b9185c" /><rect width="110" height="10" x="120" y="270" fill="#b9185c" /><rect width="20" height="10" x="90" y="280" fill="#b9185c" /><rect width="110" height="10" x="120" y="280" fill="#b9185c" /><rect width="20" height="10" x="90" y="290" fill="#b9185c" /><rect width="110" height="10" x="120" y="290" fill="#b9185c" /><rect width="20" height="10" x="90" y="300" fill="#b9185c" /><rect width="110" height="10" x="120" y="300" fill="#b9185c" /><rect width="20" height="10" x="90" y="310" fill="#b9185c" /><rect width="110" height="10" x="120" y="310" fill="#b9185c" /><rect width="20" height="10" x="130" y="230" fill="#068940" /><rect width="30" height="10" x="160" y="230" fill="#068940" /><rect width="30" height="10" x="140" y="240" fill="#068940" /><rect width="20" height="10" x="180" y="240" fill="#068940" /><rect width="20" height="10" x="130" y="250" fill="#068940" /><rect width="10" height="10" x="180" y="250" fill="#068940" /><rect width="30" height="10" x="160" y="260" fill="#068940" /><rect width="20" height="10" x="140" y="270" fill="#068940" /><rect width="10" height="10" x="130" y="280" fill="#068940" /><rect width="20" height="10" x="170" y="280" fill="#068940" /><rect width="30" height="10" x="140" y="290" fill="#068940" /><rect width="10" height="10" x="190" y="290" fill="#068940" /><rect width="10" height="10" x="150" y="300" fill="#068940" /><rect width="40" height="10" x="90" y="30" fill="#068940" /><rect width="80" height="10" x="70" y="40" fill="#068940" /><rect width="30" height="10" x="60" y="50" fill="#068940" /><rect width="10" height="10" x="90" y="50" fill="#8dd122" /><rect width="60" height="10" x="100" y="50" fill="#068940" /><rect width="30" height="10" x="60" y="60" fill="#068940" /><rect width="10" height="10" x="90" y="60" fill="#0b5027" /><rect width="30" height="10" x="100" y="60" fill="#068940" /><rect width="10" height="10" x="130" y="60" fill="#8dd122" /><rect width="20" height="10" x="140" y="60" fill="#068940" /><rect width="20" height="10" x="50" y="70" fill="#068940" /><rect width="10" height="10" x="70" y="70" fill="#8dd122" /><rect width="60" height="10" x="80" y="70" fill="#068940" /><rect width="10" height="10" x="140" y="70" fill="#0b5027" /><rect width="20" height="10" x="150" y="70" fill="#068940" /><rect width="20" height="10" x="50" y="80" fill="#068940" /><rect width="10" height="10" x="70" y="80" fill="#0b5027" /><rect width="30" height="10" x="80" y="80" fill="#068940" /><rect width="10" height="10" x="110" y="80" fill="#8dd122" /><rect width="70" height="10" x="120" y="80" fill="#068940" /><rect width="60" height="10" x="50" y="90" fill="#068940" /><rect width="10" height="10" x="110" y="90" fill="#0b5027" /><rect width="40" height="10" x="120" y="90" fill="#068940" /><rect width="10" height="10" x="160" y="90" fill="#8dd122" /><rect width="10" height="10" x="170" y="90" fill="#0b5027" /><rect width="50" height="10" x="180" y="90" fill="#068940" /><rect width="10" height="10" x="50" y="100" fill="#068940" /><rect width="10" height="10" x="60" y="100" fill="#8dd122" /><rect width="180" height="10" x="70" y="100" fill="#068940" /><rect width="10" height="10" x="50" y="110" fill="#068940" /><rect width="10" height="10" x="60" y="110" fill="#0b5027" /><rect width="190" height="10" x="70" y="110" fill="#068940" /><rect width="210" height="10" x="50" y="120" fill="#068940" /><rect width="220" height="10" x="50" y="130" fill="#068940" /><rect width="210" height="10" x="60" y="140" fill="#068940" /><rect width="190" height="10" x="60" y="150" fill="#068940" /><rect width="10" height="10" x="250" y="150" fill="#8dd122" /><rect width="10" height="10" x="260" y="150" fill="#068940" /><rect width="20" height="10" x="60" y="160" fill="#068940" /><rect width="10" height="10" x="80" y="160" fill="#8dd122" /><rect width="160" height="10" x="90" y="160" fill="#068940" /><rect width="10" height="10" x="250" y="160" fill="#0b5027" /><rect width="10" height="10" x="260" y="160" fill="#068940" /><rect width="10" height="10" x="70" y="170" fill="#068940" /><rect width="10" height="10" x="80" y="170" fill="#0b5027" /><rect width="180" height="10" x="90" y="170" fill="#068940" /><rect width="110" height="10" x="70" y="180" fill="#068940" /><rect width="10" height="10" x="180" y="180" fill="#000000" /><rect width="20" height="10" x="190" y="180" fill="#8dd122" /><rect width="10" height="10" x="210" y="180" fill="#0b5027" /><rect width="40" height="10" x="220" y="180" fill="#068940" /><rect width="30" height="10" x="80" y="190" fill="#068940" /><rect width="10" height="10" x="110" y="190" fill="#8dd122" /><rect width="10" height="10" x="120" y="190" fill="#0b5027" /><rect width="10" height="10" x="130" y="190" fill="#068940" /><rect width="10" height="10" x="140" y="190" fill="#8dd122" /><rect width="40" height="10" x="150" y="190" fill="#068940" /><rect width="20" height="10" x="190" y="190" fill="#0b5027" /><rect width="50" height="10" x="210" y="190" fill="#068940" /><rect width="50" height="10" x="100" y="200" fill="#068940" /><rect width="10" height="10" x="150" y="200" fill="#0b5027" /><rect width="90" height="10" x="160" y="200" fill="#068940" /><rect width="110" height="10" x="120" y="210" fill="#068940" /><rect width="60" height="10" x="100" y="110" fill="#ff638d" /><rect width="60" height="10" x="170" y="110" fill="#ff638d" /><rect width="10" height="10" x="100" y="120" fill="#ff638d" /><rect width="20" height="10" x="110" y="120" fill="#ffffff" /><rect width="20" height="10" x="130" y="120" fill="#000000" /><rect width="10" height="10" x="150" y="120" fill="#ff638d" /><rect width="10" height="10" x="170" y="120" fill="#ff638d" /><rect width="20" height="10" x="180" y="120" fill="#ffffff" /><rect width="20" height="10" x="200" y="120" fill="#000000" /><rect width="10" height="10" x="220" y="120" fill="#ff638d" /><rect width="40" height="10" x="70" y="130" fill="#ff638d" /><rect width="20" height="10" x="110" y="130" fill="#ffffff" /><rect width="20" height="10" x="130" y="130" fill="#000000" /><rect width="30" height="10" x="150" y="130" fill="#ff638d" /><rect width="20" height="10" x="180" y="130" fill="#ffffff" /><rect width="20" height="10" x="200" y="130" fill="#000000" /><rect width="10" height="10" x="220" y="130" fill="#ff638d" /><rect width="40" height="10" x="70" y="140" fill="#ff638d" /><rect width="20" height="10" x="110" y="140" fill="#ffffff" /><rect width="20" height="10" x="130" y="140" fill="#000000" /><rect width="30" height="10" x="150" y="140" fill="#ff638d" /><rect width="20" height="10" x="180" y="140" fill="#ffffff" /><rect width="20" height="10" x="200" y="140" fill="#000000" /><rect width="10" height="10" x="220" y="140" fill="#ff638d" /><rect width="10" height="10" x="70" y="150" fill="#ff638d" /><rect width="10" height="10" x="100" y="150" fill="#ff638d" /><rect width="20" height="10" x="110" y="150" fill="#ffffff" /><rect width="20" height="10" x="130" y="150" fill="#000000" /><rect width="10" height="10" x="150" y="150" fill="#ff638d" /><rect width="10" height="10" x="170" y="150" fill="#ff638d" /><rect width="20" height="10" x="180" y="150" fill="#ffffff" /><rect width="20" height="10" x="200" y="150" fill="#000000" /><rect width="10" height="10" x="220" y="150" fill="#ff638d" /><rect width="60" height="10" x="100" y="160" fill="#ff638d" /><rect width="60" height="10" x="170" y="160" fill="#ff638d" /></svg>