<svg xmlns:xlink="http://www.w3.org/1999/xlink" width="320" height="320" viewBox="0 0 320 320" xmlns="http://www.w3.org/2000/svg" shape-rendering="crispEdges"><rect width="100%" height="100%" fill="#e1d7d5" /><rect width="140" height="10" x="90" y="210" fill="#fffdf2" /><rect width="140" height="10" x="90" y="220" fill="#fffdf2" /><rect width="140" height="10" x="90" y="230" fill="#fffdf2" /><rect width="140" height="10" x="90" y="240" fill="#fffdf2" /><rect width="20" height="10" x="90" y="250" fill="#fffdf2" /><rect width="110" height="10" x="120" y="250" fill="#fffdf2" /><rect width="20" height="10" x="90" y="260" fill="#fffdf2" /><rect width="110" height="10" x="120" y="260" fill="#fffdf2" /><rect width="20" height="10" x="90" y="270" fill="#fffdf2" /><rect width="110" height="10" x="120" y="270" fill="#fffdf2" /><rect width="20" height="10" x="90" y="280" fill="#fffdf2" /><rect width="110" height="10" x="120" y="280" fill="#fffdf2" /><rect width="20" height="10" x="90" y="290" fill="#fffdf2" /><rect width="110" height="10" x="120" y="290" fill="#fffdf2" /><rect width="20" height="10" x="90" y="300" fill="#fffdf2" /><rect width="110" height="10" x="120" y="300" fill="#fffdf2" /><rect width="20" height="10" x="90" y="310" fill="#fffdf2" /><rect width="110" height="10" x="120" y="310" fill="#fffdf2" /><rect width="10" height="10" x="160" y="240" fill="#0385eb" /><rect width="10" height="10" x="160" y="250" fill="#0385eb" /><rect width="10" height="10" x="150" y="260" fill="#0385eb" /><rect width="10" height="10" x="160" y="260" fill="#00499c" /><rect width="10" height="10" x="170" y="260" fill="#0385eb" /><rect width="50" height="10" x="140" y="270" fill="#00499c" /><rect width="30" height="10" x="150" y="280" fill="#0385eb" /><rect width="10" height="10" x="160" y="290" fill="#0385eb" /><rect width="30" height="10" x="40" y="50" fill="#cd916d" /><rect width="20" height="10" x="80" y="50" fill="#cd916d" /><rect width="20" height="10" x="220" y="50" fill="#cd916d" /><rect width="30" height="10" x="250" y="50" fill="#cd916d" /><rect width="30" height="10" x="40" y="60" fill="#cd916d" /><rect width="20" height="10" x="80" y="60" fill="#cd916d" /><rect width="120" height="10" x="100" y="60" fill="#4d271b" /><rect width="20" height="10" x="220" y="60" fill="#cd916d" /><rect width="30" height="10" x="250" y="60" fill="#cd916d" /><rect width="30" height="10" x="40" y="70" fill="#cd916d" /><rect width="20" height="10" x="80" y="70" fill="#cd916d" /><rect width="120" height="10" x="100" y="70" fill="#4d271b" /><rect width="20" height="10" x="220" y="70" fill="#cd916d" /><rect width="30" height="10" x="250" y="70" fill="#cd916d" /><rect width="30" height="10" x="40" y="80" fill="#cd916d" /><rect width="20" height="10" x="80" y="80" fill="#cd916d" /><rect width="120" height="10" x="100" y="80" fill="#4d271b" /><rect width="20" height="10" x="220" y="80" fill="#cd916d" /><rect width="30" height="10" x="250" y="80" fill="#cd916d" /><rect width="70" height="10" x="40" y="90" fill="#cd916d" /><rect width="110" height="10" x="110" y="90" fill="#4d271b" /><rect width="60" height="10" x="220" y="90" fill="#cd916d" /><rect width="70" height="10" x="40" y="100" fill="#cd916d" /><rect width="110" height="10" x="110" y="100" fill="#4d271b" /><rect width="60" height="10" x="220" y="100" fill="#cd916d" /><rect width="70" height="10" x="40" y="110" fill="#cd916d" /><rect width="110" height="10" x="110" y="110" fill="#4d271b" /><rect width="60" height="10" x="220" y="110" fill="#cd916d" /><rect width="140" height="10" x="80" y="120" fill="#4d271b" /><rect width="150" height="10" x="80" y="130" fill="#4d271b" /><rect width="150" height="10" x="80" y="140" fill="#4d271b" /><rect width="150" height="10" x="80" y="150" fill="#4d271b" /><rect width="50" height="10" x="80" y="160" fill="#4d271b" /><rect width="130" height="10" x="130" y="160" fill="#a86f60" /><rect width="50" height="10" x="80" y="170" fill="#4d271b" /><rect width="130" height="10" x="130" y="170" fill="#a86f60" /><rect width="50" height="10" x="80" y="180" fill="#4d271b" /><rect width="60" height="10" x="130" y="180" fill="#a86f60" /><rect width="20" height="10" x="190" y="180" fill="#6b3f39" /><rect width="20" height="10" x="210" y="180" fill="#a86f60" /><rect width="20" height="10" x="230" y="180" fill="#6b3f39" /><rect width="10" height="10" x="250" y="180" fill="#a86f60" /><rect width="50" height="10" x="80" y="190" fill="#4d271b" /><rect width="130" height="10" x="130" y="190" fill="#a86f60" /><rect width="50" height="10" x="80" y="200" fill="#4d271b" /><rect width="10" height="10" x="130" y="200" fill="#a86f60" /><rect width="110" height="10" x="140" y="200" fill="#6b3f39" /><rect width="10" height="10" x="250" y="200" fill="#a86f60" /><rect width="130" height="10" x="130" y="210" fill="#a86f60" /><rect width="60" height="10" x="100" y="110" fill="#4bea69" /><rect width="60" height="10" x="170" y="110" fill="#4bea69" /><rect width="10" height="10" x="100" y="120" fill="#4bea69" /><rect width="20" height="10" x="110" y="120" fill="#ffffff" /><rect width="20" height="10" x="130" y="120" fill="#000000" /><rect width="10" height="10" x="150" y="120" fill="#4bea69" /><rect width="10" height="10" x="170" y="120" fill="#4bea69" /><rect width="20" height="10" x="180" y="120" fill="#ffffff" /><rect width="20" height="10" x="200" y="120" fill="#000000" /><rect width="10" height="10" x="220" y="120" fill="#4bea69" /><rect width="40" height="10" x="70" y="130" fill="#4bea69" /><rect width="20" height="10" x="110" y="130" fill="#ffffff" /><rect width="20" height="10" x="130" y="130" fill="#000000" /><rect width="30" height="10" x="150" y="130" fill="#4bea69" /><rect width="20" height="10" x="180" y="130" fill="#ffffff" /><rect width="20" height="10" x="200" y="130" fill="#000000" /><rect width="10" height="10" x="220" y="130" fill="#4bea69" /><rect width="10" height="10" x="70" y="140" fill="#4bea69" /><rect width="10" height="10" x="100" y="140" fill="#4bea69" /><rect width="20" height="10" x="110" y="140" fill="#ffffff" /><rect width="20" height="10" x="130" y="140" fill="#000000" /><rect width="10" height="10" x="150" y="140" fill="#4bea69" /><rect width="10" height="10" x="170" y="140" fill="#4bea69" /><rect width="20" height="10" x="180" y="140" fill="#ffffff" /><rect width="20" height="10" x="200" y="140" fill="#000000" /><rect width="10" height="10" x="220" y="140" fill="#4bea69" /><rect width="10" height="10" x="70" y="150" fill="#4bea69" /><rect width="10" height="10" x="100" y="150" fill="#4bea69" /><rect width="20" height="10" x="110" y="150" fill="#ffffff" /><rect width="20" height="10" x="130" y="150" fill="#000000" /><rect width="10" height="10" x="150" y="150" fill="#4bea69" /><rect width="10" height="10" x="170" y="150" fill="#4bea69" /><rect width="20" height="10" x="180" y="150" fill="#ffffff" /><rect width="20" height="10" x="200" y="150" fill="#000000" /><rect width="10" height="10" x="220" y="150" fill="#4bea69" /><rect width="60" height="10" x="100" y="160" fill="#4bea69" /><rect width="60" height="10" x="170" y="160" fill="#4bea69" /></svg>