<svg xmlns:xlink="http://www.w3.org/1999/xlink" width="320" height="320" viewBox="0 0 320 320" xmlns="http://www.w3.org/2000/svg" shape-rendering="crispEdges"><rect width="100%" height="100%" fill="#d5d7e1" /><rect width="140" height="10" x="90" y="210" fill="#5a65fa" /><rect width="140" height="10" x="90" y="220" fill="#5a65fa" /><rect width="140" height="10" x="90" y="230" fill="#5a65fa" /><rect width="140" height="10" x="90" y="240" fill="#5a65fa" /><rect width="20" height="10" x="90" y="250" fill="#5a65fa" /><rect width="110" height="10" x="120" y="250" fill="#5a65fa" /><rect width="20" height="10" x="90" y="260" fill="#5a65fa" /><rect width="110" height="10" x="120" y="260" fill="#5a65fa" /><rect width="20" height="10" x="90" y="270" fill="#5a65fa" /><rect width="110" height="10" x="120" y="270" fill="#5a65fa" /><rect width="20" height="10" x="90" y="280" fill="#5a65fa" /><rect width="110" height="10" x="120" y="280" fill="#5a65fa" /><rect width="20" height="10" x="90" y="290" fill="#5a65fa" /><rect width="110" height="10" x="120" y="290" fill="#5a65fa" /><rect width="20" height="10" x="90" y="300" fill="#5a65fa" /><rect width="110" height="10" x="120" y="300" fill="#5a65fa" /><rect width="20" height="10" x="90" y="310" fill="#5a65fa" /><rect width="110" height="10" x="120" y="310" fill="#5a65fa" /><rect width="40" height="10" x="140" y="210" fill="#ab36be" /><rect width="10" height="10" x="140" y="220" fill="#e5e5de" /><rect width="20" height="10" x="150" y="220" fill="#ab36be" /><rect width="10" height="10" x="170" y="220" fill="#e5e5de" /><rect width="10" height="10" x="140" y="230" fill="#e5e5de" /><rect width="20" height="10" x="150" y="230" fill="#ab36be" /><rect width="10" height="10" x="170" y="230" fill="#e5e5de" /><rect width="10" height="10" x="140" y="240" fill="#e5e5de" /><rect width="20" height="10" x="150" y="240" fill="#ab36be" /><rect width="10" height="10" x="170" y="240" fill="#e5e5de" /><rect width="10" height="10" x="140" y="250" fill="#e5e5de" /><rect width="20" height="10" x="150" y="250" fill="#ab36be" /><rect width="10" height="10" x="170" y="250" fill="#e5e5de" /><rect width="10" height="10" x="140" y="260" fill="#e5e5de" /><rect width="20" height="10" x="150" y="260" fill="#ab36be" /><rect width="10" height="10" x="170" y="260" fill="#e5e5de" /><rect width="10" height="10" x="140" y="270" fill="#e5e5de" /><rect width="20" height="10" x="150" y="270" fill="#ab36be" /><rect width="10" height="10" x="170" y="270" fill="#e5e5de" /><rect width="10" height="10" x="140" y="280" fill="#e5e5de" /><rect width="20" height="10" x="150" y="280" fill="#ab36be" /><rect width="10" height="10" x="170" y="280" fill="#e5e5de" /><rect width="10" height="10" x="140" y="290" fill="#e5e5de" /><rect width="20" height="10" x="150" y="290" fill="#ab36be" /><rect width="10" height="10" x="170" y="290" fill="#e5e5de" /><rect width="10" height="10" x="140" y="300" fill="#e5e5de" /><rect width="20" height="10" x="150" y="300" fill="#ab36be" /><rect width="10" height="10" x="170" y="300" fill="#e5e5de" /><rect width="10" height="10" x="140" y="310" fill="#e5e5de" /><rect width="20" height="10" x="150" y="310" fill="#ab36be" /><rect width="10" height="10" x="170" y="310" fill="#e5e5de" /><rect width="30" height="10" x="90" y="30" fill="#ffffff" /><rect width="50" height="10" x="80" y="40" fill="#ffffff" /><rect width="10" height="10" x="70" y="50" fill="#f78a18" /><rect width="50" height="10" x="80" y="50" fill="#ffffff" /><rect width="20" height="10" x="210" y="50" fill="#000000" /><rect width="20" height="10" x="240" y="50" fill="#000000" /><rect width="20" height="10" x="60" y="60" fill="#f78a18" /><rect width="50" height="10" x="80" y="60" fill="#ffffff" /><rect width="20" height="10" x="210" y="60" fill="#f78a18" /><rect width="20" height="10" x="240" y="60" fill="#f78a18" /><rect width="40" height="10" x="50" y="70" fill="#f78a18" /><rect width="30" height="10" x="90" y="70" fill="#ffffff" /><rect width="60" height="10" x="210" y="70" fill="#f78a18" /><rect width="70" height="10" x="40" y="80" fill="#f78a18" /><rect width="20" height="10" x="150" y="80" fill="#000000" /><rect width="60" height="10" x="170" y="80" fill="#f78a18" /><rect width="10" height="10" x="230" y="80" fill="#ae3208" /><rect width="10" height="10" x="240" y="80" fill="#f78a18" /><rect width="10" height="10" x="250" y="80" fill="#ae3208" /><rect width="20" height="10" x="260" y="80" fill="#f78a18" /><rect width="50" height="10" x="40" y="90" fill="#f78a18" /><rect width="60" height="10" x="160" y="90" fill="#ffffff" /><rect width="60" height="10" x="220" y="90" fill="#f78a18" /><rect width="40" height="10" x="40" y="100" fill="#f78a18" /><rect width="110" height="10" x="170" y="100" fill="#ffffff" /><rect width="50" height="10" x="40" y="110" fill="#f78a18" /><rect width="100" height="10" x="180" y="110" fill="#ffffff" /><rect width="50" height="10" x="50" y="120" fill="#f78a18" /><rect width="90" height="10" x="190" y="120" fill="#ffffff" /><rect width="40" height="10" x="60" y="130" fill="#f78a18" /><rect width="80" height="10" x="200" y="130" fill="#ffffff" /><rect width="150" height="10" x="80" y="140" fill="#f78a18" /><rect width="50" height="10" x="230" y="140" fill="#ffffff" /><rect width="160" height="10" x="80" y="150" fill="#f78a18" /><rect width="40" height="10" x="240" y="150" fill="#ffffff" /><rect width="170" height="10" x="80" y="160" fill="#f78a18" /><rect width="30" height="10" x="250" y="160" fill="#ffffff" /><rect width="180" height="10" x="80" y="170" fill="#f78a18" /><rect width="20" height="10" x="260" y="170" fill="#ffffff" /><rect width="50" height="10" x="80" y="180" fill="#f78a18" /><rect width="70" height="10" x="130" y="180" fill="#ffffff" /><rect width="70" height="10" x="200" y="180" fill="#f78a18" /><rect width="10" height="10" x="270" y="180" fill="#ffffff" /><rect width="50" height="10" x="80" y="190" fill="#f78a18" /><rect width="60" height="10" x="130" y="190" fill="#000000" /><rect width="20" height="10" x="190" y="190" fill="#ffffff" /><rect width="60" height="10" x="210" y="190" fill="#f78a18" /><rect width="50" height="10" x="80" y="200" fill="#f78a18" /><rect width="90" height="10" x="130" y="200" fill="#ffffff" /><rect width="40" height="10" x="220" y="200" fill="#f78a18" /><rect width="10" height="10" x="80" y="210" fill="#f78a18" /><rect width="20" height="10" x="230" y="210" fill="#f78a18" /><rect width="40" height="10" x="50" y="220" fill="#f78a18" /><rect width="10" height="10" x="230" y="220" fill="#f78a18" /><rect width="10" height="10" x="50" y="230" fill="#f78a18" /><rect width="20" height="10" x="230" y="230" fill="#f78a18" /><rect width="10" height="10" x="50" y="240" fill="#000000" /><rect width="20" height="10" x="240" y="240" fill="#f78a18" /><rect width="20" height="10" x="260" y="240" fill="#000000" /><rect width="10" height="10" x="50" y="250" fill="#000000" /><rect width="60" height="10" x="100" y="110" fill="#000000" /><rect width="60" height="10" x="170" y="110" fill="#000000" /><rect width="10" height="10" x="100" y="120" fill="#000000" /><rect width="20" height="10" x="110" y="120" fill="#ffffff" /><rect width="30" height="10" x="130" y="120" fill="#000000" /><rect width="10" height="10" x="170" y="120" fill="#000000" /><rect width="20" height="10" x="180" y="120" fill="#ffffff" /><rect width="30" height="10" x="200" y="120" fill="#000000" /><rect width="40" height="10" x="70" y="130" fill="#000000" /><rect width="20" height="10" x="110" y="130" fill="#ffffff" /><rect width="50" height="10" x="130" y="130" fill="#000000" /><rect width="20" height="10" x="180" y="130" fill="#ffffff" /><rect width="30" height="10" x="200" y="130" fill="#000000" /><rect width="10" height="10" x="70" y="140" fill="#000000" /><rect width="10" height="10" x="100" y="140" fill="#000000" /><rect width="20" height="10" x="110" y="140" fill="#ffffff" /><rect width="30" height="10" x="130" y="140" fill="#000000" /><rect width="10" height="10" x="170" y="140" fill="#000000" /><rect width="20" height="10" x="180" y="140" fill="#ffffff" /><rect width="30" height="10" x="200" y="140" fill="#000000" /><rect width="10" height="10" x="70" y="150" fill="#000000" /><rect width="10" height="10" x="100" y="150" fill="#000000" /><rect width="20" height="10" x="110" y="150" fill="#ffffff" /><rect width="30" height="10" x="130" y="150" fill="#000000" /><rect width="10" height="10" x="170" y="150" fill="#000000" /><rect width="20" height="10" x="180" y="150" fill="#ffffff" /><rect width="30" height="10" x="200" y="150" fill="#000000" /><rect width="60" height="10" x="100" y="160" fill="#000000" /><rect width="60" height="10" x="170" y="160" fill="#000000" /></svg>