<svg xmlns:xlink="http://www.w3.org/1999/xlink" width="320" height="320" viewBox="0 0 320 320" xmlns="http://www.w3.org/2000/svg" shape-rendering="crispEdges"><rect width="100%" height="100%" fill="#e1d7d5" /><rect width="140" height="10" x="90" y="210" fill="#fe500c" /><rect width="140" height="10" x="90" y="220" fill="#fe500c" /><rect width="140" height="10" x="90" y="230" fill="#fe500c" /><rect width="140" height="10" x="90" y="240" fill="#fe500c" /><rect width="20" height="10" x="90" y="250" fill="#fe500c" /><rect width="110" height="10" x="120" y="250" fill="#fe500c" /><rect width="20" height="10" x="90" y="260" fill="#fe500c" /><rect width="110" height="10" x="120" y="260" fill="#fe500c" /><rect width="20" height="10" x="90" y="270" fill="#fe500c" /><rect width="110" height="10" x="120" y="270" fill="#fe500c" /><rect width="20" height="10" x="90" y="280" fill="#fe500c" /><rect width="110" height="10" x="120" y="280" fill="#fe500c" /><rect width="20" height="10" x="90" y="290" fill="#fe500c" /><rect width="110" height="10" x="120" y="290" fill="#fe500c" /><rect width="20" height="10" x="90" y="300" fill="#fe500c" /><rect width="110" height="10" x="120" y="300" fill="#fe500c" /><rect width="20" height="10" x="90" y="310" fill="#fe500c" /><rect width="110" height="10" x="120" y="310" fill="#fe500c" /><rect width="10" height="10" x="180" y="230" fill="#ffffff" /><rect width="50" height="10" x="160" y="240" fill="#ffc110" /><rect width="50" height="10" x="160" y="250" fill="#ffffff" /><rect width="50" height="10" x="160" y="260" fill="#ffffff" /><rect width="200" height="10" x="60" y="40" fill="#7e5243" /><rect width="10" height="10" x="60" y="50" fill="#7e5243" /><rect width="20" height="10" x="70" y="50" fill="#caeff9" /><rect width="10" height="10" x="90" y="50" fill="#ffffff" /><rect width="10" height="10" x="100" y="50" fill="#caeff9" /><rect width="30" height="10" x="110" y="50" fill="#ffffff" /><rect width="100" height="10" x="140" y="50" fill="#caeff9" /><rect width="10" height="10" x="240" y="50" fill="#ffffff" /><rect width="10" height="10" x="250" y="50" fill="#7e5243" /><rect width="10" height="10" x="60" y="60" fill="#7e5243" /><rect width="10" height="10" x="70" y="60" fill="#caeff9" /><rect width="10" height="10" x="80" y="60" fill="#ffffff" /><rect width="10" height="10" x="90" y="60" fill="#caeff9" /><rect width="30" height="10" x="100" y="60" fill="#ffffff" /><rect width="110" height="10" x="130" y="60" fill="#caeff9" /><rect width="10" height="10" x="240" y="60" fill="#ffffff" /><rect width="10" height="10" x="250" y="60" fill="#7e5243" /><rect width="10" height="10" x="60" y="70" fill="#7e5243" /><rect width="10" height="10" x="70" y="70" fill="#ffffff" /><rect width="10" height="10" x="80" y="70" fill="#caeff9" /><rect width="30" height="10" x="90" y="70" fill="#ffffff" /><rect width="120" height="10" x="120" y="70" fill="#caeff9" /><rect width="10" height="10" x="240" y="70" fill="#ffffff" /><rect width="10" height="10" x="250" y="70" fill="#7e5243" /><rect width="10" height="10" x="60" y="80" fill="#7e5243" /><rect width="10" height="10" x="70" y="80" fill="#caeff9" /><rect width="30" height="10" x="80" y="80" fill="#ffffff" /><rect width="130" height="10" x="110" y="80" fill="#caeff9" /><rect width="10" height="10" x="240" y="80" fill="#ffffff" /><rect width="10" height="10" x="250" y="80" fill="#7e5243" /><rect width="10" height="10" x="60" y="90" fill="#7e5243" /><rect width="30" height="10" x="70" y="90" fill="#ffffff" /><rect width="10" height="10" x="100" y="90" fill="#caeff9" /><rect width="60" height="10" x="110" y="90" fill="#7cc4f2" /><rect width="10" height="10" x="170" y="90" fill="#caeff9" /><rect width="60" height="10" x="180" y="90" fill="#7cc4f2" /><rect width="10" height="10" x="240" y="90" fill="#ffffff" /><rect width="10" height="10" x="250" y="90" fill="#7e5243" /><rect width="10" height="10" x="60" y="100" fill="#7e5243" /><rect width="20" height="10" x="70" y="100" fill="#ffffff" /><rect width="20" height="10" x="90" y="100" fill="#caeff9" /><rect width="10" height="10" x="110" y="100" fill="#7cc4f2" /><rect width="40" height="10" x="120" y="100" fill="#caeff9" /><rect width="10" height="10" x="160" y="100" fill="#7cc4f2" /><rect width="10" height="10" x="170" y="100" fill="#caeff9" /><rect width="10" height="10" x="180" y="100" fill="#7cc4f2" /><rect width="40" height="10" x="190" y="100" fill="#caeff9" /><rect width="10" height="10" x="230" y="100" fill="#7cc4f2" /><rect width="10" height="10" x="240" y="100" fill="#ffffff" /><rect width="10" height="10" x="250" y="100" fill="#7e5243" /><rect width="10" height="10" x="60" y="110" fill="#7e5243" /><rect width="10" height="10" x="70" y="110" fill="#ffffff" /><rect width="40" height="10" x="80" y="110" fill="#7cc4f2" /><rect width="40" height="10" x="120" y="110" fill="#caeff9" /><rect width="30" height="10" x="160" y="110" fill="#7cc4f2" /><rect width="40" height="10" x="190" y="110" fill="#caeff9" /><rect width="10" height="10" x="230" y="110" fill="#7cc4f2" /><rect width="10" height="10" x="240" y="110" fill="#ffffff" /><rect width="10" height="10" x="250" y="110" fill="#7e5243" /><rect width="10" height="10" x="60" y="120" fill="#7e5243" /><rect width="10" height="10" x="70" y="120" fill="#caeff9" /><rect width="10" height="10" x="80" y="120" fill="#7cc4f2" /><rect width="20" height="10" x="90" y="120" fill="#caeff9" /><rect width="10" height="10" x="110" y="120" fill="#7cc4f2" /><rect width="40" height="10" x="120" y="120" fill="#caeff9" /><rect width="10" height="10" x="160" y="120" fill="#7cc4f2" /><rect width="10" height="10" x="170" y="120" fill="#caeff9" /><rect width="10" height="10" x="180" y="120" fill="#7cc4f2" /><rect width="40" height="10" x="190" y="120" fill="#caeff9" /><rect width="10" height="10" x="230" y="120" fill="#7cc4f2" /><rect width="10" height="10" x="240" y="120" fill="#ffffff" /><rect width="10" height="10" x="250" y="120" fill="#7e5243" /><rect width="10" height="10" x="60" y="130" fill="#7e5243" /><rect width="10" height="10" x="70" y="130" fill="#caeff9" /><rect width="10" height="10" x="80" y="130" fill="#7cc4f2" /><rect width="20" height="10" x="90" y="130" fill="#caeff9" /><rect width="10" height="10" x="110" y="130" fill="#7cc4f2" /><rect width="40" height="10" x="120" y="130" fill="#caeff9" /><rect width="10" height="10" x="160" y="130" fill="#7cc4f2" /><rect width="10" height="10" x="170" y="130" fill="#caeff9" /><rect width="10" height="10" x="180" y="130" fill="#7cc4f2" /><rect width="40" height="10" x="190" y="130" fill="#caeff9" /><rect width="10" height="10" x="230" y="130" fill="#7cc4f2" /><rect width="10" height="10" x="240" y="130" fill="#ffffff" /><rect width="10" height="10" x="250" y="130" fill="#7e5243" /><rect width="10" height="10" x="60" y="140" fill="#7e5243" /><rect width="40" height="10" x="70" y="140" fill="#caeff9" /><rect width="60" height="10" x="110" y="140" fill="#7cc4f2" /><rect width="10" height="10" x="170" y="140" fill="#caeff9" /><rect width="60" height="10" x="180" y="140" fill="#7cc4f2" /><rect width="10" height="10" x="240" y="140" fill="#ffffff" /><rect width="10" height="10" x="250" y="140" fill="#7e5243" /><rect width="10" height="10" x="60" y="150" fill="#7e5243" /><rect width="170" height="10" x="70" y="150" fill="#caeff9" /><rect width="10" height="10" x="240" y="150" fill="#ffffff" /><rect width="10" height="10" x="250" y="150" fill="#7e5243" /><rect width="10" height="10" x="60" y="160" fill="#7e5243" /><rect width="170" height="10" x="70" y="160" fill="#caeff9" /><rect width="10" height="10" x="240" y="160" fill="#ffffff" /><rect width="10" height="10" x="250" y="160" fill="#7e5243" /><rect width="10" height="10" x="60" y="170" fill="#7e5243" /><rect width="170" height="10" x="70" y="170" fill="#caeff9" /><rect width="10" height="10" x="240" y="170" fill="#ffffff" /><rect width="10" height="10" x="250" y="170" fill="#7e5243" /><rect width="10" height="10" x="60" y="180" fill="#7e5243" /><rect width="170" height="10" x="70" y="180" fill="#caeff9" /><rect width="10" height="10" x="240" y="180" fill="#ffffff" /><rect width="10" height="10" x="250" y="180" fill="#7e5243" /><rect width="10" height="10" x="60" y="190" fill="#7e5243" /><rect width="180" height="10" x="70" y="190" fill="#ffffff" /><rect width="10" height="10" x="250" y="190" fill="#7e5243" /><rect width="200" height="10" x="60" y="200" fill="#7e5243" /><rect width="60" height="10" x="100" y="110" fill="#000000" /><rect width="60" height="10" x="170" y="110" fill="#000000" /><rect width="10" height="10" x="100" y="120" fill="#000000" /><rect width="20" height="10" x="110" y="120" fill="#ffffff" /><rect width="20" height="10" x="130" y="120" fill="#ff0e0e" /><rect width="10" height="10" x="150" y="120" fill="#000000" /><rect width="10" height="10" x="170" y="120" fill="#000000" /><rect width="20" height="10" x="180" y="120" fill="#ffffff" /><rect width="20" height="10" x="200" y="120" fill="#ff0e0e" /><rect width="10" height="10" x="220" y="120" fill="#000000" /><rect width="40" height="10" x="70" y="130" fill="#000000" /><rect width="20" height="10" x="110" y="130" fill="#ffffff" /><rect width="20" height="10" x="130" y="130" fill="#ff0e0e" /><rect width="30" height="10" x="150" y="130" fill="#000000" /><rect width="20" height="10" x="180" y="130" fill="#ffffff" /><rect width="20" height="10" x="200" y="130" fill="#ff0e0e" /><rect width="10" height="10" x="220" y="130" fill="#000000" /><rect width="10" height="10" x="70" y="140" fill="#000000" /><rect width="10" height="10" x="100" y="140" fill="#000000" /><rect width="20" height="10" x="110" y="140" fill="#ffffff" /><rect width="20" height="10" x="130" y="140" fill="#ff0e0e" /><rect width="10" height="10" x="150" y="140" fill="#000000" /><rect width="10" height="10" x="170" y="140" fill="#000000" /><rect width="20" height="10" x="180" y="140" fill="#ffffff" /><rect width="20" height="10" x="200" y="140" fill="#ff0e0e" /><rect width="10" height="10" x="220" y="140" fill="#000000" /><rect width="10" height="10" x="70" y="150" fill="#000000" /><rect width="10" height="10" x="100" y="150" fill="#000000" /><rect width="20" height="10" x="110" y="150" fill="#ffffff" /><rect width="20" height="10" x="130" y="150" fill="#ff0e0e" /><rect width="10" height="10" x="150" y="150" fill="#000000" /><rect width="10" height="10" x="170" y="150" fill="#000000" /><rect width="20" height="10" x="180" y="150" fill="#ffffff" /><rect width="20" height="10" x="200" y="150" fill="#ff0e0e" /><rect width="10" height="10" x="220" y="150" fill="#000000" /><rect width="60" height="10" x="100" y="160" fill="#000000" /><rect width="60" height="10" x="170" y="160" fill="#000000" /></svg>