<svg xmlns:xlink="http://www.w3.org/1999/xlink" width="320" height="320" viewBox="0 0 320 320" xmlns="http://www.w3.org/2000/svg" shape-rendering="crispEdges"><rect width="100%" height="100%" fill="#d5d7e1" /><rect width="140" height="10" x="90" y="210" fill="#5648ed" /><rect width="140" height="10" x="90" y="220" fill="#5648ed" /><rect width="140" height="10" x="90" y="230" fill="#5648ed" /><rect width="140" height="10" x="90" y="240" fill="#5648ed" /><rect width="20" height="10" x="90" y="250" fill="#5648ed" /><rect width="110" height="10" x="120" y="250" fill="#5648ed" /><rect width="20" height="10" x="90" y="260" fill="#5648ed" /><rect width="110" height="10" x="120" y="260" fill="#5648ed" /><rect width="20" height="10" x="90" y="270" fill="#5648ed" /><rect width="110" height="10" x="120" y="270" fill="#5648ed" /><rect width="20" height="10" x="90" y="280" fill="#5648ed" /><rect width="110" height="10" x="120" y="280" fill="#5648ed" /><rect width="20" height="10" x="90" y="290" fill="#5648ed" /><rect width="110" height="10" x="120" y="290" fill="#5648ed" /><rect width="20" height="10" x="90" y="300" fill="#5648ed" /><rect width="110" height="10" x="120" y="300" fill="#5648ed" /><rect width="20" height="10" x="90" y="310" fill="#5648ed" /><rect width="110" height="10" x="120" y="310" fill="#5648ed" /><rect width="20" height="10" x="150" y="230" fill="#34ac80" /><rect width="30" height="10" x="150" y="240" fill="#34ac80" /><rect width="10" height="10" x="140" y="250" fill="#34ac80" /><rect width="10" height="10" x="160" y="250" fill="#34ac80" /><rect width="20" height="10" x="180" y="250" fill="#34ac80" /><rect width="30" height="10" x="130" y="260" fill="#34ac80" /><rect width="30" height="10" x="170" y="260" fill="#34ac80" /><rect width="20" height="10" x="130" y="270" fill="#34ac80" /><rect width="10" height="10" x="160" y="270" fill="#34ac80" /><rect width="10" height="10" x="180" y="270" fill="#34ac80" /><rect width="30" height="10" x="150" y="280" fill="#34ac80" /><rect width="20" height="10" x="150" y="290" fill="#34ac80" /><rect width="10" height="10" x="180" y="290" fill="#34ac80" /><rect width="20" height="10" x="190" y="300" fill="#34ac80" /><rect width="60" height="10" x="130" y="30" fill="#a86f60" /><rect width="100" height="10" x="110" y="40" fill="#a86f60" /><rect width="140" height="10" x="90" y="50" fill="#a86f60" /><rect width="70" height="10" x="80" y="60" fill="#a86f60" /><rect width="10" height="10" x="150" y="60" fill="#4d271b" /><rect width="80" height="10" x="160" y="60" fill="#a86f60" /><rect width="130" height="10" x="80" y="70" fill="#a86f60" /><rect width="10" height="10" x="210" y="70" fill="#4d271b" /><rect width="20" height="10" x="220" y="70" fill="#a86f60" /><rect width="180" height="10" x="70" y="80" fill="#a86f60" /><rect width="180" height="10" x="70" y="90" fill="#a86f60" /><rect width="200" height="10" x="60" y="100" fill="#a86f60" /><rect width="200" height="10" x="60" y="110" fill="#a86f60" /><rect width="200" height="10" x="60" y="120" fill="#a86f60" /><rect width="200" height="10" x="60" y="130" fill="#a86f60" /><rect width="200" height="10" x="60" y="140" fill="#a86f60" /><rect width="150" height="10" x="60" y="150" fill="#a86f60" /><rect width="20" height="10" x="210" y="150" fill="#4d271b" /><rect width="30" height="10" x="230" y="150" fill="#a86f60" /><rect width="140" height="10" x="70" y="160" fill="#a86f60" /><rect width="20" height="10" x="210" y="160" fill="#4d271b" /><rect width="20" height="10" x="230" y="160" fill="#a86f60" /><rect width="30" height="10" x="70" y="170" fill="#a86f60" /><rect width="20" height="10" x="100" y="170" fill="#4d271b" /><rect width="20" height="10" x="120" y="170" fill="#a86f60" /><rect width="10" height="10" x="140" y="170" fill="#4d271b" /><rect width="100" height="10" x="150" y="170" fill="#a86f60" /><rect width="20" height="10" x="80" y="180" fill="#a86f60" /><rect width="20" height="10" x="100" y="180" fill="#4d271b" /><rect width="20" height="10" x="120" y="180" fill="#a86f60" /><rect width="50" height="10" x="140" y="180" fill="#4d271b" /><rect width="50" height="10" x="190" y="180" fill="#a86f60" /><rect width="60" height="10" x="80" y="190" fill="#a86f60" /><rect width="10" height="10" x="140" y="190" fill="#4d271b" /><rect width="90" height="10" x="150" y="190" fill="#a86f60" /><rect width="40" height="10" x="90" y="200" fill="#a86f60" /><rect width="10" height="10" x="130" y="200" fill="#4d271b" /><rect width="40" height="10" x="140" y="200" fill="#a86f60" /><rect width="10" height="10" x="180" y="200" fill="#4d271b" /><rect width="40" height="10" x="190" y="200" fill="#a86f60" /><rect width="100" height="10" x="110" y="210" fill="#a86f60" /><rect width="60" height="10" x="130" y="220" fill="#a86f60" /><rect width="60" height="10" x="100" y="110" fill="#ec5b43" /><rect width="60" height="10" x="170" y="110" fill="#ec5b43" /><rect width="10" height="10" x="100" y="120" fill="#ec5b43" /><rect width="20" height="10" x="110" y="120" fill="#ffffff" /><rect width="20" height="10" x="130" y="120" fill="#000000" /><rect width="10" height="10" x="150" y="120" fill="#ec5b43" /><rect width="10" height="10" x="170" y="120" fill="#ec5b43" /><rect width="20" height="10" x="180" y="120" fill="#ffffff" /><rect width="20" height="10" x="200" y="120" fill="#000000" /><rect width="10" height="10" x="220" y="120" fill="#ec5b43" /><rect width="40" height="10" x="70" y="130" fill="#ec5b43" /><rect width="20" height="10" x="110" y="130" fill="#ffffff" /><rect width="20" height="10" x="130" y="130" fill="#000000" /><rect width="30" height="10" x="150" y="130" fill="#ec5b43" /><rect width="20" height="10" x="180" y="130" fill="#ffffff" /><rect width="20" height="10" x="200" y="130" fill="#000000" /><rect width="10" height="10" x="220" y="130" fill="#ec5b43" /><rect width="10" height="10" x="70" y="140" fill="#ec5b43" /><rect width="10" height="10" x="100" y="140" fill="#ec5b43" /><rect width="20" height="10" x="110" y="140" fill="#ffffff" /><rect width="20" height="10" x="130" y="140" fill="#000000" /><rect width="10" height="10" x="150" y="140" fill="#ec5b43" /><rect width="10" height="10" x="170" y="140" fill="#ec5b43" /><rect width="20" height="10" x="180" y="140" fill="#ffffff" /><rect width="20" height="10" x="200" y="140" fill="#000000" /><rect width="10" height="10" x="220" y="140" fill="#ec5b43" /><rect width="10" height="10" x="70" y="150" fill="#ec5b43" /><rect width="10" height="10" x="100" y="150" fill="#ec5b43" /><rect width="20" height="10" x="110" y="150" fill="#ffffff" /><rect width="20" height="10" x="130" y="150" fill="#000000" /><rect width="10" height="10" x="150" y="150" fill="#ec5b43" /><rect width="10" height="10" x="170" y="150" fill="#ec5b43" /><rect width="20" height="10" x="180" y="150" fill="#ffffff" /><rect width="20" height="10" x="200" y="150" fill="#000000" /><rect width="10" height="10" x="220" y="150" fill="#ec5b43" /><rect width="60" height="10" x="100" y="160" fill="#ec5b43" /><rect width="60" height="10" x="170" y="160" fill="#ec5b43" /></svg>