<svg xmlns:xlink="http://www.w3.org/1999/xlink" width="320" height="320" viewBox="0 0 320 320" xmlns="http://www.w3.org/2000/svg" shape-rendering="crispEdges"><rect width="100%" height="100%" fill="#e1d7d5" /><rect width="140" height="10" x="90" y="210" fill="#34ac80" /><rect width="140" height="10" x="90" y="220" fill="#34ac80" /><rect width="140" height="10" x="90" y="230" fill="#34ac80" /><rect width="140" height="10" x="90" y="240" fill="#34ac80" /><rect width="20" height="10" x="90" y="250" fill="#34ac80" /><rect width="110" height="10" x="120" y="250" fill="#34ac80" /><rect width="20" height="10" x="90" y="260" fill="#34ac80" /><rect width="110" height="10" x="120" y="260" fill="#34ac80" /><rect width="20" height="10" x="90" y="270" fill="#34ac80" /><rect width="110" height="10" x="120" y="270" fill="#34ac80" /><rect width="20" height="10" x="90" y="280" fill="#34ac80" /><rect width="110" height="10" x="120" y="280" fill="#34ac80" /><rect width="20" height="10" x="90" y="290" fill="#34ac80" /><rect width="110" height="10" x="120" y="290" fill="#34ac80" /><rect width="20" height="10" x="90" y="300" fill="#34ac80" /><rect width="110" height="10" x="120" y="300" fill="#34ac80" /><rect width="20" height="10" x="90" y="310" fill="#34ac80" /><rect width="110" height="10" x="120" y="310" fill="#34ac80" /><rect width="10" height="10" x="140" y="230" fill="#ffffff" /><rect width="10" height="10" x="180" y="230" fill="#ffffff" /><rect width="20" height="10" x="130" y="240" fill="#ffffff" /><rect width="10" height="10" x="160" y="240" fill="#ffffff" /><rect width="20" height="10" x="180" y="240" fill="#ffffff" /><rect width="30" height="10" x="150" y="250" fill="#ffffff" /><rect width="50" height="10" x="140" y="260" fill="#ffffff" /><rect width="30" height="10" x="150" y="270" fill="#ffffff" /><rect width="20" height="10" x="130" y="280" fill="#ffffff" /><rect width="10" height="10" x="160" y="280" fill="#ffffff" /><rect width="20" height="10" x="180" y="280" fill="#ffffff" /><rect width="10" height="10" x="140" y="290" fill="#ffffff" /><rect width="10" height="10" x="180" y="290" fill="#ffffff" /><rect width="10" height="10" x="240" y="40" fill="#b92b3c" /><rect width="180" height="10" x="60" y="50" fill="#5d6061" /><rect width="10" height="10" x="240" y="50" fill="#b92b3c" /><rect width="10" height="10" x="250" y="50" fill="#5d6061" /><rect width="20" height="10" x="50" y="60" fill="#b92b3c" /><rect width="10" height="10" x="70" y="60" fill="#5d6061" /><rect width="10" height="10" x="80" y="60" fill="#e2c8c0" /><rect width="10" height="10" x="90" y="60" fill="#d18687" /><rect width="10" height="10" x="100" y="60" fill="#5d6061" /><rect width="10" height="10" x="110" y="60" fill="#d18687" /><rect width="10" height="10" x="120" y="60" fill="#e2c8c0" /><rect width="10" height="10" x="130" y="60" fill="#5d6061" /><rect width="20" height="10" x="140" y="60" fill="#d18687" /><rect width="10" height="10" x="160" y="60" fill="#5d6061" /><rect width="10" height="10" x="170" y="60" fill="#e2c8c0" /><rect width="10" height="10" x="180" y="60" fill="#d18687" /><rect width="10" height="10" x="190" y="60" fill="#5d6061" /><rect width="10" height="10" x="200" y="60" fill="#e2c8c0" /><rect width="10" height="10" x="210" y="60" fill="#d18687" /><rect width="10" height="10" x="220" y="60" fill="#5d6061" /><rect width="10" height="10" x="230" y="60" fill="#d18687" /><rect width="10" height="10" x="240" y="60" fill="#b92b3c" /><rect width="10" height="10" x="250" y="60" fill="#5d6061" /><rect width="10" height="10" x="40" y="70" fill="#b92b3c" /><rect width="10" height="10" x="50" y="70" fill="#962236" /><rect width="20" height="10" x="60" y="70" fill="#5d6061" /><rect width="20" height="10" x="80" y="70" fill="#d18687" /><rect width="10" height="10" x="100" y="70" fill="#5d6061" /><rect width="20" height="10" x="110" y="70" fill="#d18687" /><rect width="10" height="10" x="130" y="70" fill="#5d6061" /><rect width="10" height="10" x="140" y="70" fill="#e2c8c0" /><rect width="10" height="10" x="150" y="70" fill="#d18687" /><rect width="10" height="10" x="160" y="70" fill="#5d6061" /><rect width="20" height="10" x="170" y="70" fill="#d18687" /><rect width="10" height="10" x="190" y="70" fill="#5d6061" /><rect width="20" height="10" x="200" y="70" fill="#d18687" /><rect width="10" height="10" x="220" y="70" fill="#5d6061" /><rect width="10" height="10" x="230" y="70" fill="#d18687" /><rect width="10" height="10" x="240" y="70" fill="#e2c8c0" /><rect width="20" height="10" x="250" y="70" fill="#b92b3c" /><rect width="10" height="10" x="40" y="80" fill="#b92b3c" /><rect width="10" height="10" x="50" y="80" fill="#962236" /><rect width="200" height="10" x="60" y="80" fill="#5d6061" /><rect width="10" height="10" x="260" y="80" fill="#b92b3c" /><rect width="10" height="10" x="40" y="90" fill="#b92b3c" /><rect width="20" height="10" x="60" y="90" fill="#5d6061" /><rect width="10" height="10" x="80" y="90" fill="#d18687" /><rect width="10" height="10" x="90" y="90" fill="#e2c8c0" /><rect width="10" height="10" x="100" y="90" fill="#5d6061" /><rect width="20" height="10" x="110" y="90" fill="#d18687" /><rect width="10" height="10" x="130" y="90" fill="#5d6061" /><rect width="10" height="10" x="140" y="90" fill="#d18687" /><rect width="10" height="10" x="150" y="90" fill="#e2c8c0" /><rect width="10" height="10" x="160" y="90" fill="#5d6061" /><rect width="10" height="10" x="170" y="90" fill="#d18687" /><rect width="10" height="10" x="180" y="90" fill="#e2c8c0" /><rect width="10" height="10" x="190" y="90" fill="#5d6061" /><rect width="20" height="10" x="200" y="90" fill="#d18687" /><rect width="10" height="10" x="220" y="90" fill="#5d6061" /><rect width="20" height="10" x="230" y="90" fill="#d18687" /><rect width="10" height="10" x="250" y="90" fill="#5d6061" /><rect width="10" height="10" x="260" y="90" fill="#b92b3c" /><rect width="10" height="10" x="40" y="100" fill="#b92b3c" /><rect width="20" height="10" x="60" y="100" fill="#b92b3c" /><rect width="20" height="10" x="80" y="100" fill="#d18687" /><rect width="10" height="10" x="100" y="100" fill="#5d6061" /><rect width="10" height="10" x="110" y="100" fill="#e2c8c0" /><rect width="10" height="10" x="120" y="100" fill="#d18687" /><rect width="10" height="10" x="130" y="100" fill="#5d6061" /><rect width="20" height="10" x="140" y="100" fill="#d18687" /><rect width="10" height="10" x="160" y="100" fill="#5d6061" /><rect width="20" height="10" x="170" y="100" fill="#d18687" /><rect width="10" height="10" x="190" y="100" fill="#5d6061" /><rect width="10" height="10" x="200" y="100" fill="#e2c8c0" /><rect width="10" height="10" x="210" y="100" fill="#d18687" /><rect width="10" height="10" x="220" y="100" fill="#5d6061" /><rect width="10" height="10" x="230" y="100" fill="#e2c8c0" /><rect width="10" height="10" x="240" y="100" fill="#d18687" /><rect width="10" height="10" x="250" y="100" fill="#5d6061" /><rect width="10" height="10" x="260" y="100" fill="#b92b3c" /><rect width="20" height="10" x="30" y="110" fill="#b92b3c" /><rect width="10" height="10" x="50" y="110" fill="#962236" /><rect width="10" height="10" x="60" y="110" fill="#5d6061" /><rect width="10" height="10" x="70" y="110" fill="#b92b3c" /><rect width="180" height="10" x="80" y="110" fill="#5d6061" /><rect width="10" height="10" x="260" y="110" fill="#b92b3c" /><rect width="10" height="10" x="270" y="110" fill="#962236" /><rect width="30" height="10" x="30" y="120" fill="#b92b3c" /><rect width="10" height="10" x="60" y="120" fill="#5d6061" /><rect width="10" height="10" x="70" y="120" fill="#b92b3c" /><rect width="10" height="10" x="80" y="120" fill="#d18687" /><rect width="10" height="10" x="90" y="120" fill="#e2c8c0" /><rect width="10" height="10" x="100" y="120" fill="#5d6061" /><rect width="20" height="10" x="110" y="120" fill="#d18687" /><rect width="10" height="10" x="130" y="120" fill="#5d6061" /><rect width="10" height="10" x="140" y="120" fill="#e2c8c0" /><rect width="10" height="10" x="150" y="120" fill="#d18687" /><rect width="10" height="10" x="160" y="120" fill="#5d6061" /><rect width="10" height="10" x="170" y="120" fill="#d18687" /><rect width="10" height="10" x="180" y="120" fill="#e2c8c0" /><rect width="10" height="10" x="190" y="120" fill="#5d6061" /><rect width="20" height="10" x="200" y="120" fill="#d18687" /><rect width="10" height="10" x="220" y="120" fill="#5d6061" /><rect width="10" height="10" x="230" y="120" fill="#d18687" /><rect width="10" height="10" x="240" y="120" fill="#e2c8c0" /><rect width="10" height="10" x="250" y="120" fill="#5d6061" /><rect width="10" height="10" x="260" y="120" fill="#b92b3c" /><rect width="10" height="10" x="280" y="120" fill="#b92b3c" /><rect width="10" height="10" x="30" y="130" fill="#b92b3c" /><rect width="10" height="10" x="50" y="130" fill="#b92b3c" /><rect width="10" height="10" x="60" y="130" fill="#5d6061" /><rect width="10" height="10" x="70" y="130" fill="#b92b3c" /><rect width="20" height="10" x="80" y="130" fill="#d18687" /><rect width="10" height="10" x="100" y="130" fill="#5d6061" /><rect width="10" height="10" x="110" y="130" fill="#e2c8c0" /><rect width="10" height="10" x="120" y="130" fill="#d18687" /><rect width="10" height="10" x="130" y="130" fill="#5d6061" /><rect width="20" height="10" x="140" y="130" fill="#d18687" /><rect width="10" height="10" x="160" y="130" fill="#5d6061" /><rect width="20" height="10" x="170" y="130" fill="#d18687" /><rect width="10" height="10" x="190" y="130" fill="#5d6061" /><rect width="10" height="10" x="200" y="130" fill="#d18687" /><rect width="10" height="10" x="210" y="130" fill="#e2c8c0" /><rect width="10" height="10" x="220" y="130" fill="#5d6061" /><rect width="20" height="10" x="230" y="130" fill="#d18687" /><rect width="10" height="10" x="250" y="130" fill="#5d6061" /><rect width="10" height="10" x="260" y="130" fill="#b92b3c" /><rect width="10" height="10" x="280" y="130" fill="#b92b3c" /><rect width="10" height="10" x="30" y="140" fill="#b92b3c" /><rect width="10" height="10" x="50" y="140" fill="#b92b3c" /><rect width="10" height="10" x="60" y="140" fill="#5d6061" /><rect width="10" height="10" x="70" y="140" fill="#b92b3c" /><rect width="180" height="10" x="80" y="140" fill="#5d6061" /><rect width="10" height="10" x="260" y="140" fill="#b92b3c" /><rect width="10" height="10" x="280" y="140" fill="#b92b3c" /><rect width="10" height="10" x="30" y="150" fill="#b92b3c" /><rect width="10" height="10" x="50" y="150" fill="#b92b3c" /><rect width="10" height="10" x="60" y="150" fill="#5d6061" /><rect width="10" height="10" x="70" y="150" fill="#b92b3c" /><rect width="10" height="10" x="80" y="150" fill="#d18687" /><rect width="10" height="10" x="90" y="150" fill="#e2c8c0" /><rect width="10" height="10" x="100" y="150" fill="#5d6061" /><rect width="20" height="10" x="110" y="150" fill="#d18687" /><rect width="10" height="10" x="130" y="150" fill="#5d6061" /><rect width="20" height="10" x="140" y="150" fill="#d18687" /><rect width="10" height="10" x="160" y="150" fill="#5d6061" /><rect width="20" height="10" x="170" y="150" fill="#d18687" /><rect width="10" height="10" x="190" y="150" fill="#5d6061" /><rect width="10" height="10" x="200" y="150" fill="#e2c8c0" /><rect width="10" height="10" x="210" y="150" fill="#d18687" /><rect width="10" height="10" x="220" y="150" fill="#5d6061" /><rect width="20" height="10" x="230" y="150" fill="#d18687" /><rect width="10" height="10" x="250" y="150" fill="#5d6061" /><rect width="10" height="10" x="260" y="150" fill="#b92b3c" /><rect width="10" height="10" x="280" y="150" fill="#b92b3c" /><rect width="10" height="10" x="30" y="160" fill="#b92b3c" /><rect width="30" height="10" x="50" y="160" fill="#b92b3c" /><rect width="20" height="10" x="80" y="160" fill="#d18687" /><rect width="10" height="10" x="100" y="160" fill="#5d6061" /><rect width="10" height="10" x="110" y="160" fill="#d18687" /><rect width="10" height="10" x="120" y="160" fill="#e2c8c0" /><rect width="10" height="10" x="130" y="160" fill="#5d6061" /><rect width="10" height="10" x="140" y="160" fill="#d18687" /><rect width="10" height="10" x="150" y="160" fill="#e2c8c0" /><rect width="10" height="10" x="160" y="160" fill="#5d6061" /><rect width="10" height="10" x="170" y="160" fill="#d18687" /><rect width="10" height="10" x="180" y="160" fill="#e2c8c0" /><rect width="10" height="10" x="190" y="160" fill="#5d6061" /><rect width="20" height="10" x="200" y="160" fill="#d18687" /><rect width="10" height="10" x="220" y="160" fill="#5d6061" /><rect width="10" height="10" x="230" y="160" fill="#e2c8c0" /><rect width="10" height="10" x="240" y="160" fill="#d18687" /><rect width="10" height="10" x="250" y="160" fill="#5d6061" /><rect width="10" height="10" x="260" y="160" fill="#b92b3c" /><rect width="10" height="10" x="280" y="160" fill="#b92b3c" /><rect width="10" height="10" x="30" y="170" fill="#b92b3c" /><rect width="10" height="10" x="50" y="170" fill="#b92b3c" /><rect width="200" height="10" x="60" y="170" fill="#5d6061" /><rect width="10" height="10" x="260" y="170" fill="#b92b3c" /><rect width="10" height="10" x="280" y="170" fill="#b92b3c" /><rect width="10" height="10" x="30" y="180" fill="#b92b3c" /><rect width="10" height="10" x="50" y="180" fill="#b92b3c" /><rect width="20" height="10" x="60" y="180" fill="#5d6061" /><rect width="20" height="10" x="80" y="180" fill="#ffffff" /><rect width="10" height="10" x="100" y="180" fill="#5d6061" /><rect width="20" height="10" x="110" y="180" fill="#ffffff" /><rect width="10" height="10" x="130" y="180" fill="#5d6061" /><rect width="20" height="10" x="140" y="180" fill="#ffffff" /><rect width="10" height="10" x="160" y="180" fill="#5d6061" /><rect width="20" height="10" x="170" y="180" fill="#ffffff" /><rect width="10" height="10" x="190" y="180" fill="#5d6061" /><rect width="20" height="10" x="200" y="180" fill="#ffffff" /><rect width="10" height="10" x="220" y="180" fill="#5d6061" /><rect width="20" height="10" x="230" y="180" fill="#ffffff" /><rect width="10" height="10" x="250" y="180" fill="#5d6061" /><rect width="10" height="10" x="280" y="180" fill="#b92b3c" /><rect width="10" height="10" x="30" y="190" fill="#b92b3c" /><rect width="10" height="10" x="50" y="190" fill="#b92b3c" /><rect width="20" height="10" x="60" y="190" fill="#5d6061" /><rect width="20" height="10" x="80" y="190" fill="#ffffff" /><rect width="10" height="10" x="100" y="190" fill="#5d6061" /><rect width="20" height="10" x="110" y="190" fill="#ffffff" /><rect width="10" height="10" x="130" y="190" fill="#5d6061" /><rect width="20" height="10" x="140" y="190" fill="#ffffff" /><rect width="10" height="10" x="160" y="190" fill="#5d6061" /><rect width="20" height="10" x="170" y="190" fill="#ffffff" /><rect width="10" height="10" x="190" y="190" fill="#5d6061" /><rect width="20" height="10" x="200" y="190" fill="#ffffff" /><rect width="10" height="10" x="220" y="190" fill="#5d6061" /><rect width="20" height="10" x="230" y="190" fill="#ffffff" /><rect width="10" height="10" x="250" y="190" fill="#5d6061" /><rect width="10" height="10" x="260" y="190" fill="#b92b3c" /><rect width="10" height="10" x="280" y="190" fill="#b92b3c" /><rect width="10" height="10" x="30" y="200" fill="#b92b3c" /><rect width="10" height="10" x="50" y="200" fill="#b92b3c" /><rect width="200" height="10" x="60" y="200" fill="#5d6061" /><rect width="10" height="10" x="260" y="200" fill="#b92b3c" /><rect width="10" height="10" x="280" y="200" fill="#b92b3c" /><rect width="10" height="10" x="30" y="210" fill="#b92b3c" /><rect width="10" height="10" x="50" y="210" fill="#b92b3c" /><rect width="10" height="10" x="60" y="210" fill="#962236" /><rect width="10" height="10" x="240" y="210" fill="#962236" /><rect width="20" height="10" x="260" y="210" fill="#b92b3c" /><rect width="10" height="10" x="30" y="220" fill="#b92b3c" /><rect width="20" height="10" x="60" y="220" fill="#b92b3c" /><rect width="10" height="10" x="250" y="220" fill="#b92b3c" /><rect width="10" height="10" x="40" y="230" fill="#b92b3c" /><rect width="20" height="10" x="60" y="230" fill="#b92b3c" /><rect width="10" height="10" x="40" y="240" fill="#b92b3c" /><rect width="10" height="10" x="60" y="240" fill="#962236" /><rect width="20" height="10" x="50" y="250" fill="#b92b3c" /><rect width="60" height="10" x="100" y="110" fill="#f3322c" /><rect width="60" height="10" x="170" y="110" fill="#f3322c" /><rect width="10" height="10" x="100" y="120" fill="#f3322c" /><rect width="20" height="10" x="110" y="120" fill="#ffffff" /><rect width="20" height="10" x="130" y="120" fill="#000000" /><rect width="10" height="10" x="150" y="120" fill="#f3322c" /><rect width="10" height="10" x="170" y="120" fill="#f3322c" /><rect width="20" height="10" x="180" y="120" fill="#ffffff" /><rect width="20" height="10" x="200" y="120" fill="#000000" /><rect width="10" height="10" x="220" y="120" fill="#f3322c" /><rect width="40" height="10" x="70" y="130" fill="#f3322c" /><rect width="20" height="10" x="110" y="130" fill="#ffffff" /><rect width="20" height="10" x="130" y="130" fill="#000000" /><rect width="30" height="10" x="150" y="130" fill="#f3322c" /><rect width="20" height="10" x="180" y="130" fill="#ffffff" /><rect width="20" height="10" x="200" y="130" fill="#000000" /><rect width="10" height="10" x="220" y="130" fill="#f3322c" /><rect width="10" height="10" x="70" y="140" fill="#f3322c" /><rect width="10" height="10" x="100" y="140" fill="#f3322c" /><rect width="20" height="10" x="110" y="140" fill="#ffffff" /><rect width="20" height="10" x="130" y="140" fill="#000000" /><rect width="10" height="10" x="150" y="140" fill="#f3322c" /><rect width="10" height="10" x="170" y="140" fill="#f3322c" /><rect width="20" height="10" x="180" y="140" fill="#ffffff" /><rect width="20" height="10" x="200" y="140" fill="#000000" /><rect width="10" height="10" x="220" y="140" fill="#f3322c" /><rect width="10" height="10" x="70" y="150" fill="#f3322c" /><rect width="10" height="10" x="100" y="150" fill="#f3322c" /><rect width="20" height="10" x="110" y="150" fill="#ffffff" /><rect width="20" height="10" x="130" y="150" fill="#000000" /><rect width="10" height="10" x="150" y="150" fill="#f3322c" /><rect width="10" height="10" x="170" y="150" fill="#f3322c" /><rect width="20" height="10" x="180" y="150" fill="#ffffff" /><rect width="20" height="10" x="200" y="150" fill="#000000" /><rect width="10" height="10" x="220" y="150" fill="#f3322c" /><rect width="60" height="10" x="100" y="160" fill="#f3322c" /><rect width="60" height="10" x="170" y="160" fill="#f3322c" /></svg>