<svg xmlns:xlink="http://www.w3.org/1999/xlink" width="320" height="320" viewBox="0 0 320 320" xmlns="http://www.w3.org/2000/svg" shape-rendering="crispEdges"><rect width="100%" height="100%" fill="#e1d7d5" /><rect width="140" height="10" x="90" y="210" fill="#b87b11" /><rect width="140" height="10" x="90" y="220" fill="#b87b11" /><rect width="140" height="10" x="90" y="230" fill="#b87b11" /><rect width="140" height="10" x="90" y="240" fill="#b87b11" /><rect width="20" height="10" x="90" y="250" fill="#b87b11" /><rect width="110" height="10" x="120" y="250" fill="#b87b11" /><rect width="20" height="10" x="90" y="260" fill="#b87b11" /><rect width="110" height="10" x="120" y="260" fill="#b87b11" /><rect width="20" height="10" x="90" y="270" fill="#b87b11" /><rect width="110" height="10" x="120" y="270" fill="#b87b11" /><rect width="20" height="10" x="90" y="280" fill="#b87b11" /><rect width="110" height="10" x="120" y="280" fill="#b87b11" /><rect width="20" height="10" x="90" y="290" fill="#b87b11" /><rect width="110" height="10" x="120" y="290" fill="#b87b11" /><rect width="20" height="10" x="90" y="300" fill="#b87b11" /><rect width="110" height="10" x="120" y="300" fill="#b87b11" /><rect width="20" height="10" x="90" y="310" fill="#b87b11" /><rect width="110" height="10" x="120" y="310" fill="#b87b11" /><rect width="30" height="10" x="130" y="210" fill="#00a556" /><rect width="30" height="10" x="170" y="210" fill="#ffc925" /><rect width="20" height="10" x="210" y="210" fill="#fe500c" /><rect width="30" height="10" x="90" y="220" fill="#9f21a0" /><rect width="30" height="10" x="130" y="220" fill="#00a556" /><rect width="30" height="10" x="170" y="220" fill="#ffc925" /><rect width="30" height="10" x="90" y="230" fill="#9f21a0" /><rect width="30" height="10" x="130" y="230" fill="#00a556" /><rect width="30" height="10" x="200" y="230" fill="#9f21a0" /><rect width="30" height="10" x="90" y="240" fill="#9f21a0" /><rect width="30" height="10" x="160" y="240" fill="#c5030e" /><rect width="30" height="10" x="200" y="240" fill="#9f21a0" /><rect width="30" height="10" x="120" y="250" fill="#fe500c" /><rect width="30" height="10" x="160" y="250" fill="#c5030e" /><rect width="30" height="10" x="200" y="250" fill="#9f21a0" /><rect width="20" height="10" x="90" y="260" fill="#ffc925" /><rect width="30" height="10" x="120" y="260" fill="#fe500c" /><rect width="30" height="10" x="160" y="260" fill="#c5030e" /><rect width="20" height="10" x="90" y="270" fill="#ffc925" /><rect width="30" height="10" x="120" y="270" fill="#fe500c" /><rect width="30" height="10" x="190" y="270" fill="#ffc925" /><rect width="20" height="10" x="90" y="280" fill="#ffc925" /><rect width="30" height="10" x="150" y="280" fill="#00a556" /><rect width="30" height="10" x="190" y="280" fill="#ffc925" /><rect width="20" height="10" x="120" y="290" fill="#9f21a0" /><rect width="30" height="10" x="150" y="290" fill="#00a556" /><rect width="30" height="10" x="190" y="290" fill="#ffc925" /><rect width="10" height="10" x="90" y="300" fill="#c5030e" /><rect width="20" height="10" x="120" y="300" fill="#9f21a0" /><rect width="30" height="10" x="150" y="300" fill="#00a556" /><rect width="10" height="10" x="220" y="300" fill="#9f21a0" /><rect width="10" height="10" x="90" y="310" fill="#c5030e" /><rect width="20" height="10" x="120" y="310" fill="#9f21a0" /><rect width="30" height="10" x="180" y="310" fill="#c5030e" /><rect width="10" height="10" x="220" y="310" fill="#9f21a0" /><rect width="10" height="10" x="180" y="20" fill="#552e05" /><rect width="10" height="10" x="180" y="30" fill="#552e05" /><rect width="10" height="10" x="240" y="30" fill="#552e05" /><rect width="10" height="10" x="170" y="40" fill="#552e05" /><rect width="20" height="10" x="220" y="40" fill="#552e05" /><rect width="10" height="10" x="70" y="50" fill="#049d43" /><rect width="10" height="10" x="90" y="50" fill="#049d43" /><rect width="10" height="10" x="110" y="50" fill="#049d43" /><rect width="10" height="10" x="170" y="50" fill="#552e05" /><rect width="20" height="10" x="200" y="50" fill="#552e05" /><rect width="10" height="10" x="60" y="60" fill="#049d43" /><rect width="10" height="10" x="70" y="60" fill="#0b5027" /><rect width="10" height="10" x="80" y="60" fill="#049d43" /><rect width="10" height="10" x="90" y="60" fill="#0b5027" /><rect width="10" height="10" x="100" y="60" fill="#049d43" /><rect width="10" height="10" x="110" y="60" fill="#0b5027" /><rect width="10" height="10" x="120" y="60" fill="#049d43" /><rect width="20" height="10" x="150" y="60" fill="#a86f60" /><rect width="30" height="10" x="170" y="60" fill="#f8ddb0" /><rect width="30" height="10" x="200" y="60" fill="#fd8b5b" /><rect width="10" height="10" x="50" y="70" fill="#049d43" /><rect width="10" height="10" x="60" y="70" fill="#0b5027" /><rect width="10" height="10" x="70" y="70" fill="#049d43" /><rect width="20" height="10" x="80" y="70" fill="#0b5027" /><rect width="30" height="10" x="100" y="70" fill="#fd8b5b" /><rect width="30" height="10" x="130" y="70" fill="#a86f60" /><rect width="60" height="10" x="160" y="70" fill="#f8ddb0" /><rect width="20" height="10" x="220" y="70" fill="#fd8b5b" /><rect width="10" height="10" x="40" y="80" fill="#049d43" /><rect width="10" height="10" x="50" y="80" fill="#0b5027" /><rect width="10" height="10" x="60" y="80" fill="#049d43" /><rect width="20" height="10" x="70" y="80" fill="#0b5027" /><rect width="20" height="10" x="90" y="80" fill="#fd8b5b" /><rect width="40" height="10" x="110" y="80" fill="#e9265c" /><rect width="30" height="10" x="150" y="80" fill="#f8ddb0" /><rect width="30" height="10" x="180" y="80" fill="#ffa21e" /><rect width="20" height="10" x="210" y="80" fill="#f8ddb0" /><rect width="10" height="10" x="230" y="80" fill="#fd8b5b" /><rect width="20" height="10" x="240" y="80" fill="#a86f60" /><rect width="10" height="10" x="40" y="90" fill="#049d43" /><rect width="10" height="10" x="50" y="90" fill="#0b5027" /><rect width="10" height="10" x="60" y="90" fill="#049d43" /><rect width="10" height="10" x="70" y="90" fill="#0b5027" /><rect width="20" height="10" x="80" y="90" fill="#fd8b5b" /><rect width="60" height="10" x="100" y="90" fill="#e9265c" /><rect width="10" height="10" x="160" y="90" fill="#f8ddb0" /><rect width="10" height="10" x="170" y="90" fill="#ffa21e" /><rect width="30" height="10" x="180" y="90" fill="#ffc925" /><rect width="10" height="10" x="210" y="90" fill="#ffa21e" /><rect width="10" height="10" x="220" y="90" fill="#f8ddb0" /><rect width="10" height="10" x="230" y="90" fill="#fd8b5b" /><rect width="30" height="10" x="240" y="90" fill="#a86f60" /><rect width="280" height="10" x="20" y="100" fill="#fffdf2" /><rect width="260" height="10" x="30" y="110" fill="#fffdf2" /><rect width="260" height="10" x="30" y="120" fill="#b92b3c" /><rect width="240" height="10" x="40" y="130" fill="#b92b3c" /><rect width="240" height="10" x="40" y="140" fill="#fffdf2" /><rect width="220" height="10" x="50" y="150" fill="#b92b3c" /><rect width="220" height="10" x="50" y="160" fill="#fffdf2" /><rect width="200" height="10" x="60" y="170" fill="#fffdf2" /><rect width="70" height="10" x="70" y="180" fill="#fffdf2" /><rect width="70" height="10" x="140" y="180" fill="#b92b3c" /><rect width="40" height="10" x="210" y="180" fill="#fffdf2" /><rect width="160" height="10" x="80" y="190" fill="#fffdf2" /><rect width="120" height="10" x="100" y="200" fill="#fffdf2" /><rect width="60" height="10" x="100" y="110" fill="#ff638d" /><rect width="60" height="10" x="170" y="110" fill="#ff638d" /><rect width="10" height="10" x="100" y="120" fill="#ff638d" /><rect width="20" height="10" x="110" y="120" fill="#ffffff" /><rect width="20" height="10" x="130" y="120" fill="#000000" /><rect width="10" height="10" x="150" y="120" fill="#ff638d" /><rect width="10" height="10" x="170" y="120" fill="#ff638d" /><rect width="20" height="10" x="180" y="120" fill="#ffffff" /><rect width="20" height="10" x="200" y="120" fill="#000000" /><rect width="10" height="10" x="220" y="120" fill="#ff638d" /><rect width="40" height="10" x="70" y="130" fill="#ff638d" /><rect width="20" height="10" x="110" y="130" fill="#ffffff" /><rect width="20" height="10" x="130" y="130" fill="#000000" /><rect width="30" height="10" x="150" y="130" fill="#ff638d" /><rect width="20" height="10" x="180" y="130" fill="#ffffff" /><rect width="20" height="10" x="200" y="130" fill="#000000" /><rect width="10" height="10" x="220" y="130" fill="#ff638d" /><rect width="40" height="10" x="70" y="140" fill="#ff638d" /><rect width="20" height="10" x="110" y="140" fill="#ffffff" /><rect width="20" height="10" x="130" y="140" fill="#000000" /><rect width="30" height="10" x="150" y="140" fill="#ff638d" /><rect width="20" height="10" x="180" y="140" fill="#ffffff" /><rect width="20" height="10" x="200" y="140" fill="#000000" /><rect width="10" height="10" x="220" y="140" fill="#ff638d" /><rect width="10" height="10" x="70" y="150" fill="#ff638d" /><rect width="10" height="10" x="100" y="150" fill="#ff638d" /><rect width="20" height="10" x="110" y="150" fill="#ffffff" /><rect width="20" height="10" x="130" y="150" fill="#000000" /><rect width="10" height="10" x="150" y="150" fill="#ff638d" /><rect width="10" height="10" x="170" y="150" fill="#ff638d" /><rect width="20" height="10" x="180" y="150" fill="#ffffff" /><rect width="20" height="10" x="200" y="150" fill="#000000" /><rect width="10" height="10" x="220" y="150" fill="#ff638d" /><rect width="60" height="10" x="100" y="160" fill="#ff638d" /><rect width="60" height="10" x="170" y="160" fill="#ff638d" /></svg>