<svg xmlns:xlink="http://www.w3.org/1999/xlink" width="320" height="320" viewBox="0 0 320 320" xmlns="http://www.w3.org/2000/svg" shape-rendering="crispEdges"><rect width="100%" height="100%" fill="#d5d7e1" /><rect width="140" height="10" x="90" y="210" fill="#fffdf2" /><rect width="140" height="10" x="90" y="220" fill="#fffdf2" /><rect width="140" height="10" x="90" y="230" fill="#fffdf2" /><rect width="140" height="10" x="90" y="240" fill="#fffdf2" /><rect width="20" height="10" x="90" y="250" fill="#fffdf2" /><rect width="110" height="10" x="120" y="250" fill="#fffdf2" /><rect width="20" height="10" x="90" y="260" fill="#fffdf2" /><rect width="110" height="10" x="120" y="260" fill="#fffdf2" /><rect width="20" height="10" x="90" y="270" fill="#fffdf2" /><rect width="110" height="10" x="120" y="270" fill="#fffdf2" /><rect width="20" height="10" x="90" y="280" fill="#fffdf2" /><rect width="110" height="10" x="120" y="280" fill="#fffdf2" /><rect width="20" height="10" x="90" y="290" fill="#fffdf2" /><rect width="110" height="10" x="120" y="290" fill="#fffdf2" /><rect width="20" height="10" x="90" y="300" fill="#fffdf2" /><rect width="110" height="10" x="120" y="300" fill="#fffdf2" /><rect width="20" height="10" x="90" y="310" fill="#fffdf2" /><rect width="110" height="10" x="120" y="310" fill="#fffdf2" /><rect width="30" height="10" x="130" y="210" fill="#00a556" /><rect width="30" height="10" x="170" y="210" fill="#ffc925" /><rect width="20" height="10" x="210" y="210" fill="#fe500c" /><rect width="30" height="10" x="90" y="220" fill="#9f21a0" /><rect width="30" height="10" x="130" y="220" fill="#00a556" /><rect width="30" height="10" x="170" y="220" fill="#ffc925" /><rect width="30" height="10" x="90" y="230" fill="#9f21a0" /><rect width="30" height="10" x="130" y="230" fill="#00a556" /><rect width="30" height="10" x="200" y="230" fill="#9f21a0" /><rect width="30" height="10" x="90" y="240" fill="#9f21a0" /><rect width="30" height="10" x="160" y="240" fill="#c5030e" /><rect width="30" height="10" x="200" y="240" fill="#9f21a0" /><rect width="30" height="10" x="120" y="250" fill="#fe500c" /><rect width="30" height="10" x="160" y="250" fill="#c5030e" /><rect width="30" height="10" x="200" y="250" fill="#9f21a0" /><rect width="20" height="10" x="90" y="260" fill="#ffc925" /><rect width="30" height="10" x="120" y="260" fill="#fe500c" /><rect width="30" height="10" x="160" y="260" fill="#c5030e" /><rect width="20" height="10" x="90" y="270" fill="#ffc925" /><rect width="30" height="10" x="120" y="270" fill="#fe500c" /><rect width="30" height="10" x="190" y="270" fill="#ffc925" /><rect width="20" height="10" x="90" y="280" fill="#ffc925" /><rect width="30" height="10" x="150" y="280" fill="#00a556" /><rect width="30" height="10" x="190" y="280" fill="#ffc925" /><rect width="20" height="10" x="120" y="290" fill="#9f21a0" /><rect width="30" height="10" x="150" y="290" fill="#00a556" /><rect width="30" height="10" x="190" y="290" fill="#ffc925" /><rect width="10" height="10" x="90" y="300" fill="#c5030e" /><rect width="20" height="10" x="120" y="300" fill="#9f21a0" /><rect width="30" height="10" x="150" y="300" fill="#00a556" /><rect width="10" height="10" x="220" y="300" fill="#9f21a0" /><rect width="10" height="10" x="90" y="310" fill="#c5030e" /><rect width="20" height="10" x="120" y="310" fill="#9f21a0" /><rect width="30" height="10" x="180" y="310" fill="#c5030e" /><rect width="10" height="10" x="220" y="310" fill="#9f21a0" /><rect width="20" height="10" x="110" y="20" fill="#f9f4e6" /><rect width="30" height="10" x="150" y="20" fill="#f9f4e6" /><rect width="110" height="10" x="100" y="30" fill="#f9f4e6" /><rect width="150" height="10" x="90" y="40" fill="#f9f4e6" /><rect width="150" height="10" x="90" y="50" fill="#f9f4e6" /><rect width="170" height="10" x="80" y="60" fill="#f9f4e6" /><rect width="10" height="10" x="80" y="70" fill="#f9f4e6" /><rect width="10" height="10" x="90" y="70" fill="#f78a18" /><rect width="120" height="10" x="100" y="70" fill="#f9f4e6" /><rect width="10" height="10" x="220" y="70" fill="#ffe939" /><rect width="20" height="10" x="230" y="70" fill="#f9f4e6" /><rect width="30" height="10" x="90" y="80" fill="#f78a18" /><rect width="20" height="10" x="120" y="80" fill="#f9f4e6" /><rect width="10" height="10" x="140" y="80" fill="#f78a18" /><rect width="20" height="10" x="150" y="80" fill="#d9391f" /><rect width="50" height="10" x="170" y="80" fill="#f9f4e6" /><rect width="10" height="10" x="220" y="80" fill="#ffe939" /><rect width="10" height="10" x="230" y="80" fill="#f9f4e6" /><rect width="30" height="10" x="60" y="90" fill="#f8ddb0" /><rect width="30" height="10" x="90" y="90" fill="#f78a18" /><rect width="20" height="10" x="120" y="90" fill="#d9391f" /><rect width="10" height="10" x="140" y="90" fill="#f78a18" /><rect width="20" height="10" x="150" y="90" fill="#d9391f" /><rect width="10" height="10" x="170" y="90" fill="#f78a18" /><rect width="10" height="10" x="180" y="90" fill="#d9391f" /><rect width="20" height="10" x="190" y="90" fill="#f9f4e6" /><rect width="10" height="10" x="210" y="90" fill="#f78a18" /><rect width="10" height="10" x="220" y="90" fill="#ffe939" /><rect width="10" height="10" x="230" y="90" fill="#f9f4e6" /><rect width="30" height="10" x="60" y="100" fill="#f8ddb0" /><rect width="30" height="10" x="90" y="100" fill="#f78a18" /><rect width="20" height="10" x="120" y="100" fill="#d9391f" /><rect width="10" height="10" x="140" y="100" fill="#f78a18" /><rect width="20" height="10" x="150" y="100" fill="#d9391f" /><rect width="10" height="10" x="170" y="100" fill="#f78a18" /><rect width="20" height="10" x="180" y="100" fill="#d9391f" /><rect width="20" height="10" x="200" y="100" fill="#f78a18" /><rect width="10" height="10" x="220" y="100" fill="#ffe939" /><rect width="20" height="10" x="60" y="110" fill="#f8ddb0" /><rect width="30" height="10" x="90" y="110" fill="#f78a18" /><rect width="20" height="10" x="120" y="110" fill="#d9391f" /><rect width="10" height="10" x="140" y="110" fill="#f78a18" /><rect width="20" height="10" x="150" y="110" fill="#d9391f" /><rect width="10" height="10" x="170" y="110" fill="#f78a18" /><rect width="20" height="10" x="180" y="110" fill="#d9391f" /><rect width="20" height="10" x="200" y="110" fill="#f78a18" /><rect width="10" height="10" x="220" y="110" fill="#ffe939" /><rect width="20" height="10" x="60" y="120" fill="#f8ddb0" /><rect width="30" height="10" x="90" y="120" fill="#f78a18" /><rect width="20" height="10" x="120" y="120" fill="#d9391f" /><rect width="10" height="10" x="140" y="120" fill="#f78a18" /><rect width="20" height="10" x="150" y="120" fill="#d9391f" /><rect width="10" height="10" x="170" y="120" fill="#f78a18" /><rect width="20" height="10" x="180" y="120" fill="#d9391f" /><rect width="20" height="10" x="200" y="120" fill="#f78a18" /><rect width="10" height="10" x="220" y="120" fill="#ffe939" /><rect width="20" height="10" x="60" y="130" fill="#f8ddb0" /><rect width="30" height="10" x="90" y="130" fill="#f78a18" /><rect width="20" height="10" x="120" y="130" fill="#d9391f" /><rect width="10" height="10" x="140" y="130" fill="#f78a18" /><rect width="20" height="10" x="150" y="130" fill="#d9391f" /><rect width="10" height="10" x="170" y="130" fill="#f78a18" /><rect width="20" height="10" x="180" y="130" fill="#d9391f" /><rect width="20" height="10" x="200" y="130" fill="#f78a18" /><rect width="10" height="10" x="220" y="130" fill="#ffe939" /><rect width="20" height="10" x="60" y="140" fill="#f8ddb0" /><rect width="30" height="10" x="90" y="140" fill="#f78a18" /><rect width="20" height="10" x="120" y="140" fill="#d9391f" /><rect width="10" height="10" x="140" y="140" fill="#f78a18" /><rect width="20" height="10" x="150" y="140" fill="#d9391f" /><rect width="10" height="10" x="170" y="140" fill="#f78a18" /><rect width="20" height="10" x="180" y="140" fill="#d9391f" /><rect width="20" height="10" x="200" y="140" fill="#f78a18" /><rect width="10" height="10" x="220" y="140" fill="#ffe939" /><rect width="20" height="10" x="60" y="150" fill="#f8ddb0" /><rect width="30" height="10" x="90" y="150" fill="#f78a18" /><rect width="20" height="10" x="120" y="150" fill="#d9391f" /><rect width="10" height="10" x="140" y="150" fill="#f78a18" /><rect width="20" height="10" x="150" y="150" fill="#d9391f" /><rect width="10" height="10" x="170" y="150" fill="#f78a18" /><rect width="20" height="10" x="180" y="150" fill="#d9391f" /><rect width="20" height="10" x="200" y="150" fill="#f78a18" /><rect width="10" height="10" x="220" y="150" fill="#ffe939" /><rect width="30" height="10" x="60" y="160" fill="#f8ddb0" /><rect width="30" height="10" x="90" y="160" fill="#f78a18" /><rect width="20" height="10" x="120" y="160" fill="#d9391f" /><rect width="10" height="10" x="140" y="160" fill="#f78a18" /><rect width="20" height="10" x="150" y="160" fill="#d9391f" /><rect width="10" height="10" x="170" y="160" fill="#f78a18" /><rect width="20" height="10" x="180" y="160" fill="#d9391f" /><rect width="20" height="10" x="200" y="160" fill="#f78a18" /><rect width="10" height="10" x="220" y="160" fill="#ffe939" /><rect width="20" height="10" x="70" y="170" fill="#f8ddb0" /><rect width="30" height="10" x="90" y="170" fill="#f78a18" /><rect width="20" height="10" x="120" y="170" fill="#d9391f" /><rect width="10" height="10" x="140" y="170" fill="#f78a18" /><rect width="20" height="10" x="150" y="170" fill="#d9391f" /><rect width="10" height="10" x="170" y="170" fill="#f78a18" /><rect width="20" height="10" x="180" y="170" fill="#d9391f" /><rect width="20" height="10" x="200" y="170" fill="#f78a18" /><rect width="10" height="10" x="220" y="170" fill="#ffe939" /><rect width="130" height="10" x="90" y="180" fill="#f78a18" /><rect width="10" height="10" x="220" y="180" fill="#ffe939" /><rect width="50" height="10" x="90" y="190" fill="#f8ddb0" /><rect width="70" height="10" x="140" y="190" fill="#4d271b" /><rect width="20" height="10" x="210" y="190" fill="#f8ddb0" /><rect width="140" height="10" x="90" y="200" fill="#f8ddb0" /><rect width="60" height="10" x="100" y="110" fill="#000000" /><rect width="60" height="10" x="170" y="110" fill="#000000" /><rect width="40" height="10" x="100" y="120" fill="#000000" /><rect width="10" height="10" x="140" y="120" fill="#ffffff" /><rect width="10" height="10" x="150" y="120" fill="#000000" /><rect width="40" height="10" x="170" y="120" fill="#000000" /><rect width="10" height="10" x="210" y="120" fill="#ffffff" /><rect width="10" height="10" x="220" y="120" fill="#000000" /><rect width="70" height="10" x="70" y="130" fill="#000000" /><rect width="10" height="10" x="140" y="130" fill="#ffffff" /><rect width="60" height="10" x="150" y="130" fill="#000000" /><rect width="10" height="10" x="210" y="130" fill="#ffffff" /><rect width="10" height="10" x="220" y="130" fill="#000000" /><rect width="10" height="10" x="70" y="140" fill="#000000" /><rect width="60" height="10" x="100" y="140" fill="#000000" /><rect width="60" height="10" x="170" y="140" fill="#000000" /><rect width="10" height="10" x="70" y="150" fill="#000000" /><rect width="60" height="10" x="100" y="150" fill="#000000" /><rect width="60" height="10" x="170" y="150" fill="#000000" /><rect width="60" height="10" x="100" y="160" fill="#000000" /><rect width="60" height="10" x="170" y="160" fill="#000000" /></svg>