<svg xmlns:xlink="http://www.w3.org/1999/xlink" width="320" height="320" viewBox="0 0 320 320" xmlns="http://www.w3.org/2000/svg" shape-rendering="crispEdges"><rect width="100%" height="100%" fill="#e1d7d5" /><rect width="140" height="10" x="90" y="210" fill="#63a0f9" /><rect width="140" height="10" x="90" y="220" fill="#63a0f9" /><rect width="140" height="10" x="90" y="230" fill="#63a0f9" /><rect width="140" height="10" x="90" y="240" fill="#63a0f9" /><rect width="20" height="10" x="90" y="250" fill="#63a0f9" /><rect width="110" height="10" x="120" y="250" fill="#63a0f9" /><rect width="20" height="10" x="90" y="260" fill="#63a0f9" /><rect width="110" height="10" x="120" y="260" fill="#63a0f9" /><rect width="20" height="10" x="90" y="270" fill="#63a0f9" /><rect width="110" height="10" x="120" y="270" fill="#63a0f9" /><rect width="20" height="10" x="90" y="280" fill="#63a0f9" /><rect width="110" height="10" x="120" y="280" fill="#63a0f9" /><rect width="20" height="10" x="90" y="290" fill="#63a0f9" /><rect width="110" height="10" x="120" y="290" fill="#63a0f9" /><rect width="20" height="10" x="90" y="300" fill="#63a0f9" /><rect width="110" height="10" x="120" y="300" fill="#63a0f9" /><rect width="20" height="10" x="90" y="310" fill="#63a0f9" /><rect width="110" height="10" x="120" y="310" fill="#63a0f9" /><rect width="10" height="10" x="150" y="230" fill="#abf131" /><rect width="10" height="10" x="170" y="230" fill="#abf131" /><rect width="10" height="10" x="130" y="240" fill="#abf131" /><rect width="20" height="10" x="150" y="240" fill="#abf131" /><rect width="30" height="10" x="140" y="250" fill="#abf131" /><rect width="20" height="10" x="140" y="260" fill="#abf131" /><rect width="10" height="10" x="170" y="260" fill="#abf131" /><rect width="10" height="10" x="130" y="270" fill="#abf131" /><rect width="10" height="10" x="150" y="270" fill="#abf131" /><rect width="10" height="10" x="160" y="280" fill="#abf131" /><rect width="10" height="10" x="140" y="290" fill="#abf131" /><rect width="140" height="10" x="90" y="40" fill="#ffffff" /><rect width="180" height="10" x="70" y="50" fill="#ffffff" /><rect width="200" height="10" x="60" y="60" fill="#ffffff" /><rect width="200" height="10" x="60" y="70" fill="#ffffff" /><rect width="220" height="10" x="50" y="80" fill="#ffffff" /><rect width="220" height="10" x="50" y="90" fill="#ffffff" /><rect width="220" height="10" x="50" y="100" fill="#ffffff" /><rect width="220" height="10" x="50" y="110" fill="#ffffff" /><rect width="220" height="10" x="50" y="120" fill="#ffffff" /><rect width="220" height="10" x="50" y="130" fill="#ffffff" /><rect width="220" height="10" x="50" y="140" fill="#ffffff" /><rect width="200" height="10" x="60" y="150" fill="#ffffff" /><rect width="200" height="10" x="60" y="160" fill="#ffffff" /><rect width="180" height="10" x="70" y="170" fill="#ffffff" /><rect width="150" height="10" x="90" y="180" fill="#ffffff" /><rect width="30" height="10" x="200" y="190" fill="#ffffff" /><rect width="20" height="10" x="200" y="200" fill="#ffffff" /><rect width="20" height="10" x="190" y="210" fill="#ffffff" /><rect width="10" height="10" x="190" y="220" fill="#ffffff" /><rect width="60" height="10" x="100" y="110" fill="#068940" /><rect width="60" height="10" x="170" y="110" fill="#257ced" /><rect width="10" height="10" x="100" y="120" fill="#068940" /><rect width="20" height="10" x="110" y="120" fill="#ffffff" /><rect width="20" height="10" x="130" y="120" fill="#000000" /><rect width="10" height="10" x="150" y="120" fill="#068940" /><rect width="10" height="10" x="170" y="120" fill="#257ced" /><rect width="20" height="10" x="180" y="120" fill="#ffffff" /><rect width="20" height="10" x="200" y="120" fill="#000000" /><rect width="10" height="10" x="220" y="120" fill="#257ced" /><rect width="30" height="10" x="70" y="130" fill="#257ced" /><rect width="10" height="10" x="100" y="130" fill="#068940" /><rect width="20" height="10" x="110" y="130" fill="#ffffff" /><rect width="20" height="10" x="130" y="130" fill="#000000" /><rect width="10" height="10" x="150" y="130" fill="#068940" /><rect width="20" height="10" x="160" y="130" fill="#257ced" /><rect width="20" height="10" x="180" y="130" fill="#ffffff" /><rect width="20" height="10" x="200" y="130" fill="#000000" /><rect width="10" height="10" x="220" y="130" fill="#257ced" /><rect width="10" height="10" x="70" y="140" fill="#257ced" /><rect width="10" height="10" x="100" y="140" fill="#068940" /><rect width="20" height="10" x="110" y="140" fill="#ffffff" /><rect width="20" height="10" x="130" y="140" fill="#000000" /><rect width="10" height="10" x="150" y="140" fill="#068940" /><rect width="10" height="10" x="170" y="140" fill="#257ced" /><rect width="20" height="10" x="180" y="140" fill="#ffffff" /><rect width="20" height="10" x="200" y="140" fill="#000000" /><rect width="10" height="10" x="220" y="140" fill="#257ced" /><rect width="10" height="10" x="70" y="150" fill="#257ced" /><rect width="10" height="10" x="100" y="150" fill="#068940" /><rect width="20" height="10" x="110" y="150" fill="#ffffff" /><rect width="20" height="10" x="130" y="150" fill="#000000" /><rect width="10" height="10" x="150" y="150" fill="#068940" /><rect width="10" height="10" x="170" y="150" fill="#257ced" /><rect width="20" height="10" x="180" y="150" fill="#ffffff" /><rect width="20" height="10" x="200" y="150" fill="#000000" /><rect width="10" height="10" x="220" y="150" fill="#257ced" /><rect width="60" height="10" x="100" y="160" fill="#068940" /><rect width="60" height="10" x="170" y="160" fill="#257ced" /></svg>