<svg xmlns:xlink="http://www.w3.org/1999/xlink" width="320" height="320" viewBox="0 0 320 320" xmlns="http://www.w3.org/2000/svg" shape-rendering="crispEdges"><rect width="100%" height="100%" fill="#d5d7e1" /><rect width="140" height="10" x="90" y="210" fill="#343235" /><rect width="140" height="10" x="90" y="220" fill="#343235" /><rect width="140" height="10" x="90" y="230" fill="#343235" /><rect width="140" height="10" x="90" y="240" fill="#343235" /><rect width="20" height="10" x="90" y="250" fill="#343235" /><rect width="110" height="10" x="120" y="250" fill="#343235" /><rect width="20" height="10" x="90" y="260" fill="#343235" /><rect width="110" height="10" x="120" y="260" fill="#343235" /><rect width="20" height="10" x="90" y="270" fill="#343235" /><rect width="110" height="10" x="120" y="270" fill="#343235" /><rect width="20" height="10" x="90" y="280" fill="#343235" /><rect width="110" height="10" x="120" y="280" fill="#343235" /><rect width="20" height="10" x="90" y="290" fill="#343235" /><rect width="110" height="10" x="120" y="290" fill="#343235" /><rect width="20" height="10" x="90" y="300" fill="#343235" /><rect width="110" height="10" x="120" y="300" fill="#343235" /><rect width="20" height="10" x="90" y="310" fill="#343235" /><rect width="110" height="10" x="120" y="310" fill="#343235" /><rect width="140" height="10" x="90" y="210" fill="#e9265c" /><rect width="140" height="10" x="90" y="220" fill="#ffc110" /><rect width="140" height="10" x="90" y="230" fill="#f78a18" /><rect width="20" height="10" x="110" y="50" fill="#254efb" /><rect width="10" height="10" x="130" y="50" fill="#63a0f9" /><rect width="40" height="10" x="140" y="50" fill="#254efb" /><rect width="10" height="10" x="180" y="50" fill="#63a0f9" /><rect width="20" height="10" x="190" y="50" fill="#254efb" /><rect width="30" height="10" x="100" y="60" fill="#254efb" /><rect width="10" height="10" x="130" y="60" fill="#63a0f9" /><rect width="40" height="10" x="140" y="60" fill="#254efb" /><rect width="10" height="10" x="180" y="60" fill="#63a0f9" /><rect width="30" height="10" x="190" y="60" fill="#254efb" /><rect width="30" height="10" x="90" y="70" fill="#254efb" /><rect width="10" height="10" x="120" y="70" fill="#63a0f9" /><rect width="60" height="10" x="130" y="70" fill="#254efb" /><rect width="10" height="10" x="190" y="70" fill="#63a0f9" /><rect width="30" height="10" x="200" y="70" fill="#254efb" /><rect width="40" height="10" x="80" y="80" fill="#254efb" /><rect width="10" height="10" x="120" y="80" fill="#63a0f9" /><rect width="60" height="10" x="130" y="80" fill="#254efb" /><rect width="10" height="10" x="190" y="80" fill="#63a0f9" /><rect width="40" height="10" x="200" y="80" fill="#254efb" /><rect width="40" height="10" x="70" y="90" fill="#254efb" /><rect width="10" height="10" x="110" y="90" fill="#ffffff" /><rect width="80" height="10" x="120" y="90" fill="#254efb" /><rect width="10" height="10" x="200" y="90" fill="#63a0f9" /><rect width="40" height="10" x="210" y="90" fill="#254efb" /><rect width="20" height="10" x="60" y="100" fill="#63a0f9" /><rect width="10" height="10" x="80" y="100" fill="#ffffff" /><rect width="10" height="10" x="90" y="100" fill="#63a0f9" /><rect width="30" height="10" x="100" y="100" fill="#ffffff" /><rect width="10" height="10" x="130" y="100" fill="#63a0f9" /><rect width="10" height="10" x="140" y="100" fill="#ffffff" /><rect width="110" height="10" x="150" y="100" fill="#63a0f9" /><rect width="50" height="10" x="60" y="110" fill="#254efb" /><rect width="10" height="10" x="110" y="110" fill="#ffffff" /><rect width="80" height="10" x="120" y="110" fill="#254efb" /><rect width="10" height="10" x="200" y="110" fill="#63a0f9" /><rect width="50" height="10" x="210" y="110" fill="#254efb" /><rect width="50" height="10" x="60" y="120" fill="#254efb" /><rect width="10" height="10" x="110" y="120" fill="#63a0f9" /><rect width="80" height="10" x="120" y="120" fill="#254efb" /><rect width="10" height="10" x="200" y="120" fill="#63a0f9" /><rect width="50" height="10" x="210" y="120" fill="#254efb" /><rect width="50" height="10" x="60" y="130" fill="#254efb" /><rect width="10" height="10" x="110" y="130" fill="#63a0f9" /><rect width="80" height="10" x="120" y="130" fill="#254efb" /><rect width="10" height="10" x="200" y="130" fill="#63a0f9" /><rect width="50" height="10" x="210" y="130" fill="#254efb" /><rect width="50" height="10" x="60" y="140" fill="#254efb" /><rect width="10" height="10" x="110" y="140" fill="#63a0f9" /><rect width="80" height="10" x="120" y="140" fill="#254efb" /><rect width="10" height="10" x="200" y="140" fill="#63a0f9" /><rect width="50" height="10" x="210" y="140" fill="#254efb" /><rect width="200" height="10" x="60" y="150" fill="#63a0f9" /><rect width="50" height="10" x="70" y="160" fill="#254efb" /><rect width="10" height="10" x="120" y="160" fill="#63a0f9" /><rect width="60" height="10" x="130" y="160" fill="#254efb" /><rect width="10" height="10" x="190" y="160" fill="#63a0f9" /><rect width="50" height="10" x="200" y="160" fill="#254efb" /><rect width="40" height="10" x="80" y="170" fill="#254efb" /><rect width="10" height="10" x="120" y="170" fill="#63a0f9" /><rect width="60" height="10" x="130" y="170" fill="#254efb" /><rect width="10" height="10" x="190" y="170" fill="#63a0f9" /><rect width="40" height="10" x="200" y="170" fill="#254efb" /><rect width="40" height="10" x="90" y="180" fill="#254efb" /><rect width="10" height="10" x="130" y="180" fill="#63a0f9" /><rect width="40" height="10" x="140" y="180" fill="#254efb" /><rect width="10" height="10" x="180" y="180" fill="#63a0f9" /><rect width="40" height="10" x="190" y="180" fill="#254efb" /><rect width="30" height="10" x="100" y="190" fill="#254efb" /><rect width="10" height="10" x="130" y="190" fill="#63a0f9" /><rect width="40" height="10" x="140" y="190" fill="#254efb" /><rect width="10" height="10" x="180" y="190" fill="#63a0f9" /><rect width="30" height="10" x="190" y="190" fill="#254efb" /><rect width="20" height="10" x="110" y="200" fill="#254efb" /><rect width="10" height="10" x="130" y="200" fill="#63a0f9" /><rect width="40" height="10" x="140" y="200" fill="#254efb" /><rect width="10" height="10" x="180" y="200" fill="#63a0f9" /><rect width="20" height="10" x="190" y="200" fill="#254efb" /><rect width="20" height="10" x="120" y="210" fill="#254efb" /><rect width="10" height="10" x="140" y="210" fill="#63a0f9" /><rect width="20" height="10" x="150" y="210" fill="#254efb" /><rect width="10" height="10" x="170" y="210" fill="#63a0f9" /><rect width="20" height="10" x="180" y="210" fill="#254efb" /><rect width="10" height="10" x="130" y="220" fill="#254efb" /><rect width="10" height="10" x="140" y="220" fill="#63a0f9" /><rect width="20" height="10" x="150" y="220" fill="#254efb" /><rect width="10" height="10" x="170" y="220" fill="#63a0f9" /><rect width="10" height="10" x="180" y="220" fill="#254efb" /><rect width="10" height="10" x="140" y="230" fill="#63a0f9" /><rect width="20" height="10" x="150" y="230" fill="#254efb" /><rect width="10" height="10" x="170" y="230" fill="#63a0f9" /><rect width="20" height="10" x="150" y="240" fill="#254efb" /><rect width="60" height="10" x="100" y="110" fill="#ffef16" /><rect width="60" height="10" x="170" y="110" fill="#ffef16" /><rect width="10" height="10" x="100" y="120" fill="#ffef16" /><rect width="20" height="10" x="110" y="120" fill="#ffffff" /><rect width="20" height="10" x="130" y="120" fill="#000000" /><rect width="10" height="10" x="150" y="120" fill="#ffef16" /><rect width="10" height="10" x="170" y="120" fill="#ffef16" /><rect width="20" height="10" x="180" y="120" fill="#ffffff" /><rect width="20" height="10" x="200" y="120" fill="#000000" /><rect width="10" height="10" x="220" y="120" fill="#ffef16" /><rect width="40" height="10" x="70" y="130" fill="#ffef16" /><rect width="20" height="10" x="110" y="130" fill="#ffffff" /><rect width="20" height="10" x="130" y="130" fill="#000000" /><rect width="30" height="10" x="150" y="130" fill="#ffef16" /><rect width="20" height="10" x="180" y="130" fill="#ffffff" /><rect width="20" height="10" x="200" y="130" fill="#000000" /><rect width="10" height="10" x="220" y="130" fill="#ffef16" /><rect width="10" height="10" x="70" y="140" fill="#ffef16" /><rect width="10" height="10" x="100" y="140" fill="#ffef16" /><rect width="20" height="10" x="110" y="140" fill="#ffffff" /><rect width="20" height="10" x="130" y="140" fill="#000000" /><rect width="10" height="10" x="150" y="140" fill="#ffef16" /><rect width="10" height="10" x="170" y="140" fill="#ffef16" /><rect width="20" height="10" x="180" y="140" fill="#ffffff" /><rect width="20" height="10" x="200" y="140" fill="#000000" /><rect width="10" height="10" x="220" y="140" fill="#ffef16" /><rect width="10" height="10" x="70" y="150" fill="#ffef16" /><rect width="10" height="10" x="100" y="150" fill="#ffef16" /><rect width="20" height="10" x="110" y="150" fill="#ffffff" /><rect width="20" height="10" x="130" y="150" fill="#000000" /><rect width="10" height="10" x="150" y="150" fill="#ffef16" /><rect width="10" height="10" x="170" y="150" fill="#ffef16" /><rect width="20" height="10" x="180" y="150" fill="#ffffff" /><rect width="20" height="10" x="200" y="150" fill="#000000" /><rect width="10" height="10" x="220" y="150" fill="#ffef16" /><rect width="60" height="10" x="100" y="160" fill="#ffef16" /><rect width="60" height="10" x="170" y="160" fill="#ffef16" /></svg>