<svg xmlns:xlink="http://www.w3.org/1999/xlink" width="320" height="320" viewBox="0 0 320 320" xmlns="http://www.w3.org/2000/svg" shape-rendering="crispEdges"><rect width="100%" height="100%" fill="#e1d7d5" /><rect width="140" height="10" x="90" y="210" fill="#e9265c" /><rect width="140" height="10" x="90" y="220" fill="#e9265c" /><rect width="140" height="10" x="90" y="230" fill="#e9265c" /><rect width="140" height="10" x="90" y="240" fill="#e9265c" /><rect width="20" height="10" x="90" y="250" fill="#e9265c" /><rect width="110" height="10" x="120" y="250" fill="#e9265c" /><rect width="20" height="10" x="90" y="260" fill="#e9265c" /><rect width="110" height="10" x="120" y="260" fill="#e9265c" /><rect width="20" height="10" x="90" y="270" fill="#e9265c" /><rect width="110" height="10" x="120" y="270" fill="#e9265c" /><rect width="20" height="10" x="90" y="280" fill="#e9265c" /><rect width="110" height="10" x="120" y="280" fill="#e9265c" /><rect width="20" height="10" x="90" y="290" fill="#e9265c" /><rect width="110" height="10" x="120" y="290" fill="#e9265c" /><rect width="20" height="10" x="90" y="300" fill="#e9265c" /><rect width="110" height="10" x="120" y="300" fill="#e9265c" /><rect width="20" height="10" x="90" y="310" fill="#e9265c" /><rect width="110" height="10" x="120" y="310" fill="#e9265c" /><rect width="140" height="10" x="90" y="210" fill="#c5b9a1" /><rect width="140" height="10" x="90" y="220" fill="#c5b9a1" /><rect width="140" height="10" x="90" y="230" fill="#c5b9a1" /><rect width="140" height="10" x="90" y="240" fill="#c5b9a1" /><rect width="20" height="10" x="90" y="250" fill="#c5b9a1" /><rect width="110" height="10" x="120" y="250" fill="#c5b9a1" /><rect width="20" height="10" x="90" y="260" fill="#c5b9a1" /><rect width="110" height="10" x="120" y="260" fill="#c5b9a1" /><rect width="20" height="10" x="90" y="270" fill="#c5b9a1" /><rect width="110" height="10" x="120" y="270" fill="#c5b9a1" /><rect width="20" height="10" x="90" y="280" fill="#c5b9a1" /><rect width="110" height="10" x="120" y="280" fill="#c5b9a1" /><rect width="20" height="10" x="90" y="290" fill="#c5b9a1" /><rect width="110" height="10" x="120" y="290" fill="#c5b9a1" /><rect width="20" height="10" x="90" y="300" fill="#c5b9a1" /><rect width="110" height="10" x="120" y="300" fill="#c5b9a1" /><rect width="20" height="10" x="90" y="310" fill="#c5b9a1" /><rect width="110" height="10" x="120" y="310" fill="#c5b9a1" /><rect width="30" height="10" x="90" y="40" fill="#fff671" /><rect width="20" height="10" x="140" y="40" fill="#fff671" /><rect width="40" height="10" x="180" y="40" fill="#fff671" /><rect width="10" height="10" x="80" y="50" fill="#fff671" /><rect width="20" height="10" x="90" y="50" fill="#c4da53" /><rect width="30" height="10" x="110" y="50" fill="#fff671" /><rect width="10" height="10" x="140" y="50" fill="#c4da53" /><rect width="90" height="10" x="150" y="50" fill="#fff671" /><rect width="10" height="10" x="80" y="60" fill="#fff671" /><rect width="20" height="10" x="90" y="60" fill="#c4da53" /><rect width="90" height="10" x="110" y="60" fill="#fff671" /><rect width="30" height="10" x="200" y="60" fill="#c4da53" /><rect width="20" height="10" x="230" y="60" fill="#fff671" /><rect width="70" height="10" x="90" y="70" fill="#fff671" /><rect width="20" height="10" x="160" y="70" fill="#c4da53" /><rect width="20" height="10" x="180" y="70" fill="#fff671" /><rect width="30" height="10" x="200" y="70" fill="#c4da53" /><rect width="20" height="10" x="230" y="70" fill="#fff671" /><rect width="30" height="10" x="90" y="80" fill="#fff671" /><rect width="20" height="10" x="120" y="80" fill="#c4da53" /><rect width="20" height="10" x="140" y="80" fill="#fff671" /><rect width="20" height="10" x="160" y="80" fill="#c4da53" /><rect width="20" height="10" x="180" y="80" fill="#fff671" /><rect width="30" height="10" x="200" y="80" fill="#c4da53" /><rect width="20" height="10" x="230" y="80" fill="#fff671" /><rect width="30" height="10" x="90" y="90" fill="#fff671" /><rect width="20" height="10" x="120" y="90" fill="#c4da53" /><rect width="100" height="10" x="140" y="90" fill="#fff671" /><rect width="160" height="10" x="80" y="100" fill="#fff671" /><rect width="160" height="10" x="80" y="110" fill="#fff671" /><rect width="170" height="10" x="80" y="120" fill="#fff671" /><rect width="170" height="10" x="80" y="130" fill="#fff671" /><rect width="170" height="10" x="80" y="140" fill="#fff671" /><rect width="170" height="10" x="80" y="150" fill="#fff671" /><rect width="160" height="10" x="80" y="160" fill="#fff671" /><rect width="10" height="10" x="80" y="170" fill="#fff671" /><rect width="20" height="10" x="90" y="170" fill="#c4da53" /><rect width="130" height="10" x="110" y="170" fill="#fff671" /><rect width="10" height="10" x="80" y="180" fill="#fff671" /><rect width="20" height="10" x="90" y="180" fill="#c4da53" /><rect width="30" height="10" x="110" y="180" fill="#fff671" /><rect width="50" height="10" x="140" y="180" fill="#000000" /><rect width="40" height="10" x="190" y="180" fill="#fff671" /><rect width="130" height="10" x="90" y="190" fill="#fff671" /><rect width="10" height="10" x="220" y="190" fill="#c4da53" /><rect width="10" height="10" x="230" y="190" fill="#fff671" /><rect width="140" height="10" x="90" y="200" fill="#fff671" /><rect width="60" height="10" x="100" y="110" fill="#d7d3cd" /><rect width="60" height="10" x="170" y="110" fill="#d7d3cd" /><rect width="10" height="10" x="100" y="120" fill="#d7d3cd" /><rect width="20" height="10" x="110" y="120" fill="#fdf8ff" /><rect width="20" height="10" x="130" y="120" fill="#000000" /><rect width="10" height="10" x="150" y="120" fill="#d7d3cd" /><rect width="10" height="10" x="170" y="120" fill="#d7d3cd" /><rect width="20" height="10" x="180" y="120" fill="#fdf8ff" /><rect width="20" height="10" x="200" y="120" fill="#000000" /><rect width="10" height="10" x="220" y="120" fill="#d7d3cd" /><rect width="40" height="10" x="70" y="130" fill="#d7d3cd" /><rect width="20" height="10" x="110" y="130" fill="#fdf8ff" /><rect width="20" height="10" x="130" y="130" fill="#000000" /><rect width="30" height="10" x="150" y="130" fill="#d7d3cd" /><rect width="20" height="10" x="180" y="130" fill="#fdf8ff" /><rect width="20" height="10" x="200" y="130" fill="#000000" /><rect width="10" height="10" x="220" y="130" fill="#d7d3cd" /><rect width="10" height="10" x="70" y="140" fill="#d7d3cd" /><rect width="10" height="10" x="100" y="140" fill="#d7d3cd" /><rect width="20" height="10" x="110" y="140" fill="#fdf8ff" /><rect width="20" height="10" x="130" y="140" fill="#000000" /><rect width="10" height="10" x="150" y="140" fill="#d7d3cd" /><rect width="10" height="10" x="170" y="140" fill="#d7d3cd" /><rect width="20" height="10" x="180" y="140" fill="#fdf8ff" /><rect width="20" height="10" x="200" y="140" fill="#000000" /><rect width="10" height="10" x="220" y="140" fill="#d7d3cd" /><rect width="10" height="10" x="70" y="150" fill="#d7d3cd" /><rect width="10" height="10" x="100" y="150" fill="#d7d3cd" /><rect width="20" height="10" x="110" y="150" fill="#fdf8ff" /><rect width="20" height="10" x="130" y="150" fill="#000000" /><rect width="10" height="10" x="150" y="150" fill="#d7d3cd" /><rect width="10" height="10" x="170" y="150" fill="#d7d3cd" /><rect width="20" height="10" x="180" y="150" fill="#fdf8ff" /><rect width="20" height="10" x="200" y="150" fill="#000000" /><rect width="10" height="10" x="220" y="150" fill="#d7d3cd" /><rect width="60" height="10" x="100" y="160" fill="#d7d3cd" /><rect width="60" height="10" x="170" y="160" fill="#d7d3cd" /></svg>