<svg xmlns:xlink="http://www.w3.org/1999/xlink" width="320" height="320" viewBox="0 0 320 320" xmlns="http://www.w3.org/2000/svg" shape-rendering="crispEdges"><rect width="100%" height="100%" fill="#e1d7d5" /><rect width="140" height="10" x="90" y="210" fill="#fd8b5b" /><rect width="140" height="10" x="90" y="220" fill="#fd8b5b" /><rect width="140" height="10" x="90" y="230" fill="#fd8b5b" /><rect width="140" height="10" x="90" y="240" fill="#fd8b5b" /><rect width="20" height="10" x="90" y="250" fill="#fd8b5b" /><rect width="110" height="10" x="120" y="250" fill="#fd8b5b" /><rect width="20" height="10" x="90" y="260" fill="#fd8b5b" /><rect width="110" height="10" x="120" y="260" fill="#fd8b5b" /><rect width="20" height="10" x="90" y="270" fill="#fd8b5b" /><rect width="110" height="10" x="120" y="270" fill="#fd8b5b" /><rect width="20" height="10" x="90" y="280" fill="#fd8b5b" /><rect width="110" height="10" x="120" y="280" fill="#fd8b5b" /><rect width="20" height="10" x="90" y="290" fill="#fd8b5b" /><rect width="110" height="10" x="120" y="290" fill="#fd8b5b" /><rect width="20" height="10" x="90" y="300" fill="#fd8b5b" /><rect width="110" height="10" x="120" y="300" fill="#fd8b5b" /><rect width="20" height="10" x="90" y="310" fill="#fd8b5b" /><rect width="110" height="10" x="120" y="310" fill="#fd8b5b" /><rect width="40" height="10" x="150" y="240" fill="#00499c" /><rect width="10" height="10" x="140" y="250" fill="#00499c" /><rect width="20" height="10" x="160" y="250" fill="#00499c" /><rect width="10" height="10" x="190" y="250" fill="#00499c" /><rect width="10" height="10" x="130" y="260" fill="#00499c" /><rect width="20" height="10" x="160" y="260" fill="#00499c" /><rect width="10" height="10" x="200" y="260" fill="#00499c" /><rect width="10" height="10" x="140" y="270" fill="#00499c" /><rect width="10" height="10" x="190" y="270" fill="#00499c" /><rect width="40" height="10" x="150" y="280" fill="#00499c" /><rect width="120" height="10" x="20" y="90" fill="#7e5243" /><rect width="160" height="10" x="140" y="90" fill="#b2a8a5" /><rect width="110" height="10" x="30" y="100" fill="#7e5243" /><rect width="160" height="10" x="140" y="100" fill="#b2a8a5" /><rect width="30" height="10" x="40" y="110" fill="#7e5243" /><rect width="60" height="10" x="80" y="110" fill="#7e5243" /><rect width="160" height="10" x="140" y="110" fill="#b2a8a5" /><rect width="20" height="10" x="40" y="120" fill="#7e5243" /><rect width="50" height="10" x="90" y="120" fill="#7e5243" /><rect width="160" height="10" x="140" y="120" fill="#b2a8a5" /><rect width="20" height="10" x="40" y="130" fill="#7e5243" /><rect width="50" height="10" x="90" y="130" fill="#7e5243" /><rect width="160" height="10" x="140" y="130" fill="#b2a8a5" /><rect width="20" height="10" x="40" y="140" fill="#7e5243" /><rect width="50" height="10" x="90" y="140" fill="#7e5243" /><rect width="160" height="10" x="140" y="140" fill="#b2a8a5" /><rect width="20" height="10" x="40" y="150" fill="#7e5243" /><rect width="50" height="10" x="90" y="150" fill="#7e5243" /><rect width="160" height="10" x="140" y="150" fill="#b2a8a5" /><rect width="20" height="10" x="40" y="160" fill="#7e5243" /><rect width="50" height="10" x="90" y="160" fill="#7e5243" /><rect width="140" height="10" x="140" y="160" fill="#b2a8a5" /><rect width="10" height="10" x="290" y="160" fill="#b2a8a5" /><rect width="20" height="10" x="40" y="170" fill="#7e5243" /><rect width="50" height="10" x="90" y="170" fill="#7e5243" /><rect width="120" height="10" x="140" y="170" fill="#b2a8a5" /><rect width="10" height="10" x="270" y="170" fill="#b2a8a5" /><rect width="30" height="10" x="40" y="180" fill="#7e5243" /><rect width="20" height="10" x="80" y="180" fill="#7e5243" /><rect width="10" height="10" x="100" y="180" fill="#ffc110" /><rect width="20" height="10" x="110" y="180" fill="#7e5243" /><rect width="110" height="10" x="130" y="180" fill="#b2a8a5" /><rect width="10" height="10" x="250" y="180" fill="#b2a8a5" /><rect width="90" height="10" x="30" y="190" fill="#7e5243" /><rect width="30" height="10" x="120" y="190" fill="#b2a8a5" /><rect width="20" height="10" x="150" y="190" fill="#fff0ee" /><rect width="50" height="10" x="170" y="190" fill="#b2a8a5" /><rect width="10" height="10" x="230" y="190" fill="#b2a8a5" /><rect width="90" height="10" x="20" y="200" fill="#7e5243" /><rect width="20" height="10" x="110" y="200" fill="#b2a8a5" /><rect width="20" height="10" x="130" y="200" fill="#fff0ee" /><rect width="50" height="10" x="150" y="200" fill="#b2a8a5" /><rect width="10" height="10" x="210" y="200" fill="#b2a8a5" /><rect width="80" height="10" x="100" y="210" fill="#b2a8a5" /><rect width="60" height="10" x="100" y="110" fill="#d19a54" /><rect width="60" height="10" x="170" y="110" fill="#d19a54" /><rect width="10" height="10" x="100" y="120" fill="#d19a54" /><rect width="20" height="10" x="110" y="120" fill="#ffffff" /><rect width="20" height="10" x="130" y="120" fill="#000000" /><rect width="10" height="10" x="150" y="120" fill="#d19a54" /><rect width="10" height="10" x="170" y="120" fill="#d19a54" /><rect width="20" height="10" x="180" y="120" fill="#ffffff" /><rect width="20" height="10" x="200" y="120" fill="#000000" /><rect width="10" height="10" x="220" y="120" fill="#d19a54" /><rect width="40" height="10" x="70" y="130" fill="#d19a54" /><rect width="20" height="10" x="110" y="130" fill="#ffffff" /><rect width="20" height="10" x="130" y="130" fill="#000000" /><rect width="30" height="10" x="150" y="130" fill="#d19a54" /><rect width="20" height="10" x="180" y="130" fill="#ffffff" /><rect width="20" height="10" x="200" y="130" fill="#000000" /><rect width="10" height="10" x="220" y="130" fill="#d19a54" /><rect width="10" height="10" x="70" y="140" fill="#d19a54" /><rect width="10" height="10" x="100" y="140" fill="#d19a54" /><rect width="20" height="10" x="110" y="140" fill="#ffffff" /><rect width="20" height="10" x="130" y="140" fill="#000000" /><rect width="10" height="10" x="150" y="140" fill="#d19a54" /><rect width="10" height="10" x="170" y="140" fill="#d19a54" /><rect width="20" height="10" x="180" y="140" fill="#ffffff" /><rect width="20" height="10" x="200" y="140" fill="#000000" /><rect width="10" height="10" x="220" y="140" fill="#d19a54" /><rect width="10" height="10" x="70" y="150" fill="#d19a54" /><rect width="10" height="10" x="100" y="150" fill="#d19a54" /><rect width="20" height="10" x="110" y="150" fill="#ffffff" /><rect width="20" height="10" x="130" y="150" fill="#000000" /><rect width="10" height="10" x="150" y="150" fill="#d19a54" /><rect width="10" height="10" x="170" y="150" fill="#d19a54" /><rect width="20" height="10" x="180" y="150" fill="#ffffff" /><rect width="20" height="10" x="200" y="150" fill="#000000" /><rect width="10" height="10" x="220" y="150" fill="#d19a54" /><rect width="60" height="10" x="100" y="160" fill="#d19a54" /><rect width="60" height="10" x="170" y="160" fill="#d19a54" /></svg>