<svg xmlns:xlink="http://www.w3.org/1999/xlink" width="320" height="320" viewBox="0 0 320 320" xmlns="http://www.w3.org/2000/svg" shape-rendering="crispEdges"><rect width="100%" height="100%" fill="#e1d7d5" /><rect width="140" height="10" x="90" y="210" fill="#eed811" /><rect width="140" height="10" x="90" y="220" fill="#eed811" /><rect width="140" height="10" x="90" y="230" fill="#eed811" /><rect width="140" height="10" x="90" y="240" fill="#eed811" /><rect width="20" height="10" x="90" y="250" fill="#eed811" /><rect width="110" height="10" x="120" y="250" fill="#eed811" /><rect width="20" height="10" x="90" y="260" fill="#eed811" /><rect width="110" height="10" x="120" y="260" fill="#eed811" /><rect width="20" height="10" x="90" y="270" fill="#eed811" /><rect width="110" height="10" x="120" y="270" fill="#eed811" /><rect width="20" height="10" x="90" y="280" fill="#eed811" /><rect width="110" height="10" x="120" y="280" fill="#eed811" /><rect width="20" height="10" x="90" y="290" fill="#eed811" /><rect width="110" height="10" x="120" y="290" fill="#eed811" /><rect width="20" height="10" x="90" y="300" fill="#eed811" /><rect width="110" height="10" x="120" y="300" fill="#eed811" /><rect width="20" height="10" x="90" y="310" fill="#eed811" /><rect width="110" height="10" x="120" y="310" fill="#eed811" /><rect width="30" height="10" x="90" y="210" fill="#b2958d" /><rect width="30" height="10" x="130" y="210" fill="#b2958d" /><rect width="30" height="10" x="170" y="210" fill="#b2958d" /><rect width="20" height="10" x="210" y="210" fill="#b2958d" /><rect width="10" height="10" x="90" y="230" fill="#b2958d" /><rect width="30" height="10" x="110" y="230" fill="#b2958d" /><rect width="30" height="10" x="150" y="230" fill="#b2958d" /><rect width="30" height="10" x="190" y="230" fill="#b2958d" /><rect width="10" height="10" x="100" y="240" fill="#b2958d" /><rect width="10" height="10" x="140" y="240" fill="#b2958d" /><rect width="10" height="10" x="180" y="240" fill="#b2958d" /><rect width="10" height="10" x="220" y="240" fill="#b2958d" /><rect width="10" height="10" x="90" y="250" fill="#b2958d" /><rect width="20" height="10" x="120" y="250" fill="#b2958d" /><rect width="30" height="10" x="150" y="250" fill="#b2958d" /><rect width="30" height="10" x="190" y="250" fill="#b2958d" /><rect width="20" height="10" x="90" y="270" fill="#b2958d" /><rect width="30" height="10" x="130" y="270" fill="#b2958d" /><rect width="30" height="10" x="170" y="270" fill="#b2958d" /><rect width="20" height="10" x="210" y="270" fill="#b2958d" /><rect width="10" height="10" x="120" y="280" fill="#b2958d" /><rect width="10" height="10" x="160" y="280" fill="#b2958d" /><rect width="10" height="10" x="200" y="280" fill="#b2958d" /><rect width="20" height="10" x="90" y="290" fill="#b2958d" /><rect width="30" height="10" x="130" y="290" fill="#b2958d" /><rect width="30" height="10" x="170" y="290" fill="#b2958d" /><rect width="20" height="10" x="210" y="290" fill="#b2958d" /><rect width="10" height="10" x="90" y="310" fill="#b2958d" /><rect width="20" height="10" x="120" y="310" fill="#b2958d" /><rect width="30" height="10" x="150" y="310" fill="#b2958d" /><rect width="30" height="10" x="190" y="310" fill="#b2958d" /><rect width="40" height="10" x="190" y="20" fill="#9eb5e1" /><rect width="100" height="10" x="150" y="30" fill="#9eb5e1" /><rect width="20" height="10" x="130" y="40" fill="#9eb5e1" /><rect width="10" height="10" x="150" y="40" fill="#254efb" /><rect width="100" height="10" x="160" y="40" fill="#9eb5e1" /><rect width="50" height="10" x="120" y="50" fill="#9eb5e1" /><rect width="20" height="10" x="170" y="50" fill="#254efb" /><rect width="20" height="10" x="190" y="50" fill="#2b83f6" /><rect width="10" height="10" x="210" y="50" fill="#254efb" /><rect width="20" height="10" x="220" y="50" fill="#9eb5e1" /><rect width="10" height="10" x="240" y="50" fill="#254efb" /><rect width="20" height="10" x="250" y="50" fill="#9eb5e1" /><rect width="20" height="10" x="110" y="60" fill="#9eb5e1" /><rect width="20" height="10" x="130" y="60" fill="#254efb" /><rect width="10" height="10" x="150" y="60" fill="#9eb5e1" /><rect width="20" height="10" x="160" y="60" fill="#254efb" /><rect width="10" height="10" x="180" y="60" fill="#2b83f6" /><rect width="50" height="10" x="190" y="60" fill="#254efb" /><rect width="20" height="10" x="240" y="60" fill="#9eb5e1" /><rect width="10" height="10" x="260" y="60" fill="#254efb" /><rect width="10" height="10" x="270" y="60" fill="#9eb5e1" /><rect width="20" height="10" x="100" y="70" fill="#9eb5e1" /><rect width="20" height="10" x="120" y="70" fill="#254efb" /><rect width="10" height="10" x="140" y="70" fill="#9eb5e1" /><rect width="20" height="10" x="150" y="70" fill="#254efb" /><rect width="10" height="10" x="170" y="70" fill="#9eb5e1" /><rect width="30" height="10" x="180" y="70" fill="#254efb" /><rect width="10" height="10" x="210" y="70" fill="#9eb5e1" /><rect width="10" height="10" x="220" y="70" fill="#2b83f6" /><rect width="20" height="10" x="230" y="70" fill="#254efb" /><rect width="30" height="10" x="250" y="70" fill="#9eb5e1" /><rect width="10" height="10" x="100" y="80" fill="#9eb5e1" /><rect width="30" height="10" x="110" y="80" fill="#254efb" /><rect width="10" height="10" x="140" y="80" fill="#9eb5e1" /><rect width="20" height="10" x="150" y="80" fill="#254efb" /><rect width="10" height="10" x="170" y="80" fill="#9eb5e1" /><rect width="20" height="10" x="180" y="80" fill="#254efb" /><rect width="10" height="10" x="200" y="80" fill="#9eb5e1" /><rect width="60" height="10" x="210" y="80" fill="#254efb" /><rect width="10" height="10" x="270" y="80" fill="#9eb5e1" /><rect width="20" height="10" x="90" y="90" fill="#9eb5e1" /><rect width="20" height="10" x="110" y="90" fill="#254efb" /><rect width="10" height="10" x="130" y="90" fill="#9eb5e1" /><rect width="20" height="10" x="140" y="90" fill="#254efb" /><rect width="10" height="10" x="160" y="90" fill="#9eb5e1" /><rect width="30" height="10" x="170" y="90" fill="#254efb" /><rect width="10" height="10" x="200" y="90" fill="#9eb5e1" /><rect width="20" height="10" x="210" y="90" fill="#254efb" /><rect width="10" height="10" x="260" y="90" fill="#254efb" /><rect width="10" height="10" x="270" y="90" fill="#9eb5e1" /><rect width="10" height="10" x="90" y="100" fill="#9eb5e1" /><rect width="30" height="10" x="100" y="100" fill="#254efb" /><rect width="10" height="10" x="130" y="100" fill="#9eb5e1" /><rect width="20" height="10" x="140" y="100" fill="#254efb" /><rect width="10" height="10" x="160" y="100" fill="#9eb5e1" /><rect width="50" height="10" x="170" y="100" fill="#254efb" /><rect width="10" height="10" x="260" y="100" fill="#9eb5e1" /><rect width="10" height="10" x="80" y="110" fill="#9eb5e1" /><rect width="130" height="10" x="90" y="110" fill="#254efb" /><rect width="10" height="10" x="80" y="120" fill="#9eb5e1" /><rect width="130" height="10" x="90" y="120" fill="#254efb" /><rect width="20" height="10" x="70" y="130" fill="#9eb5e1" /><rect width="130" height="10" x="90" y="130" fill="#254efb" /><rect width="10" height="10" x="70" y="140" fill="#9eb5e1" /><rect width="140" height="10" x="80" y="140" fill="#254efb" /><rect width="10" height="10" x="60" y="150" fill="#9eb5e1" /><rect width="150" height="10" x="70" y="150" fill="#254efb" /><rect width="10" height="10" x="60" y="160" fill="#9eb5e1" /><rect width="150" height="10" x="70" y="160" fill="#254efb" /><rect width="10" height="10" x="50" y="170" fill="#9eb5e1" /><rect width="70" height="10" x="60" y="170" fill="#254efb" /><rect width="10" height="10" x="130" y="170" fill="#2b83f6" /><rect width="20" height="10" x="140" y="170" fill="#254efb" /><rect width="10" height="10" x="160" y="170" fill="#2b83f6" /><rect width="30" height="10" x="170" y="170" fill="#254efb" /><rect width="10" height="10" x="200" y="170" fill="#2b83f6" /><rect width="10" height="10" x="210" y="170" fill="#254efb" /><rect width="10" height="10" x="50" y="180" fill="#9eb5e1" /><rect width="40" height="10" x="60" y="180" fill="#254efb" /><rect width="10" height="10" x="100" y="180" fill="#9eb5e1" /><rect width="20" height="10" x="110" y="180" fill="#254efb" /><rect width="10" height="10" x="130" y="180" fill="#2b83f6" /><rect width="30" height="10" x="140" y="180" fill="#254efb" /><rect width="10" height="10" x="170" y="180" fill="#2b83f6" /><rect width="30" height="10" x="180" y="180" fill="#254efb" /><rect width="10" height="10" x="210" y="180" fill="#2b83f6" /><rect width="10" height="10" x="220" y="180" fill="#254efb" /><rect width="10" height="10" x="10" y="190" fill="#9eb5e1" /><rect width="10" height="10" x="40" y="190" fill="#9eb5e1" /><rect width="40" height="10" x="50" y="190" fill="#254efb" /><rect width="10" height="10" x="90" y="190" fill="#9eb5e1" /><rect width="40" height="10" x="100" y="190" fill="#254efb" /><rect width="10" height="10" x="140" y="190" fill="#2b83f6" /><rect width="30" height="10" x="150" y="190" fill="#254efb" /><rect width="20" height="10" x="180" y="190" fill="#2b83f6" /><rect width="50" height="10" x="200" y="190" fill="#254efb" /><rect width="20" height="10" x="20" y="200" fill="#9eb5e1" /><rect width="220" height="10" x="40" y="200" fill="#254efb" /><rect width="10" height="10" x="270" y="200" fill="#254efb" /><rect width="60" height="10" x="100" y="110" fill="#ffef16" /><rect width="60" height="10" x="170" y="110" fill="#ffef16" /><rect width="10" height="10" x="100" y="120" fill="#ffef16" /><rect width="20" height="10" x="110" y="120" fill="#ffffff" /><rect width="20" height="10" x="130" y="120" fill="#000000" /><rect width="10" height="10" x="150" y="120" fill="#ffef16" /><rect width="10" height="10" x="170" y="120" fill="#ffef16" /><rect width="20" height="10" x="180" y="120" fill="#ffffff" /><rect width="20" height="10" x="200" y="120" fill="#000000" /><rect width="10" height="10" x="220" y="120" fill="#ffef16" /><rect width="40" height="10" x="70" y="130" fill="#ffef16" /><rect width="20" height="10" x="110" y="130" fill="#ffffff" /><rect width="20" height="10" x="130" y="130" fill="#000000" /><rect width="30" height="10" x="150" y="130" fill="#ffef16" /><rect width="20" height="10" x="180" y="130" fill="#ffffff" /><rect width="20" height="10" x="200" y="130" fill="#000000" /><rect width="10" height="10" x="220" y="130" fill="#ffef16" /><rect width="10" height="10" x="70" y="140" fill="#ffef16" /><rect width="10" height="10" x="100" y="140" fill="#ffef16" /><rect width="20" height="10" x="110" y="140" fill="#ffffff" /><rect width="20" height="10" x="130" y="140" fill="#000000" /><rect width="10" height="10" x="150" y="140" fill="#ffef16" /><rect width="10" height="10" x="170" y="140" fill="#ffef16" /><rect width="20" height="10" x="180" y="140" fill="#ffffff" /><rect width="20" height="10" x="200" y="140" fill="#000000" /><rect width="10" height="10" x="220" y="140" fill="#ffef16" /><rect width="10" height="10" x="70" y="150" fill="#ffef16" /><rect width="10" height="10" x="100" y="150" fill="#ffef16" /><rect width="20" height="10" x="110" y="150" fill="#ffffff" /><rect width="20" height="10" x="130" y="150" fill="#000000" /><rect width="10" height="10" x="150" y="150" fill="#ffef16" /><rect width="10" height="10" x="170" y="150" fill="#ffef16" /><rect width="20" height="10" x="180" y="150" fill="#ffffff" /><rect width="20" height="10" x="200" y="150" fill="#000000" /><rect width="10" height="10" x="220" y="150" fill="#ffef16" /><rect width="60" height="10" x="100" y="160" fill="#ffef16" /><rect width="60" height="10" x="170" y="160" fill="#ffef16" /></svg>