<svg xmlns:xlink="http://www.w3.org/1999/xlink" width="320" height="320" viewBox="0 0 320 320" xmlns="http://www.w3.org/2000/svg" shape-rendering="crispEdges"><rect width="100%" height="100%" fill="#d5d7e1" /><rect width="140" height="10" x="90" y="210" fill="#cfc2ab" /><rect width="140" height="10" x="90" y="220" fill="#cfc2ab" /><rect width="140" height="10" x="90" y="230" fill="#cfc2ab" /><rect width="140" height="10" x="90" y="240" fill="#cfc2ab" /><rect width="20" height="10" x="90" y="250" fill="#cfc2ab" /><rect width="110" height="10" x="120" y="250" fill="#cfc2ab" /><rect width="20" height="10" x="90" y="260" fill="#cfc2ab" /><rect width="110" height="10" x="120" y="260" fill="#cfc2ab" /><rect width="20" height="10" x="90" y="270" fill="#cfc2ab" /><rect width="110" height="10" x="120" y="270" fill="#cfc2ab" /><rect width="20" height="10" x="90" y="280" fill="#cfc2ab" /><rect width="110" height="10" x="120" y="280" fill="#cfc2ab" /><rect width="20" height="10" x="90" y="290" fill="#cfc2ab" /><rect width="110" height="10" x="120" y="290" fill="#cfc2ab" /><rect width="20" height="10" x="90" y="300" fill="#cfc2ab" /><rect width="110" height="10" x="120" y="300" fill="#cfc2ab" /><rect width="20" height="10" x="90" y="310" fill="#cfc2ab" /><rect width="110" height="10" x="120" y="310" fill="#cfc2ab" /><rect width="90" height="10" x="120" y="210" fill="#000000" /><rect width="50" height="10" x="120" y="220" fill="#000000" /><rect width="30" height="10" x="180" y="220" fill="#000000" /><rect width="20" height="10" x="120" y="230" fill="#000000" /><rect width="20" height="10" x="150" y="230" fill="#000000" /><rect width="20" height="10" x="190" y="230" fill="#000000" /><rect width="10" height="10" x="120" y="240" fill="#000000" /><rect width="10" height="10" x="150" y="240" fill="#000000" /><rect width="10" height="10" x="160" y="240" fill="#f7913d" /><rect width="10" height="10" x="200" y="240" fill="#000000" /><rect width="20" height="10" x="150" y="250" fill="#000000" /><rect width="20" height="10" x="150" y="260" fill="#000000" /><rect width="20" height="10" x="150" y="270" fill="#000000" /><rect width="20" height="10" x="150" y="280" fill="#000000" /><rect width="10" height="10" x="150" y="290" fill="#000000" /><rect width="10" height="10" x="160" y="290" fill="#f7913d" /><rect width="20" height="10" x="150" y="300" fill="#000000" /><rect width="20" height="10" x="150" y="310" fill="#000000" /><rect width="50" height="10" x="140" y="20" fill="#d4b7b2" /><rect width="40" height="10" x="110" y="30" fill="#d4b7b2" /><rect width="30" height="10" x="150" y="30" fill="#d18687" /><rect width="40" height="10" x="180" y="30" fill="#d4b7b2" /><rect width="10" height="10" x="110" y="40" fill="#d4b7b2" /><rect width="90" height="10" x="120" y="40" fill="#d18687" /><rect width="10" height="10" x="210" y="40" fill="#d4b7b2" /><rect width="30" height="10" x="90" y="50" fill="#d4b7b2" /><rect width="90" height="10" x="120" y="50" fill="#d18687" /><rect width="30" height="10" x="210" y="50" fill="#d4b7b2" /><rect width="10" height="10" x="90" y="60" fill="#d4b7b2" /><rect width="50" height="10" x="100" y="60" fill="#d18687" /><rect width="30" height="10" x="150" y="60" fill="#a86f60" /><rect width="50" height="10" x="180" y="60" fill="#d18687" /><rect width="10" height="10" x="230" y="60" fill="#d4b7b2" /><rect width="40" height="10" x="60" y="70" fill="#d4b7b2" /><rect width="20" height="10" x="100" y="70" fill="#d18687" /><rect width="90" height="10" x="120" y="70" fill="#a86f60" /><rect width="20" height="10" x="210" y="70" fill="#d18687" /><rect width="40" height="10" x="230" y="70" fill="#d4b7b2" /><rect width="10" height="10" x="60" y="80" fill="#d4b7b2" /><rect width="50" height="10" x="70" y="80" fill="#d18687" /><rect width="90" height="10" x="120" y="80" fill="#a86f60" /><rect width="50" height="10" x="210" y="80" fill="#d18687" /><rect width="10" height="10" x="260" y="80" fill="#d4b7b2" /><rect width="10" height="10" x="60" y="90" fill="#d4b7b2" /><rect width="20" height="10" x="70" y="90" fill="#d18687" /><rect width="150" height="10" x="90" y="90" fill="#a86f60" /><rect width="20" height="10" x="240" y="90" fill="#d18687" /><rect width="10" height="10" x="260" y="90" fill="#d4b7b2" /><rect width="30" height="10" x="40" y="100" fill="#d4b7b2" /><rect width="10" height="10" x="70" y="100" fill="#d18687" /><rect width="170" height="10" x="80" y="100" fill="#a86f60" /><rect width="10" height="10" x="250" y="100" fill="#d18687" /><rect width="30" height="10" x="260" y="100" fill="#d4b7b2" /><rect width="10" height="10" x="40" y="110" fill="#d4b7b2" /><rect width="30" height="10" x="50" y="110" fill="#d18687" /><rect width="170" height="10" x="80" y="110" fill="#a86f60" /><rect width="30" height="10" x="250" y="110" fill="#d18687" /><rect width="10" height="10" x="280" y="110" fill="#d4b7b2" /><rect width="10" height="10" x="40" y="120" fill="#d4b7b2" /><rect width="20" height="10" x="50" y="120" fill="#d18687" /><rect width="190" height="10" x="70" y="120" fill="#a86f60" /><rect width="20" height="10" x="260" y="120" fill="#d18687" /><rect width="10" height="10" x="280" y="120" fill="#d4b7b2" /><rect width="10" height="10" x="40" y="130" fill="#d4b7b2" /><rect width="40" height="10" x="50" y="130" fill="#d18687" /><rect width="60" height="10" x="90" y="130" fill="#a86f60" /><rect width="30" height="10" x="150" y="130" fill="#fff0ee" /><rect width="70" height="10" x="180" y="130" fill="#a86f60" /><rect width="30" height="10" x="250" y="130" fill="#d18687" /><rect width="10" height="10" x="280" y="130" fill="#d4b7b2" /><rect width="20" height="10" x="50" y="140" fill="#d4b7b2" /><rect width="30" height="10" x="70" y="140" fill="#d18687" /><rect width="40" height="10" x="100" y="140" fill="#a86f60" /><rect width="50" height="10" x="140" y="140" fill="#fff0ee" /><rect width="40" height="10" x="190" y="140" fill="#a86f60" /><rect width="30" height="10" x="230" y="140" fill="#d18687" /><rect width="20" height="10" x="260" y="140" fill="#d4b7b2" /><rect width="20" height="10" x="70" y="150" fill="#d4b7b2" /><rect width="10" height="10" x="90" y="150" fill="#d18687" /><rect width="30" height="10" x="100" y="150" fill="#a86f60" /><rect width="70" height="10" x="130" y="150" fill="#fff0ee" /><rect width="30" height="10" x="200" y="150" fill="#a86f60" /><rect width="10" height="10" x="230" y="150" fill="#d18687" /><rect width="20" height="10" x="240" y="150" fill="#d4b7b2" /><rect width="10" height="10" x="90" y="160" fill="#d4b7b2" /><rect width="10" height="10" x="100" y="160" fill="#a86f60" /><rect width="20" height="10" x="110" y="160" fill="#e11833" /><rect width="70" height="10" x="130" y="160" fill="#fff0ee" /><rect width="20" height="10" x="200" y="160" fill="#e11833" /><rect width="10" height="10" x="220" y="160" fill="#a86f60" /><rect width="10" height="10" x="230" y="160" fill="#d4b7b2" /><rect width="10" height="10" x="80" y="170" fill="#d4b7b2" /><rect width="150" height="10" x="90" y="170" fill="#e11833" /><rect width="10" height="10" x="240" y="170" fill="#d4b7b2" /><rect width="40" height="10" x="70" y="180" fill="#d4b7b2" /><rect width="30" height="10" x="110" y="180" fill="#e11833" /><rect width="50" height="10" x="140" y="180" fill="#d4b7b2" /><rect width="30" height="10" x="190" y="180" fill="#e11833" /><rect width="40" height="10" x="220" y="180" fill="#d4b7b2" /><rect width="10" height="10" x="70" y="190" fill="#d4b7b2" /><rect width="20" height="10" x="80" y="190" fill="#c3a199" /><rect width="50" height="10" x="100" y="190" fill="#d4b7b2" /><rect width="30" height="10" x="150" y="190" fill="#c3a199" /><rect width="50" height="10" x="180" y="190" fill="#d4b7b2" /><rect width="20" height="10" x="230" y="190" fill="#c3a199" /><rect width="10" height="10" x="250" y="190" fill="#d4b7b2" /><rect width="170" height="10" x="80" y="200" fill="#c3a199" /><rect width="60" height="10" x="100" y="110" fill="#000000" /><rect width="60" height="10" x="170" y="110" fill="#000000" /><rect width="40" height="10" x="100" y="120" fill="#000000" /><rect width="10" height="10" x="140" y="120" fill="#ffffff" /><rect width="10" height="10" x="150" y="120" fill="#000000" /><rect width="40" height="10" x="170" y="120" fill="#000000" /><rect width="10" height="10" x="210" y="120" fill="#ffffff" /><rect width="10" height="10" x="220" y="120" fill="#000000" /><rect width="70" height="10" x="70" y="130" fill="#000000" /><rect width="10" height="10" x="140" y="130" fill="#ffffff" /><rect width="60" height="10" x="150" y="130" fill="#000000" /><rect width="10" height="10" x="210" y="130" fill="#ffffff" /><rect width="10" height="10" x="220" y="130" fill="#000000" /><rect width="10" height="10" x="70" y="140" fill="#000000" /><rect width="60" height="10" x="100" y="140" fill="#000000" /><rect width="60" height="10" x="170" y="140" fill="#000000" /><rect width="10" height="10" x="70" y="150" fill="#000000" /><rect width="60" height="10" x="100" y="150" fill="#000000" /><rect width="60" height="10" x="170" y="150" fill="#000000" /><rect width="60" height="10" x="100" y="160" fill="#000000" /><rect width="60" height="10" x="170" y="160" fill="#000000" /></svg>