<svg xmlns:xlink="http://www.w3.org/1999/xlink" width="320" height="320" viewBox="0 0 320 320" xmlns="http://www.w3.org/2000/svg" shape-rendering="crispEdges"><rect width="100%" height="100%" fill="#e1d7d5" /><rect width="140" height="10" x="90" y="210" fill="#d26451" /><rect width="140" height="10" x="90" y="220" fill="#d26451" /><rect width="140" height="10" x="90" y="230" fill="#d26451" /><rect width="140" height="10" x="90" y="240" fill="#d26451" /><rect width="20" height="10" x="90" y="250" fill="#d26451" /><rect width="110" height="10" x="120" y="250" fill="#d26451" /><rect width="20" height="10" x="90" y="260" fill="#d26451" /><rect width="110" height="10" x="120" y="260" fill="#d26451" /><rect width="20" height="10" x="90" y="270" fill="#d26451" /><rect width="110" height="10" x="120" y="270" fill="#d26451" /><rect width="20" height="10" x="90" y="280" fill="#d26451" /><rect width="110" height="10" x="120" y="280" fill="#d26451" /><rect width="20" height="10" x="90" y="290" fill="#d26451" /><rect width="110" height="10" x="120" y="290" fill="#d26451" /><rect width="20" height="10" x="90" y="300" fill="#d26451" /><rect width="110" height="10" x="120" y="300" fill="#d26451" /><rect width="20" height="10" x="90" y="310" fill="#d26451" /><rect width="110" height="10" x="120" y="310" fill="#d26451" /><rect width="40" height="10" x="140" y="210" fill="#000000" /><rect width="10" height="10" x="140" y="220" fill="#e5e5de" /><rect width="20" height="10" x="150" y="220" fill="#000000" /><rect width="10" height="10" x="170" y="220" fill="#e5e5de" /><rect width="10" height="10" x="140" y="230" fill="#e5e5de" /><rect width="20" height="10" x="150" y="230" fill="#000000" /><rect width="10" height="10" x="170" y="230" fill="#e5e5de" /><rect width="10" height="10" x="140" y="240" fill="#e5e5de" /><rect width="20" height="10" x="150" y="240" fill="#000000" /><rect width="10" height="10" x="170" y="240" fill="#e5e5de" /><rect width="10" height="10" x="140" y="250" fill="#e5e5de" /><rect width="20" height="10" x="150" y="250" fill="#000000" /><rect width="10" height="10" x="170" y="250" fill="#e5e5de" /><rect width="10" height="10" x="140" y="260" fill="#e5e5de" /><rect width="20" height="10" x="150" y="260" fill="#000000" /><rect width="10" height="10" x="170" y="260" fill="#e5e5de" /><rect width="10" height="10" x="140" y="270" fill="#e5e5de" /><rect width="20" height="10" x="150" y="270" fill="#000000" /><rect width="10" height="10" x="170" y="270" fill="#e5e5de" /><rect width="10" height="10" x="140" y="280" fill="#e5e5de" /><rect width="20" height="10" x="150" y="280" fill="#000000" /><rect width="10" height="10" x="170" y="280" fill="#e5e5de" /><rect width="10" height="10" x="140" y="290" fill="#e5e5de" /><rect width="20" height="10" x="150" y="290" fill="#000000" /><rect width="10" height="10" x="170" y="290" fill="#e5e5de" /><rect width="10" height="10" x="140" y="300" fill="#e5e5de" /><rect width="20" height="10" x="150" y="300" fill="#000000" /><rect width="10" height="10" x="170" y="300" fill="#e5e5de" /><rect width="10" height="10" x="140" y="310" fill="#e5e5de" /><rect width="20" height="10" x="150" y="310" fill="#000000" /><rect width="10" height="10" x="170" y="310" fill="#e5e5de" /><rect width="60" height="10" x="130" y="30" fill="#d6c3be" /><rect width="20" height="10" x="110" y="40" fill="#d6c3be" /><rect width="60" height="10" x="130" y="40" fill="#70e890" /><rect width="20" height="10" x="190" y="40" fill="#d6c3be" /><rect width="20" height="10" x="90" y="50" fill="#d6c3be" /><rect width="100" height="10" x="110" y="50" fill="#70e890" /><rect width="20" height="10" x="210" y="50" fill="#d6c3be" /><rect width="10" height="10" x="80" y="60" fill="#d6c3be" /><rect width="140" height="10" x="90" y="60" fill="#70e890" /><rect width="10" height="10" x="230" y="60" fill="#d6c3be" /><rect width="10" height="10" x="70" y="70" fill="#d6c3be" /><rect width="10" height="10" x="80" y="70" fill="#c4da53" /><rect width="150" height="10" x="90" y="70" fill="#70e890" /><rect width="10" height="10" x="240" y="70" fill="#d6c3be" /><rect width="10" height="10" x="70" y="80" fill="#d6c3be" /><rect width="20" height="10" x="80" y="80" fill="#c4da53" /><rect width="140" height="10" x="100" y="80" fill="#70e890" /><rect width="10" height="10" x="240" y="80" fill="#d6c3be" /><rect width="10" height="10" x="60" y="90" fill="#d6c3be" /><rect width="50" height="10" x="70" y="90" fill="#c4da53" /><rect width="110" height="10" x="120" y="90" fill="#70e890" /><rect width="20" height="10" x="230" y="90" fill="#2b83f6" /><rect width="10" height="10" x="250" y="90" fill="#d6c3be" /><rect width="10" height="10" x="60" y="100" fill="#d6c3be" /><rect width="60" height="10" x="70" y="100" fill="#c4da53" /><rect width="10" height="10" x="130" y="100" fill="#70e890" /><rect width="40" height="10" x="140" y="100" fill="#5a423f" /><rect width="30" height="10" x="180" y="100" fill="#70e890" /><rect width="40" height="10" x="210" y="100" fill="#2b83f6" /><rect width="10" height="10" x="250" y="100" fill="#d6c3be" /><rect width="10" height="10" x="50" y="110" fill="#d6c3be" /><rect width="40" height="10" x="60" y="110" fill="#ff638d" /><rect width="30" height="10" x="100" y="110" fill="#c4da53" /><rect width="10" height="10" x="130" y="110" fill="#5a423f" /><rect width="40" height="10" x="140" y="110" fill="#d6c3be" /><rect width="10" height="10" x="180" y="110" fill="#5a423f" /><rect width="70" height="10" x="190" y="110" fill="#2b83f6" /><rect width="10" height="10" x="260" y="110" fill="#d6c3be" /><rect width="10" height="10" x="50" y="120" fill="#d6c3be" /><rect width="60" height="10" x="60" y="120" fill="#ff638d" /><rect width="10" height="10" x="120" y="120" fill="#5a423f" /><rect width="60" height="10" x="130" y="120" fill="#d6c3be" /><rect width="10" height="10" x="190" y="120" fill="#5a423f" /><rect width="60" height="10" x="200" y="120" fill="#2b83f6" /><rect width="10" height="10" x="260" y="120" fill="#d6c3be" /><rect width="10" height="10" x="50" y="130" fill="#d6c3be" /><rect width="60" height="10" x="60" y="130" fill="#ff638d" /><rect width="10" height="10" x="120" y="130" fill="#5a423f" /><rect width="20" height="10" x="130" y="130" fill="#d6c3be" /><rect width="20" height="10" x="170" y="130" fill="#d6c3be" /><rect width="10" height="10" x="190" y="130" fill="#5a423f" /><rect width="60" height="10" x="200" y="130" fill="#2b83f6" /><rect width="10" height="10" x="260" y="130" fill="#d6c3be" /><rect width="10" height="10" x="50" y="140" fill="#d6c3be" /><rect width="60" height="10" x="60" y="140" fill="#ff638d" /><rect width="10" height="10" x="120" y="140" fill="#5a423f" /><rect width="20" height="10" x="130" y="140" fill="#d6c3be" /><rect width="20" height="10" x="170" y="140" fill="#d6c3be" /><rect width="10" height="10" x="190" y="140" fill="#5a423f" /><rect width="60" height="10" x="200" y="140" fill="#cc0595" /><rect width="10" height="10" x="260" y="140" fill="#d6c3be" /><rect width="10" height="10" x="50" y="150" fill="#d6c3be" /><rect width="60" height="10" x="60" y="150" fill="#ffc110" /><rect width="10" height="10" x="120" y="150" fill="#5a423f" /><rect width="60" height="10" x="130" y="150" fill="#d6c3be" /><rect width="10" height="10" x="190" y="150" fill="#5a423f" /><rect width="60" height="10" x="200" y="150" fill="#cc0595" /><rect width="10" height="10" x="260" y="150" fill="#d6c3be" /><rect width="10" height="10" x="50" y="160" fill="#d6c3be" /><rect width="70" height="10" x="60" y="160" fill="#ffc110" /><rect width="10" height="10" x="130" y="160" fill="#5a423f" /><rect width="40" height="10" x="140" y="160" fill="#d6c3be" /><rect width="10" height="10" x="180" y="160" fill="#5a423f" /><rect width="20" height="10" x="190" y="160" fill="#ab36be" /><rect width="50" height="10" x="210" y="160" fill="#cc0595" /><rect width="10" height="10" x="260" y="160" fill="#d6c3be" /><rect width="10" height="10" x="60" y="170" fill="#d6c3be" /><rect width="40" height="10" x="70" y="170" fill="#ffc110" /><rect width="30" height="10" x="110" y="170" fill="#70e890" /><rect width="40" height="10" x="140" y="170" fill="#5a423f" /><rect width="10" height="10" x="180" y="170" fill="#70e890" /><rect width="40" height="10" x="190" y="170" fill="#ab36be" /><rect width="20" height="10" x="230" y="170" fill="#cc0595" /><rect width="10" height="10" x="250" y="170" fill="#d6c3be" /><rect width="10" height="10" x="60" y="180" fill="#d6c3be" /><rect width="20" height="10" x="70" y="180" fill="#ffc110" /><rect width="110" height="10" x="90" y="180" fill="#70e890" /><rect width="50" height="10" x="200" y="180" fill="#ab36be" /><rect width="10" height="10" x="250" y="180" fill="#d6c3be" /><rect width="10" height="10" x="70" y="190" fill="#d6c3be" /><rect width="130" height="10" x="80" y="190" fill="#70e890" /><rect width="30" height="10" x="210" y="190" fill="#ab36be" /><rect width="10" height="10" x="240" y="190" fill="#d6c3be" /><rect width="10" height="10" x="70" y="200" fill="#d6c3be" /><rect width="150" height="10" x="80" y="200" fill="#70e890" /><rect width="10" height="10" x="230" y="200" fill="#ab36be" /><rect width="10" height="10" x="240" y="200" fill="#d6c3be" /><rect width="10" height="10" x="80" y="210" fill="#d6c3be" /><rect width="140" height="10" x="90" y="210" fill="#70e890" /><rect width="10" height="10" x="230" y="210" fill="#d6c3be" /><rect width="20" height="10" x="90" y="220" fill="#d6c3be" /><rect width="100" height="10" x="110" y="220" fill="#70e890" /><rect width="20" height="10" x="210" y="220" fill="#d6c3be" /><rect width="20" height="10" x="110" y="230" fill="#d6c3be" /><rect width="60" height="10" x="130" y="230" fill="#70e890" /><rect width="20" height="10" x="190" y="230" fill="#d6c3be" /><rect width="60" height="10" x="130" y="240" fill="#d6c3be" /><rect width="60" height="10" x="100" y="110" fill="#000000" /><rect width="60" height="10" x="170" y="110" fill="#000000" /><rect width="40" height="10" x="100" y="120" fill="#000000" /><rect width="10" height="10" x="140" y="120" fill="#ffffff" /><rect width="10" height="10" x="150" y="120" fill="#000000" /><rect width="40" height="10" x="170" y="120" fill="#000000" /><rect width="10" height="10" x="210" y="120" fill="#ffffff" /><rect width="10" height="10" x="220" y="120" fill="#000000" /><rect width="70" height="10" x="70" y="130" fill="#000000" /><rect width="10" height="10" x="140" y="130" fill="#ffffff" /><rect width="60" height="10" x="150" y="130" fill="#000000" /><rect width="10" height="10" x="210" y="130" fill="#ffffff" /><rect width="10" height="10" x="220" y="130" fill="#000000" /><rect width="10" height="10" x="70" y="140" fill="#000000" /><rect width="60" height="10" x="100" y="140" fill="#000000" /><rect width="60" height="10" x="170" y="140" fill="#000000" /><rect width="10" height="10" x="70" y="150" fill="#000000" /><rect width="60" height="10" x="100" y="150" fill="#000000" /><rect width="60" height="10" x="170" y="150" fill="#000000" /><rect width="60" height="10" x="100" y="160" fill="#000000" /><rect width="60" height="10" x="170" y="160" fill="#000000" /></svg>