<svg xmlns:xlink="http://www.w3.org/1999/xlink" width="320" height="320" viewBox="0 0 320 320" xmlns="http://www.w3.org/2000/svg" shape-rendering="crispEdges"><rect width="100%" height="100%" fill="#e1d7d5" /><rect width="140" height="10" x="90" y="210" fill="#5a65fa" /><rect width="140" height="10" x="90" y="220" fill="#5a65fa" /><rect width="140" height="10" x="90" y="230" fill="#5a65fa" /><rect width="140" height="10" x="90" y="240" fill="#5a65fa" /><rect width="20" height="10" x="90" y="250" fill="#5a65fa" /><rect width="110" height="10" x="120" y="250" fill="#5a65fa" /><rect width="20" height="10" x="90" y="260" fill="#5a65fa" /><rect width="110" height="10" x="120" y="260" fill="#5a65fa" /><rect width="20" height="10" x="90" y="270" fill="#5a65fa" /><rect width="110" height="10" x="120" y="270" fill="#5a65fa" /><rect width="20" height="10" x="90" y="280" fill="#5a65fa" /><rect width="110" height="10" x="120" y="280" fill="#5a65fa" /><rect width="20" height="10" x="90" y="290" fill="#5a65fa" /><rect width="110" height="10" x="120" y="290" fill="#5a65fa" /><rect width="20" height="10" x="90" y="300" fill="#5a65fa" /><rect width="110" height="10" x="120" y="300" fill="#5a65fa" /><rect width="20" height="10" x="90" y="310" fill="#5a65fa" /><rect width="110" height="10" x="120" y="310" fill="#5a65fa" /><rect width="20" height="10" x="140" y="220" fill="#fa6fe2" /><rect width="10" height="10" x="170" y="220" fill="#fa6fe2" /><rect width="10" height="10" x="140" y="230" fill="#fa6fe2" /><rect width="20" height="10" x="160" y="230" fill="#fa6fe2" /><rect width="20" height="10" x="130" y="250" fill="#fa6fe2" /><rect width="10" height="10" x="160" y="250" fill="#fa6fe2" /><rect width="10" height="10" x="180" y="250" fill="#fa6fe2" /><rect width="20" height="10" x="130" y="260" fill="#fa6fe2" /><rect width="30" height="10" x="160" y="260" fill="#fa6fe2" /><rect width="20" height="10" x="140" y="280" fill="#fa6fe2" /><rect width="10" height="10" x="170" y="280" fill="#fa6fe2" /><rect width="10" height="10" x="140" y="290" fill="#fa6fe2" /><rect width="20" height="10" x="160" y="290" fill="#fa6fe2" /><rect width="10" height="10" x="170" y="70" fill="#63a0f9" /><rect width="10" height="10" x="170" y="80" fill="#63a0f9" /><rect width="30" height="10" x="130" y="90" fill="#807f7e" /><rect width="20" height="10" x="170" y="90" fill="#63a0f9" /><rect width="10" height="10" x="160" y="100" fill="#807f7e" /><rect width="20" height="10" x="170" y="100" fill="#63a0f9" /><rect width="10" height="10" x="160" y="110" fill="#807f7e" /><rect width="20" height="10" x="170" y="110" fill="#63a0f9" /><rect width="10" height="10" x="160" y="120" fill="#000000" /><rect width="10" height="10" x="170" y="120" fill="#63a0f9" /><rect width="20" height="10" x="180" y="120" fill="#ffc110" /><rect width="30" height="10" x="150" y="130" fill="#000000" /><rect width="40" height="10" x="180" y="130" fill="#ffc110" /><rect width="30" height="10" x="50" y="140" fill="#000000" /><rect width="30" height="10" x="140" y="140" fill="#000000" /><rect width="20" height="10" x="170" y="140" fill="#ffc110" /><rect width="10" height="10" x="190" y="140" fill="#e11833" /><rect width="50" height="10" x="200" y="140" fill="#ffc110" /><rect width="120" height="10" x="50" y="150" fill="#000000" /><rect width="10" height="10" x="170" y="150" fill="#ffc110" /><rect width="30" height="10" x="180" y="150" fill="#e11833" /><rect width="10" height="10" x="210" y="150" fill="#63a0f9" /><rect width="50" height="10" x="220" y="150" fill="#ffc110" /><rect width="110" height="10" x="50" y="160" fill="#000000" /><rect width="20" height="10" x="160" y="160" fill="#ffc110" /><rect width="20" height="10" x="180" y="160" fill="#e11833" /><rect width="80" height="10" x="200" y="160" fill="#63a0f9" /><rect width="20" height="10" x="50" y="170" fill="#000000" /><rect width="90" height="10" x="70" y="170" fill="#ffffff" /><rect width="20" height="10" x="160" y="170" fill="#ffc110" /><rect width="20" height="10" x="180" y="170" fill="#e11833" /><rect width="80" height="10" x="200" y="170" fill="#63a0f9" /><rect width="50" height="10" x="50" y="180" fill="#ffffff" /><rect width="10" height="10" x="100" y="180" fill="#000000" /><rect width="170" height="10" x="110" y="180" fill="#ffffff" /><rect width="60" height="10" x="50" y="190" fill="#ffffff" /><rect width="30" height="10" x="110" y="190" fill="#000000" /><rect width="10" height="10" x="140" y="190" fill="#ffffff" /><rect width="110" height="10" x="150" y="190" fill="#807f7e" /><rect width="10" height="10" x="290" y="190" fill="#63a0f9" /><rect width="100" height="10" x="50" y="200" fill="#ffffff" /><rect width="100" height="10" x="150" y="200" fill="#807f7e" /><rect width="10" height="10" x="280" y="200" fill="#63a0f9" /><rect width="10" height="10" x="60" y="210" fill="#000000" /><rect width="10" height="10" x="70" y="210" fill="#807f7e" /><rect width="10" height="10" x="80" y="210" fill="#000000" /><rect width="10" height="10" x="90" y="210" fill="#807f7e" /><rect width="10" height="10" x="100" y="210" fill="#000000" /><rect width="10" height="10" x="110" y="210" fill="#807f7e" /><rect width="10" height="10" x="120" y="210" fill="#000000" /><rect width="140" height="10" x="140" y="210" fill="#63a0f9" /><rect width="60" height="10" x="100" y="110" fill="#d19a54" /><rect width="60" height="10" x="170" y="110" fill="#d19a54" /><rect width="10" height="10" x="100" y="120" fill="#d19a54" /><rect width="20" height="10" x="110" y="120" fill="#ffffff" /><rect width="20" height="10" x="130" y="120" fill="#000000" /><rect width="10" height="10" x="150" y="120" fill="#d19a54" /><rect width="10" height="10" x="170" y="120" fill="#d19a54" /><rect width="20" height="10" x="180" y="120" fill="#ffffff" /><rect width="20" height="10" x="200" y="120" fill="#000000" /><rect width="10" height="10" x="220" y="120" fill="#d19a54" /><rect width="40" height="10" x="70" y="130" fill="#d19a54" /><rect width="20" height="10" x="110" y="130" fill="#ffffff" /><rect width="20" height="10" x="130" y="130" fill="#000000" /><rect width="30" height="10" x="150" y="130" fill="#d19a54" /><rect width="20" height="10" x="180" y="130" fill="#ffffff" /><rect width="20" height="10" x="200" y="130" fill="#000000" /><rect width="10" height="10" x="220" y="130" fill="#d19a54" /><rect width="10" height="10" x="70" y="140" fill="#d19a54" /><rect width="10" height="10" x="100" y="140" fill="#d19a54" /><rect width="20" height="10" x="110" y="140" fill="#ffffff" /><rect width="20" height="10" x="130" y="140" fill="#000000" /><rect width="10" height="10" x="150" y="140" fill="#d19a54" /><rect width="10" height="10" x="170" y="140" fill="#d19a54" /><rect width="20" height="10" x="180" y="140" fill="#ffffff" /><rect width="20" height="10" x="200" y="140" fill="#000000" /><rect width="10" height="10" x="220" y="140" fill="#d19a54" /><rect width="10" height="10" x="70" y="150" fill="#d19a54" /><rect width="10" height="10" x="100" y="150" fill="#d19a54" /><rect width="20" height="10" x="110" y="150" fill="#ffffff" /><rect width="20" height="10" x="130" y="150" fill="#000000" /><rect width="10" height="10" x="150" y="150" fill="#d19a54" /><rect width="10" height="10" x="170" y="150" fill="#d19a54" /><rect width="20" height="10" x="180" y="150" fill="#ffffff" /><rect width="20" height="10" x="200" y="150" fill="#000000" /><rect width="10" height="10" x="220" y="150" fill="#d19a54" /><rect width="60" height="10" x="100" y="160" fill="#d19a54" /><rect width="60" height="10" x="170" y="160" fill="#d19a54" /></svg>