<svg xmlns:xlink="http://www.w3.org/1999/xlink" width="320" height="320" viewBox="0 0 320 320" xmlns="http://www.w3.org/2000/svg" shape-rendering="crispEdges"><rect width="100%" height="100%" fill="#e1d7d5" /><rect width="140" height="10" x="90" y="210" fill="#e9265c" /><rect width="140" height="10" x="90" y="220" fill="#e9265c" /><rect width="140" height="10" x="90" y="230" fill="#e9265c" /><rect width="140" height="10" x="90" y="240" fill="#e9265c" /><rect width="20" height="10" x="90" y="250" fill="#e9265c" /><rect width="110" height="10" x="120" y="250" fill="#e9265c" /><rect width="20" height="10" x="90" y="260" fill="#e9265c" /><rect width="110" height="10" x="120" y="260" fill="#e9265c" /><rect width="20" height="10" x="90" y="270" fill="#e9265c" /><rect width="110" height="10" x="120" y="270" fill="#e9265c" /><rect width="20" height="10" x="90" y="280" fill="#e9265c" /><rect width="110" height="10" x="120" y="280" fill="#e9265c" /><rect width="20" height="10" x="90" y="290" fill="#e9265c" /><rect width="110" height="10" x="120" y="290" fill="#e9265c" /><rect width="20" height="10" x="90" y="300" fill="#e9265c" /><rect width="110" height="10" x="120" y="300" fill="#e9265c" /><rect width="20" height="10" x="90" y="310" fill="#e9265c" /><rect width="110" height="10" x="120" y="310" fill="#e9265c" /><rect width="10" height="10" x="130" y="210" fill="#ffc110" /><rect width="10" height="10" x="190" y="210" fill="#ffc110" /><rect width="10" height="10" x="140" y="220" fill="#ffc110" /><rect width="10" height="10" x="180" y="220" fill="#ffc110" /><rect width="30" height="10" x="150" y="230" fill="#ffc110" /><rect width="20" height="10" x="80" y="50" fill="#f86100" /><rect width="10" height="10" x="100" y="50" fill="#f89865" /><rect width="30" height="10" x="110" y="50" fill="#f86100" /><rect width="10" height="10" x="140" y="50" fill="#f89865" /><rect width="30" height="10" x="150" y="50" fill="#f86100" /><rect width="10" height="10" x="180" y="50" fill="#f89865" /><rect width="30" height="10" x="190" y="50" fill="#f86100" /><rect width="10" height="10" x="220" y="50" fill="#f89865" /><rect width="10" height="10" x="230" y="50" fill="#f86100" /><rect width="10" height="10" x="60" y="60" fill="#f89865" /><rect width="30" height="10" x="70" y="60" fill="#f86100" /><rect width="10" height="10" x="100" y="60" fill="#f89865" /><rect width="30" height="10" x="110" y="60" fill="#f86100" /><rect width="10" height="10" x="140" y="60" fill="#f89865" /><rect width="30" height="10" x="150" y="60" fill="#f86100" /><rect width="10" height="10" x="180" y="60" fill="#f89865" /><rect width="30" height="10" x="190" y="60" fill="#f86100" /><rect width="10" height="10" x="220" y="60" fill="#f89865" /><rect width="30" height="10" x="230" y="60" fill="#f86100" /><rect width="20" height="10" x="40" y="70" fill="#f86100" /><rect width="10" height="10" x="60" y="70" fill="#f89865" /><rect width="40" height="10" x="70" y="70" fill="#f86100" /><rect width="10" height="10" x="110" y="70" fill="#f89865" /><rect width="30" height="10" x="120" y="70" fill="#f86100" /><rect width="10" height="10" x="150" y="70" fill="#f89865" /><rect width="30" height="10" x="160" y="70" fill="#f86100" /><rect width="10" height="10" x="190" y="70" fill="#f89865" /><rect width="30" height="10" x="200" y="70" fill="#f86100" /><rect width="10" height="10" x="230" y="70" fill="#f89865" /><rect width="40" height="10" x="240" y="70" fill="#f86100" /><rect width="30" height="10" x="40" y="80" fill="#f86100" /><rect width="10" height="10" x="70" y="80" fill="#f89865" /><rect width="30" height="10" x="80" y="80" fill="#f86100" /><rect width="10" height="10" x="110" y="80" fill="#f89865" /><rect width="30" height="10" x="120" y="80" fill="#f86100" /><rect width="10" height="10" x="150" y="80" fill="#f89865" /><rect width="30" height="10" x="160" y="80" fill="#f86100" /><rect width="10" height="10" x="190" y="80" fill="#f89865" /><rect width="30" height="10" x="200" y="80" fill="#f86100" /><rect width="10" height="10" x="230" y="80" fill="#f89865" /><rect width="40" height="10" x="240" y="80" fill="#f86100" /><rect width="30" height="10" x="40" y="90" fill="#f86100" /><rect width="10" height="10" x="70" y="90" fill="#f89865" /><rect width="30" height="10" x="80" y="90" fill="#f86100" /><rect width="10" height="10" x="110" y="90" fill="#f89865" /><rect width="30" height="10" x="120" y="90" fill="#f86100" /><rect width="10" height="10" x="150" y="90" fill="#f89865" /><rect width="30" height="10" x="160" y="90" fill="#f86100" /><rect width="10" height="10" x="190" y="90" fill="#f89865" /><rect width="30" height="10" x="200" y="90" fill="#f86100" /><rect width="10" height="10" x="230" y="90" fill="#f89865" /><rect width="40" height="10" x="240" y="90" fill="#f86100" /><rect width="30" height="10" x="40" y="100" fill="#f86100" /><rect width="180" height="10" x="70" y="100" fill="#ffffff" /><rect width="30" height="10" x="250" y="100" fill="#f86100" /><rect width="220" height="10" x="50" y="110" fill="#ffffff" /><rect width="220" height="10" x="50" y="120" fill="#ffffff" /><rect width="200" height="10" x="60" y="130" fill="#ffffff" /><rect width="220" height="10" x="50" y="140" fill="#ffffff" /><rect width="220" height="10" x="50" y="150" fill="#ffffff" /><rect width="200" height="10" x="60" y="160" fill="#ffffff" /><rect width="220" height="10" x="50" y="170" fill="#ffffff" /><rect width="100" height="10" x="50" y="180" fill="#ffffff" /><rect width="30" height="10" x="150" y="180" fill="#dcd8d3" /><rect width="90" height="10" x="180" y="180" fill="#ffffff" /><rect width="200" height="10" x="60" y="190" fill="#ffffff" /><rect width="180" height="10" x="70" y="200" fill="#ffffff" /><rect width="60" height="10" x="100" y="110" fill="#ff638d" /><rect width="60" height="10" x="170" y="110" fill="#ff638d" /><rect width="10" height="10" x="100" y="120" fill="#ff638d" /><rect width="20" height="10" x="110" y="120" fill="#ffffff" /><rect width="20" height="10" x="130" y="120" fill="#000000" /><rect width="10" height="10" x="150" y="120" fill="#ff638d" /><rect width="10" height="10" x="170" y="120" fill="#ff638d" /><rect width="20" height="10" x="180" y="120" fill="#ffffff" /><rect width="20" height="10" x="200" y="120" fill="#000000" /><rect width="10" height="10" x="220" y="120" fill="#ff638d" /><rect width="40" height="10" x="70" y="130" fill="#ff638d" /><rect width="20" height="10" x="110" y="130" fill="#ffffff" /><rect width="20" height="10" x="130" y="130" fill="#000000" /><rect width="30" height="10" x="150" y="130" fill="#ff638d" /><rect width="20" height="10" x="180" y="130" fill="#ffffff" /><rect width="20" height="10" x="200" y="130" fill="#000000" /><rect width="10" height="10" x="220" y="130" fill="#ff638d" /><rect width="40" height="10" x="70" y="140" fill="#ff638d" /><rect width="20" height="10" x="110" y="140" fill="#ffffff" /><rect width="20" height="10" x="130" y="140" fill="#000000" /><rect width="30" height="10" x="150" y="140" fill="#ff638d" /><rect width="20" height="10" x="180" y="140" fill="#ffffff" /><rect width="20" height="10" x="200" y="140" fill="#000000" /><rect width="10" height="10" x="220" y="140" fill="#ff638d" /><rect width="10" height="10" x="70" y="150" fill="#ff638d" /><rect width="10" height="10" x="100" y="150" fill="#ff638d" /><rect width="20" height="10" x="110" y="150" fill="#ffffff" /><rect width="20" height="10" x="130" y="150" fill="#000000" /><rect width="10" height="10" x="150" y="150" fill="#ff638d" /><rect width="10" height="10" x="170" y="150" fill="#ff638d" /><rect width="20" height="10" x="180" y="150" fill="#ffffff" /><rect width="20" height="10" x="200" y="150" fill="#000000" /><rect width="10" height="10" x="220" y="150" fill="#ff638d" /><rect width="60" height="10" x="100" y="160" fill="#ff638d" /><rect width="60" height="10" x="170" y="160" fill="#ff638d" /></svg>