<svg xmlns:xlink="http://www.w3.org/1999/xlink" width="320" height="320" viewBox="0 0 320 320" xmlns="http://www.w3.org/2000/svg" shape-rendering="crispEdges"><rect width="100%" height="100%" fill="#e1d7d5" /><rect width="140" height="10" x="90" y="210" fill="#5a65fa" /><rect width="140" height="10" x="90" y="220" fill="#5a65fa" /><rect width="140" height="10" x="90" y="230" fill="#5a65fa" /><rect width="140" height="10" x="90" y="240" fill="#5a65fa" /><rect width="20" height="10" x="90" y="250" fill="#5a65fa" /><rect width="110" height="10" x="120" y="250" fill="#5a65fa" /><rect width="20" height="10" x="90" y="260" fill="#5a65fa" /><rect width="110" height="10" x="120" y="260" fill="#5a65fa" /><rect width="20" height="10" x="90" y="270" fill="#5a65fa" /><rect width="110" height="10" x="120" y="270" fill="#5a65fa" /><rect width="20" height="10" x="90" y="280" fill="#5a65fa" /><rect width="110" height="10" x="120" y="280" fill="#5a65fa" /><rect width="20" height="10" x="90" y="290" fill="#5a65fa" /><rect width="110" height="10" x="120" y="290" fill="#5a65fa" /><rect width="20" height="10" x="90" y="300" fill="#5a65fa" /><rect width="110" height="10" x="120" y="300" fill="#5a65fa" /><rect width="20" height="10" x="90" y="310" fill="#5a65fa" /><rect width="110" height="10" x="120" y="310" fill="#5a65fa" /><rect width="10" height="10" x="140" y="220" fill="#db8323" /><rect width="10" height="10" x="180" y="220" fill="#db8323" /><rect width="10" height="10" x="140" y="230" fill="#db8323" /><rect width="10" height="10" x="180" y="230" fill="#db8323" /><rect width="10" height="10" x="150" y="240" fill="#db8323" /><rect width="10" height="10" x="170" y="240" fill="#db8323" /><rect width="10" height="10" x="150" y="250" fill="#db8323" /><rect width="10" height="10" x="170" y="250" fill="#db8323" /><rect width="10" height="10" x="160" y="260" fill="#db8323" /><rect width="20" height="10" x="140" y="270" fill="#db8323" /><rect width="20" height="10" x="170" y="270" fill="#db8323" /><rect width="20" height="10" x="140" y="280" fill="#db8323" /><rect width="20" height="10" x="170" y="280" fill="#db8323" /><rect width="20" height="10" x="150" y="10" fill="#068940" /><rect width="40" height="10" x="140" y="20" fill="#068940" /><rect width="60" height="10" x="130" y="30" fill="#068940" /><rect width="30" height="10" x="120" y="40" fill="#068940" /><rect width="10" height="10" x="150" y="40" fill="#0b5027" /><rect width="40" height="10" x="160" y="40" fill="#068940" /><rect width="30" height="10" x="110" y="50" fill="#068940" /><rect width="10" height="10" x="140" y="50" fill="#0b5027" /><rect width="60" height="10" x="150" y="50" fill="#068940" /><rect width="30" height="10" x="100" y="60" fill="#068940" /><rect width="10" height="10" x="130" y="60" fill="#0b5027" /><rect width="40" height="10" x="140" y="60" fill="#068940" /><rect width="10" height="10" x="180" y="60" fill="#0b5027" /><rect width="30" height="10" x="190" y="60" fill="#068940" /><rect width="100" height="10" x="90" y="70" fill="#068940" /><rect width="10" height="10" x="190" y="70" fill="#0b5027" /><rect width="30" height="10" x="200" y="70" fill="#068940" /><rect width="120" height="10" x="80" y="80" fill="#068940" /><rect width="10" height="10" x="200" y="80" fill="#0b5027" /><rect width="30" height="10" x="210" y="80" fill="#068940" /><rect width="180" height="10" x="70" y="90" fill="#068940" /><rect width="200" height="10" x="60" y="100" fill="#068940" /><rect width="220" height="10" x="50" y="110" fill="#068940" /><rect width="240" height="10" x="40" y="120" fill="#068940" /><rect width="260" height="10" x="30" y="130" fill="#068940" /><rect width="280" height="10" x="20" y="140" fill="#068940" /><rect width="300" height="10" x="10" y="150" fill="#068940" /><rect width="180" height="10" x="70" y="160" fill="#068940" /><rect width="200" height="10" x="60" y="170" fill="#068940" /><rect width="220" height="10" x="50" y="180" fill="#068940" /><rect width="60" height="10" x="40" y="190" fill="#068940" /><rect width="60" height="10" x="100" y="190" fill="#0b5027" /><rect width="120" height="10" x="160" y="190" fill="#068940" /><rect width="260" height="10" x="30" y="200" fill="#068940" /><rect width="10" height="10" x="80" y="220" fill="#068940" /><rect width="10" height="10" x="230" y="220" fill="#068940" /><rect width="20" height="10" x="70" y="230" fill="#068940" /><rect width="20" height="10" x="230" y="230" fill="#068940" /><rect width="30" height="10" x="60" y="240" fill="#068940" /><rect width="30" height="10" x="230" y="240" fill="#068940" /><rect width="60" height="10" x="100" y="110" fill="#d7d3cd" /><rect width="60" height="10" x="170" y="110" fill="#d7d3cd" /><rect width="10" height="10" x="100" y="120" fill="#d7d3cd" /><rect width="20" height="10" x="110" y="120" fill="#fdf8ff" /><rect width="20" height="10" x="130" y="120" fill="#000000" /><rect width="10" height="10" x="150" y="120" fill="#d7d3cd" /><rect width="10" height="10" x="170" y="120" fill="#d7d3cd" /><rect width="20" height="10" x="180" y="120" fill="#fdf8ff" /><rect width="20" height="10" x="200" y="120" fill="#000000" /><rect width="10" height="10" x="220" y="120" fill="#d7d3cd" /><rect width="40" height="10" x="70" y="130" fill="#d7d3cd" /><rect width="20" height="10" x="110" y="130" fill="#fdf8ff" /><rect width="20" height="10" x="130" y="130" fill="#000000" /><rect width="30" height="10" x="150" y="130" fill="#d7d3cd" /><rect width="20" height="10" x="180" y="130" fill="#fdf8ff" /><rect width="20" height="10" x="200" y="130" fill="#000000" /><rect width="10" height="10" x="220" y="130" fill="#d7d3cd" /><rect width="10" height="10" x="70" y="140" fill="#d7d3cd" /><rect width="10" height="10" x="100" y="140" fill="#d7d3cd" /><rect width="20" height="10" x="110" y="140" fill="#fdf8ff" /><rect width="20" height="10" x="130" y="140" fill="#000000" /><rect width="10" height="10" x="150" y="140" fill="#d7d3cd" /><rect width="10" height="10" x="170" y="140" fill="#d7d3cd" /><rect width="20" height="10" x="180" y="140" fill="#fdf8ff" /><rect width="20" height="10" x="200" y="140" fill="#000000" /><rect width="10" height="10" x="220" y="140" fill="#d7d3cd" /><rect width="10" height="10" x="70" y="150" fill="#d7d3cd" /><rect width="10" height="10" x="100" y="150" fill="#d7d3cd" /><rect width="20" height="10" x="110" y="150" fill="#fdf8ff" /><rect width="20" height="10" x="130" y="150" fill="#000000" /><rect width="10" height="10" x="150" y="150" fill="#d7d3cd" /><rect width="10" height="10" x="170" y="150" fill="#d7d3cd" /><rect width="20" height="10" x="180" y="150" fill="#fdf8ff" /><rect width="20" height="10" x="200" y="150" fill="#000000" /><rect width="10" height="10" x="220" y="150" fill="#d7d3cd" /><rect width="60" height="10" x="100" y="160" fill="#d7d3cd" /><rect width="60" height="10" x="170" y="160" fill="#d7d3cd" /></svg>