<svg xmlns:xlink="http://www.w3.org/1999/xlink" width="320" height="320" viewBox="0 0 320 320" xmlns="http://www.w3.org/2000/svg" shape-rendering="crispEdges"><rect width="100%" height="100%" fill="#d5d7e1" /><rect width="140" height="10" x="90" y="210" fill="#caeff9" /><rect width="140" height="10" x="90" y="220" fill="#caeff9" /><rect width="140" height="10" x="90" y="230" fill="#caeff9" /><rect width="140" height="10" x="90" y="240" fill="#caeff9" /><rect width="20" height="10" x="90" y="250" fill="#caeff9" /><rect width="110" height="10" x="120" y="250" fill="#caeff9" /><rect width="20" height="10" x="90" y="260" fill="#caeff9" /><rect width="110" height="10" x="120" y="260" fill="#caeff9" /><rect width="20" height="10" x="90" y="270" fill="#caeff9" /><rect width="110" height="10" x="120" y="270" fill="#caeff9" /><rect width="20" height="10" x="90" y="280" fill="#caeff9" /><rect width="110" height="10" x="120" y="280" fill="#caeff9" /><rect width="20" height="10" x="90" y="290" fill="#caeff9" /><rect width="110" height="10" x="120" y="290" fill="#caeff9" /><rect width="20" height="10" x="90" y="300" fill="#caeff9" /><rect width="110" height="10" x="120" y="300" fill="#caeff9" /><rect width="20" height="10" x="90" y="310" fill="#caeff9" /><rect width="110" height="10" x="120" y="310" fill="#caeff9" /><rect width="10" height="10" x="130" y="210" fill="#ffc110" /><rect width="10" height="10" x="190" y="210" fill="#ffc110" /><rect width="10" height="10" x="140" y="220" fill="#ffc110" /><rect width="10" height="10" x="180" y="220" fill="#ffc110" /><rect width="10" height="10" x="150" y="230" fill="#ffc110" /><rect width="10" height="10" x="170" y="230" fill="#ffc110" /><rect width="10" height="10" x="160" y="240" fill="#ffc110" /><rect width="10" height="10" x="160" y="250" fill="#ffc110" /><rect width="30" height="10" x="150" y="260" fill="#ffc110" /><rect width="10" height="10" x="160" y="270" fill="#ffc110" /><rect width="10" height="10" x="140" y="280" fill="#ffc110" /><rect width="10" height="10" x="160" y="280" fill="#ffc110" /><rect width="10" height="10" x="180" y="280" fill="#ffc110" /><rect width="30" height="10" x="150" y="290" fill="#ffc110" /><rect width="80" height="10" x="120" y="30" fill="#ff7216" /><rect width="40" height="10" x="100" y="40" fill="#ff7216" /><rect width="10" height="10" x="140" y="40" fill="#f78a18" /><rect width="20" height="10" x="150" y="40" fill="#ff7216" /><rect width="10" height="10" x="170" y="40" fill="#f78a18" /><rect width="40" height="10" x="180" y="40" fill="#ff7216" /><rect width="50" height="10" x="80" y="50" fill="#ff7216" /><rect width="10" height="10" x="130" y="50" fill="#f78a18" /><rect width="10" height="10" x="140" y="50" fill="#ff7216" /><rect width="20" height="10" x="150" y="50" fill="#f78a18" /><rect width="10" height="10" x="170" y="50" fill="#ff7216" /><rect width="10" height="10" x="180" y="50" fill="#f78a18" /><rect width="50" height="10" x="190" y="50" fill="#ff7216" /><rect width="10" height="10" x="70" y="60" fill="#ff7216" /><rect width="10" height="10" x="80" y="60" fill="#f78a18" /><rect width="10" height="10" x="90" y="60" fill="#ff7216" /><rect width="120" height="10" x="100" y="60" fill="#f78a18" /><rect width="10" height="10" x="220" y="60" fill="#ff7216" /><rect width="10" height="10" x="230" y="60" fill="#f78a18" /><rect width="10" height="10" x="240" y="60" fill="#ff7216" /><rect width="10" height="10" x="60" y="70" fill="#ff7216" /><rect width="10" height="10" x="70" y="70" fill="#f78a18" /><rect width="10" height="10" x="80" y="70" fill="#ff7216" /><rect width="40" height="10" x="90" y="70" fill="#f78a18" /><rect width="10" height="10" x="130" y="70" fill="#ffc110" /><rect width="10" height="10" x="140" y="70" fill="#f78a18" /><rect width="20" height="10" x="150" y="70" fill="#ffc110" /><rect width="10" height="10" x="170" y="70" fill="#f78a18" /><rect width="10" height="10" x="180" y="70" fill="#ffc110" /><rect width="40" height="10" x="190" y="70" fill="#f78a18" /><rect width="10" height="10" x="230" y="70" fill="#ff7216" /><rect width="10" height="10" x="240" y="70" fill="#f78a18" /><rect width="10" height="10" x="250" y="70" fill="#ff7216" /><rect width="10" height="10" x="50" y="80" fill="#ff7216" /><rect width="10" height="10" x="60" y="80" fill="#f78a18" /><rect width="10" height="10" x="70" y="80" fill="#ff7216" /><rect width="30" height="10" x="80" y="80" fill="#f78a18" /><rect width="100" height="10" x="110" y="80" fill="#ffc110" /><rect width="30" height="10" x="210" y="80" fill="#f78a18" /><rect width="10" height="10" x="240" y="80" fill="#ff7216" /><rect width="10" height="10" x="250" y="80" fill="#f78a18" /><rect width="10" height="10" x="260" y="80" fill="#ff7216" /><rect width="20" height="10" x="50" y="90" fill="#ff7216" /><rect width="30" height="10" x="70" y="90" fill="#f78a18" /><rect width="30" height="10" x="100" y="90" fill="#ffc110" /><rect width="10" height="10" x="130" y="90" fill="#ffef16" /><rect width="10" height="10" x="140" y="90" fill="#ffc110" /><rect width="20" height="10" x="150" y="90" fill="#ffef16" /><rect width="10" height="10" x="170" y="90" fill="#ffc110" /><rect width="10" height="10" x="180" y="90" fill="#ffef16" /><rect width="30" height="10" x="190" y="90" fill="#ffc110" /><rect width="30" height="10" x="220" y="90" fill="#f78a18" /><rect width="20" height="10" x="250" y="90" fill="#ff7216" /><rect width="20" height="10" x="40" y="100" fill="#ff7216" /><rect width="30" height="10" x="60" y="100" fill="#f78a18" /><rect width="30" height="10" x="90" y="100" fill="#ffc110" /><rect width="80" height="10" x="120" y="100" fill="#ffef16" /><rect width="30" height="10" x="200" y="100" fill="#ffc110" /><rect width="30" height="10" x="230" y="100" fill="#f78a18" /><rect width="20" height="10" x="260" y="100" fill="#ff7216" /><rect width="20" height="10" x="40" y="110" fill="#ff7216" /><rect width="20" height="10" x="60" y="110" fill="#f78a18" /><rect width="30" height="10" x="80" y="110" fill="#ffc110" /><rect width="100" height="10" x="110" y="110" fill="#ffef16" /><rect width="30" height="10" x="210" y="110" fill="#ffc110" /><rect width="20" height="10" x="240" y="110" fill="#f78a18" /><rect width="20" height="10" x="260" y="110" fill="#ff7216" /><rect width="30" height="10" x="30" y="120" fill="#ff7216" /><rect width="20" height="10" x="60" y="120" fill="#f78a18" /><rect width="20" height="10" x="80" y="120" fill="#ffc110" /><rect width="120" height="10" x="100" y="120" fill="#ffef16" /><rect width="20" height="10" x="220" y="120" fill="#ffc110" /><rect width="20" height="10" x="240" y="120" fill="#f78a18" /><rect width="30" height="10" x="260" y="120" fill="#ff7216" /><rect width="20" height="10" x="30" y="130" fill="#ff7216" /><rect width="20" height="10" x="50" y="130" fill="#f78a18" /><rect width="20" height="10" x="70" y="130" fill="#ffc110" /><rect width="140" height="10" x="90" y="130" fill="#ffef16" /><rect width="20" height="10" x="230" y="130" fill="#ffc110" /><rect width="20" height="10" x="250" y="130" fill="#f78a18" /><rect width="20" height="10" x="270" y="130" fill="#ff7216" /><rect width="10" height="10" x="30" y="140" fill="#ff7216" /><rect width="10" height="10" x="40" y="140" fill="#f78a18" /><rect width="10" height="10" x="50" y="140" fill="#ff7216" /><rect width="20" height="10" x="60" y="140" fill="#f78a18" /><rect width="20" height="10" x="80" y="140" fill="#ffc110" /><rect width="130" height="10" x="100" y="140" fill="#ffef16" /><rect width="10" height="10" x="230" y="140" fill="#ffc110" /><rect width="20" height="10" x="240" y="140" fill="#f78a18" /><rect width="10" height="10" x="260" y="140" fill="#ff7216" /><rect width="10" height="10" x="270" y="140" fill="#f78a18" /><rect width="10" height="10" x="280" y="140" fill="#ff7216" /><rect width="20" height="10" x="30" y="150" fill="#ff7216" /><rect width="20" height="10" x="50" y="150" fill="#f78a18" /><rect width="20" height="10" x="70" y="150" fill="#ffc110" /><rect width="140" height="10" x="90" y="150" fill="#ffef16" /><rect width="20" height="10" x="230" y="150" fill="#ffc110" /><rect width="20" height="10" x="250" y="150" fill="#f78a18" /><rect width="20" height="10" x="270" y="150" fill="#ff7216" /><rect width="20" height="10" x="30" y="160" fill="#ff7216" /><rect width="20" height="10" x="50" y="160" fill="#f78a18" /><rect width="20" height="10" x="70" y="160" fill="#ffc110" /><rect width="140" height="10" x="90" y="160" fill="#ffef16" /><rect width="20" height="10" x="230" y="160" fill="#ffc110" /><rect width="20" height="10" x="250" y="160" fill="#f78a18" /><rect width="20" height="10" x="270" y="160" fill="#ff7216" /><rect width="10" height="10" x="30" y="170" fill="#ff7216" /><rect width="10" height="10" x="40" y="170" fill="#f78a18" /><rect width="10" height="10" x="50" y="170" fill="#ff7216" /><rect width="20" height="10" x="60" y="170" fill="#f78a18" /><rect width="20" height="10" x="80" y="170" fill="#ffc110" /><rect width="120" height="10" x="100" y="170" fill="#ffef16" /><rect width="20" height="10" x="220" y="170" fill="#ffc110" /><rect width="20" height="10" x="240" y="170" fill="#f78a18" /><rect width="10" height="10" x="260" y="170" fill="#ff7216" /><rect width="10" height="10" x="270" y="170" fill="#f78a18" /><rect width="10" height="10" x="280" y="170" fill="#ff7216" /><rect width="20" height="10" x="30" y="180" fill="#ff7216" /><rect width="20" height="10" x="50" y="180" fill="#f78a18" /><rect width="20" height="10" x="70" y="180" fill="#ffc110" /><rect width="60" height="10" x="90" y="180" fill="#ffef16" /><rect width="20" height="10" x="150" y="180" fill="#ffffff" /><rect width="10" height="10" x="170" y="180" fill="#ffc110" /><rect width="50" height="10" x="180" y="180" fill="#ffef16" /><rect width="20" height="10" x="230" y="180" fill="#ffc110" /><rect width="20" height="10" x="250" y="180" fill="#f78a18" /><rect width="20" height="10" x="270" y="180" fill="#ff7216" /><rect width="30" height="10" x="30" y="190" fill="#ff7216" /><rect width="20" height="10" x="60" y="190" fill="#f78a18" /><rect width="20" height="10" x="80" y="190" fill="#ffc110" /><rect width="120" height="10" x="100" y="190" fill="#ffef16" /><rect width="20" height="10" x="220" y="190" fill="#ffc110" /><rect width="20" height="10" x="240" y="190" fill="#f78a18" /><rect width="30" height="10" x="260" y="190" fill="#ff7216" /><rect width="30" height="10" x="40" y="200" fill="#ff7216" /><rect width="20" height="10" x="70" y="200" fill="#f78a18" /><rect width="20" height="10" x="90" y="200" fill="#ffc110" /><rect width="100" height="10" x="110" y="200" fill="#ffef16" /><rect width="20" height="10" x="210" y="200" fill="#ffc110" /><rect width="20" height="10" x="230" y="200" fill="#f78a18" /><rect width="30" height="10" x="250" y="200" fill="#ff7216" /><rect width="60" height="10" x="100" y="110" fill="#000000" /><rect width="60" height="10" x="170" y="110" fill="#000000" /><rect width="30" height="10" x="100" y="120" fill="#000000" /><rect width="10" height="10" x="130" y="120" fill="#ff0e0e" /><rect width="20" height="10" x="140" y="120" fill="#000000" /><rect width="30" height="10" x="170" y="120" fill="#000000" /><rect width="10" height="10" x="200" y="120" fill="#ff0e0e" /><rect width="20" height="10" x="210" y="120" fill="#000000" /><rect width="160" height="10" x="70" y="130" fill="#000000" /><rect width="10" height="10" x="70" y="140" fill="#000000" /><rect width="10" height="10" x="100" y="140" fill="#000000" /><rect width="10" height="10" x="110" y="140" fill="#0adc4d" /><rect width="20" height="10" x="120" y="140" fill="#000000" /><rect width="10" height="10" x="140" y="140" fill="#1929f4" /><rect width="10" height="10" x="150" y="140" fill="#000000" /><rect width="10" height="10" x="170" y="140" fill="#000000" /><rect width="10" height="10" x="180" y="140" fill="#0adc4d" /><rect width="20" height="10" x="190" y="140" fill="#000000" /><rect width="10" height="10" x="210" y="140" fill="#1929f4" /><rect width="10" height="10" x="220" y="140" fill="#000000" /><rect width="10" height="10" x="70" y="150" fill="#000000" /><rect width="60" height="10" x="100" y="150" fill="#000000" /><rect width="60" height="10" x="170" y="150" fill="#000000" /><rect width="60" height="10" x="100" y="160" fill="#000000" /><rect width="60" height="10" x="170" y="160" fill="#000000" /></svg>