<svg xmlns:xlink="http://www.w3.org/1999/xlink" width="320" height="320" viewBox="0 0 320 320" xmlns="http://www.w3.org/2000/svg" shape-rendering="crispEdges"><rect width="100%" height="100%" fill="#e1d7d5" /><rect width="140" height="10" x="90" y="210" fill="#63a0f9" /><rect width="140" height="10" x="90" y="220" fill="#63a0f9" /><rect width="140" height="10" x="90" y="230" fill="#63a0f9" /><rect width="140" height="10" x="90" y="240" fill="#63a0f9" /><rect width="20" height="10" x="90" y="250" fill="#63a0f9" /><rect width="110" height="10" x="120" y="250" fill="#63a0f9" /><rect width="20" height="10" x="90" y="260" fill="#63a0f9" /><rect width="110" height="10" x="120" y="260" fill="#63a0f9" /><rect width="20" height="10" x="90" y="270" fill="#63a0f9" /><rect width="110" height="10" x="120" y="270" fill="#63a0f9" /><rect width="20" height="10" x="90" y="280" fill="#63a0f9" /><rect width="110" height="10" x="120" y="280" fill="#63a0f9" /><rect width="20" height="10" x="90" y="290" fill="#63a0f9" /><rect width="110" height="10" x="120" y="290" fill="#63a0f9" /><rect width="20" height="10" x="90" y="300" fill="#63a0f9" /><rect width="110" height="10" x="120" y="300" fill="#63a0f9" /><rect width="20" height="10" x="90" y="310" fill="#63a0f9" /><rect width="110" height="10" x="120" y="310" fill="#63a0f9" /><rect width="20" height="10" x="120" y="240" fill="#000000" /><rect width="10" height="10" x="160" y="240" fill="#000000" /><rect width="10" height="10" x="190" y="240" fill="#000000" /><rect width="10" height="10" x="120" y="250" fill="#000000" /><rect width="20" height="10" x="140" y="250" fill="#000000" /><rect width="20" height="10" x="170" y="250" fill="#000000" /><rect width="10" height="10" x="200" y="250" fill="#000000" /><rect width="10" height="10" x="120" y="260" fill="#000000" /><rect width="50" height="10" x="140" y="260" fill="#000000" /><rect width="10" height="10" x="200" y="260" fill="#000000" /><rect width="20" height="10" x="120" y="270" fill="#000000" /><rect width="10" height="10" x="150" y="270" fill="#000000" /><rect width="10" height="10" x="170" y="270" fill="#000000" /><rect width="10" height="10" x="190" y="270" fill="#000000" /><rect width="60" height="10" x="80" y="60" fill="#7e5243" /><rect width="20" height="10" x="170" y="60" fill="#7e5243" /><rect width="60" height="10" x="80" y="70" fill="#7e5243" /><rect width="20" height="10" x="140" y="70" fill="#5a423f" /><rect width="10" height="10" x="170" y="70" fill="#7e5243" /><rect width="10" height="10" x="180" y="70" fill="#a86f60" /><rect width="70" height="10" x="80" y="80" fill="#7e5243" /><rect width="20" height="10" x="150" y="80" fill="#5a423f" /><rect width="10" height="10" x="170" y="80" fill="#7e5243" /><rect width="10" height="10" x="180" y="80" fill="#a86f60" /><rect width="80" height="10" x="80" y="90" fill="#7e5243" /><rect width="10" height="10" x="160" y="90" fill="#5a423f" /><rect width="10" height="10" x="170" y="90" fill="#7e5243" /><rect width="10" height="10" x="180" y="90" fill="#a86f60" /><rect width="110" height="10" x="80" y="100" fill="#7e5243" /><rect width="110" height="10" x="80" y="110" fill="#7e5243" /><rect width="110" height="10" x="80" y="120" fill="#7e5243" /><rect width="130" height="10" x="70" y="130" fill="#7e5243" /><rect width="140" height="10" x="70" y="140" fill="#7e5243" /><rect width="200" height="10" x="70" y="150" fill="#7e5243" /><rect width="210" height="10" x="70" y="160" fill="#7e5243" /><rect width="210" height="10" x="70" y="170" fill="#7e5243" /><rect width="40" height="10" x="70" y="180" fill="#7e5243" /><rect width="30" height="10" x="110" y="180" fill="#ffc110" /><rect width="140" height="10" x="140" y="180" fill="#7e5243" /><rect width="210" height="10" x="70" y="190" fill="#7e5243" /><rect width="190" height="10" x="80" y="200" fill="#cd916d" /><rect width="60" height="10" x="100" y="110" fill="#fe500c" /><rect width="60" height="10" x="170" y="110" fill="#fe500c" /><rect width="10" height="10" x="100" y="120" fill="#fe500c" /><rect width="20" height="10" x="110" y="120" fill="#ffffff" /><rect width="20" height="10" x="130" y="120" fill="#000000" /><rect width="10" height="10" x="150" y="120" fill="#fe500c" /><rect width="10" height="10" x="170" y="120" fill="#fe500c" /><rect width="20" height="10" x="180" y="120" fill="#ffffff" /><rect width="20" height="10" x="200" y="120" fill="#000000" /><rect width="10" height="10" x="220" y="120" fill="#fe500c" /><rect width="40" height="10" x="70" y="130" fill="#fe500c" /><rect width="20" height="10" x="110" y="130" fill="#ffffff" /><rect width="20" height="10" x="130" y="130" fill="#000000" /><rect width="30" height="10" x="150" y="130" fill="#fe500c" /><rect width="20" height="10" x="180" y="130" fill="#ffffff" /><rect width="20" height="10" x="200" y="130" fill="#000000" /><rect width="10" height="10" x="220" y="130" fill="#fe500c" /><rect width="10" height="10" x="70" y="140" fill="#fe500c" /><rect width="10" height="10" x="100" y="140" fill="#fe500c" /><rect width="20" height="10" x="110" y="140" fill="#ffffff" /><rect width="20" height="10" x="130" y="140" fill="#000000" /><rect width="10" height="10" x="150" y="140" fill="#fe500c" /><rect width="10" height="10" x="170" y="140" fill="#fe500c" /><rect width="20" height="10" x="180" y="140" fill="#ffffff" /><rect width="20" height="10" x="200" y="140" fill="#000000" /><rect width="10" height="10" x="220" y="140" fill="#fe500c" /><rect width="10" height="10" x="70" y="150" fill="#fe500c" /><rect width="10" height="10" x="100" y="150" fill="#fe500c" /><rect width="20" height="10" x="110" y="150" fill="#ffffff" /><rect width="20" height="10" x="130" y="150" fill="#000000" /><rect width="10" height="10" x="150" y="150" fill="#fe500c" /><rect width="10" height="10" x="170" y="150" fill="#fe500c" /><rect width="20" height="10" x="180" y="150" fill="#ffffff" /><rect width="20" height="10" x="200" y="150" fill="#000000" /><rect width="10" height="10" x="220" y="150" fill="#fe500c" /><rect width="60" height="10" x="100" y="160" fill="#fe500c" /><rect width="60" height="10" x="170" y="160" fill="#fe500c" /></svg>