<svg xmlns:xlink="http://www.w3.org/1999/xlink" width="320" height="320" viewBox="0 0 320 320" xmlns="http://www.w3.org/2000/svg" shape-rendering="crispEdges"><rect width="100%" height="100%" fill="#e1d7d5" /><rect width="140" height="10" x="90" y="210" fill="#ae3208" /><rect width="140" height="10" x="90" y="220" fill="#ae3208" /><rect width="140" height="10" x="90" y="230" fill="#ae3208" /><rect width="140" height="10" x="90" y="240" fill="#ae3208" /><rect width="20" height="10" x="90" y="250" fill="#ae3208" /><rect width="110" height="10" x="120" y="250" fill="#ae3208" /><rect width="20" height="10" x="90" y="260" fill="#ae3208" /><rect width="110" height="10" x="120" y="260" fill="#ae3208" /><rect width="20" height="10" x="90" y="270" fill="#ae3208" /><rect width="110" height="10" x="120" y="270" fill="#ae3208" /><rect width="20" height="10" x="90" y="280" fill="#ae3208" /><rect width="110" height="10" x="120" y="280" fill="#ae3208" /><rect width="20" height="10" x="90" y="290" fill="#ae3208" /><rect width="110" height="10" x="120" y="290" fill="#ae3208" /><rect width="20" height="10" x="90" y="300" fill="#ae3208" /><rect width="110" height="10" x="120" y="300" fill="#ae3208" /><rect width="20" height="10" x="90" y="310" fill="#ae3208" /><rect width="110" height="10" x="120" y="310" fill="#ae3208" /><rect width="70" height="10" x="130" y="230" fill="#604666" /><rect width="10" height="10" x="120" y="240" fill="#604666" /><rect width="10" height="10" x="200" y="240" fill="#604666" /><rect width="10" height="10" x="120" y="250" fill="#604666" /><rect width="20" height="10" x="140" y="250" fill="#604666" /><rect width="20" height="10" x="170" y="250" fill="#604666" /><rect width="10" height="10" x="200" y="250" fill="#604666" /><rect width="10" height="10" x="120" y="260" fill="#604666" /><rect width="10" height="10" x="140" y="260" fill="#604666" /><rect width="10" height="10" x="170" y="260" fill="#604666" /><rect width="10" height="10" x="200" y="260" fill="#604666" /><rect width="10" height="10" x="120" y="270" fill="#604666" /><rect width="20" height="10" x="140" y="270" fill="#604666" /><rect width="20" height="10" x="170" y="270" fill="#604666" /><rect width="10" height="10" x="200" y="270" fill="#604666" /><rect width="10" height="10" x="120" y="280" fill="#604666" /><rect width="10" height="10" x="200" y="280" fill="#604666" /><rect width="70" height="10" x="130" y="290" fill="#604666" /><rect width="10" height="10" x="160" y="40" fill="#d56333" /><rect width="10" height="10" x="140" y="50" fill="#d56333" /><rect width="10" height="10" x="160" y="50" fill="#d56333" /><rect width="10" height="10" x="180" y="50" fill="#d56333" /><rect width="30" height="10" x="150" y="60" fill="#d56333" /><rect width="10" height="10" x="140" y="70" fill="#e8705b" /><rect width="30" height="10" x="150" y="70" fill="#d56333" /><rect width="10" height="10" x="180" y="70" fill="#e8705b" /><rect width="20" height="10" x="80" y="80" fill="#d56333" /><rect width="10" height="10" x="100" y="80" fill="#e8705b" /><rect width="30" height="10" x="110" y="80" fill="#d56333" /><rect width="10" height="10" x="140" y="80" fill="#e8705b" /><rect width="30" height="10" x="150" y="80" fill="#d56333" /><rect width="10" height="10" x="180" y="80" fill="#e8705b" /><rect width="30" height="10" x="190" y="80" fill="#d56333" /><rect width="10" height="10" x="220" y="80" fill="#e8705b" /><rect width="10" height="10" x="230" y="80" fill="#d56333" /><rect width="30" height="10" x="70" y="90" fill="#d56333" /><rect width="10" height="10" x="100" y="90" fill="#e8705b" /><rect width="30" height="10" x="110" y="90" fill="#d56333" /><rect width="10" height="10" x="140" y="90" fill="#e8705b" /><rect width="30" height="10" x="150" y="90" fill="#d56333" /><rect width="10" height="10" x="180" y="90" fill="#e8705b" /><rect width="30" height="10" x="190" y="90" fill="#d56333" /><rect width="10" height="10" x="220" y="90" fill="#e8705b" /><rect width="20" height="10" x="230" y="90" fill="#d56333" /><rect width="40" height="10" x="60" y="100" fill="#d56333" /><rect width="10" height="10" x="100" y="100" fill="#e8705b" /><rect width="30" height="10" x="110" y="100" fill="#d56333" /><rect width="10" height="10" x="140" y="100" fill="#e8705b" /><rect width="30" height="10" x="150" y="100" fill="#d56333" /><rect width="10" height="10" x="180" y="100" fill="#e8705b" /><rect width="30" height="10" x="190" y="100" fill="#d56333" /><rect width="10" height="10" x="220" y="100" fill="#e8705b" /><rect width="30" height="10" x="230" y="100" fill="#d56333" /><rect width="40" height="10" x="60" y="110" fill="#d56333" /><rect width="10" height="10" x="100" y="110" fill="#e8705b" /><rect width="30" height="10" x="110" y="110" fill="#d56333" /><rect width="10" height="10" x="140" y="110" fill="#e8705b" /><rect width="30" height="10" x="150" y="110" fill="#d56333" /><rect width="10" height="10" x="180" y="110" fill="#e8705b" /><rect width="30" height="10" x="190" y="110" fill="#d56333" /><rect width="10" height="10" x="220" y="110" fill="#e8705b" /><rect width="30" height="10" x="230" y="110" fill="#d56333" /><rect width="40" height="10" x="60" y="120" fill="#d56333" /><rect width="10" height="10" x="100" y="120" fill="#e8705b" /><rect width="30" height="10" x="110" y="120" fill="#d56333" /><rect width="10" height="10" x="140" y="120" fill="#e8705b" /><rect width="30" height="10" x="150" y="120" fill="#d56333" /><rect width="10" height="10" x="180" y="120" fill="#e8705b" /><rect width="30" height="10" x="190" y="120" fill="#d56333" /><rect width="10" height="10" x="220" y="120" fill="#e8705b" /><rect width="30" height="10" x="230" y="120" fill="#d56333" /><rect width="40" height="10" x="60" y="130" fill="#d56333" /><rect width="10" height="10" x="100" y="130" fill="#e8705b" /><rect width="30" height="10" x="110" y="130" fill="#d56333" /><rect width="10" height="10" x="140" y="130" fill="#e8705b" /><rect width="30" height="10" x="150" y="130" fill="#d56333" /><rect width="10" height="10" x="180" y="130" fill="#e8705b" /><rect width="30" height="10" x="190" y="130" fill="#d56333" /><rect width="10" height="10" x="220" y="130" fill="#e8705b" /><rect width="30" height="10" x="230" y="130" fill="#d56333" /><rect width="40" height="10" x="60" y="140" fill="#d56333" /><rect width="10" height="10" x="100" y="140" fill="#e8705b" /><rect width="30" height="10" x="110" y="140" fill="#d56333" /><rect width="10" height="10" x="140" y="140" fill="#e8705b" /><rect width="30" height="10" x="150" y="140" fill="#d56333" /><rect width="10" height="10" x="180" y="140" fill="#e8705b" /><rect width="30" height="10" x="190" y="140" fill="#d56333" /><rect width="10" height="10" x="220" y="140" fill="#e8705b" /><rect width="30" height="10" x="230" y="140" fill="#d56333" /><rect width="40" height="10" x="60" y="150" fill="#d56333" /><rect width="10" height="10" x="100" y="150" fill="#e8705b" /><rect width="30" height="10" x="110" y="150" fill="#d56333" /><rect width="10" height="10" x="140" y="150" fill="#e8705b" /><rect width="30" height="10" x="150" y="150" fill="#d56333" /><rect width="10" height="10" x="180" y="150" fill="#e8705b" /><rect width="30" height="10" x="190" y="150" fill="#d56333" /><rect width="10" height="10" x="220" y="150" fill="#e8705b" /><rect width="30" height="10" x="230" y="150" fill="#d56333" /><rect width="40" height="10" x="60" y="160" fill="#d56333" /><rect width="10" height="10" x="100" y="160" fill="#e8705b" /><rect width="30" height="10" x="110" y="160" fill="#d56333" /><rect width="10" height="10" x="140" y="160" fill="#e8705b" /><rect width="30" height="10" x="150" y="160" fill="#d56333" /><rect width="10" height="10" x="180" y="160" fill="#e8705b" /><rect width="30" height="10" x="190" y="160" fill="#d56333" /><rect width="10" height="10" x="220" y="160" fill="#e8705b" /><rect width="30" height="10" x="230" y="160" fill="#d56333" /><rect width="40" height="10" x="60" y="170" fill="#d56333" /><rect width="10" height="10" x="100" y="170" fill="#9cb4b8" /><rect width="10" height="10" x="110" y="170" fill="#d56333" /><rect width="10" height="10" x="120" y="170" fill="#000000" /><rect width="10" height="10" x="130" y="170" fill="#d56333" /><rect width="10" height="10" x="140" y="170" fill="#e8705b" /><rect width="30" height="10" x="150" y="170" fill="#d56333" /><rect width="10" height="10" x="180" y="170" fill="#e8705b" /><rect width="20" height="10" x="190" y="170" fill="#d56333" /><rect width="10" height="10" x="210" y="170" fill="#9cb4b8" /><rect width="10" height="10" x="220" y="170" fill="#e8705b" /><rect width="30" height="10" x="230" y="170" fill="#d56333" /><rect width="30" height="10" x="70" y="180" fill="#d56333" /><rect width="10" height="10" x="100" y="180" fill="#e8705b" /><rect width="20" height="10" x="110" y="180" fill="#d56333" /><rect width="40" height="10" x="130" y="180" fill="#000000" /><rect width="10" height="10" x="170" y="180" fill="#d56333" /><rect width="10" height="10" x="180" y="180" fill="#e8705b" /><rect width="30" height="10" x="190" y="180" fill="#d56333" /><rect width="10" height="10" x="220" y="180" fill="#e8705b" /><rect width="20" height="10" x="230" y="180" fill="#d56333" /><rect width="20" height="10" x="80" y="190" fill="#d56333" /><rect width="10" height="10" x="100" y="190" fill="#e8705b" /><rect width="30" height="10" x="110" y="190" fill="#d56333" /><rect width="10" height="10" x="140" y="190" fill="#e8705b" /><rect width="30" height="10" x="150" y="190" fill="#d56333" /><rect width="10" height="10" x="180" y="190" fill="#e8705b" /><rect width="30" height="10" x="190" y="190" fill="#d56333" /><rect width="10" height="10" x="220" y="190" fill="#e8705b" /><rect width="10" height="10" x="230" y="190" fill="#d56333" /><rect width="10" height="10" x="90" y="200" fill="#d56333" /><rect width="10" height="10" x="100" y="200" fill="#e8705b" /><rect width="30" height="10" x="110" y="200" fill="#d56333" /><rect width="10" height="10" x="140" y="200" fill="#e8705b" /><rect width="30" height="10" x="150" y="200" fill="#d56333" /><rect width="10" height="10" x="180" y="200" fill="#e8705b" /><rect width="30" height="10" x="190" y="200" fill="#d56333" /><rect width="10" height="10" x="220" y="200" fill="#e8705b" /><rect width="60" height="10" x="100" y="110" fill="#ff638d" /><rect width="60" height="10" x="170" y="110" fill="#ff638d" /><rect width="10" height="10" x="100" y="120" fill="#ff638d" /><rect width="20" height="10" x="110" y="120" fill="#ffffff" /><rect width="20" height="10" x="130" y="120" fill="#000000" /><rect width="10" height="10" x="150" y="120" fill="#ff638d" /><rect width="10" height="10" x="170" y="120" fill="#ff638d" /><rect width="20" height="10" x="180" y="120" fill="#ffffff" /><rect width="20" height="10" x="200" y="120" fill="#000000" /><rect width="10" height="10" x="220" y="120" fill="#ff638d" /><rect width="40" height="10" x="70" y="130" fill="#ff638d" /><rect width="20" height="10" x="110" y="130" fill="#ffffff" /><rect width="20" height="10" x="130" y="130" fill="#000000" /><rect width="30" height="10" x="150" y="130" fill="#ff638d" /><rect width="20" height="10" x="180" y="130" fill="#ffffff" /><rect width="20" height="10" x="200" y="130" fill="#000000" /><rect width="10" height="10" x="220" y="130" fill="#ff638d" /><rect width="40" height="10" x="70" y="140" fill="#ff638d" /><rect width="20" height="10" x="110" y="140" fill="#ffffff" /><rect width="20" height="10" x="130" y="140" fill="#000000" /><rect width="30" height="10" x="150" y="140" fill="#ff638d" /><rect width="20" height="10" x="180" y="140" fill="#ffffff" /><rect width="20" height="10" x="200" y="140" fill="#000000" /><rect width="10" height="10" x="220" y="140" fill="#ff638d" /><rect width="10" height="10" x="70" y="150" fill="#ff638d" /><rect width="10" height="10" x="100" y="150" fill="#ff638d" /><rect width="20" height="10" x="110" y="150" fill="#ffffff" /><rect width="20" height="10" x="130" y="150" fill="#000000" /><rect width="10" height="10" x="150" y="150" fill="#ff638d" /><rect width="10" height="10" x="170" y="150" fill="#ff638d" /><rect width="20" height="10" x="180" y="150" fill="#ffffff" /><rect width="20" height="10" x="200" y="150" fill="#000000" /><rect width="10" height="10" x="220" y="150" fill="#ff638d" /><rect width="60" height="10" x="100" y="160" fill="#ff638d" /><rect width="60" height="10" x="170" y="160" fill="#ff638d" /></svg>