<svg xmlns:xlink="http://www.w3.org/1999/xlink" width="320" height="320" viewBox="0 0 320 320" xmlns="http://www.w3.org/2000/svg" shape-rendering="crispEdges"><rect width="100%" height="100%" fill="#d5d7e1" /><rect width="140" height="10" x="90" y="210" fill="#caeff9" /><rect width="140" height="10" x="90" y="220" fill="#caeff9" /><rect width="140" height="10" x="90" y="230" fill="#caeff9" /><rect width="140" height="10" x="90" y="240" fill="#caeff9" /><rect width="20" height="10" x="90" y="250" fill="#caeff9" /><rect width="110" height="10" x="120" y="250" fill="#caeff9" /><rect width="20" height="10" x="90" y="260" fill="#caeff9" /><rect width="110" height="10" x="120" y="260" fill="#caeff9" /><rect width="20" height="10" x="90" y="270" fill="#caeff9" /><rect width="110" height="10" x="120" y="270" fill="#caeff9" /><rect width="20" height="10" x="90" y="280" fill="#caeff9" /><rect width="110" height="10" x="120" y="280" fill="#caeff9" /><rect width="20" height="10" x="90" y="290" fill="#caeff9" /><rect width="110" height="10" x="120" y="290" fill="#caeff9" /><rect width="20" height="10" x="90" y="300" fill="#caeff9" /><rect width="110" height="10" x="120" y="300" fill="#caeff9" /><rect width="20" height="10" x="90" y="310" fill="#caeff9" /><rect width="110" height="10" x="120" y="310" fill="#caeff9" /><rect width="10" height="10" x="160" y="220" fill="#eab118" /><rect width="10" height="10" x="150" y="230" fill="#eab118" /><rect width="10" height="10" x="160" y="230" fill="#db8323" /><rect width="10" height="10" x="170" y="230" fill="#eab118" /><rect width="10" height="10" x="160" y="240" fill="#eab118" /><rect width="30" height="10" x="150" y="250" fill="#eab118" /><rect width="10" height="10" x="140" y="260" fill="#eab118" /><rect width="30" height="10" x="150" y="260" fill="#db8323" /><rect width="10" height="10" x="180" y="260" fill="#eab118" /><rect width="20" height="10" x="140" y="270" fill="#eab118" /><rect width="20" height="10" x="160" y="270" fill="#db8323" /><rect width="10" height="10" x="180" y="270" fill="#eab118" /><rect width="10" height="10" x="140" y="280" fill="#eab118" /><rect width="30" height="10" x="150" y="280" fill="#db8323" /><rect width="10" height="10" x="180" y="280" fill="#eab118" /><rect width="30" height="10" x="150" y="290" fill="#eab118" /><rect width="10" height="10" x="70" y="40" fill="#eab118" /><rect width="20" height="10" x="150" y="40" fill="#eab118" /><rect width="10" height="10" x="240" y="40" fill="#eab118" /><rect width="10" height="10" x="70" y="50" fill="#eab118" /><rect width="20" height="10" x="150" y="50" fill="#eab118" /><rect width="10" height="10" x="240" y="50" fill="#eab118" /><rect width="20" height="10" x="70" y="60" fill="#eab118" /><rect width="40" height="10" x="140" y="60" fill="#eab118" /><rect width="20" height="10" x="230" y="60" fill="#eab118" /><rect width="20" height="10" x="60" y="70" fill="#257ced" /><rect width="10" height="10" x="80" y="70" fill="#db8323" /><rect width="10" height="10" x="90" y="70" fill="#eab118" /><rect width="10" height="10" x="130" y="70" fill="#eab118" /><rect width="40" height="10" x="140" y="70" fill="#34ac80" /><rect width="10" height="10" x="180" y="70" fill="#eab118" /><rect width="10" height="10" x="220" y="70" fill="#eab118" /><rect width="10" height="10" x="230" y="70" fill="#db8323" /><rect width="20" height="10" x="240" y="70" fill="#ff1a0b" /><rect width="10" height="10" x="60" y="80" fill="#257ced" /><rect width="10" height="10" x="70" y="80" fill="#00499c" /><rect width="10" height="10" x="80" y="80" fill="#db8323" /><rect width="20" height="10" x="90" y="80" fill="#eab118" /><rect width="20" height="10" x="120" y="80" fill="#eab118" /><rect width="10" height="10" x="140" y="80" fill="#34ac80" /><rect width="20" height="10" x="150" y="80" fill="#42ffb0" /><rect width="10" height="10" x="170" y="80" fill="#068940" /><rect width="20" height="10" x="180" y="80" fill="#eab118" /><rect width="20" height="10" x="210" y="80" fill="#eab118" /><rect width="10" height="10" x="230" y="80" fill="#db8323" /><rect width="10" height="10" x="240" y="80" fill="#d22209" /><rect width="10" height="10" x="250" y="80" fill="#ff1a0b" /><rect width="20" height="10" x="60" y="90" fill="#00499c" /><rect width="10" height="10" x="80" y="90" fill="#db8323" /><rect width="50" height="10" x="90" y="90" fill="#eab118" /><rect width="20" height="10" x="140" y="90" fill="#34ac80" /><rect width="20" height="10" x="160" y="90" fill="#068940" /><rect width="50" height="10" x="180" y="90" fill="#eab118" /><rect width="10" height="10" x="230" y="90" fill="#db8323" /><rect width="20" height="10" x="240" y="90" fill="#d22209" /><rect width="180" height="10" x="70" y="100" fill="#eab118" /><rect width="180" height="10" x="70" y="110" fill="#eab118" /><rect width="180" height="10" x="70" y="120" fill="#eab118" /><rect width="180" height="10" x="70" y="130" fill="#eab118" /><rect width="180" height="10" x="70" y="140" fill="#eab118" /><rect width="180" height="10" x="70" y="150" fill="#eab118" /><rect width="180" height="10" x="70" y="160" fill="#eab118" /><rect width="180" height="10" x="70" y="170" fill="#eab118" /><rect width="10" height="10" x="80" y="180" fill="#6e3206" /><rect width="50" height="10" x="90" y="180" fill="#db8323" /><rect width="40" height="10" x="140" y="180" fill="#6e3206" /><rect width="50" height="10" x="180" y="180" fill="#db8323" /><rect width="10" height="10" x="230" y="180" fill="#6e3206" /><rect width="180" height="10" x="70" y="190" fill="#eab118" /><rect width="180" height="10" x="70" y="200" fill="#eab118" /><rect width="60" height="10" x="100" y="110" fill="#ff638d" /><rect width="60" height="10" x="170" y="110" fill="#ff638d" /><rect width="10" height="10" x="100" y="120" fill="#ff638d" /><rect width="20" height="10" x="110" y="120" fill="#ffffff" /><rect width="20" height="10" x="130" y="120" fill="#000000" /><rect width="10" height="10" x="150" y="120" fill="#ff638d" /><rect width="10" height="10" x="170" y="120" fill="#ff638d" /><rect width="20" height="10" x="180" y="120" fill="#ffffff" /><rect width="20" height="10" x="200" y="120" fill="#000000" /><rect width="10" height="10" x="220" y="120" fill="#ff638d" /><rect width="40" height="10" x="70" y="130" fill="#ff638d" /><rect width="20" height="10" x="110" y="130" fill="#ffffff" /><rect width="20" height="10" x="130" y="130" fill="#000000" /><rect width="30" height="10" x="150" y="130" fill="#ff638d" /><rect width="20" height="10" x="180" y="130" fill="#ffffff" /><rect width="20" height="10" x="200" y="130" fill="#000000" /><rect width="10" height="10" x="220" y="130" fill="#ff638d" /><rect width="40" height="10" x="70" y="140" fill="#ff638d" /><rect width="20" height="10" x="110" y="140" fill="#ffffff" /><rect width="20" height="10" x="130" y="140" fill="#000000" /><rect width="30" height="10" x="150" y="140" fill="#ff638d" /><rect width="20" height="10" x="180" y="140" fill="#ffffff" /><rect width="20" height="10" x="200" y="140" fill="#000000" /><rect width="10" height="10" x="220" y="140" fill="#ff638d" /><rect width="10" height="10" x="70" y="150" fill="#ff638d" /><rect width="10" height="10" x="100" y="150" fill="#ff638d" /><rect width="20" height="10" x="110" y="150" fill="#ffffff" /><rect width="20" height="10" x="130" y="150" fill="#000000" /><rect width="10" height="10" x="150" y="150" fill="#ff638d" /><rect width="10" height="10" x="170" y="150" fill="#ff638d" /><rect width="20" height="10" x="180" y="150" fill="#ffffff" /><rect width="20" height="10" x="200" y="150" fill="#000000" /><rect width="10" height="10" x="220" y="150" fill="#ff638d" /><rect width="60" height="10" x="100" y="160" fill="#ff638d" /><rect width="60" height="10" x="170" y="160" fill="#ff638d" /></svg>