<svg xmlns:xlink="http://www.w3.org/1999/xlink" width="320" height="320" viewBox="0 0 320 320" xmlns="http://www.w3.org/2000/svg" shape-rendering="crispEdges"><rect width="100%" height="100%" fill="#d5d7e1" /><rect width="140" height="10" x="90" y="210" fill="#4bea69" /><rect width="140" height="10" x="90" y="220" fill="#4bea69" /><rect width="140" height="10" x="90" y="230" fill="#4bea69" /><rect width="140" height="10" x="90" y="240" fill="#4bea69" /><rect width="20" height="10" x="90" y="250" fill="#4bea69" /><rect width="110" height="10" x="120" y="250" fill="#4bea69" /><rect width="20" height="10" x="90" y="260" fill="#4bea69" /><rect width="110" height="10" x="120" y="260" fill="#4bea69" /><rect width="20" height="10" x="90" y="270" fill="#4bea69" /><rect width="110" height="10" x="120" y="270" fill="#4bea69" /><rect width="20" height="10" x="90" y="280" fill="#4bea69" /><rect width="110" height="10" x="120" y="280" fill="#4bea69" /><rect width="20" height="10" x="90" y="290" fill="#4bea69" /><rect width="110" height="10" x="120" y="290" fill="#4bea69" /><rect width="20" height="10" x="90" y="300" fill="#4bea69" /><rect width="110" height="10" x="120" y="300" fill="#4bea69" /><rect width="20" height="10" x="90" y="310" fill="#4bea69" /><rect width="110" height="10" x="120" y="310" fill="#4bea69" /><rect width="30" height="10" x="160" y="220" fill="#000000" /><rect width="70" height="10" x="140" y="230" fill="#000000" /><rect width="70" height="10" x="140" y="240" fill="#000000" /><rect width="30" height="10" x="130" y="250" fill="#000000" /><rect width="30" height="10" x="160" y="250" fill="#ffffff" /><rect width="30" height="10" x="190" y="250" fill="#000000" /><rect width="30" height="10" x="130" y="260" fill="#000000" /><rect width="10" height="10" x="160" y="260" fill="#ffffff" /><rect width="10" height="10" x="180" y="260" fill="#ffffff" /><rect width="30" height="10" x="190" y="260" fill="#000000" /><rect width="30" height="10" x="130" y="270" fill="#000000" /><rect width="30" height="10" x="160" y="270" fill="#ffffff" /><rect width="30" height="10" x="190" y="270" fill="#000000" /><rect width="70" height="10" x="140" y="280" fill="#000000" /><rect width="70" height="10" x="140" y="290" fill="#000000" /><rect width="30" height="10" x="160" y="300" fill="#000000" /><rect width="30" height="10" x="110" y="40" fill="#34ac80" /><rect width="30" height="10" x="190" y="40" fill="#4bea69" /><rect width="50" height="10" x="100" y="50" fill="#34ac80" /><rect width="50" height="10" x="180" y="50" fill="#4bea69" /><rect width="50" height="10" x="100" y="60" fill="#34ac80" /><rect width="50" height="10" x="180" y="60" fill="#4bea69" /><rect width="30" height="10" x="80" y="70" fill="#4bea69" /><rect width="50" height="10" x="110" y="70" fill="#34ac80" /><rect width="60" height="10" x="170" y="70" fill="#4bea69" /><rect width="20" height="10" x="230" y="70" fill="#34ac80" /><rect width="40" height="10" x="70" y="80" fill="#4bea69" /><rect width="60" height="10" x="110" y="80" fill="#34ac80" /><rect width="40" height="10" x="170" y="80" fill="#4bea69" /><rect width="50" height="10" x="210" y="80" fill="#34ac80" /><rect width="50" height="10" x="70" y="90" fill="#4bea69" /><rect width="50" height="10" x="120" y="90" fill="#34ac80" /><rect width="30" height="10" x="170" y="90" fill="#4bea69" /><rect width="60" height="10" x="200" y="90" fill="#34ac80" /><rect width="60" height="10" x="70" y="100" fill="#4bea69" /><rect width="10" height="10" x="130" y="100" fill="#068940" /><rect width="20" height="10" x="140" y="100" fill="#34ac80" /><rect width="30" height="10" x="160" y="100" fill="#4bea69" /><rect width="10" height="10" x="190" y="100" fill="#068940" /><rect width="60" height="10" x="200" y="100" fill="#34ac80" /><rect width="60" height="10" x="80" y="110" fill="#4bea69" /><rect width="10" height="10" x="140" y="110" fill="#068940" /><rect width="10" height="10" x="150" y="110" fill="#34ac80" /><rect width="20" height="10" x="160" y="110" fill="#4bea69" /><rect width="10" height="10" x="180" y="110" fill="#068940" /><rect width="60" height="10" x="190" y="110" fill="#34ac80" /><rect width="50" height="10" x="100" y="120" fill="#4bea69" /><rect width="10" height="10" x="150" y="120" fill="#068940" /><rect width="10" height="10" x="160" y="120" fill="#4bea69" /><rect width="10" height="10" x="170" y="120" fill="#068940" /><rect width="50" height="10" x="180" y="120" fill="#34ac80" /><rect width="20" height="10" x="110" y="130" fill="#34ac80" /><rect width="30" height="10" x="130" y="130" fill="#4bea69" /><rect width="10" height="10" x="160" y="130" fill="#068940" /><rect width="30" height="10" x="170" y="130" fill="#4bea69" /><rect width="20" height="10" x="200" y="130" fill="#34ac80" /><rect width="50" height="10" x="100" y="140" fill="#34ac80" /><rect width="10" height="10" x="150" y="140" fill="#068940" /><rect width="10" height="10" x="160" y="140" fill="#4bea69" /><rect width="10" height="10" x="170" y="140" fill="#068940" /><rect width="50" height="10" x="180" y="140" fill="#4bea69" /><rect width="60" height="10" x="80" y="150" fill="#34ac80" /><rect width="10" height="10" x="140" y="150" fill="#068940" /><rect width="20" height="10" x="150" y="150" fill="#4bea69" /><rect width="10" height="10" x="170" y="150" fill="#34ac80" /><rect width="10" height="10" x="180" y="150" fill="#068940" /><rect width="60" height="10" x="190" y="150" fill="#4bea69" /><rect width="60" height="10" x="70" y="160" fill="#34ac80" /><rect width="10" height="10" x="130" y="160" fill="#068940" /><rect width="30" height="10" x="140" y="160" fill="#4bea69" /><rect width="20" height="10" x="170" y="160" fill="#34ac80" /><rect width="10" height="10" x="190" y="160" fill="#068940" /><rect width="60" height="10" x="200" y="160" fill="#4bea69" /><rect width="60" height="10" x="70" y="170" fill="#34ac80" /><rect width="30" height="10" x="130" y="170" fill="#4bea69" /><rect width="50" height="10" x="160" y="170" fill="#34ac80" /><rect width="50" height="10" x="210" y="170" fill="#4bea69" /><rect width="50" height="10" x="70" y="180" fill="#34ac80" /><rect width="40" height="10" x="120" y="180" fill="#4bea69" /><rect width="10" height="10" x="160" y="180" fill="#34ac80" /><rect width="50" height="10" x="170" y="180" fill="#0b5027" /><rect width="40" height="10" x="220" y="180" fill="#4bea69" /><rect width="20" height="10" x="270" y="180" fill="#068940" /><rect width="20" height="10" x="80" y="190" fill="#34ac80" /><rect width="60" height="10" x="100" y="190" fill="#4bea69" /><rect width="10" height="10" x="160" y="190" fill="#068940" /><rect width="50" height="10" x="170" y="190" fill="#34ac80" /><rect width="30" height="10" x="220" y="190" fill="#4bea69" /><rect width="40" height="10" x="250" y="190" fill="#068940" /><rect width="50" height="10" x="100" y="200" fill="#4bea69" /><rect width="30" height="10" x="150" y="200" fill="#068940" /><rect width="50" height="10" x="180" y="200" fill="#34ac80" /><rect width="50" height="10" x="230" y="200" fill="#068940" /><rect width="50" height="10" x="100" y="210" fill="#4bea69" /><rect width="50" height="10" x="180" y="210" fill="#34ac80" /><rect width="30" height="10" x="110" y="220" fill="#4bea69" /><rect width="30" height="10" x="190" y="220" fill="#34ac80" /><rect width="60" height="10" x="100" y="110" fill="#068940" /><rect width="60" height="10" x="170" y="110" fill="#257ced" /><rect width="10" height="10" x="100" y="120" fill="#068940" /><rect width="20" height="10" x="110" y="120" fill="#ffffff" /><rect width="20" height="10" x="130" y="120" fill="#000000" /><rect width="10" height="10" x="150" y="120" fill="#068940" /><rect width="10" height="10" x="170" y="120" fill="#257ced" /><rect width="20" height="10" x="180" y="120" fill="#ffffff" /><rect width="20" height="10" x="200" y="120" fill="#000000" /><rect width="10" height="10" x="220" y="120" fill="#257ced" /><rect width="30" height="10" x="70" y="130" fill="#257ced" /><rect width="10" height="10" x="100" y="130" fill="#068940" /><rect width="20" height="10" x="110" y="130" fill="#ffffff" /><rect width="20" height="10" x="130" y="130" fill="#000000" /><rect width="10" height="10" x="150" y="130" fill="#068940" /><rect width="20" height="10" x="160" y="130" fill="#257ced" /><rect width="20" height="10" x="180" y="130" fill="#ffffff" /><rect width="20" height="10" x="200" y="130" fill="#000000" /><rect width="10" height="10" x="220" y="130" fill="#257ced" /><rect width="10" height="10" x="70" y="140" fill="#257ced" /><rect width="10" height="10" x="100" y="140" fill="#068940" /><rect width="20" height="10" x="110" y="140" fill="#ffffff" /><rect width="20" height="10" x="130" y="140" fill="#000000" /><rect width="10" height="10" x="150" y="140" fill="#068940" /><rect width="10" height="10" x="170" y="140" fill="#257ced" /><rect width="20" height="10" x="180" y="140" fill="#ffffff" /><rect width="20" height="10" x="200" y="140" fill="#000000" /><rect width="10" height="10" x="220" y="140" fill="#257ced" /><rect width="10" height="10" x="70" y="150" fill="#257ced" /><rect width="10" height="10" x="100" y="150" fill="#068940" /><rect width="20" height="10" x="110" y="150" fill="#ffffff" /><rect width="20" height="10" x="130" y="150" fill="#000000" /><rect width="10" height="10" x="150" y="150" fill="#068940" /><rect width="10" height="10" x="170" y="150" fill="#257ced" /><rect width="20" height="10" x="180" y="150" fill="#ffffff" /><rect width="20" height="10" x="200" y="150" fill="#000000" /><rect width="10" height="10" x="220" y="150" fill="#257ced" /><rect width="60" height="10" x="100" y="160" fill="#068940" /><rect width="60" height="10" x="170" y="160" fill="#257ced" /></svg>