<svg xmlns:xlink="http://www.w3.org/1999/xlink" width="320" height="320" viewBox="0 0 320 320" xmlns="http://www.w3.org/2000/svg" shape-rendering="crispEdges"><rect width="100%" height="100%" fill="#d5d7e1" /><rect width="140" height="10" x="90" y="210" fill="#34ac80" /><rect width="140" height="10" x="90" y="220" fill="#34ac80" /><rect width="140" height="10" x="90" y="230" fill="#34ac80" /><rect width="140" height="10" x="90" y="240" fill="#34ac80" /><rect width="20" height="10" x="90" y="250" fill="#34ac80" /><rect width="110" height="10" x="120" y="250" fill="#34ac80" /><rect width="20" height="10" x="90" y="260" fill="#34ac80" /><rect width="110" height="10" x="120" y="260" fill="#34ac80" /><rect width="20" height="10" x="90" y="270" fill="#34ac80" /><rect width="110" height="10" x="120" y="270" fill="#34ac80" /><rect width="20" height="10" x="90" y="280" fill="#34ac80" /><rect width="110" height="10" x="120" y="280" fill="#34ac80" /><rect width="20" height="10" x="90" y="290" fill="#34ac80" /><rect width="110" height="10" x="120" y="290" fill="#34ac80" /><rect width="20" height="10" x="90" y="300" fill="#34ac80" /><rect width="110" height="10" x="120" y="300" fill="#34ac80" /><rect width="20" height="10" x="90" y="310" fill="#34ac80" /><rect width="110" height="10" x="120" y="310" fill="#34ac80" /><rect width="30" height="10" x="160" y="220" fill="#000000" /><rect width="70" height="10" x="140" y="230" fill="#000000" /><rect width="70" height="10" x="140" y="240" fill="#000000" /><rect width="30" height="10" x="130" y="250" fill="#000000" /><rect width="30" height="10" x="160" y="250" fill="#ffffff" /><rect width="30" height="10" x="190" y="250" fill="#000000" /><rect width="30" height="10" x="130" y="260" fill="#000000" /><rect width="10" height="10" x="160" y="260" fill="#ffffff" /><rect width="10" height="10" x="180" y="260" fill="#ffffff" /><rect width="30" height="10" x="190" y="260" fill="#000000" /><rect width="30" height="10" x="130" y="270" fill="#000000" /><rect width="30" height="10" x="160" y="270" fill="#ffffff" /><rect width="30" height="10" x="190" y="270" fill="#000000" /><rect width="70" height="10" x="140" y="280" fill="#000000" /><rect width="70" height="10" x="140" y="290" fill="#000000" /><rect width="30" height="10" x="160" y="300" fill="#000000" /><rect width="40" height="10" x="170" y="30" fill="#ff638d" /><rect width="30" height="10" x="210" y="30" fill="#fee3f3" /><rect width="60" height="10" x="150" y="40" fill="#ff638d" /><rect width="10" height="10" x="210" y="40" fill="#fee3f3" /><rect width="10" height="10" x="220" y="40" fill="#000000" /><rect width="10" height="10" x="230" y="40" fill="#fee3f3" /><rect width="10" height="10" x="240" y="40" fill="#ff638d" /><rect width="70" height="10" x="140" y="50" fill="#ff638d" /><rect width="30" height="10" x="210" y="50" fill="#fee3f3" /><rect width="20" height="10" x="240" y="50" fill="#ff638d" /><rect width="40" height="10" x="130" y="60" fill="#ff638d" /><rect width="30" height="10" x="220" y="60" fill="#ff638d" /><rect width="20" height="10" x="250" y="60" fill="#feb9d5" /><rect width="40" height="10" x="120" y="70" fill="#ff638d" /><rect width="30" height="10" x="240" y="70" fill="#feb9d5" /><rect width="40" height="10" x="120" y="80" fill="#ff638d" /><rect width="20" height="10" x="240" y="80" fill="#feb9d5" /><rect width="10" height="10" x="260" y="80" fill="#1f1d29" /><rect width="50" height="10" x="120" y="90" fill="#ff638d" /><rect width="20" height="10" x="250" y="90" fill="#1f1d29" /><rect width="60" height="10" x="130" y="100" fill="#ff638d" /><rect width="20" height="10" x="250" y="100" fill="#1f1d29" /><rect width="80" height="10" x="140" y="110" fill="#ff638d" /><rect width="10" height="10" x="250" y="110" fill="#1f1d29" /><rect width="90" height="10" x="150" y="120" fill="#ff638d" /><rect width="90" height="10" x="160" y="130" fill="#ff638d" /><rect width="80" height="10" x="180" y="140" fill="#ff638d" /><rect width="60" height="10" x="200" y="150" fill="#ff638d" /><rect width="210" height="10" x="60" y="160" fill="#ff82ad" /><rect width="220" height="10" x="50" y="170" fill="#ff82ad" /><rect width="110" height="10" x="50" y="180" fill="#ff638d" /><rect width="60" height="10" x="160" y="180" fill="#b9185c" /><rect width="50" height="10" x="220" y="180" fill="#ff638d" /><rect width="220" height="10" x="50" y="190" fill="#ff638d" /><rect width="200" height="10" x="60" y="200" fill="#ff638d" /><rect width="60" height="10" x="100" y="110" fill="#e8705b" /><rect width="60" height="10" x="170" y="110" fill="#e8705b" /><rect width="10" height="10" x="100" y="120" fill="#e8705b" /><rect width="20" height="10" x="110" y="120" fill="#ffffff" /><rect width="20" height="10" x="130" y="120" fill="#000000" /><rect width="10" height="10" x="150" y="120" fill="#e8705b" /><rect width="10" height="10" x="170" y="120" fill="#e8705b" /><rect width="20" height="10" x="180" y="120" fill="#ffffff" /><rect width="20" height="10" x="200" y="120" fill="#000000" /><rect width="10" height="10" x="220" y="120" fill="#e8705b" /><rect width="40" height="10" x="70" y="130" fill="#e8705b" /><rect width="20" height="10" x="110" y="130" fill="#ffffff" /><rect width="20" height="10" x="130" y="130" fill="#000000" /><rect width="30" height="10" x="150" y="130" fill="#e8705b" /><rect width="20" height="10" x="180" y="130" fill="#ffffff" /><rect width="20" height="10" x="200" y="130" fill="#000000" /><rect width="10" height="10" x="220" y="130" fill="#e8705b" /><rect width="10" height="10" x="70" y="140" fill="#e8705b" /><rect width="10" height="10" x="100" y="140" fill="#e8705b" /><rect width="20" height="10" x="110" y="140" fill="#ffffff" /><rect width="20" height="10" x="130" y="140" fill="#000000" /><rect width="10" height="10" x="150" y="140" fill="#e8705b" /><rect width="10" height="10" x="170" y="140" fill="#e8705b" /><rect width="20" height="10" x="180" y="140" fill="#ffffff" /><rect width="20" height="10" x="200" y="140" fill="#000000" /><rect width="10" height="10" x="220" y="140" fill="#e8705b" /><rect width="10" height="10" x="70" y="150" fill="#e8705b" /><rect width="10" height="10" x="100" y="150" fill="#e8705b" /><rect width="20" height="10" x="110" y="150" fill="#ffffff" /><rect width="20" height="10" x="130" y="150" fill="#000000" /><rect width="10" height="10" x="150" y="150" fill="#e8705b" /><rect width="10" height="10" x="170" y="150" fill="#e8705b" /><rect width="20" height="10" x="180" y="150" fill="#ffffff" /><rect width="20" height="10" x="200" y="150" fill="#000000" /><rect width="10" height="10" x="220" y="150" fill="#e8705b" /><rect width="60" height="10" x="100" y="160" fill="#e8705b" /><rect width="60" height="10" x="170" y="160" fill="#e8705b" /></svg>