<svg xmlns:xlink="http://www.w3.org/1999/xlink" width="320" height="320" viewBox="0 0 320 320" xmlns="http://www.w3.org/2000/svg" shape-rendering="crispEdges"><rect width="100%" height="100%" fill="#e1d7d5" /><rect width="140" height="10" x="90" y="210" fill="#9f21a0" /><rect width="140" height="10" x="90" y="220" fill="#9f21a0" /><rect width="140" height="10" x="90" y="230" fill="#9f21a0" /><rect width="140" height="10" x="90" y="240" fill="#9f21a0" /><rect width="20" height="10" x="90" y="250" fill="#9f21a0" /><rect width="110" height="10" x="120" y="250" fill="#9f21a0" /><rect width="20" height="10" x="90" y="260" fill="#9f21a0" /><rect width="110" height="10" x="120" y="260" fill="#9f21a0" /><rect width="20" height="10" x="90" y="270" fill="#9f21a0" /><rect width="110" height="10" x="120" y="270" fill="#9f21a0" /><rect width="20" height="10" x="90" y="280" fill="#9f21a0" /><rect width="110" height="10" x="120" y="280" fill="#9f21a0" /><rect width="20" height="10" x="90" y="290" fill="#9f21a0" /><rect width="110" height="10" x="120" y="290" fill="#9f21a0" /><rect width="20" height="10" x="90" y="300" fill="#9f21a0" /><rect width="110" height="10" x="120" y="300" fill="#9f21a0" /><rect width="20" height="10" x="90" y="310" fill="#9f21a0" /><rect width="110" height="10" x="120" y="310" fill="#9f21a0" /><rect width="50" height="10" x="140" y="240" fill="#62616d" /><rect width="10" height="10" x="130" y="250" fill="#62616d" /><rect width="10" height="10" x="150" y="250" fill="#62616d" /><rect width="10" height="10" x="170" y="250" fill="#62616d" /><rect width="10" height="10" x="150" y="260" fill="#62616d" /><rect width="10" height="10" x="170" y="260" fill="#62616d" /><rect width="10" height="10" x="150" y="270" fill="#62616d" /><rect width="10" height="10" x="180" y="270" fill="#62616d" /><rect width="120" height="10" x="100" y="40" fill="#b87b11" /><rect width="80" height="10" x="90" y="50" fill="#ffc110" /><rect width="10" height="10" x="170" y="50" fill="#eed811" /><rect width="10" height="10" x="180" y="50" fill="#ffc110" /><rect width="20" height="10" x="190" y="50" fill="#eed811" /><rect width="20" height="10" x="210" y="50" fill="#ffc110" /><rect width="10" height="10" x="80" y="60" fill="#ffc110" /><rect width="140" height="10" x="90" y="60" fill="#fff0ee" /><rect width="10" height="10" x="230" y="60" fill="#ffc110" /><rect width="10" height="10" x="80" y="70" fill="#ffc110" /><rect width="60" height="10" x="90" y="70" fill="#fff0ee" /><rect width="20" height="10" x="150" y="70" fill="#cec189" /><rect width="60" height="10" x="170" y="70" fill="#fff0ee" /><rect width="10" height="10" x="230" y="70" fill="#ffc110" /><rect width="10" height="10" x="80" y="80" fill="#ffc110" /><rect width="30" height="10" x="90" y="80" fill="#fff0ee" /><rect width="10" height="10" x="120" y="80" fill="#cec189" /><rect width="60" height="10" x="130" y="80" fill="#fff0ee" /><rect width="10" height="10" x="190" y="80" fill="#cec189" /><rect width="30" height="10" x="200" y="80" fill="#fff0ee" /><rect width="10" height="10" x="230" y="80" fill="#ffc110" /><rect width="10" height="10" x="80" y="90" fill="#ffc110" /><rect width="140" height="10" x="90" y="90" fill="#fff0ee" /><rect width="10" height="10" x="230" y="90" fill="#ffc110" /><rect width="10" height="10" x="80" y="100" fill="#ffc110" /><rect width="10" height="10" x="90" y="100" fill="#fff0ee" /><rect width="10" height="10" x="100" y="100" fill="#cec189" /><rect width="100" height="10" x="110" y="100" fill="#fff0ee" /><rect width="10" height="10" x="210" y="100" fill="#cec189" /><rect width="10" height="10" x="220" y="100" fill="#fff0ee" /><rect width="10" height="10" x="230" y="100" fill="#ffc110" /><rect width="10" height="10" x="80" y="110" fill="#ffc110" /><rect width="140" height="10" x="90" y="110" fill="#fff0ee" /><rect width="10" height="10" x="230" y="110" fill="#ffc110" /><rect width="10" height="10" x="250" y="110" fill="#b87b11" /><rect width="10" height="10" x="80" y="120" fill="#ffc110" /><rect width="140" height="10" x="90" y="120" fill="#fff0ee" /><rect width="10" height="10" x="230" y="120" fill="#ffc110" /><rect width="10" height="10" x="240" y="120" fill="#b87b11" /><rect width="10" height="10" x="250" y="120" fill="#ffc110" /><rect width="10" height="10" x="80" y="130" fill="#ffc110" /><rect width="140" height="10" x="90" y="130" fill="#fff0ee" /><rect width="10" height="10" x="230" y="130" fill="#ffc110" /><rect width="20" height="10" x="240" y="130" fill="#b87b11" /><rect width="10" height="10" x="80" y="140" fill="#ffc110" /><rect width="140" height="10" x="90" y="140" fill="#fff0ee" /><rect width="10" height="10" x="230" y="140" fill="#ffc110" /><rect width="10" height="10" x="240" y="140" fill="#b87b11" /><rect width="10" height="10" x="250" y="140" fill="#ffc110" /><rect width="10" height="10" x="80" y="150" fill="#ffc110" /><rect width="140" height="10" x="90" y="150" fill="#fff0ee" /><rect width="10" height="10" x="230" y="150" fill="#ffc110" /><rect width="10" height="10" x="250" y="150" fill="#b87b11" /><rect width="10" height="10" x="80" y="160" fill="#ffc110" /><rect width="40" height="10" x="90" y="160" fill="#fff0ee" /><rect width="10" height="10" x="130" y="160" fill="#cec189" /><rect width="40" height="10" x="140" y="160" fill="#fff0ee" /><rect width="10" height="10" x="180" y="160" fill="#cec189" /><rect width="40" height="10" x="190" y="160" fill="#fff0ee" /><rect width="10" height="10" x="230" y="160" fill="#ffc110" /><rect width="10" height="10" x="80" y="170" fill="#ffc110" /><rect width="140" height="10" x="90" y="170" fill="#fff0ee" /><rect width="10" height="10" x="230" y="170" fill="#ffc110" /><rect width="10" height="10" x="80" y="180" fill="#ffc110" /><rect width="60" height="10" x="90" y="180" fill="#fff0ee" /><rect width="20" height="10" x="150" y="180" fill="#cec189" /><rect width="60" height="10" x="170" y="180" fill="#fff0ee" /><rect width="10" height="10" x="230" y="180" fill="#ffc110" /><rect width="10" height="10" x="80" y="190" fill="#ffc110" /><rect width="140" height="10" x="90" y="190" fill="#fff0ee" /><rect width="10" height="10" x="230" y="190" fill="#ffc110" /><rect width="140" height="10" x="90" y="200" fill="#ffc110" /><rect width="120" height="10" x="100" y="210" fill="#b87b11" /><rect width="60" height="10" x="100" y="110" fill="#ffc110" /><rect width="60" height="10" x="170" y="110" fill="#f98f30" /><rect width="10" height="10" x="100" y="120" fill="#ffc110" /><rect width="20" height="10" x="110" y="120" fill="#ffffff" /><rect width="20" height="10" x="130" y="120" fill="#000000" /><rect width="10" height="10" x="150" y="120" fill="#ffc110" /><rect width="10" height="10" x="170" y="120" fill="#f98f30" /><rect width="20" height="10" x="180" y="120" fill="#ffffff" /><rect width="20" height="10" x="200" y="120" fill="#000000" /><rect width="10" height="10" x="220" y="120" fill="#f98f30" /><rect width="30" height="10" x="70" y="130" fill="#f98f30" /><rect width="10" height="10" x="100" y="130" fill="#ffc110" /><rect width="20" height="10" x="110" y="130" fill="#ffffff" /><rect width="20" height="10" x="130" y="130" fill="#000000" /><rect width="10" height="10" x="150" y="130" fill="#ffc110" /><rect width="20" height="10" x="160" y="130" fill="#f98f30" /><rect width="20" height="10" x="180" y="130" fill="#ffffff" /><rect width="20" height="10" x="200" y="130" fill="#000000" /><rect width="10" height="10" x="220" y="130" fill="#f98f30" /><rect width="10" height="10" x="70" y="140" fill="#f98f30" /><rect width="10" height="10" x="100" y="140" fill="#ffc110" /><rect width="20" height="10" x="110" y="140" fill="#ffffff" /><rect width="20" height="10" x="130" y="140" fill="#000000" /><rect width="10" height="10" x="150" y="140" fill="#ffc110" /><rect width="10" height="10" x="170" y="140" fill="#f98f30" /><rect width="20" height="10" x="180" y="140" fill="#ffffff" /><rect width="20" height="10" x="200" y="140" fill="#000000" /><rect width="10" height="10" x="220" y="140" fill="#f98f30" /><rect width="10" height="10" x="70" y="150" fill="#f98f30" /><rect width="10" height="10" x="100" y="150" fill="#ffc110" /><rect width="20" height="10" x="110" y="150" fill="#ffffff" /><rect width="20" height="10" x="130" y="150" fill="#000000" /><rect width="10" height="10" x="150" y="150" fill="#ffc110" /><rect width="10" height="10" x="170" y="150" fill="#f98f30" /><rect width="20" height="10" x="180" y="150" fill="#ffffff" /><rect width="20" height="10" x="200" y="150" fill="#000000" /><rect width="10" height="10" x="220" y="150" fill="#f98f30" /><rect width="60" height="10" x="100" y="160" fill="#ffc110" /><rect width="60" height="10" x="170" y="160" fill="#f98f30" /></svg>