<svg xmlns:xlink="http://www.w3.org/1999/xlink" width="320" height="320" viewBox="0 0 320 320" xmlns="http://www.w3.org/2000/svg" shape-rendering="crispEdges"><rect width="100%" height="100%" fill="#d5d7e1" /><rect width="140" height="10" x="90" y="210" fill="#b9185c" /><rect width="140" height="10" x="90" y="220" fill="#b9185c" /><rect width="140" height="10" x="90" y="230" fill="#b9185c" /><rect width="140" height="10" x="90" y="240" fill="#b9185c" /><rect width="20" height="10" x="90" y="250" fill="#b9185c" /><rect width="110" height="10" x="120" y="250" fill="#b9185c" /><rect width="20" height="10" x="90" y="260" fill="#b9185c" /><rect width="110" height="10" x="120" y="260" fill="#b9185c" /><rect width="20" height="10" x="90" y="270" fill="#b9185c" /><rect width="110" height="10" x="120" y="270" fill="#b9185c" /><rect width="20" height="10" x="90" y="280" fill="#b9185c" /><rect width="110" height="10" x="120" y="280" fill="#b9185c" /><rect width="20" height="10" x="90" y="290" fill="#b9185c" /><rect width="110" height="10" x="120" y="290" fill="#b9185c" /><rect width="20" height="10" x="90" y="300" fill="#b9185c" /><rect width="110" height="10" x="120" y="300" fill="#b9185c" /><rect width="20" height="10" x="90" y="310" fill="#b9185c" /><rect width="110" height="10" x="120" y="310" fill="#b9185c" /><rect width="10" height="10" x="110" y="210" fill="#505a5c" /><rect width="10" height="10" x="210" y="210" fill="#505a5c" /><rect width="10" height="10" x="120" y="220" fill="#505a5c" /><rect width="10" height="10" x="200" y="220" fill="#505a5c" /><rect width="10" height="10" x="130" y="230" fill="#505a5c" /><rect width="10" height="10" x="190" y="230" fill="#505a5c" /><rect width="10" height="10" x="140" y="240" fill="#505a5c" /><rect width="10" height="10" x="180" y="240" fill="#505a5c" /><rect width="30" height="10" x="150" y="250" fill="#505a5c" /><rect width="10" height="10" x="160" y="260" fill="#343235" /><rect width="20" height="10" x="130" y="270" fill="#343235" /><rect width="50" height="10" x="150" y="270" fill="#505a5c" /><rect width="20" height="10" x="140" y="280" fill="#343235" /><rect width="30" height="10" x="160" y="280" fill="#505a5c" /><rect width="30" height="10" x="150" y="290" fill="#343235" /><rect width="20" height="10" x="140" y="300" fill="#343235" /><rect width="30" height="10" x="160" y="300" fill="#505a5c" /><rect width="60" height="10" x="100" y="30" fill="#c16710" /><rect width="50" height="10" x="170" y="30" fill="#c16710" /><rect width="10" height="10" x="90" y="40" fill="#c16710" /><rect width="60" height="10" x="100" y="40" fill="#ffc110" /><rect width="10" height="10" x="160" y="40" fill="#c16710" /><rect width="50" height="10" x="170" y="40" fill="#ffc110" /><rect width="10" height="10" x="220" y="40" fill="#c16710" /><rect width="10" height="10" x="80" y="50" fill="#c16710" /><rect width="10" height="10" x="90" y="50" fill="#ffc110" /><rect width="60" height="10" x="100" y="50" fill="#c16710" /><rect width="10" height="10" x="160" y="50" fill="#ffc110" /><rect width="50" height="10" x="170" y="50" fill="#c16710" /><rect width="10" height="10" x="220" y="50" fill="#ffc110" /><rect width="10" height="10" x="230" y="50" fill="#c16710" /><rect width="10" height="10" x="50" y="60" fill="#c16710" /><rect width="10" height="10" x="70" y="60" fill="#c16710" /><rect width="10" height="10" x="80" y="60" fill="#ffc110" /><rect width="10" height="10" x="90" y="60" fill="#c16710" /><rect width="60" height="10" x="100" y="60" fill="#ffc110" /><rect width="10" height="10" x="160" y="60" fill="#c16710" /><rect width="50" height="10" x="170" y="60" fill="#ffc110" /><rect width="10" height="10" x="220" y="60" fill="#c16710" /><rect width="10" height="10" x="230" y="60" fill="#ffc110" /><rect width="10" height="10" x="240" y="60" fill="#c16710" /><rect width="10" height="10" x="260" y="60" fill="#c16710" /><rect width="10" height="10" x="60" y="70" fill="#c16710" /><rect width="10" height="10" x="70" y="70" fill="#ffc110" /><rect width="10" height="10" x="80" y="70" fill="#c16710" /><rect width="10" height="10" x="90" y="70" fill="#ffc110" /><rect width="60" height="10" x="100" y="70" fill="#c16710" /><rect width="10" height="10" x="160" y="70" fill="#ffc110" /><rect width="50" height="10" x="170" y="70" fill="#c16710" /><rect width="10" height="10" x="220" y="70" fill="#ffc110" /><rect width="10" height="10" x="230" y="70" fill="#c16710" /><rect width="10" height="10" x="240" y="70" fill="#ffc110" /><rect width="10" height="10" x="250" y="70" fill="#c16710" /><rect width="10" height="10" x="60" y="80" fill="#c16710" /><rect width="10" height="10" x="70" y="80" fill="#ffc110" /><rect width="10" height="10" x="80" y="80" fill="#c16710" /><rect width="10" height="10" x="90" y="80" fill="#ffc110" /><rect width="10" height="10" x="100" y="80" fill="#c16710" /><rect width="10" height="10" x="160" y="80" fill="#c16710" /><rect width="10" height="10" x="210" y="80" fill="#c16710" /><rect width="10" height="10" x="220" y="80" fill="#ffc110" /><rect width="10" height="10" x="230" y="80" fill="#c16710" /><rect width="10" height="10" x="240" y="80" fill="#ffc110" /><rect width="10" height="10" x="250" y="80" fill="#c16710" /><rect width="10" height="10" x="60" y="90" fill="#c16710" /><rect width="10" height="10" x="70" y="90" fill="#ffc110" /><rect width="10" height="10" x="80" y="90" fill="#c16710" /><rect width="10" height="10" x="90" y="90" fill="#ffc110" /><rect width="10" height="10" x="100" y="90" fill="#c16710" /><rect width="10" height="10" x="210" y="90" fill="#c16710" /><rect width="10" height="10" x="220" y="90" fill="#ffc110" /><rect width="10" height="10" x="230" y="90" fill="#c16710" /><rect width="10" height="10" x="240" y="90" fill="#ffc110" /><rect width="10" height="10" x="250" y="90" fill="#c16710" /><rect width="10" height="10" x="60" y="100" fill="#c16710" /><rect width="10" height="10" x="70" y="100" fill="#ffc110" /><rect width="10" height="10" x="80" y="100" fill="#c16710" /><rect width="10" height="10" x="90" y="100" fill="#ffc110" /><rect width="10" height="10" x="100" y="100" fill="#c16710" /><rect width="10" height="10" x="210" y="100" fill="#c16710" /><rect width="10" height="10" x="220" y="100" fill="#ffc110" /><rect width="10" height="10" x="230" y="100" fill="#c16710" /><rect width="10" height="10" x="240" y="100" fill="#ffc110" /><rect width="10" height="10" x="250" y="100" fill="#c16710" /><rect width="10" height="10" x="40" y="110" fill="#c16710" /><rect width="10" height="10" x="60" y="110" fill="#c16710" /><rect width="10" height="10" x="70" y="110" fill="#ffc110" /><rect width="10" height="10" x="80" y="110" fill="#c16710" /><rect width="10" height="10" x="90" y="110" fill="#ffc110" /><rect width="10" height="10" x="100" y="110" fill="#c16710" /><rect width="10" height="10" x="210" y="110" fill="#c16710" /><rect width="10" height="10" x="220" y="110" fill="#ffc110" /><rect width="10" height="10" x="230" y="110" fill="#c16710" /><rect width="10" height="10" x="240" y="110" fill="#ffc110" /><rect width="10" height="10" x="250" y="110" fill="#c16710" /><rect width="10" height="10" x="270" y="110" fill="#c16710" /><rect width="10" height="10" x="50" y="120" fill="#c16710" /><rect width="10" height="10" x="60" y="120" fill="#ffc110" /><rect width="10" height="10" x="70" y="120" fill="#c16710" /><rect width="10" height="10" x="80" y="120" fill="#ffc110" /><rect width="10" height="10" x="90" y="120" fill="#c16710" /><rect width="10" height="10" x="220" y="120" fill="#c16710" /><rect width="10" height="10" x="230" y="120" fill="#ffc110" /><rect width="10" height="10" x="240" y="120" fill="#c16710" /><rect width="10" height="10" x="250" y="120" fill="#ffc110" /><rect width="10" height="10" x="260" y="120" fill="#c16710" /><rect width="10" height="10" x="50" y="130" fill="#c16710" /><rect width="10" height="10" x="60" y="130" fill="#ffc110" /><rect width="10" height="10" x="70" y="130" fill="#c16710" /><rect width="10" height="10" x="80" y="130" fill="#ffc110" /><rect width="10" height="10" x="90" y="130" fill="#c16710" /><rect width="10" height="10" x="220" y="130" fill="#c16710" /><rect width="10" height="10" x="230" y="130" fill="#ffc110" /><rect width="10" height="10" x="240" y="130" fill="#c16710" /><rect width="10" height="10" x="250" y="130" fill="#ffc110" /><rect width="10" height="10" x="260" y="130" fill="#c16710" /><rect width="10" height="10" x="50" y="140" fill="#c16710" /><rect width="10" height="10" x="60" y="140" fill="#ffc110" /><rect width="10" height="10" x="70" y="140" fill="#c16710" /><rect width="10" height="10" x="80" y="140" fill="#ffc110" /><rect width="10" height="10" x="90" y="140" fill="#c16710" /><rect width="10" height="10" x="220" y="140" fill="#c16710" /><rect width="10" height="10" x="230" y="140" fill="#ffc110" /><rect width="10" height="10" x="240" y="140" fill="#c16710" /><rect width="10" height="10" x="250" y="140" fill="#ffc110" /><rect width="10" height="10" x="260" y="140" fill="#c16710" /><rect width="10" height="10" x="50" y="150" fill="#c16710" /><rect width="10" height="10" x="60" y="150" fill="#ffc110" /><rect width="10" height="10" x="70" y="150" fill="#c16710" /><rect width="10" height="10" x="80" y="150" fill="#ffc110" /><rect width="10" height="10" x="90" y="150" fill="#c16710" /><rect width="10" height="10" x="220" y="150" fill="#c16710" /><rect width="10" height="10" x="230" y="150" fill="#ffc110" /><rect width="10" height="10" x="240" y="150" fill="#c16710" /><rect width="10" height="10" x="250" y="150" fill="#ffc110" /><rect width="10" height="10" x="260" y="150" fill="#c16710" /><rect width="10" height="10" x="30" y="160" fill="#c16710" /><rect width="10" height="10" x="50" y="160" fill="#c16710" /><rect width="10" height="10" x="60" y="160" fill="#ffc110" /><rect width="10" height="10" x="70" y="160" fill="#c16710" /><rect width="10" height="10" x="80" y="160" fill="#ffc110" /><rect width="10" height="10" x="90" y="160" fill="#c16710" /><rect width="10" height="10" x="220" y="160" fill="#c16710" /><rect width="10" height="10" x="230" y="160" fill="#ffc110" /><rect width="10" height="10" x="240" y="160" fill="#c16710" /><rect width="10" height="10" x="250" y="160" fill="#ffc110" /><rect width="10" height="10" x="260" y="160" fill="#c16710" /><rect width="10" height="10" x="280" y="160" fill="#c16710" /><rect width="10" height="10" x="40" y="170" fill="#c16710" /><rect width="10" height="10" x="50" y="170" fill="#ffc110" /><rect width="10" height="10" x="60" y="170" fill="#c16710" /><rect width="10" height="10" x="70" y="170" fill="#ffc110" /><rect width="10" height="10" x="80" y="170" fill="#c16710" /><rect width="10" height="10" x="230" y="170" fill="#c16710" /><rect width="10" height="10" x="240" y="170" fill="#ffc110" /><rect width="10" height="10" x="250" y="170" fill="#c16710" /><rect width="10" height="10" x="260" y="170" fill="#ffc110" /><rect width="10" height="10" x="270" y="170" fill="#c16710" /><rect width="10" height="10" x="40" y="180" fill="#c16710" /><rect width="10" height="10" x="50" y="180" fill="#ffc110" /><rect width="10" height="10" x="60" y="180" fill="#c16710" /><rect width="10" height="10" x="70" y="180" fill="#ffc110" /><rect width="10" height="10" x="80" y="180" fill="#c16710" /><rect width="10" height="10" x="230" y="180" fill="#c16710" /><rect width="10" height="10" x="240" y="180" fill="#ffc110" /><rect width="10" height="10" x="250" y="180" fill="#c16710" /><rect width="10" height="10" x="260" y="180" fill="#ffc110" /><rect width="10" height="10" x="270" y="180" fill="#c16710" /><rect width="10" height="10" x="40" y="190" fill="#c16710" /><rect width="10" height="10" x="50" y="190" fill="#ffc110" /><rect width="10" height="10" x="60" y="190" fill="#c16710" /><rect width="10" height="10" x="70" y="190" fill="#ffc110" /><rect width="10" height="10" x="80" y="190" fill="#c16710" /><rect width="10" height="10" x="230" y="190" fill="#c16710" /><rect width="10" height="10" x="240" y="190" fill="#ffc110" /><rect width="10" height="10" x="250" y="190" fill="#c16710" /><rect width="10" height="10" x="260" y="190" fill="#ffc110" /><rect width="10" height="10" x="270" y="190" fill="#c16710" /><rect width="10" height="10" x="40" y="200" fill="#c16710" /><rect width="10" height="10" x="50" y="200" fill="#ffc110" /><rect width="10" height="10" x="60" y="200" fill="#c16710" /><rect width="10" height="10" x="70" y="200" fill="#ffc110" /><rect width="10" height="10" x="80" y="200" fill="#c16710" /><rect width="10" height="10" x="230" y="200" fill="#c16710" /><rect width="10" height="10" x="240" y="200" fill="#ffc110" /><rect width="10" height="10" x="250" y="200" fill="#c16710" /><rect width="10" height="10" x="260" y="200" fill="#ffc110" /><rect width="10" height="10" x="270" y="200" fill="#c16710" /><rect width="20" height="10" x="20" y="210" fill="#c16710" /><rect width="10" height="10" x="50" y="210" fill="#c16710" /><rect width="10" height="10" x="70" y="210" fill="#c16710" /><rect width="10" height="10" x="240" y="210" fill="#c16710" /><rect width="10" height="10" x="260" y="210" fill="#c16710" /><rect width="20" height="10" x="280" y="210" fill="#c16710" /><rect width="60" height="10" x="100" y="110" fill="#000000" /><rect width="60" height="10" x="170" y="110" fill="#000000" /><rect width="10" height="10" x="100" y="120" fill="#000000" /><rect width="20" height="10" x="110" y="120" fill="#ffffff" /><rect width="30" height="10" x="130" y="120" fill="#000000" /><rect width="10" height="10" x="170" y="120" fill="#000000" /><rect width="20" height="10" x="180" y="120" fill="#ffffff" /><rect width="30" height="10" x="200" y="120" fill="#000000" /><rect width="40" height="10" x="70" y="130" fill="#000000" /><rect width="20" height="10" x="110" y="130" fill="#ffffff" /><rect width="50" height="10" x="130" y="130" fill="#000000" /><rect width="20" height="10" x="180" y="130" fill="#ffffff" /><rect width="30" height="10" x="200" y="130" fill="#000000" /><rect width="10" height="10" x="70" y="140" fill="#000000" /><rect width="10" height="10" x="100" y="140" fill="#000000" /><rect width="20" height="10" x="110" y="140" fill="#ffffff" /><rect width="30" height="10" x="130" y="140" fill="#000000" /><rect width="10" height="10" x="170" y="140" fill="#000000" /><rect width="20" height="10" x="180" y="140" fill="#ffffff" /><rect width="30" height="10" x="200" y="140" fill="#000000" /><rect width="10" height="10" x="70" y="150" fill="#000000" /><rect width="10" height="10" x="100" y="150" fill="#000000" /><rect width="20" height="10" x="110" y="150" fill="#ffffff" /><rect width="30" height="10" x="130" y="150" fill="#000000" /><rect width="10" height="10" x="170" y="150" fill="#000000" /><rect width="20" height="10" x="180" y="150" fill="#ffffff" /><rect width="30" height="10" x="200" y="150" fill="#000000" /><rect width="60" height="10" x="100" y="160" fill="#000000" /><rect width="60" height="10" x="170" y="160" fill="#000000" /></svg>