<svg xmlns:xlink="http://www.w3.org/1999/xlink" width="320" height="320" viewBox="0 0 320 320" xmlns="http://www.w3.org/2000/svg" shape-rendering="crispEdges"><rect width="100%" height="100%" fill="#e1d7d5" /><rect width="140" height="10" x="90" y="210" fill="#d22209" /><rect width="140" height="10" x="90" y="220" fill="#d22209" /><rect width="140" height="10" x="90" y="230" fill="#d22209" /><rect width="140" height="10" x="90" y="240" fill="#d22209" /><rect width="20" height="10" x="90" y="250" fill="#d22209" /><rect width="110" height="10" x="120" y="250" fill="#d22209" /><rect width="20" height="10" x="90" y="260" fill="#d22209" /><rect width="110" height="10" x="120" y="260" fill="#d22209" /><rect width="20" height="10" x="90" y="270" fill="#d22209" /><rect width="110" height="10" x="120" y="270" fill="#d22209" /><rect width="20" height="10" x="90" y="280" fill="#d22209" /><rect width="110" height="10" x="120" y="280" fill="#d22209" /><rect width="20" height="10" x="90" y="290" fill="#d22209" /><rect width="110" height="10" x="120" y="290" fill="#d22209" /><rect width="20" height="10" x="90" y="300" fill="#d22209" /><rect width="110" height="10" x="120" y="300" fill="#d22209" /><rect width="20" height="10" x="90" y="310" fill="#d22209" /><rect width="110" height="10" x="120" y="310" fill="#d22209" /><rect width="30" height="10" x="140" y="240" fill="#ffffff" /><rect width="30" height="10" x="140" y="250" fill="#ffffff" /><rect width="10" height="10" x="160" y="270" fill="#ffffff" /><rect width="10" height="10" x="180" y="280" fill="#ffffff" /><rect width="10" height="10" x="110" y="30" fill="#85634f" /><rect width="10" height="10" x="120" y="30" fill="#9d8e6e" /><rect width="20" height="10" x="110" y="40" fill="#85634f" /><rect width="10" height="10" x="130" y="40" fill="#9d8e6e" /><rect width="30" height="10" x="100" y="50" fill="#85634f" /><rect width="20" height="10" x="130" y="50" fill="#9d8e6e" /><rect width="30" height="10" x="100" y="60" fill="#85634f" /><rect width="30" height="10" x="130" y="60" fill="#9d8e6e" /><rect width="50" height="10" x="90" y="70" fill="#85634f" /><rect width="30" height="10" x="140" y="70" fill="#9d8e6e" /><rect width="50" height="10" x="90" y="80" fill="#85634f" /><rect width="40" height="10" x="140" y="80" fill="#9d8e6e" /><rect width="20" height="10" x="80" y="90" fill="#85634f" /><rect width="20" height="10" x="100" y="90" fill="#6b3f39" /><rect width="20" height="10" x="120" y="90" fill="#85634f" /><rect width="10" height="10" x="140" y="90" fill="#9d8e6e" /><rect width="20" height="10" x="150" y="90" fill="#85634f" /><rect width="20" height="10" x="170" y="90" fill="#9d8e6e" /><rect width="70" height="10" x="80" y="100" fill="#85634f" /><rect width="50" height="10" x="150" y="100" fill="#9d8e6e" /><rect width="80" height="10" x="70" y="110" fill="#85634f" /><rect width="60" height="10" x="150" y="110" fill="#9d8e6e" /><rect width="80" height="10" x="70" y="120" fill="#85634f" /><rect width="70" height="10" x="150" y="120" fill="#9d8e6e" /><rect width="100" height="10" x="60" y="130" fill="#85634f" /><rect width="70" height="10" x="160" y="130" fill="#9d8e6e" /><rect width="100" height="10" x="60" y="140" fill="#85634f" /><rect width="80" height="10" x="160" y="140" fill="#9d8e6e" /><rect width="110" height="10" x="50" y="150" fill="#85634f" /><rect width="90" height="10" x="160" y="150" fill="#9d8e6e" /><rect width="120" height="10" x="50" y="160" fill="#85634f" /><rect width="60" height="10" x="170" y="160" fill="#9d8e6e" /><rect width="20" height="10" x="230" y="160" fill="#85634f" /><rect width="10" height="10" x="250" y="160" fill="#9d8e6e" /><rect width="130" height="10" x="40" y="170" fill="#85634f" /><rect width="100" height="10" x="170" y="170" fill="#9d8e6e" /><rect width="10" height="10" x="40" y="180" fill="#85634f" /><rect width="30" height="10" x="50" y="180" fill="#6b3f39" /><rect width="10" height="10" x="80" y="180" fill="#85634f" /><rect width="10" height="10" x="90" y="180" fill="#6b3f39" /><rect width="70" height="10" x="100" y="180" fill="#85634f" /><rect width="70" height="10" x="170" y="180" fill="#9d8e6e" /><rect width="30" height="10" x="240" y="180" fill="#85634f" /><rect width="10" height="10" x="270" y="180" fill="#9d8e6e" /><rect width="90" height="10" x="30" y="190" fill="#85634f" /><rect width="30" height="10" x="120" y="190" fill="#000000" /><rect width="30" height="10" x="150" y="190" fill="#85634f" /><rect width="110" height="10" x="180" y="190" fill="#9d8e6e" /><rect width="150" height="10" x="30" y="200" fill="#85634f" /><rect width="120" height="10" x="180" y="200" fill="#9d8e6e" /><rect width="60" height="10" x="100" y="110" fill="#ec5b43" /><rect width="60" height="10" x="170" y="110" fill="#ec5b43" /><rect width="10" height="10" x="100" y="120" fill="#ec5b43" /><rect width="20" height="10" x="110" y="120" fill="#ffffff" /><rect width="20" height="10" x="130" y="120" fill="#000000" /><rect width="10" height="10" x="150" y="120" fill="#ec5b43" /><rect width="10" height="10" x="170" y="120" fill="#ec5b43" /><rect width="20" height="10" x="180" y="120" fill="#ffffff" /><rect width="20" height="10" x="200" y="120" fill="#000000" /><rect width="10" height="10" x="220" y="120" fill="#ec5b43" /><rect width="40" height="10" x="70" y="130" fill="#ec5b43" /><rect width="20" height="10" x="110" y="130" fill="#ffffff" /><rect width="20" height="10" x="130" y="130" fill="#000000" /><rect width="30" height="10" x="150" y="130" fill="#ec5b43" /><rect width="20" height="10" x="180" y="130" fill="#ffffff" /><rect width="20" height="10" x="200" y="130" fill="#000000" /><rect width="10" height="10" x="220" y="130" fill="#ec5b43" /><rect width="10" height="10" x="70" y="140" fill="#ec5b43" /><rect width="10" height="10" x="100" y="140" fill="#ec5b43" /><rect width="20" height="10" x="110" y="140" fill="#ffffff" /><rect width="20" height="10" x="130" y="140" fill="#000000" /><rect width="10" height="10" x="150" y="140" fill="#ec5b43" /><rect width="10" height="10" x="170" y="140" fill="#ec5b43" /><rect width="20" height="10" x="180" y="140" fill="#ffffff" /><rect width="20" height="10" x="200" y="140" fill="#000000" /><rect width="10" height="10" x="220" y="140" fill="#ec5b43" /><rect width="10" height="10" x="70" y="150" fill="#ec5b43" /><rect width="10" height="10" x="100" y="150" fill="#ec5b43" /><rect width="20" height="10" x="110" y="150" fill="#ffffff" /><rect width="20" height="10" x="130" y="150" fill="#000000" /><rect width="10" height="10" x="150" y="150" fill="#ec5b43" /><rect width="10" height="10" x="170" y="150" fill="#ec5b43" /><rect width="20" height="10" x="180" y="150" fill="#ffffff" /><rect width="20" height="10" x="200" y="150" fill="#000000" /><rect width="10" height="10" x="220" y="150" fill="#ec5b43" /><rect width="60" height="10" x="100" y="160" fill="#ec5b43" /><rect width="60" height="10" x="170" y="160" fill="#ec5b43" /></svg>