<svg xmlns:xlink="http://www.w3.org/1999/xlink" width="320" height="320" viewBox="0 0 320 320" xmlns="http://www.w3.org/2000/svg" shape-rendering="crispEdges"><rect width="100%" height="100%" fill="#e1d7d5" /><rect width="140" height="10" x="90" y="210" fill="#c54e38" /><rect width="140" height="10" x="90" y="220" fill="#c54e38" /><rect width="140" height="10" x="90" y="230" fill="#c54e38" /><rect width="140" height="10" x="90" y="240" fill="#c54e38" /><rect width="20" height="10" x="90" y="250" fill="#c54e38" /><rect width="110" height="10" x="120" y="250" fill="#c54e38" /><rect width="20" height="10" x="90" y="260" fill="#c54e38" /><rect width="110" height="10" x="120" y="260" fill="#c54e38" /><rect width="20" height="10" x="90" y="270" fill="#c54e38" /><rect width="110" height="10" x="120" y="270" fill="#c54e38" /><rect width="20" height="10" x="90" y="280" fill="#c54e38" /><rect width="110" height="10" x="120" y="280" fill="#c54e38" /><rect width="20" height="10" x="90" y="290" fill="#c54e38" /><rect width="110" height="10" x="120" y="290" fill="#c54e38" /><rect width="20" height="10" x="90" y="300" fill="#c54e38" /><rect width="110" height="10" x="120" y="300" fill="#c54e38" /><rect width="20" height="10" x="90" y="310" fill="#c54e38" /><rect width="110" height="10" x="120" y="310" fill="#c54e38" /><rect width="10" height="10" x="110" y="210" fill="#068940" /><rect width="10" height="10" x="140" y="210" fill="#068940" /><rect width="10" height="10" x="170" y="210" fill="#068940" /><rect width="10" height="10" x="200" y="210" fill="#068940" /><rect width="10" height="10" x="90" y="220" fill="#0b5027" /><rect width="10" height="10" x="120" y="220" fill="#0b5027" /><rect width="10" height="10" x="150" y="220" fill="#0b5027" /><rect width="10" height="10" x="180" y="220" fill="#0b5027" /><rect width="10" height="10" x="210" y="220" fill="#0b5027" /><rect width="10" height="10" x="100" y="230" fill="#068940" /><rect width="10" height="10" x="130" y="230" fill="#068940" /><rect width="10" height="10" x="160" y="230" fill="#068940" /><rect width="10" height="10" x="190" y="230" fill="#068940" /><rect width="10" height="10" x="220" y="230" fill="#068940" /><rect width="10" height="10" x="110" y="240" fill="#0b5027" /><rect width="10" height="10" x="140" y="240" fill="#0b5027" /><rect width="10" height="10" x="170" y="240" fill="#0b5027" /><rect width="10" height="10" x="200" y="240" fill="#0b5027" /><rect width="10" height="10" x="90" y="250" fill="#068940" /><rect width="10" height="10" x="120" y="250" fill="#068940" /><rect width="10" height="10" x="150" y="250" fill="#068940" /><rect width="10" height="10" x="180" y="250" fill="#068940" /><rect width="10" height="10" x="210" y="250" fill="#068940" /><rect width="10" height="10" x="100" y="260" fill="#0b5027" /><rect width="10" height="10" x="130" y="260" fill="#0b5027" /><rect width="10" height="10" x="160" y="260" fill="#0b5027" /><rect width="10" height="10" x="190" y="260" fill="#0b5027" /><rect width="10" height="10" x="220" y="260" fill="#0b5027" /><rect width="10" height="10" x="140" y="270" fill="#068940" /><rect width="10" height="10" x="170" y="270" fill="#068940" /><rect width="10" height="10" x="200" y="270" fill="#068940" /><rect width="10" height="10" x="90" y="280" fill="#0b5027" /><rect width="10" height="10" x="120" y="280" fill="#0b5027" /><rect width="10" height="10" x="150" y="280" fill="#0b5027" /><rect width="10" height="10" x="180" y="280" fill="#0b5027" /><rect width="10" height="10" x="210" y="280" fill="#0b5027" /><rect width="10" height="10" x="100" y="290" fill="#068940" /><rect width="10" height="10" x="130" y="290" fill="#068940" /><rect width="10" height="10" x="160" y="290" fill="#068940" /><rect width="10" height="10" x="190" y="290" fill="#068940" /><rect width="10" height="10" x="220" y="290" fill="#068940" /><rect width="10" height="10" x="140" y="300" fill="#0b5027" /><rect width="10" height="10" x="170" y="300" fill="#0b5027" /><rect width="10" height="10" x="200" y="300" fill="#0b5027" /><rect width="10" height="10" x="90" y="310" fill="#068940" /><rect width="10" height="10" x="120" y="310" fill="#068940" /><rect width="10" height="10" x="150" y="310" fill="#068940" /><rect width="10" height="10" x="180" y="310" fill="#068940" /><rect width="10" height="10" x="210" y="310" fill="#068940" /><rect width="30" height="10" x="140" y="50" fill="#6b7212" /><rect width="10" height="10" x="170" y="50" fill="#aa940c" /><rect width="10" height="10" x="180" y="50" fill="#6b7212" /><rect width="30" height="10" x="140" y="60" fill="#6b7212" /><rect width="10" height="10" x="170" y="60" fill="#aa940c" /><rect width="10" height="10" x="180" y="60" fill="#6b7212" /><rect width="30" height="10" x="140" y="70" fill="#6b7212" /><rect width="10" height="10" x="170" y="70" fill="#aa940c" /><rect width="10" height="10" x="180" y="70" fill="#6b7212" /><rect width="70" height="10" x="90" y="80" fill="#f3322c" /><rect width="10" height="10" x="160" y="80" fill="#6b7212" /><rect width="70" height="10" x="170" y="80" fill="#f3322c" /><rect width="70" height="10" x="90" y="90" fill="#f3322c" /><rect width="10" height="10" x="160" y="90" fill="#bd2d24" /><rect width="70" height="10" x="170" y="90" fill="#f3322c" /><rect width="20" height="10" x="60" y="100" fill="#f3322c" /><rect width="10" height="10" x="80" y="100" fill="#bd2d24" /><rect width="70" height="10" x="90" y="100" fill="#f3322c" /><rect width="10" height="10" x="160" y="100" fill="#bd2d24" /><rect width="70" height="10" x="170" y="100" fill="#f3322c" /><rect width="10" height="10" x="240" y="100" fill="#bd2d24" /><rect width="20" height="10" x="250" y="100" fill="#f3322c" /><rect width="20" height="10" x="60" y="110" fill="#f3322c" /><rect width="10" height="10" x="80" y="110" fill="#bd2d24" /><rect width="70" height="10" x="90" y="110" fill="#f3322c" /><rect width="10" height="10" x="160" y="110" fill="#bd2d24" /><rect width="70" height="10" x="170" y="110" fill="#f3322c" /><rect width="10" height="10" x="240" y="110" fill="#bd2d24" /><rect width="20" height="10" x="250" y="110" fill="#f3322c" /><rect width="20" height="10" x="60" y="120" fill="#f3322c" /><rect width="10" height="10" x="80" y="120" fill="#bd2d24" /><rect width="70" height="10" x="90" y="120" fill="#f3322c" /><rect width="10" height="10" x="160" y="120" fill="#bd2d24" /><rect width="70" height="10" x="170" y="120" fill="#f3322c" /><rect width="10" height="10" x="240" y="120" fill="#bd2d24" /><rect width="20" height="10" x="250" y="120" fill="#f3322c" /><rect width="20" height="10" x="60" y="130" fill="#f3322c" /><rect width="10" height="10" x="80" y="130" fill="#bd2d24" /><rect width="70" height="10" x="90" y="130" fill="#f3322c" /><rect width="10" height="10" x="160" y="130" fill="#bd2d24" /><rect width="70" height="10" x="170" y="130" fill="#f3322c" /><rect width="10" height="10" x="240" y="130" fill="#bd2d24" /><rect width="20" height="10" x="250" y="130" fill="#f3322c" /><rect width="20" height="10" x="60" y="140" fill="#f3322c" /><rect width="10" height="10" x="80" y="140" fill="#bd2d24" /><rect width="70" height="10" x="90" y="140" fill="#f3322c" /><rect width="10" height="10" x="160" y="140" fill="#bd2d24" /><rect width="70" height="10" x="170" y="140" fill="#f3322c" /><rect width="10" height="10" x="240" y="140" fill="#bd2d24" /><rect width="20" height="10" x="250" y="140" fill="#f3322c" /><rect width="20" height="10" x="60" y="150" fill="#f3322c" /><rect width="10" height="10" x="80" y="150" fill="#bd2d24" /><rect width="70" height="10" x="90" y="150" fill="#f3322c" /><rect width="10" height="10" x="160" y="150" fill="#bd2d24" /><rect width="70" height="10" x="170" y="150" fill="#f3322c" /><rect width="10" height="10" x="240" y="150" fill="#bd2d24" /><rect width="20" height="10" x="250" y="150" fill="#f3322c" /><rect width="20" height="10" x="60" y="160" fill="#f3322c" /><rect width="10" height="10" x="80" y="160" fill="#bd2d24" /><rect width="70" height="10" x="90" y="160" fill="#f3322c" /><rect width="10" height="10" x="160" y="160" fill="#bd2d24" /><rect width="70" height="10" x="170" y="160" fill="#f3322c" /><rect width="10" height="10" x="240" y="160" fill="#bd2d24" /><rect width="20" height="10" x="250" y="160" fill="#f3322c" /><rect width="20" height="10" x="60" y="170" fill="#f3322c" /><rect width="10" height="10" x="80" y="170" fill="#bd2d24" /><rect width="70" height="10" x="90" y="170" fill="#f3322c" /><rect width="10" height="10" x="160" y="170" fill="#bd2d24" /><rect width="70" height="10" x="170" y="170" fill="#f3322c" /><rect width="10" height="10" x="240" y="170" fill="#bd2d24" /><rect width="20" height="10" x="250" y="170" fill="#f3322c" /><rect width="20" height="10" x="60" y="180" fill="#f3322c" /><rect width="10" height="10" x="80" y="180" fill="#bd2d24" /><rect width="50" height="10" x="90" y="180" fill="#4d271b" /><rect width="10" height="10" x="140" y="180" fill="#ffe939" /><rect width="30" height="10" x="150" y="180" fill="#4d271b" /><rect width="10" height="10" x="180" y="180" fill="#ffe939" /><rect width="50" height="10" x="190" y="180" fill="#4d271b" /><rect width="10" height="10" x="240" y="180" fill="#bd2d24" /><rect width="20" height="10" x="250" y="180" fill="#f3322c" /><rect width="20" height="10" x="60" y="190" fill="#f3322c" /><rect width="10" height="10" x="80" y="190" fill="#bd2d24" /><rect width="70" height="10" x="90" y="190" fill="#f3322c" /><rect width="10" height="10" x="160" y="190" fill="#bd2d24" /><rect width="70" height="10" x="170" y="190" fill="#f3322c" /><rect width="10" height="10" x="240" y="190" fill="#bd2d24" /><rect width="20" height="10" x="250" y="190" fill="#f3322c" /><rect width="20" height="10" x="60" y="200" fill="#f3322c" /><rect width="10" height="10" x="80" y="200" fill="#bd2d24" /><rect width="70" height="10" x="90" y="200" fill="#f3322c" /><rect width="10" height="10" x="160" y="200" fill="#bd2d24" /><rect width="70" height="10" x="170" y="200" fill="#f3322c" /><rect width="10" height="10" x="240" y="200" fill="#bd2d24" /><rect width="20" height="10" x="250" y="200" fill="#f3322c" /><rect width="60" height="10" x="100" y="110" fill="#ff638d" /><rect width="60" height="10" x="170" y="110" fill="#cc0595" /><rect width="10" height="10" x="100" y="120" fill="#ff638d" /><rect width="20" height="10" x="110" y="120" fill="#ffffff" /><rect width="20" height="10" x="130" y="120" fill="#000000" /><rect width="10" height="10" x="150" y="120" fill="#ff638d" /><rect width="10" height="10" x="170" y="120" fill="#cc0595" /><rect width="20" height="10" x="180" y="120" fill="#ffffff" /><rect width="20" height="10" x="200" y="120" fill="#000000" /><rect width="10" height="10" x="220" y="120" fill="#cc0595" /><rect width="30" height="10" x="70" y="130" fill="#cc0595" /><rect width="10" height="10" x="100" y="130" fill="#ff638d" /><rect width="20" height="10" x="110" y="130" fill="#ffffff" /><rect width="20" height="10" x="130" y="130" fill="#000000" /><rect width="10" height="10" x="150" y="130" fill="#ff638d" /><rect width="20" height="10" x="160" y="130" fill="#cc0595" /><rect width="20" height="10" x="180" y="130" fill="#ffffff" /><rect width="20" height="10" x="200" y="130" fill="#000000" /><rect width="10" height="10" x="220" y="130" fill="#cc0595" /><rect width="10" height="10" x="70" y="140" fill="#cc0595" /><rect width="10" height="10" x="100" y="140" fill="#ff638d" /><rect width="20" height="10" x="110" y="140" fill="#ffffff" /><rect width="20" height="10" x="130" y="140" fill="#000000" /><rect width="10" height="10" x="150" y="140" fill="#ff638d" /><rect width="10" height="10" x="170" y="140" fill="#cc0595" /><rect width="20" height="10" x="180" y="140" fill="#ffffff" /><rect width="20" height="10" x="200" y="140" fill="#000000" /><rect width="10" height="10" x="220" y="140" fill="#cc0595" /><rect width="10" height="10" x="70" y="150" fill="#cc0595" /><rect width="10" height="10" x="100" y="150" fill="#ff638d" /><rect width="20" height="10" x="110" y="150" fill="#ffffff" /><rect width="20" height="10" x="130" y="150" fill="#000000" /><rect width="10" height="10" x="150" y="150" fill="#ff638d" /><rect width="10" height="10" x="170" y="150" fill="#cc0595" /><rect width="20" height="10" x="180" y="150" fill="#ffffff" /><rect width="20" height="10" x="200" y="150" fill="#000000" /><rect width="10" height="10" x="220" y="150" fill="#cc0595" /><rect width="60" height="10" x="100" y="160" fill="#ff638d" /><rect width="60" height="10" x="170" y="160" fill="#cc0595" /></svg>