<svg xmlns:xlink="http://www.w3.org/1999/xlink" width="320" height="320" viewBox="0 0 320 320" xmlns="http://www.w3.org/2000/svg" shape-rendering="crispEdges"><rect width="100%" height="100%" fill="#e1d7d5" /><rect width="140" height="10" x="90" y="210" fill="#caeff9" /><rect width="140" height="10" x="90" y="220" fill="#caeff9" /><rect width="140" height="10" x="90" y="230" fill="#caeff9" /><rect width="140" height="10" x="90" y="240" fill="#caeff9" /><rect width="20" height="10" x="90" y="250" fill="#caeff9" /><rect width="110" height="10" x="120" y="250" fill="#caeff9" /><rect width="20" height="10" x="90" y="260" fill="#caeff9" /><rect width="110" height="10" x="120" y="260" fill="#caeff9" /><rect width="20" height="10" x="90" y="270" fill="#caeff9" /><rect width="110" height="10" x="120" y="270" fill="#caeff9" /><rect width="20" height="10" x="90" y="280" fill="#caeff9" /><rect width="110" height="10" x="120" y="280" fill="#caeff9" /><rect width="20" height="10" x="90" y="290" fill="#caeff9" /><rect width="110" height="10" x="120" y="290" fill="#caeff9" /><rect width="20" height="10" x="90" y="300" fill="#caeff9" /><rect width="110" height="10" x="120" y="300" fill="#caeff9" /><rect width="20" height="10" x="90" y="310" fill="#caeff9" /><rect width="110" height="10" x="120" y="310" fill="#caeff9" /><rect width="10" height="10" x="130" y="220" fill="#000000" /><rect width="30" height="10" x="110" y="230" fill="#000000" /><rect width="10" height="10" x="110" y="240" fill="#000000" /><rect width="30" height="10" x="130" y="240" fill="#000000" /><rect width="20" height="10" x="120" y="250" fill="#000000" /><rect width="30" height="10" x="150" y="250" fill="#000000" /><rect width="20" height="10" x="140" y="260" fill="#000000" /><rect width="30" height="10" x="170" y="260" fill="#000000" /><rect width="20" height="10" x="160" y="270" fill="#000000" /><rect width="30" height="10" x="190" y="270" fill="#000000" /><rect width="10" height="10" x="190" y="280" fill="#000000" /><rect width="10" height="10" x="210" y="280" fill="#000000" /><rect width="10" height="10" x="210" y="290" fill="#000000" /><rect width="20" height="10" x="150" y="40" fill="#4bea69" /><rect width="10" height="10" x="120" y="50" fill="#4bea69" /><rect width="20" height="10" x="160" y="50" fill="#4bea69" /><rect width="10" height="10" x="240" y="50" fill="#ffc110" /><rect width="20" height="10" x="130" y="60" fill="#4bea69" /><rect width="20" height="10" x="160" y="60" fill="#4bea69" /><rect width="20" height="10" x="220" y="60" fill="#ffc110" /><rect width="30" height="10" x="90" y="70" fill="#fdf8ff" /><rect width="50" height="10" x="130" y="70" fill="#4bea69" /><rect width="30" height="10" x="200" y="70" fill="#ffc110" /><rect width="30" height="10" x="60" y="80" fill="#4bea69" /><rect width="30" height="10" x="90" y="80" fill="#fdf8ff" /><rect width="70" height="10" x="120" y="80" fill="#4bea69" /><rect width="30" height="10" x="190" y="80" fill="#ffc110" /><rect width="10" height="10" x="220" y="80" fill="#fdf8ff" /><rect width="10" height="10" x="40" y="90" fill="#4bea69" /><rect width="30" height="10" x="60" y="90" fill="#4bea69" /><rect width="70" height="10" x="90" y="90" fill="#fdf8ff" /><rect width="10" height="10" x="160" y="90" fill="#4bea69" /><rect width="40" height="10" x="170" y="90" fill="#ffc110" /><rect width="20" height="10" x="210" y="90" fill="#fdf8ff" /><rect width="30" height="10" x="50" y="100" fill="#4bea69" /><rect width="10" height="10" x="80" y="100" fill="#ff638d" /><rect width="70" height="10" x="90" y="100" fill="#fdf8ff" /><rect width="40" height="10" x="160" y="100" fill="#ffc110" /><rect width="30" height="10" x="200" y="100" fill="#fdf8ff" /><rect width="10" height="10" x="60" y="110" fill="#4bea69" /><rect width="20" height="10" x="70" y="110" fill="#ff638d" /><rect width="70" height="10" x="90" y="110" fill="#fdf8ff" /><rect width="30" height="10" x="160" y="110" fill="#ffc110" /><rect width="40" height="10" x="190" y="110" fill="#fdf8ff" /><rect width="30" height="10" x="60" y="120" fill="#ff638d" /><rect width="70" height="10" x="90" y="120" fill="#fdf8ff" /><rect width="20" height="10" x="160" y="120" fill="#ffc110" /><rect width="50" height="10" x="180" y="120" fill="#fdf8ff" /><rect width="40" height="10" x="50" y="130" fill="#ff638d" /><rect width="70" height="10" x="90" y="130" fill="#fdf8ff" /><rect width="10" height="10" x="160" y="130" fill="#ffc110" /><rect width="60" height="10" x="170" y="130" fill="#fdf8ff" /><rect width="30" height="10" x="60" y="140" fill="#ff638d" /><rect width="140" height="10" x="90" y="140" fill="#fdf8ff" /><rect width="30" height="10" x="60" y="150" fill="#ff638d" /><rect width="140" height="10" x="90" y="150" fill="#fdf8ff" /><rect width="30" height="10" x="60" y="160" fill="#ff638d" /><rect width="180" height="10" x="90" y="160" fill="#feb9d5" /><rect width="20" height="10" x="50" y="170" fill="#ff638d" /><rect width="20" height="10" x="70" y="170" fill="#667af9" /><rect width="140" height="10" x="90" y="170" fill="#feb9d5" /><rect width="10" height="10" x="230" y="170" fill="#ff638d" /><rect width="10" height="10" x="240" y="170" fill="#feb9d5" /><rect width="10" height="10" x="250" y="170" fill="#ff638d" /><rect width="10" height="10" x="260" y="170" fill="#feb9d5" /><rect width="40" height="10" x="50" y="180" fill="#667af9" /><rect width="30" height="10" x="90" y="180" fill="#feb9d5" /><rect width="10" height="10" x="120" y="180" fill="#ff638d" /><rect width="10" height="10" x="130" y="180" fill="#fdf8ff" /><rect width="10" height="10" x="140" y="180" fill="#000000" /><rect width="10" height="10" x="150" y="180" fill="#fdf8ff" /><rect width="10" height="10" x="160" y="180" fill="#000000" /><rect width="10" height="10" x="170" y="180" fill="#fdf8ff" /><rect width="10" height="10" x="180" y="180" fill="#000000" /><rect width="10" height="10" x="190" y="180" fill="#fdf8ff" /><rect width="10" height="10" x="200" y="180" fill="#ff638d" /><rect width="60" height="10" x="210" y="180" fill="#feb9d5" /><rect width="30" height="10" x="60" y="190" fill="#667af9" /><rect width="180" height="10" x="90" y="190" fill="#feb9d5" /><rect width="30" height="10" x="60" y="200" fill="#667af9" /><rect width="180" height="10" x="90" y="200" fill="#feb9d5" /><rect width="20" height="10" x="70" y="210" fill="#667af9" /><rect width="10" height="10" x="80" y="220" fill="#667af9" /><rect width="60" height="10" x="100" y="110" fill="#068940" /><rect width="60" height="10" x="170" y="110" fill="#257ced" /><rect width="10" height="10" x="100" y="120" fill="#068940" /><rect width="20" height="10" x="110" y="120" fill="#ffffff" /><rect width="20" height="10" x="130" y="120" fill="#000000" /><rect width="10" height="10" x="150" y="120" fill="#068940" /><rect width="10" height="10" x="170" y="120" fill="#257ced" /><rect width="20" height="10" x="180" y="120" fill="#ffffff" /><rect width="20" height="10" x="200" y="120" fill="#000000" /><rect width="10" height="10" x="220" y="120" fill="#257ced" /><rect width="30" height="10" x="70" y="130" fill="#257ced" /><rect width="10" height="10" x="100" y="130" fill="#068940" /><rect width="20" height="10" x="110" y="130" fill="#ffffff" /><rect width="20" height="10" x="130" y="130" fill="#000000" /><rect width="10" height="10" x="150" y="130" fill="#068940" /><rect width="20" height="10" x="160" y="130" fill="#257ced" /><rect width="20" height="10" x="180" y="130" fill="#ffffff" /><rect width="20" height="10" x="200" y="130" fill="#000000" /><rect width="10" height="10" x="220" y="130" fill="#257ced" /><rect width="10" height="10" x="70" y="140" fill="#257ced" /><rect width="10" height="10" x="100" y="140" fill="#068940" /><rect width="20" height="10" x="110" y="140" fill="#ffffff" /><rect width="20" height="10" x="130" y="140" fill="#000000" /><rect width="10" height="10" x="150" y="140" fill="#068940" /><rect width="10" height="10" x="170" y="140" fill="#257ced" /><rect width="20" height="10" x="180" y="140" fill="#ffffff" /><rect width="20" height="10" x="200" y="140" fill="#000000" /><rect width="10" height="10" x="220" y="140" fill="#257ced" /><rect width="10" height="10" x="70" y="150" fill="#257ced" /><rect width="10" height="10" x="100" y="150" fill="#068940" /><rect width="20" height="10" x="110" y="150" fill="#ffffff" /><rect width="20" height="10" x="130" y="150" fill="#000000" /><rect width="10" height="10" x="150" y="150" fill="#068940" /><rect width="10" height="10" x="170" y="150" fill="#257ced" /><rect width="20" height="10" x="180" y="150" fill="#ffffff" /><rect width="20" height="10" x="200" y="150" fill="#000000" /><rect width="10" height="10" x="220" y="150" fill="#257ced" /><rect width="60" height="10" x="100" y="160" fill="#068940" /><rect width="60" height="10" x="170" y="160" fill="#257ced" /></svg>