<svg xmlns:xlink="http://www.w3.org/1999/xlink" width="320" height="320" viewBox="0 0 320 320" xmlns="http://www.w3.org/2000/svg" shape-rendering="crispEdges"><rect width="100%" height="100%" fill="#e1d7d5" /><rect width="140" height="10" x="90" y="210" fill="#1f1d29" /><rect width="140" height="10" x="90" y="220" fill="#1f1d29" /><rect width="140" height="10" x="90" y="230" fill="#1f1d29" /><rect width="140" height="10" x="90" y="240" fill="#1f1d29" /><rect width="20" height="10" x="90" y="250" fill="#1f1d29" /><rect width="110" height="10" x="120" y="250" fill="#1f1d29" /><rect width="20" height="10" x="90" y="260" fill="#1f1d29" /><rect width="110" height="10" x="120" y="260" fill="#1f1d29" /><rect width="20" height="10" x="90" y="270" fill="#1f1d29" /><rect width="110" height="10" x="120" y="270" fill="#1f1d29" /><rect width="20" height="10" x="90" y="280" fill="#1f1d29" /><rect width="110" height="10" x="120" y="280" fill="#1f1d29" /><rect width="20" height="10" x="90" y="290" fill="#1f1d29" /><rect width="110" height="10" x="120" y="290" fill="#1f1d29" /><rect width="20" height="10" x="90" y="300" fill="#1f1d29" /><rect width="110" height="10" x="120" y="300" fill="#1f1d29" /><rect width="20" height="10" x="90" y="310" fill="#1f1d29" /><rect width="110" height="10" x="120" y="310" fill="#1f1d29" /><rect width="10" height="10" x="160" y="240" fill="#0385eb" /><rect width="10" height="10" x="160" y="250" fill="#0385eb" /><rect width="10" height="10" x="150" y="260" fill="#0385eb" /><rect width="10" height="10" x="160" y="260" fill="#00499c" /><rect width="10" height="10" x="170" y="260" fill="#0385eb" /><rect width="50" height="10" x="140" y="270" fill="#00499c" /><rect width="30" height="10" x="150" y="280" fill="#0385eb" /><rect width="10" height="10" x="160" y="290" fill="#0385eb" /><rect width="50" height="10" x="140" y="30" fill="#807f7e" /><rect width="20" height="10" x="120" y="40" fill="#807f7e" /><rect width="10" height="10" x="180" y="40" fill="#807f7e" /><rect width="10" height="10" x="120" y="50" fill="#807f7e" /><rect width="90" height="10" x="150" y="50" fill="#807f7e" /><rect width="170" height="10" x="70" y="60" fill="#807f7e" /><rect width="80" height="10" x="70" y="70" fill="#807f7e" /><rect width="70" height="10" x="150" y="70" fill="#000000" /><rect width="10" height="10" x="220" y="70" fill="#343235" /><rect width="10" height="10" x="80" y="80" fill="#343235" /><rect width="80" height="10" x="90" y="80" fill="#000000" /><rect width="100" height="10" x="170" y="80" fill="#343235" /><rect width="60" height="10" x="70" y="90" fill="#807f7e" /><rect width="30" height="10" x="130" y="90" fill="#000000" /><rect width="30" height="10" x="160" y="90" fill="#343235" /><rect width="50" height="10" x="190" y="90" fill="#807f7e" /><rect width="10" height="10" x="240" y="90" fill="#343235" /><rect width="20" height="10" x="70" y="100" fill="#807f7e" /><rect width="30" height="10" x="90" y="100" fill="#62616d" /><rect width="20" height="10" x="120" y="100" fill="#807f7e" /><rect width="30" height="10" x="140" y="100" fill="#62616d" /><rect width="20" height="10" x="170" y="100" fill="#807f7e" /><rect width="30" height="10" x="190" y="100" fill="#62616d" /><rect width="20" height="10" x="220" y="100" fill="#807f7e" /><rect width="10" height="10" x="250" y="100" fill="#343235" /><rect width="30" height="10" x="60" y="110" fill="#807f7e" /><rect width="30" height="10" x="90" y="110" fill="#62616d" /><rect width="20" height="10" x="120" y="110" fill="#807f7e" /><rect width="30" height="10" x="140" y="110" fill="#62616d" /><rect width="20" height="10" x="170" y="110" fill="#807f7e" /><rect width="30" height="10" x="190" y="110" fill="#62616d" /><rect width="30" height="10" x="220" y="110" fill="#807f7e" /><rect width="10" height="10" x="50" y="120" fill="#807f7e" /><rect width="20" height="10" x="70" y="120" fill="#807f7e" /><rect width="30" height="10" x="90" y="120" fill="#62616d" /><rect width="20" height="10" x="120" y="120" fill="#807f7e" /><rect width="30" height="10" x="140" y="120" fill="#62616d" /><rect width="20" height="10" x="170" y="120" fill="#807f7e" /><rect width="30" height="10" x="190" y="120" fill="#62616d" /><rect width="20" height="10" x="220" y="120" fill="#807f7e" /><rect width="10" height="10" x="250" y="120" fill="#807f7e" /><rect width="20" height="10" x="70" y="130" fill="#807f7e" /><rect width="30" height="10" x="90" y="130" fill="#62616d" /><rect width="20" height="10" x="120" y="130" fill="#807f7e" /><rect width="30" height="10" x="140" y="130" fill="#62616d" /><rect width="20" height="10" x="170" y="130" fill="#807f7e" /><rect width="30" height="10" x="190" y="130" fill="#62616d" /><rect width="20" height="10" x="220" y="130" fill="#807f7e" /><rect width="20" height="10" x="70" y="140" fill="#807f7e" /><rect width="30" height="10" x="90" y="140" fill="#62616d" /><rect width="20" height="10" x="120" y="140" fill="#807f7e" /><rect width="30" height="10" x="140" y="140" fill="#62616d" /><rect width="20" height="10" x="170" y="140" fill="#807f7e" /><rect width="30" height="10" x="190" y="140" fill="#62616d" /><rect width="20" height="10" x="220" y="140" fill="#807f7e" /><rect width="20" height="10" x="70" y="150" fill="#807f7e" /><rect width="30" height="10" x="90" y="150" fill="#62616d" /><rect width="20" height="10" x="120" y="150" fill="#807f7e" /><rect width="30" height="10" x="140" y="150" fill="#62616d" /><rect width="20" height="10" x="170" y="150" fill="#807f7e" /><rect width="30" height="10" x="190" y="150" fill="#62616d" /><rect width="20" height="10" x="220" y="150" fill="#807f7e" /><rect width="20" height="10" x="70" y="160" fill="#807f7e" /><rect width="30" height="10" x="90" y="160" fill="#62616d" /><rect width="20" height="10" x="120" y="160" fill="#807f7e" /><rect width="30" height="10" x="140" y="160" fill="#62616d" /><rect width="20" height="10" x="170" y="160" fill="#807f7e" /><rect width="30" height="10" x="190" y="160" fill="#62616d" /><rect width="20" height="10" x="220" y="160" fill="#807f7e" /><rect width="20" height="10" x="70" y="170" fill="#807f7e" /><rect width="30" height="10" x="90" y="170" fill="#62616d" /><rect width="20" height="10" x="120" y="170" fill="#807f7e" /><rect width="30" height="10" x="140" y="170" fill="#62616d" /><rect width="20" height="10" x="170" y="170" fill="#807f7e" /><rect width="30" height="10" x="190" y="170" fill="#62616d" /><rect width="20" height="10" x="220" y="170" fill="#807f7e" /><rect width="20" height="10" x="70" y="180" fill="#807f7e" /><rect width="10" height="10" x="90" y="180" fill="#62616d" /><rect width="50" height="10" x="100" y="180" fill="#000000" /><rect width="20" height="10" x="150" y="180" fill="#62616d" /><rect width="20" height="10" x="170" y="180" fill="#807f7e" /><rect width="30" height="10" x="190" y="180" fill="#62616d" /><rect width="20" height="10" x="220" y="180" fill="#807f7e" /><rect width="20" height="10" x="70" y="190" fill="#807f7e" /><rect width="30" height="10" x="90" y="190" fill="#62616d" /><rect width="20" height="10" x="120" y="190" fill="#807f7e" /><rect width="30" height="10" x="140" y="190" fill="#62616d" /><rect width="20" height="10" x="170" y="190" fill="#807f7e" /><rect width="30" height="10" x="190" y="190" fill="#62616d" /><rect width="20" height="10" x="220" y="190" fill="#807f7e" /><rect width="170" height="10" x="70" y="200" fill="#807f7e" /><rect width="60" height="10" x="100" y="110" fill="#d19a54" /><rect width="60" height="10" x="170" y="110" fill="#d19a54" /><rect width="10" height="10" x="100" y="120" fill="#d19a54" /><rect width="20" height="10" x="110" y="120" fill="#ffffff" /><rect width="20" height="10" x="130" y="120" fill="#000000" /><rect width="10" height="10" x="150" y="120" fill="#d19a54" /><rect width="10" height="10" x="170" y="120" fill="#d19a54" /><rect width="20" height="10" x="180" y="120" fill="#ffffff" /><rect width="20" height="10" x="200" y="120" fill="#000000" /><rect width="10" height="10" x="220" y="120" fill="#d19a54" /><rect width="40" height="10" x="70" y="130" fill="#d19a54" /><rect width="20" height="10" x="110" y="130" fill="#ffffff" /><rect width="20" height="10" x="130" y="130" fill="#000000" /><rect width="30" height="10" x="150" y="130" fill="#d19a54" /><rect width="20" height="10" x="180" y="130" fill="#ffffff" /><rect width="20" height="10" x="200" y="130" fill="#000000" /><rect width="10" height="10" x="220" y="130" fill="#d19a54" /><rect width="10" height="10" x="70" y="140" fill="#d19a54" /><rect width="10" height="10" x="100" y="140" fill="#d19a54" /><rect width="20" height="10" x="110" y="140" fill="#ffffff" /><rect width="20" height="10" x="130" y="140" fill="#000000" /><rect width="10" height="10" x="150" y="140" fill="#d19a54" /><rect width="10" height="10" x="170" y="140" fill="#d19a54" /><rect width="20" height="10" x="180" y="140" fill="#ffffff" /><rect width="20" height="10" x="200" y="140" fill="#000000" /><rect width="10" height="10" x="220" y="140" fill="#d19a54" /><rect width="10" height="10" x="70" y="150" fill="#d19a54" /><rect width="10" height="10" x="100" y="150" fill="#d19a54" /><rect width="20" height="10" x="110" y="150" fill="#ffffff" /><rect width="20" height="10" x="130" y="150" fill="#000000" /><rect width="10" height="10" x="150" y="150" fill="#d19a54" /><rect width="10" height="10" x="170" y="150" fill="#d19a54" /><rect width="20" height="10" x="180" y="150" fill="#ffffff" /><rect width="20" height="10" x="200" y="150" fill="#000000" /><rect width="10" height="10" x="220" y="150" fill="#d19a54" /><rect width="60" height="10" x="100" y="160" fill="#d19a54" /><rect width="60" height="10" x="170" y="160" fill="#d19a54" /></svg>