<?xml version="1.0" standalone="no"?>
<!DOCTYPE svg PUBLIC "-//W3C//DTD SVG 20010904//EN"
 "http://www.w3.org/TR/2001/REC-SVG-20010904/DTD/svg10.dtd">
<svg version="1.0" xmlns="http://www.w3.org/2000/svg"
 width="160.000000pt" height="160.000000pt" viewBox="0 0 160.000000 160.000000"
 preserveAspectRatio="xMidYMid meet">
<metadata>
Created by potrace 1.14, written by Peter Selinger 2001-2017
</metadata>
<g transform="translate(0.000000,160.000000) scale(0.100000,-0.100000)"
fill="#000000" stroke="none">
<path d="M54 1589 c-11 -6 -28 -23 -37 -39 -15 -26 -17 -93 -17 -749 0 -496 3
-727 11 -744 6 -13 23 -31 39 -40 25 -15 94 -17 749 -17 496 0 727 3 744 11
13 6 31 23 40 39 15 25 17 94 17 749 0 496 -3 727 -11 744 -6 13 -23 31 -39
40 -26 15 -94 17 -752 16 -464 0 -730 -4 -744 -10z"/>
</g>
</svg>
