<svg xmlns="http://www.w3.org/2000/svg" width="256" height="301" preserveAspectRatio="xMidYMid">
    <defs>
        <linearGradient id="a" x1="0%" x2="100.097%" y1="50.018%" y2="50.018%">
            <stop offset="0%" stop-color="#FFF"/>
            <stop offset="14.13%" stop-color="#FFF" stop-opacity=".958"/>
            <stop offset="100%" stop-color="#FFF" stop-opacity=".7"/>
        </linearGradient>
        <linearGradient id="b" x1="-.039%" x2="100%" y1="49.982%" y2="49.982%">
            <stop offset="0%" stop-color="#F1F1F2"/>
            <stop offset="9.191%" stop-color="#E4E5E6"/>
            <stop offset="23.57%" stop-color="#D9DADB"/>
            <stop offset="43.8%" stop-color="#D2D4D5"/>
            <stop offset="100%" stop-color="#D0D2D3"/>
        </linearGradient>
    </defs>
    <path fill="#F15A22" d="M256 97.1 246.7 72l6.4-14.4c.8-1.9.4-4-1-5.5l-17.5-17.7c-7.7-7.7-19.1-10.4-29.4-6.8l-4.9 1.7-26.8-29-45.3-.3h-.3L82.3.4 55.6 29.6l-4.8-1.7c-10.4-3.7-21.9-1-29.6 6.9l-17.8 18c-1.2 1.2-1.5 2.9-.9 4.4l6.7 15L0 97.3 6 120l27.2 103.3c3.1 11.9 10.3 22.3 20.4 29.5 0 0 33 23.3 65.5 44.4 2.9 1.9 5.9 3.2 9.1 3.2s6.2-1.3 9.1-3.2c36.6-24 65.5-44.5 65.5-44.5 10-7.2 17.2-17.6 20.3-29.5l27-103.3z"/>
    <path fill="url(#a)" d="M34.5 227.7 0 99.5l10.1-25.1-7-18.6 16.7-17c5.5-4.9 16.3-6.6 21.3-3.7l26.1 15 34 7.9 26.5-11 2.2 227.7c-.4 32.8 1.7 29.3-22.4 13.8L48 248.6c-6.4-6.1-11.3-13-13.5-20.9" opacity=".15" style="mix-blend-mode:lighten"/>
    <path fill="url(#b)" d="m202.2 252.246-50.6 34.6c-14.1 7.7-20.9 15.3-22 11.6-.9-2.9-.2-11.4-.5-24.6l-.6-222.7c.1-2.2 1.6-5.9 4.2-5.5l25.8 7.8 37.2-5.8 24.6-18.1c2.6-2 6.4-1.8 8.8.5l22 21c2 2.1 2.1 6.2.9 8.8l-6.1 11.3 10.1 26.1-34.8 129.4c-5.4 16.1-13 20.3-19 25.6" opacity=".4" style="mix-blend-mode:darken"/>
    <path fill="#FFF" d="M134 184.801c-1.2-.5-2.5-.9-2.9-.9h-3.2c-.4 0-1.7.4-2.9.9l-13 5.4c-1.2.5-3.2 1.4-4.4 2l-19.6 10.2c-1.2.6-1.3 1.7-.2 2.5l17.3 12.2c1.1.8 2.8 2.1 3.8 3l7.7 6.6c1 .9 2.6 2.3 3.6 3.2l7.4 6.6c1 .9 2.6.9 3.6 0l7.6-6.6c1-.9 2.6-2.3 3.6-3.2l7.7-6.7c1-.9 2.7-2.2 3.8-3l17.3-12.3c1.1-.8 1-1.9-.2-2.5l-19.6-10c-1.2-.6-3.2-1.5-4.4-2z"/>
    <path fill="#FFF" d="M227.813 101.557c.4-1.3.4-1.8.4-1.8 0-1.3-.1-3.5-.3-4.8l-1-2.9c-.6-1.2-1.6-3.1-2.4-4.2l-11.3-16.7c-.7-1.1-2-2.8-2.9-3.9l-14.6-18.3c-.8-1-1.6-1.9-1.7-1.8h-.2s-1.1.2-2.4.4l-22.3 4.4c-1.3.3-3.4.7-4.7.9l-.4.1c-1.3.2-3.4.1-4.7-.3l-18.7-6c-1.3-.4-3.4-1-4.6-1.3 0 0-3.8-.9-6.9-.8-3.1 0-6.9.8-6.9.8-1.3.3-3.4.9-4.6 1.3l-18.7 6c-1.3.4-3.4.5-4.7.3l-.4-.1c-1.3-.2-3.4-.7-4.7-.9l-22.5-4.2c-1.3-.3-2.4-.4-2.4-.4h-.2c-.1 0-.9.8-1.7 1.8l-14.6 18.3c-.8 1-2.1 2.8-2.9 3.9l-11.3 16.7c-.7 1.1-1.8 3-2.4 4.2l-1 2.9c-.2 1.3-.4 3.5-.3 4.8 0 0 0 .4.4 1.8.7 2.4 2.4 4.6 2.4 4.6.8 1 2.3 2.7 3.2 3.6l33.1 35.2c.9 1 1.2 2.8.7 4l-6.9 16.3c-.5 1.2-.6 3.2-.1 4.5l1.9 5.1c1.6 4.3 4.3 8.1 7.9 11l6.7 5.4c1 .8 2.8 1.1 4 .5l21.2-10.1c1.2-.6 3-1.8 4-2.7l15.2-13.7c2.2-2 2.3-5.4.3-7.6l-31.9-21.5c-1.1-.7-1.5-2.3-.9-3.5l14-26.4c.6-1.2.7-3.1.2-4.3l-1.7-3.9c-.5-1.2-2-2.6-3.2-3.1l-41.1-15.4c-1.2-.5-1.2-1 .1-1.1l26.5-2.5c1.3-.1 3.4.1 4.7.4l23.6 6.6c1.3.4 2.1 1.7 1.9 3l-8.2 44.9c-.2 1.3-.2 3.1.1 4.1s1.6 1.9 2.9 2.2l16.4 3.5c1.3.3 3.4.3 4.7 0l15.3-3.5c1.3-.3 2.6-1.3 2.9-2.2s.4-2.8.1-4.1l-8.1-44.9c-.2-1.3.6-2.7 1.9-3l23.6-6.6c1.3-.4 3.4-.5 4.7-.4l26.5 2.5c1.3.1 1.4.6.1 1.1l-41.1 15.6c-1.2.5-2.7 1.8-3.2 3.1l-1.7 3.9c-.5 1.2-.5 3.2.2 4.3l14.1 26.4c.6 1.2.2 2.7-.9 3.5l-31.9 21.6c-2.1 2.1-1.9 5.6.3 7.6l15.2 13.7c1 .9 2.8 2.1 4 2.6l21.3 10.1c1.2.6 3 .3 4-.5l6.7-5.5c3.6-2.9 6.3-6.7 7.8-11l1.9-5.1c.5-1.2.4-3.3-.1-4.5l-6.9-16.3c-.5-1.2-.2-3 .7-4l33.1-35.2c.9-1 2.3-2.6 3.2-3.6-.2-.3 1.6-2.5 2.2-4.9"/>
</svg>
