<svg xmlns="http://www.w3.org/2000/svg" xml:space="preserve" width="191" height="210">
    <path d="M95.6 19C72 19 52.9 38.1 52.9 61.7v16c-8.3 1.5-16.6 3.5-16.6 6.1v83.6s0 2.3 2.6 3.4c9.4 3.8 46.4 16.9 54.9 19.9 1.1.4 1.4.4 1.7.4.4 0 .6 0 1.7-.4 8.5-3 45.6-16.1 55-19.9 2.4-1 2.5-3.3 2.5-3.3V83.8c0-2.6-8.2-4.7-16.5-6.1v-16c0-23.6-19.1-42.7-42.6-42.7m0 20.4c13.9 0 22.3 8.4 22.3 22.3v13.9c-15.6-1.1-28.9-1.1-44.6 0V61.7c0-13.9 8.4-22.3 22.3-22.3m-.1 56.7c19.4 0 35.7 1.5 35.7 4.2v52.1c0 .8-.1.9-.8 1.2s-33.1 12-33.1 12-1.3.4-1.7.4-1.7-.5-1.7-.5-32.4-11.7-33.1-12-.8-.4-.8-1.2v-52.1c-.2-2.7 16.1-4.1 35.5-4.1"/>
</svg>
