<svg width="360" height="360" viewBox="0 0 360 360" fill="none" xmlns="http://www.w3.org/2000/svg">
<g opacity="0.3">
<rect x="5" y="5" width="350" height="350" fill="#D5D7E1" stroke="#F3F4F9" stroke-width="10"/>
<path opacity="0.3" d="M151.575 256.5V218.557H189.475V256.5H151.575ZM151.575 199.534V180.563H170.525V161.591H208.476V123.597H151.575V142.568H113.625V123.597H132.575V104.625H227.425V123.597H246.375V161.591H227.425V180.563H189.475V199.534H151.575Z" fill="#15161B"/>
<path opacity="0.3" d="M53.371 327.375V303.204H77.4597V327.375H53.371ZM53.371 291.086V279H65.4153V266.914H89.5364V242.711H53.371V254.796H29.25V242.711H41.2943V230.625H101.581V242.711H113.625V266.914H101.581V279H77.4597V291.086H53.371Z" fill="#15161B"/>
<path opacity="0.3" d="M53.371 126V101.829H77.4597V126H53.371ZM53.371 89.7106V77.625H65.4153V65.5394H89.5364V41.3356H53.371V53.4213H29.25V41.3356H41.2943V29.25H101.581V41.3356H113.625V65.5394H101.581V77.625H77.4597V89.7106H53.371Z" fill="#15161B"/>
<path opacity="0.3" d="M278.496 327.375V303.204H302.585V327.375H278.496ZM278.496 291.086V279H290.54V266.914H314.661V242.711H278.496V254.796H254.375V242.711H266.419V230.625H326.706V242.711H338.75V266.914H326.706V279H302.585V291.086H278.496Z" fill="#15161B"/>
<path opacity="0.3" d="M278.496 126V101.829H302.585V126H278.496ZM278.496 89.7106V77.625H290.54V65.5394H314.661V41.3356H278.496V53.4213H254.375V41.3356H266.419V29.25H326.706V41.3356H338.75V65.5394H326.706V77.625H302.585V89.7106H278.496Z" fill="#15161B"/>
</g>
</svg>
