<svg width="240" height="62" fill="none" xmlns="http://www.w3.org/2000/svg"><path d="M220.221 42.455v16.192c0 .106-.084.19-.189.195l-26.705.625-.084-5.352 20.103-.206 2.647-.028c.101-.005.184-.089.178-.19l-.072-6.275a.183.183 0 0 0-.189-.184l-2.564.028-19.941.206-.395-15.702 26.66-.195c.089 0 .156.067.156.156l.039 4.515a.21.21 0 0 1-.206.212l-22.227.267a.146.146 0 0 0-.139.145l.111 5.368a.16.16 0 0 0 .161.156l22.428-.156c.128 0 .228.1.228.223z" fill="#FF0023"/><path d="M193.327 59.745a.286.286 0 0 1-.194-.078.261.261 0 0 1-.084-.195l-.083-5.351c0-.073.028-.145.078-.2a.26.26 0 0 1 .194-.084l22.65-.234-.072-6.093-22.416.234a.282.282 0 0 1-.279-.273l-.394-15.702c0-.072.027-.144.077-.2a.266.266 0 0 1 .201-.084l26.66-.195c.245 0 .434.19.434.435l.039 4.515c0 .267-.2.48-.473.49l-22.099.268.105 5.111 22.311-.156c.278 0 .506.223.506.502v16.192c0 .25-.2.457-.45.474l-26.711.624h-.005.005zm.201-5.356.072 4.787 26.343-.613V42.51l-22.377.157a.436.436 0 0 1-.44-.435l-.111-5.362c0-.229.173-.413.401-.43l22.171-.267-.039-4.326-26.254.19.378 15.144 22.233-.234c.267 0 .473.2.473.463l.072 6.27a.466.466 0 0 1-.439.474l-22.483.234zm22.366-.692v.011-.01z" fill="#231F20"/><path d="M216.172 53.692c.006.1-.078.184-.178.19l-2.647.027v-6.65l2.564-.028c.106 0 .189.078.189.184l.072 6.277z" fill="#D60018"/><path d="M213.346 54.188a.276.276 0 0 1-.278-.28V47.26c0-.15.123-.279.273-.279l2.564-.027c.267 0 .473.2.473.462l.072 6.271a.459.459 0 0 1-.439.474l-2.659.028h-.006zm.279-6.65v6.092l2.269-.022-.072-6.092-2.197.022z" fill="#231F20"/><path d="m193.011 31.764.395 15.701-2.559-.195a.204.204 0 0 1-.195-.206l-.189-14.648a.257.257 0 0 1 .211-.257l2.337-.395z" fill="#D60018"/><path d="M193.406 47.744h-.023l-2.558-.195a.479.479 0 0 1-.451-.485l-.189-14.642a.536.536 0 0 1 .439-.536l2.342-.395a.293.293 0 0 1 .223.06c.061.051.1.13.1.207l.395 15.702a.283.283 0 0 1-.278.29v-.006zm-2.476-.747 2.192.168-.378-15.072-2.019.34.211 14.564h-.006z" fill="#231F20"/><path d="m193.245 54.115.083 5.351-2.291-.48a.22.22 0 0 1-.178-.21l-.123-4.572c0-.05.039-.089.089-.089h2.42z" fill="#D60018"/><path d="M193.328 59.745s-.039 0-.055-.005l-2.292-.48c-.217-.033-.384-.228-.401-.468l-.122-4.576c0-.212.167-.374.367-.374h2.42c.15 0 .278.123.278.273l.083 5.351a.27.27 0 0 1-.1.218.286.286 0 0 1-.178.061zm-2.191-1.02 1.908.401-.073-4.726h-1.952l.117 4.33v-.005zm-.056-.011h.006-.006z" fill="#231F20"/><path d="m165.2 41.897-.066 17.892c0 .106-.078.19-.184.195l-3.705.15-.506-27.936h3.588c.139 0 .273.056.367.156l17.093 18.355 2.509 2.698-.551-21.209h4.339c.122 0 .222.095.222.218l.851 26.699a.192.192 0 0 1-.183.2l-4.99.23-18.734-20.692s-.039-.005-.039.012l-.011 3.032z" fill="#FF0023"/><path d="M161.245 60.413a.265.265 0 0 1-.189-.077.29.29 0 0 1-.089-.196l-.506-27.936c0-.073.028-.145.078-.201a.263.263 0 0 1 .2-.084h3.588a.77.77 0 0 1 .567.246l19.101 20.517-.534-20.473c0-.072.028-.15.078-.2a.265.265 0 0 1 .2-.084h4.339c.278 0 .501.223.501.496l.851 26.688a.478.478 0 0 1-.445.49l-4.99.23a.278.278 0 0 1-.217-.09l-18.289-20.2-.011 2.369-.067 17.892a.47.47 0 0 1-.445.474l-3.71.15h-.011v-.01zm-.222-27.936.495 27.368 3.337-.134.078-20.846c0-.123.095-.251.211-.285a.304.304 0 0 1 .334.123l18.623 20.562 4.772-.217-.845-26.566h-3.999l.545 20.925a.288.288 0 0 1-.173.268.274.274 0 0 1-.306-.067l-19.601-21.064a.214.214 0 0 0-.162-.067H161.023z" fill="#231F20"/><path d="m183.744 32.198.551 21.21-2.509-2.699-.433-18.182a.22.22 0 0 1 .205-.223l2.186-.106z" fill="#D60018"/><path d="M184.295 53.686a.292.292 0 0 1-.206-.09L181.58 50.9a.285.285 0 0 1-.072-.184l-.434-18.182c0-.273.206-.496.473-.507l2.186-.106a.263.263 0 0 1 .2.072c.056.05.089.123.089.195l.551 21.21a.288.288 0 0 1-.172.267c-.034.01-.067.022-.106.022zm-2.231-3.088 1.936 2.08-.523-20.19-1.841.09.428 18.014v.006z" fill="#231F20"/><path d="m165.25 38.853 18.734 20.691-3.298-.674a.483.483 0 0 1-.267-.156L165.2 41.897l.011-3.032s.028-.028.039-.012z" fill="#D60018"/><path d="M183.984 59.823s-.039 0-.056-.006l-3.298-.674a.76.76 0 0 1-.423-.246l-15.213-16.81a.288.288 0 0 1-.072-.19l.011-3.032c0-.123.095-.251.211-.285a.315.315 0 0 1 .312.09l18.734 20.69a.27.27 0 0 1 .033.323.275.275 0 0 1-.239.14zM165.478 41.79l15.146 16.739a.224.224 0 0 0 .117.072l2.464.502-17.721-19.57-.011 2.257h.005z" fill="#231F20"/><path d="m160.739 32.199.506 27.936-2.509-.44a.235.235 0 0 1-.2-.234l.039-26.822a.15.15 0 0 1 .128-.145l2.036-.295z" fill="#D60018"/><path d="M161.245 60.414h-.05l-2.509-.44a.505.505 0 0 1-.428-.508l.039-26.822c0-.206.155-.39.361-.417l2.036-.296a.294.294 0 0 1 .223.061c.061.05.094.129.1.207l.506 27.936a.274.274 0 0 1-.278.284v-.005zm-2.431-.987 2.147.38-.495-27.285-1.613.234-.039 26.671z" fill="#231F20"/><path d="m155.676 32.907.462 26.983a.29.29 0 0 1-.279.29l-27.906.607V32.511h3.821c.123 0 .223.1.223.223v23.148l16.565-.161 2.592-.023V32.711h4.322c.105 0 .194.084.2.196z" fill="#FF0023"/><path d="M127.953 61.066a.28.28 0 0 1-.195-.078.267.267 0 0 1-.083-.2V32.51c0-.156.122-.28.278-.28h3.821a.5.5 0 0 1 .501.503v22.87l18.6-.179V32.711c0-.156.123-.278.279-.278h4.321c.256 0 .468.2.479.457v.01l.461 26.984a.567.567 0 0 1-.545.575l-27.912.607h-.005zm.278-28.277v27.714l27.623-.602-.456-26.911h-3.966v22.708a.28.28 0 0 1-.278.279l-19.157.184c-.061.011-.145-.028-.2-.078a.284.284 0 0 1-.084-.2V32.788h-3.488.006z" fill="#231F20"/><path d="M151.155 32.71v22.988l-2.593.022v-.022l.195-22.357a.25.25 0 0 1 .2-.234l2.198-.396z" fill="#D60018"/><path d="M148.562 56a.26.26 0 0 1-.194-.084.285.285 0 0 1-.084-.195l.195-22.38a.53.53 0 0 1 .423-.507l2.202-.396a.259.259 0 0 1 .228.061.29.29 0 0 1 .1.212v22.987c0 .15-.122.279-.278.279l-2.592.022zm2.314-22.954-1.869.334-.161 22.056 2.036-.017V33.046h-.006z" fill="#231F20"/><path d="M127.954 32.51v28.277l-2.665-.725a.228.228 0 0 1-.161-.217l.35-26.85c0-.072.05-.134.123-.145l2.353-.34z" fill="#D60018"/><path d="M127.953 61.066s-.05 0-.072-.011l-2.664-.725a.506.506 0 0 1-.367-.485l.35-26.855c0-.206.15-.385.356-.418l2.353-.34a.272.272 0 0 1 .222.067c.062.05.095.128.095.212v28.276c0 .09-.039.167-.111.223a.274.274 0 0 1-.167.056h.005zm-2.547-1.26 2.269.619V32.834l-1.919.278-.35 26.694z" fill="#231F20"/><path d="m108.097 55.648 9.651.05a.167.167 0 0 0 .166-.167l.206-17.864a.193.193 0 0 0-.194-.195l-9.462-.017-8.939-.011c-.139 0-.25.111-.256.25l-.456 17.653a.244.244 0 0 0 .24.251l9.044.05zm14.634-22.524.023 26.878a.262.262 0 0 1-.262.261l-27.85.157.255-13.623a.296.296 0 0 0-.294-.307l-2.631-.022-2.197-.022c-.1-.006-.184.078-.19.178l-.572 13.784a.25.25 0 0 1-.245.24l-29.514.14V31.463l29.603.24a.4.4 0 0 1 .417.412l-.1 8.98a.21.21 0 0 0 .206.206h5.34a.22.22 0 0 0 .216-.212l.073-8.94 27.4.646c.178.006.322.15.322.329zM84.491 55.28l.022-18.243a.35.35 0 0 0-.35-.351l-9.201.067-8.744.06a.261.261 0 0 0-.261.263V55.28c0 .173.139.318.311.318h17.905a.32.32 0 0 0 .317-.318z" fill="#FF0023"/><path d="M59.254 61.066a.26.26 0 0 1-.195-.084.285.285 0 0 1-.083-.195V31.463c0-.073.027-.145.083-.195a.286.286 0 0 1 .2-.084l29.603.24c.395 0 .695.295.695.69l-.1 8.908h5.207l.072-8.874c0-.072.033-.145.083-.195a.345.345 0 0 1 .2-.078l27.401.647a.61.61 0 0 1 .595.607l.022 26.878a.54.54 0 0 1-.539.54l-27.851.157a.292.292 0 0 1-.2-.084.278.278 0 0 1-.078-.2l.256-13.623-4.762-.067-.567 13.695a.53.53 0 0 1-.523.507l-29.514.14-.005-.006zm.278-29.325V60.51l29.236-.14.54-13.756a.466.466 0 0 1 .483-.446l4.817.044c.156 0 .3.062.412.173a.558.558 0 0 1 .16.418l-.25 13.333 27.568-.156-.039-26.86s-.023-.05-.05-.05l-27.117-.642-.072 8.656a.499.499 0 0 1-.495.49h-5.34a.485.485 0 0 1-.484-.484l.1-8.985c0-.084-.05-.128-.139-.128l-29.325-.24-.005.005zm30.237 14.983h.005-.005zm27.978 9.253-9.65-.05-9.045-.05a.51.51 0 0 1-.372-.162c-.1-.1-.15-.24-.145-.379l.456-17.647a.536.536 0 0 1 .534-.524l18.4.028c.262 0 .473.212.473.474l-.206 17.87c0 .245-.2.44-.445.44zm-9.65-.607 9.539.05.206-17.67-18.317-.028-.434 17.63 9.006.018zm-23.924.507H66.268a.595.595 0 0 1-.59-.597V37.076a.54.54 0 0 1 .54-.54l17.944-.13c.35 0 .628.285.628.63l-.022 18.244a.596.596 0 0 1-.595.597zm-.011-18.913-17.944.129.016 18.187 8.728.04h9.211l.039-.04.022-18.243a.074.074 0 0 0-.072-.073z" fill="#231F20"/><path d="m118.12 37.667-.206 17.864a.168.168 0 0 1-.167.168l-9.65-.05.367-18.177v-.017l9.461.017c.112 0 .195.089.195.195z" fill="#231F20"/><path d="m117.747 55.977-9.651-.05a.309.309 0 0 1-.2-.084.303.303 0 0 1-.078-.2l.367-18.177c0-.15.128-.29.279-.29l9.461.017c.262 0 .473.212.473.474l-.206 17.87c0 .245-.2.44-.445.44zm-9.367-.602 9.256.05.206-17.669-9.106-.017-.356 17.636z" fill="#231F20"/><path d="M108.463 37.455v.017l-.367 18.176-9.044-.05a.244.244 0 0 1-.24-.25l.457-17.653a.258.258 0 0 1 .256-.251l8.938.011z" fill="#fff"/><path d="m108.096 55.927-9.044-.05a.51.51 0 0 1-.373-.162c-.1-.1-.15-.24-.144-.379l.456-17.647a.536.536 0 0 1 .534-.524l8.938.011c.156 0 .279.123.279.279v.017l-.368 18.182c0 .15-.128.273-.278.273zm-8.571-18.205-.434 17.63 8.733.018.356-17.636-8.655-.012z" fill="#231F20"/><path d="m95.008 32.148-.072 8.941a.22.22 0 0 1-.217.212h-2.497v-.011l.217-8.545a.388.388 0 0 1 .339-.374l2.23-.223z" fill="#D60018"/><path d="M94.719 41.58h-2.497a.276.276 0 0 1-.279-.28l.217-8.56a.664.664 0 0 1 .584-.642l2.236-.223a.287.287 0 0 1 .217.073.292.292 0 0 1 .09.206l-.073 8.94a.499.499 0 0 1-.495.491v-.005zm-2.214-.558h2.153l.067-8.567-1.925.19c-.044 0-.089.05-.089.105l-.211 8.267.005.005z" fill="#231F20"/><path d="M94.602 46.49c.167 0 .3.14.295.307l-.256 13.622-2.686-.49a.222.222 0 0 1-.19-.223l.206-13.21v-.028l2.631.022z" fill="#D60018"/><path d="M94.641 60.698h-.05l-2.686-.49a.494.494 0 0 1-.418-.496l.206-13.216c0-.15.117-.301.278-.301l2.631.022c.156 0 .3.061.412.173a.558.558 0 0 1 .161.418l-.256 13.617a.285.285 0 0 1-.1.212.287.287 0 0 1-.178.061zm-2.598-1.037 2.326.424.25-13.294-.017-.022-2.353-.022-.2 12.914h-.006zM84.513 37.037 84.49 55.28a.32.32 0 0 1-.317.318h-9.211V36.752l9.2-.067a.35.35 0 0 1 .35.352z" fill="#231F20"/><path d="M84.173 55.877h-9.211a.276.276 0 0 1-.278-.28V36.764c0-.15.122-.29.278-.29l9.2-.066c.35 0 .628.284.628.63l-.022 18.243a.596.596 0 0 1-.595.597zm-8.933-.558h8.933l.061-18.282a.074.074 0 0 0-.072-.073l-8.922.067v18.288z" fill="#231F20"/><path d="M74.962 36.764v18.834h-8.695a.316.316 0 0 1-.31-.318V37.076c0-.145.116-.262.26-.262l8.745-.062v.012z" fill="#fff"/><path d="M74.961 55.877h-8.694a.595.595 0 0 1-.59-.597V37.076a.54.54 0 0 1 .54-.54l8.744-.062c.09-.006.145.028.2.083.05.05.084.123.084.195v18.846a.276.276 0 0 1-.278.279h-.006zm-.278-18.846-8.466.062.017 18.187 8.45.04V37.03z" fill="#231F20"/><path d="M59.254 31.463v29.325l-2.893-.38a.329.329 0 0 1-.278-.317l-.128-27.943a.25.25 0 0 1 .211-.245l3.088-.44z" fill="#D60018"/><path d="M59.254 61.066h-.034l-2.892-.379a.603.603 0 0 1-.517-.585l-.128-27.953c0-.257.183-.474.439-.519l3.098-.44a.274.274 0 0 1 .223.067.27.27 0 0 1 .094.211v29.32a.288.288 0 0 1-.094.211.276.276 0 0 1-.184.067h-.005zm-.279-29.28-2.77.396.156 27.909s.017.039.04.044l2.574.335V31.786z" fill="#231F20"/><path d="m53.04 31.708.556 28.823a.155.155 0 0 1-.15.156l-5.446.1-19.896-22.29-.039 3.562-.167 19.113a.173.173 0 0 1-.172.173l-3.966.178-.367-30.244 3.893.078c.106 0 .206.044.273.123l18.239 19.949 2.759 3.015-.317-22.981 4.538-.011c.145 0 .262.111.262.256z" fill="#FF0023"/><path d="M23.76 61.802a.265.265 0 0 1-.19-.078.27.27 0 0 1-.089-.201l-.367-30.239c0-.078.028-.15.084-.2a.307.307 0 0 1 .2-.084l3.894.078a.62.62 0 0 1 .478.223l20.497 22.418-.306-22.25c0-.073.028-.146.078-.202a.26.26 0 0 1 .195-.083l4.539-.011c.294 0 .54.24.54.53l.555 28.822c0 .245-.194.44-.428.44l-5.44.1c-.072.012-.161-.032-.211-.094L28.376 39.216l-.033 2.843-.167 19.113c0 .245-.2.451-.45.451l-3.955.179h-.012zm-.084-30.239.362 29.67 3.587-.161.206-22.575c0-.117.072-.217.178-.256a.286.286 0 0 1 .306.072l19.808 22.195 5.195-.094-.556-28.678-4.239.01.312 22.698a.272.272 0 0 1-.178.262.267.267 0 0 1-.306-.072L27.353 31.669s-.045-.034-.067-.034l-3.61-.072zm4.038 29.503h-.005.005z" fill="#231F20"/><path d="m48.24 31.462.317 22.982-2.76-3.016-.26-19.77a.189.189 0 0 1 .188-.196H48.24z" fill="#D60018"/><path d="M48.557 54.723a.29.29 0 0 1-.206-.09l-2.759-3.015a.274.274 0 0 1-.066-.24l-.262-19.715a.45.45 0 0 1 .128-.329.462.462 0 0 1 .34-.145h2.508c.15 0 .278.123.278.274l.317 22.981a.272.272 0 0 1-.178.262c-.033.011-.067.022-.1.022v-.005zm-2.475-3.4 2.186 2.39-.306-21.977H45.82l.262 19.581v.006z" fill="#231F20"/><path d="m28.104 38.497 19.897 22.29-3.46-.574L28.065 42.06l.04-3.562z" fill="#D60018"/><path d="M48 61.066h-.044l-3.46-.574a.276.276 0 0 1-.16-.09L27.858 42.249a.297.297 0 0 1-.072-.19l.039-3.561c0-.117.072-.218.178-.257a.286.286 0 0 1 .306.073l19.896 22.29a.28.28 0 0 1 .04.318.283.283 0 0 1-.245.145zm-3.32-1.11 2.587.43-18.89-21.17-.028 2.737 16.336 18.004h-.005z" fill="#231F20"/><path d="m23.393 31.279.367 30.244-2.837-.574c-.083-.017-.15-.095-.144-.178l.15-28.963a.191.191 0 0 1 .161-.184l2.303-.345z" fill="#D60018"/><path d="M23.76 61.802h-.056l-2.837-.575a.455.455 0 0 1-.367-.468l.15-28.95a.469.469 0 0 1 .406-.458L23.354 31a.285.285 0 0 1 .222.061c.061.05.095.128.1.212l.367 30.244a.278.278 0 0 1-.1.218.287.287 0 0 1-.178.061l-.005.006zm-2.704-1.11 2.42.49-.356-29.58-1.913.29-.15 28.8zm0 .073v.011-.011z" fill="#231F20"/><path d="M50.18 20.997c-.18-.07-.355-.156-.54-.21-1.324-.39-2.647-.783-3.976-1.153a.733.733 0 0 0-.521.064 98.507 98.507 0 0 0-2.425 1.54c-1.257.816-2.498 1.656-3.77 2.45-.768.478-1.383.105-1.404-.8-.002-.104-.01-.206-.016-.331-.762.114-1.502.284-2.247.31-.35.013-.746-.196-1.053-.406-.285-.196-.483-.526-.734-.816-.075.13-.16.258-.223.394-.596 1.3-1.648 1.788-2.99 1.689-.744-.055-1.51-.109-2.214-.333-.524-.166-.96-.612-1.446-.916-.155-.098-.357-.224-.514-.197-1.037.178-2.057.212-3.076-.114-.125-.04-.322.044-.445.13-1.257.88-3.375.747-4.106-1.11-.15-.382-.336-.751-.524-1.17-.5.561-.997 1.082-1.45 1.64a17.677 17.677 0 0 1-3.598 3.372 2.55 2.55 0 0 0-1.076 1.557c-.555 2.199-1.509 4.22-2.703 6.142-.8 1.285-1.461 2.66-2.176 4-.563 1.059-1.377 1.845-2.448 2.344-.918.427-1.98.24-2.586-.457a1.253 1.253 0 0 1-.274-.637c-.136-1.11.336-2.058.821-3.002 1.294-2.521 3.097-4.638 5.052-6.634 1.047-1.068 2.112-2.117 3.166-3.178.096-.094.214-.198.247-.32.193-.714.364-1.435.575-2.28-.92.739-1.892.637-2.84.517-1.032-.13-1.442-.646-1.454-1.714-.014-1.473-.006-2.946-.008-4.42l-.002-1.3c0-.682.22-1.023.663-1.035.451-.011.68.325.68 1.009 0 1.837.017 3.676-.015 5.513-.008.498.189.603.613.65.882.1 1.515-.153 2-.973.754-1.27 1.485-2.53 1.73-4.018.07-.43.322-.645.743-.617.385.026.665.374.58.825a77.215 77.215 0 0 1-.734 3.4c-.239 1.006-.515 2.002-.69 3.065.475-.414.99-.79 1.417-1.25.958-1.035 1.868-2.116 2.804-3.171.258-.292.384-.584.234-.985-.133-.357-.068-.705.18-1.015a.54.54 0 0 0 .093-.333c-.072-2.194.475-4.292.986-6.389.305-1.253.663-2.5 1.112-3.705.209-.563.7-1.014 1.042-1.529.182-.274.31-.585.49-.862.116-.18.254-.428.427-.475.661-.182 1.335-.341 2.015-.422 1.421-.169 2.283.726 2.99 1.793.423.636.54 1.38.613 2.16.222 2.359-.21 4.619-.815 6.867-.39 1.45-.706 2.926-1.177 4.348-.272.822-.785 1.56-1.258 2.465l2.157-.117c.03-2.716.85-5.194 1.312-7.738.281-1.548.443-3.12.773-4.657.296-1.375.598-2.746 1.245-4.04.697-1.397 1.855-1.933 3.193-2.18.989-.183 1.703.497 2.292 1.213 1.09 1.328 1.47 2.934 1.635 4.612.238 2.42-.448 4.738-.734 7.1a16.195 16.195 0 0 1-1.331 4.722c-.164.365.21 1.096.595 1.143.61.074 1.222.13 1.834.147.382.01.627-.126.678-.625.13-1.325.346-2.642.53-3.96.018-.132.044-.262.077-.46-.405.154-.748.293-1.097.413-.487.17-.833.027-.964-.377-.13-.404.054-.723.528-.91.158-.063.312-.162.475-.186 1.29-.19 1.843-1.027 2.12-2.253.234-1.043.68-2.035.976-3.065.16-.558.227-1.15.294-1.731.053-.464.277-.755.672-.753.39.003.712.306.654.758-.11.853-.247 1.71-.471 2.538-.282 1.042-.663 2.058-1.005 3.096.782-.224 1.513-.436 2.245-.64.148-.04.301-.067.453-.076.4-.024.669.172.727.571.063.427-.168.662-.57.787-1.022.32-2.041.648-3.046 1.015-.197.072-.424.322-.464.525-.294 1.509-.585 3.022-.786 4.546-.061.471.163.982.251 1.45l4.512-2.836c-.791-.645-.718-1.042.073-1.586 1.253-.862 2.45-1.81 3.663-2.727.314-.238.605-.507.912-.755.267-.215.558-.498.91-.258.37.254.766.523.787 1.071.051 1.302-.617 2.193-1.592 2.9-.455.33-.938.623-1.524 1.007.724.196 1.336.356 1.944.528.606.171 1.22.326 1.812.537.555.197.797.64.839 1.238.044.633-.106 1.193-.7 1.42-.999.379-2.016.75-3.058.958-1.416.283-2.863.414-4.297.602-.402.052-.737-.207-.766-.587-.034-.433.18-.704.6-.758 1.03-.133 2.07-.202 3.093-.384 1.088-.194 2.16-.48 3.233-.747.207-.052.392-.2.586-.305l-.02-.15v-.003zm-16.806-2.501.146.012c.22-.808.486-1.607.647-2.427.241-1.236.393-2.49.61-3.732.34-1.947.597-3.89.027-5.84-.294-1.01-.654-1.974-1.534-2.619a.722.722 0 0 0-.447-.13c-.248.02-.489.125-.737.16-.653.091-1.091.584-1.052 1.262.082 1.415.182 2.83.28 4.243.066.948.008 1.932.238 2.838.533 2.098 1.206 4.159 1.822 6.234v-.001zm-3.582-10.21-.104-.04c-.06.26-.128.52-.178.783-.519 2.768-1.05 5.533-1.542 8.306a32.666 32.666 0 0 0-.427 3.338c-.061.848.204 1.18 1.039 1.333.777.141 1.578.153 2.369.199.173.01.435-.019.514-.134.394-.56.81-1.126 1.067-1.753.092-.226-.244-.63-.376-.956-.07-.176-.124-.359-.181-.54-.31-.986-.647-1.965-.92-2.962-.372-1.36-.777-2.72-1.017-4.106-.197-1.135-.172-2.309-.245-3.465l.001-.003zm-8.607-1.43-.155-.034c-.26.683-.607 1.347-.765 2.053-.462 2.072-.944 4.147-1.238 6.247-.246 1.764-.205 3.551.657 5.216.514.992.57 1.074 1.63.961.423-.044.964-.609.92-.953-.087-.647-.2-1.293-.248-1.943-.174-2.395-.33-4.79-.482-7.188-.083-1.312-.143-2.625-.22-3.938-.008-.143-.066-.282-.1-.423l.001.001zm2.245 11.801.12.037c.127-.293.293-.575.375-.88.39-1.465.78-2.931 1.127-4.407.382-1.627.883-3.239.724-4.95-.082-.885.066-1.81-.464-2.613-.424-.644-.928-1.143-1.77-1.083-.496.036-.97.323-.96.606.014.346.03.691.052 1.036.155 2.396.313 4.793.468 7.19l.328 5.063v.001zm-13.32 9.17-.18-.127c-.209.244-.405.5-.628.73-1.947 2.011-3.912 4.011-5.274 6.51-.394.722-.741 1.48-1.017 2.255-.2.558.062.805.647.718.18-.027.36-.105.521-.197.65-.372 1.177-.87 1.547-1.542C6.8 34.228 7.9 32.298 8.952 30.34c.436-.81.775-1.675 1.157-2.515v.001zm38.373-12.056-.108-.124-1.104.966.126.145 1.086-.987z" fill="#000"/></svg>