<svg width="164" height="48" viewBox="0 0 164 48" fill="none" xmlns="http://www.w3.org/2000/svg">
<path fill-rule="evenodd" clip-rule="evenodd" d="M140 28V36H156V20H164V12H148V28H140Z" fill="#D60018"/>
<path d="M83.9999 36V12H91.9999V28H99.9999V12H108V36H83.9999Z" fill="#D60018"/>
<path d="M56 36V4H80V36H56ZM72 12H64V28H72V12Z" fill="#D60018"/>
<path d="M27.9999 36V4H51.9999V36H27.9999ZM43.9999 12H35.9999V28H43.9999V12Z" fill="#D60018"/>
<path d="M128 20V36H136V20H128Z" fill="#D60018"/>
<path d="M128 12H112V36H120V20H128V12Z" fill="#D60018"/>
<path d="M16 20V36H24V20H16Z" fill="#D60018"/>
<path d="M16 12H0V36H8V20H16V12Z" fill="#D60018"/>
</svg>
