<svg viewBox="147.458 99.581 16 16" width="16" height="16" xmlns="http://www.w3.org/2000/svg">
  <path d="M 155.458 99.581 C 151.04 99.581 147.458 103.164 147.458 107.581 C 147.458 112 151.04 115.581 155.458 115.581 C 159.876 115.581 163.458 112 163.458 107.581 C 163.458 103.164 159.876 99.581 155.458 99.581 Z M 155.458 103.129 C 156.206 103.129 156.813 103.736 156.813 104.484 C 156.813 105.232 156.206 105.838 155.458 105.838 C 154.709 105.838 154.103 105.232 154.103 104.484 C 154.103 103.736 154.709 103.129 155.458 103.129 Z M 157.265 111.322 C 157.265 111.537 157.091 111.71 156.877 111.71 L 154.039 111.71 C 153.825 111.71 153.651 111.537 153.651 111.322 L 153.651 110.549 C 153.651 110.334 153.825 110.162 154.039 110.162 L 154.425 110.162 L 154.425 108.097 L 154.039 108.097 C 153.825 108.097 153.651 107.924 153.651 107.71 L 153.651 106.936 C 153.651 106.722 153.825 106.548 154.039 106.548 L 156.103 106.548 C 156.317 106.548 156.49 106.722 156.49 106.936 L 156.49 110.162 L 156.877 110.162 C 157.091 110.162 157.265 110.334 157.265 110.549 L 157.265 111.322 Z" class="" style="fill: rgb(172, 181, 189);" />
</svg>
