<svg width="36" height="36" viewBox="0 0 36 36" fill="none" xmlns="http://www.w3.org/2000/svg">
<rect width="36" height="36" rx="18" fill="#F4F4F8"/>
<path d="M18 14V18L21 21M27 18C27 19.1819 26.7672 20.3522 26.3149 21.4442C25.8626 22.5361 25.1997 23.5282 24.364 24.364C23.5282 25.1997 22.5361 25.8626 21.4442 26.3149C20.3522 26.7672 19.1819 27 18 27C16.8181 27 15.6478 26.7672 14.5558 26.3149C13.4639 25.8626 12.4718 25.1997 11.636 24.364C10.8003 23.5282 10.1374 22.5361 9.68508 21.4442C9.23279 20.3522 9 19.1819 9 18C9 15.6131 9.94821 13.3239 11.636 11.636C13.3239 9.94821 15.6131 9 18 9C20.3869 9 22.6761 9.94821 24.364 11.636C26.0518 13.3239 27 15.6131 27 18Z" stroke="#8C8D92" stroke-width="2" stroke-linecap="round" stroke-linejoin="round"/>
</svg>