<svg width="1440" height="68" viewBox="0 0 1440 68" fill="none" xmlns="http://www.w3.org/2000/svg">
<path fill-rule="evenodd" clip-rule="evenodd" d="M127.878 0H73.0723V22.6654H54.8037V45.3313L36.5373 45.3328V22.6665L0 22.6652V67.9978H18.2686V45.3328L36.535 45.3313V67.9974L127.878 67.9988V0ZM109.61 22.6661H91.3413V45.3322H109.61V22.6661Z" fill="#F0EBEA"/>
<path fill-rule="evenodd" clip-rule="evenodd" d="M127.88 0H182.686V67.9988H127.88V0ZM146.149 22.6652H164.417V45.3315H146.149V22.6652Z" fill="#F0EBEA"/>
<path d="M182.687 22.6661H200.955V45.3322H219.224V22.6661L274.03 22.6668V45.333H255.761V67.9995L182.687 67.9985V22.6661Z" fill="#F0EBEA"/>
<path fill-rule="evenodd" clip-rule="evenodd" d="M310.567 22.6672H292.299V45.3337L274.03 45.333L274.03 68L1202.51 67.9988V0H1147.7V22.6654H1129.43V45.3313L1111.44 45.3328V43.9994H1111.16V22.6665L1074.63 22.6652V14.6667H1050.99V29.333L1039.16 29.3332V14.6668H1027.34V29.3332L1015.52 29.3334V14.6669L980.06 14.6664V29.333H968.239V14.6664H956.418V0H920.955V43.9994L920.954 0H885.492V14.6657H873.671V29.3319L861.851 29.3328V14.6663L814.567 14.6667V29.333L802.746 29.3332V14.6668H790.926V29.3332L779.104 29.3334V14.6669L743.642 14.6664V29.333H731.821V14.6664H720V43.9994L720 0H684.537H649.073L649.073 14.6657H637.252V29.3319L625.433 29.3328V14.6663L578.149 14.6667V29.3331H566.328V14.6668H554.507V29.3333H542.686V43.9997L530.865 43.9999V29.3334L542.686 29.3333L542.686 14.667L507.224 14.6664V29.3328H495.403V14.6664H483.582V43.9994L483.581 0H412.655L412.655 14.6656H400.834V29.3319H389.014V14.6663H365.373V22.6668H328.835V45.333H310.567L310.567 22.6672ZM412.655 43.9994L389.013 43.9983V29.3327H377.194V43.9985H365.373L412.655 43.9994ZM589.97 43.9995L684.537 43.9994L625.431 43.9984L625.433 29.3328H613.612V43.9986H601.791V29.3331H589.97V43.9995ZM767.283 43.9999V29.3334H779.104L779.104 43.9997L767.283 43.9999ZM826.388 43.9995L920.955 43.9994L861.85 43.9984L861.851 29.3328H850.03V43.9986H838.209V29.3331H826.388V43.9995ZM1003.7 43.9999V29.3334H1015.52L1015.52 43.9997L1003.7 43.9999ZM1062.81 43.9995L1074.63 43.9994V29.3331H1062.81V43.9995ZM436.297 14.6664H424.476V29.333H436.297V14.6664ZM459.939 14.6657H471.76V29.3322H459.939V14.6657ZM660.894 14.6664H672.715V29.333H660.894V14.6664ZM708.179 14.6657H696.358V29.3322H708.179V14.6657ZM897.313 14.6664H909.134V29.333H897.313V14.6664ZM944.597 14.6657H932.776V29.3322H944.597V14.6657ZM1165.97 22.6661H1184.24V45.3322H1165.97V22.6661Z" fill="#F0EBEA"/>
<path fill-rule="evenodd" clip-rule="evenodd" d="M1257.31 0H1202.51V67.9988H1257.31V0ZM1239.04 22.6652H1220.78V45.3315H1239.04V22.6652Z" fill="#F0EBEA"/>
<path d="M1275.58 22.6661H1257.31V67.9985L1330.39 67.9995V45.333H1348.66V22.6668L1293.85 22.6661V45.3322H1275.58V22.6661Z" fill="#F0EBEA"/>
<path d="M1366.93 22.6672H1385.19L1385.19 45.333H1403.46V22.6668H1440V45.3331H1421.73V67.9993L1348.66 68L1348.66 45.333L1366.93 45.3337V22.6672Z" fill="#F0EBEA"/>
</svg>
